<?xml version="1.0" encoding="UTF-8"?>
<svg version="1.1" xmlns="http://www.w3.org/2000/svg" width="379" height="400">
<path d="M0 0 C2.01007915 0.28830442 2.01007915 0.28830442 3.92578125 -0.87890625 C8.79618934 -1.41324958 12.76790037 -1.42507647 17.23828125 0.68359375 C21.45832944 4.51107932 24.21365972 8.30842077 26.30078125 13.62109375 C27.79685506 16.84340658 28.68708543 18.04831099 31.17578125 20.37109375 C49.54471979 37.77527712 56.16858982 67.17209496 57.2109375 91.54296875 C57.74508187 112.95056274 53.45488747 132.46692552 47.09448242 152.77539062 C46.82611572 153.64615234 46.55774902 154.51691406 46.28125 155.4140625 C46.03785889 156.19418701 45.79446777 156.97431152 45.54370117 157.77807617 C44.55306798 161.53434119 44.23765115 165.25390696 43.92578125 169.12109375 C43.26578125 169.12109375 42.60578125 169.12109375 41.92578125 169.12109375 C42.13259521 169.71011475 42.33940918 170.29913574 42.55249023 170.90600586 C43.49923606 173.62022324 44.4313067 176.33927075 45.36328125 179.05859375 C45.68876953 179.98478516 46.01425781 180.91097656 46.34960938 181.86523438 C48.32784513 187.67757655 49.47961269 192.99413119 49.92578125 199.12109375 C49.28640625 198.79109375 48.64703125 198.46109375 47.98828125 198.12109375 C46.15783558 197.0483815 46.15783558 197.0483815 44.92578125 197.12109375 C44.92578125 197.78109375 44.92578125 198.44109375 44.92578125 199.12109375 C43.60578125 199.12109375 42.28578125 199.12109375 40.92578125 199.12109375 C39.14817367 200.63119302 39.14817367 200.63119302 37.67578125 202.62109375 C37.155 203.27078125 36.63421875 203.92046875 36.09765625 204.58984375 C35.7109375 205.09515625 35.32421875 205.60046875 34.92578125 206.12109375 C40.04373014 207.79893679 44.54864423 206.41455325 49.61328125 205.18359375 C50.54229248 204.95833008 51.47130371 204.73306641 52.4284668 204.50097656 C66.54567918 200.87692102 79.13483373 194.30437951 91.66796875 187.00390625 C94.92578125 185.12109375 94.92578125 185.12109375 97.30859375 183.98828125 C99.11744411 183.21852423 99.11744411 183.21852423 99.92578125 181.12109375 C103.08617954 182.46905915 104.68172282 183.75500611 106.58203125 186.60546875 C107.04738281 187.29382813 107.51273437 187.9821875 107.9921875 188.69140625 C108.46527344 189.41070312 108.93835938 190.13 109.42578125 190.87109375 C109.89886719 191.57492188 110.37195313 192.27875 110.859375 193.00390625 C111.78850924 194.38859938 112.71184621 195.77720281 113.62890625 197.16992188 C114.4559673 198.41425017 115.29831046 199.64864699 116.16015625 200.86914062 C118.92578125 204.80820863 118.92578125 204.80820863 118.92578125 208.12109375 C114.10797197 206.45012821 110.99490103 203.81209863 107.20703125 200.484375 C105.03672803 198.87813166 105.03672803 198.87813166 102.63452148 199.36035156 C99.58869542 200.21576337 97.09301175 201.43390531 94.3046875 202.9296875 C92.67067993 203.7959375 92.67067993 203.7959375 91.00366211 204.6796875 C89.84358643 205.29972656 88.68351074 205.91976562 87.48828125 206.55859375 C34.18364079 234.65652296 34.18364079 234.65652296 18.40625 230.44921875 C16.22427762 229.72074923 14.06954711 228.95478047 11.92578125 228.12109375 C11.29414063 228.78753906 10.6625 229.45398438 10.01171875 230.140625 C-0.83084731 241.31128024 -12.58971442 250.33004681 -26.07421875 258.12109375 C-27.41419922 258.91386719 -27.41419922 258.91386719 -28.78125 259.72265625 C-34.65731931 263.12109375 -34.65731931 263.12109375 -38.07421875 263.12109375 C-38.40421875 272.36109375 -38.73421875 281.60109375 -39.07421875 291.12109375 C-36.04234375 291.05921875 -33.01046875 290.99734375 -29.88671875 290.93359375 C-28.94030518 290.92690674 -27.9938916 290.92021973 -27.01879883 290.91333008 C-22.54948765 290.74776489 -20.63359094 290.58687164 -17.0859375 287.6328125 C-16.42207031 286.80394531 -15.75820312 285.97507812 -15.07421875 285.12109375 C-14.41421875 284.79109375 -13.75421875 284.46109375 -13.07421875 284.12109375 C-12.60800786 282.00087688 -12.60800786 282.00087688 -12.32421875 279.49609375 C-11.30373086 274.09214651 -9.61093751 270.38938298 -5.07421875 267.12109375 C-2.51542436 266.24529188 0.04316764 265.62292056 2.671875 264.9921875 C5.33884897 263.96145059 5.87998706 263.20891043 7.11328125 260.68359375 C9.30825735 256.36933038 11.40514228 254.69431402 15.92578125 253.12109375 C19.46056472 252.81637104 22.14528052 252.89809354 25.55078125 253.87109375 C28.13659004 254.40872162 28.13659004 254.40872162 30.55078125 252.24609375 C31.33453125 251.54484375 32.11828125 250.84359375 32.92578125 250.12109375 C36.98412066 248.76831395 40.68204454 248.56977069 44.92578125 249.12109375 C48.30078125 251.05859375 48.30078125 251.05859375 50.92578125 253.12109375 C53.92578125 254.45442708 53.92578125 254.45442708 56.92578125 253.12109375 C62.17472292 252.72494721 65.47920219 253.25552058 69.92578125 256.12109375 C72.61960575 258.96053039 74.34648349 261.21083384 74.92578125 265.12109375 C76.12203125 265.20359375 77.31828125 265.28609375 78.55078125 265.37109375 C83.87535916 266.04962403 87.30018598 268.22456593 90.80078125 272.30859375 C92.38429719 276.26738361 92.17341261 279.91136067 91.92578125 284.12109375 C93.00859375 284.43046875 93.00859375 284.43046875 94.11328125 284.74609375 C97.91034125 286.60243419 99.42391205 288.71577178 101.92578125 292.12109375 C103.41662957 296.59363872 103.41662957 300.64854878 101.92578125 305.12109375 C102.89 305.58 103.85421875 306.03890625 104.84765625 306.51171875 C106.12390858 307.1310765 107.39993862 307.75089247 108.67578125 308.37109375 C109.31 308.67144531 109.94421875 308.97179687 110.59765625 309.28125 C114.32385322 311.10553393 117.33201158 312.84815746 119.92578125 316.12109375 C120.23828125 319.49609375 120.23828125 319.49609375 118.92578125 323.12109375 C102.8352983 339.73582803 65.89126196 340.02880119 44.58935547 342.66162109 C38.36299314 343.44250966 32.14467913 344.28303965 25.92578125 345.12109375 C25.62647705 345.91636475 25.32717285 346.71163574 25.01879883 347.53100586 C23.21286661 351.81046418 20.00274257 353.18119796 15.92578125 355.12109375 C-1.0113072 361.79615947 -20.11763385 363.25854382 -38.1484375 363.32421875 C-40.00974052 363.33276886 -40.00974052 363.33276886 -41.90864563 363.3414917 C-44.52999023 363.35090049 -47.15134644 363.3574592 -49.77270508 363.36132812 C-53.70481164 363.37095443 -57.63637688 363.40198578 -61.56835938 363.43359375 C-116.64485712 363.66458305 -116.64485712 363.66458305 -133.57421875 350.12109375 C-135.07421875 348.12109375 -135.07421875 348.12109375 -135.07421875 344.12109375 C-135.93772949 344.02610596 -136.80124023 343.93111816 -137.69091797 343.83325195 C-203.81759433 336.45714645 -203.81759433 336.45714645 -220.57421875 324.30859375 C-222.07421875 322.12109375 -222.07421875 322.12109375 -222.82421875 318.74609375 C-221.84852307 314.03023131 -219.94416546 312.85732251 -216.1171875 310.1875 C-214.07421875 309.12109375 -214.07421875 309.12109375 -211.07421875 309.12109375 C-210.99171875 308.41984375 -210.90921875 307.71859375 -210.82421875 306.99609375 C-209.32656529 301.2550888 -205.90059426 297.41715508 -201.07421875 294.12109375 C-198.26171875 292.87109375 -198.26171875 292.87109375 -196.07421875 292.12109375 C-196.30109375 291.02796875 -196.52796875 289.93484375 -196.76171875 288.80859375 C-197.07421875 285.12109375 -197.07421875 285.12109375 -195.63671875 283.18359375 C-195.12109375 282.83296875 -194.60546875 282.48234375 -194.07421875 282.12109375 C-192.26171875 282.62109375 -192.26171875 282.62109375 -190.07421875 284.12109375 C-188.81269266 286.70748615 -187.9177883 289.37310204 -187.07421875 292.12109375 C-187.1928125 291.02410156 -187.31140625 289.92710937 -187.43359375 288.796875 C-187.56495202 287.34255132 -187.69509652 285.88811766 -187.82421875 284.43359375 C-187.90542969 283.71236328 -187.98664063 282.99113281 -188.0703125 282.24804688 C-188.37624274 278.52589563 -188.24199333 276.41431447 -186.37109375 273.14453125 C-183.85320367 270.92638999 -182.8632508 270.5068085 -179.57421875 270.43359375 C-176.26394837 270.33645268 -176.26394837 270.33645268 -173.23046875 269.140625 C-170.19609127 267.70589217 -167.41160781 267.68700372 -164.07421875 267.49609375 C-162.24890625 267.38394531 -162.24890625 267.38394531 -160.38671875 267.26953125 C-157.95116075 267.16039068 -155.51222089 267.12109375 -153.07421875 267.12109375 C-151.62071423 266.66972821 -150.18270178 266.16626664 -148.76171875 265.62109375 C-143.4365963 263.76430763 -138.51462737 263.38016299 -133.07421875 265.12109375 C-134.92350161 263.27181089 -137.32051635 262.02792943 -139.51171875 260.62109375 C-159.42746021 247.31247031 -172.02265767 228.26314026 -176.7578125 204.72265625 C-181.92579214 173.00195366 -172.59268891 141.07054239 -154.07421875 115.12109375 C-151.18520687 111.35420534 -148.17148162 107.71808306 -145.07421875 104.12109375 C-144.31753906 103.24066406 -143.56085938 102.36023438 -142.78125 101.453125 C-136.21863453 93.98687918 -129.1161213 87.77942481 -121.19921875 81.80859375 C-120.5652417 81.33035156 -119.93126465 80.85210937 -119.27807617 80.359375 C-115.79508058 77.82162346 -112.37163747 75.6980444 -108.453125 73.89453125 C-95.64832687 67.94212405 -91.64953113 61.3193188 -86.19091797 48.53320312 C-76.93659105 28.54353325 -56.86308974 10.48802078 -36.5 2.765625 C-24.27478614 -1.09570252 -12.69709539 -1.68324833 0 0 Z M36.92578125 188.12109375 C37.92578125 190.12109375 37.92578125 190.12109375 37.92578125 190.12109375 Z M37.92578125 190.12109375 C38.92578125 192.12109375 38.92578125 192.12109375 38.92578125 192.12109375 Z M-125.07421875 268.12109375 C-124.03423364 269.9672921 -122.96640475 271.79782869 -121.88671875 273.62109375 C-120.99919922 275.1525 -120.99919922 275.1525 -120.09375 276.71484375 C-118.29801561 279.40819839 -118.29801561 279.40819839 -115.3359375 279.46484375 C-114.58957031 279.35140625 -113.84320313 279.23796875 -113.07421875 279.12109375 C-112.74421875 277.47109375 -112.41421875 275.82109375 -112.07421875 274.12109375 C-113.20859375 273.66734375 -114.34296875 273.21359375 -115.51171875 272.74609375 C-119.07421875 271.12109375 -119.07421875 271.12109375 -120.07421875 269.12109375 C-122.6015511 268.46554256 -122.6015511 268.46554256 -125.07421875 268.12109375 Z M-65.19921875 271.55859375 C-70.4778324 272.64052996 -75.71200604 273.57392919 -81.07421875 274.12109375 C-81.92033908 279.19781576 -82.33614966 283.96978593 -82.07421875 289.12109375 C-79.66573582 291.52957668 -79.00769085 291.4425586 -75.69921875 291.49609375 C-69.40607691 291.40408875 -63.89484355 289.36133422 -58.07421875 287.12109375 C-56.75421875 288.44109375 -55.43421875 289.76109375 -54.07421875 291.12109375 C-54.21576011 288.55829167 -54.36230437 285.9959389 -54.51171875 283.43359375 C-54.55103516 282.71236328 -54.59035156 281.99113281 -54.63085938 281.24804688 C-54.85607553 277.45402093 -55.2026118 273.83457883 -56.07421875 270.12109375 C-59.18487612 270.12109375 -62.16520055 270.9259718 -65.19921875 271.55859375 Z M-98.07421875 283.12109375 C-99.10689895 285.9093303 -99.11931168 286.98882115 -98.13671875 289.87109375 C-97.78609375 290.61359375 -97.43546875 291.35609375 -97.07421875 292.12109375 C-96.41421875 292.12109375 -95.75421875 292.12109375 -95.07421875 292.12109375 C-95.73421875 289.15109375 -96.39421875 286.18109375 -97.07421875 283.12109375 C-97.40421875 283.12109375 -97.73421875 283.12109375 -98.07421875 283.12109375 Z " fill="#CDEDEB" transform="translate(238.07421875,20.87890625)"/>
<path d="M0 0 C3.375 1.9375 3.375 1.9375 6 4 C9 5.33333333 9 5.33333333 12 4 C17.24894167 3.60385346 20.55342094 4.13442683 25 7 C27.6938245 9.83943664 29.42070224 12.08974009 30 16 C31.19625 16.0825 32.3925 16.165 33.625 16.25 C38.94957791 16.92853028 42.37440473 19.10347218 45.875 23.1875 C47.45851594 27.14628986 47.24763136 30.79026692 47 35 C47.721875 35.20625 48.44375 35.4125 49.1875 35.625 C52.98456 37.48134044 54.4981308 39.59467803 57 43 C58.49084832 47.47254497 58.49084832 51.52745503 57 56 C58.44632812 56.68835938 58.44632812 56.68835938 59.921875 57.390625 C61.19812733 58.00998275 62.47415737 58.62979872 63.75 59.25 C64.38421875 59.55035156 65.0184375 59.85070312 65.671875 60.16015625 C69.39807197 61.98444018 72.40623033 63.72706371 75 67 C75.3125 70.375 75.3125 70.375 74 74 C57.90951705 90.61473428 20.96548071 90.90770744 -0.33642578 93.54052734 C-6.56278811 94.32141591 -12.78110212 95.1619459 -19 96 C-19.2993042 96.795271 -19.5986084 97.59054199 -19.90698242 98.40991211 C-21.71291464 102.68937043 -24.92303868 104.06010421 -29 106 C-45.93708845 112.67506572 -65.0434151 114.13745007 -83.07421875 114.203125 C-84.93552177 114.21167511 -84.93552177 114.21167511 -86.83442688 114.22039795 C-89.45577148 114.22980674 -92.07712769 114.23636545 -94.69848633 114.24023438 C-98.63059289 114.24986068 -102.56215813 114.28089203 -106.49414062 114.3125 C-161.57063837 114.5434893 -161.57063837 114.5434893 -178.5 101 C-180 99 -180 99 -180 95 C-181.29526611 94.85751831 -181.29526611 94.85751831 -182.61669922 94.7121582 C-248.74337558 87.3360527 -248.74337558 87.3360527 -265.5 75.1875 C-267 73 -267 73 -267.75 69.625 C-266.77430432 64.90913756 -264.86994671 63.73622876 -261.04296875 61.06640625 C-259 60 -259 60 -256 60 C-255.9175 59.29875 -255.835 58.5975 -255.75 57.875 C-254.25234654 52.13399505 -250.82637551 48.29606133 -246 45 C-243.1875 43.75 -243.1875 43.75 -241 43 C-241.3403125 41.3603125 -241.3403125 41.3603125 -241.6875 39.6875 C-242 36 -242 36 -240.5625 34.0625 C-240.046875 33.711875 -239.53125 33.36125 -239 33 C-237.1875 33.5 -237.1875 33.5 -235 35 C-233.73847391 37.5863924 -232.84356955 40.25200829 -232 43 C-232.11859375 41.90300781 -232.2371875 40.80601562 -232.359375 39.67578125 C-232.49073327 38.22145757 -232.62087777 36.76702391 -232.75 35.3125 C-232.83121094 34.59126953 -232.91242188 33.87003906 -232.99609375 33.12695312 C-233.30202399 29.40480188 -233.16777458 27.29322072 -231.296875 24.0234375 C-228.77898492 21.80529624 -227.78903205 21.38571475 -224.5 21.3125 C-221.18972962 21.21535893 -221.18972962 21.21535893 -218.15625 20.01953125 C-215.12187252 18.58479842 -212.33738906 18.56590997 -209 18.375 C-207.783125 18.30023438 -206.56625 18.22546875 -205.3125 18.1484375 C-202.876942 18.03929693 -200.43800214 18 -198 18 C-196.54649548 17.54863446 -195.10848303 17.04517289 -193.6875 16.5 C-186.90012745 14.15990914 -180.69969387 14.60725219 -174 17 C-168.74689319 19.78105655 -166.10636371 23.06636352 -163 28 C-163 28.66 -163 29.32 -163 30 C-161.35 30 -159.7 30 -158 30 C-157.67 28.35 -157.34 26.7 -157 25 C-152.20699867 23.60848348 -147.84864218 24.31337311 -143 25 C-142.505 26.98 -142.505 26.98 -142 29 C-142 28.01 -142 27.02 -142 26 C-136.72 26.33 -131.44 26.66 -126 27 C-126.03255208 30.35286458 -126.06510417 33.70572917 -126.09765625 37.05859375 C-126.33901792 39.88873341 -126.33901792 39.88873341 -125 41 C-117.05307413 42.01627354 -110.34970076 39.82875081 -103 37 C-100.16796875 41.8828125 -100.16796875 41.8828125 -99 44 C-98.21109375 45.31484375 -98.21109375 45.31484375 -97.40625 46.65625 C-95.59632182 50.959857 -95.44151542 54.75256184 -95.3125 59.375 C-95.27833984 60.20644531 -95.24417969 61.03789062 -95.20898438 61.89453125 C-95.12712854 63.92923351 -95.06187299 65.96459208 -95 68 C-99.62 70.64 -104.24 73.28 -109 76 C-99.85476521 74.3585476 -90.91199314 72.66226914 -82 70 C-82.2165625 68.85337891 -82.2165625 68.85337891 -82.4375 67.68359375 C-83.94300166 58.99559458 -84.21872155 50.78531562 -84 42 C-82.68644531 41.98582031 -81.37289062 41.97164063 -80.01953125 41.95703125 C-78.28381949 41.91012012 -76.54814348 41.86187279 -74.8125 41.8125 C-73.94818359 41.80669922 -73.08386719 41.80089844 -72.19335938 41.79492188 C-67.62630129 41.63743711 -65.62995792 41.5245532 -62.01171875 38.51171875 C-61.34785156 37.68285156 -60.68398437 36.85398437 -60 36 C-59.34 35.67 -58.68 35.34 -58 35 C-57.53378911 32.87978313 -57.53378911 32.87978313 -57.25 30.375 C-56.22951211 24.97105276 -54.53671876 21.26828923 -50 18 C-47.44120561 17.12419813 -44.88261361 16.50182681 -42.25390625 15.87109375 C-39.58693228 14.84035684 -39.04579419 14.08781668 -37.8125 11.5625 C-35.6175239 7.24823663 -33.52063897 5.57322027 -29 4 C-25.46521653 3.69527729 -22.78050073 3.77699979 -19.375 4.75 C-16.78919121 5.28762787 -16.78919121 5.28762787 -14.375 3.125 C-13.59125 2.42375 -12.8075 1.7225 -12 1 C-7.94166059 -0.3527798 -4.24373671 -0.55132306 0 0 Z M-143 34 C-144.0326802 36.78823655 -144.04509293 37.8677274 -143.0625 40.75 C-142.711875 41.4925 -142.36125 42.235 -142 43 C-141.34 43 -140.68 43 -140 43 C-140.66 40.03 -141.32 37.06 -142 34 C-142.33 34 -142.66 34 -143 34 Z " fill="#95D8D3" transform="translate(283,270)"/>
<path d="M0 0 C3.3 0 6.6 0 10 0 C10.05607422 1.52367187 10.05607422 1.52367187 10.11328125 3.078125 C10.57743691 17.7149403 10.57743691 17.7149403 16 31 C19.04622361 31.62478031 19.04622361 31.62478031 22.5 31.75 C23.6653125 31.82734375 24.830625 31.9046875 26.03125 31.984375 C28.93011158 32.22324206 28.93011158 32.22324206 31 31 C33.71760108 30.92818179 36.40859388 30.90700494 39.125 30.9375 C39.87910156 30.94201172 40.63320312 30.94652344 41.41015625 30.95117188 C43.27347127 30.96296501 45.13674555 30.98090058 47 31 C47 30.01 47 29.02 47 28 C58.60471204 22.06806283 58.60471204 22.06806283 62.5625 21.875 C65.6551742 23.30238809 66.59209336 25.08388181 67.953125 28.140625 C74 44.65671642 74 44.65671642 74 52 C73.360625 51.67 72.72125 51.34 72.0625 51 C70.23205433 49.92728775 70.23205433 49.92728775 69 50 C69 50.66 69 51.32 69 52 C67.68 52 66.36 52 65 52 C63.16619731 53.64355018 63.16619731 53.64355018 61.5625 55.8125 C58.98869922 59.09096085 56.64707574 60.98068352 53 63 C52.30261719 63.44859375 51.60523438 63.8971875 50.88671875 64.359375 C39.37351864 71.63948022 27.65792393 76.85404405 14 78 C13.67 76.68 13.34 75.36 13 74 C12.030625 74.32355469 11.06125 74.64710938 10.0625 74.98046875 C5.69132729 76.22138148 1.52217936 76.34208997 -3 76.3125 C-4.23327026 76.31056641 -4.23327026 76.31056641 -5.49145508 76.30859375 C-13.2476073 76.18874978 -20.48621476 74.88686984 -28 73 C-27.45136137 66.2142064 -26.45732062 59.64990964 -25 53 C-25.721875 53.61875 -26.44375 54.2375 -27.1875 54.875 C-33.79862998 59.87007599 -41.86522741 61.33894886 -50 61 C-50.71694957 63.95741698 -50.9864071 66.37380463 -50.875 69.4375 C-51.06860016 74.95510451 -52.90293263 77.82457067 -56.625 81.8125 C-60.34478091 84.74323648 -64.3997002 84.88754823 -69 85 C-68.22131787 81.6162722 -67.50561819 79.50561819 -65 77 C-62.6859378 76.26924352 -60.35171131 75.59861742 -58 75 C-55.78103864 73.17528109 -55.78103864 73.17528109 -55.625 70.5625 C-55.74530409 67.84473993 -55.74530409 67.84473993 -58 66.1875 C-58.66 65.795625 -59.32 65.40375 -60 65 C-60.99 65.66 -61.98 66.32 -63 67 C-65.5625 67.3125 -65.5625 67.3125 -68 67 C-68.66 66.01 -69.32 65.02 -70 64 C-71.134375 63.731875 -72.26875 63.46375 -73.4375 63.1875 C-77 62 -77 62 -78.9375 58.875 C-79.288125 57.92625 -79.63875 56.9775 -80 56 C-80.556875 56.33 -81.11375 56.66 -81.6875 57 C-84.43161823 58.18664572 -86.03954738 58.44406789 -89 58 C-91.3125 56.125 -91.3125 56.125 -93 54 C-93 53.34 -93 52.68 -93 52 C-96.08089673 54.77280706 -97.68775452 57.06326356 -99 61 C-102 60 -102 60 -103.6875 57.3125 C-105.14592451 53.63171432 -105.68828836 51.90030071 -105 48 C-102.87591726 43.815557 -100.84319345 39.95286253 -96.58203125 37.75 C-88.84781056 35.50344876 -80.69696651 37.36110219 -73 39 C-73 38.34 -73 37.68 -73 37 C-74.051875 37.103125 -75.10375 37.20625 -76.1875 37.3125 C-80 37 -80 37 -82.8125 34.6875 C-86.17128328 30.56099482 -87.2492731 28.59410657 -87.125 23.3125 C-87.10695313 22.31863281 -87.08890625 21.32476562 -87.0703125 20.30078125 C-87.04710938 19.54152344 -87.02390625 18.78226563 -87 18 C-87.639375 17.690625 -88.27875 17.38125 -88.9375 17.0625 C-91 16 -91 16 -92 15 C-92.4375 11.75 -92.4375 11.75 -92 8 C-89.2504705 4.50735441 -87.69832989 3.28305498 -83.328125 2.5546875 C-78.72284233 2.36798685 -75.83473522 2.50897928 -71.8125 4.875 C-70 7 -70 7 -70 9 C-69.2575 9.061875 -68.515 9.12375 -67.75 9.1875 C-64.06366405 10.27664471 -63.08507568 11.81080196 -61 15 C-60.5390625 17.9453125 -60.5390625 17.9453125 -60.625 21.125 C-60.66560547 22.83042969 -60.66560547 22.83042969 -60.70703125 24.5703125 C-60.98539747 27.82905305 -61.5672246 30.82073267 -62.3125 34 C-62.93911385 36.61301969 -62.93911385 36.61301969 -63 39 C-60.81197419 41.93854074 -60.81197419 41.93854074 -58 44 C-57.1875 46.8125 -57.1875 46.8125 -57 49 C-56.34 49 -55.68 49 -55 49 C-55 49.99 -55 50.98 -55 52 C-54.34 52 -53.68 52 -53 52 C-53.2475 51.2265625 -53.2475 51.2265625 -53.5 50.4375 C-54.67051847 44.73122244 -54.38348399 40.47479394 -51.2734375 35.578125 C-49.19785251 33.00592765 -46.90807823 31.51462408 -44 30 C-42.68 30 -41.36 30 -40 30 C-39.896875 29.071875 -39.79375 28.14375 -39.6875 27.1875 C-39 24 -39 24 -37.9375 22.125 C-34.75054295 20.27450881 -31.52600572 20.38588159 -28 21 C-23.60211267 23.54100157 -22.14398087 26.51545549 -20 31 C-17.70760939 30.91321237 -15.4160193 30.80504727 -13.125 30.6875 C-11.84882813 30.62949219 -10.57265625 30.57148438 -9.2578125 30.51171875 C-8.18273437 30.34285156 -7.10765625 30.17398438 -6 30 C-3.7846203 26.67693045 -3.481346 24.71755662 -2.9296875 20.80078125 C-2.75566406 19.59228516 -2.58164063 18.38378906 -2.40234375 17.13867188 C-2.22832031 15.87603516 -2.05429688 14.61339844 -1.875 13.3125 C-1.69324219 12.03826172 -1.51148438 10.76402344 -1.32421875 9.45117188 C-0.87597683 6.30168259 -0.43486669 3.15135924 0 0 Z M61 41 C62 43 62 43 62 43 Z M62 43 C63 45 63 45 63 45 Z " fill="#571E3F" transform="translate(214,168)"/>
<path d="M0 0 C0.33 0 0.66 0 1 0 C1 1.98 1 3.96 1 6 C3.31 6 5.62 6 8 6 C8.80967438 8.91482778 9.21845993 10.46113217 8.0625 13.3125 C7.711875 13.869375 7.36125 14.42625 7 15 C8.65 15 10.3 15 12 15 C15.38582205 22.14024732 17.97340299 29.46459532 20.4765625 36.953125 C21.10499793 38.81462819 21.73343458 40.67613096 22.3619442 42.5376091 C23.23250898 45.11952973 24.09911733 47.70277126 24.96575928 50.28601074 C26.48920298 54.82460638 28.01845008 59.36124882 29.5484314 63.89764404 C30.36044912 66.306592 31.17075845 68.71611667 31.97915649 71.12628174 C32.34648895 72.21801697 32.71382141 73.3097522 33.09228516 74.43457031 C33.41331207 75.3911554 33.73433899 76.34774048 34.06509399 77.33331299 C34.69240908 79.12264046 35.37590337 80.89317176 36.11141968 82.64080811 C37.19851884 85.52707 37.14224175 87.9418023 37 91 C37.66 91 38.32 91 39 91 C39.72750788 92.40691607 40.43140353 93.82606022 41.125 95.25 C41.51945312 96.03890625 41.91390625 96.8278125 42.3203125 97.640625 C43 100 43 100 42.5625 102.03125 C40.22279442 104.97927904 37.13768272 106.50559538 33.875 108.25 C33.21628906 108.61351562 32.55757813 108.97703125 31.87890625 109.3515625 C30.25799664 110.24423736 28.62968964 111.12345675 27 112 C27.99 113.485 27.99 113.485 29 115 C28.34 115 27.68 115 27 115 C27 115.99 27 116.98 27 118 C25.87980469 118.06058594 24.75960937 118.12117188 23.60546875 118.18359375 C22.13280016 118.26801424 20.66014456 118.35266149 19.1875 118.4375 C18.44951172 118.47681641 17.71152344 118.51613281 16.95117188 118.55664062 C13.76928658 118.74381035 11.03837622 118.98720793 8 120 C-2.55535808 120.34145321 -2.55535808 120.34145321 -6.625 116.5625 C-10.39319885 106.79943933 -10.23024722 97.30995907 -10 87 C-13.3 87 -16.6 87 -20 87 C-19.97292969 88.11890625 -19.94585937 89.2378125 -19.91796875 90.390625 C-19.92118586 95.25918609 -20.5549464 99.94839164 -21.3125 104.75 C-21.48942383 106.00490234 -21.48942383 106.00490234 -21.66992188 107.28515625 C-22.96660755 115.62384258 -22.96660755 115.62384258 -26 118 C-28.68528464 118.45781902 -30.99651714 118.69472304 -33.6875 118.75 C-34.7403418 118.79447266 -34.7403418 118.79447266 -35.81445312 118.83984375 C-37.54235424 118.91037033 -39.2711832 118.95747068 -41 119 C-42.09348926 114.88603343 -41.80597876 111.79431226 -41.0625 107.625 C-39.85893808 99.99974864 -39.80593112 92.6980655 -40 85 C-41.7532127 86.72600767 -43.50258071 88.45564297 -45.25 90.1875 C-45.98669922 90.91163086 -45.98669922 90.91163086 -46.73828125 91.65039062 C-49.72186977 94.61408855 -52.43322337 97.657079 -55 101 C-56.65 100.67 -58.3 100.34 -60 100 C-59.01 99.01 -59.01 99.01 -58 98 C-57.01 98.33 -56.02 98.66 -55 99 C-58.93470135 94.28792604 -62.8822812 90.02888644 -67.71484375 86.2265625 C-68.13894531 85.82179688 -68.56304687 85.41703125 -69 85 C-69 84.34 -69 83.68 -69 83 C-67.53125 81.58984375 -67.53125 81.58984375 -65.5 79.9375 C-56.7190249 72.43802383 -51.07947148 64.22915124 -45.6875 54.0625 C-44.3852481 51.6592891 -43.07327687 49.26142293 -41.76171875 46.86328125 C-41.44073212 46.27400848 -41.11974548 45.68473572 -40.78903198 45.0776062 C-37.96521009 39.90316971 -35.04131494 34.79935221 -32 29.75 C-31.38838013 28.70791382 -31.38838013 28.70791382 -30.7644043 27.64477539 C-27.77334805 22.73502005 -24.15884886 18.94171264 -20 15 C-19.113125 14.071875 -18.22625 13.14375 -17.3125 12.1875 C-15 10 -15 10 -11 8 C-10.505 12.95 -10.505 12.95 -10 18 C-8.741875 17.855625 -7.48375 17.71125 -6.1875 17.5625 C-5.12595703 17.44068359 -5.12595703 17.44068359 -4.04296875 17.31640625 C-1.80603607 17.02829265 -1.80603607 17.02829265 1 16 C0.505 15.01 0.505 15.01 0 14 C-0.07116382 11.62597499 -0.08409085 9.24999323 -0.0625 6.875 C-0.05347656 5.59367187 -0.04445313 4.31234375 -0.03515625 2.9921875 C-0.02355469 2.00476563 -0.01195312 1.01734375 0 0 Z " fill="#96D8D3" transform="translate(234,81)"/>
<path d="M0 0 C3.375 1.9375 3.375 1.9375 6 4 C9 5.33333333 9 5.33333333 12 4 C17.24894167 3.60385346 20.55342094 4.13442683 25 7 C27.6938245 9.83943664 29.42070224 12.08974009 30 16 C31.19625 16.0825 32.3925 16.165 33.625 16.25 C38.94957791 16.92853028 42.37440473 19.10347218 45.875 23.1875 C47.45851594 27.14628986 47.24763136 30.79026692 47 35 C47.721875 35.20625 48.44375 35.4125 49.1875 35.625 C52.98456 37.48134044 54.4981308 39.59467803 57 43 C58.41933513 47.25800538 58.72651677 51.22911538 57 55.4375 C56.67 55.953125 56.34 56.46875 56 57 C54.35 56.67 52.7 56.34 51 56 C50.67 56.99 50.34 57.98 50 59 C44.5754596 59.26678068 44.5754596 59.26678068 42 59 C40.3125 57.4375 40.3125 57.4375 39 56 C36.32520673 56.26095544 34.39904859 56.8004757 32 58 C31.80664062 57.30132812 31.61328125 56.60265625 31.4140625 55.8828125 C31.15367187 54.97273438 30.89328125 54.06265625 30.625 53.125 C30.36976563 52.22007812 30.11453125 51.31515625 29.8515625 50.3828125 C29.1395685 47.85430274 29.1395685 47.85430274 27 46 C24.48250172 45.85231087 24.48250172 45.85231087 22 47 C19.45758943 50.90441623 18.68686466 54.45270156 18 59 C12.96460323 59.02477487 7.92924219 59.04289549 2.89379883 59.05493164 C1.18187848 59.05995099 -0.53003761 59.06676785 -2.24194336 59.07543945 C-4.70687922 59.08761021 -7.17175825 59.09325238 -9.63671875 59.09765625 C-10.77919319 59.10539818 -10.77919319 59.10539818 -11.94474792 59.11329651 C-16.65522624 59.1137904 -20.78827736 58.59776288 -25.3125 57.375 C-29.04293065 56.85447479 -32.27932041 57.43243871 -36 58 C-36.33 57.34 -36.66 56.68 -37 56 C-37.33 56.66 -37.66 57.32 -38 58 C-39.36125 57.7215625 -39.36125 57.7215625 -40.75 57.4375 C-44.50389078 56.929331 -44.50389078 56.929331 -48 58 C-48.33 58.99 -48.66 59.98 -49 61 C-52.63 60.34 -56.26 59.68 -60 59 C-60.33 57.68 -60.66 56.36 -61 55 C-61.66 54.67 -62.32 54.34 -63 54 C-63.33 54.99 -63.66 55.98 -64 57 C-66.13312353 52.73375294 -66.58913416 48.69466281 -66 44 C-64.66997159 40.28992076 -64.02251541 38.498788 -60.4375 36.75 C-57.82316115 35.26792571 -57.82316115 35.26792571 -57.4453125 32.84375 C-57.31898438 31.9878125 -57.19265625 31.131875 -57.0625 30.25 C-56.31325587 25.6262862 -55.13189306 22.79487908 -51.9140625 19.37890625 C-48.95966142 17.25053159 -45.75276011 16.7106101 -42.25390625 15.87109375 C-39.58693228 14.84035684 -39.04579419 14.08781668 -37.8125 11.5625 C-35.6175239 7.24823663 -33.52063897 5.57322027 -29 4 C-25.46521653 3.69527729 -22.78050073 3.77699979 -19.375 4.75 C-16.78919121 5.28762787 -16.78919121 5.28762787 -14.375 3.125 C-13.59125 2.42375 -12.8075 1.7225 -12 1 C-7.94166059 -0.3527798 -4.24373671 -0.55132306 0 0 Z " fill="#2A4D52" transform="translate(283,270)"/>
<path d="M0 0 C3.43792061 2.82673473 5.44183005 5.54731831 7.8125 9.3125 C7.8125 9.9725 7.8125 10.6325 7.8125 11.3125 C9.4625 11.3125 11.1125 11.3125 12.8125 11.3125 C13.1425 9.6625 13.4725 8.0125 13.8125 6.3125 C18.60550133 4.92098348 22.96385782 5.62587311 27.8125 6.3125 C28.3075 8.2925 28.3075 8.2925 28.8125 10.3125 C28.8125 9.3225 28.8125 8.3325 28.8125 7.3125 C34.0925 7.6425 39.3725 7.9725 44.8125 8.3125 C44.77994792 11.66536458 44.74739583 15.01822917 44.71484375 18.37109375 C44.47348208 21.20123341 44.47348208 21.20123341 45.8125 22.3125 C53.75942587 23.32877354 60.46279924 21.14125081 67.8125 18.3125 C70.29194413 22.58740367 72.64449193 26.86808346 74.8125 31.3125 C72.34449953 30.16076645 70.76466435 29.26466435 68.8125 27.3125 C68.01585937 27.79460937 67.21921875 28.27671875 66.3984375 28.7734375 C65.33882812 29.40507812 64.27921875 30.03671875 63.1875 30.6875 C62.14335937 31.31398438 61.09921875 31.94046875 60.0234375 32.5859375 C53.70037943 35.98592736 47.93582553 37.26545325 40.8125 36.3125 C36.43867474 33.89293709 34.69852505 30.8786659 32.8125 26.3125 C32.8125 25.6525 32.8125 24.9925 32.8125 24.3125 C32.1525 24.3125 31.4925 24.3125 30.8125 24.3125 C29.8225 20.8475 29.8225 20.8475 28.8125 17.3125 C28.4825 17.9725 28.1525 18.6325 27.8125 19.3125 C28.3075 20.3025 28.3075 20.3025 28.8125 21.3125 C28.8841735 23.86407655 28.90558442 26.38722971 28.875 28.9375 C28.87048828 29.64390625 28.86597656 30.3503125 28.86132812 31.078125 C28.84953875 32.82295275 28.83160324 34.567737 28.8125 36.3125 C30.111875 36.456875 31.41125 36.60125 32.75 36.75 C36.6875 37.1875 36.6875 37.1875 37.8125 38.3125 C37.85313832 39.97867115 37.855221 41.64638095 37.8125 43.3125 C30.43936567 43.59608209 30.43936567 43.59608209 26.8125 41.3125 C26.1525 40.9825 25.4925 40.6525 24.8125 40.3125 C24.4825 45.5925 24.1525 50.8725 23.8125 56.3125 C16.8825 57.7975 16.8825 57.7975 9.8125 59.3125 C9.8125 58.6525 9.8125 57.9925 9.8125 57.3125 C10.63105469 56.92449219 11.44960937 56.53648437 12.29296875 56.13671875 C13.12441406 55.53472656 13.95585938 54.93273437 14.8125 54.3125 C15.41874398 50.88889262 15.41874398 50.88889262 15.125 47.125 C15.05732422 45.21654297 15.05732422 45.21654297 14.98828125 43.26953125 C14.93027344 42.29371094 14.87226562 41.31789063 14.8125 40.3125 C13.8225 40.3125 12.8325 40.3125 11.8125 40.3125 C11.8125 39.6525 11.8125 38.9925 11.8125 38.3125 C11.1525 38.3125 10.4925 38.3125 9.8125 38.3125 C9.8125 39.3025 9.8125 40.2925 9.8125 41.3125 C8.4925 41.3125 7.1725 41.3125 5.8125 41.3125 C5.4825 40.6525 5.1525 39.9925 4.8125 39.3125 C1.7379644 40.0888932 1.7379644 40.0888932 -0.1875 42.3125 C-1.1775 42.3125 -2.1675 42.3125 -3.1875 42.3125 C-3.1875 41.6525 -3.1875 40.9925 -3.1875 40.3125 C-3.8475 40.3125 -4.5075 40.3125 -5.1875 40.3125 C-5.6825 41.3025 -5.6825 41.3025 -6.1875 42.3125 C-6.8475 42.3125 -7.5075 42.3125 -8.1875 42.3125 C-8.1875 41.6525 -8.1875 40.9925 -8.1875 40.3125 C-8.8475 40.3125 -9.5075 40.3125 -10.1875 40.3125 C-10.5175 39.6525 -10.8475 38.9925 -11.1875 38.3125 C-11.5175 39.3025 -11.8475 40.2925 -12.1875 41.3125 C-12.8475 41.3125 -13.5075 41.3125 -14.1875 41.3125 C-14.1875 40.6525 -14.1875 39.9925 -14.1875 39.3125 C-14.8475 39.3125 -15.5075 39.3125 -16.1875 39.3125 C-16.5175 40.3025 -16.8475 41.2925 -17.1875 42.3125 C-17.8475 42.3125 -18.5075 42.3125 -19.1875 42.3125 C-20.63635782 42.97572961 -22.07238945 43.66719309 -23.5 44.375 C-26.26693407 45.61901356 -27.88107432 46.3125 -30.9375 46.3125 C-33.1875 45.3125 -33.1875 45.3125 -35.6875 43.1875 C-38.00935816 41.08132163 -38.00935816 41.08132163 -40.75 41.1875 C-43.5097383 42.13613913 -43.5097383 42.13613913 -44.5390625 45.35546875 C-47.1875 48.3125 -47.1875 48.3125 -49.83276367 48.81933594 C-53.23881684 48.94145598 -56.59438778 48.88263767 -60 48.75 C-61.16337891 48.73130859 -62.32675781 48.71261719 -63.52539062 48.69335938 C-74.94469289 48.4528846 -74.94469289 48.4528846 -80.1875 47.3125 C-81.625 45.25 -81.625 45.25 -82.1875 43.3125 C-83.1775 43.3125 -84.1675 43.3125 -85.1875 43.3125 C-84.64959337 36.58866709 -82.70637549 32.63761584 -77.75 28.0625 C-75.27955256 26.37536516 -73.00915422 25.2799243 -70.1875 24.3125 C-70.5278125 22.6728125 -70.5278125 22.6728125 -70.875 21 C-71.1875 17.3125 -71.1875 17.3125 -69.75 15.375 C-69.234375 15.024375 -68.71875 14.67375 -68.1875 14.3125 C-66.375 14.8125 -66.375 14.8125 -64.1875 16.3125 C-62.92597391 18.8988924 -62.03106955 21.56450829 -61.1875 24.3125 C-61.30609375 23.21550781 -61.4246875 22.11851562 -61.546875 20.98828125 C-61.67823327 19.53395757 -61.80837777 18.07952391 -61.9375 16.625 C-62.01871094 15.90376953 -62.09992187 15.18253906 -62.18359375 14.43945312 C-62.48952399 10.71730188 -62.35527458 8.60572072 -60.484375 5.3359375 C-57.96648492 3.11779624 -56.97653205 2.69821475 -53.6875 2.625 C-50.37722962 2.52785893 -50.37722962 2.52785893 -47.34375 1.33203125 C-44.30937252 -0.10270158 -41.52488906 -0.12159003 -38.1875 -0.3125 C-36.970625 -0.38726562 -35.75375 -0.46203125 -34.5 -0.5390625 C-32.064442 -0.64820307 -29.62550214 -0.6875 -27.1875 -0.6875 C-25.73399548 -1.13886554 -24.29598303 -1.64232711 -22.875 -2.1875 C-14.86943974 -4.94758695 -7.3896593 -3.91217257 0 0 Z " fill="#2A4E52" transform="translate(112.1875,288.6875)"/>
<path d="M0 0 C18.94736918 14.60526374 26.88801239 39.38128977 30.17553711 62.20825195 C33.41926543 88.08643483 28.87998947 112.03252703 21.16870117 136.65429688 C20.90033447 137.52505859 20.63196777 138.39582031 20.35546875 139.29296875 C20.11207764 140.07309326 19.86868652 140.85321777 19.61791992 141.65698242 C18.62728673 145.41324744 18.3118699 149.13281321 18 153 C17.34 153 16.68 153 16 153 C15.67 153.99 15.34 154.98 15 156 C14.67 155.34 14.34 154.68 14 154 C9.60484716 154.54939411 5.95374213 155.71502854 1.9296875 157.4765625 C-0.38990085 158.10576258 -1.74796646 157.75067785 -4 157 C-0.92486954 153.62631319 2.28518856 151.49098038 6.25 149.25 C7.32765625 148.63640625 8.4053125 148.0228125 9.515625 147.390625 C10.33546875 146.93171875 11.1553125 146.4728125 12 146 C11.68289063 145.24332031 11.36578125 144.48664063 11.0390625 143.70703125 C9.92602177 140.80726725 9.42822208 138.06892488 9 135 C8.34 135 7.68 135 7 135 C6.73590332 133.7104541 6.47180664 132.4209082 6.19970703 131.09228516 C5.08620772 126.09427616 3.52059279 121.3425808 1.8046875 116.5234375 C1.49599731 115.64272583 1.18730713 114.76201416 0.8692627 113.85461426 C-0.12344581 111.02614831 -1.12354422 108.20037967 -2.125 105.375 C-3.49080905 101.51084885 -4.85498816 97.64612407 -6.21875 93.78125 C-6.55113678 92.84111053 -6.88352356 91.90097107 -7.22598267 90.93234253 C-9.08015424 85.67199424 -10.87581143 80.40014577 -12.59375 75.09375 C-13.12524658 73.47267334 -13.12524658 73.47267334 -13.66748047 71.81884766 C-14.28755063 69.91247183 -14.89181602 68.00085263 -15.47705078 66.08349609 C-16.51187526 62.93795955 -16.51187526 62.93795955 -18 60 C-20.58191518 58.79536732 -20.58191518 58.79536732 -23 59 C-22.67 56.36 -22.34 53.72 -22 51 C-24.31 50.67 -26.62 50.34 -29 50 C-29 48.02 -29 46.04 -29 44 C-28.40832031 43.78085938 -27.81664062 43.56171875 -27.20703125 43.3359375 C-20.75816489 40.74797482 -17.58203515 38.18308203 -13.91015625 32.234375 C-12.68701911 29.23165206 -12.56872125 26.47868745 -12.375 23.25 C-12.30023438 22.07953125 -12.22546875 20.9090625 -12.1484375 19.703125 C-12.07496094 18.36507812 -12.07496094 18.36507812 -12 17 C-10.9275 16.67 -9.855 16.34 -8.75 16 C-4.72896013 14.28251131 -3.40861508 11.99919128 -1.7109375 8.07421875 C-0.79682097 5.40720842 -0.28027095 2.8027095 0 0 Z " fill="#CDEDEB" transform="translate(264,37)"/>
<path d="M0 0 C3.16039829 1.3479654 4.75594157 2.63391236 6.65625 5.484375 C7.12160156 6.17273438 7.58695313 6.86109375 8.06640625 7.5703125 C8.53949219 8.28960937 9.01257813 9.00890625 9.5 9.75 C9.97308594 10.45382813 10.44617188 11.15765625 10.93359375 11.8828125 C11.86272799 13.26750563 12.78606496 14.65610906 13.703125 16.04882812 C14.53018605 17.29315642 15.37252921 18.52755324 16.234375 19.74804688 C19 23.68711488 19 23.68711488 19 27 C14.18219072 25.32903446 11.06911978 22.69100488 7.28125 19.36328125 C5.11094678 17.75703791 5.11094678 17.75703791 2.70874023 18.23925781 C-0.33708583 19.09466962 -2.8327695 20.31281156 -5.62109375 21.80859375 C-6.71043213 22.38609375 -7.79977051 22.96359375 -8.92211914 23.55859375 C-10.08219482 24.17863281 -11.24227051 24.79867187 -12.4375 25.4375 C-65.74214046 53.53542921 -65.74214046 53.53542921 -81.51953125 49.328125 C-83.70150363 48.59965548 -85.85623414 47.83368672 -88 47 C-88.94746094 47.99966797 -88.94746094 47.99966797 -89.9140625 49.01953125 C-100.75662856 60.19018649 -112.51549567 69.20895306 -126 77 C-126.89332031 77.52851563 -127.78664062 78.05703125 -128.70703125 78.6015625 C-134.58310056 82 -134.58310056 82 -138 82 C-138.04999181 87.86750085 -138.08599546 93.73487368 -138.10986328 99.60253906 C-138.11982901 101.59246993 -138.13340648 103.58238651 -138.15087891 105.57226562 C-138.24784471 116.91156116 -138.1275662 127.82008338 -136 139 C-140.26778588 140.03387236 -144.53963198 141.04985498 -148.8125 142.0625 C-150.63491211 142.50432617 -150.63491211 142.50432617 -152.49414062 142.95507812 C-153.65751953 143.22900391 -154.82089844 143.50292969 -156.01953125 143.78515625 C-157.09307861 144.04176025 -158.16662598 144.29836426 -159.27270508 144.56274414 C-162 145 -162 145 -165 144 C-160.38 141.36 -155.76 138.72 -151 136 C-151.08719463 132.93616098 -151.19410397 129.87515949 -151.3125 126.8125 C-151.33505859 125.94818359 -151.35761719 125.08386719 -151.38085938 124.19335938 C-151.53180659 119.11698351 -151.53180659 119.11698351 -153.49609375 114.5390625 C-155.90748817 110.46787712 -155.62482296 106.21452689 -155.75 101.5625 C-155.78383789 100.54406006 -155.81767578 99.52562012 -155.85253906 98.47631836 C-156.37422987 79.04933229 -156.06312251 57.86719365 -151 39 C-150.20980469 39.144375 -149.41960937 39.28875 -148.60546875 39.4375 C-141.36698194 40.62874811 -134.39050911 41.19322668 -127.0625 41.1875 C-126.27061279 41.18814453 -125.47872559 41.18878906 -124.6628418 41.18945312 C-120.01561565 41.14632796 -115.58454627 40.76307361 -111 40 C-110.505 41.98 -110.505 41.98 -110 44 C-96.20752847 40.80950012 -79.34453259 36.34453259 -69 26 C-67.69933594 26.020625 -66.39867187 26.04125 -65.05859375 26.0625 C-59.84363412 26.11192114 -55.11546519 25.22674793 -50.0625 24 C-48.69605347 23.66887207 -48.69605347 23.66887207 -47.30200195 23.33105469 C-33.26292662 19.72522389 -20.72060136 13.14230956 -8.2578125 5.8828125 C-5 4 -5 4 -2.6171875 2.8671875 C-0.80833714 2.09743048 -0.80833714 2.09743048 0 0 Z " fill="#D99171" transform="translate(338,202)"/>
<path d="M0 0 C0.66 0 1.32 0 2 0 C2.8353125 1.2684375 2.8353125 1.2684375 3.6875 2.5625 C4.450625 3.366875 5.21375 4.17125 6 5 C9.57176115 4.91832511 9.57176115 4.91832511 13 4 C13.99 4 14.98 4 16 4 C16.350625 4.94875 16.70125 5.8975 17.0625 6.875 C19.56441953 10.91035408 21.52193355 10.92194697 26 12 C26.495 13.485 26.495 13.485 27 15 C28.093125 14.67 29.18625 14.34 30.3125 14 C34 13 34 13 37 13 C39.34845369 14.65261556 39.92679891 15.59216534 40.4375 18.4375 C39.84522836 21.9065196 38.81382276 22.90767026 36 25 C34.824375 25.28875 33.64875 25.5775 32.4375 25.875 C28.73523095 26.67827269 28.73523095 26.67827269 27.0625 30.125 C26.5365625 31.548125 26.5365625 31.548125 26 33 C33.89757342 31.61965625 33.89757342 31.61965625 40.125 27 C42.98712584 22.42059865 43.05644748 19.35473949 42.83984375 14.15625 C43 12 43 12 45 9 C48.1953125 8.19140625 48.1953125 8.19140625 52.125 7.5625 C59.46374218 6.27795815 64.78480479 4.14346347 71 0 C70.5601671 2.78560837 70.09868708 5.55477814 69.48828125 8.30859375 C69.30652344 9.13488281 69.12476563 9.96117187 68.9375 10.8125 C68.76089844 11.58207031 68.58429688 12.35164062 68.40234375 13.14453125 C68.06014568 15.57314086 67.98801697 17.68736388 68.03125 20.125 C68.08918117 25.56321874 67.32298652 30.81251354 66.5625 36.1875 C65.00493749 47.78440108 64.33366118 59.31035328 64 71 C55.21066649 73.52713206 47.16434446 75.16077797 38 75 C38 75.66 38 76.32 38 77 C32.72 76.67 27.44 76.34 22 76 C22.33 77.98 22.66 79.96 23 82 C22.34 81.67 21.68 81.34 21 81 C21 79.02 21 77.04 21 75 C18.03 75 15.06 75 12 75 C12 74.67 12 74.34 12 74 C14.97 74 17.94 74 21 74 C21 63.11 21 52.22 21 41 C19.68 41 18.36 41 17 41 C17 38.69 17 36.38 17 34 C15.93072266 34.10441406 15.93072266 34.10441406 14.83984375 34.2109375 C9.78888832 34.49645584 6.03187667 34.70454976 2 31.375 C-0.77864916 28.58308759 -2.40632485 25.60673849 -4 22 C-4.66 21.67 -5.32 21.34 -6 21 C-5.73763143 13.98164065 -5.31287907 5.31287907 0 0 Z " fill="#CDEDEB" transform="translate(119,220)"/>
<path d="M0 0 C3.3 0 6.6 0 10 0 C10.03738281 1.01578125 10.07476562 2.0315625 10.11328125 3.078125 C10.57743691 17.7149403 10.57743691 17.7149403 16 31 C19.04622361 31.62478031 19.04622361 31.62478031 22.5 31.75 C23.6653125 31.82734375 24.830625 31.9046875 26.03125 31.984375 C28.93011158 32.22324206 28.93011158 32.22324206 31 31 C33.71760108 30.92818179 36.40859388 30.90700494 39.125 30.9375 C39.87910156 30.94201172 40.63320312 30.94652344 41.41015625 30.95117188 C43.27347127 30.96296501 45.13674555 30.98090058 47 31 C47 30.01 47 29.02 47 28 C58.60471204 22.06806283 58.60471204 22.06806283 62.5625 21.875 C65.6551742 23.30238809 66.59209336 25.08388181 67.953125 28.140625 C74 44.65671642 74 44.65671642 74 52 C73.360625 51.67 72.72125 51.34 72.0625 51 C70.23205433 49.92728775 70.23205433 49.92728775 69 50 C69 50.66 69 51.32 69 52 C67.68 52 66.36 52 65 52 C63.16619731 53.64355018 63.16619731 53.64355018 61.5625 55.8125 C58.98869922 59.09096085 56.64707574 60.98068352 53 63 C52.30261719 63.44859375 51.60523438 63.8971875 50.88671875 64.359375 C39.37351864 71.63948022 27.65792393 76.85404405 14 78 C10 67 10 67 9.16015625 64.63330078 C7.33619986 59.53273701 5.3904121 54.52113788 3.28125 49.53125 C-3.87415195 31.84840336 -4.92504017 18.90218527 0 0 Z M61 41 C62 43 62 43 62 43 Z M62 43 C63 45 63 45 63 45 Z " fill="#2A8C79" transform="translate(214,168)"/>
<path d="M0 0 C0.22281874 1.91503674 0.42771076 3.83216506 0.625 5.75 C0.74101562 6.81734375 0.85703125 7.8846875 0.9765625 8.984375 C1 12 1 12 0.05383301 13.83746338 C-1.22800885 16.46788959 -1.50393963 18.71017578 -1.83789062 21.61621094 C-2.03819885 23.3101297 -2.03819885 23.3101297 -2.24255371 25.03826904 C-2.37907349 26.25798401 -2.51559326 27.47769897 -2.65625 28.734375 C-2.80404907 30.00033508 -2.95184814 31.26629517 -3.10412598 32.57061768 C-3.49669076 35.94390707 -3.88280659 39.31780611 -4.26568604 42.69219971 C-4.65002 46.06751086 -5.04192568 49.44193959 -5.43359375 52.81640625 C-5.88620455 56.71986404 -6.33817547 60.62338442 -6.78697205 64.52728271 C-7.68683281 72.35075729 -8.6238419 80.16769656 -9.61962891 87.97949219 C-9.943625 90.55232899 -10.2446332 93.12550429 -10.52734375 95.703125 C-10.66269531 96.87359375 -10.79804688 98.0440625 -10.9375 99.25 C-11.07027344 100.45140625 -11.20304687 101.6528125 -11.33984375 102.890625 C-12.04728667 106.22272299 -12.40072577 107.79326923 -15 110 C-17.68528464 110.45781902 -19.99651714 110.69472304 -22.6875 110.75 C-23.7403418 110.79447266 -23.7403418 110.79447266 -24.81445312 110.83984375 C-26.54235424 110.91037033 -28.2711832 110.95747068 -30 111 C-31.09348926 106.88603343 -30.80597876 103.79431226 -30.0625 99.625 C-28.85893808 91.99974864 -28.80593112 84.6980655 -29 77 C-30.7532127 78.72600767 -32.50258071 80.45564297 -34.25 82.1875 C-34.98669922 82.91163086 -34.98669922 82.91163086 -35.73828125 83.65039062 C-38.72186977 86.61408855 -41.43322337 89.657079 -44 93 C-45.65 92.67 -47.3 92.34 -49 92 C-48.01 91.01 -48.01 91.01 -47 90 C-46.01 90.33 -45.02 90.66 -44 91 C-47.93470135 86.28792604 -51.8822812 82.02888644 -56.71484375 78.2265625 C-57.13894531 77.82179688 -57.56304687 77.41703125 -58 77 C-58 76.34 -58 75.68 -58 75 C-56.53125 73.58984375 -56.53125 73.58984375 -54.5 71.9375 C-45.7190249 64.43802383 -40.07947148 56.22915124 -34.6875 46.0625 C-33.3852481 43.6592891 -32.07327687 41.26142293 -30.76171875 38.86328125 C-30.44073212 38.27400848 -30.11974548 37.68473572 -29.78903198 37.0776062 C-26.96521009 31.90316971 -24.04131494 26.79935221 -21 21.75 C-20.38838013 20.70791382 -20.38838013 20.70791382 -19.7644043 19.64477539 C-16.7744269 14.73679096 -13.16558629 10.9332603 -9 7 C-8.0925 6.071875 -7.185 5.14375 -6.25 4.1875 C-1.94285714 0 -1.94285714 0 0 0 Z " fill="#96D8D3" transform="translate(223,89)"/>
<path d="M0 0 C2 2 2 2 2.40625 5.00390625 C2.25664724 10.15585124 -0.21455143 14.42494013 -2.5 18.9375 C-2.92925781 19.81212891 -3.35851562 20.68675781 -3.80078125 21.58789062 C-4.85508236 23.73163621 -5.92157125 25.86831859 -7 28 C-6.67128906 27.36191406 -6.34257813 26.72382813 -6.00390625 26.06640625 C-2.1268228 19.33141847 -2.1268228 19.33141847 1.19140625 18.35546875 C2.73199437 18.28508655 4.27424634 18.24477743 5.81640625 18.234375 C9.57448367 17.83100354 11.35923836 15.57635282 14 13 C18.0908267 10.95458665 22.85811181 11.62713855 27.0625 13 C28.5165625 13.495 28.5165625 13.495 30 14 C31.7325 13.9071875 31.7325 13.9071875 33.5 13.8125 C38.26770121 14.06791257 39.64349932 15.72536519 43 19 C42.505 20.485 42.505 20.485 42 22 C41.360625 21.175 40.72125 20.35 40.0625 19.5 C36.36494918 16.48159117 34.74643744 16.60041389 30.18359375 17.01953125 C27.60003512 16.9964225 26.26458561 16.18621151 24 15 C18.63632209 14.57431128 15.36321069 14.53509739 11 18 C8.84145091 20.84892964 8.84145091 20.84892964 8.3125 24.0625 C6.92015213 29.42476537 3.27997492 33.64131675 0 38 C1.3303125 37.4740625 1.3303125 37.4740625 2.6875 36.9375 C6.10036269 35.97159547 7.71858183 35.72389293 11 37 C12.3125 39.0625 12.3125 39.0625 13 41 C9.98412996 44.47985004 7.50519326 45.98863008 3 47 C-0.52983977 46.82781269 -1.77736983 46.18923565 -4.5 43.875 C-6.82185816 41.76882163 -6.82185816 41.76882163 -9.5625 41.875 C-12.3222383 42.82363913 -12.3222383 42.82363913 -13.3515625 46.04296875 C-16 49 -16 49 -18.64526367 49.50683594 C-22.05131684 49.62895598 -25.40688778 49.57013767 -28.8125 49.4375 C-29.97587891 49.41880859 -31.13925781 49.40011719 -32.33789062 49.38085938 C-43.75719289 49.1403846 -43.75719289 49.1403846 -49 48 C-50.4375 45.9375 -50.4375 45.9375 -51 44 C-51.99 44 -52.98 44 -54 44 C-53.46209337 37.27616709 -51.51887549 33.32511584 -46.5625 28.75 C-44.09205256 27.06286516 -41.82165422 25.9674243 -39 25 C-39.3403125 23.3603125 -39.3403125 23.3603125 -39.6875 21.6875 C-40 18 -40 18 -38.5625 16.0625 C-38.046875 15.711875 -37.53125 15.36125 -37 15 C-35.1875 15.5 -35.1875 15.5 -33 17 C-31.73847391 19.5863924 -30.84356955 22.25200829 -30 25 C-30.11859375 23.90300781 -30.2371875 22.80601562 -30.359375 21.67578125 C-30.49073327 20.22145757 -30.62087777 18.76702391 -30.75 17.3125 C-30.83121094 16.59126953 -30.91242187 15.87003906 -30.99609375 15.12695312 C-31.30202399 11.40480188 -31.16777458 9.29322072 -29.296875 6.0234375 C-26.77898492 3.80529624 -25.78903205 3.38571475 -22.5 3.3125 C-19.0655556 3.20076294 -17.03694211 2.57896791 -14 1 C-9.33044236 0.24684554 -4.73565391 -0.33826099 0 0 Z " fill="#2A8A78" transform="translate(81,288)"/>
<path d="M0 0 C5.13592676 2.42260696 8.18941616 6.17385803 11 11 C12.86605688 16.59817063 12.78827484 21.97421698 10.3125 27.375 C8.43857622 30.71085014 6.6141316 32.51727934 3 34 C2.01 34 1.02 34 0 34 C0.05800781 34.845625 0.11601562 35.69125 0.17578125 36.5625 C0.52762569 45.40887461 -0.53352078 50.11441415 -6.45703125 56.59375 C-9.09090593 59.09558347 -10.74064512 59.97598566 -14.375 60.3125 C-15.24125 60.209375 -16.1075 60.10625 -17 60 C-17 59.01 -17 58.02 -17 57 C-15.35 56.34 -13.7 55.68 -12 55 C-11.27743171 50.51866426 -11.27743171 50.51866426 -11 46 C-16.36090593 45.46326107 -16.36090593 45.46326107 -21 47.5 C-21.33 47.995 -21.66 48.49 -22 49 C-22 48.34 -22 47.68 -22 47 C-22.73089844 46.76667969 -23.46179688 46.53335938 -24.21484375 46.29296875 C-31.34036659 42.98504721 -36.66924766 34.95113533 -40 28 C-40 27.34 -40 26.68 -40 26 C-41.32 26 -42.64 26 -44 26 C-46.66038099 31.5626148 -47.96232949 36.93267948 -49 43 C-50.98 43.495 -50.98 43.495 -53 44 C-57.60247069 38.35826174 -58.4568636 35.34012925 -58.421875 28.0625 C-57.86441514 24.01575433 -56.41797394 22.06120318 -53.60546875 19.20703125 C-52 18 -52 18 -49 17 C-49.99 16.34 -50.98 15.68 -52 15 C-46.88463965 14.79120978 -42.88770878 15.5624386 -38 17 C-37.34 16.67 -36.68 16.34 -36 16 C-34.12943209 15.7724985 -32.25314042 15.59037189 -30.375 15.4375 C-29.37210938 15.35371094 -28.36921875 15.26992188 -27.3359375 15.18359375 C-26.56507813 15.12300781 -25.79421875 15.06242187 -25 15 C-24.67 13.68 -24.34 12.36 -24 11 C-23.34 12.32 -22.68 13.64 -22 15 C-21.63648438 14.33613281 -21.27296875 13.67226563 -20.8984375 12.98828125 C-15.65575001 3.77997116 -11.43275431 -1.97695262 0 0 Z " fill="#571F40" transform="translate(252,20)"/>
<path d="M0 0 C3.16039829 1.3479654 4.75594157 2.63391236 6.65625 5.484375 C7.12160156 6.17273438 7.58695312 6.86109375 8.06640625 7.5703125 C8.53949219 8.28960937 9.01257813 9.00890625 9.5 9.75 C9.97308594 10.45382813 10.44617188 11.15765625 10.93359375 11.8828125 C11.86272799 13.26750563 12.78606496 14.65610906 13.703125 16.04882812 C14.53018605 17.29315642 15.37252921 18.52755324 16.234375 19.74804688 C19 23.68711488 19 23.68711488 19 27 C14.18219072 25.32903446 11.06911978 22.69100488 7.28125 19.36328125 C5.11094678 17.75703791 5.11094678 17.75703791 2.70874023 18.23925781 C-0.33708583 19.09466962 -2.8327695 20.31281156 -5.62109375 21.80859375 C-6.71043213 22.38609375 -7.79977051 22.96359375 -8.92211914 23.55859375 C-10.08219482 24.17863281 -11.24227051 24.79867187 -12.4375 25.4375 C-63.00114217 52.09059485 -63.00114217 52.09059485 -79 50 C-84.34188662 48.18985794 -88.35112737 45.33303624 -92 41 C-92 40.34 -92 39.68 -92 39 C-90.26363281 38.22076172 -90.26363281 38.22076172 -88.4921875 37.42578125 C-86.95290271 36.72184004 -85.41385256 36.01738559 -83.875 35.3125 C-83.11445313 34.97283203 -82.35390625 34.63316406 -81.5703125 34.28320312 C-77.90700539 32.59366062 -74.90406824 31.06376241 -72.0078125 28.23046875 C-68.36898592 25.53206618 -66.7571913 25.69818056 -62.40966797 25.9453125 C-58.16174591 26.04171924 -54.17011644 24.99723821 -50.0625 24 C-48.69605347 23.66887207 -48.69605347 23.66887207 -47.30200195 23.33105469 C-33.26292662 19.72522389 -20.72060136 13.14230956 -8.2578125 5.8828125 C-5 4 -5 4 -2.6171875 2.8671875 C-0.80833714 2.09743048 -0.80833714 2.09743048 0 0 Z " fill="#D9906F" transform="translate(338,202)"/>
<path d="M0 0 C2.66208166 2.66208166 3.37400681 5.66495478 4.49609375 9.16796875 C4.73030533 9.88100662 4.96451691 10.59404449 5.20582581 11.32868958 C5.95542843 13.61313862 6.69699494 15.90008731 7.4375 18.1875 C8.17540117 20.4567211 8.91509512 22.72531552 9.65846252 24.99275208 C10.12048132 26.40300599 10.57929078 27.81431698 11.0342865 29.22685242 C12.10524843 32.50524493 13.26473495 35.66081224 14.68383789 38.8059082 C16.0809585 42.19647191 16.13941304 43.58176087 15 47 C2.36043734 50.14720034 -11.57869915 48.11925044 -24 45 C-23.54617219 39.06440997 -22.68517518 33.72959561 -21 28 C-21 27.071875 -21 26.14375 -21 25.1875 C-21 23 -21 23 -19 21 C-19 18.9904534 -19.00501725 16.97861778 -19.125 14.97265625 C-19 13 -19 13 -17 10 C-16.60612212 7.67612053 -16.26513915 5.34206251 -16 3 C-15.01257813 2.95101562 -14.02515625 2.90203125 -13.0078125 2.8515625 C-11.72648438 2.77679688 -10.44515625 2.70203125 -9.125 2.625 C-7.21074219 2.52058594 -7.21074219 2.52058594 -5.2578125 2.4140625 C-1.91938301 2.32758894 -1.91938301 2.32758894 0 0 Z " fill="#2B4E53" transform="translate(210,196)"/>
<path d="M0 0 C0.33 0.66 0.66 1.32 1 2 C1.66 2 2.32 2 3 2 C4.26171875 3.90625 4.26171875 3.90625 5.6875 6.5 C9.84405341 13.62985439 14.0650362 19.90342876 22 23 C22.66 22.34 23.32 21.68 24 21 C27.09771665 20.67045568 29.17331023 20.54665399 31.9375 22.0625 C33.66665678 25.21566824 32.8590699 27.62508255 32 31 C29 33 29 33 26 33 C26 33.99 26 34.98 26 36 C26.99 36.33 27.98 36.66 29 37 C27.68 37 26.36 37 25 37 C25.10699219 38.13179687 25.21398437 39.26359375 25.32421875 40.4296875 C25.44613108 41.91139121 25.56718016 43.39316612 25.6875 44.875 C25.76033203 45.62136719 25.83316406 46.36773437 25.90820312 47.13671875 C26.07421875 49.3046875 26.07421875 49.3046875 26 53 C22.91111478 55.05925681 22.29064073 55.2390374 18.8125 55.125 C17.554375 55.08375 16.29625 55.0425 15 55 C13.99740493 51.99221479 13.69685358 49.46179353 13.4375 46.3125 C13.31181641 44.82169922 13.31181641 44.82169922 13.18359375 43.30078125 C13.09271484 42.16189453 13.09271484 42.16189453 13 41 C11.88818359 41.48146484 11.88818359 41.48146484 10.75390625 41.97265625 C6.75794072 43.46334977 4.26540349 43.47393372 0 43 C-2.3125 40.875 -2.3125 40.875 -4 38 C-4.86625 36.5459375 -4.86625 36.5459375 -5.75 35.0625 C-7.08643996 31.78822211 -7.24998969 29.49985565 -7 26 C-7.66 26 -8.32 26 -9 26 C-9 24.02 -9 22.04 -9 20 C-8.34 19.67 -7.68 19.34 -7 19 C-6.07426186 15.64935264 -5.31341612 12.30007222 -4.58789062 8.90234375 C-3.05884296 2.21352168 -3.05884296 2.21352168 0 0 Z " fill="#D68F70" transform="translate(209,44)"/>
<path d="M0 0 C0.33 1.32 0.66 2.64 1 4 C2.03640625 3.69964844 3.0728125 3.39929688 4.140625 3.08984375 C5.51027284 2.70521662 6.88007263 2.32113031 8.25 1.9375 C8.93191406 1.73833984 9.61382812 1.53917969 10.31640625 1.33398438 C17.0880536 -0.53972387 17.0880536 -0.53972387 20 1 C22.25 3.5625 22.25 3.5625 24 6 C12.23730088 18.34437105 -0.2128799 28.45633061 -15 37 C-15.89332031 37.52851563 -16.78664062 38.05703125 -17.70703125 38.6015625 C-23.58310056 42 -23.58310056 42 -27 42 C-26.54306949 32.70907962 -24.17855635 24.05520428 -21.59814453 15.1640625 C-21.09580568 13.34662105 -20.69041022 11.50277483 -20.30859375 9.65625 C-19.56197037 6.75508488 -19.09125184 5.15840213 -17 3 C-11.50682205 1.034663 -5.85420551 0 0 0 Z " fill="#CDECEA" transform="translate(227,242)"/>
<path d="M0 0 C0.23950618 10.2455423 -0.22796804 19.87410311 -2 30 C-2.66 30 -3.32 30 -4 30 C-4.70125 29.175 -5.4025 28.35 -6.125 27.5 C-9.02749256 24.97609342 -9.53926956 24.58910257 -13.125 24.4375 C-16.94632622 24.6250796 -16.94632622 24.6250796 -18.9375 26.75 C-20.09795529 28.90141503 -20.09795529 28.90141503 -20.25 31.0625 C-21 33 -21 33 -24.25 34.4375 C-24.87648437 34.67339844 -25.50296875 34.90929687 -26.1484375 35.15234375 C-29.08950919 36.49878374 -30.93111913 38.56602251 -33 41 C-34.04976964 44.14930893 -34.10131595 46.38814456 -34.0625 49.6875 C-34.05347656 50.68136719 -34.04445312 51.67523438 -34.03515625 52.69921875 C-34.02355469 53.45847656 -34.01195312 54.21773437 -34 55 C-34.66 55 -35.32 55 -36 55 C-36 54.01 -36 53.02 -36 52 C-36.66 52 -37.32 52 -38 52 C-38.25394531 51.44570312 -38.50789062 50.89140625 -38.76953125 50.3203125 C-39.11371094 49.59585938 -39.45789063 48.87140625 -39.8125 48.125 C-40.14894531 47.40570313 -40.48539063 46.68640625 -40.83203125 45.9453125 C-41.99467097 43.69457194 -41.99467097 43.69457194 -45 42 C-44.855625 41.35675781 -44.71125 40.71351563 -44.5625 40.05078125 C-41.81926795 27.34772501 -41.81926795 27.34772501 -44.51953125 15.1171875 C-45.00808594 14.41851562 -45.49664062 13.71984375 -46 13 C-44.61987977 11.79427404 -43.22017172 10.61094249 -41.8125 9.4375 C-40.64654297 8.44556641 -40.64654297 8.44556641 -39.45703125 7.43359375 C-37 6 -37 6 -34.515625 6.140625 C-28.39731492 8.23073093 -22.16211016 10.89195572 -18 16 C-14.72143808 14.5969473 -12.8858673 12.98851532 -10.625 10.25 C-1.94616788 0 -1.94616788 0 0 0 Z " fill="#CCEBE9" transform="translate(195,165)"/>
<path d="M0 0 C0.66 0 1.32 0 2 0 C2.8353125 1.2684375 2.8353125 1.2684375 3.6875 2.5625 C4.450625 3.366875 5.21375 4.17125 6 5 C9.57176115 4.91832511 9.57176115 4.91832511 13 4 C13.99 4 14.98 4 16 4 C16.350625 4.94875 16.70125 5.8975 17.0625 6.875 C19.56441953 10.91035408 21.52193355 10.92194697 26 12 C26.495 13.485 26.495 13.485 27 15 C28.093125 14.67 29.18625 14.34 30.3125 14 C34 13 34 13 37 13 C39.34845369 14.65261556 39.92679891 15.59216534 40.4375 18.4375 C39.84522836 21.9065196 38.81382276 22.90767026 36 25 C33.67126625 25.68255989 31.33817209 26.35050775 29 27 C26.62649624 30.56025563 26.6529989 32.78463459 26.44140625 36.94140625 C26 39 26 39 23 41 C19.8125 41.125 19.8125 41.125 17 41 C17 38.69 17 36.38 17 34 C15.93072266 34.10441406 15.93072266 34.10441406 14.83984375 34.2109375 C9.78888832 34.49645584 6.03187667 34.70454976 2 31.375 C-0.77864916 28.58308759 -2.40632485 25.60673849 -4 22 C-4.66 21.67 -5.32 21.34 -6 21 C-5.73763143 13.98164065 -5.31287907 5.31287907 0 0 Z " fill="#D58D6E" transform="translate(119,220)"/>
<path d="M0 0 C1.58246707 -0.08153933 3.16616273 -0.13943557 4.75 -0.1875 C6.07257813 -0.23970703 6.07257813 -0.23970703 7.421875 -0.29296875 C10.49349566 0.05607905 11.69141183 1.00444074 14 3 C15.65661761 4.01656081 17.32111559 5.02065076 19 6 C18.49922949 8.60400664 17.81208396 10.31569896 16.4375 12.625 C14.50861791 17.1536797 14.36385205 21.13917718 15 26 C16.40759341 28.76441969 16.40759341 28.76441969 18 31 C18.5 33.625 18.5 33.625 18 36 C15.5625 37.625 15.5625 37.625 13 39 C12.67 39.99 12.34 40.98 12 42 C6.72 41.67 1.44 41.34 -4 41 C-3.67 42.98 -3.34 44.96 -3 47 C-3.66 46.67 -4.32 46.34 -5 46 C-5 44.02 -5 42.04 -5 40 C-7.97 40 -10.94 40 -14 40 C-14 39.67 -14 39.34 -14 39 C-11.03 39 -8.06 39 -5 39 C-5 28.11 -5 17.22 -5 6 C-3.68 5.34 -2.36 4.68 -1 4 C-0.19471111 1.94999129 -0.19471111 1.94999129 0 0 Z " fill="#93D3CE" transform="translate(145,255)"/>
<path d="M0 0 C0.495 1.98 0.495 1.98 1 4 C2.32 4 3.64 4 5 4 C5 14.89 5 25.78 5 37 C2.298125 37.226875 -0.40375 37.45375 -3.1875 37.6875 C-4.02949951 37.76701904 -4.87149902 37.84653809 -5.73901367 37.9284668 C-10.41245397 38.26010163 -13.1446475 38.0054752 -17 35 C-15.93476711 31.98184013 -14.76293093 29.65517226 -12.9375 27 C-11.09949436 24.15405578 -10.39020096 22.31670812 -10 19 C-10.825 19.350625 -11.65 19.70125 -12.5 20.0625 C-17.94249129 21.52031017 -21.80297062 21.13303944 -26.734375 18.58984375 C-29.19974703 17.11688843 -31.61447277 15.59849878 -34 14 C-32.02 11.36 -30.04 8.72 -28 6 C-27.01 7.485 -27.01 7.485 -26 9 C-20.71128839 10.23012754 -15.79929661 10.10011341 -11.125 7.2421875 C-9.42390421 5.82967046 -7.76329779 4.36631641 -6.15625 2.84765625 C-4.00411103 1.00352267 -2.76291716 0.3955995 0 0 Z " fill="#96D7D3" transform="translate(135,257)"/>
<path d="M0 0 C2.97 0.495 2.97 0.495 6 1 C5.45114445 5.66527214 4.80262983 10.29857605 4.0625 14.9375 C3.70412169 17.2910292 3.35016972 19.64523549 3 22 C2.82210937 23.175625 2.64421875 24.35125 2.4609375 25.5625 C0.51521953 39.96662107 0.350887 54.48668602 0 69 C-3.3 69 -6.6 69 -10 69 C-8.76525326 55.58401823 -7.43283209 42.18394537 -5.87768555 28.80102539 C-5.66453406 26.94903452 -5.45633437 25.09646808 -5.25268555 23.2434082 C-4.95153454 20.50595267 -4.63563776 17.77055497 -4.31640625 15.03515625 C-4.22879532 14.21330338 -4.14118439 13.3914505 -4.05091858 12.54469299 C-3.47684185 7.79684045 -2.44798461 4.20503641 0 0 Z " fill="#E9F8F8" transform="translate(224,99)"/>
<path d="M0 0 C3.29773012 1.33479552 4.15965705 3.01738551 5.578125 6.203125 C11.625 22.71921642 11.625 22.71921642 11.625 30.0625 C10.985625 29.7325 10.34625 29.4025 9.6875 29.0625 C7.85705433 27.98978775 7.85705433 27.98978775 6.625 28.0625 C6.625 28.7225 6.625 29.3825 6.625 30.0625 C4.72265625 29.875 4.72265625 29.875 2.625 29.0625 C1.68359375 26.8125 1.68359375 26.8125 1.0625 24.0625 C0.50376704 21.36650956 0.50376704 21.36650956 -0.375 19.0625 C-1.365 18.7325 -2.355 18.4025 -3.375 18.0625 C-3.705 17.4025 -4.035 16.7425 -4.375 16.0625 C-4.705 18.7025 -5.035 21.3425 -5.375 24.0625 C-6.695 24.0625 -8.015 24.0625 -9.375 24.0625 C-11.02181249 17.75489743 -12.63809887 11.54722993 -13.375 5.0625 C-12.74851562 4.78535156 -12.12203125 4.50820312 -11.4765625 4.22265625 C-10.65929687 3.86042969 -9.84203125 3.49820313 -9 3.125 C-8.18789063 2.76535156 -7.37578125 2.40570313 -6.5390625 2.03515625 C-2.13611361 0.05621352 -2.13611361 0.05621352 0 0 Z " fill="#D49274" transform="translate(276.375,189.9375)"/>
<path d="M0 0 C4.94547064 2.20416107 8.95448062 4.73093163 11.26171875 9.73828125 C11.50535156 10.48464844 11.74898438 11.23101562 12 12 C12.65226562 11.95359375 13.30453125 11.9071875 13.9765625 11.859375 C19.87712549 11.61569393 23.41883824 11.86578085 28 16 C32.16796748 20.58476422 31.27559357 26.17170636 31 32 C31.76054687 32.12632812 32.52109375 32.25265625 33.3046875 32.3828125 C38.03532144 33.46605911 41.78428951 36.42698834 45 40 C40.7957422 39.47446778 37.56006378 37.8917069 33.8671875 35.9375 C31.8593422 34.87362707 31.8593422 34.87362707 29 34 C28.94392578 32.78763672 28.94392578 32.78763672 28.88671875 31.55078125 C28.82097656 30.48214844 28.75523437 29.41351563 28.6875 28.3125 C28.62949219 27.25675781 28.57148438 26.20101563 28.51171875 25.11328125 C27.94835559 21.68579696 27.10435118 19.74962133 25 17 C22.03131621 14.94522919 19.79001993 14.88676723 16.25 14.9375 C12.78759408 14.68216033 11.36150723 14.31462234 8.7109375 12.0078125 C7.35676377 10.42033542 6.04571905 8.79464461 4.7890625 7.12890625 C2.08938643 3.91640962 0.16495521 3.13096229 -3.98828125 2.6640625 C-11.13587957 2.58007192 -15.04706119 3.15539368 -21 7 C-23.4375 6.75 -23.4375 6.75 -26 6 C-30.67056831 5.62931998 -33.01947363 5.52859309 -37.25 7.5625 C-42.2779809 12.01911944 -44.07468628 15.89713292 -44.75 22.4375 C-44.8325 23.943125 -44.915 25.44875 -45 27 C-49.95 27 -54.9 27 -60 27 C-60 27.66 -60 28.32 -60 29 C-60.763125 29.70125 -61.52625 30.4025 -62.3125 31.125 C-65.60858189 34.65104109 -66.53280635 37.44397762 -68 42 C-66.68 42 -65.36 42 -64 42 C-64 41.34 -64 40.68 -64 40 C-62.68 40.33 -61.36 40.66 -60 41 C-59.67 40.34 -59.34 39.68 -59 39 C-57.02 39 -55.04 39 -53 39 C-53 39.66 -53 40.32 -53 41 C-53.639375 41.103125 -54.27875 41.20625 -54.9375 41.3125 C-55.618125 41.539375 -56.29875 41.76625 -57 42 C-57.33 42.99 -57.66 43.98 -58 45 C-61.63 44.34 -65.26 43.68 -69 43 C-70.375 40.5625 -70.375 40.5625 -71 37 C-68.59931955 31.20174638 -64.53757066 26.84722704 -59.09375 23.80078125 C-55.55797745 22.44848018 -52.75261194 22.61179876 -49 23 C-48.34 23.33 -47.68 23.66 -47 24 C-47.04640625 23.41992188 -47.0928125 22.83984375 -47.140625 22.2421875 C-47.40304252 16.56272253 -46.85288432 13.46123447 -43 9 C-36.62159915 2.99584205 -36.62159915 2.99584205 -31.953125 3.0078125 C-29.49461036 3.0856136 -27.03626291 3.16890113 -24.578125 3.2578125 C-15.66072182 2.61529218 -9.74017861 -1.41730153 0 0 Z " fill="#2A8273" transform="translate(292,286)"/>
<path d="M0 0 C2.99453099 0.15356569 4.51023816 0.52837749 6.6875 2.625 C8.35354955 5.63975632 9.16718343 8.66873371 10 12 C10.66 11.34 11.32 10.68 12 10 C15.11875698 10.15993626 16.57800441 10.60613745 18.875 12.75 C20 15 20 15 19 20 C13.06 20 7.12 20 1 20 C1 19.01 1 18.02 1 17 C-1.31 17.33 -3.62 17.66 -6 18 C-5.60312845 11.07527573 -5.15469364 5.15469364 0 0 Z " fill="#F88F9F" transform="translate(306,315)"/>
<path d="M0 0 C0.86367188 -0.01611328 1.72734375 -0.03222656 2.6171875 -0.04882812 C8.18391957 -0.05305816 12.04342398 0.76013273 17 3.3125 C17 4.3025 17 5.2925 17 6.3125 C9.09506026 10.87304216 -2.52838657 10.46160563 -11.19921875 8.640625 C-13.50717777 7.94264025 -15.75825475 7.19864871 -18 6.3125 C-17.67 4.9925 -17.34 3.6725 -17 2.3125 C-11.24058859 0.3483529 -6.06287262 -0.02262266 0 0 Z " fill="#96DAD5" transform="translate(330,362.6875)"/>
<path d="M0 0 C0.99 0 1.98 0 3 0 C3 10.89 3 21.78 3 33 C-0.3 33 -3.6 33 -7 33 C-8.07947644 28.96890943 -7.83771294 26.18449736 -6.85546875 22.1484375 C-6.59056641 21.05015625 -6.32566406 19.951875 -6.05273438 18.8203125 C-5.76720703 17.68335938 -5.48167969 16.54640625 -5.1875 15.375 C-4.91357422 14.2303125 -4.63964844 13.085625 -4.35742188 11.90625 C-2.27334661 3.41001992 -2.27334661 3.41001992 0 0 Z " fill="#E7F7F7" transform="translate(137,261)"/>
<path d="M0 0 C2.68429495 0.91831143 5.17207964 1.97077279 7.7109375 3.23828125 C8.57074219 3.65851563 9.43054688 4.07875 10.31640625 4.51171875 C12.5234375 5.86328125 12.5234375 5.86328125 14.5234375 8.86328125 C13.25952262 9.87201141 11.98702867 10.86999947 10.7109375 11.86328125 C9.64939453 12.69859375 9.64939453 12.69859375 8.56640625 13.55078125 C6.5234375 14.86328125 6.5234375 14.86328125 3.5234375 14.86328125 C4.5234375 12.86328125 5.5234375 10.86328125 6.5234375 8.86328125 C5.90855469 9.36859375 5.29367188 9.87390625 4.66015625 10.39453125 C3.85191406 11.04421875 3.04367188 11.69390625 2.2109375 12.36328125 C1.41042969 13.01296875 0.60992187 13.66265625 -0.21484375 14.33203125 C-2.4765625 15.86328125 -2.4765625 15.86328125 -5.4765625 15.86328125 C-5.8065625 18.17328125 -6.1365625 20.48328125 -6.4765625 22.86328125 C-6.8065625 22.86328125 -7.1365625 22.86328125 -7.4765625 22.86328125 C-7.51394531 22.12722656 -7.55132812 21.39117187 -7.58984375 20.6328125 C-8.00640723 13.25915467 -8.00640723 13.25915467 -11.4765625 6.86328125 C-10.09644227 5.65755529 -8.69673422 4.47422374 -7.2890625 3.30078125 C-6.12310547 2.30884766 -6.12310547 2.30884766 -4.93359375 1.296875 C-2.4765625 -0.13671875 -2.4765625 -0.13671875 0 0 Z " fill="#D79579" transform="translate(160.4765625,171.13671875)"/>
<path d="M0 0 C0.45176786 11.42761329 -0.94911421 22.49827602 -2.375 33.8125 C-2.5996698 35.64118877 -2.82363191 37.46996463 -3.046875 39.29882812 C-3.68808378 44.53379865 -4.34300907 49.76699087 -5 55 C-5.1918786 56.53562619 -5.38361689 58.07126992 -5.57519531 59.60693359 C-6.0490846 63.40475359 -6.52441416 67.20239204 -7 71 C-7.33345497 73.66665148 -7.66673435 76.33332485 -8 79 C-8.33 79 -8.66 79 -9 79 C-8.52884613 62.65583472 -7.71816127 46.32544736 -6.81265259 30.00018311 C-6.68742311 27.70605396 -6.56713233 25.41164996 -6.45175171 23.11700439 C-6.28612293 19.84922828 -6.1023072 16.58294753 -5.9140625 13.31640625 C-5.86708725 12.32056015 -5.820112 11.32471405 -5.77171326 10.2986908 C-5.71508011 9.38100418 -5.65844696 8.46331757 -5.60009766 7.51782227 C-5.55648102 6.7146608 -5.51286438 5.91149933 -5.46792603 5.08399963 C-4.76117609 1.93635122 -3.34081554 0 0 0 Z " fill="#83C0BB" transform="translate(220,109)"/>
<path d="M0 0 C1.30517578 -0.00386719 1.30517578 -0.00386719 2.63671875 -0.0078125 C3.54292969 -0.00007813 4.44914063 0.00765625 5.3828125 0.015625 C6.73052734 0.00402344 6.73052734 0.00402344 8.10546875 -0.0078125 C12.66440008 0.00565554 16.3776069 0.08819443 20.5078125 2.265625 C18.5078125 5.265625 18.5078125 5.265625 16.77734375 5.9453125 C9.64520604 6.95191369 1.53250539 6.98277215 -5.4921875 5.265625 C-6.1521875 4.275625 -6.8121875 3.285625 -7.4921875 2.265625 C-4.35139296 0.17176197 -3.58438614 0.01023066 0 0 Z " fill="#2F907E" transform="translate(217.4921875,339.734375)"/>
<path d="M0 0 C-0.598125 0.845625 -1.19625 1.69125 -1.8125 2.5625 C-4.5679021 7.36753453 -5.23172367 12.51632813 -6.20703125 17.91015625 C-7.40178868 24.37121703 -9.23294044 30.67625892 -11 37 C-11.33 37 -11.66 37 -12 37 C-11.85780436 34.79142945 -11.71108153 32.58315013 -11.5625 30.375 C-11.44068359 28.53035156 -11.44068359 28.53035156 -11.31640625 26.6484375 C-11.03316301 23.38239813 -10.53840436 20.23042618 -10 17 C-9.89115974 15.29399214 -9.82589674 13.58442375 -9.8125 11.875 C-9.79832031 11.04742187 -9.78414063 10.21984375 -9.76953125 9.3671875 C-10.01793068 6.81583066 -10.71800704 5.19914998 -12 3 C-7.89542386 0.01485372 -5.02254631 -0.2954439 0 0 Z " fill="#2A5154" transform="translate(74,289)"/>
<path d="M0 0 C0 3.58063513 -0.34407525 5.47487986 -1.5 8.75 C-1.7784375 9.54921875 -2.056875 10.3484375 -2.34375 11.171875 C-2.66859375 12.07679688 -2.66859375 12.07679688 -3 13 C-5.64 13 -8.28 13 -11 13 C-12.36959468 9.88728483 -11.90994332 8.74333845 -10.75 5.4375 C-7.73142498 -0.49184379 -6.68248206 -1.63349562 0 0 Z " fill="#FA919F" transform="translate(76,330)"/>
<path d="M0 0 C1.875 0.1875 1.875 0.1875 4 1 C5.25 3.5625 5.25 3.5625 6 6 C7.32 6 8.64 6 10 6 C10.33 7.98 10.66 9.96 11 12 C6.38 12 1.76 12 -3 12 C-3 4.125 -3 4.125 0 0 Z " fill="#E9F8F8" transform="translate(76,333)"/>
<path d="M0 0 C3.16039829 1.3479654 4.75594157 2.63391236 6.65625 5.484375 C7.12160156 6.17273438 7.58695312 6.86109375 8.06640625 7.5703125 C8.53949219 8.28960937 9.01257813 9.00890625 9.5 9.75 C9.97308594 10.45382813 10.44617188 11.15765625 10.93359375 11.8828125 C11.86272799 13.26750563 12.78606496 14.65610906 13.703125 16.04882812 C14.53018605 17.29315642 15.37252921 18.52755324 16.234375 19.74804688 C19 23.68711488 19 23.68711488 19 27 C14.46426176 25.53255528 11.26302145 23.49067411 8 20 C7.62173138 17.28186979 7.86850809 14.76133007 8 12 C6.62073227 9.65738392 6.62073227 9.65738392 5 8 C5 7.34 5 6.68 5 6 C3.02 6.33 1.04 6.66 -1 7 C-1.33 6.34 -1.66 5.68 -2 5 C-0.68 4.67 0.64 4.34 2 4 C1.34 2.68 0.68 1.36 0 0 Z " fill="#6F2749" transform="translate(338,202)"/>
<path d="M0 0 C0.99 3.3 1.98 6.6 3 10 C0 7 0 7 -2 4 C-3.65 4.33 -5.3 4.66 -7 5 C-7.93065133 7.60582371 -8.14917407 8.64198224 -7.0625 11.25 C-6.711875 11.8275 -6.36125 12.405 -6 13 C-7.11375 13.103125 -8.2275 13.20625 -9.375 13.3125 C-10.57125 13.539375 -11.7675 13.76625 -13 14 C-13.99 15.485 -13.99 15.485 -15 17 C-15.66 17 -16.32 17 -17 17 C-16.4039512 10.74148765 -14.08419669 6.88086043 -9.4375 2.6875 C-6.03383188 0.33111438 -4.18350185 0 0 0 Z " fill="#294F53" transform="translate(44,314)"/>
<path d="M0 0 C3.08061142 1.63657482 3.75551053 3.88905185 5 7.0625 C5 8.3825 5 9.7025 5 11.0625 C3.54257537 11.14346803 2.08387193 11.20167774 0.625 11.25 C-0.18710937 11.28480469 -0.99921875 11.31960938 -1.8359375 11.35546875 C-2.55007813 11.25878906 -3.26421875 11.16210938 -4 11.0625 C-6 8.0625 -6 8.0625 -5.8125 5.5625 C-4.72850394 2.22712752 -3.73465864 0.11670808 0 0 Z " fill="#2B4F54" transform="translate(290,329.9375)"/>
<path d="M0 0 C0.98262143 7.20983676 1.6644984 12.55048282 -2 19 C-5.26536365 15.14093387 -6.56197637 11.29962407 -7.5 6.375 C-7 4 -7 4 -4.0625 1.6875 C-1 0 -1 0 0 0 Z " fill="#80C1BC" transform="translate(223,89)"/>
<path d="M0 0 C0 0.66 0 1.32 0 2 C-0.763125 2.70125 -1.52625 3.4025 -2.3125 4.125 C-5.60858189 7.65104109 -6.53280635 10.44397762 -8 15 C-6.68 15 -5.36 15 -4 15 C-4 14.34 -4 13.68 -4 13 C-2.68 13.33 -1.36 13.66 0 14 C0.33 13.34 0.66 12.68 1 12 C2.98 12 4.96 12 7 12 C7 12.66 7 13.32 7 14 C6.360625 14.103125 5.72125 14.20625 5.0625 14.3125 C4.381875 14.539375 3.70125 14.76625 3 15 C2.67 15.99 2.34 16.98 2 18 C-1.63 17.34 -5.26 16.68 -9 16 C-10.375 13.5625 -10.375 13.5625 -11 10 C-9.44633371 6.64938871 -7.47465574 3.74000344 -5 1 C-2 0 -2 0 0 0 Z " fill="#3A877C" transform="translate(232,313)"/>
<path d="M0 0 C1.71875 1.3515625 1.71875 1.3515625 2.71875 4.3515625 C0.14013975 5.38600499 -2.44299635 6.40428534 -5.03125 7.4140625 C-5.76085937 7.70861328 -6.49046875 8.00316406 -7.2421875 8.30664062 C-7.95117188 8.58056641 -8.66015625 8.85449219 -9.390625 9.13671875 C-10.03999023 9.39332275 -10.68935547 9.64992676 -11.35839844 9.91430664 C-13.64757786 10.43486534 -15.07381664 10.07520554 -17.28125 9.3515625 C-14.38565356 6.223772 -11.49255276 4.06671927 -7.78125 1.9765625 C-6.8428125 1.43257812 -5.904375 0.88859375 -4.9375 0.328125 C-2.28125 -0.6484375 -2.28125 -0.6484375 0 0 Z " fill="#E8F8F8" transform="translate(277.28125,184.6484375)"/>
<path d="M0 0 C3.85593074 1.58561638 6.33216291 4.06509954 9.25 7 C10.14203125 7.886875 11.0340625 8.77375 11.953125 9.6875 C14 12 14 12 14 14 C9.2778099 13.51814387 6.29945628 11.30336567 2.6875 8.4375 C2.13771484 8.01275391 1.58792969 7.58800781 1.02148438 7.15039062 C-0.3251827 6.10818741 -1.66346201 5.05516157 -3 4 C-2.01 2.68 -1.02 1.36 0 0 Z " fill="#EAF8F8" transform="translate(165,166)"/>
<path d="M0 0 C1.8871875 -0.00386719 1.8871875 -0.00386719 3.8125 -0.0078125 C7 0.125 7 0.125 9 1.125 C9 2.115 9 3.105 9 4.125 C5.9473937 5.00827729 3.17494823 5.2883007 0 5.3125 C-0.845625 5.32667969 -1.69125 5.34085937 -2.5625 5.35546875 C-5.15408616 5.11043096 -6.77024992 4.43084901 -9 3.125 C-9 2.465 -9 1.805 -9 1.125 C-6.02760209 -0.36119895 -3.30380422 -0.00677009 0 0 Z " fill="#95DBD6" transform="translate(63,366.875)"/>
<path d="M0 0 C0.66 0.66 1.32 1.32 2 2 C1.96619794 6.69848693 1.42579581 11.31624605 1 16 C-3.62 16.99 -8.24 17.98 -13 19 C-13 18.34 -13 17.68 -13 17 C-12.195625 16.525625 -11.39125 16.05125 -10.5625 15.5625 C-7.7081924 14.20016328 -7.7081924 14.20016328 -7 11 C-3.535 10.505 -3.535 10.505 0 10 C0 6.7 0 3.4 0 0 Z " fill="#641342" transform="translate(135,329)"/>
<path d="M0 0 C2.79173055 -0.02690104 5.58320348 -0.04679053 8.375 -0.0625 C9.56609375 -0.07506836 9.56609375 -0.07506836 10.78125 -0.08789062 C16.7734375 -0.11328125 16.7734375 -0.11328125 19 1 C19 1.66 19 2.32 19 3 C15.84150315 4.57924842 12.4634872 4.14316514 9 4.125 C7.89398438 4.13080078 7.89398438 4.13080078 6.765625 4.13671875 C1.2533196 4.1266598 1.2533196 4.1266598 -1 3 C-0.67 2.01 -0.34 1.02 0 0 Z " fill="#96DBD6" transform="translate(269,372)"/>
<path d="M0 0 C2.475 0.99 2.475 0.99 5 2 C4.45773019 5.79588866 2.79872437 7.47211993 0 10 C-2.475 9.01 -2.475 9.01 -5 8 C-5 6.33333333 -5 4.66666667 -5 3 C-4.34 3 -3.68 3 -3 3 C-2.67 2.34 -2.34 1.68 -2 1 C-1.67 1.33 -1.34 1.66 -1 2 C-0.67 1.34 -0.34 0.68 0 0 Z " fill="#D89476" transform="translate(102,260)"/>
<path d="M0 0 C4.31385796 3.54352618 5.9721398 7.95192247 8 13 C5.53199953 11.84826645 3.95216435 10.95216435 2 9 C1.01 9.33 0.02 9.66 -1 10 C-1.99 7.36 -2.98 4.72 -4 2 C-2.68 1.34 -1.36 0.68 0 0 Z " fill="#90535E" transform="translate(179,307)"/>
<path d="M0 0 C0.33 0 0.66 0 1 0 C1.33 4.95 1.66 9.9 2 15 C2.66 14.67 3.32 14.34 4 14 C3.67 18.29 3.34 22.58 3 27 C2.34 26.01 1.68 25.02 1 24 C0.34 24.66 -0.32 25.32 -1 26 C-0.67 17.42 -0.34 8.84 0 0 Z " fill="#8DC4C0" transform="translate(215,112)"/>
<path d="M0 0 C4.55555556 0.55555556 4.55555556 0.55555556 6 2 C6.125 4.5 6.125 4.5 6 7 C5 8 5 8 2 8.125 C-1 8 -1 8 -2 7 C-2.1875 4.5625 -2.1875 4.5625 -2 2 C-1.34 1.34 -0.68 0.68 0 0 Z " fill="#CE7756" transform="translate(132,238)"/>
<path d="M0 0 C0.1875 3.375 0.1875 3.375 0 7 C-3.4352048 9.29013653 -4.985331 9.17842973 -9 9 C-8.82701599 6.66471585 -8.29774631 5.30822418 -6.66796875 3.62109375 C-2.42788462 0 -2.42788462 0 0 0 Z " fill="#D79373" transform="translate(145,252)"/>
<path d="M0 0 C1.258125 -0.020625 2.51625 -0.04125 3.8125 -0.0625 C4.52019531 -0.07410156 5.22789063 -0.08570313 5.95703125 -0.09765625 C8 0 8 0 11 1 C10.67 2.32 10.34 3.64 10 5 C7.69 5.33 5.38 5.66 3 6 C0 2.25 0 2.25 0 0 Z " fill="#5E2141" transform="translate(117,244)"/>
<path d="M0 0 C0.33 1.32 0.66 2.64 1 4 C-0.58074564 4.81752303 -2.16471223 5.62881997 -3.75 6.4375 C-4.63171875 6.88996094 -5.5134375 7.34242188 -6.421875 7.80859375 C-11.0836217 9.96288578 -14.86065584 10.09883354 -20 10 C-17.36823529 7.48265984 -15.11292258 6.71538264 -11.625 6.0625 C-6.89697578 5.14186162 -3.45780995 3.45780995 0 0 Z " fill="#A3B1B5" transform="translate(189,220)"/>
<path d="M0 0 C0 1.65 0 3.3 0 5 C-2.31 5 -4.62 5 -7 5 C-8.0625 3.125 -8.0625 3.125 -9 1 C-6.80036907 -3.39926185 -3.61934676 -1.66294311 0 0 Z " fill="#31565B" transform="translate(150,327)"/>
<path d="M0 0 C1.65 0.33 3.3 0.66 5 1 C5 4 5 4 4 6 C5.32 6 6.64 6 8 6 C8 6.99 8 7.98 8 9 C5.36 9 2.72 9 0 9 C0.66 8.67 1.32 8.34 2 8 C0.68 6.35 -0.64 4.7 -2 3 C-1.34 2.01 -0.68 1.02 0 0 Z " fill="#AE927F" transform="translate(149,288)"/>
<path d="M0 0 C2.6875 0.9375 2.6875 0.9375 5.6875 2.9375 C3.41889163 3.4679408 1.14751511 3.98655434 -1.125 4.5 C-3.02185547 4.93505859 -3.02185547 4.93505859 -4.95703125 5.37890625 C-8.3125 5.9375 -8.3125 5.9375 -11.3125 4.9375 C-4.46621396 -0.08426819 -4.46621396 -0.08426819 0 0 Z " fill="#905C61" transform="translate(184.3125,341.0625)"/>
<path d="M0 0 C0.97066406 -0.01417969 1.94132813 -0.02835937 2.94140625 -0.04296875 C5.4375 0.1875 5.4375 0.1875 7.4375 2.1875 C4.43436252 3.68906874 1.64682478 3.28031204 -1.6875 3.25 C-2.96882812 3.24097656 -4.25015625 3.23195313 -5.5703125 3.22265625 C-7.05144531 3.20525391 -7.05144531 3.20525391 -8.5625 3.1875 C-8.5625 2.5275 -8.5625 1.8675 -8.5625 1.1875 C-5.47951949 0.15983983 -3.23119574 0.02151262 0 0 Z " fill="#419D8D" transform="translate(177.5625,352.8125)"/>
<path d="M0 0 C0.33 0 0.66 0 1 0 C1.57637419 5.30477723 1.8788642 9.6791086 -1.5 14.0625 C-5.02498144 17.6549452 -8.0872349 17.91529715 -13 18 C-12.195625 17.6596875 -12.195625 17.6596875 -11.375 17.3125 C-7.36692743 15.09751252 -3.88604445 12.64551113 -1.6875 8.5625 C-0.92575681 5.72327537 -0.40613388 2.91062613 0 0 Z " fill="#A3ABB1" transform="translate(163,235)"/>
<path d="M0 0 C3.25524265 3.02272532 5.61820737 6.25718301 8 10 C7.67 10.66 7.34 11.32 7 12 C4.36 10.02 1.72 8.04 -1 6 C-0.67 4.02 -0.34 2.04 0 0 Z " fill="#D4896D" transform="translate(348,217)"/>
<path d="M0 0 C0 1.65 0 3.3 0 5 C-0.66 3.68 -1.32 2.36 -2 1 C-3.32 1 -4.64 1 -6 1 C-5.67 1.66 -5.34 2.32 -5 3 C-6.98 3.33 -8.96 3.66 -11 4 C-11.33 2.35 -11.66 0.7 -12 -1 C-7.31034294 -2.11658501 -4.46236469 -1.80619523 0 0 Z " fill="#B57061" transform="translate(157,236)"/>
<path d="M0 0 C-1.485 2.475 -1.485 2.475 -3 5 C-5.97 4.505 -5.97 4.505 -9 4 C-9.33 3.01 -9.66 2.02 -10 1 C-6.78548731 -0.60725635 -3.56387464 -0.05748185 0 0 Z " fill="#3C9282" transform="translate(253,199)"/>
<path d="M0 0 C2.0625 0.4375 2.0625 0.4375 4 1 C4.33 2.65 4.66 4.3 5 6 C2.69 6 0.38 6 -2 6 C-1.125 1.125 -1.125 1.125 0 0 Z " fill="#E9F8F8" transform="translate(282,338)"/>
<path d="M0 0 C0.33 0 0.66 0 1 0 C0.73260866 6.01630523 0.12635909 10.30053548 -4 15 C-6.75 16.375 -6.75 16.375 -9 17 C-8 14 -8 14 -5.625 11.875 C-2.29561015 8.22852541 -1.25877206 4.69736892 0 0 Z " fill="#8B8891" transform="translate(263,37)"/>
<path d="M0 0 C1.9375 0.8125 1.9375 0.8125 4 2 C4.33 2.99 4.66 3.98 5 5 C2.92446352 5.5534764 1.15634036 6 -1 6 C-1.33 6.66 -1.66 7.32 -2 8 C-3.5 6.6875 -3.5 6.6875 -5 5 C-5 4.01 -5 3.02 -5 2 C-2.525 2.495 -2.525 2.495 0 3 C0 2.01 0 1.02 0 0 Z " fill="#73BDB4" transform="translate(102,335)"/>
<path d="M0 0 C1.41750563 0.11509661 2.83401169 0.24253658 4.25 0.375 C5.03890625 0.44460938 5.8278125 0.51421875 6.640625 0.5859375 C9.085877 1.01507113 10.84836903 1.78600638 13 3 C13 3.66 13 4.32 13 5 C4.80743982 4.64989059 4.80743982 4.64989059 1.4375 1.9375 C0.963125 1.298125 0.48875 0.65875 0 0 Z " fill="#2A4F54" transform="translate(148,256)"/>
<path d="M0 0 C0.66 0.66 1.32 1.32 2 2 C1.9765625 4.6015625 1.9765625 4.6015625 1.625 7.625 C1.45871094 9.12933594 1.45871094 9.12933594 1.2890625 10.6640625 C1.14597656 11.82035156 1.14597656 11.82035156 1 13 C-1.64 13.33 -4.28 13.66 -7 14 C-7 13.01 -7 12.02 -7 11 C-3.535 10.505 -3.535 10.505 0 10 C0 6.7 0 3.4 0 0 Z " fill="#8E8278" transform="translate(135,329)"/>
<path d="M0 0 C0.66 0 1.32 0 2 0 C6 6.75 6 6.75 6 9 C2.98968256 9.93423645 2.13349732 10.04449911 -1 9 C-1 8.34 -1 7.68 -1 7 C-0.01 7 0.98 7 2 7 C1.34 4.69 0.68 2.38 0 0 Z " fill="#A5655A" transform="translate(210,46)"/>
<path d="M0 0 C0.66 0 1.32 0 2 0 C2.33 1.98 2.66 3.96 3 6 C-5.03571429 8.27678571 -5.03571429 8.27678571 -9 7 C-5.535 6.505 -5.535 6.505 -2 6 C-1.855625 5.195625 -1.71125 4.39125 -1.5625 3.5625 C-1 1 -1 1 0 0 Z " fill="#A56560" transform="translate(199,335)"/>
<path d="M0 0 C0.33 0.99 0.66 1.98 1 3 C2.32 3 3.64 3 5 3 C5 2.01 5 1.02 5 0 C5.66 0.33 6.32 0.66 7 1 C6.67 2.32 6.34 3.64 6 5 C2.37 5 -1.26 5 -5 5 C-3 1 -3 1 0 0 Z " fill="#7DBAB6" transform="translate(117,327)"/>
<path d="M0 0 C2.97 0 5.94 0 9 0 C9.33 0.99 9.66 1.98 10 3 C6.7 3 3.4 3 0 3 C0 2.01 0 1.02 0 0 Z " fill="#F695A4" transform="translate(247,341)"/>
<path d="M0 0 C-0.33 1.32 -0.66 2.64 -1 4 C-3.31 4 -5.62 4 -8 4 C-8 3.01 -8 2.02 -8 1 C-5.29120665 -0.35439668 -2.99066732 -0.06501451 0 0 Z " fill="#E9F9F9" transform="translate(307,332)"/>
<path d="M0 0 C0 3 0 3 -1.3125 4.625 C-3 6 -3 6 -6 7 C-6.33 9.97 -6.66 12.94 -7 16 C-7.33 16 -7.66 16 -8 16 C-8.08121924 14.39667209 -8.13929134 12.79215974 -8.1875 11.1875 C-8.22230469 10.29417969 -8.25710937 9.40085938 -8.29296875 8.48046875 C-8 6 -8 6 -6.65625 4.28125 C-4.54544663 2.64836438 -2.31894065 1.31615551 0 0 Z " fill="#BE8977" transform="translate(161,178)"/>
<path d="M0 0 C0.99 0.33 1.98 0.66 3 1 C3 2.65 3 4.3 3 6 C1.35 5.67 -0.3 5.34 -2 5 C-2 5.99 -2 6.98 -2 8 C-2.99 7.01 -3.98 6.02 -5 5 C-4.67 4.01 -4.34 3.02 -4 2 C-2.02 2.495 -2.02 2.495 0 3 C0 2.01 0 1.02 0 0 Z " fill="#75BFB6" transform="translate(261,334)"/>
<path d="M0 0 C1.32 0.66 2.64 1.32 4 2 C3.67 3.32 3.34 4.64 3 6 C1.35 5.67 -0.3 5.34 -2 5 C-2.33 4.01 -2.66 3.02 -3 2 C-2.01 2 -1.02 2 0 2 C0 1.34 0 0.68 0 0 Z " fill="#3C9888" transform="translate(123,360)"/>
<path d="M0 0 C2.64 0 5.28 0 8 0 C7.67 0.99 7.34 1.98 7 3 C4.36 3 1.72 3 -1 3 C-0.67 2.01 -0.34 1.02 0 0 Z " fill="#E8F9F9" transform="translate(116,333)"/>
<path d="M0 0 C2.64 0 5.28 0 8 0 C8.33 0.99 8.66 1.98 9 3 C5.7 3 2.4 3 -1 3 C-0.67 2.01 -0.34 1.02 0 0 Z " fill="#88CEC7" transform="translate(209,356)"/>
<path d="M0 0 C0.66 0.33 1.32 0.66 2 1 C0.88121617 2.17262904 -0.24523051 3.33795138 -1.375 4.5 C-2.00148437 5.1496875 -2.62796875 5.799375 -3.2734375 6.46875 C-5 8 -5 8 -7 8 C-6.875 6.25 -6.875 6.25 -6 4 C-2.9375 1.75 -2.9375 1.75 0 0 Z " fill="#CF7A58" transform="translate(231,78)"/>
<path d="M0 0 C0.66 0.66 1.32 1.32 2 2 C0.625 3.5 0.625 3.5 -1 5 C-1.66 5 -2.32 5 -3 5 C-3.33 5.99 -3.66 6.98 -4 8 C-4.66 7.34 -5.32 6.68 -6 6 C-5.67 5.01 -5.34 4.02 -5 3 C-4.34 3 -3.68 3 -3 3 C-2.67 2.34 -2.34 1.68 -2 1 C-1.67 1.33 -1.34 1.66 -1 2 C-0.67 1.34 -0.34 0.68 0 0 Z " fill="#D8A68D" transform="translate(102,260)"/>
<path d="M0 0 C1.32 1.32 2.64 2.64 4 4 C3.01 4.99 2.02 5.98 1 7 C-1.1385485 4.8614515 -1.42655063 3.86724686 -2 1 C-1.34 0.67 -0.68 0.34 0 0 Z " fill="#611E43" transform="translate(179,307)"/>
<path d="M0 0 C0 1.66666667 0 3.33333333 0 5 C-2.31 5.33 -4.62 5.66 -7 6 C-7 5.34 -7 4.68 -7 4 C-4.69 2.68 -2.38 1.36 0 0 Z " fill="#6F435F" transform="translate(129,342)"/>
<path d="M0 0 C-3.63423209 2.32590854 -6.77088331 2.16265833 -11 2 C-7.374967 -1.625033 -4.81746234 -1.01907857 0 0 Z " fill="#9EA4AA" transform="translate(180,228)"/>
<path d="M0 0 C3.875 1.75 3.875 1.75 5 4 C4.01 5.485 4.01 5.485 3 7 C1.35 6.67 -0.3 6.34 -2 6 C-0.68 5.34 0.64 4.68 2 4 C1.34 2.68 0.68 1.36 0 0 Z " fill="#8B4852" transform="translate(338,202)"/>
<path d="M0 0 C2.9375 0.75 2.9375 0.75 6 2 C6.875 4.125 6.875 4.125 7 6 C6.01 6.495 6.01 6.495 5 7 C4.67 5.68 4.34 4.36 4 3 C2.68 3.33 1.36 3.66 0 4 C-0.33 3.01 -0.66 2.02 -1 1 C-0.67 0.67 -0.34 0.34 0 0 Z " fill="#C67E68" transform="translate(233,65)"/>
<path d="M0 0 C1.485 0.99 1.485 0.99 3 2 C3.40843923 4.71203652 3.13336867 7.2437142 3 10 C-0.00617269 6.99382731 0.40414684 4.17618402 0 0 Z " fill="#2B5256" transform="translate(51,314)"/>
<path d="M0 0 C-1.28519565 2.86697492 -2.57129254 4.97607712 -5 7 C-5.66 7 -6.32 7 -7 7 C-3.86206897 0 -3.86206897 0 0 0 Z " fill="#5C2647" transform="translate(202,38)"/>
<path d="M0 0 C0.33 0 0.66 0 1 0 C1 1.65 1 3.3 1 5 C1.66 5 2.32 5 3 5 C3.66 6.98 4.32 8.96 5 11 C0.07692308 6.81538462 0.07692308 6.81538462 -0.3125 2.6875 C-0.209375 1.800625 -0.10625 0.91375 0 0 Z " fill="#93929B" transform="translate(107,217)"/>
<path d="M0 0 C0.99 0.33 1.98 0.66 3 1 C3 1.66 3 2.32 3 3 C0.36 3.33 -2.28 3.66 -5 4 C-2.6875 1.9375 -2.6875 1.9375 0 0 Z " fill="#D59577" transform="translate(181,341)"/>
</svg>
