<svg xmlns="http://www.w3.org/2000/svg" xmlns:xlink="http://www.w3.org/1999/xlink" width="400" zoomAndPan="magnify" viewBox="0 0 300 168.749997" height="225" preserveAspectRatio="xMidYMid meet" version="1.0"><defs><clipPath id="332135d5d4"><path d="M 106 0.0429688 L 255 0.0429688 L 255 146 L 106 146 Z M 106 0.0429688 " clip-rule="nonzero"/></clipPath><clipPath id="fbded4bce0"><path d="M 4 93 L 108 93 L 108 142 L 4 142 Z M 4 93 " clip-rule="nonzero"/></clipPath><clipPath id="93ee57e66f"><path d="M 0.222656 126.195312 L 127.753906 86.738281 L 138.121094 120.25 L 10.589844 159.707031 Z M 0.222656 126.195312 " clip-rule="nonzero"/></clipPath><clipPath id="e757c31a8d"><path d="M 0.222656 126.195312 L 127.753906 86.738281 L 138.121094 120.25 L 10.589844 159.707031 Z M 0.222656 126.195312 " clip-rule="nonzero"/></clipPath><clipPath id="0129198e3d"><path d="M -22.675781 74.957031 L 111.394531 33.476562 L 152.875 167.546875 L 18.804688 209.027344 Z M -22.675781 74.957031 " clip-rule="nonzero"/></clipPath><clipPath id="52fa32adef"><path d="M 15 100 L 135 100 L 135 151 L 15 151 Z M 15 100 " clip-rule="nonzero"/></clipPath><clipPath id="c0a527fe30"><path d="M 0.222656 126.195312 L 127.753906 86.738281 L 138.121094 120.25 L 10.589844 159.707031 Z M 0.222656 126.195312 " clip-rule="nonzero"/></clipPath><clipPath id="e50f560eaa"><path d="M 0.222656 126.195312 L 127.753906 86.738281 L 138.121094 120.25 L 10.589844 159.707031 Z M 0.222656 126.195312 " clip-rule="nonzero"/></clipPath><clipPath id="e7f8151bdb"><path d="M -22.675781 74.957031 L 111.394531 33.476562 L 152.875 167.546875 L 18.804688 209.027344 Z M -22.675781 74.957031 " clip-rule="nonzero"/></clipPath><clipPath id="deaa0fd312"><path d="M 113.144531 158.089844 L 137.671875 158.089844 L 137.671875 168.261719 L 113.144531 168.261719 Z M 113.144531 158.089844 " clip-rule="nonzero"/></clipPath><clipPath id="573c39bf3a"><path d="M 69.230469 118 L 95 118 L 95 129 L 69.230469 129 Z M 69.230469 118 " clip-rule="nonzero"/></clipPath><clipPath id="10f7dc7247"><path d="M 191 118 L 217.34375 118 L 217.34375 129 L 191 129 Z M 191 118 " clip-rule="nonzero"/></clipPath><clipPath id="6eba4def8f"><path d="M 140 28.140625 L 144 28.140625 L 144 33 L 140 33 Z M 140 28.140625 " clip-rule="nonzero"/></clipPath><clipPath id="9474e6869e"><path d="M 178 9 L 267 9 L 267 72 L 178 72 Z M 178 9 " clip-rule="nonzero"/></clipPath><clipPath id="7388b188ff"><path d="M 171.875 58.285156 L 284.398438 0.101562 L 299.617188 29.53125 L 187.09375 87.714844 Z M 171.875 58.285156 " clip-rule="nonzero"/></clipPath><clipPath id="edc0427f4f"><path d="M 171.875 58.285156 L 284.398438 0.101562 L 299.617188 29.53125 L 187.09375 87.714844 Z M 171.875 58.285156 " clip-rule="nonzero"/></clipPath><clipPath id="4d1d0c6076"><path d="M 141.917969 14.253906 L 260.207031 -46.910156 L 321.371094 71.378906 L 203.082031 132.542969 Z M 141.917969 14.253906 " clip-rule="nonzero"/></clipPath><clipPath id="86c07e1fa5"><path d="M 189 13 L 295 13 L 295 79 L 189 79 Z M 189 13 " clip-rule="nonzero"/></clipPath><clipPath id="c88a8b1d73"><path d="M 171.875 58.285156 L 284.398438 0.101562 L 299.617188 29.53125 L 187.09375 87.714844 Z M 171.875 58.285156 " clip-rule="nonzero"/></clipPath><clipPath id="805620b3ba"><path d="M 171.875 58.285156 L 284.398438 0.101562 L 299.617188 29.53125 L 187.09375 87.714844 Z M 171.875 58.285156 " clip-rule="nonzero"/></clipPath><clipPath id="5e0d28ea4f"><path d="M 141.917969 14.253906 L 260.207031 -46.910156 L 321.371094 71.378906 L 203.082031 132.542969 Z M 141.917969 14.253906 " clip-rule="nonzero"/></clipPath></defs><g clip-path="url(#332135d5d4)"><path fill="#f7f1c3" d="M 164.699219 141.691406 C 145.96875 137.121094 116.628906 120.445312 109.453125 101.773438 C 104.457031 89.664062 106.019531 71.667969 108.839844 58.914062 C 112.582031 41.5625 126.316406 21.636719 140.664062 11.828125 C 154.089844 2.660156 169.695312 0.0546875 185.300781 0.0546875 C 221.167969 0.0546875 242.078125 35.066406 252.378906 67.4375 C 262.679688 100.792969 236.46875 135.46875 206.820312 143.652344 C 193.085938 147.578125 178.097656 145.613281 164.699219 141.691406 " fill-opacity="1" fill-rule="nonzero"/></g><g clip-path="url(#fbded4bce0)"><g clip-path="url(#93ee57e66f)"><g clip-path="url(#e757c31a8d)"><g clip-path="url(#0129198e3d)"><path fill="#ffffff" d="M 6.101562 140.433594 C 6.179688 140.808594 5.9375 141.175781 5.566406 141.253906 C 5.191406 141.335938 4.820312 141.09375 4.742188 140.71875 C 4.398438 139.21875 4.804688 137.527344 5.804688 135.757812 C 7.28125 133.148438 10.074219 130.320312 13.410156 127.660156 C 16.429688 125.246094 19.886719 122.957031 23.148438 121.074219 C 27.710938 118.441406 31.910156 116.601562 34.027344 116.152344 C 44.761719 113.878906 54.925781 114.964844 64.335938 115.71875 C 71.320312 116.28125 77.875 116.65625 83.929688 115.179688 C 86.976562 114.4375 89.882812 113.210938 92.675781 111.320312 C 94.347656 110.1875 95.980469 108.8125 97.578125 107.152344 C 99.300781 105.359375 100.980469 103.238281 102.617188 100.726562 C 103.996094 98.605469 105.355469 96.222656 106.671875 93.515625 C 106.792969 93.246094 107.113281 93.125 107.382812 93.246094 C 107.652344 93.367188 107.773438 93.683594 107.652344 93.953125 C 106.496094 96.800781 105.289062 99.328125 104.007812 101.574219 C 102.460938 104.300781 100.816406 106.605469 99.097656 108.550781 C 97.460938 110.40625 95.742188 111.933594 93.964844 113.191406 C 90.972656 115.304688 87.800781 116.636719 84.488281 117.457031 C 78.207031 119.019531 71.394531 118.679688 64.148438 118.097656 C 54.941406 117.355469 45.003906 116.210938 34.5 118.40625 C 32.503906 118.816406 28.574219 120.589844 24.242188 123 C 21.035156 124.785156 17.613281 126.929688 14.601562 129.199219 C 11.390625 131.613281 8.636719 134.148438 7.15625 136.558594 C 6.3125 137.929688 5.875 139.234375 6.101562 140.433594 Z M 6.101562 140.433594 " fill-opacity="1" fill-rule="evenodd"/></g></g></g></g><g clip-path="url(#52fa32adef)"><g clip-path="url(#c0a527fe30)"><g clip-path="url(#e50f560eaa)"><g clip-path="url(#e7f8151bdb)"><path fill="#ffffff" d="M 16.59375 149.691406 C 16.527344 150.066406 16.164062 150.320312 15.789062 150.253906 C 15.410156 150.183594 15.160156 149.824219 15.226562 149.445312 C 16.300781 142.9375 20.449219 136.859375 25.828125 132.226562 C 31.378906 127.4375 38.238281 124.210938 44.269531 123.511719 C 53.746094 122.464844 63.238281 123.679688 72.65625 125.023438 C 82.03125 126.359375 91.335938 127.824219 100.488281 127.175781 C 108.003906 126.640625 115.417969 124.675781 122.683594 119.984375 C 123.609375 119.390625 124.625 118.65625 125.605469 117.867188 C 126.5625 117.09375 127.484375 116.265625 128.230469 115.457031 C 128.992188 114.632812 129.53125 113.941406 130.003906 113.207031 C 130.488281 112.445312 130.902344 111.644531 131.410156 110.613281 C 132.1875 109.039062 132.570312 107.730469 132.609375 106.648438 C 132.644531 105.753906 132.4375 105.042969 131.992188 104.511719 C 131.273438 103.640625 130.035156 103.222656 128.578125 103.0625 C 126.636719 102.851562 124.316406 103.121094 122.046875 103.726562 C 118.898438 104.5625 115.835938 106.023438 114.023438 107.769531 C 113.046875 108.710938 112.417969 109.710938 112.460938 110.757812 C 112.519531 112.035156 113.527344 113.28125 115.738281 114.484375 C 116.003906 114.621094 116.105469 114.945312 115.96875 115.207031 C 115.835938 115.472656 115.511719 115.574219 115.25 115.4375 C 112.429688 114.070312 111.261719 112.433594 111.117188 110.84375 C 110.949219 109 112.207031 107.078125 114.316406 105.445312 C 117.160156 103.238281 121.554688 101.519531 125.46875 101.023438 C 127.304688 100.789062 129.042969 100.839844 130.484375 101.203125 C 131.835938 101.542969 132.941406 102.171875 133.707031 103.070312 C 135.128906 104.738281 135.480469 107.496094 133.484375 111.628906 C 132.9375 112.75 132.492188 113.625 131.96875 114.453125 C 131.433594 115.300781 130.820312 116.097656 129.949219 117.042969 C 129.136719 117.929688 128.132812 118.84375 127.085938 119.695312 C 126.042969 120.542969 124.957031 121.328125 123.972656 121.96875 C 116.339844 126.90625 108.554688 128.996094 100.65625 129.554688 C 91.335938 130.210938 81.867188 128.730469 72.324219 127.339844 C 63.09375 126 53.800781 124.738281 44.507812 125.726562 C 38.824219 126.292969 32.371094 129.289062 27.058594 133.679688 C 21.882812 137.960938 17.773438 143.566406 16.59375 149.691406 Z M 16.59375 149.691406 " fill-opacity="1" fill-rule="evenodd"/></g></g></g></g><path fill="#d68867" d="M 162.558594 167.546875 C 159.019531 167.21875 155.527344 166.488281 152.085938 165.617188 C 152.0625 165.613281 152.054688 165.585938 152.066406 165.566406 C 152.152344 165.449219 152.238281 165.332031 152.328125 165.210938 C 152.332031 165.214844 152.335938 165.214844 152.34375 165.21875 C 157.703125 162.113281 163.476562 159.65625 169.378906 157.792969 C 169.394531 157.789062 169.402344 157.773438 169.402344 157.761719 C 169.398438 157.4375 169.363281 157.121094 169.285156 156.816406 C 169.445312 157.078125 169.386719 157.472656 169.421875 157.777344 C 169.425781 157.777344 169.425781 157.78125 169.425781 157.78125 C 169.453125 158.535156 169.40625 159.292969 169.367188 160.042969 C 169.25 161.832031 169.0625 163.664062 168.257812 165.285156 C 168.257812 165.289062 168.253906 165.289062 168.253906 165.292969 C 167.710938 165.964844 167.042969 166.554688 166.3125 167.023438 C 165.203125 167.722656 163.816406 167.597656 162.5625 167.546875 C 162.558594 167.546875 162.558594 167.546875 162.558594 167.546875 " fill-opacity="1" fill-rule="nonzero"/><path fill="#684b45" d="M 143.007812 159.125 C 137.328125 155.675781 131.773438 152.058594 126.441406 148.089844 C 126.429688 148.082031 126.425781 148.066406 126.429688 148.054688 C 128.125 142.753906 130.269531 137.820312 133.191406 133.101562 C 133.191406 133.09375 133.199219 133.089844 133.207031 133.085938 C 138.015625 131.835938 142.992188 131.652344 147.9375 131.617188 C 147.921875 131.621094 147.902344 131.621094 147.882812 131.621094 C 149.679688 131.570312 151.476562 131.597656 153.273438 131.566406 C 153.285156 131.566406 153.296875 131.570312 153.304688 131.582031 C 153.570312 132.089844 153.820312 132.621094 154.03125 133.15625 C 154.035156 133.15625 154.035156 133.160156 154.035156 133.160156 C 157.261719 137.566406 159.796875 142.484375 162.175781 147.390625 C 162.183594 147.402344 162.179688 147.421875 162.167969 147.429688 C 156.371094 151.976562 149.941406 155.636719 143.710938 159.539062 C 143.699219 159.546875 143.6875 159.546875 143.675781 159.539062 C 143.453125 159.402344 143.230469 159.265625 143.007812 159.125 " fill-opacity="1" fill-rule="nonzero"/><path fill="#7a5b53" d="M 102.300781 137.265625 C 102.300781 137.261719 102.300781 137.261719 102.304688 137.257812 C 109.390625 127.835938 130.59375 143.023438 137.832031 147.640625 C 144.582031 152.144531 151.496094 156.449219 158.101562 161.171875 C 158.117188 161.179688 158.121094 161.199219 158.109375 161.210938 C 157.957031 161.457031 157.800781 161.699219 157.636719 161.933594 C 155.816406 164.304688 153.78125 167.152344 150.503906 167.503906 C 145.355469 168.363281 140.882812 166.238281 136.316406 165.058594 C 128.902344 163.042969 121.957031 160.226562 115.070312 157.207031 C 112.789062 156.207031 110.757812 154.707031 109.132812 152.820312 C 108.199219 151.734375 107.300781 150.613281 106.417969 149.5 C 103.984375 146.027344 100.433594 141.8125 102.300781 137.265625 " fill-opacity="1" fill-rule="nonzero"/><g clip-path="url(#deaa0fd312)"><path fill="#d68867" d="M 137.589844 165.113281 C 137.492188 164.519531 135.554688 162.808594 134.9375 162.777344 C 131.765625 162.03125 128.671875 160.910156 125.503906 160.160156 C 125.511719 160.164062 125.519531 160.167969 125.527344 160.167969 C 125.519531 160.167969 125.507812 160.164062 125.5 160.160156 C 125.5 160.160156 125.503906 160.160156 125.503906 160.160156 C 123.636719 159.746094 114.503906 157.261719 113.472656 158.539062 C 113.472656 158.539062 113.46875 158.542969 113.46875 158.546875 C 112.820312 160.132812 113.957031 164.570312 115.179688 165.808594 C 115.816406 166.558594 116.523438 167.363281 117.546875 167.492188 C 117.546875 167.492188 117.546875 167.492188 117.550781 167.492188 C 124.117188 169.109375 130.886719 167.777344 137.496094 167.117188 C 137.507812 167.117188 137.523438 167.101562 137.523438 167.089844 C 137.535156 166.890625 137.554688 166.695312 137.574219 166.5 C 137.578125 166.480469 137.558594 166.464844 137.539062 166.464844 C 137.511719 166.46875 137.492188 166.445312 137.503906 166.421875 C 137.699219 166.03125 137.648438 165.535156 137.589844 165.113281 " fill-opacity="1" fill-rule="nonzero"/></g><path fill="#84645a" d="M 185.761719 137.273438 C 188.25 142.058594 181.605469 149.984375 177.550781 154.328125 C 176.636719 155.3125 175.527344 156.097656 174.300781 156.640625 C 166.980469 159.878906 159.628906 162.921875 151.746094 165.070312 C 147.175781 166.25 142.707031 168.375 137.558594 167.515625 C 134.28125 167.164062 132.25 164.316406 130.421875 161.945312 C 130.261719 161.707031 130.101562 161.464844 129.949219 161.222656 C 129.941406 161.210938 129.945312 161.191406 129.957031 161.179688 C 136.5625 156.460938 143.476562 152.15625 150.230469 147.652344 C 157.394531 143.054688 178.753906 127.839844 185.757812 137.269531 C 185.757812 137.269531 185.761719 137.273438 185.761719 137.273438 " fill-opacity="1" fill-rule="nonzero"/><path fill="#4e1b1a" d="M 152.257812 80.910156 C 152.257812 80.90625 152.257812 80.90625 152.257812 80.902344 C 152.261719 80.863281 152.265625 80.820312 152.269531 80.78125 C 152.277344 80.824219 152.289062 80.871094 152.296875 80.914062 C 152.28125 80.914062 152.269531 80.910156 152.257812 80.910156 Z M 156.199219 86.496094 C 155.757812 85.730469 155.515625 84.90625 155.304688 84.070312 C 155.46875 84.324219 155.640625 84.582031 155.820312 84.851562 C 157.140625 86.96875 158.167969 89.269531 158.753906 91.671875 C 159.121094 93.230469 159.054688 94.84375 159.257812 96.425781 C 159.109375 94.457031 159.257812 92.453125 158.832031 90.503906 C 158.5 88.914062 158.105469 87.328125 157.484375 85.816406 C 156.664062 83.871094 155.597656 82.03125 154.546875 80.195312 C 154.382812 79.910156 154.222656 79.621094 154.078125 79.328125 C 154.011719 79.070312 153.945312 78.8125 153.878906 78.554688 C 154.050781 78.902344 154.226562 79.257812 154.402344 79.605469 C 154.902344 80.476562 155.492188 82.207031 156.59375 82.457031 C 157.171875 82.535156 157.664062 81.949219 157.570312 81.429688 C 157.519531 81.054688 157.335938 80.59375 156.917969 80.480469 C 156.503906 80.398438 156.347656 81.222656 156.722656 81.316406 C 156.800781 81.328125 156.871094 81.265625 156.886719 81.195312 C 156.847656 81.292969 156.703125 81.320312 156.648438 81.21875 C 156.585938 81.09375 156.621094 80.945312 156.6875 80.816406 C 156.851562 80.5 157.046875 80.921875 157.089844 81.085938 C 157.261719 81.6875 156.800781 82.296875 156.289062 81.621094 C 155.671875 80.867188 155.5 79.882812 155.179688 78.992188 C 154.664062 77.453125 154.199219 75.824219 153.148438 74.527344 C 153.074219 74.453125 152.992188 74.402344 152.910156 74.371094 C 152.796875 73.976562 152.660156 73.589844 152.488281 73.214844 C 152.320312 72.820312 152.09375 72.453125 151.871094 72.085938 C 151.613281 71.179688 151.304688 70.285156 150.882812 69.4375 C 150.480469 68.148438 149.714844 66.921875 148.359375 66.378906 C 147.761719 66.175781 147.132812 66.03125 146.507812 65.910156 C 146.089844 65.832031 145.683594 65.976562 145.273438 66.03125 C 144.261719 65.074219 142.851562 64.625 141.347656 64.617188 C 140.5 64.5625 139.628906 64.695312 138.847656 65.027344 C 138.367188 65.148438 137.90625 65.308594 137.621094 65.429688 C 134.191406 66.695312 133.304688 69.121094 131.535156 71.878906 C 131.304688 72.25 131.070312 72.625 130.820312 72.984375 C 130.414062 73.441406 129.992188 73.878906 129.550781 74.304688 C 129.144531 74.613281 128.722656 74.902344 128.34375 75.238281 C 126.839844 76.507812 125.730469 78.109375 124.988281 79.875 C 124.832031 80.25 124.707031 80.632812 124.605469 81.019531 C 123.589844 82.511719 122.828125 84.214844 122.777344 85.992188 C 122.6875 87.25 122.847656 88.519531 122.625 89.769531 C 122.300781 90.835938 121.363281 93.417969 119.804688 92.675781 C 119.269531 92.382812 119.109375 91.53125 119.769531 91.273438 C 120.179688 91.25 120.035156 91.859375 120.078125 92.101562 C 120.074219 91.835938 120.15625 91.515625 119.980469 91.285156 C 119.660156 91.042969 119.261719 91.542969 119.210938 91.820312 C 119.105469 92.613281 119.917969 93.253906 120.707031 93.15625 C 121.238281 93.230469 121.675781 93.082031 122.101562 92.785156 C 121.675781 93.535156 121.222656 94.269531 120.824219 95.035156 C 120.714844 95.261719 120.609375 95.488281 120.511719 95.71875 C 119.71875 97.105469 119.609375 98.609375 119.71875 99.238281 C 119.863281 100.082031 120.207031 100.988281 120.511719 101.886719 C 120.773438 101.683594 121.042969 101.496094 121.332031 101.347656 C 121.898438 101.058594 122.496094 100.820312 123.089844 100.585938 C 123.664062 100.355469 124.257812 100.179688 124.863281 100.050781 C 125.832031 99.84375 126.824219 99.714844 127.8125 99.644531 C 128.457031 99.59375 129.109375 99.589844 129.753906 99.617188 C 130.042969 99.628906 130.332031 99.652344 130.617188 99.675781 C 131.707031 99.015625 132.8125 98.382812 133.957031 97.824219 C 135.191406 97.226562 136.464844 96.675781 137.777344 96.265625 C 139.167969 95.828125 140.628906 95.59375 142.085938 95.542969 C 142.652344 95.523438 143.222656 95.546875 143.789062 95.605469 C 144.707031 95.707031 145.640625 95.824219 146.539062 96.042969 C 147.9375 96.382812 149.292969 96.945312 150.578125 97.574219 C 151.515625 98.03125 152.410156 98.578125 153.261719 99.179688 C 154.125 98.921875 154.988281 98.664062 155.867188 98.449219 C 156.699219 98.207031 157.71875 98.054688 158.25 97.324219 C 158.925781 96.3125 158.949219 95.058594 158.75 93.917969 C 158.410156 91.332031 157.40625 88.828125 156.199219 86.496094 " fill-opacity="1" fill-rule="nonzero"/><path fill="#3d1716" d="M 144.648438 95.527344 C 145.671875 95.613281 146.683594 95.996094 147.644531 96.328125 C 147.667969 96.332031 147.691406 96.332031 147.710938 96.335938 C 147.761719 96.34375 147.808594 96.351562 147.855469 96.355469 C 148.03125 96.378906 148.207031 96.402344 148.386719 96.425781 C 148.484375 96.4375 148.578125 96.453125 148.671875 96.464844 C 148.671875 96.460938 148.675781 96.460938 148.675781 96.457031 C 148.675781 96.460938 148.683594 96.464844 148.6875 96.464844 C 149.042969 96.511719 149.394531 96.5625 149.75 96.613281 C 149.878906 96.632812 150.003906 96.65625 150.132812 96.675781 C 150.132812 96.667969 150.132812 96.664062 150.132812 96.65625 C 150.121094 96.421875 150.082031 96.1875 150.023438 95.960938 C 149.886719 94.792969 149.789062 93.621094 149.671875 92.449219 C 149.542969 91.105469 149.402344 89.757812 149.339844 88.40625 C 149.289062 87.492188 149.289062 86.574219 149.324219 85.660156 C 149.332031 85.46875 149.351562 85.28125 149.363281 85.09375 C 149.242188 85.535156 149.082031 85.96875 148.875 86.378906 C 148.597656 86.929688 148.199219 87.402344 147.800781 87.867188 C 147.417969 88.3125 147.003906 88.738281 146.550781 89.117188 C 145.851562 89.703125 145.078125 90.210938 144.210938 90.5 C 144.375 91.757812 144.460938 93.03125 144.550781 94.300781 C 144.578125 94.710938 144.613281 95.117188 144.648438 95.527344 " fill-opacity="1" fill-rule="nonzero"/><path fill="#3d1716" d="M 130.539062 97.242188 C 131.488281 97.214844 132.4375 97.167969 133.382812 97.082031 C 133.460938 97.074219 133.539062 97.0625 133.617188 97.058594 C 133.652344 97.050781 133.6875 97.046875 133.726562 97.042969 C 133.882812 97.019531 134.039062 96.992188 134.199219 96.964844 C 134.554688 96.902344 134.910156 96.839844 135.265625 96.777344 C 136.566406 96.550781 137.976562 96.277344 139.308594 96.464844 C 139.316406 96.4375 139.320312 96.414062 139.324219 96.390625 C 139.378906 96.117188 139.433594 95.84375 139.480469 95.570312 C 139.613281 94.835938 139.722656 94.097656 139.835938 93.355469 C 139.871094 93.105469 139.910156 92.851562 139.949219 92.601562 C 140.007812 92.222656 140.074219 91.84375 140.140625 91.46875 C 140.152344 91.460938 140.164062 91.453125 140.171875 91.445312 C 140.273438 91.375 140.371094 91.308594 140.46875 91.238281 C 140.476562 90.917969 140.488281 90.59375 140.496094 90.269531 C 139.734375 89.921875 139.046875 89.425781 138.425781 88.863281 C 137.660156 88.175781 136.984375 87.355469 136.476562 86.460938 C 134.839844 83.585938 135.203125 80.300781 135.195312 77.117188 C 135.179688 77.140625 135.160156 77.160156 135.144531 77.183594 C 134.488281 77.871094 133.925781 78.628906 133.441406 79.429688 C 133.25 79.742188 133.070312 80.066406 132.902344 80.390625 C 132.886719 80.429688 132.867188 80.460938 132.851562 80.5 C 132.609375 80.980469 132.390625 81.476562 132.191406 81.980469 C 132.125 82.152344 132.0625 82.324219 132 82.5 C 132 82.554688 132 82.605469 132 82.65625 C 132.042969 85.050781 131.710938 87.472656 130.878906 89.722656 C 130.367188 91.085938 129.804688 92.433594 129.144531 93.734375 C 128.910156 94.378906 127.789062 96.101562 127.617188 97.269531 C 128.589844 97.269531 129.566406 97.265625 130.539062 97.242188 " fill-opacity="1" fill-rule="nonzero"/><path fill="#e2ba9f" d="M 89.46875 130.8125 C 88.78125 128.824219 89.335938 126.585938 89.300781 124.511719 C 89.398438 123.945312 89.175781 120.71875 90.140625 121.128906 C 90.503906 121.222656 90.320312 121.742188 90.347656 122.019531 C 90.867188 122.222656 90.589844 123.351562 90.664062 123.828125 C 90.988281 124.648438 90.640625 125.851562 90.613281 126.734375 C 90.535156 127.660156 90.503906 128.585938 90.472656 129.511719 C 90.464844 129.851562 90.53125 130.210938 90.238281 130.457031 C 90.214844 130.867188 89.789062 131.128906 89.46875 130.8125 " fill-opacity="1" fill-rule="nonzero"/><path fill="#e2ba9f" d="M 196.664062 131.257812 C 196.253906 131.246094 196.101562 130.773438 196.25 130.453125 C 196.238281 130.484375 196.230469 130.515625 196.222656 130.546875 C 196.515625 129.742188 196.382812 128.90625 196.355469 128.074219 C 196.273438 127.136719 196.332031 126.195312 196.390625 125.257812 C 196.378906 124.921875 196.160156 124.3125 196.453125 124.074219 C 196.492188 123.644531 196.542969 123.210938 196.570312 122.777344 C 196.402344 122.523438 196.460938 122.125 196.402344 121.84375 C 196.390625 121.679688 196.347656 121.511719 196.355469 121.347656 C 196.402344 121.121094 196.699219 121.136719 196.835938 121.277344 C 197.089844 121.621094 197.0625 122.082031 197.132812 122.484375 C 197.433594 124.3125 197.574219 126.148438 197.585938 128 C 197.574219 128.777344 197.683594 129.59375 197.394531 130.335938 C 197.238281 130.699219 197.1875 131.277344 196.664062 131.257812 " fill-opacity="1" fill-rule="nonzero"/><g clip-path="url(#573c39bf3a)"><path fill="#d68867" d="M 94.671875 127.445312 C 94.390625 127.394531 94.109375 127.347656 93.832031 127.300781 C 93.96875 126.777344 93.898438 126.226562 93.867188 125.691406 C 93.808594 124.402344 93.75 123.113281 93.742188 121.820312 C 93.796875 121.820312 93.851562 121.816406 93.90625 121.816406 C 93.898438 121.757812 93.894531 121.699219 93.886719 121.644531 C 93.820312 121.644531 93.753906 121.644531 93.691406 121.644531 C 93.539062 121.46875 93.257812 121.597656 93.070312 121.570312 C 92.320312 121.605469 91.570312 121.65625 90.8125 121.605469 C 88.074219 121.394531 85.226562 121.597656 82.558594 120.878906 C 81.503906 120.703125 80.394531 121.082031 79.375 120.675781 C 78.253906 120.226562 77.464844 119.019531 76.214844 118.910156 C 74.835938 119.082031 75.863281 120.503906 76.492188 120.96875 C 77.164062 121.5625 77.988281 121.890625 78.753906 122.316406 C 78.15625 123.261719 77.722656 124.492188 76.632812 124.988281 C 75.097656 123.910156 75.398438 123.382812 75.71875 121.816406 C 75.980469 121.285156 76.296875 120.617188 75.824219 120.328125 C 74.109375 120.257812 73.648438 122.820312 73.941406 124.144531 C 73.101562 123.960938 72.320312 123.707031 71.480469 123.496094 C 70.984375 123.386719 70.3125 123.058594 69.894531 123.480469 C 69.886719 123.472656 69.882812 123.464844 69.875 123.460938 C 69.902344 123.460938 69.839844 123.4375 69.882812 123.496094 C 69.40625 124.226562 70.90625 124.574219 71.273438 125.011719 C 70.773438 125.175781 70.148438 125.265625 69.71875 125.621094 C 69.464844 125.851562 69.226562 126.390625 69.605469 126.617188 C 69.6875 126.652344 69.757812 126.726562 69.855469 126.71875 C 70.804688 126.640625 71.761719 126.554688 72.722656 126.511719 C 72.222656 126.738281 71.742188 127.074219 71.601562 127.625 C 71.515625 127.890625 71.585938 128.238281 71.882812 128.332031 C 72.1875 128.421875 72.488281 128.230469 72.761719 128.121094 C 73.492188 127.824219 74.253906 127.613281 75.015625 127.421875 C 76.304688 127.433594 77.703125 128.1875 78.914062 127.457031 C 79.332031 127.238281 79.792969 127.171875 80.246094 127.0625 C 81.746094 126.789062 83.21875 126.410156 84.683594 125.988281 C 87.285156 126.457031 89.921875 126.804688 92.496094 127.410156 C 92.839844 127.515625 93.203125 127.703125 93.570312 127.589844 C 93.957031 127.671875 94.34375 127.75 94.730469 127.832031 C 94.710938 127.703125 94.691406 127.574219 94.671875 127.445312 " fill-opacity="1" fill-rule="nonzero"/></g><g clip-path="url(#10f7dc7247)"><path fill="#d68867" d="M 216.867188 125.445312 C 216.441406 125.089844 215.8125 125 215.3125 124.835938 C 215.679688 124.398438 217.179688 124.050781 216.707031 123.320312 C 216.742188 123.261719 216.683594 123.285156 216.710938 123.285156 C 216.703125 123.292969 216.695312 123.296875 216.691406 123.304688 C 216.269531 122.882812 215.601562 123.210938 215.105469 123.320312 C 214.265625 123.53125 213.484375 123.785156 212.644531 123.96875 C 212.9375 122.648438 212.476562 120.082031 210.761719 120.152344 C 210.285156 120.441406 210.605469 121.113281 210.867188 121.640625 C 211.1875 123.207031 211.484375 123.734375 209.953125 124.8125 C 208.863281 124.316406 208.429688 123.085938 207.832031 122.140625 C 208.597656 121.714844 209.421875 121.386719 210.09375 120.792969 C 210.71875 120.328125 211.75 118.90625 210.371094 118.734375 C 209.121094 118.84375 208.332031 120.050781 207.210938 120.5 C 206.191406 120.910156 205.082031 120.527344 204.027344 120.703125 C 201.359375 121.421875 198.511719 121.21875 195.769531 121.429688 C 195.015625 121.480469 194.265625 121.429688 193.515625 121.398438 C 193.324219 121.425781 193.046875 121.292969 192.898438 121.46875 C 192.832031 121.46875 192.765625 121.46875 192.699219 121.46875 C 192.691406 121.527344 192.6875 121.582031 192.679688 121.640625 C 192.734375 121.640625 192.789062 121.644531 192.84375 121.644531 C 192.835938 122.9375 192.777344 124.226562 192.71875 125.519531 C 192.683594 126.050781 192.617188 126.601562 192.753906 127.125 C 192.472656 127.171875 192.195312 127.222656 191.914062 127.269531 C 191.894531 127.398438 191.875 127.527344 191.855469 127.65625 C 192.242188 127.574219 192.628906 127.496094 193.015625 127.414062 C 193.382812 127.527344 193.746094 127.339844 194.089844 127.234375 C 196.664062 126.628906 199.296875 126.28125 201.902344 125.8125 C 203.367188 126.238281 204.839844 126.617188 206.339844 126.886719 C 206.792969 126.996094 207.253906 127.0625 207.671875 127.28125 C 208.882812 128.015625 210.277344 127.257812 211.570312 127.246094 C 212.332031 127.4375 213.09375 127.648438 213.824219 127.945312 C 214.101562 128.054688 214.398438 128.246094 214.703125 128.15625 C 215 128.0625 215.070312 127.714844 214.984375 127.449219 C 214.84375 126.898438 214.363281 126.5625 213.867188 126.335938 C 214.824219 126.378906 215.78125 126.46875 216.730469 126.542969 C 217.34375 126.460938 217.234375 125.761719 216.867188 125.445312 " fill-opacity="1" fill-rule="nonzero"/></g><path fill="#e2ba9f" d="M 134.328125 136.527344 C 133.175781 136.449219 132.03125 136.207031 130.917969 135.933594 C 130.640625 135.796875 130.433594 135.554688 130.195312 135.363281 C 130 135.195312 129.75 135.058594 129.664062 134.796875 C 129.617188 134.429688 129.902344 134 130.222656 133.820312 C 131.574219 133.710938 132.828125 133.71875 134.148438 133.53125 C 135.355469 133.414062 136.554688 133.265625 137.757812 133.121094 C 143.019531 132.5625 148.304688 132.109375 153.585938 131.851562 C 154.195312 131.816406 154.804688 131.742188 155.390625 131.5625 C 155.734375 131.476562 156.0625 131.273438 156.417969 131.257812 C 157 131.265625 157.234375 131.90625 156.996094 132.382812 C 156.957031 133.035156 156.914062 133.683594 156.691406 134.304688 C 156.453125 135.359375 155.402344 135.835938 154.453125 136.101562 C 150.101562 136.664062 145.683594 136.449219 141.300781 136.394531 C 138.976562 136.207031 136.652344 136.585938 134.328125 136.527344 " fill-opacity="1" fill-rule="nonzero"/><path fill="#f5e3d6" d="M 197.039062 131.035156 C 196.863281 127.75 196.03125 124.363281 196.863281 121.0625 C 196.199219 121.03125 195.542969 120.855469 194.875 120.90625 C 193.84375 121.050781 192.824219 121.316406 191.773438 121.269531 C 190.597656 121.359375 189.972656 120.171875 188.957031 119.796875 C 186.878906 118.917969 184.507812 118.515625 182.320312 119.203125 C 181.300781 118.390625 180.632812 117.292969 179.847656 116.269531 C 179.167969 115.335938 178.355469 114.515625 177.484375 113.765625 C 176.269531 112.15625 175.003906 110.582031 173.71875 109.027344 C 170.414062 105.035156 166.824219 101.292969 163.011719 97.789062 C 162.5 97.320312 161.867188 96.996094 161.1875 96.851562 C 160.890625 96.789062 160.597656 96.726562 160.300781 96.667969 C 159.511719 96.707031 158.722656 96.6875 157.933594 96.671875 C 155.203125 96.570312 152.472656 96.714844 149.738281 96.652344 C 148.332031 96.597656 146.9375 96.738281 145.53125 96.78125 C 144.871094 96.765625 144.125 96.945312 143.523438 96.605469 C 142.851562 96.546875 142.0625 96.65625 141.445312 96.378906 C 139.65625 96.476562 137.859375 96.414062 136.074219 96.3125 C 134.496094 96.25 132.917969 96.300781 131.34375 96.285156 C 129.367188 96.441406 127.414062 96.832031 125.472656 97.234375 C 124.742188 97.386719 124.0625 97.726562 123.507812 98.226562 C 118.660156 102.609375 114.277344 107.484375 110.242188 112.621094 C 109.332031 113.964844 107.941406 114.863281 107.019531 116.203125 C 106.226562 117.226562 105.550781 118.324219 104.519531 119.136719 C 102.308594 118.449219 99.914062 118.851562 97.8125 119.734375 C 96.726562 120.167969 96.027344 121.398438 94.726562 121.210938 C 94.730469 121.210938 94.730469 121.210938 94.734375 121.210938 C 93.753906 121.210938 92.796875 120.972656 91.828125 120.839844 C 91.15625 120.792969 90.492188 120.964844 89.820312 120.996094 C 90.6875 124.527344 89.78125 127.734375 89.636719 131.128906 C 90.070312 131.269531 90.5625 131.292969 90.902344 131.625 C 92.566406 132.894531 93.214844 133.144531 95.242188 132.945312 C 97.078125 132.859375 97.015625 133.65625 98.6875 133.761719 C 100.550781 133.824219 101.453125 133.476562 102.898438 132.359375 C 104.140625 132.613281 105.617188 133.105469 106.835938 132.632812 C 107.945312 133.183594 109.367188 133.25 110.40625 132.496094 C 110.875 132.496094 111.121094 132.015625 111.496094 131.808594 C 113.324219 130.855469 114.527344 128.863281 116.691406 128.632812 C 121.054688 126.890625 123.746094 122.714844 126.535156 119.164062 C 126.535156 119.167969 126.535156 119.175781 126.535156 119.179688 C 126.535156 119.175781 126.535156 119.167969 126.535156 119.164062 C 126.652344 119.003906 126.769531 118.84375 126.882812 118.683594 C 126.988281 119.667969 127.042969 120.660156 127.132812 121.644531 C 127.117188 122.546875 127.125 123.210938 127.574219 124.023438 C 127.875 124.757812 127.546875 125.472656 127.296875 126.160156 C 125.949219 129.410156 125.851562 134.621094 130.476562 134.777344 C 131.832031 134.898438 133.160156 134.535156 134.492188 134.339844 C 135.988281 134.171875 137.546875 134.261719 139.046875 134.5 C 144.144531 134.953125 149.222656 133.65625 154.328125 133.835938 C 159.289062 134.714844 160.433594 130.324219 159.390625 126.363281 C 158.15625 124.019531 158.910156 121.226562 160.277344 119.117188 C 162.769531 121.921875 164.8125 125.253906 167.925781 127.4375 C 168.675781 127.914062 169.4375 128.398438 170.277344 128.695312 C 170.828125 128.878906 171.433594 128.894531 171.933594 129.214844 C 173.128906 130.050781 174.128906 131.167969 175.417969 131.875 C 175.789062 132.082031 176.035156 132.5625 176.496094 132.5625 C 177.527344 133.316406 178.929688 133.25 180.03125 132.699219 C 181.234375 133.171875 182.695312 132.675781 183.925781 132.421875 C 185.328125 133.550781 186.386719 133.902344 188.089844 133.828125 C 189.742188 133.71875 189.679688 132.925781 191.5 133.007812 C 193.5 133.210938 194.160156 132.949219 195.796875 131.691406 C 196.128906 131.359375 196.617188 131.332031 197.046875 131.195312 C 197.042969 131.140625 197.042969 131.085938 197.039062 131.035156 " fill-opacity="1" fill-rule="nonzero"/><path fill="#d68867" d="M 159.6875 97.234375 C 155.398438 96.921875 151.144531 96.257812 146.851562 96.105469 C 145.964844 96.074219 145.21875 95.4375 145.058594 94.566406 C 144.816406 93.230469 144.746094 91.863281 144.742188 90.507812 C 143.976562 90.625 143.246094 90.933594 142.457031 90.933594 C 142.457031 90.933594 142.453125 90.933594 142.449219 90.933594 C 142.398438 90.9375 142.347656 90.941406 142.296875 90.941406 C 142.332031 90.941406 142.363281 90.9375 142.398438 90.9375 C 141.480469 90.992188 140.558594 90.875 139.675781 90.609375 C 139.507812 91.808594 139.449219 93.074219 139.351562 94.320312 C 139.28125 95.1875 138.558594 95.855469 137.6875 95.863281 C 133.34375 95.917969 129.007812 96.503906 124.917969 98.050781 C 124.972656 98.085938 125.023438 98.121094 125.078125 98.15625 C 126.75 98.644531 128.441406 99.113281 130.179688 99.332031 C 140.253906 100.867188 150.78125 100.886719 160.445312 97.296875 C 160.191406 97.277344 159.941406 97.253906 159.6875 97.234375 " fill-opacity="1" fill-rule="nonzero"/><path fill="#cb795b" d="M 142.691406 92.609375 C 142.710938 92.609375 142.726562 92.609375 142.746094 92.609375 C 142.578125 92.601562 142.410156 92.59375 142.242188 92.578125 C 142.097656 92.566406 141.957031 92.550781 141.816406 92.535156 C 141.558594 92.511719 141.304688 92.476562 141.050781 92.4375 C 140.789062 92.394531 140.53125 92.339844 140.269531 92.289062 C 140.144531 92.265625 140.019531 92.242188 139.894531 92.210938 C 139.769531 92.179688 139.636719 92.15625 139.511719 92.117188 C 139.542969 91.738281 139.578125 91.367188 139.625 91.011719 C 139.644531 90.878906 139.660156 90.742188 139.675781 90.609375 C 139.761719 90.632812 139.851562 90.660156 139.941406 90.679688 C 140.054688 90.710938 140.171875 90.746094 140.289062 90.769531 C 140.425781 90.792969 140.5625 90.820312 140.699219 90.84375 C 140.976562 90.898438 141.257812 90.925781 141.539062 90.9375 C 141.644531 90.957031 141.75 90.976562 141.855469 90.992188 C 141.949219 91.007812 142.042969 91.023438 142.136719 91.03125 C 142.261719 91.042969 142.386719 91.058594 142.511719 91.070312 C 142.722656 91.078125 142.9375 91.089844 143.152344 91.089844 C 143.25 91.089844 143.351562 91.09375 143.453125 91.085938 C 143.570312 91.082031 143.683594 91.074219 143.800781 91.066406 C 144.015625 91.039062 144.230469 91.015625 144.445312 90.980469 C 144.546875 90.964844 144.648438 90.945312 144.75 90.929688 C 144.761719 91.457031 144.773438 91.984375 144.804688 92.511719 C 144.566406 92.542969 144.328125 92.566406 144.089844 92.578125 C 143.851562 92.59375 143.613281 92.605469 143.375 92.609375 C 143.261719 92.613281 143.144531 92.617188 143.03125 92.617188 C 142.917969 92.617188 142.804688 92.613281 142.691406 92.609375 " fill-opacity="1" fill-rule="nonzero"/><path fill="#d68867" d="M 151.019531 81.503906 C 150.941406 80.824219 150.882812 80.128906 150.679688 79.472656 C 150.605469 79.0625 150.292969 78.785156 149.945312 78.703125 C 149.917969 78.421875 149.878906 78.144531 149.835938 77.867188 C 149.613281 77.582031 149.394531 77.292969 149.183594 77 C 148.375 75.878906 147.667969 74.671875 147.101562 73.40625 C 146.839844 72.828125 146.589844 72.242188 146.269531 71.6875 C 146.191406 71.554688 146.109375 71.417969 146.019531 71.289062 C 145.980469 71.230469 145.9375 71.167969 145.894531 71.109375 C 145.890625 71.101562 145.882812 71.09375 145.878906 71.082031 C 145.75 70.980469 145.648438 70.804688 145.535156 70.6875 C 145.425781 70.566406 145.308594 70.453125 145.1875 70.34375 C 145.171875 70.328125 145.15625 70.3125 145.140625 70.296875 C 145.003906 70.40625 144.867188 70.511719 144.726562 70.613281 C 143.96875 71.160156 143.128906 71.59375 142.296875 72.019531 C 142.023438 72.15625 141.746094 72.292969 141.46875 72.429688 C 141.453125 72.441406 141.441406 72.453125 141.425781 72.464844 C 141.34375 72.53125 141.257812 72.597656 141.175781 72.660156 C 140.425781 73.238281 139.664062 73.796875 138.890625 74.335938 C 138.25 74.785156 137.613281 75.238281 136.980469 75.703125 C 136.535156 76.027344 136.078125 76.289062 135.578125 76.46875 C 135.183594 77.609375 134.894531 78.792969 134.742188 79.996094 C 134.390625 79.953125 134.003906 80.1875 133.789062 80.519531 C 133.453125 81.003906 133.363281 81.605469 133.429688 82.183594 C 133.441406 82.589844 133.492188 82.988281 133.601562 83.378906 C 133.734375 84.300781 133.972656 84.621094 134.886719 84.695312 C 135.015625 85.320312 135.1875 85.9375 135.410156 86.539062 C 136.339844 88.613281 138.988281 90.832031 141.171875 91.589844 C 142.574219 92.003906 143.257812 91.917969 144.585938 91.101562 C 146.347656 90.007812 148.058594 88.207031 148.863281 86.371094 C 149.15625 85.65625 149.390625 84.921875 149.570312 84.175781 C 150.050781 84.242188 150.519531 83.898438 150.730469 83.476562 C 150.894531 83.175781 150.976562 82.835938 151.007812 82.496094 C 151.019531 82.335938 151.015625 82.179688 151 82.023438 C 151.019531 81.84375 151.027344 81.667969 151.019531 81.503906 " fill-opacity="1" fill-rule="nonzero"/><path fill="#a4493d" d="M 139.308594 87.207031 C 139.195312 87.15625 138.777344 87.238281 138.847656 87.40625 C 138.867188 87.421875 138.898438 87.414062 138.914062 87.394531 C 138.996094 87.277344 139.171875 87.1875 139.308594 87.207031 " fill-opacity="1" fill-rule="nonzero"/><path fill="#a4493d" d="M 145.554688 86.847656 C 145.519531 86.792969 145.46875 86.738281 145.40625 86.699219 C 145.316406 86.644531 145.1875 86.613281 145.097656 86.695312 C 145.195312 86.625 145.308594 86.6875 145.371094 86.769531 C 145.316406 86.859375 145.257812 86.941406 145.199219 87.023438 C 145.203125 87.011719 145.207031 87.003906 145.207031 86.996094 C 145.011719 87.257812 144.816406 87.445312 144.617188 87.574219 C 144.574219 87.585938 144.535156 87.621094 144.488281 87.636719 C 144.46875 87.65625 144.390625 87.679688 144.304688 87.710938 C 144.242188 87.722656 144.175781 87.738281 144.113281 87.75 C 143.628906 87.855469 142.882812 87.46875 142.523438 87.863281 C 142.503906 87.875 142.488281 87.886719 142.46875 87.898438 C 141.6875 87.382812 140.84375 88.132812 140.039062 87.953125 C 139.988281 87.941406 139.9375 87.929688 139.886719 87.910156 C 139.585938 87.804688 139.367188 87.496094 139.152344 87.300781 C 139.394531 87.558594 139.578125 87.925781 139.953125 88.019531 C 140.917969 89.421875 143.046875 89.683594 144.289062 88.492188 C 144.800781 88.015625 145.007812 87.34375 145.375 86.777344 C 145.464844 86.847656 145.429688 87.058594 145.5625 87.0625 C 145.671875 87.03125 145.589844 86.90625 145.554688 86.847656 " fill-opacity="1" fill-rule="nonzero"/><path fill="#cb795b" d="M 134.839844 82.496094 C 134.757812 81.808594 134.679688 81.117188 134.664062 80.421875 C 134.65625 80.433594 134.644531 80.449219 134.636719 80.464844 C 134.632812 80.644531 134.628906 80.820312 134.621094 80.996094 C 134.609375 81.445312 134.613281 81.890625 134.625 82.339844 C 134.503906 82.300781 134.386719 82.441406 134.347656 82.566406 C 134.207031 82.351562 134.300781 82.140625 134.351562 81.910156 C 134.367188 81.816406 134.335938 81.707031 134.34375 81.601562 C 134.382812 81.472656 134.457031 81.34375 134.457031 81.199219 C 134.46875 81.109375 134.339844 81.082031 134.308594 81.164062 C 134.296875 81.199219 134.289062 81.234375 134.277344 81.269531 C 134.25 81.367188 134.191406 81.453125 134.175781 81.554688 C 134.160156 81.625 134.175781 81.6875 134.179688 81.757812 C 134.207031 81.992188 134.023438 82.214844 134.113281 82.453125 C 134.148438 82.570312 134.207031 82.71875 134.339844 82.753906 C 134.398438 82.769531 134.457031 82.726562 134.46875 82.671875 C 134.492188 82.609375 134.558594 82.386719 134.632812 82.5 C 134.640625 82.746094 134.65625 82.996094 134.675781 83.246094 C 134.691406 83.546875 134.710938 83.84375 134.734375 84.144531 C 134.738281 84.125 134.738281 84.109375 134.742188 84.089844 C 134.765625 83.921875 134.808594 83.761719 134.863281 83.597656 C 134.835938 83.234375 134.835938 82.867188 134.839844 82.496094 " fill-opacity="1" fill-rule="nonzero"/><path fill="#cb795b" d="M 150.351562 82.445312 C 150.316406 82.226562 150.375 82.011719 150.410156 81.800781 C 150.417969 81.710938 150.285156 81.691406 150.269531 81.777344 C 150.234375 81.972656 150.210938 82.164062 150.1875 82.359375 C 150.183594 82.441406 150.199219 82.527344 150.25 82.585938 C 150.273438 82.75 150.167969 82.902344 150.082031 83.03125 C 150.027344 82.96875 149.929688 82.964844 149.855469 82.988281 C 149.851562 82.988281 149.851562 82.992188 149.847656 82.992188 C 149.878906 82.847656 149.910156 82.703125 149.941406 82.558594 C 150.066406 82.007812 150.160156 81.449219 150.246094 80.890625 C 150.238281 80.855469 150.230469 80.820312 150.226562 80.785156 C 150.210938 80.859375 150.195312 80.933594 150.175781 81.007812 C 150.046875 81.507812 149.929688 82.015625 149.792969 82.515625 C 149.761719 82.636719 149.734375 82.761719 149.703125 82.882812 C 149.722656 82.9375 149.738281 83.003906 149.738281 83.074219 C 149.738281 83.210938 149.738281 83.351562 149.738281 83.492188 C 149.75 83.433594 149.765625 83.375 149.777344 83.316406 C 149.808594 83.273438 149.832031 83.230469 149.867188 83.183594 C 149.886719 83.152344 149.917969 83.128906 149.957031 83.140625 C 150.160156 83.421875 150.425781 82.847656 150.421875 82.671875 C 150.4375 82.585938 150.394531 82.511719 150.351562 82.445312 " fill-opacity="1" fill-rule="nonzero"/><path fill="#cb795b" d="M 141.640625 80.542969 C 141.667969 80.539062 141.679688 80.570312 141.6875 80.589844 C 141.855469 81.148438 141.761719 81.746094 141.765625 82.320312 C 141.753906 82.621094 141.746094 82.925781 141.710938 83.230469 C 141.699219 83.28125 141.695312 83.347656 141.765625 83.363281 C 141.851562 83.375 141.863281 83.28125 141.867188 83.21875 C 141.902344 82.917969 141.921875 82.617188 141.929688 82.316406 C 141.941406 81.773438 141.898438 81.222656 141.746094 80.703125 C 141.738281 80.648438 141.664062 80.496094 141.636719 80.542969 C 141.636719 80.542969 141.640625 80.542969 141.640625 80.542969 " fill-opacity="1" fill-rule="nonzero"/><path fill="#cb795b" d="M 144.035156 84.789062 C 144.035156 84.785156 144.03125 84.789062 144.035156 84.789062 C 144.035156 84.792969 144.035156 84.800781 144.035156 84.800781 C 144.085938 84.976562 144.085938 85.164062 144.0625 85.34375 C 144.023438 85.535156 144.007812 85.761719 143.898438 85.9375 C 143.851562 85.996094 143.738281 86.074219 143.816406 86.152344 C 143.90625 86.222656 143.96875 86.097656 144.019531 86.039062 C 144.222656 85.699219 144.199219 85.25 144.078125 84.886719 C 144.066406 84.855469 144.054688 84.820312 144.035156 84.789062 " fill-opacity="1" fill-rule="nonzero"/><path fill="#cb795b" d="M 141.488281 86.066406 C 141.355469 85.964844 141.246094 85.804688 141.21875 85.636719 C 141.179688 85.394531 141.203125 85.140625 141.203125 84.902344 C 141.054688 85.347656 140.984375 85.875 141.398438 86.199219 C 141.484375 86.257812 141.574219 86.125 141.488281 86.066406 " fill-opacity="1" fill-rule="nonzero"/><path fill="#cb795b" d="M 143.519531 86.148438 C 143.402344 86.140625 143.300781 86.214844 143.222656 86.292969 C 142.945312 86.554688 142.753906 86.621094 142.375 86.523438 C 142.292969 86.496094 142.207031 86.464844 142.132812 86.414062 C 142.074219 86.359375 142.007812 86.289062 141.941406 86.238281 C 141.894531 86.1875 141.796875 86.203125 141.785156 86.277344 C 141.769531 86.371094 141.882812 86.382812 141.941406 86.425781 C 142.082031 86.542969 142.257812 86.617188 142.4375 86.644531 C 142.910156 86.742188 143.09375 86.511719 143.441406 86.265625 C 143.492188 86.242188 143.515625 86.191406 143.554688 86.164062 C 143.546875 86.152344 143.535156 86.148438 143.519531 86.148438 " fill-opacity="1" fill-rule="nonzero"/><path fill="#3d1716" d="M 149.121094 77.390625 C 148.527344 76.085938 146.992188 76.53125 145.917969 76.878906 C 145.515625 77.003906 145.078125 77.105469 144.734375 77.371094 C 144.386719 77.601562 144.480469 78.152344 144.894531 78.25 C 145.414062 78.414062 145.902344 78.027344 146.316406 77.761719 C 146.316406 77.761719 146.3125 77.761719 146.308594 77.765625 C 146.320312 77.757812 146.328125 77.753906 146.335938 77.75 C 146.332031 77.75 146.332031 77.75 146.328125 77.753906 C 146.683594 77.542969 147.050781 77.347656 147.449219 77.234375 C 147.449219 77.234375 147.445312 77.234375 147.445312 77.238281 C 147.480469 77.226562 147.515625 77.214844 147.550781 77.207031 C 147.554688 77.203125 147.558594 77.203125 147.558594 77.203125 C 147.566406 77.203125 147.570312 77.199219 147.578125 77.199219 C 148.09375 77.027344 148.699219 77.070312 149.132812 77.414062 C 149.128906 77.40625 149.125 77.398438 149.121094 77.390625 " fill-opacity="1" fill-rule="nonzero"/><path fill="#3d1716" d="M 141.042969 77.195312 C 139.746094 76.550781 137.066406 76.242188 136.375 77.867188 C 136.789062 77.457031 137.414062 77.214844 137.996094 77.316406 C 138.96875 77.613281 139.882812 78.175781 140.90625 78.285156 C 141.507812 78.3125 141.414062 77.457031 141.042969 77.195312 " fill-opacity="1" fill-rule="nonzero"/><path fill="#3d1716" d="M 138.988281 81.625 C 138.027344 81.667969 137.398438 80.90625 137.0625 81.128906 C 136.257812 81.859375 138.46875 82.25 138.925781 82.132812 C 139.492188 82.070312 140.3125 81.808594 140.605469 81.316406 C 140.101562 81.507812 139.53125 81.636719 138.988281 81.625 " fill-opacity="1" fill-rule="nonzero"/><path fill="#3d1716" d="M 148.242188 81.089844 C 147.929688 80.925781 147.679688 81.273438 147.40625 81.382812 C 146.5625 81.789062 145.5625 81.714844 144.699219 81.414062 C 145.011719 81.898438 145.84375 82.128906 146.414062 82.171875 C 146.875 82.269531 149.078125 81.789062 148.242188 81.089844 " fill-opacity="1" fill-rule="nonzero"/><path fill="#4e1b1a" d="M 131.933594 98.246094 C 130.285156 99.359375 128.53125 97.421875 128.5625 95.796875 C 128.324219 93.847656 129.59375 92.152344 129.933594 90.292969 C 129.941406 90.1875 129.894531 90.089844 129.816406 90.027344 C 129.910156 89.253906 130.34375 88.253906 129.738281 87.605469 C 129.859375 86.761719 131.105469 82.300781 129.84375 82.273438 C 129.203125 82.253906 129.183594 83.019531 129.09375 83.476562 C 128.90625 84.683594 128.675781 85.886719 128.4375 87.085938 C 128.515625 86.128906 128.5625 85.175781 128.625 84.21875 C 128.660156 83.605469 128.859375 82.597656 127.980469 82.511719 C 127.621094 82.492188 127.296875 82.738281 127.226562 83.085938 C 126.933594 85.28125 127.054688 87.550781 126.535156 89.710938 C 125.695312 92.570312 124.613281 95.558594 125.203125 98.578125 C 125.40625 99.550781 125.644531 100.746094 126.539062 101.335938 C 125.207031 100.261719 125.441406 98.277344 125.730469 96.785156 C 125.710938 98.894531 127.097656 101.269531 129.332031 101.6875 C 129.695312 101.726562 130.03125 101.574219 130.34375 101.414062 C 128.949219 102.167969 127.675781 100.710938 127.191406 99.542969 C 126.925781 98.167969 127.25 96.800781 127.722656 95.5 C 128.1875 97.582031 130.9375 100.230469 132.558594 97.558594 C 132.382812 97.808594 132.191406 98.066406 131.933594 98.246094 " fill-opacity="1" fill-rule="nonzero"/><path fill="#4e1b1a" d="M 151.585938 81.03125 C 151.417969 80.574219 151.238281 80.121094 151.050781 79.671875 C 151.046875 79.664062 151.042969 79.65625 151.039062 79.652344 C 151.039062 79.648438 151.039062 79.648438 151.039062 79.644531 C 151.011719 79.585938 150.984375 79.527344 150.960938 79.464844 C 150.90625 79.347656 150.851562 79.226562 150.796875 79.105469 C 150.679688 78.847656 150.5625 78.59375 150.441406 78.339844 C 150.1875 77.808594 149.914062 77.28125 149.652344 76.753906 C 149.09375 75.613281 148.679688 74.410156 148.25 73.21875 C 148.148438 72.941406 148.042969 72.660156 147.9375 72.378906 C 147.878906 72.234375 147.820312 72.089844 147.761719 71.941406 C 147.742188 71.890625 147.71875 71.835938 147.699219 71.785156 C 147.679688 71.742188 147.578125 71.472656 147.675781 71.730469 C 147.460938 71.167969 147.148438 70.621094 146.835938 70.105469 C 146.796875 70.035156 146.765625 69.96875 146.742188 69.898438 C 146.613281 69.75 146.484375 69.609375 146.351562 69.464844 C 146.34375 69.453125 146.335938 69.441406 146.324219 69.433594 C 146.269531 69.433594 146.21875 69.433594 146.164062 69.4375 C 146.074219 69.441406 145.984375 69.449219 145.894531 69.457031 C 145.871094 69.457031 145.847656 69.457031 145.828125 69.453125 C 145.742188 69.46875 145.648438 69.496094 145.570312 69.511719 C 145.3125 69.566406 145.058594 69.636719 144.808594 69.722656 C 144.6875 69.765625 144.550781 69.804688 144.433594 69.863281 C 144.710938 69.722656 144.328125 69.914062 144.261719 69.949219 C 144.027344 70.0625 143.800781 70.1875 143.582031 70.320312 C 143.160156 70.566406 142.742188 70.8125 142.324219 71.058594 C 141.433594 71.585938 140.546875 72.121094 139.679688 72.6875 C 139.238281 72.976562 138.804688 73.273438 138.378906 73.582031 C 138.25 73.671875 138.125 73.765625 138 73.859375 C 137.964844 73.882812 137.933594 73.910156 137.898438 73.933594 C 137.878906 73.949219 137.863281 73.964844 137.851562 73.972656 C 137.660156 74.121094 137.46875 74.273438 137.28125 74.429688 C 136.898438 74.746094 136.527344 75.082031 136.175781 75.429688 C 135.996094 75.609375 135.824219 75.792969 135.65625 75.980469 C 135.578125 76.066406 135.5 76.15625 135.425781 76.246094 C 135.375 76.308594 135.132812 76.617188 135.335938 76.351562 C 135.152344 76.589844 134.96875 76.757812 134.675781 76.851562 C 134.617188 76.871094 134.558594 76.882812 134.5 76.890625 C 134.351562 77.167969 134.207031 77.449219 134.0625 77.726562 C 133.753906 78.320312 133.457031 78.917969 133.171875 79.523438 C 133.09375 79.691406 133.015625 79.863281 132.9375 80.03125 C 132.914062 80.085938 132.886719 80.136719 132.867188 80.191406 C 132.960938 79.933594 132.859375 80.207031 132.84375 80.25 C 132.722656 80.546875 132.609375 80.847656 132.507812 81.148438 C 132.320312 81.734375 132.1875 82.324219 132.089844 82.929688 C 132.070312 83.050781 132.050781 83.171875 132.027344 83.289062 C 132.46875 86.25 133.539062 89.125 133.433594 92.15625 C 133.523438 89.726562 133.097656 87.3125 132.632812 84.929688 C 132.546875 83.957031 132.222656 82.921875 132.566406 81.96875 C 133.078125 80.640625 133.96875 79.417969 135.171875 78.617188 C 136.207031 78.019531 137.363281 77.667969 138.460938 77.214844 C 141.332031 76.070312 143.8125 74.191406 145.820312 71.886719 C 146.226562 73.355469 146.582031 74.886719 147.378906 76.238281 C 147.996094 77.460938 149.0625 78.371094 149.699219 79.566406 C 150.792969 81.625 150.875 84.183594 150.195312 86.382812 C 149.542969 88.675781 148.414062 90.976562 146.476562 92.480469 C 146.132812 92.710938 145.695312 93.09375 145.261719 92.898438 C 145.59375 93.078125 146.015625 92.839844 146.304688 92.652344 C 148.105469 91.515625 149.296875 89.675781 150.210938 87.820312 C 150.226562 88.09375 150.132812 88.601562 150.484375 88.667969 C 150.613281 88.257812 150.78125 87.859375 150.957031 87.464844 C 151.105469 86.25 151.304688 85.035156 151.460938 83.816406 C 151.53125 82.890625 151.578125 81.964844 151.585938 81.03125 " fill-opacity="1" fill-rule="nonzero"/><path fill="#4e1b1a" d="M 131.914062 83.796875 C 131.855469 84.007812 131.789062 84.21875 131.703125 84.421875 C 131.988281 85.453125 132.273438 86.484375 132.417969 87.542969 C 132.710938 89.28125 132.625 91.082031 133.054688 92.796875 C 132.554688 90.324219 132.832031 87.734375 132.191406 85.273438 C 132.113281 84.785156 131.925781 84.289062 131.914062 83.796875 " fill-opacity="1" fill-rule="nonzero"/><path fill="#ffb6b6" d="M 186.1875 40.121094 C 186.859375 43.085938 185.855469 46.40625 183.488281 48.347656 C 184.054688 49.074219 184.445312 49.941406 184.65625 50.832031 C 184.71875 51.121094 184.765625 51.414062 184.808594 51.707031 C 183.347656 51.351562 182.34375 50.429688 181.761719 49.042969 C 181.855469 50.652344 181.71875 52.296875 180.507812 53.421875 C 179.609375 52.265625 179.695312 50.109375 180.035156 48.769531 C 179.019531 48.441406 178.128906 47.875 177.382812 47.148438 C 177.339844 47.210938 177.253906 47.125 177.316406 47.078125 C 175.605469 45.382812 174.722656 42.890625 174.691406 40.457031 C 177.707031 40.550781 180.339844 42.589844 181.582031 45.28125 C 181.125 42.167969 183.207031 39.425781 185.523438 37.609375 C 185.859375 38.410156 186.042969 39.277344 186.1875 40.121094 " fill-opacity="1" fill-rule="nonzero"/><path fill="#ffb6b6" d="M 93.207031 102.347656 C 93.222656 102.171875 93.246094 101.996094 93.28125 101.824219 C 94.898438 102.640625 96.480469 104.046875 96.578125 105.976562 C 97.003906 104.207031 98.347656 102.660156 100.15625 102.242188 C 100.425781 103.714844 100.195312 105.324219 99.367188 106.550781 C 99.410156 106.570312 99.367188 106.632812 99.335938 106.597656 C 98.972656 107.125 98.503906 107.574219 97.929688 107.894531 C 98.296875 108.660156 98.605469 109.949219 98.203125 110.753906 C 97.335938 110.222656 97.058594 109.25 96.921875 108.265625 C 96.753906 109.144531 96.21875 109.875 95.40625 110.238281 C 95.394531 110.054688 95.386719 109.871094 95.390625 109.691406 C 95.410156 109.128906 95.542969 108.558594 95.796875 108.054688 C 93.742188 106.984375 92.933594 104.554688 93.207031 102.347656 " fill-opacity="1" fill-rule="nonzero"/><path fill="#ffdcdc" d="M 206.585938 89.035156 C 206.527344 89.730469 206.59375 90.445312 206.375 91.117188 C 205.664062 92.957031 203.90625 94.542969 201.875 94.613281 C 203.015625 95.527344 203.742188 96.996094 203.550781 98.46875 C 202.398438 98.238281 201.578125 97.375 200.941406 96.445312 C 200.710938 96.132812 200.597656 95.769531 200.519531 95.398438 C 199.601562 96.371094 197.800781 97.777344 196.410156 97.675781 C 196.953125 96.582031 197.515625 95.308594 198.652344 94.722656 C 196.355469 93.722656 196.007812 91.53125 196.238281 89.261719 C 196.511719 89.269531 196.773438 89.246094 197.035156 89.148438 C 199.160156 88.421875 201.273438 90.109375 201.496094 92.242188 C 202.425781 90.109375 204.417969 89.042969 206.585938 89.035156 " fill-opacity="1" fill-rule="nonzero"/><path fill="#ffdcdc" d="M 84.171875 75.5 C 84.210938 75.566406 84.25 75.636719 84.289062 75.703125 C 84.289062 75.703125 84.289062 75.707031 84.289062 75.707031 C 84.371094 75.851562 84.449219 76.003906 84.523438 76.152344 L 84.519531 76.152344 C 85.894531 79.066406 85.679688 82.734375 83.925781 85.464844 C 84.960938 85.257812 86.113281 85.628906 87.082031 86.179688 C 86.507812 88.050781 84.558594 89.199219 82.675781 88.851562 C 81.398438 90.609375 79.089844 91.78125 77.195312 90.660156 C 77.40625 89.375 78.179688 88.296875 79.273438 87.609375 C 76.109375 86.351562 74.171875 83.347656 73.117188 80.242188 C 76.015625 79.589844 78.703125 81.382812 80.808594 83.179688 C 80.511719 80.171875 81.8125 77.300781 84.171875 75.5 " fill-opacity="1" fill-rule="nonzero"/><path fill="#ffb6b6" d="M 177.089844 70.582031 C 178.851562 72.941406 174.753906 75.546875 173.226562 76.917969 C 173.210938 76.867188 173.191406 76.816406 173.175781 76.765625 C 172.800781 75.667969 172.425781 74.570312 172.125 73.445312 C 171.984375 72.933594 171.800781 72.402344 171.878906 71.867188 C 172.160156 70.414062 173.777344 69.65625 174.585938 71.25 C 175.234375 70.453125 176.191406 69.882812 177.089844 70.582031 " fill-opacity="1" fill-rule="nonzero"/><path fill="#ffdcdc" d="M 194.925781 61.851562 C 196.914062 64.023438 193.09375 67.023438 191.710938 68.539062 C 191.6875 68.492188 191.667969 68.445312 191.644531 68.394531 C 191.164062 67.335938 190.679688 66.28125 190.269531 65.195312 C 190.078125 64.699219 189.84375 64.1875 189.867188 63.648438 C 190 62.175781 191.535156 61.257812 192.5 62.765625 C 193.066406 61.90625 193.960938 61.242188 194.925781 61.851562 " fill-opacity="1" fill-rule="nonzero"/><g clip-path="url(#6eba4def8f)"><path fill="#ffdcdc" d="M 143.671875 28.5625 C 144.738281 29.753906 142.6875 31.34375 141.933594 32.175781 C 141.921875 32.148438 141.910156 32.125 141.898438 32.097656 C 141.5625 31.257812 141.039062 30.4375 140.9375 29.53125 C 141 28.742188 141.851562 28.242188 142.359375 29.054688 C 142.664062 28.589844 143.148438 28.230469 143.671875 28.5625 " fill-opacity="1" fill-rule="nonzero"/></g><path fill="#ffdcdc" d="M 185.171875 82.148438 C 186.160156 83.253906 184.257812 84.726562 183.558594 85.5 C 183.546875 85.476562 183.535156 85.453125 183.527344 85.429688 L 183.527344 85.425781 C 183.214844 84.648438 182.730469 83.890625 182.636719 83.046875 C 182.691406 82.316406 183.484375 81.851562 183.953125 82.605469 C 184.238281 82.175781 184.6875 81.84375 185.171875 82.148438 " fill-opacity="1" fill-rule="nonzero"/><path fill="#ffdcdc" d="M 193.433594 75.996094 C 194.1875 76.863281 192.738281 77.960938 192.199219 78.566406 C 192.191406 78.546875 192.179688 78.527344 192.171875 78.507812 C 191.933594 77.914062 191.5625 77.328125 191.488281 76.683594 C 191.523438 76.128906 192.152344 75.769531 192.5 76.347656 C 192.71875 76.015625 193.0625 75.761719 193.433594 75.996094 " fill-opacity="1" fill-rule="nonzero"/><path fill="#ffdcdc" d="M 161.171875 37.09375 C 160.382812 38.785156 159.316406 40.355469 158.160156 41.832031 C 157.699219 40.011719 154.917969 36.191406 156.921875 34.875 C 157.503906 34.464844 157.980469 35.222656 158.195312 35.679688 C 160.101562 33.207031 162.648438 33.761719 161.171875 37.09375 Z M 161.5625 33.867188 C 160.472656 33.164062 159.132812 33.886719 158.3125 34.691406 C 157.820312 34.144531 157.144531 33.917969 156.394531 34.554688 C 154.265625 36.519531 157.101562 39.972656 158.078125 41.933594 C 158.089844 41.949219 158.097656 41.964844 158.105469 41.976562 C 159.507812 40.261719 163.671875 36.039062 161.5625 33.867188 " fill-opacity="1" fill-rule="nonzero"/><path fill="#ffdcdc" d="M 116.605469 45.421875 C 115.007812 44.171875 113.472656 42.484375 113.117188 40.421875 C 113.03125 38.546875 114.828125 38.355469 115.882812 39.679688 C 116.351562 38.851562 117.664062 37.605469 118.53125 38.59375 C 119.242188 40.429688 117.445312 43.722656 116.605469 45.421875 Z M 118.855469 38.019531 C 117.917969 37.113281 116.449219 37.847656 115.792969 38.75 C 115.027344 38.171875 113.886719 37.902344 113.125 38.625 C 111.082031 41.105469 114.492188 44.167969 116.570312 45.484375 C 116.589844 45.496094 116.609375 45.507812 116.625 45.515625 C 116.640625 45.5 116.652344 45.480469 116.664062 45.460938 C 117.722656 43.542969 120.269531 40.171875 118.855469 38.019531 " fill-opacity="1" fill-rule="nonzero"/><path fill="#ffdcdc" d="M 148.601562 51.097656 C 147.933594 52.535156 147.027344 53.867188 146.046875 55.117188 C 145.65625 53.574219 143.292969 50.34375 144.996094 49.214844 C 145.488281 48.867188 145.894531 49.507812 146.078125 49.898438 C 147.695312 47.800781 149.855469 48.269531 148.601562 51.097656 Z M 148.933594 48.359375 C 148.007812 47.761719 146.871094 48.378906 146.175781 49.058594 C 145.757812 48.59375 145.183594 48.402344 144.546875 48.941406 C 142.742188 50.609375 145.148438 53.542969 145.976562 55.207031 C 145.984375 55.21875 145.992188 55.230469 146 55.242188 C 147.191406 53.785156 150.722656 50.203125 148.933594 48.359375 " fill-opacity="1" fill-rule="nonzero"/><path fill="#ffb6b6" d="M 102.773438 72.050781 C 100.414062 73.808594 103.597656 77.476562 104.671875 79.222656 C 104.699219 79.179688 104.730469 79.136719 104.761719 79.09375 C 105.433594 78.144531 106.109375 77.199219 106.714844 76.207031 C 106.996094 75.757812 107.324219 75.300781 107.402344 74.765625 C 107.546875 73.292969 106.214844 72.105469 104.984375 73.402344 C 104.589844 72.453125 103.835938 71.632812 102.773438 72.050781 " fill-opacity="1" fill-rule="nonzero"/><path fill="#ffdcdc" d="M 92.851562 52.507812 C 90.328125 54.023438 93.132812 57.988281 94.027344 59.832031 C 94.0625 59.792969 94.097656 59.753906 94.132812 59.714844 L 94.128906 59.714844 C 94.894531 58.839844 95.660156 57.964844 96.363281 57.035156 C 96.6875 56.617188 97.058594 56.195312 97.1875 55.671875 C 97.480469 54.222656 96.269531 52.90625 94.917969 54.074219 C 94.617188 53.089844 93.953125 52.199219 92.851562 52.507812 " fill-opacity="1" fill-rule="nonzero"/><path fill="#ffdcdc" d="M 128.167969 35.960938 C 126.902344 36.742188 128.308594 38.691406 128.757812 39.632812 C 128.773438 39.613281 128.792969 39.59375 128.808594 39.574219 C 129.328125 38.917969 130.011719 38.324219 130.339844 37.546875 C 130.496094 36.828125 129.871094 36.160156 129.203125 36.746094 C 129.054688 36.253906 128.71875 35.808594 128.167969 35.960938 " fill-opacity="1" fill-rule="nonzero"/><path fill="#ffdcdc" d="M 116.929688 57.183594 C 116.015625 57.882812 117.214844 59.246094 117.625 59.949219 C 117.636719 59.933594 117.648438 59.917969 117.660156 59.902344 C 118.011719 59.363281 118.496094 58.867188 118.695312 58.25 C 118.773438 57.699219 118.230469 57.222656 117.773438 57.714844 C 117.625 57.347656 117.339844 57.03125 116.929688 57.183594 " fill-opacity="1" fill-rule="nonzero"/><g clip-path="url(#9474e6869e)"><g clip-path="url(#7388b188ff)"><g clip-path="url(#edc0427f4f)"><g clip-path="url(#4d1d0c6076)"><path fill="#ffffff" d="M 179.746094 70.597656 C 179.882812 70.9375 179.71875 71.320312 179.382812 71.457031 C 179.046875 71.59375 178.664062 71.429688 178.523438 71.09375 C 177.953125 69.75 178.050781 68.101562 178.6875 66.28125 C 179.628906 63.597656 181.769531 60.488281 184.4375 57.445312 C 186.851562 54.6875 189.703125 51.972656 192.433594 49.667969 C 196.253906 46.445312 199.867188 44.023438 201.769531 43.25 C 211.414062 39.332031 221.089844 38.644531 230.007812 37.777344 C 236.625 37.132812 242.808594 36.386719 248.21875 33.996094 C 250.9375 32.796875 253.449219 31.164062 255.742188 28.929688 C 257.113281 27.589844 258.410156 26.035156 259.625 24.214844 C 260.933594 22.253906 262.148438 19.992188 263.257812 17.371094 C 264.1875 15.164062 265.058594 12.707031 265.835938 9.960938 C 265.90625 9.6875 266.183594 9.519531 266.457031 9.589844 C 266.726562 9.65625 266.894531 9.933594 266.828125 10.203125 C 266.222656 13.054688 265.515625 15.621094 264.695312 17.929688 C 263.707031 20.738281 262.558594 23.164062 261.277344 25.269531 C 260.058594 27.277344 258.710938 28.992188 257.261719 30.460938 C 254.816406 32.9375 252.078125 34.710938 249.121094 36.03125 C 243.515625 38.539062 237.097656 39.363281 230.226562 40.03125 C 221.503906 40.875 212.03125 41.472656 202.589844 45.273438 C 200.792969 45.992188 197.417969 48.304688 193.777344 51.28125 C 191.078125 53.488281 188.242188 56.058594 185.808594 58.683594 C 183.214844 61.476562 181.0625 64.304688 180.085938 66.800781 C 179.527344 68.222656 179.335938 69.515625 179.746094 70.597656 Z M 179.746094 70.597656 " fill-opacity="1" fill-rule="evenodd"/></g></g></g></g><g clip-path="url(#86c07e1fa5)"><g clip-path="url(#c88a8b1d73)"><g clip-path="url(#805620b3ba)"><g clip-path="url(#5e0d28ea4f)"><path fill="#ffffff" d="M 191.09375 77.488281 C 191.097656 77.851562 190.800781 78.152344 190.4375 78.152344 C 190.074219 78.148438 189.777344 77.855469 189.777344 77.492188 C 189.695312 71.234375 192.554688 64.859375 196.800781 59.632812 C 201.183594 54.230469 207.050781 50.074219 212.566406 48.410156 C 221.246094 45.847656 230.3125 45.394531 239.335938 45.078125 C 248.316406 44.757812 257.25 44.570312 265.691406 42.433594 C 272.621094 40.675781 279.21875 37.601562 285.21875 32.003906 C 285.984375 31.292969 286.8125 30.4375 287.59375 29.535156 C 288.359375 28.652344 289.082031 27.726562 289.644531 26.847656 C 290.214844 25.949219 290.605469 25.214844 290.921875 24.449219 C 291.25 23.65625 291.5 22.839844 291.804688 21.792969 C 292.265625 20.191406 292.40625 18.902344 292.261719 17.886719 C 292.140625 17.046875 291.832031 16.417969 291.328125 15.996094 C 290.507812 15.300781 289.285156 15.117188 287.894531 15.214844 C 286.046875 15.339844 283.921875 15.980469 281.90625 16.925781 C 279.105469 18.234375 276.492188 20.109375 275.089844 22.042969 C 274.332031 23.085938 273.914062 24.125 274.128906 25.09375 C 274.394531 26.277344 275.546875 27.273438 277.8125 28.027344 C 278.082031 28.113281 278.234375 28.398438 278.148438 28.664062 C 278.066406 28.933594 277.78125 29.085938 277.515625 29 C 274.652344 28.195312 273.285156 26.859375 272.886719 25.402344 C 272.421875 23.703125 273.277344 21.703125 274.972656 19.824219 C 277.261719 17.285156 281.074219 14.945312 284.652344 13.828125 C 286.324219 13.304688 287.957031 13.058594 289.363281 13.15625 C 290.683594 13.25 291.820312 13.652344 292.6875 14.363281 C 294.292969 15.679688 295.085938 18.199219 293.910156 22.394531 C 293.585938 23.53125 293.316406 24.425781 292.96875 25.285156 C 292.609375 26.164062 292.167969 27.011719 291.515625 28.042969 C 290.902344 29.007812 290.117188 30.027344 289.285156 30.996094 C 288.453125 31.964844 287.566406 32.882812 286.753906 33.644531 C 280.449219 39.53125 273.527344 42.785156 266.242188 44.628906 C 257.652344 46.800781 248.558594 47 239.410156 47.296875 C 230.566406 47.585938 221.675781 47.964844 213.160156 50.441406 C 207.949219 51.921875 202.421875 55.796875 198.191406 60.789062 C 194.074219 65.648438 191.171875 71.574219 191.09375 77.488281 Z M 191.09375 77.488281 " fill-opacity="1" fill-rule="evenodd"/></g></g></g></g></svg>