<svg xmlns="http://www.w3.org/2000/svg" xmlns:xlink="http://www.w3.org/1999/xlink" width="141" zoomAndPan="magnify" viewBox="0 0 105.75 116.999995" height="156" preserveAspectRatio="xMidYMid meet" version="1.0"><defs><clipPath id="a056be8e11"><path d="M 0 0.136719 L 105.5 0.136719 L 105.5 116.859375 L 0 116.859375 Z M 0 0.136719 " clip-rule="nonzero"/></clipPath><clipPath id="a69ec66904"><path d="M 10 5 L 105 5 L 105 116.859375 L 10 116.859375 Z M 10 5 " clip-rule="nonzero"/></clipPath><clipPath id="8d56a21b2f"><path d="M 0 0.136719 L 95 0.136719 L 95 111 L 0 111 Z M 0 0.136719 " clip-rule="nonzero"/></clipPath></defs><g clip-path="url(#a056be8e11)"><path fill="#94cbcc" d="M 105.421875 51.1875 C 105.269531 50.558594 104.589844 50.15625 103.953125 50.285156 C 103.523438 50.371094 103.132812 50.542969 102.761719 50.777344 C 102.367188 51.03125 102.042969 51.359375 101.714844 51.6875 C 101.648438 51.753906 101.59375 51.859375 101.460938 51.835938 C 101.464844 51.769531 101.457031 51.722656 101.46875 51.679688 C 101.832031 50.21875 102.015625 48.738281 102.003906 47.230469 C 102.003906 46.828125 101.996094 46.425781 101.988281 46.023438 C 101.984375 45.863281 101.996094 45.726562 102.164062 45.632812 C 102.652344 45.367188 102.863281 44.894531 102.984375 44.394531 C 103.175781 43.617188 103.191406 42.828125 102.910156 42.066406 C 102.6875 41.460938 102.34375 40.929688 101.78125 40.578125 C 100.9375 40.058594 99.976562 40.25 99.507812 41.035156 C 99.160156 41.617188 99.039062 42.261719 99.179688 42.914062 C 99.46875 44.21875 100.144531 45.246094 101.4375 45.765625 C 101.574219 45.820312 101.636719 45.898438 101.644531 46.039062 C 101.667969 46.484375 101.738281 46.933594 101.710938 47.378906 C 101.683594 47.839844 101.683594 48.304688 101.628906 48.765625 C 101.578125 49.226562 101.5625 49.695312 101.410156 50.199219 C 101.296875 49.953125 101.203125 49.761719 101.121094 49.5625 C 100.910156 49.054688 100.582031 48.632812 100.179688 48.261719 C 99.542969 47.675781 98.460938 47.65625 97.902344 48.109375 C 97.277344 48.621094 97.152344 49.308594 97.304688 50.042969 C 97.648438 51.648438 99.152344 52.691406 100.503906 52.636719 C 100.613281 52.632812 100.722656 52.609375 100.851562 52.691406 C 100.453125 54.007812 99.804688 55.207031 99.089844 56.40625 C 98.988281 56.269531 98.957031 56.136719 98.945312 56.003906 C 98.910156 55.628906 98.78125 55.28125 98.628906 54.941406 C 98.242188 54.089844 97.472656 53.621094 96.601562 53.671875 C 96.023438 53.707031 95.566406 53.976562 95.289062 54.5 C 94.941406 55.15625 94.945312 55.835938 95.226562 56.511719 C 95.539062 57.269531 96.082031 57.824219 96.808594 58.207031 C 97.09375 58.363281 97.40625 58.433594 97.753906 58.539062 C 97.460938 59.042969 97.171875 59.515625 96.902344 60 C 96.625 60.5 96.351562 61.003906 96.097656 61.515625 C 95.855469 62 95.640625 62.496094 95.414062 62.988281 C 95.378906 62.980469 95.347656 62.972656 95.316406 62.964844 C 95.316406 62.765625 95.332031 62.566406 95.3125 62.375 C 95.222656 61.5625 94.886719 60.890625 94.164062 60.460938 C 93.570312 60.109375 92.820312 60.324219 92.484375 60.917969 C 92.421875 61.03125 92.371094 61.148438 92.328125 61.265625 C 92.246094 61.230469 92.167969 61.148438 92.089844 61.027344 C 92.054688 60.976562 92.03125 60.917969 92 60.867188 C 90.921875 59.0625 89.824219 57.269531 88.679688 55.507812 C 88.167969 54.714844 87.644531 53.933594 87.121094 53.148438 C 86.992188 52.953125 86.90625 52.824219 86.875 52.722656 C 87.449219 52.617188 87.953125 52.328125 88.390625 51.90625 C 89.128906 51.203125 89.683594 50.367188 90.207031 49.507812 C 90.933594 48.3125 91.539062 47.070312 91.742188 45.660156 C 91.796875 45.277344 91.746094 44.886719 91.847656 44.507812 C 91.875 44.40625 91.816406 44.285156 91.714844 44.230469 C 91.597656 44.167969 91.515625 44.261719 91.433594 44.332031 C 91.269531 44.476562 91.109375 44.617188 90.941406 44.757812 C 90.085938 45.464844 89.199219 46.140625 88.386719 46.902344 C 87.742188 47.503906 87.171875 48.171875 86.59375 48.835938 C 86.578125 48.855469 86.566406 48.875 86.550781 48.894531 C 86.5 48.851562 86.539062 48.832031 86.574219 48.816406 C 86.585938 48.742188 86.582031 48.660156 86.609375 48.589844 C 87.304688 46.871094 88.007812 45.152344 88.695312 43.429688 C 88.769531 43.242188 88.871094 43.171875 89.066406 43.160156 C 89.511719 43.125 89.863281 42.921875 90.066406 42.511719 C 90.136719 42.363281 90.238281 42.3125 90.394531 42.320312 C 90.597656 42.332031 90.800781 42.335938 91 42.316406 C 91.347656 42.28125 91.644531 42.054688 91.6875 41.789062 C 91.742188 41.457031 91.644531 41.1875 91.351562 40.988281 C 91.292969 40.945312 91.234375 40.910156 91.171875 40.875 C 91.222656 40.792969 91.355469 40.726562 91.582031 40.617188 C 91.691406 40.5625 91.804688 40.511719 91.914062 40.453125 C 92.902344 39.910156 93.789062 39.25 94.386719 38.273438 C 94.734375 37.707031 95.058594 37.121094 95.046875 36.421875 C 95.039062 35.84375 94.667969 35.589844 94.117188 35.785156 C 93.957031 35.84375 93.808594 35.9375 93.652344 35.996094 C 93.527344 36.042969 93.386719 36.109375 93.269531 35.96875 C 93.164062 35.839844 93.191406 35.714844 93.253906 35.578125 C 93.339844 35.398438 93.417969 35.210938 93.492188 35.027344 C 93.613281 34.726562 93.589844 34.441406 93.355469 34.210938 C 93.152344 34.007812 92.742188 33.992188 92.441406 34.164062 C 92.320312 34.234375 92.21875 34.335938 92.101562 34.40625 C 91.898438 34.527344 91.742188 34.480469 91.65625 34.261719 C 91.621094 34.164062 91.621094 34.050781 91.59375 33.945312 C 91.453125 33.324219 90.847656 33.109375 90.34375 33.503906 C 90.175781 33.636719 90.035156 33.804688 89.917969 33.988281 C 89.597656 34.488281 89.367188 35.027344 89.199219 35.59375 C 88.910156 36.59375 88.851562 37.625 88.816406 38.65625 C 88.8125 38.839844 88.832031 39.023438 88.867188 39.210938 C 88.925781 39.527344 88.964844 39.84375 89.066406 40.15625 C 89.085938 40.21875 89.085938 40.277344 89.074219 40.328125 C 89.058594 40.320312 89.042969 40.3125 89.027344 40.308594 C 88.609375 40.148438 88.175781 40.167969 87.742188 40.203125 C 87.394531 40.230469 87.105469 40.417969 87 40.75 C 86.902344 41.074219 87.15625 41.292969 87.382812 41.484375 C 87.476562 41.5625 87.59375 41.609375 87.699219 41.671875 C 87.789062 41.726562 87.910156 41.742188 87.960938 41.851562 C 87.453125 42.683594 87.488281 42.796875 88.394531 43.207031 C 88.398438 43.363281 88.324219 43.5 88.265625 43.640625 C 88.085938 44.066406 87.902344 44.492188 87.730469 44.925781 C 87.1875 46.269531 86.648438 47.621094 86.101562 48.964844 C 86.046875 49.089844 86.03125 49.257812 85.824219 49.328125 C 85.878906 48.550781 85.816406 47.8125 85.714844 47.078125 C 85.601562 46.238281 85.449219 45.402344 85.269531 44.574219 C 85.015625 43.429688 84.753906 42.285156 84.355469 41.175781 C 84.289062 40.992188 84.253906 40.78125 84.027344 40.710938 C 83.828125 40.792969 83.824219 40.964844 83.804688 41.136719 C 83.742188 41.6875 83.691406 42.242188 83.597656 42.789062 C 83.390625 43.980469 83.316406 45.179688 83.332031 46.390625 C 83.335938 46.855469 83.378906 47.316406 83.449219 47.769531 C 83.332031 47.796875 83.242188 47.714844 83.15625 47.644531 C 83.097656 47.597656 83.066406 47.523438 83.019531 47.460938 C 82.230469 46.453125 81.472656 45.414062 80.640625 44.441406 C 79.601562 43.226562 78.402344 42.175781 77.019531 41.351562 C 76.929688 41.296875 76.832031 41.242188 76.75 41.171875 C 76.652344 41.089844 76.621094 40.980469 76.648438 40.867188 C 77.15625 41.019531 77.679688 41.101562 78.226562 41.121094 C 79.960938 41.179688 81.425781 39.652344 81.679688 38.238281 C 81.859375 37.25 81.226562 36.648438 80.394531 36.585938 C 79.878906 36.550781 79.386719 36.679688 78.910156 36.878906 C 78.042969 37.242188 77.386719 37.871094 76.765625 38.546875 C 76.679688 38.636719 76.625 38.769531 76.476562 38.820312 C 76.570312 37.605469 77.171875 34.933594 77.457031 34.449219 C 77.472656 34.449219 77.492188 34.441406 77.503906 34.445312 C 77.554688 34.476562 77.609375 34.507812 77.660156 34.539062 C 78.234375 34.898438 78.859375 35.109375 79.53125 35.167969 C 80.644531 35.265625 81.539062 34.773438 82.339844 34.070312 C 82.644531 33.800781 82.910156 33.5 83.058594 33.113281 C 83.277344 32.542969 83.074219 31.941406 82.542969 31.632812 C 82.101562 31.375 81.605469 31.277344 81.117188 31.304688 C 80.195312 31.359375 79.324219 31.621094 78.546875 32.144531 C 78.464844 32.199219 78.398438 32.316406 78.21875 32.230469 C 79.007812 30.398438 80.046875 28.738281 81.410156 27.242188 C 81.707031 27.621094 81.902344 27.988281 82.265625 28.226562 C 83.160156 28.8125 84.144531 28.996094 85.1875 28.929688 C 85.492188 28.910156 85.792969 28.8125 86.0625 28.640625 C 86.847656 28.140625 86.890625 27.234375 86.234375 26.695312 C 85.929688 26.445312 85.59375 26.273438 85.214844 26.167969 C 84.371094 25.941406 83.515625 25.933594 82.539062 26.046875 C 84.046875 24.632812 85.628906 23.511719 87.394531 22.640625 C 87.671875 22.941406 87.945312 23.160156 88.308594 23.238281 C 88.832031 23.347656 89.34375 23.382812 89.867188 23.246094 C 90.707031 23.027344 91.234375 22.496094 91.464844 21.667969 C 91.570312 21.292969 91.484375 20.96875 91.199219 20.691406 C 91.003906 20.503906 90.773438 20.390625 90.519531 20.316406 C 89.507812 20.027344 88.1875 20.59375 87.667969 21.640625 C 87.417969 22.144531 87.121094 22.507812 86.597656 22.691406 C 86.511719 22.722656 86.4375 22.777344 86.355469 22.828125 C 85.789062 23.171875 85.222656 23.515625 84.65625 23.859375 C 84.636719 23.875 84.601562 23.90625 84.59375 23.902344 C 84.539062 23.867188 84.578125 23.835938 84.605469 23.808594 C 84.601562 23.601562 84.695312 23.417969 84.753906 23.226562 C 84.851562 22.890625 84.863281 22.550781 84.785156 22.21875 C 84.589844 21.417969 83.648438 20.898438 82.855469 21.144531 C 82.085938 21.386719 81.574219 21.894531 81.40625 22.6875 C 81.167969 23.804688 81.292969 24.902344 81.722656 25.953125 C 81.816406 26.1875 81.839844 26.324219 81.644531 26.519531 C 80.863281 27.292969 80.191406 28.160156 79.574219 29.070312 C 79.519531 29.144531 79.507812 29.292969 79.34375 29.238281 C 79.34375 28.976562 79.34375 28.714844 79.34375 28.453125 C 79.339844 27.542969 78.964844 26.796875 78.296875 26.214844 C 77.535156 25.554688 76.570312 25.628906 75.96875 26.492188 C 75.734375 26.832031 75.59375 27.203125 75.484375 27.589844 C 75.285156 28.304688 75.292969 29.015625 75.683594 29.65625 C 76.207031 30.511719 76.898438 31.210938 77.820312 31.660156 C 77.898438 31.699219 78 31.714844 78.023438 31.851562 C 77.746094 32.484375 77.492188 33.144531 77.265625 33.820312 C 77.035156 34.496094 76.882812 35.199219 76.628906 35.976562 C 76.515625 35.652344 76.445312 35.429688 76.359375 35.21875 C 76.0625 34.492188 75.621094 33.875 74.859375 33.601562 C 74.097656 33.328125 73.339844 33.480469 72.925781 34.21875 C 72.460938 35.042969 72.5 36.027344 73.160156 36.75 C 73.882812 37.542969 74.726562 38.148438 75.730469 38.527344 C 76.113281 38.675781 76.101562 38.683594 76.101562 39.109375 C 76.101562 39.636719 76 40.152344 76.003906 40.679688 C 76.003906 40.691406 76.003906 40.699219 76.003906 40.710938 C 75.976562 40.707031 75.945312 40.703125 75.917969 40.695312 C 75.753906 40.652344 75.597656 40.578125 75.445312 40.507812 C 74.398438 40.019531 73.328125 39.644531 72.144531 39.722656 C 72.058594 39.730469 71.941406 39.730469 71.878906 39.683594 C 71.566406 39.453125 71.1875 39.492188 70.851562 39.464844 C 69.628906 39.367188 68.414062 39.472656 67.207031 39.667969 C 66.8125 39.730469 66.421875 39.824219 66.027344 39.894531 C 65.613281 39.96875 65.523438 39.925781 65.324219 39.554688 C 65.195312 39.308594 65.0625 39.0625 64.960938 38.804688 C 64.292969 37.125 63.945312 35.371094 63.84375 33.578125 C 63.785156 32.53125 63.804688 31.476562 63.929688 30.429688 C 63.984375 29.988281 64.050781 29.546875 64.136719 29.105469 C 64.207031 28.726562 64.339844 28.644531 64.71875 28.730469 C 65.296875 28.863281 65.878906 28.886719 66.457031 28.730469 C 67.980469 28.3125 69.113281 27.425781 69.6875 25.925781 C 69.902344 25.363281 70.050781 24.777344 69.882812 24.160156 C 69.820312 23.917969 69.867188 23.695312 70.050781 23.476562 C 70.289062 23.195312 70.480469 22.871094 70.660156 22.546875 C 71.070312 21.800781 71.417969 21.027344 71.789062 20.261719 C 72.046875 19.71875 72.203125 19.164062 72.023438 18.558594 C 72 18.472656 72.015625 18.371094 72.007812 18.28125 C 71.972656 17.707031 72.171875 17.1875 72.378906 16.671875 C 72.609375 16.097656 72.589844 15.558594 72.171875 15.070312 C 72.152344 15.046875 72.136719 15.019531 72.113281 14.996094 C 71.777344 14.625 71.746094 14.199219 71.890625 13.742188 C 71.941406 13.582031 72 13.421875 72.042969 13.257812 C 72.167969 12.820312 72.214844 12.375 72 11.957031 C 71.734375 11.4375 71.363281 11.007812 70.847656 10.71875 C 70.578125 10.566406 70.304688 10.429688 70.027344 10.292969 C 69.417969 9.988281 68.917969 9.574219 68.824219 8.824219 C 68.777344 8.476562 68.691406 8.128906 68.558594 7.796875 C 68.230469 6.96875 67.699219 6.335938 66.839844 6.027344 C 66.710938 5.980469 66.578125 5.933594 66.445312 5.894531 C 65.703125 5.667969 65.066406 5.28125 64.542969 4.707031 C 64.207031 4.339844 63.917969 3.941406 63.617188 3.546875 C 63.148438 2.925781 62.546875 2.65625 61.757812 2.816406 C 61.410156 2.886719 61.066406 2.972656 60.71875 3.054688 C 60.183594 3.183594 59.679688 3.140625 59.1875 2.890625 C 58.871094 2.730469 58.546875 2.585938 58.238281 2.40625 C 57.628906 2.042969 56.976562 2.027344 56.308594 2.144531 C 55.691406 2.253906 55.121094 2.199219 54.574219 1.847656 C 54.042969 1.503906 53.503906 1.167969 52.917969 0.917969 C 52.449219 0.714844 51.960938 0.566406 51.449219 0.527344 C 50 0.421875 48.707031 0.875 47.519531 1.671875 C 47.296875 1.824219 47.085938 2.003906 46.894531 2.214844 C 46.34375 2.824219 46.023438 3.558594 45.710938 4.300781 C 45.488281 4.828125 45.269531 5.34375 44.878906 5.785156 C 44.304688 6.4375 43.582031 6.753906 42.757812 6.925781 C 42.222656 7.042969 41.753906 7.304688 41.359375 7.691406 C 40.496094 8.53125 40.253906 9.5625 40.460938 10.710938 C 40.605469 11.523438 40.554688 12.253906 39.816406 12.785156 C 39.753906 12.828125 39.703125 12.886719 39.644531 12.9375 C 38.640625 13.824219 38.480469 15.113281 39.015625 16.28125 C 39.203125 16.695312 39.46875 17.058594 39.785156 17.375 C 40.085938 17.683594 40.441406 17.941406 40.863281 18.078125 C 41.25 18.203125 41.292969 18.285156 41.144531 18.675781 C 40.414062 20.550781 39.828125 22.460938 39.558594 24.464844 C 39.402344 25.613281 39.324219 26.757812 39.46875 27.921875 C 39.613281 29.085938 40.027344 30.132812 40.664062 31.101562 C 40.890625 31.445312 40.929688 31.707031 40.675781 32.058594 C 40.339844 32.519531 40.480469 33.027344 40.972656 33.3125 C 41.121094 33.398438 41.28125 33.457031 41.441406 33.515625 C 41.671875 33.597656 41.710938 33.707031 41.640625 33.945312 C 41.617188 34.035156 41.570312 34.117188 41.550781 34.207031 C 41.367188 35.148438 41.855469 35.511719 42.65625 35.441406 C 42.734375 35.4375 42.804688 35.402344 42.882812 35.386719 C 43.324219 35.289062 43.445312 35.378906 43.472656 35.824219 C 43.480469 35.902344 43.476562 35.980469 43.484375 36.058594 C 43.566406 36.714844 44.144531 37.078125 44.765625 36.859375 C 45.050781 36.761719 45.28125 36.589844 45.484375 36.371094 C 45.695312 36.148438 45.851562 36.152344 45.996094 36.421875 C 46.171875 36.75 46.441406 36.921875 46.78125 37.023438 C 46.9375 37.066406 47.023438 37.164062 47.015625 37.324219 C 46.972656 38.050781 47.136719 38.769531 47.109375 39.496094 C 47.097656 39.898438 46.976562 39.988281 46.625 39.800781 C 46.136719 39.539062 45.585938 39.417969 45.128906 39.078125 C 44.925781 38.929688 44.652344 38.855469 44.402344 38.792969 C 43.320312 38.53125 42.234375 38.355469 41.109375 38.492188 C 40.511719 38.566406 39.917969 38.632812 39.332031 38.785156 C 39.109375 38.84375 38.886719 38.914062 38.660156 38.957031 C 38.578125 38.972656 38.507812 38.972656 38.449219 38.957031 C 38.699219 38.425781 38.871094 37.867188 38.914062 37.285156 C 39.007812 36.101562 38.832031 34.941406 38.539062 33.800781 C 38.292969 32.847656 37.839844 31.984375 37.34375 31.148438 C 37.121094 30.773438 36.871094 30.421875 36.625 30.066406 C 36.558594 29.964844 36.46875 29.855469 36.324219 29.902344 C 36.183594 29.949219 36.164062 30.078125 36.152344 30.203125 C 36.09375 30.816406 36.007812 31.429688 35.984375 32.046875 C 35.90625 33.796875 35.960938 35.535156 36.386719 37.25 C 36.503906 37.722656 36.664062 38.1875 36.796875 38.71875 C 36.535156 38.660156 36.472656 38.515625 36.386719 38.390625 C 35.5625 37.171875 35.027344 35.828125 34.644531 34.417969 C 34.246094 32.941406 33.949219 31.445312 33.777344 29.921875 C 33.71875 29.390625 33.699219 28.925781 34.089844 28.507812 C 34.199219 28.386719 34.289062 28.28125 34.464844 28.292969 C 34.675781 28.308594 34.863281 28.246094 35.03125 28.121094 C 35.433594 27.828125 35.390625 27.289062 34.941406 27.070312 C 34.824219 27.007812 34.699219 26.957031 34.570312 26.929688 C 34.59375 26.867188 34.648438 26.796875 34.726562 26.703125 C 34.878906 26.527344 35.011719 26.339844 35.125 26.136719 C 35.835938 24.878906 36.097656 23.515625 36.050781 22.082031 C 36.039062 21.796875 35.941406 21.535156 35.800781 21.292969 C 35.582031 20.914062 35.152344 20.835938 34.820312 21.113281 C 34.722656 21.191406 34.648438 21.292969 34.558594 21.378906 C 34.316406 21.605469 34.144531 21.570312 33.980469 21.273438 C 33.953125 21.21875 33.929688 21.160156 33.898438 21.105469 C 33.667969 20.664062 33.242188 20.476562 32.746094 20.574219 C 32.265625 20.667969 32.019531 20.992188 31.824219 21.402344 C 31.628906 21.808594 31.539062 21.828125 31.152344 21.597656 C 30.691406 21.320312 30.300781 21.417969 30.011719 21.875 C 29.734375 22.316406 29.667969 22.78125 29.777344 23.292969 C 29.882812 23.769531 30.089844 24.199219 30.296875 24.628906 C 30.671875 25.394531 31.078125 26.140625 31.722656 26.722656 C 31.894531 26.878906 32.066406 27.027344 32.257812 27.164062 C 32.375 27.246094 32.445312 27.320312 32.476562 27.390625 C 32.472656 27.390625 32.472656 27.390625 32.472656 27.390625 C 32.21875 27.460938 31.964844 27.527344 31.761719 27.710938 C 31.625 27.835938 31.550781 27.976562 31.597656 28.164062 C 31.640625 28.339844 31.785156 28.410156 31.933594 28.445312 C 32.066406 28.476562 32.210938 28.46875 32.347656 28.480469 C 32.464844 28.492188 32.597656 28.4375 32.6875 28.554688 C 32.609375 29.214844 32.636719 29.242188 33.386719 29.359375 C 33.46875 29.464844 33.453125 29.59375 33.449219 29.714844 C 33.433594 30.136719 33.519531 30.546875 33.578125 30.957031 C 33.746094 32.132812 34.003906 33.292969 34.308594 34.441406 C 34.78125 36.191406 35.480469 37.832031 36.621094 39.253906 C 36.71875 39.375 36.816406 39.496094 36.921875 39.609375 C 36.765625 39.691406 36.605469 39.769531 36.445312 39.851562 C 35.925781 40.121094 35.414062 40.410156 34.933594 40.746094 C 34.730469 40.890625 34.539062 41.050781 34.339844 41.191406 C 34.238281 41.261719 34.148438 41.292969 34.070312 41.289062 C 34.148438 40.859375 34.164062 40.421875 34.085938 39.988281 C 33.9375 39.15625 33.273438 38.847656 32.585938 39.320312 C 32.117188 39.640625 31.820312 40.078125 31.605469 40.582031 C 31.390625 41.082031 31.28125 41.613281 31.15625 42.152344 C 30.710938 40.902344 30.082031 39.757812 29.351562 38.707031 C 29.441406 38.527344 29.574219 38.503906 29.675781 38.4375 C 29.933594 38.285156 30.140625 38.078125 30.296875 37.824219 C 30.855469 36.921875 30.949219 35.941406 30.792969 34.917969 C 30.742188 34.566406 30.664062 34.21875 30.484375 33.90625 C 30.089844 33.226562 29.316406 33.128906 28.765625 33.679688 C 28.609375 33.839844 28.492188 34.019531 28.410156 34.222656 C 28.089844 35.011719 27.984375 35.828125 28.121094 36.675781 C 28.140625 36.804688 28.175781 36.933594 28.105469 37.121094 C 27.101562 35.917969 25.90625 35 24.6875 34.09375 C 24.871094 33.824219 25.054688 33.617188 25.171875 33.363281 C 25.472656 32.707031 25.523438 32.027344 25.386719 31.324219 C 25.25 30.601562 25.03125 29.914062 24.601562 29.308594 C 24.199219 28.742188 23.609375 28.640625 23.015625 29.003906 C 22.578125 29.273438 22.351562 29.679688 22.214844 30.152344 C 22.003906 30.890625 22.171875 31.589844 22.441406 32.277344 C 22.523438 32.492188 22.683594 32.675781 22.695312 32.921875 C 22.703125 32.941406 22.714844 32.964844 22.726562 32.988281 C 22.703125 32.976562 22.679688 32.96875 22.65625 32.957031 C 21.382812 32.4375 20.078125 32.011719 18.707031 31.808594 C 18.351562 31.757812 18.015625 31.691406 17.828125 31.332031 C 17.796875 31.269531 17.714844 31.226562 17.652344 31.183594 C 16.761719 30.605469 15.816406 30.488281 14.824219 30.855469 C 14.46875 30.984375 14.179688 31.222656 13.945312 31.519531 C 13.617188 31.933594 13.59375 32.449219 13.894531 32.800781 C 14.066406 33.003906 14.296875 33.128906 14.550781 33.21875 C 15.054688 33.402344 15.582031 33.449219 16.105469 33.390625 C 16.882812 33.300781 17.589844 33.023438 18.050781 32.351562 C 18.214844 32.109375 18.390625 32.066406 18.632812 32.109375 C 19.714844 32.300781 20.777344 32.5625 21.800781 32.972656 C 21.894531 33.011719 22.054688 33.011719 22.042969 33.207031 C 21.445312 33.246094 20.890625 33.429688 20.375 33.726562 C 19.832031 34.042969 19.457031 34.507812 19.285156 35.113281 C 18.976562 36.175781 19.777344 37.003906 20.867188 36.773438 C 21.601562 36.621094 22.207031 36.230469 22.769531 35.757812 C 23.308594 35.304688 23.722656 34.75 23.984375 34.09375 C 25.210938 34.726562 27.25 36.460938 27.527344 37.097656 C 27.378906 37.152344 27.222656 37.128906 27.070312 37.121094 C 26.582031 37.101562 26.117188 37.210938 25.671875 37.390625 C 24.980469 37.664062 24.511719 38.136719 24.316406 38.867188 C 24.269531 39.039062 24.277344 39.195312 24.308594 39.367188 C 24.449219 40.109375 25.378906 40.636719 26.050781 40.53125 C 26.828125 40.40625 27.535156 40.121094 28.105469 39.542969 C 28.382812 39.261719 28.628906 38.957031 28.875 38.589844 C 29.871094 39.984375 30.648438 41.398438 31.050781 43.066406 C 30.925781 43.015625 30.863281 43 30.8125 42.96875 C 29.828125 42.324219 28.839844 42.480469 27.875 42.992188 C 27.28125 43.304688 27.15625 43.894531 27.5 44.449219 C 27.472656 44.464844 27.445312 44.480469 27.410156 44.496094 C 27.199219 44.585938 26.984375 44.675781 26.765625 44.75 C 26.453125 44.855469 26.347656 44.792969 26.285156 44.472656 C 26.222656 44.136719 26.1875 43.796875 26.09375 43.472656 C 25.777344 42.371094 25.261719 41.414062 24.167969 40.878906 C 23.492188 40.546875 22.824219 40.566406 22.15625 40.867188 C 21.175781 41.3125 20.472656 42.039062 19.964844 42.988281 C 19.578125 43.714844 19.4375 44.496094 19.335938 45.292969 C 19.277344 45.75 19.195312 45.808594 18.777344 45.65625 C 18.089844 45.398438 17.386719 45.332031 16.652344 45.371094 C 15.605469 45.425781 14.65625 45.761719 13.765625 46.277344 C 12.996094 46.722656 12.398438 47.335938 12.046875 48.164062 C 11.683594 49.023438 11.867188 49.84375 12.664062 50.355469 C 12.964844 50.546875 13.28125 50.703125 13.632812 50.796875 C 14.25 50.953125 14.867188 51.070312 15.503906 51.0625 C 15.644531 51.0625 15.804688 51.054688 15.867188 51.210938 C 15.925781 51.359375 15.914062 51.515625 15.796875 51.644531 C 15.753906 51.691406 15.710938 51.734375 15.671875 51.785156 C 15.140625 52.53125 14.660156 53.300781 14.453125 54.210938 C 14.285156 54.941406 14.480469 55.597656 15.042969 56.050781 C 16.28125 57.050781 17.660156 57.222656 19.117188 56.546875 C 19.679688 56.285156 20.234375 56.007812 20.746094 55.65625 C 20.84375 55.589844 20.929688 55.550781 21 55.539062 C 21 55.6875 21.011719 55.835938 21.050781 55.984375 C 21.375 57.160156 21.96875 58.179688 22.8125 59.046875 C 22.988281 59.230469 23.078125 59.402344 23.0625 59.65625 C 23.023438 60.273438 22.992188 60.894531 22.984375 61.507812 C 22.972656 62.542969 22.957031 63.582031 22.953125 64.617188 C 22.859375 64.675781 22.757812 64.722656 22.644531 64.765625 C 21.96875 65.011719 21.351562 65.367188 20.8125 65.832031 C 20.105469 66.4375 19.832031 67.304688 20.226562 68.167969 C 20.441406 68.640625 20.753906 69.035156 21.1875 69.332031 C 21.742188 69.707031 22.316406 70.035156 22.972656 70.195312 C 23.007812 70.207031 23.039062 70.214844 23.070312 70.230469 C 23.101562 71.15625 23.128906 72.082031 23.167969 73.007812 C 22.816406 73.515625 22.554688 74.070312 22.429688 74.6875 C 22.285156 75.40625 22.628906 76.269531 23.238281 76.558594 C 23.269531 76.574219 23.300781 76.589844 23.328125 76.605469 C 23.332031 76.722656 23.335938 76.835938 23.339844 76.949219 C 23.34375 76.996094 23.339844 77.042969 23.34375 77.085938 C 23.429688 78.257812 23.535156 79.425781 23.59375 80.597656 C 23.640625 81.523438 23.71875 82.445312 23.816406 83.367188 C 23.9375 84.515625 24.066406 85.667969 24.234375 86.8125 C 24.410156 88 24.589844 89.191406 24.796875 90.375 C 24.871094 90.785156 24.945312 91.195312 24.996094 91.605469 C 25.027344 91.859375 24.914062 91.984375 24.683594 92.03125 C 24.421875 92.085938 24.410156 91.875 24.375 91.722656 C 24.261719 91.210938 24.15625 90.695312 24.070312 90.179688 C 23.8125 88.625 23.484375 87.085938 23.175781 85.546875 C 22.855469 83.941406 22.503906 82.34375 22.21875 80.734375 C 21.933594 79.125 21.628906 77.519531 21.285156 75.921875 C 20.945312 74.347656 20.367188 72.878906 19.636719 71.457031 C 19.234375 70.671875 18.773438 69.921875 18.335938 69.15625 C 17.371094 67.476562 16.269531 65.890625 15.039062 64.398438 C 14.9375 64.277344 14.847656 64.117188 14.667969 64.089844 C 14.632812 64.132812 14.601562 64.152344 14.597656 64.179688 C 14.445312 65.171875 14.363281 66.171875 14.335938 67.171875 C 14.277344 69.132812 14.242188 71.097656 14.488281 73.054688 C 14.613281 74.066406 14.726562 75.078125 14.933594 76.074219 C 15.390625 78.285156 16.007812 80.453125 16.707031 82.597656 C 17.429688 84.800781 18.246094 86.972656 19.21875 89.078125 C 19.917969 90.59375 20.679688 92.082031 21.628906 93.464844 C 21.664062 93.519531 21.703125 93.574219 21.742188 93.625 C 21.59375 93.789062 21.40625 93.789062 21.210938 93.695312 C 20.851562 93.519531 20.484375 93.347656 20.128906 93.167969 C 19.335938 91.835938 18.574219 90.488281 17.863281 89.113281 C 16.792969 87.054688 15.78125 84.96875 14.855469 82.839844 C 13.96875 80.796875 13.128906 78.734375 12.40625 76.628906 C 11.875 75.09375 11.367188 73.554688 10.921875 71.992188 C 10.859375 71.773438 10.847656 71.589844 10.996094 71.386719 C 11.214844 71.078125 11.289062 70.699219 11.3125 70.332031 C 11.351562 69.761719 11.328125 69.199219 11.242188 68.648438 C 11.28125 68.636719 11.324219 68.628906 11.375 68.625 C 11.511719 68.613281 11.652344 68.628906 11.789062 68.621094 C 12.5625 68.578125 13.210938 68.292969 13.605469 67.601562 C 14.039062 66.84375 14.003906 66.074219 13.566406 65.320312 C 13.28125 64.832031 12.90625 64.429688 12.457031 64.085938 C 12.132812 63.839844 12.1875 63.570312 12.558594 63.394531 C 13.0625 63.15625 13.5625 62.910156 14.058594 62.65625 C 14.417969 62.472656 14.761719 62.246094 15.007812 61.921875 C 15.480469 61.285156 15.578125 60.824219 15.035156 60.171875 C 14.707031 59.777344 14.277344 59.542969 13.789062 59.417969 C 12.871094 59.183594 11.980469 59.355469 11.113281 59.675781 C 10.796875 59.792969 10.492188 59.953125 10.183594 60.085938 C 9.792969 60.253906 9.636719 60.167969 9.578125 59.757812 C 9.570312 59.730469 9.574219 59.699219 9.566406 59.667969 C 9.421875 58.839844 9.195312 58.035156 8.640625 57.378906 C 8.292969 56.964844 7.847656 56.765625 7.285156 56.898438 C 6.757812 57.027344 6.3125 57.316406 5.960938 57.710938 C 5.394531 58.355469 5.003906 59.105469 4.8125 59.957031 C 4.726562 60.34375 4.75 60.726562 4.730469 61.109375 C 4.71875 61.402344 4.632812 61.519531 4.359375 61.542969 C 3.59375 61.609375 2.933594 61.949219 2.296875 62.324219 C 1.492188 62.796875 0.839844 63.417969 0.480469 64.304688 C 0.332031 64.664062 0.308594 65.03125 0.4375 65.390625 C 0.632812 65.941406 1.09375 66.15625 1.628906 66.195312 C 2.039062 66.226562 2.457031 66.234375 2.871094 66.132812 C 3.191406 66.054688 3.328125 66.25 3.207031 66.570312 C 3.175781 66.660156 3.121094 66.738281 3.085938 66.820312 C 2.871094 67.335938 2.652344 67.859375 2.710938 68.429688 C 2.796875 69.289062 3.105469 69.625 3.746094 69.785156 C 4.175781 69.890625 4.574219 69.730469 4.953125 69.5625 C 5.613281 69.277344 6.183594 68.855469 6.710938 68.371094 C 6.796875 68.292969 6.871094 68.234375 6.933594 68.195312 C 7.433594 69.066406 8.035156 69.863281 8.738281 70.582031 C 9.148438 71 9.605469 71.386719 10.167969 71.589844 C 10.457031 71.691406 10.574219 71.867188 10.648438 72.140625 C 11.125 73.820312 11.65625 75.484375 12.242188 77.128906 C 12.839844 78.800781 13.488281 80.457031 14.183594 82.09375 C 14.226562 82.199219 14.332031 82.296875 14.246094 82.460938 C 13.992188 82.371094 13.90625 82.121094 13.769531 81.9375 C 12.863281 80.722656 11.953125 79.515625 10.878906 78.4375 C 10.398438 77.957031 9.90625 77.488281 9.398438 77.035156 C 8.300781 76.054688 7.183594 75.109375 5.9375 74.320312 C 5.1875 73.847656 4.414062 73.429688 3.585938 73.121094 C 3.441406 73.066406 3.28125 72.9375 3.109375 73.085938 C 2.921875 73.253906 3.046875 73.445312 3.097656 73.605469 C 3.203125 73.925781 3.335938 74.242188 3.488281 74.542969 C 4.265625 76.074219 5.109375 77.570312 5.96875 79.054688 C 7.640625 81.9375 9.484375 84.699219 11.746094 87.15625 C 12.90625 88.417969 14.050781 89.691406 15.273438 90.890625 C 15.226562 90.941406 15.15625 90.988281 15.058594 91.039062 C 14.6875 91.230469 14.488281 91.542969 14.359375 91.921875 C 14.332031 92.007812 14.316406 92.101562 14.296875 92.191406 C 14.253906 92.402344 14.136719 92.519531 13.90625 92.492188 C 13.832031 92.484375 13.753906 92.488281 13.675781 92.484375 C 13.1875 92.453125 12.859375 92.691406 12.613281 93.089844 C 12.292969 93.613281 12.277344 94.167969 12.449219 94.742188 C 12.558594 95.109375 12.507812 95.226562 12.175781 95.417969 C 12.136719 95.441406 12.09375 95.460938 12.050781 95.480469 C 11.546875 95.714844 11.34375 96.125 11.324219 96.667969 C 11.308594 97.074219 11.417969 97.421875 11.605469 97.773438 C 11.808594 98.140625 11.765625 98.261719 11.414062 98.5 C 11.21875 98.628906 11.066406 98.785156 10.949219 99 C 10.660156 99.542969 10.679688 100.09375 10.855469 100.652344 C 11.207031 101.765625 11.867188 102.699219 12.664062 103.53125 C 13.285156 104.175781 13.921875 104.808594 14.605469 105.394531 C 15.734375 106.355469 16.894531 107.28125 18.105469 108.136719 C 19.140625 108.871094 20.1875 109.585938 21.339844 110.132812 C 21.382812 110.152344 21.429688 110.175781 21.476562 110.203125 C 21.441406 110.757812 21.460938 111.320312 21.480469 111.878906 C 21.496094 112.402344 21.550781 112.925781 21.652344 113.4375 C 21.726562 113.820312 22.03125 114.007812 22.40625 113.917969 C 22.488281 113.898438 22.546875 113.789062 22.664062 113.847656 C 22.761719 114.050781 22.878906 114.257812 23.140625 114.292969 C 23.402344 114.328125 23.539062 114.089844 23.757812 113.984375 C 23.796875 114.226562 23.859375 114.441406 24.117188 114.488281 C 24.53125 114.5625 24.699219 114.238281 24.878906 113.945312 C 25.074219 114.070312 25.128906 114.378906 25.417969 114.246094 C 25.640625 114.140625 25.796875 113.976562 25.867188 113.742188 C 25.894531 113.65625 25.90625 113.5625 25.921875 113.46875 C 25.976562 113.042969 26.050781 112.617188 26.082031 112.183594 C 26.101562 111.910156 26.105469 111.632812 26.105469 111.355469 C 26.15625 111.347656 26.210938 111.34375 26.277344 111.34375 C 26.726562 111.332031 27.171875 111.300781 27.617188 111.28125 C 28.679688 111.234375 29.738281 111.125 30.792969 110.988281 C 31.894531 110.847656 32.984375 110.652344 34.078125 110.472656 C 35.355469 110.257812 36.636719 110.089844 37.921875 109.9375 C 38.367188 109.882812 38.816406 109.910156 39.257812 109.832031 C 40.015625 109.695312 40.78125 109.738281 41.507812 109.921875 C 42.992188 110.289062 44.453125 110.742188 45.921875 111.15625 C 48.105469 111.773438 50.296875 112.351562 52.507812 112.863281 C 54.894531 113.417969 57.285156 113.957031 59.6875 114.449219 C 62.042969 114.9375 64.40625 115.371094 66.785156 115.699219 C 68.1875 115.894531 69.597656 116.039062 71.007812 116.164062 C 72.144531 116.261719 73.285156 116.34375 74.425781 116.347656 C 75.878906 116.351562 77.332031 116.402344 78.785156 116.296875 C 79.796875 116.222656 80.816406 116.1875 81.832031 116.105469 C 82.539062 116.046875 83.242188 115.972656 83.945312 115.875 C 85.195312 115.707031 86.445312 115.511719 87.679688 115.25 C 89.433594 114.886719 91.183594 114.515625 92.882812 113.949219 C 94.433594 113.429688 95.894531 112.734375 97.179688 111.710938 C 98.125 110.960938 99.007812 110.148438 99.816406 109.246094 C 100.59375 108.378906 101.28125 107.453125 101.855469 106.441406 C 103.132812 104.203125 103.730469 101.753906 104.054688 99.222656 C 104.144531 98.523438 104.191406 97.8125 104.269531 97.109375 C 104.351562 96.371094 104.3125 95.632812 104.402344 94.894531 C 104.464844 94.367188 104.367188 93.816406 104.359375 93.28125 C 104.339844 91.992188 104.097656 90.734375 103.933594 89.46875 C 103.734375 87.90625 103.335938 86.382812 102.855469 84.878906 C 102.046875 82.332031 101.140625 79.820312 100.117188 77.347656 C 99.160156 75.035156 98.121094 72.757812 97.050781 70.492188 C 96.632812 69.613281 96.203125 68.738281 95.777344 67.863281 C 95.714844 67.734375 95.652344 67.601562 95.734375 67.472656 C 95.988281 67.6875 96.285156 67.796875 96.636719 67.78125 C 97.144531 67.761719 97.605469 67.605469 98.050781 67.378906 C 98.453125 67.179688 98.757812 66.871094 98.957031 66.476562 C 99.332031 65.738281 99.136719 64.804688 98.125 64.539062 C 97.359375 64.339844 96.621094 64.445312 95.90625 64.753906 C 95.652344 64.863281 95.40625 64.988281 95.15625 65.109375 C 95.132812 65.117188 95.109375 65.128906 95.089844 65.140625 C 95.097656 65.117188 95.105469 65.09375 95.117188 65.070312 C 95.117188 64.914062 95.160156 64.765625 95.207031 64.617188 C 95.59375 63.308594 96.136719 62.0625 96.785156 60.859375 C 96.898438 60.648438 97 60.421875 97.164062 60.253906 C 97.367188 60.304688 97.480469 60.4375 97.621094 60.535156 C 98.382812 61.058594 99.203125 61.375 100.144531 61.175781 C 101.183594 60.953125 101.972656 60.363281 102.367188 59.386719 C 102.742188 58.460938 102.351562 57.597656 101.195312 57.558594 C 100.359375 57.53125 99.566406 57.675781 98.804688 58.011719 C 98.714844 58.050781 98.625 58.15625 98.46875 58.039062 C 99.316406 56.652344 100.195312 55.28125 100.8125 53.78125 C 100.960938 53.8125 101.058594 53.820312 101.144531 53.851562 C 101.996094 54.15625 102.847656 54.078125 103.695312 53.835938 C 104.6875 53.550781 105.21875 52.84375 105.453125 51.871094 C 105.507812 51.632812 105.476562 51.40625 105.421875 51.1875 Z M 26.917969 91.003906 C 26.894531 91.011719 26.867188 91.015625 26.839844 91.023438 C 26.78125 91.03125 26.726562 91.074219 26.671875 91.097656 C 26.25 91.285156 25.828125 91.46875 25.332031 91.6875 C 25.308594 91.160156 25.082031 90.746094 25.316406 90.21875 C 25.933594 88.816406 26.378906 87.351562 26.75 85.863281 C 27.039062 84.695312 27.265625 83.515625 27.460938 82.328125 C 27.644531 81.230469 27.78125 80.128906 27.851562 79.019531 C 27.902344 78.21875 27.875 77.410156 27.878906 76.605469 C 27.878906 76.582031 27.878906 76.558594 27.878906 76.53125 C 27.878906 76.53125 27.882812 76.53125 27.882812 76.53125 C 28.382812 76.355469 28.859375 76.140625 29.339844 75.925781 C 29.414062 75.890625 29.484375 75.878906 29.546875 75.886719 C 29.535156 76.65625 29.511719 77.425781 29.648438 78.191406 C 29.75 78.769531 29.816406 79.375 30.179688 79.851562 C 30.386719 80.121094 30.375 80.328125 30.28125 80.613281 C 29.941406 81.636719 29.59375 82.664062 29.289062 83.703125 C 28.679688 85.777344 28.121094 87.863281 27.726562 89.988281 C 27.640625 90.457031 27.488281 90.777344 27.128906 90.9375 C 27.058594 90.953125 26.988281 90.976562 26.917969 91.003906 Z M 33.613281 83.15625 C 32.480469 84 31.445312 84.945312 30.457031 85.953125 C 29.78125 86.640625 29.179688 87.382812 28.691406 88.210938 C 28.589844 88.378906 28.488281 88.550781 28.390625 88.71875 C 28.367188 88.300781 28.492188 87.921875 28.582031 87.539062 C 28.980469 85.855469 29.464844 84.191406 29.96875 82.539062 C 30.167969 81.890625 30.394531 81.246094 30.601562 80.597656 C 30.660156 80.425781 30.71875 80.308594 30.945312 80.304688 C 31.386719 80.296875 31.742188 80.066406 32.058594 79.785156 C 32.699219 79.21875 33.222656 78.550781 33.671875 77.824219 C 33.71875 77.746094 33.757812 77.664062 33.796875 77.578125 C 33.96875 77.660156 33.964844 77.886719 33.984375 78.046875 C 34.070312 78.703125 34.109375 79.363281 34.195312 80.019531 C 34.292969 80.78125 34.324219 81.554688 34.515625 82.304688 C 34.234375 82.613281 33.945312 82.910156 33.613281 83.15625 Z M 36.832031 38.9375 C 36.820312 38.914062 36.808594 38.886719 36.800781 38.859375 C 36.800781 38.855469 36.824219 38.84375 36.835938 38.835938 C 36.847656 38.859375 36.859375 38.886719 36.867188 38.910156 C 36.855469 38.921875 36.84375 38.929688 36.832031 38.9375 Z M 26.148438 55.234375 C 26.734375 55.441406 27.316406 55.601562 27.949219 55.636719 C 28.542969 55.671875 29.109375 55.632812 29.660156 55.414062 C 30.164062 55.214844 30.296875 55.285156 30.390625 55.800781 C 30.609375 57.015625 30.890625 58.214844 31.316406 59.378906 C 31.433594 59.707031 31.410156 59.808594 31.125 60.003906 C 30.816406 60.214844 30.523438 60.449219 30.273438 60.71875 C 29.496094 61.550781 28.949219 62.539062 28.492188 63.578125 C 28.425781 63.734375 28.378906 63.898438 28.320312 64.058594 C 28.265625 64.199219 28.160156 64.25 28.023438 64.253906 C 28.011719 63.972656 27.992188 63.691406 27.972656 63.410156 C 27.890625 62.316406 27.761719 61.230469 27.496094 60.164062 C 27.308594 59.414062 27.117188 58.664062 26.804688 57.957031 C 26.636719 57.578125 26.496094 57.574219 26.265625 57.902344 C 26.238281 57.941406 26.210938 57.976562 26.183594 58.019531 C 25.640625 58.917969 25.097656 59.816406 24.617188 60.753906 C 24.160156 61.648438 23.730469 62.558594 23.402344 63.511719 C 23.378906 63.582031 23.378906 63.695312 23.242188 63.695312 C 23.21875 63.457031 23.3125 63.234375 23.308594 63 C 23.296875 62.320312 23.300781 61.640625 23.320312 60.957031 C 23.335938 60.4375 23.386719 59.914062 23.425781 59.367188 C 23.75 59.351562 23.9375 59.140625 24.132812 58.941406 C 24.796875 58.265625 25.1875 57.421875 25.542969 56.5625 C 25.730469 56.117188 25.859375 55.660156 25.914062 55.183594 C 25.980469 55.1875 26.058594 55.203125 26.148438 55.234375 Z M 14.34375 82.59375 C 14.359375 82.613281 14.386719 82.628906 14.386719 82.640625 C 14.382812 82.660156 14.359375 82.675781 14.347656 82.691406 C 14.335938 82.683594 14.320312 82.671875 14.320312 82.664062 C 14.324219 82.640625 14.335938 82.621094 14.34375 82.59375 Z M 36.46875 93.855469 C 36.25 93.777344 36.039062 93.679688 35.828125 93.582031 C 34.597656 93.007812 33.402344 92.367188 32.269531 91.613281 C 32.179688 91.550781 32.09375 91.5 31.984375 91.46875 C 31.925781 91.453125 31.875 91.425781 31.839844 91.394531 C 32.648438 90.683594 33.351562 89.863281 34.078125 89.074219 C 34.507812 88.609375 34.964844 88.179688 35.445312 87.777344 C 35.398438 88.144531 35.554688 88.5 35.632812 88.867188 C 35.953125 90.371094 36.367188 91.855469 36.832031 93.320312 C 36.851562 93.378906 36.875 93.441406 36.878906 93.5 C 36.917969 93.800781 36.753906 93.949219 36.46875 93.855469 Z M 36.46875 93.855469 " fill-opacity="1" fill-rule="nonzero"/></g><path fill="#f2e8e1" d="M 78.410156 85.304688 C 78.390625 84.511719 78.242188 83.75 77.867188 83.035156 C 77.191406 81.734375 75.714844 81.632812 74.714844 82.714844 C 74.183594 83.289062 73.84375 83.976562 73.660156 84.746094 C 73.609375 84.960938 73.535156 85.1875 73.324219 85.316406 C 73.132812 85.277344 73.054688 85.140625 72.996094 84.996094 C 72.789062 84.484375 72.570312 83.972656 72.378906 83.449219 C 72.050781 82.554688 71.835938 81.621094 71.652344 80.683594 C 71.484375 79.839844 71.359375 78.988281 71.269531 78.132812 C 71.21875 77.628906 71.207031 77.113281 71.140625 76.617188 C 71.023438 75.769531 71.078125 74.925781 71 74.078125 C 70.863281 72.601562 71.089844 71.117188 71.074219 69.632812 C 71.074219 69.585938 71.074219 69.539062 71.085938 69.496094 C 71.238281 68.894531 71.167969 68.269531 71.242188 67.65625 C 71.292969 67.21875 71.328125 66.765625 71.378906 66.328125 C 71.453125 65.6875 71.539062 65.046875 71.613281 64.40625 C 71.722656 63.429688 71.894531 62.460938 72.023438 61.488281 C 72.164062 60.4375 72.375 59.398438 72.558594 58.355469 C 72.734375 57.375 72.921875 56.394531 73.101562 55.410156 C 73.234375 54.699219 73.375 53.992188 73.480469 53.277344 C 73.621094 52.335938 73.785156 51.398438 73.878906 50.449219 C 73.945312 49.746094 74.046875 49.042969 74.046875 48.335938 C 74.042969 48.039062 74.035156 47.746094 74.046875 47.453125 C 74.082031 46.628906 73.941406 45.824219 73.832031 45.015625 C 73.726562 44.226562 73.5625 43.441406 73.382812 42.664062 C 73.15625 41.65625 72.867188 40.671875 72.238281 39.808594 C 71.945312 39.40625 71.601562 39.269531 71.152344 39.257812 C 70.921875 39.253906 70.683594 39.296875 70.460938 39.222656 C 70.140625 39.125 69.796875 39.117188 69.496094 39.1875 C 68.992188 39.304688 68.484375 39.25 67.980469 39.332031 C 67.296875 39.441406 66.613281 39.519531 65.9375 39.683594 C 65.550781 39.777344 65.152344 39.90625 64.761719 39.894531 C 63.617188 39.867188 62.476562 40.023438 61.335938 40 C 60.117188 39.972656 58.894531 40.074219 57.675781 39.921875 C 57.035156 39.84375 56.386719 39.882812 55.738281 39.835938 C 54.660156 39.757812 53.578125 39.804688 52.496094 39.742188 C 51.542969 39.683594 50.585938 39.699219 49.628906 39.804688 C 49.09375 39.863281 48.542969 39.792969 48.003906 39.824219 C 47.476562 39.855469 47.011719 39.75 46.570312 39.445312 C 46.324219 39.277344 46.027344 39.109375 45.703125 39.175781 C 45.132812 39.300781 44.546875 39.359375 43.996094 39.566406 C 43.433594 39.785156 42.878906 40.015625 42.332031 40.261719 C 41.78125 40.503906 41.21875 40.722656 40.707031 41.046875 C 39.550781 41.777344 38.65625 42.769531 37.875 43.871094 C 36.796875 45.390625 35.953125 47.039062 35.246094 48.757812 C 34.597656 50.328125 34.03125 51.921875 33.605469 53.570312 C 33.519531 53.90625 33.5 54.277344 33.28125 54.640625 C 33.21875 54.25 33.332031 53.9375 33.390625 53.625 C 33.585938 52.550781 33.824219 51.488281 34.046875 50.417969 C 34.070312 50.3125 34.136719 50.195312 33.984375 50.152344 C 33.839844 50.113281 33.8125 50.253906 33.765625 50.347656 C 33.742188 50.386719 33.738281 50.433594 33.730469 50.480469 C 33.464844 51.835938 33.160156 53.183594 32.960938 54.554688 C 32.828125 55.484375 32.707031 56.410156 32.59375 57.339844 C 32.550781 57.710938 32.558594 58.082031 32.503906 58.445312 C 32.390625 59.175781 32.375 59.914062 32.34375 60.652344 C 32.316406 61.34375 32.320312 62.035156 32.40625 62.730469 C 32.480469 63.339844 32.480469 63.957031 32.597656 64.566406 C 32.644531 64.8125 32.59375 64.855469 32.308594 64.902344 C 31.773438 64.992188 31.246094 65.117188 30.738281 65.292969 C 29.464844 65.738281 28.390625 66.492188 27.417969 67.429688 C 26.871094 67.960938 26.84375 68.59375 26.996094 69.226562 C 27.148438 69.867188 27.5625 70.390625 28.085938 70.800781 C 28.257812 70.933594 28.429688 71.0625 28.570312 71.226562 C 28.9375 71.652344 29.414062 71.898438 29.933594 72.066406 C 30.902344 72.386719 31.886719 72.628906 32.917969 72.613281 C 33.242188 72.609375 33.261719 72.628906 33.257812 72.960938 C 33.246094 73.5 33.410156 74.03125 33.363281 74.574219 C 33.355469 74.640625 33.390625 74.691406 33.503906 74.703125 C 33.578125 74.480469 33.648438 74.25 33.722656 74.015625 C 33.753906 73.929688 33.777344 73.839844 33.8125 73.757812 C 33.835938 73.695312 33.882812 73.652344 33.953125 73.652344 C 34.046875 73.652344 34.082031 73.71875 34.09375 73.800781 C 34.132812 74.035156 34.238281 74.214844 34.402344 74.394531 C 34.605469 74.621094 34.742188 74.910156 34.546875 75.230469 C 34.507812 75.292969 34.488281 75.375 34.476562 75.449219 C 34.402344 76.085938 34.179688 76.683594 33.902344 77.246094 C 33.683594 77.695312 33.710938 78.144531 33.757812 78.601562 C 33.800781 79.015625 33.863281 79.425781 33.910156 79.835938 C 33.980469 80.464844 34.015625 81.097656 34.128906 81.714844 C 34.175781 81.976562 34.132812 82.261719 34.25 82.550781 C 34.5625 82.367188 34.792969 82.140625 35.046875 81.949219 C 36.304688 81.003906 37.628906 80.15625 38.988281 79.359375 C 39.585938 79.011719 40.207031 78.695312 40.734375 78.226562 C 40.921875 78.058594 41.128906 77.886719 41.382812 77.792969 C 41.582031 77.71875 41.769531 77.667969 41.949219 77.820312 C 42.132812 77.972656 42.105469 78.179688 42.066406 78.378906 C 42.046875 78.480469 41.984375 78.578125 41.933594 78.671875 C 41.753906 79.015625 41.554688 79.347656 41.382812 79.691406 C 40.898438 80.660156 40.355469 81.59375 39.792969 82.515625 C 38.871094 84.023438 37.796875 85.410156 36.542969 86.652344 C 36.207031 86.992188 35.878906 87.34375 35.484375 87.621094 C 35.207031 87.824219 35.160156 88.101562 35.230469 88.40625 C 35.636719 90.195312 36.09375 91.96875 36.660156 93.710938 C 37 94.753906 37.402344 95.773438 37.824219 96.785156 C 38.019531 97.253906 38.226562 97.71875 38.433594 98.183594 C 38.480469 98.289062 38.515625 98.429688 38.6875 98.390625 C 38.777344 98.269531 38.734375 98.15625 38.679688 98.039062 C 38.25 97.117188 37.894531 96.160156 37.507812 95.21875 C 37.472656 95.140625 37.40625 95.058594 37.503906 94.960938 C 37.859375 95.253906 38.199219 95.5625 38.566406 95.839844 C 39.625 96.628906 40.84375 97.0625 42.097656 97.417969 C 43.074219 97.691406 44.074219 97.867188 45.070312 98.046875 C 45.738281 98.171875 46.40625 98.277344 47.078125 98.335938 C 47.753906 98.398438 48.425781 98.484375 49.09375 98.558594 C 49.871094 98.644531 50.65625 98.726562 51.433594 98.789062 C 52.503906 98.878906 53.585938 98.964844 54.660156 98.976562 C 56.375 98.996094 58.089844 99.066406 59.804688 98.921875 C 60.675781 98.847656 61.554688 98.800781 62.429688 98.730469 C 63.074219 98.679688 63.71875 98.609375 64.351562 98.507812 C 65.273438 98.359375 66.199219 98.195312 67.113281 97.996094 C 68.949219 97.589844 70.71875 97.035156 72.382812 96.160156 C 74.039062 95.289062 75.410156 94.09375 76.476562 92.554688 C 77.195312 91.515625 77.6875 90.367188 78.019531 89.152344 C 78.285156 88.171875 78.453125 87.167969 78.414062 86.140625 C 78.40625 85.863281 78.417969 85.582031 78.410156 85.304688 Z M 33.210938 55.078125 C 33.199219 55.050781 33.179688 55.027344 33.179688 55.003906 C 33.179688 54.980469 33.203125 54.957031 33.21875 54.9375 C 33.230469 54.960938 33.25 54.984375 33.25 55.007812 C 33.25 55.03125 33.226562 55.054688 33.210938 55.078125 Z M 25.828125 51.105469 C 24.921875 51.640625 23.925781 51.867188 22.890625 51.996094 C 22.265625 52.074219 21.648438 52.199219 20.941406 52.167969 C 20.386719 52.261719 19.886719 52.027344 19.382812 51.667969 C 18.894531 51.320312 18.371094 51.027344 17.957031 50.578125 C 17.679688 50.277344 17.453125 49.933594 17.335938 49.554688 C 17.195312 49.082031 17.253906 48.601562 17.53125 48.175781 C 18.050781 47.375 18.707031 46.722656 19.546875 46.246094 C 20.207031 45.875 20.839844 45.460938 21.585938 45.277344 C 22.0625 45.160156 22.546875 45.085938 23.027344 44.996094 C 23.921875 44.828125 24.734375 45.128906 25.574219 45.261719 C 26.019531 45.332031 26.46875 45.417969 26.816406 45.714844 C 27.160156 46.003906 27.507812 46.277344 27.863281 46.546875 C 27.949219 46.613281 28.019531 46.699219 28.097656 46.777344 C 28.316406 46.988281 28.375 47.25 28.320312 47.542969 C 28.148438 48.445312 27.839844 49.285156 27.242188 50.011719 C 26.851562 50.488281 26.34375 50.796875 25.828125 51.105469 Z M 94.792969 38.148438 C 93.980469 39.558594 92.726562 40.449219 91.253906 41.054688 C 90.8125 41.238281 90.347656 41.246094 89.886719 41.199219 C 89.355469 41.140625 89.011719 40.800781 88.851562 40.320312 C 88.578125 39.496094 88.4375 38.65625 88.605469 37.777344 C 88.6875 37.34375 88.636719 36.890625 88.71875 36.445312 C 88.902344 35.433594 89.222656 34.476562 89.792969 33.617188 C 89.988281 33.324219 90.273438 33.117188 90.613281 33.050781 C 91.210938 32.929688 91.679688 33.238281 91.832031 33.773438 C 91.863281 33.875 91.890625 33.980469 91.925781 34.113281 C 92.261719 33.886719 92.601562 33.730469 93.011719 33.773438 C 93.496094 33.824219 93.832031 34.171875 93.832031 34.664062 C 93.835938 34.992188 93.6875 35.28125 93.621094 35.59375 C 93.769531 35.671875 93.867188 35.566406 93.972656 35.519531 C 94.226562 35.40625 94.496094 35.425781 94.75 35.472656 C 95.101562 35.539062 95.289062 35.835938 95.324219 36.21875 C 95.390625 36.933594 95.132812 37.554688 94.792969 38.148438 Z M 29.496094 23.25 C 29.375 22.730469 29.433594 22.207031 29.738281 21.742188 C 30.144531 21.121094 30.589844 20.996094 31.277344 21.3125 C 31.332031 21.339844 31.390625 21.359375 31.507812 21.402344 C 31.65625 20.851562 31.992188 20.519531 32.484375 20.328125 C 33.035156 20.113281 33.507812 20.234375 33.921875 20.640625 C 34.050781 20.769531 34.152344 20.960938 34.304688 21.023438 C 34.503906 21.101562 34.601562 20.84375 34.761719 20.761719 C 35.289062 20.503906 35.992188 20.789062 36.195312 21.367188 C 36.261719 21.550781 36.3125 21.753906 36.320312 21.949219 C 36.386719 23.390625 36.136719 24.769531 35.492188 26.066406 C 35.179688 26.691406 34.707031 27.175781 34.132812 27.554688 C 33.6875 27.851562 33.207031 27.898438 32.6875 27.691406 C 31.996094 27.417969 31.480469 26.929688 31.039062 26.378906 C 30.300781 25.453125 29.761719 24.414062 29.496094 23.25 Z M 11.523438 62.636719 C 11.546875 63.128906 11.375 63.527344 11.023438 63.878906 C 10.386719 64.511719 9.757812 65.152344 8.945312 65.5625 C 8.285156 65.894531 7.605469 66.15625 6.847656 66.214844 C 6.476562 66.242188 6.117188 66.226562 5.753906 66.203125 C 4.988281 66.15625 4.246094 65.433594 4.039062 64.878906 C 3.910156 64.535156 4.066406 64.207031 4.144531 63.886719 C 4.320312 63.183594 4.671875 62.574219 5.296875 62.160156 C 5.773438 61.847656 6.121094 61.378906 6.632812 61.09375 C 7.074219 60.847656 7.488281 60.550781 8.023438 60.527344 C 8.222656 60.519531 8.382812 60.367188 8.589844 60.34375 C 9.472656 60.253906 10.996094 60.953125 11.382812 61.921875 C 11.503906 62.222656 11.523438 62.214844 11.523438 62.636719 Z M 11.523438 62.636719 " fill-opacity="1" fill-rule="nonzero"/><g clip-path="url(#a69ec66904)"><path fill="#ce8f40" d="M 104.582031 96.558594 C 104.519531 97.433594 104.449219 98.3125 104.335938 99.1875 C 103.976562 101.859375 103.363281 104.449219 101.972656 106.796875 C 101.113281 108.246094 100.023438 109.503906 98.792969 110.652344 C 98.160156 111.246094 97.515625 111.820312 96.800781 112.320312 C 95.117188 113.503906 93.222656 114.1875 91.246094 114.695312 C 89.417969 115.164062 87.578125 115.566406 85.71875 115.863281 C 84.632812 116.039062 83.546875 116.175781 82.453125 116.296875 C 80.3125 116.53125 78.164062 116.628906 76.015625 116.613281 C 74.316406 116.601562 72.617188 116.535156 70.917969 116.390625 C 69.378906 116.261719 67.839844 116.097656 66.3125 115.886719 C 64.167969 115.59375 62.039062 115.203125 59.921875 114.769531 C 56.53125 114.074219 53.152344 113.320312 49.796875 112.46875 C 47.519531 111.894531 45.265625 111.230469 43.007812 110.59375 C 42.5 110.453125 41.996094 110.304688 41.488281 110.171875 C 40.710938 109.972656 39.917969 110.011719 39.132812 110.078125 C 38.132812 110.164062 37.132812 110.253906 36.140625 110.414062 C 35.054688 110.585938 33.972656 110.753906 32.890625 110.929688 C 31.53125 111.148438 30.171875 111.347656 28.800781 111.460938 C 27.734375 111.550781 26.667969 111.558594 25.601562 111.546875 C 24.199219 111.535156 22.878906 111.203125 21.621094 110.59375 C 20.015625 109.8125 18.539062 108.820312 17.117188 107.746094 C 15.457031 106.492188 13.855469 105.183594 12.425781 103.667969 C 11.804688 103.011719 11.285156 102.28125 10.875 101.476562 C 10.5625 100.859375 10.410156 100.199219 10.492188 99.5 C 10.5625 98.890625 10.890625 98.441406 11.441406 98.117188 C 10.625 96.546875 11.125 95.4375 12.230469 95.066406 C 12.265625 94.910156 12.160156 94.777344 12.132812 94.632812 C 11.996094 93.933594 12.046875 93.265625 12.523438 92.703125 C 12.894531 92.257812 13.386719 92.070312 13.984375 92.207031 C 14.03125 92.042969 14.070312 91.894531 14.117188 91.75 C 14.421875 90.820312 15.21875 90.429688 16.132812 90.78125 C 16.683594 90.992188 17.191406 91.292969 17.710938 91.566406 C 18.984375 92.238281 20.230469 92.960938 21.558594 93.515625 C 22.507812 93.914062 23.5 94.128906 24.53125 94.160156 C 24.605469 94.160156 24.683594 94.148438 24.769531 94.144531 C 24.859375 93.90625 24.386719 91.9375 24.421875 91.859375 C 24.457031 91.773438 24.890625 91.644531 24.992188 91.6875 C 25.085938 91.921875 25.503906 94.019531 25.597656 94.140625 C 25.664062 94.0625 25.78125 94.097656 25.78125 94.027344 C 25.785156 93.941406 25.71875 93.722656 25.703125 93.644531 C 25.675781 93.496094 25.277344 91.707031 25.320312 91.609375 C 25.378906 91.464844 27.429688 90.261719 27.640625 90.324219 C 27.636719 90.480469 27.363281 91.5625 27.238281 92.339844 C 27.121094 93.058594 27.113281 93.71875 27.105469 93.839844 C 27.289062 93.9375 27.449219 93.871094 27.609375 93.828125 C 28.457031 93.601562 29.222656 93.210938 29.949219 92.730469 C 30.570312 92.320312 31.15625 91.863281 31.730469 91.390625 C 32.066406 91.109375 32.074219 91.113281 32.449219 91.359375 C 34.269531 92.558594 36.195312 93.527344 38.265625 94.210938 C 39.6875 94.675781 41.140625 94.777344 42.617188 94.707031 C 43.101562 94.683594 43.554688 94.507812 44.011719 94.367188 C 46.492188 93.601562 48.933594 92.714844 51.394531 91.886719 C 54.839844 90.730469 58.292969 89.617188 61.824219 88.738281 C 63.667969 88.277344 65.53125 87.910156 67.421875 87.683594 C 69.375 87.449219 71.34375 87.417969 73.308594 87.507812 C 73.78125 87.527344 74.257812 87.582031 74.742188 87.578125 C 74.753906 87.378906 74.617188 87.285156 74.519531 87.171875 C 70.792969 82.804688 67.542969 78.09375 64.566406 73.195312 C 63.34375 71.1875 62.222656 69.117188 61.394531 66.90625 C 60.894531 65.570312 60.46875 64.214844 60.238281 62.804688 C 60.0625 61.746094 60.066406 60.675781 60.109375 59.609375 C 60.195312 57.417969 60.628906 55.292969 61.257812 53.195312 C 62.136719 50.273438 63.667969 47.710938 65.527344 45.324219 C 67.007812 43.421875 68.734375 41.765625 70.589844 40.230469 C 71.558594 39.425781 72.589844 39.292969 73.753906 39.585938 C 74.96875 39.886719 76.078125 40.421875 77.136719 41.074219 C 78.773438 42.082031 80.175781 43.347656 81.367188 44.863281 C 83.941406 48.136719 86.429688 51.472656 88.691406 54.972656 C 91.628906 59.511719 94.359375 64.167969 96.691406 69.050781 C 98.402344 72.636719 100.074219 76.246094 101.460938 79.976562 C 102.308594 82.25 103.117188 84.539062 103.710938 86.898438 C 104.050781 88.25 104.21875 89.628906 104.425781 91.003906 C 104.578125 92.035156 104.632812 93.066406 104.664062 94.101562 C 104.6875 94.917969 104.640625 95.738281 104.582031 96.558594 Z M 42.070312 33.113281 C 43.269531 34.164062 44.679688 34.808594 46.226562 35.167969 C 46.59375 35.257812 46.59375 35.257812 46.640625 35.609375 C 46.765625 36.464844 46.847656 37.324219 46.949219 38.183594 C 47.046875 38.984375 46.914062 39.703125 46.621094 40.441406 C 45.6875 42.800781 44.835938 45.1875 44.539062 47.734375 C 44.363281 49.242188 44.21875 50.75 44.332031 52.269531 C 44.394531 53.089844 44.578125 53.886719 45.054688 54.589844 C 45.691406 55.523438 46.675781 55.902344 47.765625 55.625 C 48.367188 55.472656 48.871094 55.152344 49.324219 54.742188 C 49.878906 54.238281 50.320312 53.644531 50.726562 53.019531 C 51.421875 51.953125 52 50.824219 52.648438 49.734375 C 53.964844 47.523438 55.503906 45.5 57.503906 43.855469 C 58.652344 42.910156 59.867188 42.054688 61.171875 41.335938 C 62.425781 40.640625 63.792969 40.238281 65.179688 39.910156 C 65.355469 39.867188 65.539062 39.851562 65.730469 39.722656 C 64.835938 38.066406 64.347656 36.292969 64.207031 34.449219 C 64.003906 31.765625 64.183594 29.527344 64.546875 28.953125 C 64.691406 28.980469 64.839844 29.015625 64.992188 29.035156 C 67.320312 29.3125 69.15625 27.871094 69.871094 26.214844 C 70.210938 25.425781 70.320312 24.605469 70.089844 23.769531 C 69.746094 22.503906 68.894531 21.75 67.640625 21.417969 C 67.28125 21.324219 66.90625 21.359375 66.554688 21.289062 C 66.503906 21.160156 66.527344 21.054688 66.550781 20.949219 C 66.730469 20.132812 66.8125 19.300781 66.871094 18.46875 C 67 16.664062 66.855469 14.882812 66.3125 13.144531 C 65.929688 11.914062 65.425781 10.738281 64.675781 9.675781 C 63.824219 8.46875 62.71875 7.53125 61.515625 6.699219 C 60.167969 5.761719 58.679688 5.289062 57.035156 5.261719 C 55.929688 5.246094 54.847656 5.410156 53.773438 5.636719 C 52.097656 5.984375 50.496094 6.542969 49.007812 7.398438 C 46.980469 8.566406 45.417969 10.21875 44.128906 12.148438 C 43.195312 13.542969 42.429688 15.027344 41.734375 16.550781 C 40.71875 18.78125 39.882812 21.070312 39.433594 23.488281 C 39.167969 24.921875 39.023438 26.359375 39.183594 27.824219 C 39.425781 29.984375 40.464844 31.703125 42.070312 33.113281 Z M 30.085938 55.609375 C 30.457031 57.839844 31.15625 59.960938 32.082031 62.011719 C 32.152344 62.171875 32.195312 62.371094 32.410156 62.449219 C 32.535156 62.355469 32.507812 62.253906 32.515625 62.167969 C 32.574219 61.519531 32.613281 60.875 32.6875 60.230469 C 32.878906 58.539062 33.109375 56.855469 33.4375 55.1875 C 34.03125 52.183594 35.148438 49.378906 36.675781 46.738281 C 37.53125 45.25 38.601562 43.929688 39.925781 42.832031 C 41.578125 41.464844 43.417969 40.386719 45.351562 39.460938 C 45.5 39.390625 45.679688 39.363281 45.792969 39.191406 C 45.457031 38.820312 45.003906 38.660156 44.546875 38.53125 C 43.175781 38.132812 41.777344 38.050781 40.371094 38.273438 C 38.242188 38.609375 36.289062 39.390625 34.546875 40.667969 C 33.046875 41.765625 31.777344 43.097656 30.867188 44.730469 C 29.679688 46.875 29.4375 49.214844 29.585938 51.613281 C 29.667969 52.953125 29.863281 54.285156 30.085938 55.609375 Z M 30.085938 55.609375 " fill-opacity="1" fill-rule="nonzero"/></g><path fill="#404342" d="M 89.105469 90.648438 C 88.316406 90.367188 87.574219 90.105469 86.835938 89.84375 C 84.566406 89.046875 82.234375 88.53125 79.855469 88.203125 C 78.464844 88.007812 77.0625 87.898438 75.667969 87.757812 C 75.636719 87.753906 75.605469 87.746094 75.574219 87.746094 C 75.089844 87.734375 74.722656 87.546875 74.394531 87.15625 C 73.351562 85.914062 72.335938 84.648438 71.375 83.339844 C 71.3125 83.257812 71.21875 83.179688 71.28125 83.023438 C 71.417969 82.941406 71.585938 82.980469 71.75 83 C 73.832031 83.234375 75.855469 83.726562 77.84375 84.367188 C 80.695312 85.285156 83.359375 86.609375 85.917969 88.164062 C 86.9375 88.78125 87.945312 89.414062 88.832031 90.21875 C 88.941406 90.320312 89.09375 90.390625 89.105469 90.648438 Z M 56.300781 34.492188 C 54.796875 35.1875 53.222656 35.714844 51.550781 35.917969 C 49.859375 36.125 48.214844 35.859375 46.585938 35.398438 C 46.769531 35.65625 47.085938 35.605469 47.328125 35.757812 C 47.328125 35.804688 47.335938 35.820312 47.328125 35.832031 C 47.296875 35.886719 47.265625 35.9375 47.222656 35.984375 C 46.851562 36.421875 46.71875 36.929688 46.75 37.492188 C 46.785156 38.09375 46.808594 38.695312 46.847656 39.296875 C 46.871094 39.628906 46.902344 39.671875 47.234375 39.6875 C 47.777344 39.707031 48.320312 39.6875 48.847656 39.5625 C 50.035156 39.289062 51.113281 38.75 52.136719 38.105469 C 53.460938 37.273438 54.648438 36.253906 55.871094 35.28125 C 56.0625 35.128906 56.242188 34.953125 56.367188 34.734375 C 56.410156 34.65625 56.457031 34.5625 56.300781 34.492188 Z M 23.640625 106.351562 C 23.144531 106.328125 22.660156 106.21875 22.167969 106.148438 C 20.375 105.886719 18.8125 105.144531 17.441406 103.953125 C 16.210938 102.886719 15.03125 101.773438 13.921875 100.582031 C 13.246094 99.855469 12.578125 99.125 11.902344 98.398438 C 11.832031 98.320312 11.757812 98.238281 11.675781 98.167969 C 11.628906 98.128906 11.566406 98.113281 11.507812 98.15625 C 11.421875 98.210938 11.433594 98.289062 11.484375 98.355469 C 11.546875 98.441406 11.621094 98.523438 11.695312 98.601562 C 12.21875 99.171875 12.742188 99.742188 13.265625 100.3125 C 14.6875 101.867188 16.199219 103.328125 17.84375 104.652344 C 19.585938 106.050781 21.644531 106.441406 23.773438 106.648438 C 23.878906 106.660156 23.992188 106.660156 24.035156 106.496094 C 23.949219 106.34375 23.78125 106.359375 23.640625 106.351562 Z M 25.039062 101.867188 C 25.023438 101.867188 25.007812 101.867188 24.992188 101.863281 C 24.222656 101.773438 23.457031 101.691406 22.6875 101.589844 C 21.878906 101.484375 21.0625 101.382812 20.304688 101.035156 C 19.433594 100.632812 18.589844 100.1875 17.808594 99.625 C 16.804688 98.902344 15.824219 98.148438 14.902344 97.316406 C 14.167969 96.652344 13.441406 95.980469 12.707031 95.316406 C 12.59375 95.214844 12.46875 95.125 12.339844 95.039062 C 12.3125 95.023438 12.246094 95.039062 12.214844 95.0625 C 12.160156 95.101562 12.148438 95.171875 12.183594 95.226562 C 12.226562 95.289062 12.289062 95.339844 12.34375 95.390625 C 12.707031 95.726562 13.078125 96.054688 13.441406 96.394531 C 14.820312 97.683594 16.25 98.914062 17.8125 99.980469 C 18.898438 100.71875 20.035156 101.394531 21.339844 101.671875 C 22.550781 101.929688 23.789062 102.007812 25.054688 102.160156 C 25.132812 102.121094 25.339844 102.253906 25.355469 102.042969 C 25.371094 101.851562 25.167969 101.890625 25.039062 101.867188 Z M 26.488281 97.980469 C 26.101562 97.984375 25.714844 97.976562 25.328125 98.003906 C 23.699219 98.117188 22.164062 97.816406 20.726562 97.03125 C 20.167969 96.726562 19.613281 96.421875 19.082031 96.078125 C 17.421875 94.996094 15.878906 93.757812 14.375 92.46875 C 14.304688 92.410156 14.242188 92.34375 14.167969 92.285156 C 14.121094 92.242188 14.058594 92.222656 14 92.269531 C 13.929688 92.328125 13.917969 92.40625 13.972656 92.472656 C 14.050781 92.570312 14.140625 92.65625 14.234375 92.738281 C 14.597656 93.046875 14.964844 93.355469 15.335938 93.660156 C 16.738281 94.804688 18.167969 95.90625 19.734375 96.824219 C 21.359375 97.773438 23.058594 98.476562 25.117188 98.265625 C 25.496094 98.265625 25.988281 98.269531 26.484375 98.265625 C 26.574219 98.265625 26.675781 98.261719 26.75 98.222656 C 26.824219 98.183594 26.832031 98.097656 26.753906 98.03125 C 26.675781 97.964844 26.578125 97.980469 26.488281 97.980469 Z M 51.199219 15.640625 C 50.664062 16.199219 50.117188 16.746094 49.597656 17.324219 C 48.851562 18.152344 48.15625 19.019531 47.617188 20.003906 C 47.058594 21.03125 46.652344 22.109375 46.609375 23.296875 C 46.578125 24.054688 46.777344 24.738281 47.265625 25.324219 C 47.363281 25.441406 47.460938 25.699219 47.636719 25.558594 C 47.808594 25.417969 47.582031 25.257812 47.484375 25.136719 C 47.097656 24.640625 46.902344 24.089844 46.902344 23.460938 C 46.898438 23.011719 46.957031 22.570312 47.070312 22.132812 C 47.441406 20.726562 48.171875 19.519531 49.070312 18.398438 C 49.761719 17.542969 50.515625 16.746094 51.292969 15.96875 C 51.390625 15.867188 51.488281 15.769531 51.578125 15.664062 C 51.628906 15.601562 51.652344 15.527344 51.574219 15.460938 C 51.496094 15.398438 51.429688 15.429688 51.367188 15.480469 C 51.308594 15.53125 51.253906 15.585938 51.199219 15.640625 Z M 49.175781 29.765625 C 49.878906 29.707031 50.550781 29.546875 51.167969 29.203125 C 51.371094 29.085938 51.5625 28.957031 51.726562 28.785156 C 51.78125 28.726562 51.808594 28.652344 51.746094 28.582031 C 51.683594 28.507812 51.605469 28.542969 51.539062 28.582031 C 51.5 28.609375 51.464844 28.640625 51.429688 28.667969 C 51.015625 29.011719 50.53125 29.210938 50.015625 29.335938 C 48.6875 29.65625 47.402344 29.492188 46.164062 28.949219 C 45.335938 28.585938 44.632812 28.074219 44.242188 27.21875 C 44.226562 27.191406 44.21875 27.160156 44.199219 27.136719 C 44.160156 27.089844 44.113281 27.046875 44.042969 27.066406 C 43.949219 27.09375 43.925781 27.167969 43.949219 27.246094 C 43.980469 27.347656 44.023438 27.449219 44.074219 27.542969 C 44.300781 27.957031 44.605469 28.300781 44.980469 28.585938 C 46.070312 29.417969 47.324219 29.738281 48.644531 29.789062 C 48.835938 29.78125 49.007812 29.777344 49.175781 29.765625 Z M 29.152344 92.976562 C 29.050781 93.015625 28.957031 93.070312 28.863281 93.121094 C 27.632812 93.761719 26.3125 94.027344 24.9375 94.066406 C 23.949219 94.09375 23.003906 93.910156 22.089844 93.539062 C 21.949219 93.480469 21.796875 93.441406 21.648438 93.410156 C 21.585938 93.394531 21.523438 93.4375 21.515625 93.507812 C 21.511719 93.542969 21.535156 93.601562 21.5625 93.625 C 21.625 93.667969 21.695312 93.699219 21.765625 93.730469 C 22.730469 94.125 23.726562 94.382812 24.800781 94.351562 C 26.25 94.347656 27.660156 94.070312 28.976562 93.390625 C 29.074219 93.339844 29.167969 93.292969 29.265625 93.242188 C 29.359375 93.191406 29.410156 93.113281 29.355469 93.015625 C 29.3125 92.933594 29.222656 92.945312 29.152344 92.976562 Z M 61.84375 16.332031 C 60.945312 15.179688 59.871094 14.246094 58.519531 13.660156 C 58.105469 13.484375 57.679688 13.351562 57.15625 13.324219 C 57.117188 13.328125 57.007812 13.324219 56.902344 13.339844 C 56.839844 13.347656 56.789062 13.402344 56.792969 13.46875 C 56.796875 13.53125 56.84375 13.582031 56.910156 13.597656 C 56.953125 13.609375 57 13.613281 57.046875 13.613281 C 57.8125 13.625 58.488281 13.925781 59.132812 14.300781 C 60.066406 14.84375 60.851562 15.554688 61.519531 16.398438 C 61.585938 16.484375 61.648438 16.578125 61.722656 16.652344 C 61.78125 16.710938 61.867188 16.714844 61.933594 16.65625 C 61.980469 16.609375 61.976562 16.542969 61.945312 16.484375 C 61.914062 16.429688 61.878906 16.378906 61.84375 16.332031 Z M 57.730469 19.554688 C 57.402344 19.65625 57.066406 19.6875 56.726562 19.609375 C 55.574219 19.347656 54.550781 18.902344 54.039062 17.730469 C 54.003906 17.652344 53.941406 17.601562 53.855469 17.640625 C 53.765625 17.675781 53.765625 17.761719 53.78125 17.835938 C 53.839844 18.117188 53.988281 18.351562 54.175781 18.558594 C 54.96875 19.414062 55.960938 19.855469 57.113281 19.941406 C 57.347656 19.949219 57.578125 19.914062 57.796875 19.839844 C 57.902344 19.804688 58.015625 19.753906 57.96875 19.617188 C 57.929688 19.5 57.820312 19.53125 57.730469 19.554688 Z M 46.890625 9.898438 C 46.917969 9.894531 46.949219 9.886719 46.980469 9.878906 C 48.417969 9.515625 49.71875 9.859375 50.9375 10.640625 C 50.964844 10.65625 50.988281 10.675781 51.011719 10.691406 C 51.101562 10.746094 51.199219 10.851562 51.292969 10.734375 C 51.40625 10.585938 51.253906 10.515625 51.164062 10.445312 C 51.054688 10.359375 50.941406 10.277344 50.820312 10.207031 C 49.953125 9.695312 49.007812 9.460938 47.996094 9.433594 C 47.847656 9.445312 47.695312 9.445312 47.542969 9.464844 C 47.296875 9.496094 47.050781 9.527344 46.820312 9.621094 C 46.742188 9.652344 46.695312 9.707031 46.714844 9.796875 C 46.734375 9.890625 46.804688 9.910156 46.890625 9.898438 Z M 67.898438 23.554688 C 67.6875 23.492188 67.472656 23.488281 67.257812 23.527344 C 66.5625 23.660156 66 24.253906 65.851562 25.023438 C 65.722656 25.699219 65.878906 26.28125 66.417969 26.734375 C 66.519531 26.816406 66.65625 26.953125 66.777344 26.800781 C 66.882812 26.660156 66.710938 26.589844 66.621094 26.523438 C 66.257812 26.25 66.125 25.863281 66.089844 25.433594 C 66.125 24.328125 67.003906 23.628906 67.769531 23.824219 C 67.796875 23.832031 67.828125 23.835938 67.859375 23.835938 C 67.949219 23.84375 68.011719 23.816406 68.023438 23.71875 C 68.035156 23.628906 67.980469 23.578125 67.898438 23.554688 Z M 48.054688 15.429688 C 48.15625 15.421875 48.324219 15.46875 48.335938 15.296875 C 48.347656 15.117188 48.171875 15.15625 48.058594 15.136719 C 48.027344 15.132812 47.996094 15.132812 47.964844 15.128906 C 46.785156 15.023438 45.910156 14.441406 45.296875 13.4375 C 45.226562 13.320312 45.191406 13.066406 44.992188 13.183594 C 44.824219 13.285156 44.980469 13.464844 45.054688 13.589844 C 45.730469 14.71875 46.722656 15.335938 48.054688 15.429688 Z M 55.984375 23.945312 C 56.144531 23.933594 56.269531 23.796875 56.261719 23.636719 C 56.253906 23.480469 56.121094 23.355469 55.960938 23.355469 C 55.800781 23.355469 55.667969 23.484375 55.660156 23.640625 C 55.652344 23.808594 55.808594 23.957031 55.984375 23.945312 Z M 55.984375 23.945312 " fill-opacity="1" fill-rule="nonzero"/><g clip-path="url(#8d56a21b2f)"><path fill="#f0a475" d="M 50.691406 79.640625 C 49.757812 80.515625 48.785156 81.347656 47.785156 82.152344 C 46.898438 82.871094 46.011719 83.589844 45.148438 84.339844 C 44.398438 84.992188 43.710938 85.699219 43.066406 86.449219 C 42.230469 87.425781 41.492188 88.472656 40.84375 89.582031 C 40.027344 90.972656 39.386719 92.441406 38.988281 94.011719 C 38.890625 94.382812 38.839844 94.40625 38.464844 94.292969 C 38.125 94.191406 37.789062 94.074219 37.453125 93.964844 C 37.273438 93.910156 37.179688 93.8125 37.152344 93.605469 C 37.019531 92.597656 36.945312 91.59375 37.050781 90.566406 C 37.171875 89.421875 37.429688 88.320312 37.835938 87.25 C 38.363281 85.867188 39.097656 84.601562 39.921875 83.382812 C 40.660156 82.296875 41.488281 81.277344 42.304688 80.25 C 43.09375 79.257812 43.863281 78.253906 44.492188 77.148438 C 44.976562 76.300781 45.371094 75.410156 45.71875 74.5 C 46.457031 72.550781 47.097656 70.566406 47.785156 68.597656 C 48.46875 66.644531 49.214844 64.710938 50.210938 62.886719 C 50.9375 61.554688 51.769531 60.300781 52.785156 59.15625 C 54.175781 57.585938 55.820312 56.363281 57.644531 55.347656 C 58.59375 54.820312 59.589844 54.402344 60.585938 53.988281 C 60.714844 53.9375 60.839844 53.878906 61.035156 53.886719 C 60.996094 54.375 60.835938 54.792969 60.738281 55.226562 C 60.476562 56.398438 60.296875 57.582031 60.183594 58.78125 C 60.097656 59.664062 60.121094 60.542969 60.113281 61.421875 C 60.113281 61.753906 60.078125 62.039062 59.761719 62.269531 C 59.5625 62.410156 59.457031 62.691406 59.335938 62.921875 C 58.910156 63.710938 58.566406 64.539062 58.253906 65.378906 C 57.699219 66.855469 57.273438 68.375 56.761719 69.863281 C 56.3125 71.164062 55.824219 72.449219 55.199219 73.675781 C 54.511719 75.03125 53.671875 76.289062 52.707031 77.460938 C 52.074219 78.226562 51.414062 78.960938 50.691406 79.640625 Z M 68.101562 78.609375 C 67.023438 77.027344 65.941406 75.445312 64.953125 73.800781 C 64.308594 72.730469 63.695312 71.636719 63.101562 70.535156 C 63.027344 70.390625 62.992188 70.214844 62.855469 70.148438 C 62.757812 70.152344 62.742188 70.195312 62.722656 70.238281 C 61.789062 72.144531 61.429688 74.1875 61.335938 76.28125 C 61.292969 77.222656 61.269531 78.160156 61.148438 79.097656 C 61.027344 79.996094 60.691406 80.792969 60.171875 81.519531 C 59.625 82.28125 58.898438 82.863281 58.144531 83.402344 C 56.921875 84.273438 55.597656 84.984375 54.328125 85.78125 C 52.800781 86.742188 51.28125 87.722656 50.070312 89.101562 C 49.375 89.890625 48.828125 90.753906 48.492188 91.75 C 48.367188 92.125 48.285156 92.511719 48.246094 92.921875 C 48.441406 92.964844 48.582031 92.878906 48.71875 92.832031 C 49.496094 92.570312 50.265625 92.292969 51.039062 92.03125 C 53.71875 91.132812 56.40625 90.257812 59.125 89.492188 C 60.3125 89.15625 61.5 88.824219 62.707031 88.5625 C 63.625 88.363281 64.539062 88.152344 65.46875 88.011719 C 65.742188 87.972656 65.972656 87.871094 66.054688 87.570312 C 66.074219 87.496094 66.121094 87.429688 66.15625 87.359375 C 66.859375 85.863281 67.882812 84.625 69.1875 83.613281 C 69.613281 83.28125 70.023438 82.933594 70.429688 82.574219 C 70.675781 82.359375 70.667969 82.289062 70.488281 82.027344 C 69.691406 80.890625 68.882812 79.757812 68.101562 78.609375 Z M 33.738281 54.171875 C 33.859375 53.867188 34.109375 53.683594 34.300781 53.445312 C 34.71875 52.925781 35.183594 52.4375 35.703125 52.027344 C 37.191406 50.863281 38.949219 50.410156 40.785156 50.226562 C 41.414062 50.164062 42.042969 50.113281 42.679688 50.101562 C 43.121094 50.097656 43.566406 50 44.007812 49.921875 C 44.3125 49.871094 44.394531 49.78125 44.398438 49.5 C 44.414062 48.882812 44.507812 48.273438 44.585938 47.664062 C 44.71875 46.652344 44.890625 45.652344 45.179688 44.671875 C 45.285156 44.308594 45.386719 43.945312 45.492188 43.578125 C 45.304688 43.5 45.183594 43.589844 45.058594 43.636719 C 44.511719 43.84375 43.953125 44.035156 43.386719 44.1875 C 42.296875 44.484375 41.171875 44.574219 40.0625 44.742188 C 39.296875 44.859375 38.558594 45.066406 37.84375 45.375 C 37.4375 45.550781 37.171875 45.835938 36.949219 46.203125 C 36.296875 47.273438 35.75 48.398438 35.21875 49.53125 C 34.703125 50.628906 34.324219 51.765625 33.964844 52.917969 C 33.84375 53.3125 33.746094 53.714844 33.636719 54.113281 C 33.671875 54.132812 33.707031 54.152344 33.738281 54.171875 Z M 67.152344 39.40625 C 66.480469 39.511719 65.835938 39.714844 65.179688 39.871094 C 64.460938 40.046875 63.75 40.253906 63.046875 40.480469 C 61.949219 40.828125 60.953125 41.382812 59.988281 42.007812 C 58.746094 42.816406 57.558594 43.699219 56.476562 44.71875 C 55.570312 45.566406 54.792969 46.527344 54.058594 47.519531 C 53.960938 47.648438 53.839844 47.773438 53.820312 47.9375 C 53.9375 48.023438 54.011719 47.96875 54.085938 47.910156 C 55.046875 47.179688 56.140625 46.722656 57.261719 46.316406 C 58.980469 45.699219 60.769531 45.371094 62.554688 45.015625 C 63.746094 44.78125 64.949219 44.585938 66.132812 44.300781 C 66.359375 44.246094 66.523438 44.144531 66.675781 43.980469 C 67.039062 43.582031 67.398438 43.179688 67.777344 42.792969 C 68.425781 42.132812 69.117188 41.515625 69.824219 40.914062 C 70.484375 40.359375 71.128906 39.78125 72.039062 39.449219 C 71.605469 39.210938 71.207031 39.21875 70.835938 39.191406 C 69.601562 39.105469 68.375 39.210938 67.152344 39.40625 Z M 53.738281 48.132812 C 53.730469 48.144531 53.71875 48.160156 53.710938 48.171875 C 53.71875 48.167969 53.726562 48.164062 53.734375 48.160156 C 53.738281 48.15625 53.738281 48.140625 53.738281 48.132812 Z M 53.699219 48.175781 C 53.695312 48.179688 53.691406 48.183594 53.6875 48.1875 C 53.691406 48.183594 53.699219 48.183594 53.703125 48.179688 C 53.703125 48.175781 53.707031 48.175781 53.710938 48.171875 C 53.707031 48.171875 53.703125 48.175781 53.699219 48.175781 Z M 53.613281 48.261719 C 53.640625 48.234375 53.664062 48.210938 53.6875 48.1875 C 53.652344 48.199219 53.628906 48.222656 53.613281 48.261719 Z M 53.585938 48.304688 C 53.59375 48.292969 53.601562 48.28125 53.609375 48.273438 C 53.609375 48.269531 53.613281 48.265625 53.613281 48.261719 C 53.613281 48.261719 53.609375 48.265625 53.605469 48.269531 C 53.597656 48.28125 53.59375 48.292969 53.585938 48.304688 Z M 38.410156 81.324219 C 37.066406 82.539062 35.800781 83.835938 34.542969 85.132812 C 32.742188 86.988281 31.09375 88.972656 29.714844 91.167969 C 29.402344 91.664062 29.097656 92.164062 28.832031 92.691406 C 28.746094 92.859375 28.683594 93.074219 28.390625 93.03125 C 28.351562 92.851562 28.457031 92.726562 28.527344 92.597656 C 29.171875 91.402344 29.898438 90.253906 30.710938 89.160156 C 31.648438 87.890625 32.671875 86.695312 33.742188 85.535156 C 34.949219 84.226562 36.210938 82.972656 37.496094 81.746094 C 38.3125 80.96875 39.09375 80.152344 39.960938 79.425781 C 40.078125 79.328125 40.167969 79.207031 40.339844 79.023438 C 40.136719 79.023438 40.019531 79.015625 39.90625 79.027344 C 39.140625 79.082031 38.433594 78.851562 37.75 78.558594 C 36.164062 77.871094 34.824219 76.839844 33.675781 75.558594 C 33.210938 75.042969 32.820312 74.46875 32.488281 73.863281 C 32.316406 73.914062 32.238281 74.039062 32.148438 74.136719 C 30.738281 75.632812 29.003906 76.558594 27.023438 77.054688 C 26.585938 77.164062 26.566406 77.167969 26.578125 77.59375 C 26.605469 78.445312 26.523438 79.292969 26.453125 80.140625 C 26.363281 81.273438 26.253906 82.410156 26.128906 83.542969 C 26.027344 84.429688 25.910156 85.316406 25.8125 86.207031 C 25.691406 87.324219 25.511719 88.433594 25.355469 89.546875 C 25.339844 89.660156 25.300781 89.785156 25.171875 89.769531 C 25.015625 89.75 25.011719 89.609375 25.03125 89.476562 C 25.171875 88.519531 25.320312 87.558594 25.449219 86.597656 C 25.558594 85.742188 25.644531 84.882812 25.746094 84.027344 C 25.828125 83.308594 25.945312 82.589844 25.996094 81.871094 C 26.027344 81.40625 26.078125 80.949219 26.117188 80.488281 C 26.1875 79.671875 26.175781 78.851562 26.277344 78.039062 C 26.308594 77.800781 26.324219 77.550781 26.265625 77.308594 C 26.089844 77.207031 25.917969 77.261719 25.753906 77.257812 C 25.136719 77.242188 24.515625 77.324219 23.90625 77.152344 C 23.050781 76.910156 22.402344 76.449219 22.179688 75.527344 C 22.097656 75.203125 22.101562 74.890625 22.164062 74.566406 C 22.324219 73.722656 22.75 73.015625 23.265625 72.347656 C 23.675781 71.816406 24.171875 71.378906 24.707031 70.984375 C 24.746094 70.957031 24.78125 70.921875 24.808594 70.886719 C 24.824219 70.867188 24.824219 70.832031 24.839844 70.777344 C 24.207031 70.691406 23.566406 70.640625 22.949219 70.46875 C 22.011719 70.207031 21.160156 69.789062 20.480469 69.066406 C 20.039062 68.597656 19.765625 68.039062 19.742188 67.40625 C 19.722656 66.828125 19.957031 66.300781 20.363281 65.855469 C 21 65.160156 21.8125 64.761719 22.667969 64.429688 C 23.800781 63.996094 24.972656 63.757812 26.195312 63.789062 C 26.300781 63.789062 26.414062 63.8125 26.515625 63.742188 C 26.613281 63.625 26.574219 63.480469 26.574219 63.34375 C 26.578125 62.308594 26.59375 61.269531 26.570312 60.234375 C 26.554688 59.539062 26.511719 58.847656 26.410156 58.160156 C 26.390625 58.039062 26.398438 57.914062 26.402344 57.789062 C 26.40625 57.71875 26.457031 57.671875 26.519531 57.667969 C 26.585938 57.660156 26.636719 57.699219 26.667969 57.757812 C 26.714844 57.855469 26.742188 57.960938 26.75 58.070312 C 26.808594 58.746094 26.863281 59.421875 26.855469 60.105469 C 26.851562 60.816406 26.972656 61.519531 26.933594 62.234375 C 26.914062 62.601562 26.921875 62.972656 26.867188 63.339844 C 26.800781 63.789062 26.863281 63.839844 27.3125 63.882812 C 27.375 63.886719 27.4375 63.890625 27.496094 63.902344 C 28.011719 63.992188 28.011719 63.996094 28.195312 63.535156 C 28.675781 62.3125 29.34375 61.210938 30.300781 60.292969 C 31.023438 59.597656 31.855469 59.15625 32.867188 59.03125 C 33.792969 58.917969 34.644531 59.074219 35.429688 59.574219 C 35.910156 59.882812 36.269531 60.304688 36.503906 60.824219 C 36.8125 61.503906 36.992188 62.226562 37.058594 62.964844 C 37.085938 63.304688 37.207031 63.628906 37.136719 64.015625 C 37.664062 63.921875 38.140625 63.839844 38.617188 63.757812 C 39.355469 63.632812 40.101562 63.652344 40.835938 63.722656 C 41.777344 63.816406 42.695312 64.050781 43.550781 64.453125 C 44.785156 65.03125 45.832031 65.8125 46.398438 67.113281 C 46.917969 68.320312 46.535156 69.394531 45.648438 70.160156 C 44.816406 70.875 43.804688 71.191406 42.722656 71.316406 C 42.386719 71.355469 42.054688 71.414062 41.648438 71.40625 C 41.855469 71.847656 42.195312 72.105469 42.429688 72.445312 C 42.875 73.085938 43.253906 73.753906 43.414062 74.523438 C 43.792969 76.355469 42.925781 78.214844 41.152344 78.84375 C 40.972656 78.90625 40.828125 79.015625 40.695312 79.148438 C 39.9375 79.878906 39.191406 80.621094 38.410156 81.324219 Z M 37.429688 67.859375 C 37.160156 67.179688 36.625 66.726562 35.988281 66.410156 C 34.585938 65.710938 33.105469 65.578125 31.574219 65.878906 C 30.902344 66.011719 30.28125 66.265625 29.71875 66.667969 C 28.722656 67.382812 28.460938 68.558594 29.222656 69.578125 C 29.472656 69.914062 29.789062 70.148438 30.132812 70.347656 C 31.121094 70.914062 32.183594 71.183594 33.363281 71.132812 C 33.949219 71.167969 34.5625 71.113281 35.15625 70.929688 C 35.976562 70.675781 36.75 70.328125 37.257812 69.582031 C 37.621094 69.042969 37.660156 68.449219 37.429688 67.859375 Z M 72.167969 13.789062 C 72.246094 13.605469 72.285156 13.40625 72.335938 13.210938 C 72.558594 12.394531 72.34375 11.703125 71.761719 11.09375 C 71.292969 10.597656 70.734375 10.261719 70.113281 10 C 69.574219 9.773438 69.1875 9.394531 69.109375 8.773438 C 69.089844 8.621094 69.058594 8.46875 69.019531 8.320312 C 68.835938 7.609375 68.566406 6.953125 68.023438 6.417969 C 67.5625 5.964844 66.996094 5.742188 66.40625 5.550781 C 65.820312 5.363281 65.320312 5.050781 64.882812 4.617188 C 64.484375 4.222656 64.164062 3.769531 63.832031 3.324219 C 63.292969 2.597656 62.574219 2.363281 61.710938 2.519531 C 61.332031 2.585938 60.953125 2.664062 60.582031 2.773438 C 60.1875 2.894531 59.820312 2.835938 59.460938 2.664062 C 59.140625 2.511719 58.808594 2.367188 58.511719 2.179688 C 57.789062 1.730469 56.992188 1.738281 56.214844 1.859375 C 55.632812 1.953125 55.148438 1.851562 54.675781 1.546875 C 54.417969 1.382812 54.15625 1.210938 53.890625 1.058594 C 53.191406 0.648438 52.445312 0.335938 51.636719 0.253906 C 50.574219 0.144531 49.542969 0.308594 48.558594 0.734375 C 47.527344 1.183594 46.664062 1.832031 46.074219 2.8125 C 45.730469 3.386719 45.519531 4.019531 45.257812 4.628906 C 44.800781 5.679688 44.046875 6.359375 42.898438 6.570312 C 41.785156 6.769531 41.007812 7.414062 40.472656 8.394531 C 40.058594 9.140625 40.0625 9.9375 40.191406 10.738281 C 40.316406 11.507812 40.238281 12.160156 39.523438 12.65625 C 39.035156 12.992188 38.722656 13.507812 38.558594 14.09375 C 38.070312 15.835938 39.132812 17.484375 40.402344 18.164062 C 40.925781 18.445312 40.976562 18.410156 41.210938 17.863281 C 41.855469 16.371094 42.582031 14.921875 43.460938 13.554688 C 44.125 12.523438 44.882812 11.574219 45.707031 10.667969 C 46.40625 9.902344 47.105469 9.140625 47.910156 8.484375 C 48.445312 8.054688 49.023438 7.730469 49.734375 7.648438 C 50.496094 7.558594 51.261719 7.4375 51.976562 7.121094 C 52.402344 6.933594 52.800781 6.699219 53.195312 6.453125 C 53.71875 6.125 54.273438 5.9375 54.90625 5.988281 C 55.167969 6.011719 55.421875 6.074219 55.683594 6.085938 C 56.199219 6.109375 56.691406 6.007812 57.191406 5.828125 C 57.242188 6.078125 57.285156 6.300781 57.328125 6.527344 C 57.621094 8.070312 58.460938 9.132812 59.980469 9.628906 C 60.617188 9.839844 61.265625 9.957031 61.917969 10.082031 C 62.585938 10.210938 63.25 10.359375 63.847656 10.703125 C 64.574219 11.125 64.984375 11.84375 64.621094 12.699219 C 64.515625 12.941406 64.414062 13.179688 64.300781 13.417969 C 64.167969 13.699219 64.0625 13.984375 63.988281 14.289062 C 63.769531 15.125 64.054688 15.902344 64.796875 16.371094 C 65.121094 16.578125 65.460938 16.765625 65.789062 16.96875 C 65.988281 17.09375 66.15625 17.25 66.261719 17.46875 C 66.382812 17.71875 66.359375 17.867188 66.136719 18.03125 C 65.972656 18.152344 65.792969 18.246094 65.621094 18.347656 C 65.3125 18.53125 65.03125 18.738281 64.84375 19.058594 C 64.550781 19.570312 64.621094 19.996094 65.058594 20.382812 C 65.15625 20.464844 65.332031 20.472656 65.351562 20.65625 C 64.933594 20.863281 64.546875 21.089844 64.261719 21.488281 C 63.769531 22.179688 63.523438 22.9375 63.46875 23.773438 C 63.460938 23.84375 63.480469 23.925781 63.511719 23.996094 C 63.570312 24.125 63.722656 24.140625 63.808594 24.027344 C 63.855469 23.964844 63.890625 23.894531 63.921875 23.824219 C 64.148438 23.285156 64.523438 22.855469 64.953125 22.46875 C 65.734375 21.765625 66.667969 21.546875 67.671875 21.738281 C 68.632812 21.921875 69.339844 22.511719 69.820312 23.363281 C 69.894531 23.496094 69.921875 23.660156 70.082031 23.746094 C 70.273438 23.722656 70.347656 23.5625 70.441406 23.421875 C 71.121094 22.4375 71.582031 21.335938 72.089844 20.261719 C 72.367188 19.671875 72.453125 19.0625 72.296875 18.414062 C 72.238281 18.175781 72.273438 17.925781 72.328125 17.679688 C 72.414062 17.296875 72.589844 16.953125 72.703125 16.582031 C 72.890625 15.949219 72.867188 15.375 72.378906 14.863281 C 72.09375 14.566406 72.003906 14.199219 72.167969 13.789062 Z M 11.691406 48.320312 C 11.929688 47.453125 12.484375 46.792969 13.210938 46.277344 C 14.125 45.628906 15.136719 45.261719 16.246094 45.097656 C 17.113281 44.96875 17.933594 45.070312 18.757812 45.3125 C 19.074219 45.40625 19.121094 45.375 19.128906 45.019531 C 19.164062 43.59375 19.777344 42.425781 20.75 41.4375 C 21.1875 40.996094 21.710938 40.648438 22.320312 40.480469 C 23.328125 40.203125 24.238281 40.363281 25.03125 41.097656 C 25.875 41.878906 26.324219 42.851562 26.480469 43.972656 C 26.5 44.128906 26.542969 44.273438 26.621094 44.449219 C 26.921875 44.34375 27.21875 44.234375 27.519531 44.132812 C 28.460938 43.808594 29.425781 43.601562 30.425781 43.640625 C 31.25 43.671875 32.035156 43.847656 32.753906 44.300781 C 33.757812 44.929688 34.316406 46.4375 33.464844 47.722656 C 33.085938 48.296875 32.59375 48.761719 31.984375 49.097656 C 31.441406 49.398438 30.855469 49.597656 30.261719 49.769531 C 30.246094 49.929688 30.386719 49.976562 30.453125 50.070312 C 31.25 51.226562 31.621094 52.488281 31.3125 53.886719 C 31.101562 54.816406 30.515625 55.445312 29.59375 55.722656 C 28.652344 56.007812 27.699219 55.960938 26.757812 55.710938 C 25.582031 55.398438 24.589844 54.753906 23.683594 53.964844 C 23.636719 53.925781 23.585938 53.890625 23.515625 53.839844 C 23.128906 54.125 22.8125 54.488281 22.4375 54.777344 C 21.332031 55.632812 20.207031 56.449219 18.882812 56.933594 C 17.410156 57.476562 16.039062 57.226562 14.839844 56.242188 C 14.246094 55.753906 14.019531 55.058594 14.15625 54.277344 C 14.316406 53.355469 14.757812 52.566406 15.28125 51.8125 C 15.375 51.675781 15.46875 51.539062 15.59375 51.359375 C 15.011719 51.316406 14.480469 51.25 13.957031 51.148438 C 13.421875 51.042969 12.921875 50.851562 12.464844 50.546875 C 11.636719 49.996094 11.441406 49.230469 11.691406 48.320312 Z M 19.34375 50.695312 C 20.148438 51.269531 21.070312 51.402344 22.023438 51.433594 C 22.792969 51.453125 23.527344 51.289062 24.253906 51.0625 C 25.058594 50.8125 25.792969 50.414062 26.378906 49.796875 C 27.425781 48.699219 27.207031 47.308594 25.878906 46.589844 C 25.214844 46.226562 24.492188 46.078125 23.742188 46.050781 C 22.804688 46.019531 21.894531 46.171875 21.023438 46.519531 C 20.214844 46.839844 19.457031 47.25 18.921875 47.980469 C 18.207031 48.949219 18.425781 50.035156 19.34375 50.695312 Z M 2.679688 69.324219 C 2.40625 68.84375 2.367188 68.328125 2.46875 67.796875 C 2.558594 67.324219 2.730469 66.878906 2.972656 66.363281 C 2.453125 66.515625 2.019531 66.511719 1.59375 66.472656 C 0.871094 66.402344 0.179688 66.03125 0.0585938 65.066406 C 0.00390625 64.644531 0.144531 64.242188 0.339844 63.871094 C 0.671875 63.242188 1.152344 62.742188 1.722656 62.332031 C 2.449219 61.816406 3.234375 61.429688 4.117188 61.273438 C 4.429688 61.21875 4.457031 61.179688 4.453125 60.78125 C 4.445312 59.722656 4.785156 58.769531 5.40625 57.933594 C 5.863281 57.324219 6.398438 56.796875 7.191406 56.605469 C 7.78125 56.464844 8.261719 56.632812 8.6875 57.007812 C 9.210938 57.460938 9.453125 58.085938 9.644531 58.726562 C 9.75 59.078125 9.859375 59.433594 9.863281 59.832031 C 10.152344 59.792969 10.371094 59.640625 10.605469 59.542969 C 11.460938 59.1875 12.335938 58.988281 13.269531 59.042969 C 14.011719 59.085938 14.65625 59.335938 15.171875 59.871094 C 15.859375 60.582031 15.847656 61.386719 15.203125 62.101562 C 14.859375 62.488281 14.453125 62.792969 13.988281 63.015625 C 13.515625 63.242188 13.050781 63.476562 12.582031 63.703125 C 12.621094 63.871094 12.75 63.941406 12.851562 64.027344 C 13.519531 64.574219 13.992188 65.234375 14.160156 66.097656 C 14.324219 66.964844 13.925781 68.085938 12.992188 68.566406 C 12.339844 68.90625 11.648438 68.96875 10.921875 68.832031 C 9.9375 68.648438 9.105469 68.160156 8.3125 67.582031 C 8.003906 67.355469 8.011719 67.359375 7.773438 67.636719 C 7.121094 68.390625 6.410156 69.074219 5.550781 69.589844 C 5.078125 69.871094 4.558594 70.039062 4.019531 70.074219 C 3.4375 70.113281 2.972656 69.84375 2.679688 69.324219 Z M 5.550781 64.667969 C 5.921875 64.933594 6.332031 65.019531 6.773438 64.992188 C 7.449219 65.035156 8.0625 64.8125 8.640625 64.511719 C 9.160156 64.238281 9.628906 63.878906 9.898438 63.320312 C 10.167969 62.753906 10.097656 62.261719 9.636719 61.851562 C 9.207031 61.464844 8.671875 61.351562 8.125 61.398438 C 7.636719 61.441406 7.152344 61.574219 6.707031 61.792969 C 5.996094 62.136719 5.367188 62.566406 5.105469 63.375 C 4.941406 63.894531 5.101562 64.34375 5.550781 64.667969 Z M 43.207031 35.988281 C 43.269531 36.472656 43.558594 37.082031 44.261719 37.171875 C 44.695312 37.230469 45.074219 37.0625 45.417969 36.800781 C 45.523438 36.722656 45.582031 36.570312 45.773438 36.585938 C 46.082031 37.089844 46.542969 37.34375 47.136719 37.179688 C 47.761719 37.003906 48.046875 36.527344 48.046875 35.863281 C 48.761719 35.769531 48.992188 35.582031 49.113281 34.921875 C 49.226562 34.320312 49.171875 33.726562 48.863281 33.171875 C 48.574219 32.65625 48.222656 32.191406 47.847656 31.738281 C 47.234375 31.003906 46.488281 30.503906 45.5625 30.238281 C 44.953125 30.0625 44.332031 29.957031 43.703125 29.90625 C 43.132812 29.859375 42.566406 29.953125 42.046875 30.230469 C 41.8125 30.351562 41.640625 30.535156 41.636719 30.800781 C 41.632812 31.042969 41.5 31.121094 41.308594 31.179688 C 40.953125 31.289062 40.695312 31.527344 40.476562 31.816406 C 40.109375 32.296875 40.152344 32.902344 40.566406 33.328125 C 40.734375 33.5 40.917969 33.632812 41.152344 33.691406 C 41.320312 33.734375 41.367188 33.847656 41.320312 34.011719 C 41.300781 34.085938 41.269531 34.15625 41.257812 34.234375 C 41.109375 35.285156 41.769531 35.886719 42.816406 35.65625 C 42.929688 35.632812 43.046875 35.582031 43.167969 35.617188 C 43.234375 35.742188 43.191406 35.867188 43.207031 35.988281 Z M 42.242188 94.734375 C 41.488281 94.550781 40.738281 94.867188 40.386719 95.53125 C 40.050781 96.164062 40 96.90625 41.003906 97.75 C 39.5625 98.089844 38.925781 99.785156 40.4375 100.890625 C 40.421875 100.941406 40.375 100.9375 40.332031 100.945312 C 39.679688 101.035156 39.273438 101.433594 39.058594 102.023438 C 38.847656 102.613281 39 103.144531 39.410156 103.605469 C 39.484375 103.691406 39.625 103.742188 39.605469 103.902344 C 38.859375 103.972656 38.324219 104.332031 38.082031 105.054688 C 37.832031 105.789062 38.125 106.375 38.710938 106.917969 C 37.488281 107.128906 37.148438 107.875 37.109375 108.507812 C 37.070312 109.085938 37.398438 109.738281 38.066406 110.019531 C 38.796875 110.324219 39.5 110.105469 39.933594 109.617188 C 40.148438 109.375 40.285156 109.078125 40.320312 108.738281 C 40.386719 108.121094 40.113281 107.640625 39.679688 107.214844 C 41.53125 106.722656 41.589844 105.066406 40.488281 104.121094 C 41.269531 104.105469 41.847656 103.78125 42.097656 103.03125 C 42.371094 102.203125 42.03125 101.570312 41.328125 101.03125 C 42.089844 100.839844 42.617188 100.46875 42.757812 99.703125 C 42.894531 98.925781 42.554688 98.371094 41.917969 97.9375 C 43.039062 97.636719 43.425781 96.972656 43.386719 96.160156 C 43.355469 95.527344 42.839844 94.882812 42.242188 94.734375 Z M 24.132812 93.246094 C 23.835938 92.484375 23.535156 91.722656 23.234375 90.960938 C 22.492188 89.09375 21.859375 87.1875 21.363281 85.242188 C 20.832031 83.164062 20.421875 81.058594 19.925781 78.972656 C 19.183594 75.847656 18.339844 72.75 17.226562 69.734375 C 16.691406 68.28125 16.082031 66.863281 15.449219 65.453125 C 15.265625 65.046875 15.078125 64.640625 14.886719 64.234375 C 14.847656 64.148438 14.792969 64.0625 14.675781 64.109375 C 14.589844 64.144531 14.59375 64.230469 14.589844 64.359375 C 14.582031 64.421875 14.644531 64.515625 14.6875 64.613281 C 14.945312 65.191406 15.203125 65.769531 15.46875 66.347656 C 16.078125 67.683594 16.621094 69.046875 17.105469 70.429688 C 18.066406 73.15625 18.863281 75.929688 19.507812 78.746094 C 19.789062 79.964844 20.082031 81.179688 20.34375 82.402344 C 20.738281 84.257812 21.1875 86.101562 21.765625 87.910156 C 22.347656 89.71875 23.054688 91.484375 23.761719 93.246094 C 23.808594 93.363281 23.863281 93.472656 23.925781 93.582031 C 23.976562 93.667969 24.058594 93.71875 24.160156 93.667969 C 24.242188 93.625 24.234375 93.542969 24.207031 93.464844 C 24.183594 93.394531 24.164062 93.316406 24.132812 93.246094 Z M 17.390625 90.253906 C 17.148438 89.855469 16.910156 89.457031 16.667969 89.0625 C 15.789062 87.628906 14.847656 86.230469 13.863281 84.863281 C 13.097656 83.800781 12.289062 82.765625 11.464844 81.746094 C 10.828125 80.953125 10.171875 80.171875 9.507812 79.398438 C 9.003906 78.8125 8.492188 78.234375 7.980469 77.652344 C 7.296875 76.875 6.566406 76.140625 5.847656 75.398438 C 5.34375 74.878906 4.808594 74.382812 4.273438 73.890625 C 3.980469 73.617188 3.679688 73.351562 3.375 73.085938 C 3.273438 72.992188 3.152344 72.957031 3.054688 73.082031 C 2.957031 73.207031 3.066406 73.265625 3.152344 73.34375 C 3.699219 73.839844 4.257812 74.328125 4.792969 74.839844 C 6.601562 76.578125 8.273438 78.4375 9.878906 80.363281 C 10.867188 81.550781 11.859375 82.738281 12.78125 83.972656 C 14.367188 86.089844 15.859375 88.265625 17.171875 90.566406 C 17.207031 90.632812 17.25 90.699219 17.300781 90.753906 C 17.34375 90.796875 17.40625 90.820312 17.472656 90.785156 C 17.53125 90.753906 17.550781 90.699219 17.546875 90.578125 C 17.53125 90.492188 17.460938 90.371094 17.390625 90.253906 Z M 36.707031 31.449219 C 37.191406 32.757812 37.476562 34.117188 37.535156 35.511719 C 37.574219 36.4375 37.550781 37.367188 37.550781 38.296875 C 37.554688 38.46875 37.542969 38.640625 37.648438 38.789062 C 37.683594 38.84375 37.742188 38.878906 37.804688 38.84375 C 37.839844 38.824219 37.882812 38.785156 37.886719 38.746094 C 37.902344 38.65625 37.902344 38.5625 37.902344 38.46875 C 37.902344 37.957031 37.902344 37.449219 37.902344 36.707031 C 37.933594 35.914062 37.878906 34.898438 37.714844 33.890625 C 37.492188 32.554688 37.066406 31.289062 36.515625 30.054688 C 36.464844 29.941406 36.40625 29.855469 36.28125 29.894531 C 36.097656 29.953125 36.175781 30.085938 36.21875 30.195312 C 36.378906 30.613281 36.550781 31.027344 36.707031 31.449219 Z M 91.6875 44.210938 C 91.621094 44.195312 91.566406 44.222656 91.53125 44.277344 C 91.488281 44.34375 91.453125 44.410156 91.417969 44.480469 C 91.125 45.039062 90.84375 45.609375 90.535156 46.160156 C 89.875 47.332031 89.101562 48.421875 88.203125 49.425781 C 87.738281 49.945312 87.253906 50.441406 86.773438 50.941406 C 86.707031 51.007812 86.648438 51.078125 86.601562 51.160156 C 86.546875 51.246094 86.464844 51.347656 86.582031 51.445312 C 86.703125 51.546875 86.785156 51.453125 86.855469 51.375 C 87.074219 51.136719 87.273438 50.878906 87.503906 50.652344 C 88.230469 49.933594 88.90625 49.175781 89.511719 48.355469 C 90.371094 47.199219 91.109375 45.976562 91.6875 44.65625 C 91.730469 44.554688 91.792969 44.464844 91.785156 44.34375 C 91.777344 44.289062 91.761719 44.230469 91.6875 44.210938 Z M 84.601562 47.273438 C 84.410156 46.242188 84.238281 45.207031 84.1875 44.167969 C 84.136719 43.0625 84.03125 41.945312 84.296875 40.847656 C 84.304688 40.804688 84.3125 40.753906 84.304688 40.714844 C 84.289062 40.648438 84.238281 40.613281 84.140625 40.609375 C 84.109375 40.628906 84.058594 40.65625 84.015625 40.699219 C 83.929688 40.777344 83.917969 40.882812 83.898438 40.992188 C 83.722656 42.066406 83.765625 43.152344 83.84375 44.226562 C 83.921875 45.355469 84.121094 46.480469 84.289062 47.605469 C 84.332031 47.875 84.332031 48.160156 84.445312 48.417969 C 84.492188 48.519531 84.542969 48.636719 84.675781 48.589844 C 84.800781 48.546875 84.808594 48.433594 84.777344 48.316406 C 84.691406 47.972656 84.664062 47.617188 84.601562 47.273438 Z M 89.75 38.445312 C 89.753906 38.679688 89.757812 38.910156 89.769531 39.140625 C 89.777344 39.21875 89.828125 39.292969 89.914062 39.300781 C 90.027344 39.3125 90.085938 39.226562 90.09375 39.132812 C 90.105469 38.964844 90.101562 38.792969 90.101562 38.621094 C 90.089844 37.804688 90.085938 36.988281 90.289062 36.183594 C 90.429688 35.628906 90.613281 35.089844 90.789062 34.546875 C 90.832031 34.417969 90.925781 34.261719 90.75 34.191406 C 90.574219 34.121094 90.527344 34.300781 90.464844 34.421875 C 90.449219 34.449219 90.4375 34.476562 90.425781 34.507812 C 90.046875 35.667969 89.691406 36.832031 89.75 38.007812 C 89.75 38.199219 89.746094 38.324219 89.75 38.445312 Z M 93.730469 37.15625 C 92.933594 38.195312 91.996094 39.070312 90.800781 39.644531 C 90.703125 39.691406 90.582031 39.738281 90.648438 39.878906 C 90.714844 40.027344 90.84375 40 90.960938 39.9375 C 91.15625 39.839844 91.347656 39.742188 91.535156 39.632812 C 92.382812 39.132812 93.066406 38.4375 93.714844 37.714844 C 93.894531 37.519531 94.109375 37.320312 94.175781 36.992188 C 93.9375 36.886719 93.84375 37.011719 93.730469 37.15625 Z M 31.699219 25.003906 C 31.90625 25.328125 32.125 25.644531 32.410156 25.90625 C 32.496094 25.988281 32.589844 26.125 32.71875 26.023438 C 32.855469 25.910156 32.730469 25.804688 32.65625 25.710938 C 32.648438 25.699219 32.632812 25.6875 32.625 25.675781 C 31.882812 24.808594 31.347656 23.835938 31.089844 22.714844 C 31.066406 22.613281 31.03125 22.511719 30.992188 22.410156 C 30.96875 22.351562 30.917969 22.3125 30.847656 22.308594 C 30.757812 22.316406 30.710938 22.378906 30.691406 22.453125 C 30.664062 22.546875 30.699219 22.636719 30.722656 22.726562 C 30.910156 23.542969 31.25 24.296875 31.699219 25.003906 Z M 33.113281 24.820312 C 33.128906 25.046875 33.152344 25.28125 33.199219 25.507812 C 33.214844 25.597656 33.277344 25.683594 33.386719 25.675781 C 33.507812 25.667969 33.523438 25.570312 33.527344 25.472656 C 33.527344 25.398438 33.53125 25.320312 33.523438 25.242188 C 33.4375 24.492188 33.382812 23.742188 33.324219 22.992188 C 33.300781 22.703125 33.253906 22.410156 33.246094 22.121094 C 33.242188 22.027344 33.234375 21.933594 33.207031 21.847656 C 33.1875 21.769531 33.121094 21.71875 33.035156 21.71875 C 32.941406 21.726562 32.902344 21.792969 32.902344 21.875 C 32.894531 22 32.898438 22.121094 32.898438 22.339844 C 32.960938 23.105469 33.066406 23.960938 33.113281 24.820312 Z M 34.089844 25.464844 C 34.203125 25.542969 34.289062 25.445312 34.363281 25.363281 C 34.394531 25.332031 34.421875 25.292969 34.445312 25.253906 C 35 24.273438 35.363281 23.230469 35.457031 22.101562 C 35.472656 21.972656 35.453125 21.839844 35.296875 21.820312 C 35.109375 21.800781 35.136719 21.960938 35.121094 22.078125 C 35.03125 22.722656 34.910156 23.355469 34.675781 23.964844 C 34.511719 24.382812 34.285156 24.773438 34.09375 25.175781 C 34.046875 25.273438 33.96875 25.386719 34.089844 25.464844 Z M 90.777344 38.832031 C 90.785156 38.898438 90.820312 38.953125 90.886719 38.957031 C 90.925781 38.960938 90.976562 38.9375 91.007812 38.910156 C 91.042969 38.882812 91.0625 38.835938 91.082031 38.792969 C 91.527344 37.898438 91.972656 37 92.410156 36.101562 C 92.472656 35.980469 92.496094 35.839844 92.53125 35.726562 C 92.511719 35.644531 92.496094 35.585938 92.425781 35.566406 C 92.359375 35.550781 92.289062 35.566406 92.261719 35.621094 C 92.183594 35.769531 92.121094 35.925781 92.046875 36.078125 C 91.671875 36.835938 91.292969 37.59375 90.914062 38.351562 C 90.839844 38.503906 90.753906 38.652344 90.777344 38.832031 Z M 90.777344 38.832031 " fill-opacity="1" fill-rule="nonzero"/></g></svg>