<svg xmlns="http://www.w3.org/2000/svg" xmlns:xlink="http://www.w3.org/1999/xlink" width="516" zoomAndPan="magnify" viewBox="0 0 386.88 126.749998" height="169" preserveAspectRatio="xMidYMid meet" version="1.0"><defs><g/><clipPath id="d1b505d19b"><path d="M 10 10 L 112 10 L 112 126 L 10 126 Z M 10 10 " clip-rule="nonzero"/></clipPath><clipPath id="8408ee9d4d"><path d="M 10.402344 9.867188 L 110.699219 9.25 L 111.421875 126.015625 L 11.121094 126.636719 Z M 10.402344 9.867188 " clip-rule="nonzero"/></clipPath><clipPath id="4ab129bcbc"><path d="M 110.839844 9.25 L 10.542969 9.867188 L 11.261719 126.636719 L 111.5625 126.015625 Z M 110.839844 9.25 " clip-rule="nonzero"/></clipPath><clipPath id="73ecd2e1c4"><path d="M 110.839844 9.25 L 10.542969 9.867188 L 11.261719 126.636719 L 111.5625 126.015625 Z M 110.839844 9.25 " clip-rule="nonzero"/></clipPath><clipPath id="4f70ddfd58"><path d="M 6 10 L 86 10 L 86 108 L 6 108 Z M 6 10 " clip-rule="nonzero"/></clipPath><clipPath id="7eaae3712b"><path d="M -15.480469 71.765625 L 36.941406 -3.007812 L 107.425781 46.410156 L 55.003906 121.183594 Z M -15.480469 71.765625 " clip-rule="nonzero"/></clipPath><clipPath id="1b9673daf2"><path d="M -15.480469 71.765625 L 36.941406 -3.007812 L 107.425781 46.410156 L 55.003906 121.183594 Z M -15.480469 71.765625 " clip-rule="nonzero"/></clipPath><clipPath id="987de8b99b"><path d="M 61 20 L 92 20 L 92 81 L 61 81 Z M 61 20 " clip-rule="nonzero"/></clipPath><clipPath id="1de960cb24"><path d="M 74.777344 15.992188 L 92.476562 75.546875 L 72.386719 81.515625 L 54.6875 21.964844 Z M 74.777344 15.992188 " clip-rule="nonzero"/></clipPath><clipPath id="3f5c676d1b"><path d="M 74.777344 15.992188 L 92.476562 75.546875 L 72.386719 81.515625 L 54.6875 21.964844 Z M 74.777344 15.992188 " clip-rule="nonzero"/></clipPath><clipPath id="12b8cf3738"><path d="M 15 21 L 78 21 L 78 55 L 15 55 Z M 15 21 " clip-rule="nonzero"/></clipPath><clipPath id="9ecc4d54aa"><path d="M 14.167969 22.144531 L 76.261719 20.082031 L 77.355469 53 L 15.261719 55.058594 Z M 14.167969 22.144531 " clip-rule="nonzero"/></clipPath><clipPath id="fb9066d467"><path d="M 76.554688 20.074219 L 14.460938 22.132812 L 15.554688 55.050781 L 77.648438 52.992188 Z M 76.554688 20.074219 " clip-rule="nonzero"/></clipPath><clipPath id="436e50ad1b"><path d="M 76.554688 20.074219 L 14.460938 22.132812 L 15.554688 55.050781 L 77.648438 52.992188 Z M 76.554688 20.074219 " clip-rule="nonzero"/></clipPath></defs><g clip-path="url(#d1b505d19b)"><g clip-path="url(#8408ee9d4d)"><g clip-path="url(#4ab129bcbc)"><g clip-path="url(#73ecd2e1c4)"><path fill="#ff8500" d="M 10.917969 60.460938 C 10.820312 32.710938 33.847656 9.773438 61.53125 10.035156 C 87.898438 10.289062 109.445312 30.984375 111.054688 57.148438 L 111.5625 125.972656 C 106.007812 106.640625 85.347656 110.496094 70.140625 110.050781 L 68.355469 110 C 66.066406 110.335938 63.726562 110.519531 61.34375 110.535156 C 57.734375 110.558594 54.214844 110.191406 50.816406 109.488281 L 49.628906 109.226562 C 27.527344 104.0625 11.003906 84.230469 10.917969 60.464844 Z M 10.917969 60.460938 " fill-opacity="1" fill-rule="evenodd"/></g></g></g></g><g clip-path="url(#4f70ddfd58)"><g clip-path="url(#7eaae3712b)"><g clip-path="url(#1b9673daf2)"><path fill="#8daa64" d="M 15.296875 27.875 L 14.695312 28.753906 C 12.710938 31.910156 11.414062 34.230469 10.804688 35.714844 C 10.492188 36.332031 10.050781 37.558594 9.476562 39.390625 L 8.101562 41.828125 L 7.257812 44.484375 C 6.484375 47.882812 6.523438 52.15625 7.375 57.308594 C 9.136719 66.109375 11.285156 73.082031 13.820312 78.230469 C 15.148438 81.136719 16.636719 83.914062 18.277344 86.5625 C 18.902344 88.046875 21.71875 91.734375 26.726562 97.628906 C 34.453125 105.472656 42.761719 108.59375 51.648438 106.992188 C 60.542969 105.609375 68.867188 100.117188 76.613281 90.515625 C 83.078125 80.660156 86.1875 68.0625 85.949219 52.722656 C 84.828125 40.664062 80.242188 30.566406 72.195312 22.425781 C 71.925781 21.910156 70.347656 20.5625 67.464844 18.378906 L 64.167969 16.109375 C 61.988281 14.71875 59.84375 13.574219 57.730469 12.683594 C 53.503906 10.898438 49.414062 10.109375 45.457031 10.3125 C 32.96875 11.675781 22.917969 17.53125 15.296875 27.875 " fill-opacity="1" fill-rule="nonzero"/></g></g></g><g clip-path="url(#987de8b99b)"><g clip-path="url(#1de960cb24)"><g clip-path="url(#3f5c676d1b)"><path fill="#8daa64" d="M 71.539062 24.632812 C 71.589844 24.796875 71.652344 24.960938 71.71875 25.121094 L 90.628906 69.925781 C 90.777344 70.273438 90.882812 70.632812 90.957031 71 C 91.027344 71.371094 91.058594 71.742188 91.050781 72.117188 C 91.046875 72.496094 91 72.867188 90.914062 73.230469 C 90.832031 73.597656 90.707031 73.953125 90.550781 74.292969 C 90.390625 74.632812 90.199219 74.957031 89.972656 75.253906 C 89.746094 75.554688 89.492188 75.832031 89.207031 76.078125 C 88.925781 76.324219 88.617188 76.539062 88.289062 76.722656 C 87.960938 76.90625 87.617188 77.054688 87.257812 77.164062 L 82.507812 78.632812 L 77.757812 80.097656 C 77.398438 80.210938 77.03125 80.28125 76.65625 80.316406 C 76.28125 80.351562 75.90625 80.347656 75.535156 80.300781 C 75.160156 80.257812 74.796875 80.175781 74.441406 80.054688 C 74.082031 79.933594 73.742188 79.777344 73.421875 79.585938 C 73.097656 79.394531 72.796875 79.171875 72.519531 78.914062 C 72.242188 78.660156 71.996094 78.378906 71.777344 78.074219 C 71.5625 77.765625 71.378906 77.441406 71.226562 77.09375 C 71.078125 76.75 70.964844 76.394531 70.890625 76.023438 L 61.234375 28.359375 C 61.199219 28.191406 61.171875 28.019531 61.15625 27.851562 L 61.046875 26.796875 C 60.367188 20.332031 69.601562 18.425781 71.539062 24.632812 Z M 71.539062 24.632812 " fill-opacity="1" fill-rule="nonzero"/></g></g></g><g clip-path="url(#12b8cf3738)"><g clip-path="url(#9ecc4d54aa)"><g clip-path="url(#fb9066d467)"><g clip-path="url(#436e50ad1b)"><path fill="#ffffff" d="M 25.523438 33.417969 C 26.054688 33.398438 26.574219 33.421875 27.085938 33.476562 C 27.484375 26.867188 32.878906 21.523438 39.660156 21.296875 C 43.871094 21.15625 47.683594 23.027344 50.167969 26.039062 C 51.113281 25.726562 52.121094 25.542969 53.167969 25.507812 C 57.90625 25.351562 62.023438 28.289062 63.5625 32.496094 C 64.417969 32.242188 65.320312 32.09375 66.25 32.0625 C 72.148438 31.871094 77.089844 36.472656 77.285156 42.347656 C 77.480469 48.226562 72.855469 53.144531 66.957031 53.339844 L 26.226562 54.691406 C 20.328125 54.886719 15.386719 50.28125 15.191406 44.410156 C 15 38.535156 19.625 33.613281 25.523438 33.417969 Z M 25.523438 33.417969 " fill-opacity="1" fill-rule="nonzero"/></g></g></g></g><g fill="#000000" fill-opacity="1"><g transform="translate(123.110902, 97.439209)"><g><path d="M 17.640625 1.359375 C 14.523438 1.359375 12.0625 0 10.25 -2.71875 C 8.289062 -5.476562 6.910156 -8.867188 6.109375 -12.890625 C 5.203125 -17.160156 4.625 -21.738281 4.375 -26.625 C 4.125 -31.039062 4 -35.835938 4 -41.015625 L 4 -47.28125 C 4.050781 -49.039062 4.078125 -50.898438 4.078125 -52.859375 C 3.671875 -53.265625 3.46875 -53.769531 3.46875 -54.375 C 3.46875 -54.96875 3.691406 -55.503906 4.140625 -55.984375 C 4.597656 -56.460938 5.101562 -56.703125 5.65625 -56.703125 C 7.46875 -56.703125 8.375 -54.921875 8.375 -51.359375 C 8.375 -49.046875 8.5 -44.671875 8.75 -38.234375 C 9 -31.796875 9.125 -27.421875 9.125 -25.109375 C 9.375 -24.453125 9.613281 -23.144531 9.84375 -21.1875 C 10.070312 -19.226562 10.1875 -17.617188 10.1875 -16.359375 C 10.1875 -15.253906 10.359375 -13.882812 10.703125 -12.25 C 11.054688 -10.613281 11.5625 -8.96875 12.21875 -7.3125 C 12.875 -5.550781 13.726562 -4.101562 14.78125 -2.96875 C 15.832031 -1.84375 16.9375 -1.28125 18.09375 -1.28125 C 18.800781 -1.28125 19.390625 -1.503906 19.859375 -1.953125 C 20.335938 -2.410156 20.65625 -3.066406 20.8125 -3.921875 C 21.113281 -5.328125 21.265625 -6.707031 21.265625 -8.0625 L 21.265625 -22.765625 C 21.265625 -24.628906 21.085938 -26.992188 20.734375 -29.859375 C 20.429688 -33.023438 20.28125 -35.414062 20.28125 -37.03125 L 20.28125 -37.546875 C 20.28125 -38.359375 20.253906 -39.085938 20.203125 -39.734375 L 20.140625 -41.921875 C 20.140625 -43.328125 20.0625 -45.460938 19.90625 -48.328125 C 19.707031 -50.898438 19.609375 -53.066406 19.609375 -54.828125 C 19.609375 -55.378906 19.894531 -55.851562 20.46875 -56.25 C 21.050781 -56.65625 21.691406 -56.859375 22.390625 -56.859375 L 24.28125 -55.125 L 24.28125 -53.84375 C 24.28125 -53.238281 24.179688 -52.507812 23.984375 -51.65625 C 23.773438 -50.25 23.671875 -49.441406 23.671875 -49.234375 C 23.671875 -44.660156 23.925781 -38.351562 24.4375 -30.3125 C 24.882812 -21.863281 25.109375 -15.300781 25.109375 -10.625 C 25.109375 -8.113281 24.859375 -5.90625 24.359375 -4 C 24.054688 -2.84375 23.640625 -1.910156 23.109375 -1.203125 C 22.578125 -0.503906 21.863281 0.0976562 20.96875 0.609375 C 20.113281 1.109375 19.003906 1.359375 17.640625 1.359375 Z M 17.640625 1.359375 "/></g></g></g><g fill="#000000" fill-opacity="1"><g transform="translate(156.745496, 97.439209)"><g><path d="M 9.875 0.90625 C 9.375 0.90625 8.9375 0.726562 8.5625 0.375 C 8.1875 0.0195312 8 -0.40625 8 -0.90625 L 8.140625 -8.21875 C 8.296875 -11.488281 8.375 -13.925781 8.375 -15.53125 C 8.375 -16.988281 8.144531 -19.148438 7.6875 -22.015625 C 7.1875 -24.828125 6.9375 -27.015625 6.9375 -28.578125 C 6.9375 -30.484375 6.660156 -32.664062 6.109375 -35.125 C 5.554688 -37.59375 4.851562 -39.960938 4 -42.234375 C 3.195312 -44.390625 2.515625 -46.710938 1.953125 -49.203125 C 1.398438 -51.691406 1.125 -53.863281 1.125 -55.71875 C 1.125 -56.070312 1.328125 -56.375 1.734375 -56.625 C 2.140625 -56.875 2.566406 -57 3.015625 -57 C 3.566406 -57 4.09375 -56.421875 4.59375 -55.265625 C 5.195312 -53.960938 5.773438 -52.128906 6.328125 -49.765625 C 6.878906 -47.398438 7.207031 -45.992188 7.3125 -45.546875 L 8.296875 -40.34375 L 9.046875 -37.03125 C 9.203125 -37.832031 9.328125 -38.882812 9.421875 -40.1875 C 9.722656 -44.363281 10.101562 -47.832031 10.5625 -50.59375 C 10.90625 -52.507812 11.304688 -53.96875 11.765625 -54.96875 C 12.265625 -56.070312 12.867188 -56.625 13.578125 -56.625 C 14.929688 -56.625 15.609375 -56.375 15.609375 -55.875 C 15.609375 -53.007812 15.003906 -48.785156 13.796875 -43.203125 C 12.585938 -37.628906 11.984375 -33.382812 11.984375 -30.46875 L 11.84375 -29.25 C 11.738281 -28.5 11.710938 -28.050781 11.765625 -27.90625 L 11.765625 -26.6875 C 11.765625 -24.53125 11.835938 -21.210938 11.984375 -16.734375 L 12.140625 -6.71875 L 12.296875 -4.984375 L 12.4375 -3.171875 L 12.4375 -1.28125 C 12.4375 -0.675781 12.1875 -0.160156 11.6875 0.265625 C 11.1875 0.691406 10.582031 0.90625 9.875 0.90625 Z M 9.875 0.90625 "/></g></g></g><g fill="#000000" fill-opacity="1"><g transform="translate(180.123824, 97.439209)"><g><path d="M 8.828125 0.453125 C 7.867188 0.453125 7.035156 0.328125 6.328125 0.078125 C 5.472656 -0.171875 5.046875 -0.875 5.046875 -2.03125 L 5.046875 -45.84375 C 5.046875 -46.695312 4.894531 -47.976562 4.59375 -49.6875 C 4.25 -51.25 4.078125 -52.53125 4.078125 -53.53125 L 4.078125 -53.765625 C 4.929688 -55.171875 5.554688 -56.078125 5.953125 -56.484375 C 6.660156 -56.484375 7.59375 -56.582031 8.75 -56.78125 C 9.800781 -56.976562 10.726562 -57.078125 11.53125 -57.078125 C 12.34375 -57.078125 13.125 -56.835938 13.875 -56.359375 C 14.625 -55.890625 15 -55.328125 15 -54.671875 C 15 -53.160156 13.84375 -52.40625 11.53125 -52.40625 L 10.484375 -52.40625 C 10.179688 -52.457031 9.828125 -52.484375 9.421875 -52.484375 C 8.972656 -52.484375 8.695312 -52.457031 8.59375 -52.40625 C 8.59375 -50.695312 8.691406 -48.632812 8.890625 -46.21875 L 9.046875 -44.109375 L 9.203125 -39.96875 C 9.203125 -39.007812 9.125 -37.550781 8.96875 -35.59375 L 8.828125 -31.375 L 9.875 -31.59375 C 10.882812 -31.894531 11.710938 -32.046875 12.359375 -32.046875 C 12.921875 -32.046875 13.425781 -31.832031 13.875 -31.40625 C 14.320312 -30.976562 14.546875 -30.488281 14.546875 -29.9375 C 14.546875 -29.332031 14.359375 -28.789062 13.984375 -28.3125 C 13.609375 -27.832031 13.144531 -27.59375 12.59375 -27.59375 L 11.6875 -27.671875 L 10.703125 -27.671875 C 9.953125 -27.671875 9.425781 -27.492188 9.125 -27.140625 L 9.125 -3.84375 L 13.34375 -4.078125 C 16.207031 -4.078125 17.640625 -3.421875 17.640625 -2.109375 L 17.640625 -1.8125 C 17.335938 -1.207031 16.785156 -0.71875 15.984375 -0.34375 C 15.179688 0.03125 14.40625 0.269531 13.65625 0.375 L 11.15625 0.453125 Z M 8.828125 0.453125 "/></g></g></g><g fill="#000000" fill-opacity="1"><g transform="translate(204.482529, 97.439209)"><g><path d="M 8 0.828125 C 7.34375 0.828125 6.75 0.585938 6.21875 0.109375 C 5.6875 -0.367188 5.421875 -0.929688 5.421875 -1.578125 C 5.421875 -2.035156 5.523438 -2.59375 5.734375 -3.25 C 5.878906 -3.945312 5.953125 -4.472656 5.953125 -4.828125 C 5.953125 -9.296875 5.703125 -17.890625 5.203125 -30.609375 C 4.703125 -41.472656 4.453125 -50.046875 4.453125 -56.328125 C 4.453125 -56.773438 4.625 -57.140625 4.96875 -57.421875 C 5.320312 -57.703125 5.753906 -57.84375 6.265625 -57.84375 C 6.859375 -57.84375 7.378906 -57.628906 7.828125 -57.203125 C 8.285156 -56.773438 8.515625 -56.257812 8.515625 -55.65625 C 8.515625 -52.632812 8.664062 -48.109375 8.96875 -42.078125 C 9.21875 -35.390625 9.34375 -30.863281 9.34375 -28.5 L 9.421875 -27.59375 L 9.421875 -25.78125 C 9.578125 -21.414062 9.65625 -14.882812 9.65625 -6.1875 L 9.65625 -4.21875 L 15.453125 -4.21875 C 16.515625 -3.46875 17.046875 -2.710938 17.046875 -1.953125 C 17.046875 -1.398438 16.851562 -0.910156 16.46875 -0.484375 C 16.09375 -0.0546875 15.65625 0.15625 15.15625 0.15625 C 15.007812 0.15625 14.734375 0.101562 14.328125 0 L 14.03125 -0.078125 C 13.726562 -0.0234375 13.25 0 12.59375 0 L 11.3125 0 C 10.957031 -0.0507812 10.554688 -0.078125 10.109375 -0.078125 C 9.597656 0.523438 8.894531 0.828125 8 0.828125 Z M 8 0.828125 "/></g></g></g><g fill="#000000" fill-opacity="1"><g transform="translate(226.729656, 97.439209)"><g><path d="M 8 0.828125 C 7.34375 0.828125 6.75 0.585938 6.21875 0.109375 C 5.6875 -0.367188 5.421875 -0.929688 5.421875 -1.578125 C 5.421875 -2.035156 5.523438 -2.59375 5.734375 -3.25 C 5.878906 -3.945312 5.953125 -4.472656 5.953125 -4.828125 C 5.953125 -9.296875 5.703125 -17.890625 5.203125 -30.609375 C 4.703125 -41.472656 4.453125 -50.046875 4.453125 -56.328125 C 4.453125 -56.773438 4.625 -57.140625 4.96875 -57.421875 C 5.320312 -57.703125 5.753906 -57.84375 6.265625 -57.84375 C 6.859375 -57.84375 7.378906 -57.628906 7.828125 -57.203125 C 8.285156 -56.773438 8.515625 -56.257812 8.515625 -55.65625 C 8.515625 -52.632812 8.664062 -48.109375 8.96875 -42.078125 C 9.21875 -35.390625 9.34375 -30.863281 9.34375 -28.5 L 9.421875 -27.59375 L 9.421875 -25.78125 C 9.578125 -21.414062 9.65625 -14.882812 9.65625 -6.1875 L 9.65625 -4.21875 L 15.453125 -4.21875 C 16.515625 -3.46875 17.046875 -2.710938 17.046875 -1.953125 C 17.046875 -1.398438 16.851562 -0.910156 16.46875 -0.484375 C 16.09375 -0.0546875 15.65625 0.15625 15.15625 0.15625 C 15.007812 0.15625 14.734375 0.101562 14.328125 0 L 14.03125 -0.078125 C 13.726562 -0.0234375 13.25 0 12.59375 0 L 11.3125 0 C 10.957031 -0.0507812 10.554688 -0.078125 10.109375 -0.078125 C 9.597656 0.523438 8.894531 0.828125 8 0.828125 Z M 8 0.828125 "/></g></g></g><g fill="#000000" fill-opacity="1"><g transform="translate(248.976783, 97.439209)"><g><path d="M 9.28125 -0.078125 C 4.957031 -0.078125 2.796875 -0.832031 2.796875 -2.34375 C 2.796875 -3.539062 3.546875 -4.140625 5.046875 -4.140625 L 5.953125 -4.140625 C 6.160156 -4.097656 6.390625 -4.078125 6.640625 -4.078125 C 7.035156 -4.078125 7.320312 -4.203125 7.5 -4.453125 C 7.675781 -4.703125 7.765625 -5.15625 7.765625 -5.8125 C 7.765625 -10.082031 7.515625 -15.910156 7.015625 -23.296875 C 6.554688 -30.992188 6.328125 -36.800781 6.328125 -40.71875 C 6.328125 -42.125 6.351562 -43.40625 6.40625 -44.5625 L 6.484375 -48.40625 C 6.484375 -50.070312 6.410156 -51.457031 6.265625 -52.5625 C 5.703125 -52.351562 5.125 -52.25 4.53125 -52.25 C 3.375 -52.25 2.796875 -52.851562 2.796875 -54.0625 C 2.796875 -54.664062 3.160156 -55.191406 3.890625 -55.640625 C 4.617188 -56.097656 5.5625 -56.425781 6.71875 -56.625 C 8.820312 -56.976562 10.601562 -57.15625 12.0625 -57.15625 C 12.664062 -57.15625 13.179688 -56.953125 13.609375 -56.546875 C 14.035156 -56.148438 14.25 -55.675781 14.25 -55.125 C 14.25 -54.570312 14.082031 -54.09375 13.75 -53.6875 C 13.425781 -53.289062 13.015625 -53.09375 12.515625 -53.09375 C 12.210938 -53.09375 11.960938 -53.113281 11.765625 -53.15625 L 11.15625 -53.15625 C 10.65625 -53.15625 10.289062 -53.039062 10.0625 -52.8125 C 9.84375 -52.59375 9.734375 -52.179688 9.734375 -51.578125 C 9.734375 -46.242188 10.054688 -38.90625 10.703125 -29.5625 C 11.304688 -19.757812 11.609375 -12.394531 11.609375 -7.46875 L 11.609375 -4.59375 C 11.960938 -4.644531 12.46875 -4.671875 13.125 -4.671875 C 15.226562 -4.671875 16.28125 -3.789062 16.28125 -2.03125 L 16.28125 -1.578125 L 14.40625 -0.296875 C 14.351562 -0.296875 14.203125 -0.28125 13.953125 -0.25 C 13.703125 -0.226562 13.195312 -0.21875 12.4375 -0.21875 C 10.726562 -0.125 9.675781 -0.078125 9.28125 -0.078125 Z M 9.28125 -0.078125 "/></g></g></g><g fill="#000000" fill-opacity="1"><g transform="translate(271.751803, 97.439209)"><g><path d="M 10.1875 0.53125 C 9.425781 0.53125 8.832031 0.164062 8.40625 -0.5625 C 7.976562 -1.289062 7.765625 -2.1875 7.765625 -3.25 C 7.765625 -4.90625 7.863281 -6.9375 8.0625 -9.34375 L 8.21875 -11.3125 L 8.375 -15.3125 C 8.375 -17.070312 8.195312 -20.992188 7.84375 -27.078125 C 7.488281 -33.148438 7.3125 -37.066406 7.3125 -38.828125 C 7.3125 -38.984375 7.320312 -39.273438 7.34375 -39.703125 C 7.375 -40.128906 7.390625 -40.796875 7.390625 -41.703125 C 7.441406 -42.703125 7.46875 -43.929688 7.46875 -45.390625 C 7.46875 -49.066406 7.21875 -51.40625 6.71875 -52.40625 C 6.414062 -52.40625 5.757812 -52.332031 4.75 -52.1875 L 2.640625 -52.03125 C 1.984375 -52.03125 1.40625 -52.21875 0.90625 -52.59375 C 0.40625 -52.96875 0.15625 -53.457031 0.15625 -54.0625 C 0.15625 -54.664062 0.753906 -55.195312 1.953125 -55.65625 C 3.710938 -56.257812 6.707031 -56.6875 10.9375 -56.9375 C 12.644531 -57.03125 13.675781 -57.078125 14.03125 -57.078125 C 14.632812 -57.078125 15.1875 -56.875 15.6875 -56.46875 C 16.1875 -56.070312 16.4375 -55.570312 16.4375 -54.96875 C 16.4375 -54.363281 16.222656 -53.875 15.796875 -53.5 C 15.367188 -53.125 14.828125 -52.9375 14.171875 -52.9375 L 12.8125 -53.015625 C 12.414062 -53.066406 11.96875 -53.09375 11.46875 -53.09375 L 10.703125 -53.09375 C 11.054688 -49.664062 11.234375 -46.570312 11.234375 -43.8125 L 11.15625 -38.984375 C 11.101562 -37.523438 11.078125 -35.890625 11.078125 -34.078125 C 11.078125 -31.671875 11.179688 -28.78125 11.390625 -25.40625 C 11.640625 -21.238281 11.765625 -18.347656 11.765625 -16.734375 C 11.765625 -14.828125 11.863281 -12.566406 12.0625 -9.953125 C 12.257812 -7.285156 12.359375 -5.023438 12.359375 -3.171875 C 12.359375 -0.703125 11.632812 0.53125 10.1875 0.53125 Z M 10.1875 0.53125 "/></g></g></g><g fill="#000000" fill-opacity="1"><g transform="translate(294.903895, 97.439209)"><g><path d="M 14.40625 2.109375 C 13.039062 2.109375 11.804688 1.65625 10.703125 0.75 C 9.597656 -0.15625 8.644531 -1.382812 7.84375 -2.9375 C 6.382812 -5.65625 5.300781 -9.375 4.59375 -14.09375 C 4.09375 -17.363281 3.71875 -21.132812 3.46875 -25.40625 L 3.390625 -29.40625 L 3.390625 -33.484375 C 3.335938 -34.785156 3.3125 -36.367188 3.3125 -38.234375 C 3.3125 -41.242188 3.4375 -43.90625 3.6875 -46.21875 C 3.894531 -48.632812 4.398438 -51.023438 5.203125 -53.390625 C 6.003906 -55.453125 7.160156 -56.910156 8.671875 -57.765625 C 9.578125 -58.160156 10.484375 -58.359375 11.390625 -58.359375 C 14.054688 -58.359375 16.164062 -57.304688 17.71875 -55.203125 C 19.425781 -52.835938 20.554688 -50.195312 21.109375 -47.28125 C 21.910156 -43.757812 22.363281 -40.390625 22.46875 -37.171875 C 22.664062 -33.609375 22.765625 -30.242188 22.765625 -27.078125 L 22.765625 -22.765625 C 22.765625 -21.910156 22.640625 -20.304688 22.390625 -17.953125 C 22.191406 -16.085938 22.09375 -14.503906 22.09375 -13.203125 L 22.09375 -12.890625 C 21.789062 -11.484375 21.640625 -9.828125 21.640625 -7.921875 C 21.640625 -6.515625 21.335938 -5.054688 20.734375 -3.546875 C 20.128906 -2.035156 19.273438 -0.753906 18.171875 0.296875 C 17.066406 1.503906 15.8125 2.109375 14.40625 2.109375 Z M 14.546875 -2.03125 C 15.554688 -2.03125 16.414062 -2.960938 17.125 -4.828125 C 17.71875 -6.484375 18.15625 -8.503906 18.4375 -10.890625 C 18.71875 -13.285156 18.957031 -15.988281 19.15625 -19 C 19.25 -20.3125 19.296875 -21.992188 19.296875 -24.046875 L 19.234375 -30.984375 C 19.128906 -33.703125 18.828125 -37.097656 18.328125 -41.171875 C 17.921875 -44.640625 17.164062 -47.707031 16.0625 -50.375 C 15.5625 -51.625 14.929688 -52.601562 14.171875 -53.3125 C 13.421875 -54.019531 12.617188 -54.375 11.765625 -54.375 C 10.503906 -54.375 9.570312 -53.390625 8.96875 -51.421875 C 8.21875 -49.359375 7.71875 -47.097656 7.46875 -44.640625 C 7.164062 -41.972656 6.988281 -39.4375 6.9375 -37.03125 L 6.859375 -34.53125 C 6.804688 -33.832031 6.78125 -32.878906 6.78125 -31.671875 L 6.78125 -31.375 C 6.78125 -28 7.132812 -23.847656 7.84375 -18.921875 C 8.644531 -12.234375 9.828125 -7.484375 11.390625 -4.671875 C 12.390625 -2.910156 13.441406 -2.03125 14.546875 -2.03125 Z M 14.546875 -2.03125 "/></g></g></g><g fill="#000000" fill-opacity="1"><g transform="translate(325.069454, 97.439209)"><g><path d="M 17.640625 1.359375 C 14.523438 1.359375 12.0625 0 10.25 -2.71875 C 8.289062 -5.476562 6.910156 -8.867188 6.109375 -12.890625 C 5.203125 -17.160156 4.625 -21.738281 4.375 -26.625 C 4.125 -31.039062 4 -35.835938 4 -41.015625 L 4 -47.28125 C 4.050781 -49.039062 4.078125 -50.898438 4.078125 -52.859375 C 3.671875 -53.265625 3.46875 -53.769531 3.46875 -54.375 C 3.46875 -54.96875 3.691406 -55.503906 4.140625 -55.984375 C 4.597656 -56.460938 5.101562 -56.703125 5.65625 -56.703125 C 7.46875 -56.703125 8.375 -54.921875 8.375 -51.359375 C 8.375 -49.046875 8.5 -44.671875 8.75 -38.234375 C 9 -31.796875 9.125 -27.421875 9.125 -25.109375 C 9.375 -24.453125 9.613281 -23.144531 9.84375 -21.1875 C 10.070312 -19.226562 10.1875 -17.617188 10.1875 -16.359375 C 10.1875 -15.253906 10.359375 -13.882812 10.703125 -12.25 C 11.054688 -10.613281 11.5625 -8.96875 12.21875 -7.3125 C 12.875 -5.550781 13.726562 -4.101562 14.78125 -2.96875 C 15.832031 -1.84375 16.9375 -1.28125 18.09375 -1.28125 C 18.800781 -1.28125 19.390625 -1.503906 19.859375 -1.953125 C 20.335938 -2.410156 20.65625 -3.066406 20.8125 -3.921875 C 21.113281 -5.328125 21.265625 -6.707031 21.265625 -8.0625 L 21.265625 -22.765625 C 21.265625 -24.628906 21.085938 -26.992188 20.734375 -29.859375 C 20.429688 -33.023438 20.28125 -35.414062 20.28125 -37.03125 L 20.28125 -37.546875 C 20.28125 -38.359375 20.253906 -39.085938 20.203125 -39.734375 L 20.140625 -41.921875 C 20.140625 -43.328125 20.0625 -45.460938 19.90625 -48.328125 C 19.707031 -50.898438 19.609375 -53.066406 19.609375 -54.828125 C 19.609375 -55.378906 19.894531 -55.851562 20.46875 -56.25 C 21.050781 -56.65625 21.691406 -56.859375 22.390625 -56.859375 L 24.28125 -55.125 L 24.28125 -53.84375 C 24.28125 -53.238281 24.179688 -52.507812 23.984375 -51.65625 C 23.773438 -50.25 23.671875 -49.441406 23.671875 -49.234375 C 23.671875 -44.660156 23.925781 -38.351562 24.4375 -30.3125 C 24.882812 -21.863281 25.109375 -15.300781 25.109375 -10.625 C 25.109375 -8.113281 24.859375 -5.90625 24.359375 -4 C 24.054688 -2.84375 23.640625 -1.910156 23.109375 -1.203125 C 22.578125 -0.503906 21.863281 0.0976562 20.96875 0.609375 C 20.113281 1.109375 19.003906 1.359375 17.640625 1.359375 Z M 17.640625 1.359375 "/></g></g></g><g fill="#000000" fill-opacity="1"><g transform="translate(358.704039, 97.439209)"><g><path d="M 10.1875 0.53125 C 9.425781 0.53125 8.832031 0.164062 8.40625 -0.5625 C 7.976562 -1.289062 7.765625 -2.1875 7.765625 -3.25 C 7.765625 -4.90625 7.863281 -6.9375 8.0625 -9.34375 L 8.21875 -11.3125 L 8.375 -15.3125 C 8.375 -17.070312 8.195312 -20.992188 7.84375 -27.078125 C 7.488281 -33.148438 7.3125 -37.066406 7.3125 -38.828125 C 7.3125 -38.984375 7.320312 -39.273438 7.34375 -39.703125 C 7.375 -40.128906 7.390625 -40.796875 7.390625 -41.703125 C 7.441406 -42.703125 7.46875 -43.929688 7.46875 -45.390625 C 7.46875 -49.066406 7.21875 -51.40625 6.71875 -52.40625 C 6.414062 -52.40625 5.757812 -52.332031 4.75 -52.1875 L 2.640625 -52.03125 C 1.984375 -52.03125 1.40625 -52.21875 0.90625 -52.59375 C 0.40625 -52.96875 0.15625 -53.457031 0.15625 -54.0625 C 0.15625 -54.664062 0.753906 -55.195312 1.953125 -55.65625 C 3.710938 -56.257812 6.707031 -56.6875 10.9375 -56.9375 C 12.644531 -57.03125 13.675781 -57.078125 14.03125 -57.078125 C 14.632812 -57.078125 15.1875 -56.875 15.6875 -56.46875 C 16.1875 -56.070312 16.4375 -55.570312 16.4375 -54.96875 C 16.4375 -54.363281 16.222656 -53.875 15.796875 -53.5 C 15.367188 -53.125 14.828125 -52.9375 14.171875 -52.9375 L 12.8125 -53.015625 C 12.414062 -53.066406 11.96875 -53.09375 11.46875 -53.09375 L 10.703125 -53.09375 C 11.054688 -49.664062 11.234375 -46.570312 11.234375 -43.8125 L 11.15625 -38.984375 C 11.101562 -37.523438 11.078125 -35.890625 11.078125 -34.078125 C 11.078125 -31.671875 11.179688 -28.78125 11.390625 -25.40625 C 11.640625 -21.238281 11.765625 -18.347656 11.765625 -16.734375 C 11.765625 -14.828125 11.863281 -12.566406 12.0625 -9.953125 C 12.257812 -7.285156 12.359375 -5.023438 12.359375 -3.171875 C 12.359375 -0.703125 11.632812 0.53125 10.1875 0.53125 Z M 10.1875 0.53125 "/></g></g></g></svg>