<svg xmlns="http://www.w3.org/2000/svg" xmlns:xlink="http://www.w3.org/1999/xlink" width="1920" zoomAndPan="magnify" viewBox="0 0 1440 809.999993" height="1080" preserveAspectRatio="xMidYMid meet" version="1.0"><defs><clipPath id="1ab25d7b29"><path d="M 238 0 L 1440 0 L 1440 343 L 238 343 Z M 238 0 " clip-rule="nonzero"/></clipPath><clipPath id="09546e25f7"><path d="M 2171.070312 304.929688 L 265.484375 384.566406 L 238.144531 -269.613281 L 2143.730469 -349.25 Z M 2171.070312 304.929688 " clip-rule="nonzero"/></clipPath><clipPath id="801ac4a5a3"><path d="M 2171.070312 304.929688 L 265.484375 384.566406 L 238.144531 -269.613281 L 2143.730469 -349.25 Z M 2171.070312 304.929688 " clip-rule="nonzero"/></clipPath><clipPath id="6c856f3344"><path d="M 0 0 L 1440 0 L 1440 217 L 0 217 Z M 0 0 " clip-rule="nonzero"/></clipPath><clipPath id="9cc2507d7a"><path d="M -182.582031 -301.839844 L 3944.140625 -974.898438 L 4074.527344 -175.460938 L -52.199219 497.597656 Z M -182.582031 -301.839844 " clip-rule="nonzero"/></clipPath><clipPath id="a635e0b1d4"><path d="M -182.582031 -301.839844 L 3944.140625 -974.898438 L 4074.527344 -175.460938 L -52.199219 497.597656 Z M -182.582031 -301.839844 " clip-rule="nonzero"/></clipPath></defs><g clip-path="url(#1ab25d7b29)"><g clip-path="url(#09546e25f7)"><g clip-path="url(#801ac4a5a3)"><path fill="#c5dce4" d="M 2165.761719 177.898438 L 2101.730469 168.269531 C 2037.695312 158.433594 1909.636719 139.183594 1783.277344 160.582031 C 1656.929688 182.195312 1532.285156 244.667969 1406.757812 285.96875 C 1281.230469 327.269531 1154.820312 347.398438 1027.34375 342.121094 C 899.871094 336.84375 771.335938 306.160156 642.269531 262.773438 C 513.203125 219.386719 383.605469 163.296875 318.808594 135.253906 L 254.007812 107.207031 L 238.261719 -269.652344 L 301.777344 -272.304688 C 365.292969 -274.960938 492.324219 -280.269531 619.355469 -285.578125 C 746.386719 -290.886719 873.417969 -296.195312 1000.449219 -301.503906 C 1127.480469 -306.8125 1254.511719 -312.121094 1381.542969 -317.429688 C 1508.574219 -322.738281 1635.605469 -328.046875 1762.636719 -333.355469 C 1889.667969 -338.664062 2016.699219 -343.972656 2080.214844 -346.628906 L 2143.730469 -349.285156 Z M 2165.761719 177.898438 " fill-opacity="1" fill-rule="nonzero"/></g></g></g><path fill="#8cb0bc" d="M 1946.460938 514.101562 L 1946.460938 2.277344 L -233.359375 2.277344 L -233.359375 219.386719 C -233.359375 224.148438 -235.09375 233.234375 -232.460938 237.359375 C -227.988281 244.367188 -211.117188 248.582031 -203.714844 251.917969 C -176.710938 264.089844 -148.949219 273.683594 -120.882812 283.039062 C -1.8125 322.730469 124.523438 340.359375 249.6875 331.789062 C 456.867188 317.601562 660.324219 268.496094 866.140625 241.429688 C 1054.921875 216.605469 1244.003906 217.878906 1432.023438 248.964844 C 1531.453125 265.398438 1632.984375 288.148438 1724.992188 330.394531 C 1781.546875 356.359375 1836.414062 395.890625 1880.191406 439.984375 C 1895.265625 455.167969 1909.445312 471.734375 1923.421875 487.941406 C 1930.710938 496.390625 1937.605469 507.324219 1946.460938 514.101562 Z M 1946.460938 514.101562 " fill-opacity="1" fill-rule="nonzero"/><g clip-path="url(#6c856f3344)"><g clip-path="url(#9cc2507d7a)"><g clip-path="url(#a635e0b1d4)"><path fill="#235161" d="M 3951.910156 -754.25 C 3832.773438 -831.25 3691.03125 -841.605469 3554.882812 -809.6875 C 3402.566406 -774.265625 3271.136719 -686.316406 3144.21875 -598.320312 C 3010.941406 -505.734375 2875.339844 -408.257812 2714.90625 -368.910156 C 2561.246094 -331.097656 2425.550781 -377.21875 2287.359375 -441.832031 C 2164.875 -498.949219 2039.304688 -559.03125 1900.863281 -551.804688 C 1772.089844 -544.847656 1654.945312 -483.078125 1547.394531 -416.191406 C 1435.878906 -346.492188 1328.449219 -265.578125 1204.417969 -218.898438 C 1048.476562 -159.992188 887.707031 -189.703125 733.480469 -239.390625 C 565.675781 -293.105469 395.449219 -367.5 215.363281 -353.996094 C 73.535156 -343.613281 -67.324219 -275.71875 -135.597656 -146.121094 C -142.746094 -133.074219 -139.863281 -121.230469 -132.320312 -112.75 C -135.230469 -106.117188 -135.734375 -98.578125 -133.0625 -90.167969 L -67.8125 123.796875 C -60.148438 148.996094 -27 150.179688 -11.238281 133.039062 C 85.640625 27.832031 246.628906 50.917969 367.507812 92.859375 C 507.992188 141.753906 638.800781 200.980469 789.136719 212.972656 C 931.015625 224.171875 1074.5625 205.183594 1207.691406 155.285156 C 1342.105469 104.746094 1456.042969 17.480469 1580.882812 -51.355469 C 1702.40625 -118.699219 1829.878906 -147.46875 1967.851562 -129.90625 C 2092.929688 -113.796875 2213.316406 -72.207031 2333.707031 -35.90625 C 2452.695312 -0.246094 2574.425781 30.976562 2699.609375 28.597656 C 2838.835938 26.183594 2967.460938 -27.402344 3085.957031 -97.371094 C 3222.949219 -177.820312 3347.90625 -281.015625 3494.898438 -343.753906 C 3632.363281 -402.683594 3790.171875 -431.542969 3927.792969 -357.125 C 3953.804688 -343.328125 3975.023438 -367.429688 3973.414062 -390.582031 C 3974.894531 -394.8125 3975.554688 -399.253906 3975.558594 -404.546875 C 3969.429688 -507.003906 3963.722656 -609.53125 3957.578125 -712.070312 C 3967.820312 -724.234375 3969.683594 -742.578125 3951.910156 -754.25 Z M 3951.910156 -754.25 " fill-opacity="1" fill-rule="nonzero"/></g></g></g></svg>