<svg xmlns="http://www.w3.org/2000/svg" xmlns:xlink="http://www.w3.org/1999/xlink" width="163" zoomAndPan="magnify" viewBox="0 0 122.25 92.249997" height="123" preserveAspectRatio="xMidYMid meet" version="1.0"><defs><clipPath id="d6a5054768"><path d="M 9 88 L 98 88 L 98 91.507812 L 9 91.507812 Z M 9 88 " clip-rule="nonzero"/></clipPath><clipPath id="2cbc290c0a"><path d="M 115 42 L 121.386719 42 L 121.386719 49 L 115 49 Z M 115 42 " clip-rule="nonzero"/></clipPath><clipPath id="afc4dcc967"><path d="M 0.121094 75 L 5 75 L 5 81 L 0.121094 81 Z M 0.121094 75 " clip-rule="nonzero"/></clipPath></defs><path fill="#eef1f3" d="M 17.464844 35.546875 C 20.777344 34.21875 24.402344 33.617188 27.460938 31.785156 C 34.453125 27.59375 36.40625 18.527344 41.042969 11.832031 C 45.992188 4.679688 54.535156 0.144531 63.242188 0.0429688 C 66.425781 0.0078125 69.679688 0.550781 72.46875 2.082031 C 75.261719 3.613281 77.550781 6.214844 78.253906 9.316406 C 79.0625 12.875 77.808594 16.851562 79.46875 20.105469 C 81.613281 24.304688 87.171875 24.96875 91.675781 26.398438 C 101.058594 29.375 108.285156 38.21875 109.320312 47.992188 C 110.355469 57.761719 105.140625 67.917969 96.585938 72.785156 C 88.074219 77.632812 77.476562 77.199219 67.988281 74.757812 C 64.632812 73.894531 61.277344 72.792969 57.8125 72.835938 C 49.855469 72.941406 42.992188 78.253906 35.015625 78.832031 C 29.363281 79.242188 22.8125 78.851562 17.175781 77.996094 C 5.570312 76.230469 0.296875 62.039062 3.207031 51.726562 C 5.222656 44.59375 10.523438 38.320312 17.464844 35.546875 Z M 17.464844 35.546875 " fill-opacity="1" fill-rule="nonzero"/><path fill="#acaeb0" d="M 86.019531 22.945312 C 86.496094 22.855469 87.074219 23.148438 87.109375 23.632812 C 87.136719 23.96875 86.914062 24.332031 87.089844 24.621094 C 87.230469 24.855469 87.574219 24.890625 87.820312 24.769531 C 88.066406 24.648438 88.234375 24.417969 88.394531 24.195312 L 90.261719 21.558594 C 90.621094 21.050781 91.253906 20.484375 91.769531 20.832031 C 92.597656 21.390625 91.3125 22.972656 92.078125 23.605469 C 92.542969 23.992188 93.210938 23.570312 93.804688 23.453125 C 94.960938 23.21875 96.066406 24.425781 95.984375 25.601562 C 95.902344 26.777344 94.910156 27.746094 93.785156 28.109375 C 93.300781 28.269531 92.679688 28.441406 92.601562 28.945312 C 92.535156 29.359375 92.898438 29.703125 93.117188 30.0625 C 93.542969 30.773438 93.378906 31.785156 92.742188 32.320312 C 92.105469 32.855469 91.078125 32.847656 90.449219 32.308594 C 90.027344 31.945312 89.78125 31.394531 89.300781 31.121094 C 88.816406 30.851562 87.984375 31.230469 88.199219 31.742188 C 88.277344 31.9375 88.484375 32.058594 88.585938 32.246094 C 88.847656 32.734375 88.261719 33.253906 87.730469 33.421875 C 85.085938 34.257812 82.019531 32.1875 81.980469 29.34375 C 81.957031 27.535156 84.117188 23.296875 86.019531 22.945312 Z M 86.019531 22.945312 " fill-opacity="1" fill-rule="nonzero"/><path fill="#acaeb0" d="M 85.792969 29.785156 C 83.429688 30.703125 80.152344 31.53125 76.601562 31.097656 L 76.554688 31.371094 C 77.664062 31.507812 78.777344 31.535156 79.890625 31.449219 C 81.84375 31.300781 83.863281 30.828125 85.890625 30.039062 C 89.339844 28.695312 91.648438 26.878906 91.671875 26.859375 C 91.742188 26.804688 91.746094 26.742188 91.691406 26.671875 C 91.636719 26.601562 91.574219 26.59375 91.503906 26.648438 C 91.480469 26.664062 89.203125 28.457031 85.792969 29.785156 Z M 85.792969 29.785156 " fill-opacity="1" fill-rule="nonzero"/><path fill="#acaeb0" d="M 75.46875 21.496094 C 75.644531 21.191406 76.082031 21.011719 76.363281 21.21875 C 76.5625 21.363281 76.660156 21.660156 76.902344 21.699219 C 77.097656 21.730469 77.28125 21.558594 77.328125 21.367188 C 77.378906 21.171875 77.328125 20.972656 77.28125 20.777344 C 77.085938 20.019531 76.894531 19.261719 76.703125 18.503906 C 76.59375 18.066406 76.578125 17.449219 77.011719 17.328125 C 77.710938 17.136719 77.980469 18.59375 78.695312 18.46875 C 79.125 18.394531 79.207031 17.828125 79.421875 17.445312 C 79.839844 16.699219 81.03125 16.65625 81.640625 17.257812 C 82.253906 17.859375 82.320312 18.863281 81.992188 19.65625 C 81.851562 19.996094 81.65625 20.417969 81.894531 20.699219 C 82.09375 20.933594 82.453125 20.894531 82.757812 20.945312 C 83.351562 21.046875 83.832031 21.613281 83.832031 22.214844 C 83.828125 22.820312 83.339844 23.382812 82.742188 23.472656 C 82.34375 23.535156 81.921875 23.410156 81.542969 23.550781 C 81.167969 23.6875 80.984375 24.324219 81.367188 24.449219 C 81.511719 24.496094 81.675781 24.4375 81.828125 24.472656 C 82.222656 24.558594 82.234375 25.128906 82.078125 25.5 C 81.292969 27.351562 78.699219 28.0625 77.105469 26.742188 C 76.09375 25.902344 74.765625 22.714844 75.46875 21.496094 Z M 75.46875 21.496094 " fill-opacity="1" fill-rule="nonzero"/><path fill="#acaeb0" d="M 79.148438 24.851562 C 78.542969 26.585938 77.457031 28.78125 75.539062 30.535156 L 75.667969 30.6875 C 76.269531 30.140625 76.808594 29.542969 77.285156 28.886719 C 78.125 27.742188 78.816406 26.40625 79.335938 24.914062 C 80.21875 22.382812 80.304688 20.25 80.304688 20.230469 C 80.320312 20.152344 80.289062 20.113281 80.210938 20.109375 C 80.132812 20.109375 80.097656 20.144531 80.109375 20.222656 C 80.105469 20.242188 80.023438 22.34375 79.148438 24.851562 Z M 79.148438 24.851562 " fill-opacity="1" fill-rule="nonzero"/><g clip-path="url(#d6a5054768)"><path fill="#e4e4e6" d="M 97.0625 89.96875 C 97.0625 90.019531 96.992188 90.070312 96.851562 90.121094 C 96.710938 90.167969 96.503906 90.21875 96.222656 90.269531 C 95.945312 90.316406 95.597656 90.367188 95.179688 90.414062 C 94.765625 90.460938 94.285156 90.507812 93.738281 90.554688 C 93.191406 90.601562 92.578125 90.648438 91.902344 90.691406 C 91.230469 90.734375 90.496094 90.777344 89.699219 90.820312 C 88.90625 90.863281 88.054688 90.902344 87.144531 90.941406 C 86.238281 90.980469 85.277344 91.015625 84.265625 91.050781 C 83.253906 91.085938 82.195312 91.121094 81.089844 91.152344 C 79.984375 91.183594 78.835938 91.214844 77.648438 91.242188 C 76.457031 91.269531 75.230469 91.296875 73.96875 91.320312 C 72.707031 91.34375 71.414062 91.363281 70.09375 91.382812 C 68.773438 91.402344 67.425781 91.421875 66.058594 91.433594 C 64.6875 91.449219 63.300781 91.460938 61.898438 91.472656 C 60.496094 91.480469 59.082031 91.488281 57.65625 91.492188 C 56.234375 91.5 54.804688 91.5 53.375 91.5 C 51.945312 91.5 50.515625 91.5 49.09375 91.492188 C 47.667969 91.488281 46.257812 91.480469 44.851562 91.472656 C 43.449219 91.460938 42.0625 91.449219 40.695312 91.433594 C 39.324219 91.421875 37.980469 91.402344 36.65625 91.382812 C 35.335938 91.363281 34.042969 91.34375 32.78125 91.320312 C 31.519531 91.296875 30.292969 91.269531 29.105469 91.242188 C 27.914062 91.214844 26.765625 91.183594 25.660156 91.152344 C 24.554688 91.121094 23.496094 91.085938 22.484375 91.050781 C 21.472656 91.015625 20.511719 90.980469 19.605469 90.941406 C 18.699219 90.902344 17.847656 90.863281 17.050781 90.820312 C 16.257812 90.777344 15.523438 90.734375 14.847656 90.691406 C 14.171875 90.648438 13.5625 90.601562 13.015625 90.554688 C 12.464844 90.507812 11.984375 90.460938 11.570312 90.414062 C 11.15625 90.367188 10.808594 90.316406 10.527344 90.269531 C 10.25 90.21875 10.039062 90.167969 9.898438 90.121094 C 9.757812 90.070312 9.6875 90.019531 9.6875 89.96875 C 9.6875 89.917969 9.757812 89.867188 9.898438 89.820312 C 10.039062 89.769531 10.25 89.71875 10.527344 89.671875 C 10.808594 89.621094 11.15625 89.574219 11.570312 89.523438 C 11.984375 89.476562 12.464844 89.429688 13.015625 89.382812 C 13.5625 89.335938 14.171875 89.292969 14.847656 89.246094 C 15.523438 89.203125 16.257812 89.160156 17.050781 89.117188 C 17.847656 89.078125 18.699219 89.035156 19.605469 88.996094 C 20.511719 88.960938 21.472656 88.921875 22.484375 88.886719 C 23.496094 88.851562 24.554688 88.816406 25.660156 88.785156 C 26.765625 88.753906 27.914062 88.722656 29.105469 88.695312 C 30.292969 88.667969 31.519531 88.640625 32.78125 88.617188 C 34.042969 88.59375 35.335938 88.574219 36.65625 88.554688 C 37.980469 88.535156 39.324219 88.519531 40.695312 88.503906 C 42.0625 88.488281 43.449219 88.476562 44.851562 88.46875 C 46.257812 88.457031 47.667969 88.449219 49.09375 88.445312 C 50.515625 88.441406 51.945312 88.4375 53.375 88.4375 C 54.804688 88.4375 56.234375 88.441406 57.65625 88.445312 C 59.082031 88.449219 60.496094 88.457031 61.898438 88.46875 C 63.300781 88.476562 64.6875 88.488281 66.058594 88.503906 C 67.425781 88.519531 68.773438 88.535156 70.09375 88.554688 C 71.414062 88.574219 72.707031 88.59375 73.96875 88.617188 C 75.230469 88.640625 76.457031 88.667969 77.648438 88.695312 C 78.835938 88.722656 79.984375 88.753906 81.089844 88.785156 C 82.195312 88.816406 83.253906 88.851562 84.265625 88.886719 C 85.277344 88.921875 86.238281 88.960938 87.144531 88.996094 C 88.054688 89.035156 88.90625 89.078125 89.699219 89.117188 C 90.496094 89.160156 91.230469 89.203125 91.902344 89.246094 C 92.578125 89.292969 93.191406 89.335938 93.738281 89.382812 C 94.285156 89.429688 94.765625 89.476562 95.179688 89.523438 C 95.597656 89.574219 95.945312 89.621094 96.222656 89.671875 C 96.503906 89.71875 96.710938 89.769531 96.851562 89.820312 C 96.992188 89.867188 97.0625 89.917969 97.0625 89.96875 Z M 97.0625 89.96875 " fill-opacity="1" fill-rule="nonzero"/></g><path fill="#cf8e74" d="M 73.121094 55.0625 C 72.832031 54.824219 72.699219 54.527344 72.328125 54.472656 C 71.871094 54.40625 71.222656 54.269531 70.792969 54.003906 C 70.714844 53.957031 70.671875 53.886719 70.667969 53.792969 C 70.664062 53.703125 70.695312 53.628906 70.765625 53.570312 C 71.238281 53.1875 72.300781 52.445312 73.871094 54.441406 Z M 73.121094 55.0625 " fill-opacity="1" fill-rule="nonzero"/><path fill="#cf8e74" d="M 90.457031 63.472656 C 90.433594 63.847656 90.5625 64.148438 90.34375 64.453125 C 90.078125 64.832031 89.730469 65.394531 89.628906 65.886719 C 89.609375 65.976562 89.632812 66.054688 89.695312 66.121094 C 89.757812 66.1875 89.835938 66.214844 89.925781 66.203125 C 90.53125 66.125 91.800781 65.867188 91.429688 63.359375 Z M 90.457031 63.472656 " fill-opacity="1" fill-rule="nonzero"/><path fill="#cf8e74" d="M 78.328125 88.238281 L 79.175781 88.308594 L 79.09375 89.296875 L 78.246094 89.226562 Z M 78.328125 88.238281 " fill-opacity="1" fill-rule="nonzero"/><path fill="#222431" d="M 77.910156 88.945312 C 77.675781 89.367188 76.972656 89.664062 76.277344 89.964844 C 76.183594 90.023438 76.15625 90.101562 76.183594 90.207031 C 76.214844 90.308594 76.285156 90.359375 76.390625 90.359375 L 79.277344 90.324219 C 79.410156 90.324219 79.472656 90.257812 79.46875 90.125 L 79.429688 88.988281 C 79.425781 88.933594 79.402344 88.898438 79.355469 88.875 C 79.308594 88.851562 79.265625 88.855469 79.222656 88.886719 C 78.988281 89.054688 78.5625 89.242188 78.042969 88.941406 C 77.996094 88.914062 77.953125 88.917969 77.910156 88.945312 Z M 77.910156 88.945312 " fill-opacity="1" fill-rule="nonzero"/><path fill="#cf8e74" d="M 86.183594 88.222656 L 87.03125 88.292969 L 86.910156 89.75 L 86.0625 89.683594 Z M 86.183594 88.222656 " fill-opacity="1" fill-rule="nonzero"/><path fill="#222431" d="M 85.878906 88.941406 C 85.644531 89.363281 84.9375 89.660156 84.246094 89.960938 C 84.152344 90.019531 84.121094 90.101562 84.152344 90.203125 C 84.183594 90.304688 84.253906 90.355469 84.359375 90.355469 L 87.246094 90.324219 C 87.378906 90.324219 87.441406 90.253906 87.4375 90.125 L 87.398438 88.984375 C 87.394531 88.933594 87.371094 88.894531 87.324219 88.875 C 87.277344 88.851562 87.234375 88.855469 87.191406 88.882812 C 86.957031 89.050781 86.527344 89.238281 86.007812 88.9375 C 85.964844 88.914062 85.921875 88.914062 85.878906 88.941406 Z M 85.878906 88.941406 " fill-opacity="1" fill-rule="nonzero"/><path fill="#34374b" d="M 79.074219 64.9375 L 77.621094 76.863281 C 77.585938 77.128906 77.566406 77.390625 77.550781 77.65625 L 77.054688 88.09375 C 77.050781 88.210938 77.085938 88.3125 77.164062 88.398438 C 77.242188 88.488281 77.339844 88.535156 77.457031 88.542969 L 79.753906 88.699219 C 79.867188 88.707031 79.964844 88.675781 80.054688 88.605469 C 80.140625 88.535156 80.195312 88.445312 80.210938 88.335938 C 80.4375 86.828125 81.234375 81.34375 81.324219 78.398438 C 81.335938 78.046875 81.378906 77.699219 81.453125 77.355469 L 83.371094 68.6875 L 84.015625 78.976562 L 84.921875 88.136719 C 84.933594 88.242188 84.972656 88.332031 85.050781 88.40625 C 85.125 88.480469 85.214844 88.523438 85.320312 88.53125 L 87.53125 88.6875 C 87.652344 88.695312 87.753906 88.660156 87.84375 88.582031 C 87.933594 88.503906 87.984375 88.40625 87.992188 88.289062 C 88.101562 86.742188 88.351562 81.773438 88.03125 79.460938 C 87.9375 78.796875 87.910156 78.125 87.949219 77.457031 L 88.632812 64.292969 Z M 79.074219 64.9375 " fill-opacity="1" fill-rule="nonzero"/><path fill="#2b2d3c" d="M 83.664062 51.21875 L 83.3125 51.972656 C 83.3125 51.972656 87.128906 52.882812 87.449219 49.910156 C 87.449219 49.910156 87.707031 45.707031 85.429688 44.886719 C 85.429688 44.886719 83.472656 44.40625 82.285156 45.941406 C 82.285156 45.941406 78.277344 47.605469 82.960938 51.378906 L 83.632812 49.714844 Z M 83.664062 51.21875 " fill-opacity="1" fill-rule="nonzero"/><path fill="#c4866e" d="M 84.640625 50.261719 L 83.246094 50.261719 L 83.542969 48.980469 L 84.347656 48.980469 Z M 84.640625 50.261719 " fill-opacity="1" fill-rule="nonzero"/><path fill="#cf8e74" d="M 84.265625 47.402344 L 83.128906 46.78125 C 83.027344 46.726562 82.925781 46.714844 82.816406 46.75 C 82.707031 46.78125 82.628906 46.851562 82.578125 46.949219 C 82.3125 47.484375 82.027344 48.535156 83.171875 49.53125 C 83.285156 49.625 83.414062 49.667969 83.5625 49.660156 C 84.027344 49.625 85.050781 49.410156 84.828125 48.179688 C 84.761719 47.832031 84.574219 47.574219 84.265625 47.402344 Z M 84.265625 47.402344 " fill-opacity="1" fill-rule="nonzero"/><path fill="#cf8e74" d="M 85.292969 48.113281 C 85.292969 48.234375 85.253906 48.332031 85.179688 48.417969 C 85.101562 48.5 85.011719 48.542969 84.902344 48.542969 C 84.796875 48.542969 84.707031 48.5 84.628906 48.417969 C 84.554688 48.332031 84.515625 48.234375 84.515625 48.113281 C 84.515625 47.996094 84.554688 47.894531 84.628906 47.8125 C 84.707031 47.730469 84.796875 47.6875 84.902344 47.6875 C 85.011719 47.6875 85.101562 47.730469 85.179688 47.8125 C 85.253906 47.894531 85.292969 47.996094 85.292969 48.113281 Z M 85.292969 48.113281 " fill-opacity="1" fill-rule="nonzero"/><path fill="#e6c368" d="M 91.753906 64.113281 L 90.261719 64.144531 C 90.160156 64.148438 90.074219 64.113281 90 64.042969 C 89.925781 63.976562 89.886719 63.890625 89.878906 63.792969 L 89.777344 61.710938 C 89.730469 60.796875 89.503906 59.933594 89.089844 59.113281 L 88.5625 58.054688 C 88.851562 58.632812 88.890625 63.390625 88.894531 64.652344 C 88.894531 64.863281 88.796875 65.003906 88.597656 65.074219 C 84.625 66.496094 80.113281 65.445312 78.871094 65.105469 C 78.644531 65.042969 78.535156 64.898438 78.542969 64.664062 C 78.574219 63.746094 78.699219 62.078125 78.824219 60.5625 C 78.96875 58.828125 79.109375 57.292969 79.109375 57.292969 C 77.988281 58.636719 75.921875 58.652344 74.777344 57.324219 L 72.875 55.109375 C 72.738281 54.945312 72.738281 54.785156 72.878906 54.621094 L 73.464844 53.953125 C 73.601562 53.796875 73.757812 53.773438 73.933594 53.878906 L 76.371094 55.3125 C 76.5 55.390625 76.632812 55.410156 76.777344 55.382812 C 76.925781 55.351562 77.039062 55.277344 77.128906 55.160156 L 79.4375 52.03125 C 79.917969 51.378906 80.535156 50.90625 81.289062 50.609375 L 81.476562 50.53125 C 82.125 50.277344 82.800781 50.148438 83.496094 50.148438 L 84.164062 50.148438 C 84.558594 50.148438 84.949219 50.191406 85.335938 50.273438 C 85.375 50.28125 85.417969 50.292969 85.460938 50.304688 C 85.796875 50.382812 86.125 50.496094 86.441406 50.640625 C 87.238281 51.003906 87.902344 51.617188 88.351562 52.371094 L 90.371094 55.773438 C 91.296875 57.324219 91.816406 59.003906 91.929688 60.804688 L 92.113281 63.714844 C 92.121094 63.820312 92.089844 63.914062 92.019531 63.992188 C 91.949219 64.070312 91.859375 64.109375 91.753906 64.113281 Z M 91.753906 64.113281 " fill-opacity="1" fill-rule="nonzero"/><path fill="#c0a258" d="M 79.765625 55.398438 L 79.675781 55.398438 C 79.675781 54.859375 80.296875 53.40625 80.324219 53.34375 L 80.40625 53.382812 C 80.402344 53.398438 79.765625 54.878906 79.765625 55.398438 Z M 79.765625 55.398438 " fill-opacity="1" fill-rule="nonzero"/><path fill="#c0a258" d="M 87.929688 56.578125 L 87.835938 56.578125 C 87.835938 55.75 86.996094 54.796875 86.988281 54.789062 L 87.058594 54.726562 C 87.09375 54.765625 87.929688 55.714844 87.929688 56.578125 Z M 87.929688 56.578125 " fill-opacity="1" fill-rule="nonzero"/><path fill="#c4866e" d="M 85.460938 50.304688 C 85.363281 50.835938 84.703125 51.246094 83.902344 51.246094 C 83.085938 51.246094 82.414062 50.820312 82.335938 50.273438 C 82.71875 50.191406 83.105469 50.148438 83.5 50.148438 L 84.167969 50.148438 C 84.5625 50.148438 84.953125 50.191406 85.335938 50.273438 C 85.378906 50.285156 85.421875 50.292969 85.460938 50.304688 Z M 85.460938 50.304688 " fill-opacity="1" fill-rule="nonzero"/><path fill="#20212a" d="M 83.289062 68.183594 C 83.277344 68.183594 83.273438 68.175781 83.269531 68.164062 L 83.070312 67.011719 L 83.207031 66.679688 C 83.210938 66.664062 83.21875 66.660156 83.234375 66.667969 C 83.246094 66.671875 83.25 66.679688 83.246094 66.695312 L 83.117188 67.015625 L 83.3125 68.15625 C 83.316406 68.171875 83.308594 68.179688 83.292969 68.179688 Z M 83.289062 68.183594 " fill-opacity="1" fill-rule="nonzero"/><path fill="#c3c6c7" d="M 26.644531 18.164062 C 26.128906 18.164062 25.636719 18.261719 25.160156 18.457031 C 24.683594 18.65625 24.261719 18.9375 23.898438 19.300781 C 23.535156 19.664062 23.253906 20.082031 23.054688 20.558594 C 22.859375 21.03125 22.757812 21.527344 22.757812 22.042969 C 22.757812 22.554688 22.859375 23.050781 23.054688 23.527344 C 23.253906 24 23.535156 24.421875 23.898438 24.785156 C 24.261719 25.148438 24.683594 25.429688 25.160156 25.625 C 25.636719 25.820312 26.132812 25.917969 26.644531 25.917969 C 27.160156 25.917969 27.65625 25.820312 28.132812 25.625 C 28.609375 25.425781 29.03125 25.148438 29.394531 24.785156 C 29.757812 24.417969 30.039062 24 30.238281 23.523438 C 30.433594 23.050781 30.53125 22.554688 30.53125 22.042969 C 30.53125 21.527344 30.433594 21.03125 30.238281 20.558594 C 30.039062 20.082031 29.757812 19.664062 29.394531 19.300781 C 29.03125 18.933594 28.609375 18.65625 28.132812 18.457031 C 27.65625 18.261719 27.160156 18.164062 26.644531 18.164062 Z M 26.644531 25.675781 C 26.164062 25.675781 25.699219 25.585938 25.25 25.398438 C 24.804688 25.214844 24.410156 24.953125 24.070312 24.613281 C 23.726562 24.269531 23.464844 23.878906 23.28125 23.433594 C 23.09375 22.988281 23.003906 22.523438 23.003906 22.042969 C 23.003906 21.558594 23.09375 21.09375 23.28125 20.648438 C 23.464844 20.203125 23.726562 19.8125 24.070312 19.46875 C 24.410156 19.128906 24.804688 18.867188 25.25 18.683594 C 25.699219 18.496094 26.164062 18.40625 26.644531 18.40625 C 27.128906 18.40625 27.59375 18.496094 28.039062 18.683594 C 28.488281 18.867188 28.878906 19.128906 29.222656 19.46875 C 29.5625 19.8125 29.828125 20.203125 30.011719 20.648438 C 30.195312 21.09375 30.289062 21.558594 30.289062 22.042969 C 30.289062 22.523438 30.195312 22.988281 30.011719 23.433594 C 29.828125 23.878906 29.5625 24.269531 29.222656 24.613281 C 28.882812 24.953125 28.488281 25.214844 28.039062 25.398438 C 27.59375 25.585938 27.128906 25.675781 26.644531 25.675781 Z M 26.644531 25.675781 " fill-opacity="1" fill-rule="nonzero"/><g clip-path="url(#2cbc290c0a)"><path fill="#c3c6c7" d="M 118.621094 42.710938 C 118.257812 42.710938 117.902344 42.78125 117.566406 42.921875 C 117.226562 43.0625 116.929688 43.261719 116.667969 43.519531 C 116.410156 43.777344 116.210938 44.074219 116.070312 44.414062 C 115.929688 44.75 115.859375 45.101562 115.859375 45.46875 C 115.859375 45.832031 115.929688 46.183594 116.070312 46.523438 C 116.210938 46.859375 116.410156 47.15625 116.667969 47.417969 C 116.929688 47.675781 117.226562 47.875 117.566406 48.015625 C 117.902344 48.152344 118.257812 48.222656 118.621094 48.222656 C 118.988281 48.222656 119.339844 48.152344 119.679688 48.015625 C 120.019531 47.875 120.316406 47.675781 120.574219 47.417969 C 120.835938 47.15625 121.035156 46.859375 121.175781 46.523438 C 121.316406 46.183594 121.386719 45.832031 121.386719 45.46875 C 121.386719 45.101562 121.316406 44.75 121.175781 44.414062 C 121.035156 44.074219 120.835938 43.777344 120.574219 43.519531 C 120.316406 43.261719 120.019531 43.0625 119.679688 42.921875 C 119.339844 42.78125 118.988281 42.710938 118.621094 42.710938 Z M 118.621094 48.050781 C 118.28125 48.050781 117.949219 47.984375 117.632812 47.855469 C 117.3125 47.722656 117.035156 47.535156 116.792969 47.292969 C 116.546875 47.050781 116.363281 46.773438 116.230469 46.457031 C 116.097656 46.140625 116.03125 45.808594 116.03125 45.46875 C 116.03125 45.125 116.097656 44.796875 116.230469 44.476562 C 116.363281 44.160156 116.546875 43.882812 116.792969 43.640625 C 117.035156 43.398438 117.3125 43.210938 117.632812 43.078125 C 117.949219 42.949219 118.28125 42.882812 118.621094 42.882812 C 118.964844 42.882812 119.296875 42.949219 119.613281 43.078125 C 119.929688 43.210938 120.210938 43.398438 120.453125 43.640625 C 120.695312 43.882812 120.882812 44.160156 121.015625 44.476562 C 121.148438 44.796875 121.210938 45.125 121.210938 45.46875 C 121.210938 45.808594 121.148438 46.140625 121.015625 46.457031 C 120.882812 46.773438 120.695312 47.050781 120.453125 47.292969 C 120.210938 47.535156 119.929688 47.722656 119.613281 47.855469 C 119.296875 47.984375 118.964844 48.050781 118.621094 48.050781 Z M 118.621094 48.050781 " fill-opacity="1" fill-rule="nonzero"/></g><g clip-path="url(#afc4dcc967)"><path fill="#c3c6c7" d="M 2.292969 75.789062 C 2.007812 75.789062 1.734375 75.84375 1.472656 75.953125 C 1.210938 76.0625 0.976562 76.214844 0.773438 76.417969 C 0.574219 76.617188 0.417969 76.851562 0.308594 77.113281 C 0.199219 77.375 0.144531 77.648438 0.144531 77.933594 C 0.144531 78.21875 0.199219 78.492188 0.308594 78.753906 C 0.417969 79.015625 0.574219 79.25 0.773438 79.449219 C 0.976562 79.652344 1.210938 79.804688 1.472656 79.914062 C 1.734375 80.023438 2.007812 80.078125 2.292969 80.078125 C 2.578125 80.078125 2.855469 80.023438 3.117188 79.914062 C 3.378906 79.804688 3.613281 79.652344 3.8125 79.449219 C 4.015625 79.25 4.171875 79.015625 4.28125 78.753906 C 4.386719 78.492188 4.441406 78.21875 4.441406 77.933594 C 4.441406 77.648438 4.386719 77.375 4.28125 77.113281 C 4.171875 76.851562 4.015625 76.617188 3.8125 76.417969 C 3.613281 76.214844 3.378906 76.0625 3.117188 75.953125 C 2.855469 75.84375 2.578125 75.789062 2.292969 75.789062 Z M 2.292969 79.941406 C 2.027344 79.941406 1.769531 79.890625 1.523438 79.789062 C 1.277344 79.6875 1.058594 79.542969 0.871094 79.355469 C 0.679688 79.167969 0.535156 78.949219 0.433594 78.703125 C 0.332031 78.457031 0.28125 78.199219 0.28125 77.933594 C 0.28125 77.667969 0.332031 77.410156 0.433594 77.164062 C 0.535156 76.917969 0.679688 76.699219 0.871094 76.511719 C 1.058594 76.324219 1.277344 76.179688 1.523438 76.078125 C 1.769531 75.972656 2.027344 75.921875 2.292969 75.921875 C 2.5625 75.921875 2.820312 75.972656 3.066406 76.078125 C 3.3125 76.179688 3.53125 76.324219 3.71875 76.511719 C 3.90625 76.699219 4.054688 76.917969 4.15625 77.164062 C 4.257812 77.410156 4.308594 77.667969 4.308594 77.933594 C 4.308594 78.199219 4.257812 78.457031 4.15625 78.703125 C 4.054688 78.949219 3.90625 79.164062 3.71875 79.355469 C 3.53125 79.542969 3.3125 79.6875 3.066406 79.789062 C 2.820312 79.890625 2.5625 79.941406 2.292969 79.941406 Z M 2.292969 79.941406 " fill-opacity="1" fill-rule="nonzero"/></g><path fill="#141929" d="M 24.355469 48.8125 L 24.347656 48.820312 C 24.574219 51.542969 25.855469 50.054688 26.496094 48.835938 C 26.777344 48.308594 27.171875 47.933594 27.617188 47.769531 C 29.507812 47.183594 28.597656 45.214844 28.597656 45.214844 C 27.972656 43.148438 26.03125 44.027344 25.125 45.03125 C 24.675781 45.351562 24.347656 45.933594 24.222656 46.632812 C 24.070312 47.503906 24.113281 48.042969 24.355469 48.8125 Z M 24.355469 48.8125 " fill-opacity="1" fill-rule="nonzero"/><path fill="#ca8f7a" d="M 28.726562 88.945312 L 27.667969 89.03125 L 27.566406 87.796875 L 28.621094 87.710938 Z M 28.726562 88.945312 " fill-opacity="1" fill-rule="nonzero"/><path fill="#3c3e48" d="M 29.160156 88.59375 C 29.453125 89.121094 30.332031 89.492188 31.199219 89.867188 C 31.425781 90.007812 31.324219 90.359375 31.054688 90.359375 L 27.453125 90.316406 C 27.382812 90.316406 27.328125 90.292969 27.28125 90.242188 C 27.234375 90.195312 27.210938 90.136719 27.214844 90.070312 L 27.265625 88.648438 C 27.265625 88.582031 27.296875 88.535156 27.355469 88.507812 C 27.414062 88.480469 27.46875 88.484375 27.519531 88.523438 C 27.8125 88.730469 28.347656 88.964844 28.996094 88.589844 C 29.050781 88.558594 29.105469 88.558594 29.160156 88.59375 Z M 29.160156 88.59375 " fill-opacity="1" fill-rule="nonzero"/><path fill="#ca8f7a" d="M 19.476562 87.542969 L 20.535156 87.609375 L 20.453125 88.847656 L 19.394531 88.777344 Z M 19.476562 87.542969 " fill-opacity="1" fill-rule="nonzero"/><path fill="#3c3e48" d="M 18.953125 88.433594 C 18.671875 88.964844 17.796875 89.351562 16.9375 89.738281 C 16.710938 89.886719 16.820312 90.234375 17.089844 90.230469 L 20.6875 90.132812 C 20.757812 90.128906 20.8125 90.105469 20.859375 90.054688 C 20.90625 90.003906 20.925781 89.945312 20.921875 89.878906 L 20.851562 88.457031 C 20.847656 88.394531 20.816406 88.347656 20.757812 88.320312 C 20.699219 88.292969 20.644531 88.296875 20.589844 88.335938 C 20.300781 88.550781 19.773438 88.792969 19.117188 88.429688 C 19.0625 88.398438 19.007812 88.398438 18.953125 88.433594 Z M 18.953125 88.433594 " fill-opacity="1" fill-rule="nonzero"/><path fill="#be8773" d="M 28.539062 51.515625 L 26.917969 51.515625 L 27.1875 49.539062 L 28.269531 49.539062 Z M 28.539062 51.515625 " fill-opacity="1" fill-rule="nonzero"/><path fill="#7d594b" d="M 23.582031 64.652344 L 18.074219 87.390625 C 18.042969 87.527344 18.070312 87.652344 18.160156 87.761719 C 18.25 87.871094 18.367188 87.925781 18.511719 87.917969 L 21.039062 87.800781 C 21.21875 87.792969 21.34375 87.703125 21.414062 87.535156 C 22.117188 85.816406 26.203125 75.683594 27.417969 69.265625 L 27.417969 77.09375 C 27.417969 77.480469 27.371094 77.863281 27.277344 78.242188 C 26.867188 79.859375 25.78125 84.75 26.757812 87.777344 C 26.828125 87.992188 26.976562 88.089844 27.203125 88.066406 L 28.992188 87.894531 C 29.199219 87.875 29.324219 87.765625 29.367188 87.566406 C 29.929688 85.140625 33.695312 68.625 32.824219 64.574219 Z M 23.582031 64.652344 " fill-opacity="1" fill-rule="nonzero"/><path fill="#594037" d="M 27.574219 68.84375 C 27.570312 68.84375 27.566406 68.84375 27.558594 68.84375 C 27.527344 68.832031 27.515625 68.8125 27.527344 68.78125 L 27.984375 67.335938 L 27.082031 66.886719 C 27.050781 66.871094 27.042969 66.847656 27.058594 66.816406 C 27.074219 66.785156 27.097656 66.78125 27.128906 66.792969 L 28.105469 67.28125 L 27.625 68.808594 C 27.617188 68.832031 27.601562 68.847656 27.574219 68.84375 Z M 27.574219 68.84375 " fill-opacity="1" fill-rule="nonzero"/><path fill="#ca8f7a" d="M 41.203125 48.066406 C 41.523438 47.800781 41.667969 47.472656 42.082031 47.410156 C 42.589844 47.335938 43.3125 47.1875 43.789062 46.890625 C 43.875 46.835938 43.921875 46.757812 43.925781 46.65625 C 43.933594 46.558594 43.894531 46.472656 43.816406 46.410156 C 43.292969 45.984375 42.113281 45.15625 40.371094 47.375 Z M 41.203125 48.066406 " fill-opacity="1" fill-rule="nonzero"/><path fill="#ffffff" d="M 41.367188 48.585938 C 37.230469 51.964844 31.570312 53.398438 31.570312 53.398438 C 32.585938 55.507812 33.3125 64.847656 33.332031 65.023438 C 33.707031 68.300781 24.695312 65.527344 23.171875 65.039062 C 23.027344 64.992188 22.957031 64.890625 22.960938 64.738281 L 23.265625 56.839844 L 22.089844 58.011719 C 21.921875 58.179688 21.808594 58.378906 21.753906 58.609375 C 21.695312 58.839844 21.703125 59.070312 21.769531 59.296875 L 22.394531 61.316406 C 22.453125 61.507812 22.421875 61.683594 22.296875 61.84375 L 21.871094 62.390625 C 21.816406 62.464844 21.746094 62.519531 21.660156 62.558594 C 21.578125 62.597656 21.492188 62.617188 21.398438 62.617188 C 21.304688 62.613281 21.21875 62.589844 21.136719 62.546875 C 21.058594 62.503906 20.988281 62.445312 20.9375 62.367188 L 19.773438 60.710938 C 19.554688 60.402344 19.390625 60.0625 19.28125 59.699219 C 19.171875 59.335938 19.125 58.964844 19.136719 58.585938 C 19.148438 58.203125 19.222656 57.835938 19.351562 57.480469 C 19.484375 57.125 19.671875 56.796875 19.910156 56.5 L 22.394531 53.410156 C 22.613281 53.140625 22.855469 52.898438 23.121094 52.679688 L 23.433594 52.429688 C 24.316406 51.710938 25.320312 51.265625 26.445312 51.089844 C 26.507812 51.082031 26.566406 51.070312 26.628906 51.066406 L 28.859375 50.785156 L 29.847656 50.664062 C 35.261719 50.203125 38.949219 47.410156 39.976562 46.542969 C 40.054688 46.476562 40.140625 46.453125 40.242188 46.46875 C 40.34375 46.484375 40.421875 46.535156 40.472656 46.621094 L 41.441406 48.148438 C 41.542969 48.316406 41.519531 48.460938 41.367188 48.585938 Z M 41.367188 48.585938 " fill-opacity="1" fill-rule="nonzero"/><path fill="#b8b8b8" d="M 23.738281 56.261719 C 23.714844 56.261719 23.703125 56.253906 23.691406 56.234375 C 23.683594 56.21875 23.683594 56.199219 23.695312 56.183594 L 24.636719 54.855469 C 24.65625 54.828125 24.679688 54.824219 24.707031 54.84375 C 24.734375 54.863281 24.738281 54.886719 24.71875 54.914062 L 23.777344 56.242188 C 23.769531 56.253906 23.753906 56.261719 23.738281 56.261719 Z M 23.738281 56.261719 " fill-opacity="1" fill-rule="nonzero"/><path fill="#b8b8b8" d="M 31.257812 53.292969 C 31.230469 53.292969 31.214844 53.28125 31.207031 53.253906 L 30.972656 52.316406 C 30.964844 52.285156 30.976562 52.261719 31.007812 52.253906 C 31.042969 52.246094 31.0625 52.257812 31.070312 52.292969 L 31.304688 53.230469 C 31.3125 53.261719 31.300781 53.28125 31.269531 53.289062 C 31.265625 53.292969 31.261719 53.292969 31.257812 53.292969 Z M 31.257812 53.292969 " fill-opacity="1" fill-rule="nonzero"/><path fill="#be8773" d="M 27.894531 52.859375 C 27.203125 52.945312 26.554688 52.339844 26.449219 51.503906 C 26.429688 51.367188 26.429688 51.230469 26.445312 51.089844 C 26.503906 51.082031 26.566406 51.070312 26.628906 51.066406 L 28.855469 50.789062 C 28.90625 50.917969 28.9375 51.050781 28.953125 51.1875 C 29.0625 52.023438 28.585938 52.769531 27.894531 52.859375 Z M 27.894531 52.859375 " fill-opacity="1" fill-rule="nonzero"/><path fill="#ca8f7a" d="M 21.675781 62.554688 C 21.941406 62.875 22.273438 63.019531 22.335938 63.429688 C 22.410156 63.9375 22.5625 64.660156 22.863281 65.132812 C 22.917969 65.21875 22.996094 65.261719 23.097656 65.269531 C 23.199219 65.273438 23.28125 65.238281 23.34375 65.160156 C 23.769531 64.632812 24.59375 63.453125 22.367188 61.722656 Z M 21.675781 62.554688 " fill-opacity="1" fill-rule="nonzero"/><path fill="#ca8f7a" d="M 25.796875 47.601562 C 25.808594 47.785156 25.835938 47.972656 25.875 48.152344 C 25.882812 48.191406 25.890625 48.226562 25.902344 48.265625 C 25.910156 48.300781 25.921875 48.34375 25.933594 48.378906 C 25.957031 48.464844 25.984375 48.542969 26.011719 48.621094 C 26.207031 49.140625 26.503906 49.574219 26.851562 49.871094 C 26.867188 49.882812 26.886719 49.898438 26.90625 49.914062 C 26.921875 49.929688 26.941406 49.941406 26.960938 49.957031 C 26.976562 49.96875 26.996094 49.984375 27.015625 49.996094 C 27.035156 50.007812 27.050781 50.019531 27.070312 50.035156 C 27.109375 50.058594 27.144531 50.082031 27.183594 50.101562 C 27.203125 50.113281 27.222656 50.121094 27.242188 50.132812 C 27.261719 50.144531 27.277344 50.148438 27.292969 50.15625 C 27.3125 50.167969 27.335938 50.179688 27.359375 50.1875 C 27.398438 50.203125 27.4375 50.21875 27.476562 50.230469 C 27.496094 50.238281 27.515625 50.242188 27.535156 50.25 C 27.554688 50.253906 27.566406 50.257812 27.582031 50.261719 C 27.585938 50.261719 27.589844 50.261719 27.589844 50.261719 C 27.597656 50.265625 27.601562 50.265625 27.605469 50.265625 C 27.621094 50.269531 27.636719 50.273438 27.65625 50.277344 L 27.660156 50.277344 C 27.675781 50.28125 27.695312 50.28125 27.714844 50.285156 C 27.734375 50.289062 27.746094 50.289062 27.757812 50.289062 L 27.785156 50.292969 C 27.796875 50.296875 27.8125 50.296875 27.824219 50.296875 C 27.828125 50.296875 27.832031 50.296875 27.835938 50.296875 C 27.855469 50.296875 27.875 50.296875 27.894531 50.296875 C 27.996094 50.296875 28.09375 50.285156 28.195312 50.257812 C 28.34375 50.222656 28.476562 50.15625 28.601562 50.070312 C 28.816406 49.917969 28.988281 49.699219 29.117188 49.433594 C 29.257812 49.136719 29.34375 48.785156 29.355469 48.398438 C 29.367188 48.0625 29.332031 47.734375 29.246094 47.40625 C 29.183594 47.160156 29.09375 46.921875 28.980469 46.695312 C 28.515625 45.769531 27.699219 45.21875 26.953125 45.410156 C 26.183594 45.609375 25.730469 46.527344 25.796875 47.601562 Z M 25.796875 47.601562 " fill-opacity="1" fill-rule="nonzero"/><path fill="#ca8f7a" d="M 25.269531 47.4375 C 25.421875 47.644531 25.644531 47.753906 25.816406 47.722656 C 25.863281 47.714844 25.90625 47.699219 25.941406 47.671875 C 25.953125 47.664062 25.960938 47.660156 25.96875 47.652344 C 26.121094 47.511719 26.105469 47.207031 25.921875 46.957031 C 25.839844 46.839844 25.734375 46.753906 25.601562 46.699219 C 25.472656 46.652344 25.34375 46.65625 25.25 46.722656 C 25.167969 46.785156 25.125 46.867188 25.121094 46.96875 C 25.105469 47.109375 25.15625 47.285156 25.269531 47.4375 Z M 25.269531 47.4375 " fill-opacity="1" fill-rule="nonzero"/><path fill="#d88185" d="M 81.132812 38.835938 C 80.660156 43.902344 77.339844 48.242188 73.742188 51.84375 C 70.140625 55.449219 66.074219 58.703125 63.390625 63.03125 C 62.808594 63.972656 62.121094 65.074219 61.015625 65.167969 C 60.445312 65.214844 59.894531 64.96875 59.382812 64.714844 C 52.089844 61.113281 46.277344 54.777344 43.066406 47.335938 C 40.515625 41.433594 40.058594 30.46875 48.207031 28.238281 C 51.210938 27.414062 54.464844 28.945312 56.550781 31.253906 C 58.636719 33.566406 59.789062 36.542969 60.902344 39.445312 C 61.375 38.347656 61.851562 37.242188 62.375 36.167969 C 62.996094 34.902344 63.683594 33.675781 64.515625 32.550781 C 64.746094 32.238281 64.988281 31.929688 65.246094 31.632812 C 67.199219 29.363281 70.046875 27.660156 73.039062 27.816406 C 78.132812 28.082031 81.605469 33.769531 81.132812 38.835938 Z M 81.132812 38.835938 " fill-opacity="1" fill-rule="nonzero"/><path fill="#8a5557" d="M 63.371094 42.582031 L 60.773438 49.382812 L 60.003906 60.03125 L 59.269531 46.976562 L 61.03125 43.609375 L 60.902344 39.445312 C 61.375 38.347656 61.851562 37.242188 62.375 36.167969 Z M 63.371094 42.582031 " fill-opacity="1" fill-rule="nonzero"/><path fill="#fffffd" d="M 66.085938 48.746094 L 57.792969 41.953125 C 57.648438 41.835938 57.488281 41.75 57.308594 41.699219 C 57.132812 41.644531 56.949219 41.625 56.765625 41.644531 C 56.578125 41.660156 56.40625 41.714844 56.242188 41.800781 C 56.078125 41.890625 55.933594 42.003906 55.816406 42.148438 L 54.683594 43.527344 C 54.566406 43.671875 54.480469 43.832031 54.425781 44.011719 C 54.371094 44.1875 54.351562 44.371094 54.371094 44.554688 C 54.390625 44.738281 54.441406 44.914062 54.53125 45.078125 C 54.617188 45.242188 54.734375 45.382812 54.878906 45.5 L 63.167969 52.289062 C 63.3125 52.410156 63.476562 52.496094 63.652344 52.546875 C 63.832031 52.601562 64.011719 52.621094 64.199219 52.601562 C 64.382812 52.582031 64.558594 52.53125 64.722656 52.441406 C 64.886719 52.355469 65.027344 52.238281 65.144531 52.097656 L 66.28125 50.71875 C 66.398438 50.574219 66.484375 50.414062 66.539062 50.234375 C 66.59375 50.058594 66.609375 49.875 66.59375 49.691406 C 66.574219 49.503906 66.519531 49.332031 66.433594 49.167969 C 66.34375 49.003906 66.230469 48.863281 66.085938 48.746094 Z M 66.085938 48.746094 " fill-opacity="1" fill-rule="nonzero"/><path fill="#c2d9e6" d="M 63.703125 47.253906 L 59.722656 43.992188 C 59.640625 43.925781 59.546875 43.898438 59.441406 43.90625 C 59.335938 43.917969 59.246094 43.964844 59.179688 44.046875 L 57.203125 46.449219 C 57.136719 46.53125 57.109375 46.625 57.117188 46.730469 C 57.128906 46.839844 57.175781 46.925781 57.257812 46.992188 L 61.238281 50.25 C 61.320312 50.320312 61.414062 50.347656 61.523438 50.335938 C 61.628906 50.328125 61.714844 50.28125 61.785156 50.199219 L 63.757812 47.796875 C 63.824219 47.714844 63.855469 47.621094 63.84375 47.511719 C 63.832031 47.40625 63.785156 47.320312 63.703125 47.253906 Z M 63.703125 47.253906 " fill-opacity="1" fill-rule="nonzero"/><path fill="#fffffd" d="M 59.941406 44.480469 C 59.945312 44.566406 59.921875 44.640625 59.867188 44.707031 C 59.808594 44.769531 59.738281 44.808594 59.652344 44.8125 C 59.566406 44.820312 59.492188 44.796875 59.425781 44.738281 C 59.359375 44.683594 59.324219 44.613281 59.316406 44.527344 C 59.308594 44.441406 59.335938 44.367188 59.390625 44.300781 C 59.445312 44.234375 59.519531 44.199219 59.605469 44.191406 C 59.691406 44.183594 59.765625 44.210938 59.832031 44.265625 C 59.898438 44.320312 59.933594 44.394531 59.941406 44.480469 Z M 59.941406 44.480469 " fill-opacity="1" fill-rule="nonzero"/><path fill="#fffffd" d="M 60.292969 44.691406 C 60.378906 44.710938 60.441406 44.757812 60.488281 44.832031 C 60.53125 44.90625 60.542969 44.984375 60.523438 45.066406 C 60.5 45.152344 60.453125 45.214844 60.378906 45.261719 C 60.304688 45.304688 60.226562 45.316406 60.144531 45.296875 C 60.058594 45.273438 59.996094 45.226562 59.953125 45.152344 C 59.90625 45.082031 59.894531 45 59.914062 44.917969 C 59.9375 44.835938 59.984375 44.769531 60.058594 44.726562 C 60.132812 44.683594 60.210938 44.671875 60.292969 44.691406 Z M 60.292969 44.691406 " fill-opacity="1" fill-rule="nonzero"/><path fill="#fffffd" d="M 61.097656 45.355469 C 61.136719 45.433594 61.144531 45.511719 61.117188 45.59375 C 61.089844 45.675781 61.035156 45.734375 60.960938 45.773438 C 60.882812 45.8125 60.804688 45.816406 60.722656 45.789062 C 60.640625 45.761719 60.578125 45.710938 60.539062 45.632812 C 60.503906 45.558594 60.496094 45.476562 60.523438 45.394531 C 60.550781 45.316406 60.601562 45.253906 60.679688 45.214844 C 60.757812 45.175781 60.835938 45.171875 60.917969 45.199219 C 61 45.226562 61.0625 45.277344 61.097656 45.355469 Z M 61.097656 45.355469 " fill-opacity="1" fill-rule="nonzero"/><path fill="#fffffd" d="M 61.730469 45.949219 C 61.742188 46.035156 61.71875 46.109375 61.664062 46.175781 C 61.609375 46.242188 61.539062 46.28125 61.453125 46.289062 C 61.367188 46.296875 61.289062 46.273438 61.222656 46.21875 C 61.15625 46.164062 61.117188 46.097656 61.109375 46.011719 C 61.101562 45.925781 61.125 45.847656 61.179688 45.78125 C 61.234375 45.714844 61.304688 45.679688 61.390625 45.667969 C 61.476562 45.660156 61.554688 45.683594 61.621094 45.738281 C 61.6875 45.792969 61.722656 45.863281 61.730469 45.949219 Z M 61.730469 45.949219 " fill-opacity="1" fill-rule="nonzero"/><path fill="#fffffd" d="M 61.777344 46.273438 C 61.832031 46.207031 61.902344 46.167969 61.988281 46.160156 C 62.074219 46.152344 62.152344 46.175781 62.21875 46.230469 C 62.285156 46.285156 62.324219 46.355469 62.332031 46.441406 C 62.339844 46.527344 62.316406 46.601562 62.261719 46.667969 C 62.207031 46.734375 62.136719 46.773438 62.050781 46.78125 C 61.964844 46.789062 61.890625 46.765625 61.820312 46.710938 C 61.753906 46.65625 61.71875 46.585938 61.710938 46.5 C 61.699219 46.414062 61.722656 46.339844 61.777344 46.273438 Z M 61.777344 46.273438 " fill-opacity="1" fill-rule="nonzero"/><path fill="#fffffd" d="M 62.378906 46.765625 C 62.433594 46.699219 62.503906 46.660156 62.589844 46.652344 C 62.675781 46.644531 62.75 46.664062 62.816406 46.71875 C 62.882812 46.773438 62.921875 46.84375 62.929688 46.929688 C 62.9375 47.015625 62.914062 47.09375 62.859375 47.160156 C 62.804688 47.226562 62.734375 47.261719 62.648438 47.273438 C 62.5625 47.28125 62.488281 47.257812 62.421875 47.203125 C 62.355469 47.148438 62.316406 47.078125 62.308594 46.992188 C 62.300781 46.90625 62.324219 46.832031 62.378906 46.765625 Z M 62.378906 46.765625 " fill-opacity="1" fill-rule="nonzero"/><path fill="#fffffd" d="M 62.976562 47.253906 C 63.03125 47.1875 63.101562 47.152344 63.1875 47.140625 C 63.273438 47.132812 63.351562 47.15625 63.417969 47.210938 C 63.484375 47.265625 63.519531 47.335938 63.53125 47.421875 C 63.539062 47.507812 63.515625 47.582031 63.460938 47.648438 C 63.40625 47.714844 63.335938 47.753906 63.25 47.761719 C 63.164062 47.769531 63.085938 47.746094 63.019531 47.691406 C 62.953125 47.636719 62.917969 47.570312 62.90625 47.484375 C 62.898438 47.398438 62.921875 47.320312 62.976562 47.253906 Z M 62.976562 47.253906 " fill-opacity="1" fill-rule="nonzero"/><path fill="#fffffd" d="M 59.226562 44.769531 C 59.308594 44.792969 59.371094 44.839844 59.417969 44.914062 C 59.460938 44.988281 59.472656 45.066406 59.453125 45.148438 C 59.433594 45.234375 59.386719 45.296875 59.3125 45.339844 C 59.238281 45.386719 59.160156 45.398438 59.074219 45.375 C 58.992188 45.355469 58.925781 45.308594 58.882812 45.234375 C 58.835938 45.160156 58.824219 45.082031 58.847656 45 C 58.867188 44.914062 58.914062 44.851562 58.988281 44.808594 C 59.0625 44.761719 59.140625 44.75 59.226562 44.769531 Z M 59.226562 44.769531 " fill-opacity="1" fill-rule="nonzero"/><path fill="#fffffd" d="M 59.90625 45.292969 C 59.980469 45.335938 60.027344 45.398438 60.050781 45.480469 C 60.074219 45.5625 60.066406 45.640625 60.023438 45.71875 C 59.980469 45.792969 59.917969 45.839844 59.835938 45.863281 C 59.75 45.886719 59.671875 45.878906 59.597656 45.835938 C 59.523438 45.792969 59.472656 45.730469 59.449219 45.644531 C 59.425781 45.5625 59.4375 45.484375 59.480469 45.410156 C 59.523438 45.335938 59.585938 45.285156 59.667969 45.261719 C 59.75 45.238281 59.832031 45.25 59.90625 45.292969 Z M 59.90625 45.292969 " fill-opacity="1" fill-rule="nonzero"/><path fill="#fffffd" d="M 60.539062 45.816406 C 60.609375 45.867188 60.648438 45.9375 60.660156 46.019531 C 60.675781 46.105469 60.65625 46.183594 60.605469 46.253906 C 60.554688 46.320312 60.484375 46.363281 60.402344 46.375 C 60.316406 46.390625 60.238281 46.371094 60.167969 46.320312 C 60.097656 46.269531 60.058594 46.199219 60.042969 46.113281 C 60.03125 46.03125 60.050781 45.953125 60.101562 45.882812 C 60.152344 45.8125 60.21875 45.773438 60.304688 45.761719 C 60.390625 45.746094 60.46875 45.765625 60.539062 45.816406 Z M 60.539062 45.816406 " fill-opacity="1" fill-rule="nonzero"/><path fill="#fffffd" d="M 61.265625 46.523438 C 61.273438 46.609375 61.25 46.683594 61.191406 46.75 C 61.136719 46.8125 61.066406 46.851562 60.980469 46.855469 C 60.894531 46.863281 60.816406 46.839844 60.753906 46.78125 C 60.6875 46.726562 60.652344 46.65625 60.644531 46.570312 C 60.636719 46.484375 60.664062 46.410156 60.71875 46.34375 C 60.773438 46.277344 60.847656 46.242188 60.933594 46.234375 C 61.019531 46.230469 61.09375 46.253906 61.160156 46.308594 C 61.226562 46.367188 61.261719 46.4375 61.265625 46.523438 Z M 61.265625 46.523438 " fill-opacity="1" fill-rule="nonzero"/><path fill="#fffffd" d="M 61.621094 46.734375 C 61.707031 46.753906 61.769531 46.800781 61.8125 46.875 C 61.859375 46.949219 61.871094 47.027344 61.851562 47.109375 C 61.828125 47.195312 61.78125 47.257812 61.707031 47.304688 C 61.632812 47.347656 61.554688 47.359375 61.472656 47.339844 C 61.386719 47.316406 61.324219 47.269531 61.277344 47.195312 C 61.234375 47.125 61.222656 47.042969 61.242188 46.960938 C 61.265625 46.878906 61.3125 46.8125 61.386719 46.769531 C 61.460938 46.726562 61.539062 46.714844 61.621094 46.734375 Z M 61.621094 46.734375 " fill-opacity="1" fill-rule="nonzero"/><path fill="#fffffd" d="M 62.425781 47.398438 C 62.464844 47.476562 62.472656 47.554688 62.445312 47.636719 C 62.417969 47.71875 62.363281 47.777344 62.289062 47.816406 C 62.210938 47.855469 62.132812 47.859375 62.050781 47.832031 C 61.96875 47.808594 61.90625 47.753906 61.867188 47.675781 C 61.828125 47.601562 61.824219 47.519531 61.851562 47.441406 C 61.878906 47.359375 61.929688 47.296875 62.007812 47.257812 C 62.085938 47.222656 62.164062 47.214844 62.246094 47.242188 C 62.328125 47.269531 62.386719 47.320312 62.425781 47.398438 Z M 62.425781 47.398438 " fill-opacity="1" fill-rule="nonzero"/><path fill="#fffffd" d="M 62.933594 47.78125 C 63.003906 47.832031 63.046875 47.898438 63.058594 47.984375 C 63.070312 48.070312 63.054688 48.144531 63 48.214844 C 62.949219 48.285156 62.882812 48.324219 62.796875 48.339844 C 62.710938 48.351562 62.632812 48.332031 62.566406 48.28125 C 62.496094 48.230469 62.453125 48.164062 62.441406 48.078125 C 62.429688 47.992188 62.445312 47.914062 62.5 47.847656 C 62.550781 47.777344 62.617188 47.734375 62.703125 47.722656 C 62.789062 47.710938 62.863281 47.726562 62.933594 47.78125 Z M 62.933594 47.78125 " fill-opacity="1" fill-rule="nonzero"/><path fill="#fffffd" d="M 58.441406 45.453125 C 58.496094 45.386719 58.566406 45.347656 58.652344 45.339844 C 58.738281 45.332031 58.816406 45.355469 58.882812 45.410156 C 58.949219 45.464844 58.984375 45.535156 58.996094 45.621094 C 59.003906 45.707031 58.980469 45.78125 58.925781 45.847656 C 58.871094 45.914062 58.800781 45.953125 58.714844 45.960938 C 58.628906 45.96875 58.550781 45.945312 58.484375 45.890625 C 58.417969 45.835938 58.382812 45.765625 58.371094 45.679688 C 58.363281 45.59375 58.386719 45.519531 58.441406 45.453125 Z M 58.441406 45.453125 " fill-opacity="1" fill-rule="nonzero"/><path fill="#fffffd" d="M 59.46875 45.898438 C 59.539062 45.949219 59.578125 46.015625 59.59375 46.101562 C 59.605469 46.1875 59.585938 46.261719 59.535156 46.332031 C 59.484375 46.402344 59.417969 46.445312 59.332031 46.457031 C 59.246094 46.46875 59.167969 46.449219 59.097656 46.398438 C 59.03125 46.347656 58.988281 46.28125 58.976562 46.195312 C 58.960938 46.109375 58.980469 46.035156 59.03125 45.964844 C 59.082031 45.894531 59.152344 45.851562 59.238281 45.839844 C 59.320312 45.828125 59.398438 45.847656 59.46875 45.898438 Z M 59.46875 45.898438 " fill-opacity="1" fill-rule="nonzero"/><path fill="#fffffd" d="M 60 46.34375 C 60.082031 46.375 60.136719 46.433594 60.171875 46.511719 C 60.203125 46.589844 60.203125 46.671875 60.171875 46.75 C 60.136719 46.828125 60.082031 46.886719 60 46.917969 C 59.921875 46.953125 59.84375 46.953125 59.761719 46.917969 C 59.683594 46.886719 59.625 46.828125 59.59375 46.75 C 59.558594 46.671875 59.558594 46.589844 59.59375 46.511719 C 59.625 46.433594 59.683594 46.375 59.761719 46.34375 C 59.839844 46.308594 59.921875 46.308594 60 46.34375 Z M 60 46.34375 " fill-opacity="1" fill-rule="nonzero"/><path fill="#fffffd" d="M 60.792969 47.089844 C 60.800781 47.175781 60.777344 47.253906 60.722656 47.320312 C 60.667969 47.386719 60.597656 47.421875 60.511719 47.433594 C 60.425781 47.441406 60.351562 47.417969 60.285156 47.363281 C 60.21875 47.308594 60.179688 47.238281 60.171875 47.152344 C 60.164062 47.066406 60.1875 46.992188 60.242188 46.925781 C 60.296875 46.859375 60.367188 46.820312 60.453125 46.8125 C 60.539062 46.804688 60.613281 46.828125 60.679688 46.882812 C 60.746094 46.933594 60.785156 47.003906 60.792969 47.089844 Z M 60.792969 47.089844 " fill-opacity="1" fill-rule="nonzero"/><path fill="#fffffd" d="M 61.34375 47.445312 C 61.390625 47.519531 61.402344 47.597656 61.386719 47.679688 C 61.367188 47.765625 61.324219 47.828125 61.25 47.875 C 61.179688 47.921875 61.101562 47.9375 61.015625 47.921875 C 60.929688 47.902344 60.867188 47.855469 60.816406 47.785156 C 60.769531 47.710938 60.757812 47.632812 60.773438 47.550781 C 60.792969 47.464844 60.839844 47.402344 60.910156 47.355469 C 60.984375 47.308594 61.0625 47.292969 61.144531 47.308594 C 61.230469 47.328125 61.296875 47.375 61.34375 47.445312 Z M 61.34375 47.445312 " fill-opacity="1" fill-rule="nonzero"/><path fill="#fffffd" d="M 61.996094 47.558594 C 62.066406 47.609375 62.109375 47.679688 62.121094 47.765625 C 62.136719 47.847656 62.117188 47.925781 62.066406 47.996094 C 62.015625 48.066406 61.945312 48.105469 61.859375 48.121094 C 61.777344 48.132812 61.699219 48.113281 61.628906 48.0625 C 61.558594 48.011719 61.515625 47.945312 61.503906 47.859375 C 61.492188 47.773438 61.511719 47.695312 61.5625 47.628906 C 61.613281 47.558594 61.679688 47.515625 61.765625 47.503906 C 61.851562 47.492188 61.929688 47.507812 61.996094 47.558594 Z M 61.996094 47.558594 " fill-opacity="1" fill-rule="nonzero"/><path fill="#fffffd" d="M 62.597656 48.574219 C 62.601562 48.660156 62.574219 48.734375 62.515625 48.800781 C 62.457031 48.863281 62.382812 48.898438 62.296875 48.902344 C 62.210938 48.90625 62.136719 48.878906 62.074219 48.820312 C 62.011719 48.761719 61.976562 48.6875 61.972656 48.601562 C 61.96875 48.515625 61.996094 48.441406 62.054688 48.378906 C 62.113281 48.316406 62.183594 48.28125 62.269531 48.277344 C 62.355469 48.273438 62.429688 48.300781 62.496094 48.359375 C 62.558594 48.417969 62.59375 48.488281 62.597656 48.574219 Z M 62.597656 48.574219 " fill-opacity="1" fill-rule="nonzero"/><path fill="#fffffd" d="M 58.492188 46.085938 C 58.53125 46.164062 58.535156 46.242188 58.507812 46.324219 C 58.480469 46.40625 58.429688 46.46875 58.351562 46.503906 C 58.273438 46.542969 58.195312 46.550781 58.113281 46.523438 C 58.03125 46.496094 57.972656 46.441406 57.933594 46.367188 C 57.894531 46.289062 57.890625 46.210938 57.917969 46.128906 C 57.941406 46.046875 57.996094 45.988281 58.074219 45.949219 C 58.148438 45.910156 58.230469 45.902344 58.3125 45.929688 C 58.394531 45.957031 58.453125 46.011719 58.492188 46.085938 Z M 58.492188 46.085938 " fill-opacity="1" fill-rule="nonzero"/><path fill="#fffffd" d="M 58.570312 46.515625 C 58.625 46.449219 58.695312 46.410156 58.78125 46.402344 C 58.867188 46.394531 58.945312 46.417969 59.011719 46.472656 C 59.078125 46.527344 59.117188 46.597656 59.125 46.683594 C 59.132812 46.765625 59.109375 46.84375 59.054688 46.910156 C 59 46.976562 58.929688 47.015625 58.84375 47.023438 C 58.757812 47.03125 58.683594 47.007812 58.617188 46.953125 C 58.546875 46.898438 58.511719 46.828125 58.503906 46.742188 C 58.492188 46.65625 58.515625 46.582031 58.570312 46.515625 Z M 58.570312 46.515625 " fill-opacity="1" fill-rule="nonzero"/><path fill="#fffffd" d="M 59.722656 47.171875 C 59.734375 47.257812 59.710938 47.332031 59.65625 47.398438 C 59.601562 47.464844 59.53125 47.503906 59.445312 47.511719 C 59.359375 47.519531 59.28125 47.496094 59.214844 47.441406 C 59.148438 47.390625 59.109375 47.320312 59.101562 47.234375 C 59.09375 47.148438 59.117188 47.070312 59.171875 47.003906 C 59.226562 46.9375 59.296875 46.902344 59.382812 46.890625 C 59.46875 46.882812 59.542969 46.90625 59.613281 46.960938 C 59.679688 47.015625 59.714844 47.085938 59.722656 47.171875 Z M 59.722656 47.171875 " fill-opacity="1" fill-rule="nonzero"/><path fill="#fffffd" d="M 59.769531 47.496094 C 59.824219 47.429688 59.894531 47.390625 59.980469 47.382812 C 60.066406 47.375 60.144531 47.398438 60.210938 47.453125 C 60.277344 47.507812 60.3125 47.578125 60.324219 47.664062 C 60.332031 47.75 60.308594 47.824219 60.253906 47.890625 C 60.199219 47.957031 60.128906 47.996094 60.042969 48.003906 C 59.957031 48.011719 59.878906 47.988281 59.8125 47.933594 C 59.746094 47.878906 59.710938 47.808594 59.699219 47.722656 C 59.691406 47.636719 59.714844 47.5625 59.769531 47.496094 Z M 59.769531 47.496094 " fill-opacity="1" fill-rule="nonzero"/><path fill="#fffffd" d="M 60.796875 47.941406 C 60.867188 47.992188 60.90625 48.058594 60.921875 48.144531 C 60.933594 48.230469 60.914062 48.304688 60.863281 48.375 C 60.8125 48.445312 60.746094 48.488281 60.660156 48.5 C 60.574219 48.511719 60.496094 48.492188 60.425781 48.441406 C 60.359375 48.390625 60.316406 48.324219 60.304688 48.238281 C 60.289062 48.152344 60.308594 48.078125 60.359375 48.007812 C 60.410156 47.9375 60.480469 47.894531 60.566406 47.882812 C 60.648438 47.871094 60.726562 47.890625 60.796875 47.941406 Z M 60.796875 47.941406 " fill-opacity="1" fill-rule="nonzero"/><path fill="#fffffd" d="M 61.421875 48.449219 C 61.484375 48.507812 61.519531 48.582031 61.523438 48.667969 C 61.527344 48.753906 61.5 48.828125 61.441406 48.890625 C 61.382812 48.953125 61.308594 48.988281 61.222656 48.992188 C 61.136719 48.996094 61.0625 48.96875 61 48.910156 C 60.9375 48.851562 60.902344 48.78125 60.898438 48.695312 C 60.894531 48.609375 60.921875 48.53125 60.980469 48.46875 C 61.039062 48.40625 61.109375 48.371094 61.195312 48.367188 C 61.28125 48.363281 61.359375 48.390625 61.421875 48.449219 Z M 61.421875 48.449219 " fill-opacity="1" fill-rule="nonzero"/><path fill="#fffffd" d="M 62.121094 49.132812 C 62.128906 49.21875 62.105469 49.296875 62.050781 49.363281 C 61.996094 49.429688 61.925781 49.464844 61.839844 49.476562 C 61.753906 49.484375 61.679688 49.460938 61.613281 49.40625 C 61.546875 49.351562 61.507812 49.28125 61.5 49.195312 C 61.492188 49.109375 61.515625 49.035156 61.570312 48.96875 C 61.625 48.902344 61.695312 48.863281 61.78125 48.855469 C 61.867188 48.847656 61.941406 48.871094 62.007812 48.925781 C 62.074219 48.976562 62.113281 49.046875 62.121094 49.132812 Z M 62.121094 49.132812 " fill-opacity="1" fill-rule="nonzero"/><path fill="#fffffd" d="M 57.503906 46.59375 C 57.558594 46.527344 57.628906 46.492188 57.714844 46.484375 C 57.800781 46.472656 57.875 46.496094 57.941406 46.550781 C 58.007812 46.605469 58.046875 46.675781 58.054688 46.761719 C 58.0625 46.847656 58.039062 46.925781 57.984375 46.992188 C 57.929688 47.058594 57.859375 47.09375 57.773438 47.101562 C 57.6875 47.113281 57.613281 47.089844 57.546875 47.035156 C 57.480469 46.980469 57.441406 46.910156 57.433594 46.824219 C 57.425781 46.738281 57.449219 46.660156 57.503906 46.59375 Z M 57.503906 46.59375 " fill-opacity="1" fill-rule="nonzero"/><path fill="#fffffd" d="M 58.101562 47.085938 C 58.15625 47.019531 58.226562 46.980469 58.3125 46.972656 C 58.398438 46.964844 58.476562 46.988281 58.542969 47.042969 C 58.609375 47.097656 58.644531 47.167969 58.65625 47.253906 C 58.664062 47.339844 58.640625 47.414062 58.585938 47.480469 C 58.53125 47.546875 58.460938 47.585938 58.375 47.59375 C 58.289062 47.601562 58.210938 47.578125 58.144531 47.523438 C 58.078125 47.46875 58.042969 47.398438 58.03125 47.3125 C 58.023438 47.230469 58.046875 47.152344 58.101562 47.085938 Z M 58.101562 47.085938 " fill-opacity="1" fill-rule="nonzero"/><path fill="#fffffd" d="M 58.703125 47.578125 C 58.757812 47.511719 58.828125 47.472656 58.914062 47.464844 C 59 47.457031 59.074219 47.480469 59.140625 47.535156 C 59.207031 47.585938 59.246094 47.65625 59.253906 47.742188 C 59.261719 47.828125 59.238281 47.90625 59.183594 47.972656 C 59.128906 48.039062 59.058594 48.074219 58.972656 48.085938 C 58.886719 48.09375 58.8125 48.070312 58.746094 48.015625 C 58.679688 47.960938 58.640625 47.890625 58.632812 47.804688 C 58.625 47.71875 58.648438 47.644531 58.703125 47.578125 Z M 58.703125 47.578125 " fill-opacity="1" fill-rule="nonzero"/><path fill="#fffffd" d="M 59.757812 48.039062 C 59.820312 48.097656 59.851562 48.171875 59.855469 48.257812 C 59.855469 48.34375 59.828125 48.417969 59.769531 48.480469 C 59.710938 48.542969 59.636719 48.578125 59.550781 48.578125 C 59.464844 48.582031 59.390625 48.554688 59.328125 48.496094 C 59.265625 48.433594 59.234375 48.363281 59.230469 48.277344 C 59.226562 48.191406 59.253906 48.117188 59.316406 48.054688 C 59.375 47.992188 59.445312 47.957031 59.53125 47.957031 C 59.617188 47.953125 59.695312 47.980469 59.757812 48.039062 Z M 59.757812 48.039062 " fill-opacity="1" fill-rule="nonzero"/><path fill="#fffffd" d="M 59.898438 48.558594 C 59.953125 48.492188 60.023438 48.453125 60.109375 48.445312 C 60.195312 48.4375 60.273438 48.460938 60.339844 48.515625 C 60.40625 48.570312 60.445312 48.640625 60.453125 48.726562 C 60.460938 48.8125 60.4375 48.886719 60.382812 48.953125 C 60.328125 49.019531 60.257812 49.058594 60.171875 49.066406 C 60.085938 49.074219 60.011719 49.050781 59.941406 48.996094 C 59.875 48.941406 59.839844 48.871094 59.832031 48.785156 C 59.820312 48.699219 59.84375 48.625 59.898438 48.558594 Z M 59.898438 48.558594 " fill-opacity="1" fill-rule="nonzero"/><path fill="#fffffd" d="M 61.050781 49.214844 C 61.058594 49.300781 61.039062 49.375 60.984375 49.441406 C 60.929688 49.511719 60.859375 49.546875 60.773438 49.554688 C 60.6875 49.5625 60.609375 49.542969 60.542969 49.488281 C 60.476562 49.433594 60.4375 49.363281 60.429688 49.277344 C 60.421875 49.191406 60.445312 49.113281 60.5 49.046875 C 60.554688 48.980469 60.625 48.945312 60.710938 48.933594 C 60.796875 48.925781 60.871094 48.949219 60.9375 49.003906 C 61.007812 49.058594 61.042969 49.128906 61.050781 49.214844 Z M 61.050781 49.214844 " fill-opacity="1" fill-rule="nonzero"/><path fill="#fffffd" d="M 61.097656 49.539062 C 61.152344 49.472656 61.222656 49.433594 61.308594 49.425781 C 61.394531 49.417969 61.472656 49.441406 61.539062 49.496094 C 61.605469 49.550781 61.640625 49.621094 61.652344 49.707031 C 61.660156 49.792969 61.636719 49.867188 61.582031 49.933594 C 61.527344 50 61.457031 50.039062 61.371094 50.046875 C 61.285156 50.054688 61.207031 50.03125 61.140625 49.976562 C 61.074219 49.921875 61.039062 49.851562 61.027344 49.765625 C 61.019531 49.683594 61.042969 49.605469 61.097656 49.539062 Z M 61.097656 49.539062 " fill-opacity="1" fill-rule="nonzero"/><path fill="#fffffd" d="M 55.371094 49.929688 L 66.042969 48.878906 C 66.230469 48.863281 66.402344 48.808594 66.570312 48.722656 C 66.734375 48.632812 66.875 48.519531 66.992188 48.375 C 67.109375 48.230469 67.195312 48.070312 67.25 47.890625 C 67.304688 47.714844 67.324219 47.53125 67.304688 47.347656 L 67.128906 45.574219 C 67.109375 45.386719 67.058594 45.214844 66.96875 45.050781 C 66.882812 44.886719 66.765625 44.746094 66.621094 44.625 C 66.476562 44.507812 66.316406 44.421875 66.136719 44.367188 C 65.960938 44.316406 65.777344 44.296875 65.59375 44.316406 L 54.917969 45.363281 C 54.734375 45.382812 54.558594 45.4375 54.394531 45.523438 C 54.230469 45.613281 54.089844 45.726562 53.96875 45.871094 C 53.851562 46.015625 53.765625 46.175781 53.710938 46.355469 C 53.660156 46.53125 53.640625 46.714844 53.660156 46.898438 L 53.835938 48.671875 C 53.851562 48.859375 53.90625 49.03125 53.992188 49.195312 C 54.082031 49.359375 54.199219 49.5 54.339844 49.617188 C 54.484375 49.738281 54.648438 49.824219 54.824219 49.875 C 55.003906 49.929688 55.183594 49.949219 55.371094 49.929688 Z M 55.371094 49.929688 " fill-opacity="1" fill-rule="nonzero"/><path fill="#c2d9e6" d="M 57.730469 45.445312 L 62.851562 44.941406 C 62.960938 44.929688 63.054688 44.957031 63.136719 45.027344 C 63.21875 45.09375 63.265625 45.179688 63.277344 45.285156 L 63.582031 48.378906 C 63.59375 48.484375 63.5625 48.578125 63.496094 48.660156 C 63.429688 48.742188 63.339844 48.789062 63.234375 48.800781 L 58.109375 49.304688 C 58.003906 49.3125 57.910156 49.285156 57.828125 49.21875 C 57.746094 49.148438 57.699219 49.0625 57.6875 48.957031 L 57.382812 45.867188 C 57.371094 45.761719 57.402344 45.664062 57.46875 45.582031 C 57.535156 45.5 57.625 45.453125 57.730469 45.445312 Z M 57.730469 45.445312 " fill-opacity="1" fill-rule="nonzero"/><path fill="#fffffd" d="M 63.25 48.335938 C 63.261719 48.421875 63.238281 48.496094 63.183594 48.5625 C 63.128906 48.628906 63.058594 48.667969 62.972656 48.675781 C 62.886719 48.683594 62.808594 48.660156 62.742188 48.605469 C 62.675781 48.550781 62.636719 48.480469 62.628906 48.394531 C 62.621094 48.308594 62.644531 48.234375 62.699219 48.167969 C 62.753906 48.101562 62.824219 48.0625 62.910156 48.054688 C 62.996094 48.046875 63.070312 48.070312 63.140625 48.125 C 63.207031 48.179688 63.242188 48.25 63.25 48.335938 Z M 63.25 48.335938 " fill-opacity="1" fill-rule="nonzero"/><path fill="#fffffd" d="M 62.480469 48.410156 C 62.488281 48.496094 62.464844 48.574219 62.410156 48.640625 C 62.355469 48.707031 62.285156 48.742188 62.199219 48.75 C 62.113281 48.761719 62.039062 48.738281 61.972656 48.683594 C 61.90625 48.628906 61.867188 48.558594 61.859375 48.472656 C 61.851562 48.386719 61.875 48.308594 61.929688 48.242188 C 61.984375 48.175781 62.054688 48.140625 62.140625 48.132812 C 62.226562 48.121094 62.300781 48.144531 62.367188 48.199219 C 62.433594 48.253906 62.472656 48.324219 62.480469 48.410156 Z M 62.480469 48.410156 " fill-opacity="1" fill-rule="nonzero"/><path fill="#fffffd" d="M 61.710938 48.488281 C 61.71875 48.574219 61.695312 48.648438 61.640625 48.714844 C 61.585938 48.78125 61.515625 48.820312 61.429688 48.828125 C 61.34375 48.835938 61.265625 48.8125 61.199219 48.757812 C 61.132812 48.703125 61.097656 48.632812 61.085938 48.546875 C 61.078125 48.460938 61.101562 48.386719 61.15625 48.320312 C 61.210938 48.253906 61.28125 48.214844 61.367188 48.207031 C 61.453125 48.199219 61.53125 48.222656 61.597656 48.277344 C 61.664062 48.332031 61.699219 48.402344 61.710938 48.488281 Z M 61.710938 48.488281 " fill-opacity="1" fill-rule="nonzero"/><path fill="#fffffd" d="M 60.9375 48.5625 C 60.945312 48.648438 60.921875 48.722656 60.867188 48.792969 C 60.8125 48.859375 60.742188 48.894531 60.65625 48.902344 C 60.570312 48.910156 60.496094 48.890625 60.429688 48.835938 C 60.363281 48.78125 60.324219 48.710938 60.316406 48.625 C 60.308594 48.539062 60.332031 48.460938 60.386719 48.394531 C 60.441406 48.328125 60.511719 48.292969 60.597656 48.28125 C 60.683594 48.273438 60.757812 48.296875 60.824219 48.351562 C 60.890625 48.40625 60.929688 48.476562 60.9375 48.5625 Z M 60.9375 48.5625 " fill-opacity="1" fill-rule="nonzero"/><path fill="#fffffd" d="M 60.167969 48.636719 C 60.175781 48.722656 60.152344 48.800781 60.097656 48.867188 C 60.042969 48.933594 59.972656 48.972656 59.886719 48.980469 C 59.800781 48.988281 59.722656 48.964844 59.65625 48.910156 C 59.589844 48.855469 59.554688 48.785156 59.542969 48.699219 C 59.535156 48.613281 59.558594 48.539062 59.613281 48.472656 C 59.667969 48.40625 59.738281 48.367188 59.824219 48.359375 C 59.910156 48.351562 59.988281 48.375 60.054688 48.429688 C 60.121094 48.484375 60.15625 48.550781 60.167969 48.636719 Z M 60.167969 48.636719 " fill-opacity="1" fill-rule="nonzero"/><path fill="#fffffd" d="M 59.332031 48.554688 C 59.382812 48.621094 59.40625 48.699219 59.394531 48.785156 C 59.382812 48.871094 59.34375 48.9375 59.273438 48.992188 C 59.207031 49.042969 59.128906 49.066406 59.042969 49.054688 C 58.957031 49.042969 58.890625 49.003906 58.835938 48.933594 C 58.785156 48.867188 58.761719 48.789062 58.773438 48.703125 C 58.785156 48.621094 58.824219 48.550781 58.894531 48.496094 C 58.960938 48.445312 59.039062 48.425781 59.125 48.433594 C 59.210938 48.445312 59.277344 48.484375 59.332031 48.554688 Z M 59.332031 48.554688 " fill-opacity="1" fill-rule="nonzero"/><path fill="#fffffd" d="M 58.511719 48.578125 C 58.578125 48.632812 58.613281 48.703125 58.625 48.789062 C 58.632812 48.875 58.609375 48.949219 58.554688 49.015625 C 58.5 49.082031 58.429688 49.121094 58.34375 49.128906 C 58.257812 49.136719 58.179688 49.113281 58.113281 49.058594 C 58.046875 49.007812 58.011719 48.9375 58 48.851562 C 57.992188 48.765625 58.015625 48.6875 58.070312 48.621094 C 58.125 48.554688 58.195312 48.519531 58.28125 48.507812 C 58.367188 48.5 58.445312 48.523438 58.511719 48.578125 Z M 58.511719 48.578125 " fill-opacity="1" fill-rule="nonzero"/><path fill="#fffffd" d="M 63.179688 47.601562 C 63.1875 47.683594 63.164062 47.761719 63.109375 47.828125 C 63.054688 47.894531 62.984375 47.929688 62.898438 47.941406 C 62.8125 47.949219 62.738281 47.925781 62.671875 47.871094 C 62.605469 47.816406 62.566406 47.746094 62.558594 47.660156 C 62.550781 47.574219 62.574219 47.5 62.628906 47.433594 C 62.679688 47.367188 62.75 47.328125 62.835938 47.320312 C 62.921875 47.3125 63 47.335938 63.066406 47.390625 C 63.132812 47.445312 63.171875 47.515625 63.179688 47.601562 Z M 63.179688 47.601562 " fill-opacity="1" fill-rule="nonzero"/><path fill="#fffffd" d="M 62.40625 47.675781 C 62.417969 47.761719 62.394531 47.835938 62.339844 47.902344 C 62.285156 47.96875 62.214844 48.007812 62.128906 48.015625 C 62.042969 48.023438 61.964844 48 61.898438 47.945312 C 61.832031 47.890625 61.792969 47.820312 61.785156 47.734375 C 61.777344 47.652344 61.800781 47.574219 61.855469 47.507812 C 61.910156 47.441406 61.980469 47.402344 62.066406 47.394531 C 62.152344 47.386719 62.226562 47.410156 62.296875 47.464844 C 62.363281 47.519531 62.398438 47.589844 62.40625 47.675781 Z M 62.40625 47.675781 " fill-opacity="1" fill-rule="nonzero"/><path fill="#fffffd" d="M 61.574219 47.589844 C 61.625 47.660156 61.648438 47.734375 61.636719 47.820312 C 61.625 47.90625 61.585938 47.976562 61.515625 48.027344 C 61.449219 48.082031 61.371094 48.101562 61.285156 48.089844 C 61.199219 48.078125 61.132812 48.039062 61.078125 47.972656 C 61.027344 47.902344 61.003906 47.828125 61.015625 47.742188 C 61.027344 47.65625 61.066406 47.585938 61.132812 47.535156 C 61.203125 47.480469 61.28125 47.460938 61.367188 47.472656 C 61.449219 47.484375 61.519531 47.523438 61.574219 47.589844 Z M 61.574219 47.589844 " fill-opacity="1" fill-rule="nonzero"/><path fill="#fffffd" d="M 60.867188 47.828125 C 60.875 47.914062 60.851562 47.988281 60.796875 48.054688 C 60.742188 48.121094 60.671875 48.160156 60.585938 48.167969 C 60.5 48.175781 60.421875 48.152344 60.355469 48.097656 C 60.289062 48.042969 60.253906 47.972656 60.246094 47.886719 C 60.234375 47.804688 60.257812 47.726562 60.3125 47.660156 C 60.367188 47.59375 60.4375 47.554688 60.523438 47.546875 C 60.609375 47.539062 60.6875 47.5625 60.753906 47.617188 C 60.820312 47.671875 60.859375 47.742188 60.867188 47.828125 Z M 60.867188 47.828125 " fill-opacity="1" fill-rule="nonzero"/><path fill="#fffffd" d="M 60.09375 47.902344 C 60.101562 47.988281 60.078125 48.066406 60.023438 48.132812 C 59.96875 48.199219 59.898438 48.234375 59.8125 48.242188 C 59.726562 48.253906 59.652344 48.230469 59.585938 48.175781 C 59.519531 48.121094 59.480469 48.050781 59.472656 47.964844 C 59.464844 47.878906 59.488281 47.800781 59.542969 47.734375 C 59.597656 47.667969 59.667969 47.632812 59.753906 47.625 C 59.839844 47.613281 59.914062 47.636719 59.980469 47.691406 C 60.046875 47.746094 60.085938 47.816406 60.09375 47.902344 Z M 60.09375 47.902344 " fill-opacity="1" fill-rule="nonzero"/><path fill="#fffffd" d="M 59.097656 47.707031 C 59.179688 47.730469 59.242188 47.78125 59.285156 47.859375 C 59.324219 47.933594 59.332031 48.011719 59.308594 48.09375 C 59.285156 48.179688 59.234375 48.238281 59.160156 48.28125 C 59.082031 48.320312 59.003906 48.328125 58.921875 48.304688 C 58.839844 48.28125 58.777344 48.230469 58.734375 48.15625 C 58.695312 48.078125 58.6875 48 58.710938 47.917969 C 58.734375 47.835938 58.785156 47.773438 58.859375 47.734375 C 58.9375 47.691406 59.015625 47.683594 59.097656 47.707031 Z M 59.097656 47.707031 " fill-opacity="1" fill-rule="nonzero"/><path fill="#fffffd" d="M 58.550781 48.054688 C 58.558594 48.140625 58.535156 48.21875 58.480469 48.285156 C 58.425781 48.351562 58.355469 48.386719 58.269531 48.394531 C 58.183594 48.402344 58.109375 48.382812 58.042969 48.328125 C 57.976562 48.273438 57.9375 48.203125 57.929688 48.117188 C 57.921875 48.03125 57.945312 47.953125 58 47.886719 C 58.054688 47.820312 58.125 47.785156 58.210938 47.777344 C 58.296875 47.765625 58.371094 47.789062 58.4375 47.84375 C 58.503906 47.898438 58.542969 47.96875 58.550781 48.054688 Z M 58.550781 48.054688 " fill-opacity="1" fill-rule="nonzero"/><path fill="#fffffd" d="M 63.105469 46.863281 C 63.113281 46.949219 63.09375 47.027344 63.035156 47.09375 C 62.980469 47.160156 62.910156 47.195312 62.828125 47.207031 C 62.742188 47.214844 62.664062 47.191406 62.597656 47.136719 C 62.53125 47.082031 62.492188 47.011719 62.484375 46.925781 C 62.476562 46.839844 62.5 46.765625 62.554688 46.699219 C 62.609375 46.632812 62.679688 46.59375 62.765625 46.585938 C 62.851562 46.578125 62.925781 46.597656 62.992188 46.652344 C 63.058594 46.707031 63.097656 46.777344 63.105469 46.863281 Z M 63.105469 46.863281 " fill-opacity="1" fill-rule="nonzero"/><path fill="#fffffd" d="M 62.269531 46.78125 C 62.324219 46.847656 62.34375 46.925781 62.332031 47.011719 C 62.324219 47.09375 62.285156 47.164062 62.214844 47.21875 C 62.148438 47.269531 62.070312 47.289062 61.984375 47.28125 C 61.898438 47.269531 61.828125 47.230469 61.777344 47.160156 C 61.722656 47.09375 61.703125 47.015625 61.714844 46.929688 C 61.726562 46.84375 61.765625 46.777344 61.832031 46.722656 C 61.902344 46.671875 61.976562 46.648438 62.0625 46.660156 C 62.148438 46.671875 62.21875 46.710938 62.269531 46.78125 Z M 62.269531 46.78125 " fill-opacity="1" fill-rule="nonzero"/><path fill="#fffffd" d="M 61.5625 47.015625 C 61.570312 47.101562 61.550781 47.179688 61.496094 47.246094 C 61.441406 47.3125 61.371094 47.347656 61.285156 47.355469 C 61.199219 47.363281 61.121094 47.339844 61.054688 47.289062 C 60.988281 47.234375 60.949219 47.164062 60.941406 47.078125 C 60.933594 46.992188 60.957031 46.914062 61.011719 46.847656 C 61.066406 46.78125 61.136719 46.746094 61.222656 46.738281 C 61.308594 46.726562 61.382812 46.75 61.449219 46.804688 C 61.519531 46.859375 61.554688 46.929688 61.5625 47.015625 Z M 61.5625 47.015625 " fill-opacity="1" fill-rule="nonzero"/><path fill="#fffffd" d="M 60.792969 47.09375 C 60.800781 47.179688 60.777344 47.253906 60.722656 47.320312 C 60.667969 47.386719 60.597656 47.425781 60.511719 47.433594 C 60.425781 47.441406 60.351562 47.417969 60.285156 47.363281 C 60.214844 47.308594 60.179688 47.238281 60.171875 47.152344 C 60.164062 47.066406 60.183594 46.992188 60.238281 46.925781 C 60.292969 46.859375 60.363281 46.820312 60.449219 46.8125 C 60.535156 46.804688 60.613281 46.828125 60.679688 46.882812 C 60.746094 46.9375 60.785156 47.007812 60.792969 47.09375 Z M 60.792969 47.09375 " fill-opacity="1" fill-rule="nonzero"/><path fill="#fffffd" d="M 59.796875 46.898438 C 59.878906 46.921875 59.941406 46.972656 59.984375 47.046875 C 60.023438 47.121094 60.03125 47.203125 60.007812 47.285156 C 59.984375 47.367188 59.933594 47.429688 59.855469 47.46875 C 59.78125 47.511719 59.703125 47.519531 59.621094 47.496094 C 59.535156 47.46875 59.476562 47.417969 59.433594 47.34375 C 59.394531 47.269531 59.382812 47.1875 59.410156 47.105469 C 59.433594 47.023438 59.484375 46.960938 59.558594 46.921875 C 59.636719 46.878906 59.714844 46.871094 59.796875 46.898438 Z M 59.796875 46.898438 " fill-opacity="1" fill-rule="nonzero"/><path fill="#fffffd" d="M 59.042969 46.980469 C 59.125 47.007812 59.183594 47.0625 59.21875 47.140625 C 59.257812 47.21875 59.261719 47.296875 59.234375 47.378906 C 59.203125 47.460938 59.152344 47.519531 59.074219 47.554688 C 58.996094 47.59375 58.914062 47.597656 58.832031 47.566406 C 58.753906 47.539062 58.695312 47.484375 58.65625 47.40625 C 58.621094 47.332031 58.617188 47.25 58.644531 47.167969 C 58.671875 47.089844 58.726562 47.03125 58.804688 46.992188 C 58.882812 46.957031 58.960938 46.953125 59.042969 46.980469 Z M 59.042969 46.980469 " fill-opacity="1" fill-rule="nonzero"/><path fill="#fffffd" d="M 58.476562 47.320312 C 58.488281 47.40625 58.464844 47.480469 58.410156 47.546875 C 58.355469 47.613281 58.285156 47.652344 58.199219 47.660156 C 58.113281 47.667969 58.035156 47.644531 57.96875 47.589844 C 57.902344 47.535156 57.863281 47.464844 57.855469 47.378906 C 57.847656 47.296875 57.871094 47.21875 57.925781 47.152344 C 57.980469 47.085938 58.050781 47.046875 58.136719 47.039062 C 58.222656 47.03125 58.296875 47.054688 58.367188 47.109375 C 58.433594 47.164062 58.46875 47.234375 58.476562 47.320312 Z M 58.476562 47.320312 " fill-opacity="1" fill-rule="nonzero"/><path fill="#fffffd" d="M 63.011719 46.050781 C 63.042969 46.128906 63.042969 46.207031 63.007812 46.289062 C 62.972656 46.367188 62.917969 46.421875 62.835938 46.453125 C 62.757812 46.488281 62.675781 46.488281 62.597656 46.453125 C 62.519531 46.417969 62.460938 46.363281 62.429688 46.28125 C 62.398438 46.203125 62.398438 46.125 62.433594 46.042969 C 62.464844 45.964844 62.523438 45.910156 62.601562 45.875 C 62.683594 45.84375 62.761719 45.84375 62.84375 45.878906 C 62.921875 45.914062 62.976562 45.96875 63.011719 46.050781 Z M 63.011719 46.050781 " fill-opacity="1" fill-rule="nonzero"/><path fill="#fffffd" d="M 62.261719 46.203125 C 62.269531 46.289062 62.246094 46.367188 62.191406 46.433594 C 62.136719 46.5 62.066406 46.539062 61.980469 46.546875 C 61.894531 46.554688 61.820312 46.53125 61.753906 46.476562 C 61.6875 46.421875 61.648438 46.351562 61.640625 46.265625 C 61.632812 46.179688 61.65625 46.105469 61.710938 46.039062 C 61.765625 45.972656 61.835938 45.933594 61.921875 45.925781 C 62.007812 45.917969 62.082031 45.941406 62.148438 45.996094 C 62.214844 46.050781 62.253906 46.121094 62.261719 46.203125 Z M 62.261719 46.203125 " fill-opacity="1" fill-rule="nonzero"/><path fill="#fffffd" d="M 61.492188 46.28125 C 61.5 46.367188 61.476562 46.441406 61.421875 46.507812 C 61.367188 46.574219 61.296875 46.613281 61.210938 46.621094 C 61.125 46.628906 61.046875 46.605469 60.980469 46.550781 C 60.914062 46.496094 60.878906 46.429688 60.871094 46.34375 C 60.859375 46.257812 60.882812 46.179688 60.9375 46.113281 C 60.992188 46.046875 61.0625 46.011719 61.148438 46 C 61.234375 45.992188 61.3125 46.015625 61.378906 46.070312 C 61.445312 46.125 61.484375 46.195312 61.492188 46.28125 Z M 61.492188 46.28125 " fill-opacity="1" fill-rule="nonzero"/><path fill="#fffffd" d="M 56.226562 51.140625 C 56.226562 51.226562 56.195312 51.300781 56.136719 51.363281 C 56.074219 51.421875 56 51.453125 55.914062 51.453125 C 55.828125 51.453125 55.753906 51.421875 55.691406 51.363281 C 55.632812 51.300781 55.601562 51.226562 55.601562 51.140625 C 55.601562 51.054688 55.632812 50.980469 55.691406 50.921875 C 55.753906 50.859375 55.828125 50.828125 55.914062 50.828125 C 56 50.828125 56.074219 50.859375 56.136719 50.921875 C 56.195312 50.980469 56.226562 51.054688 56.226562 51.140625 Z M 56.226562 51.140625 " fill-opacity="1" fill-rule="nonzero"/><path fill="#fffffd" d="M 59.742188 46.167969 C 59.824219 46.199219 59.882812 46.25 59.917969 46.328125 C 59.957031 46.40625 59.960938 46.484375 59.929688 46.566406 C 59.902344 46.648438 59.847656 46.707031 59.769531 46.746094 C 59.695312 46.78125 59.613281 46.785156 59.53125 46.757812 C 59.453125 46.726562 59.390625 46.675781 59.355469 46.597656 C 59.316406 46.519531 59.3125 46.441406 59.34375 46.359375 C 59.371094 46.277344 59.425781 46.21875 59.503906 46.179688 C 59.582031 46.144531 59.660156 46.140625 59.742188 46.167969 Z M 59.742188 46.167969 " fill-opacity="1" fill-rule="nonzero"/><path fill="#fffffd" d="M 59.175781 46.507812 C 59.183594 46.59375 59.164062 46.671875 59.109375 46.738281 C 59.054688 46.804688 58.984375 46.839844 58.898438 46.847656 C 58.8125 46.859375 58.734375 46.835938 58.667969 46.78125 C 58.601562 46.726562 58.5625 46.65625 58.554688 46.570312 C 58.546875 46.484375 58.570312 46.40625 58.625 46.339844 C 58.679688 46.273438 58.75 46.238281 58.835938 46.230469 C 58.921875 46.21875 58.996094 46.242188 59.0625 46.296875 C 59.132812 46.351562 59.167969 46.421875 59.175781 46.507812 Z M 59.175781 46.507812 " fill-opacity="1" fill-rule="nonzero"/><path fill="#fffffd" d="M 58.40625 46.585938 C 58.414062 46.671875 58.390625 46.746094 58.335938 46.8125 C 58.28125 46.878906 58.210938 46.917969 58.125 46.925781 C 58.039062 46.933594 57.960938 46.910156 57.894531 46.855469 C 57.828125 46.800781 57.792969 46.730469 57.785156 46.644531 C 57.773438 46.558594 57.796875 46.484375 57.851562 46.417969 C 57.90625 46.351562 57.976562 46.3125 58.0625 46.304688 C 58.148438 46.296875 58.226562 46.320312 58.292969 46.375 C 58.359375 46.429688 58.398438 46.5 58.40625 46.585938 Z M 58.40625 46.585938 " fill-opacity="1" fill-rule="nonzero"/><path fill="#fffffd" d="M 62.847656 45.183594 C 62.914062 45.238281 62.953125 45.308594 62.960938 45.390625 C 62.96875 45.476562 62.945312 45.554688 62.890625 45.621094 C 62.835938 45.6875 62.765625 45.726562 62.679688 45.734375 C 62.59375 45.742188 62.519531 45.71875 62.453125 45.664062 C 62.386719 45.609375 62.347656 45.539062 62.339844 45.453125 C 62.332031 45.367188 62.355469 45.292969 62.410156 45.226562 C 62.464844 45.160156 62.535156 45.121094 62.621094 45.113281 C 62.707031 45.105469 62.78125 45.128906 62.847656 45.183594 Z M 62.847656 45.183594 " fill-opacity="1" fill-rule="nonzero"/><path fill="#fffffd" d="M 62.191406 45.46875 C 62.199219 45.554688 62.175781 45.632812 62.121094 45.699219 C 62.066406 45.765625 61.996094 45.800781 61.910156 45.8125 C 61.824219 45.820312 61.746094 45.796875 61.679688 45.742188 C 61.613281 45.6875 61.578125 45.617188 61.566406 45.53125 C 61.558594 45.445312 61.582031 45.371094 61.636719 45.300781 C 61.691406 45.234375 61.761719 45.199219 61.847656 45.191406 C 61.933594 45.183594 62.011719 45.203125 62.078125 45.257812 C 62.144531 45.3125 62.179688 45.382812 62.191406 45.46875 Z M 62.191406 45.46875 " fill-opacity="1" fill-rule="nonzero"/><path fill="#fffffd" d="M 61.417969 45.546875 C 61.425781 45.628906 61.402344 45.707031 61.347656 45.773438 C 61.292969 45.839844 61.222656 45.878906 61.136719 45.886719 C 61.050781 45.894531 60.976562 45.871094 60.910156 45.816406 C 60.84375 45.761719 60.804688 45.691406 60.796875 45.605469 C 60.789062 45.519531 60.8125 45.445312 60.867188 45.378906 C 60.921875 45.3125 60.992188 45.273438 61.078125 45.265625 C 61.164062 45.257812 61.238281 45.28125 61.304688 45.335938 C 61.371094 45.390625 61.410156 45.460938 61.417969 45.546875 Z M 61.417969 45.546875 " fill-opacity="1" fill-rule="nonzero"/><path fill="#fffffd" d="M 60.648438 45.621094 C 60.65625 45.707031 60.632812 45.785156 60.578125 45.851562 C 60.523438 45.917969 60.453125 45.953125 60.367188 45.960938 C 60.28125 45.96875 60.203125 45.949219 60.136719 45.894531 C 60.070312 45.839844 60.035156 45.769531 60.023438 45.683594 C 60.015625 45.597656 60.039062 45.519531 60.09375 45.453125 C 60.148438 45.386719 60.21875 45.351562 60.304688 45.34375 C 60.390625 45.332031 60.46875 45.355469 60.535156 45.410156 C 60.601562 45.464844 60.636719 45.535156 60.648438 45.621094 Z M 60.648438 45.621094 " fill-opacity="1" fill-rule="nonzero"/><path fill="#fffffd" d="M 59.761719 45.484375 C 59.828125 45.539062 59.867188 45.609375 59.875 45.695312 C 59.882812 45.78125 59.859375 45.859375 59.804688 45.925781 C 59.75 45.992188 59.679688 46.027344 59.59375 46.035156 C 59.507812 46.046875 59.433594 46.023438 59.367188 45.96875 C 59.300781 45.914062 59.261719 45.84375 59.253906 45.757812 C 59.246094 45.671875 59.269531 45.59375 59.324219 45.527344 C 59.378906 45.460938 59.449219 45.425781 59.535156 45.417969 C 59.621094 45.40625 59.695312 45.429688 59.761719 45.484375 Z M 59.761719 45.484375 " fill-opacity="1" fill-rule="nonzero"/><path fill="#fffffd" d="M 59.105469 45.773438 C 59.113281 45.859375 59.089844 45.933594 59.035156 46 C 58.980469 46.066406 58.910156 46.105469 58.824219 46.113281 C 58.738281 46.121094 58.664062 46.097656 58.59375 46.042969 C 58.527344 45.988281 58.492188 45.917969 58.484375 45.835938 C 58.472656 45.75 58.496094 45.671875 58.550781 45.605469 C 58.605469 45.539062 58.675781 45.503906 58.761719 45.492188 C 58.847656 45.484375 58.925781 45.507812 58.992188 45.5625 C 59.058594 45.617188 59.097656 45.6875 59.105469 45.773438 Z M 59.105469 45.773438 " fill-opacity="1" fill-rule="nonzero"/><path fill="#fffffd" d="M 58.308594 45.769531 C 58.339844 45.847656 58.339844 45.929688 58.308594 46.007812 C 58.273438 46.085938 58.214844 46.140625 58.136719 46.175781 C 58.054688 46.207031 57.976562 46.207031 57.898438 46.171875 C 57.816406 46.140625 57.761719 46.082031 57.730469 46.003906 C 57.699219 45.921875 57.699219 45.84375 57.730469 45.761719 C 57.765625 45.683594 57.824219 45.628906 57.902344 45.597656 C 57.984375 45.5625 58.0625 45.566406 58.140625 45.597656 C 58.222656 45.632812 58.277344 45.6875 58.308594 45.769531 Z M 58.308594 45.769531 " fill-opacity="1" fill-rule="nonzero"/></svg>