<svg xmlns="http://www.w3.org/2000/svg" xmlns:xlink="http://www.w3.org/1999/xlink" width="88" zoomAndPan="magnify" viewBox="0 0 66 64.499998" height="86" preserveAspectRatio="xMidYMid meet" version="1.0"><defs><clipPath id="c849feed0b"><path d="M 1 0.0351562 L 65.746094 0.0351562 L 65.746094 64.003906 L 1 64.003906 Z M 1 0.0351562 " clip-rule="nonzero"/></clipPath><clipPath id="cf071b9e57"><path d="M 29 12 L 65.746094 12 L 65.746094 42 L 29 42 Z M 29 12 " clip-rule="nonzero"/></clipPath></defs><g clip-path="url(#c849feed0b)"><path fill="#f2e6dc" d="M 65.730469 32.035156 C 65.730469 49.710938 51.417969 64.039062 33.761719 64.039062 C 16.109375 64.039062 1.796875 49.710938 1.796875 32.035156 C 1.796875 14.359375 16.109375 0.03125 33.761719 0.03125 C 51.417969 0.03125 65.730469 14.359375 65.730469 32.035156 " fill-opacity="1" fill-rule="nonzero"/></g><path fill="#f7f1eb" d="M 19.007812 12.5 L 17.835938 10.550781 C 18.53125 9.671875 18.945312 8.566406 18.945312 7.359375 C 18.945312 4.519531 16.648438 2.21875 13.8125 2.21875 C 10.976562 2.21875 8.679688 4.519531 8.679688 7.359375 C 8.679688 10.199219 10.976562 12.5 13.8125 12.5 C 14.785156 12.5 15.691406 12.226562 16.46875 11.757812 L 19.007812 12.5 " fill-opacity="1" fill-rule="nonzero"/><path fill="#e6d0be" d="M 13.503906 2.296875 C 10.714844 2.296875 8.445312 4.566406 8.445312 7.359375 C 8.445312 10.152344 10.714844 12.421875 13.503906 12.421875 C 14.429688 12.421875 15.332031 12.167969 16.121094 11.691406 C 16.136719 11.679688 16.160156 11.679688 16.179688 11.683594 L 18.53125 12.371094 L 17.460938 10.589844 C 17.445312 10.5625 17.445312 10.527344 17.464844 10.503906 C 18.183594 9.597656 18.558594 8.511719 18.558594 7.359375 C 18.558594 4.566406 16.292969 2.296875 13.503906 2.296875 Z M 18.699219 12.574219 C 18.691406 12.574219 18.683594 12.574219 18.675781 12.574219 L 16.171875 11.839844 C 15.367188 12.320312 14.445312 12.574219 13.503906 12.574219 C 10.628906 12.574219 8.292969 10.234375 8.292969 7.359375 C 8.292969 4.484375 10.628906 2.144531 13.503906 2.144531 C 16.378906 2.144531 18.714844 4.484375 18.714844 7.359375 C 18.714844 8.53125 18.335938 9.632812 17.621094 10.554688 L 18.765625 12.457031 C 18.78125 12.484375 18.777344 12.519531 18.757812 12.546875 C 18.742188 12.566406 18.722656 12.574219 18.699219 12.574219 " fill-opacity="1" fill-rule="nonzero"/><path fill="#d87355" d="M 16.640625 6.402344 C 16.429688 5.722656 15.792969 5.226562 15.039062 5.226562 C 14.554688 5.226562 14.117188 5.433594 13.8125 5.765625 C 13.507812 5.433594 13.070312 5.226562 12.582031 5.226562 C 11.832031 5.226562 11.195312 5.722656 10.984375 6.402344 C 10.933594 6.5625 10.910156 6.730469 10.910156 6.902344 C 10.910156 7.828125 12.003906 9.398438 13.8125 10.085938 C 15.621094 9.398438 16.714844 7.828125 16.714844 6.902344 C 16.714844 6.730469 16.6875 6.5625 16.640625 6.402344 " fill-opacity="1" fill-rule="nonzero"/><g clip-path="url(#cf071b9e57)"><path fill="#8b865c" d="M 29.523438 13.671875 L 32.996094 40.871094 L 65.261719 40.816406 L 63.421875 13.066406 Z M 32.929688 41.027344 C 32.890625 41.027344 32.855469 40.996094 32.851562 40.960938 L 29.359375 13.605469 C 29.355469 13.585938 29.363281 13.5625 29.375 13.546875 C 29.390625 13.527344 29.410156 13.519531 29.433594 13.519531 L 63.492188 12.910156 C 63.535156 12.910156 63.570312 12.941406 63.574219 12.984375 L 65.421875 40.890625 C 65.421875 40.910156 65.417969 40.929688 65.402344 40.945312 C 65.386719 40.960938 65.367188 40.972656 65.34375 40.972656 L 32.929688 41.027344 " fill-opacity="1" fill-rule="nonzero"/></g><path fill="#e6d0be" d="M 26.230469 42.042969 L 61.5625 41.984375 L 63.707031 12.675781 L 28.375 12.738281 L 26.230469 42.042969 " fill-opacity="1" fill-rule="nonzero"/><path fill="#f7f1eb" d="M 27.777344 41.058594 L 60.035156 41.003906 L 61.839844 16.359375 L 29.582031 16.414062 L 27.777344 41.058594 " fill-opacity="1" fill-rule="nonzero"/><path fill="#e6d0be" d="M 41.523438 24.078125 L 39.113281 24.078125 L 39.300781 21.550781 L 41.710938 21.550781 L 41.523438 24.078125 " fill-opacity="1" fill-rule="nonzero"/><path fill="#e6d0be" d="M 46.34375 24.078125 L 43.933594 24.078125 L 44.125 21.550781 L 46.53125 21.550781 L 46.34375 24.078125 " fill-opacity="1" fill-rule="nonzero"/><path fill="#e6d0be" d="M 51.167969 24.078125 L 48.757812 24.078125 L 48.945312 21.550781 L 51.355469 21.550781 L 51.167969 24.078125 " fill-opacity="1" fill-rule="nonzero"/><path fill="#e6d0be" d="M 55.988281 24.078125 L 53.582031 24.078125 L 53.769531 21.550781 L 56.179688 21.550781 L 55.988281 24.078125 " fill-opacity="1" fill-rule="nonzero"/><path fill="#e2a18d" d="M 41.144531 29.132812 L 38.734375 29.132812 L 38.921875 26.605469 L 41.332031 26.605469 L 41.144531 29.132812 " fill-opacity="1" fill-rule="nonzero"/><path fill="#e2a18d" d="M 45.964844 29.132812 L 43.558594 29.132812 L 43.746094 26.605469 L 46.15625 26.605469 L 45.964844 29.132812 " fill-opacity="1" fill-rule="nonzero"/><path fill="#e2a18d" d="M 50.789062 29.132812 L 48.378906 29.132812 L 48.570312 26.605469 L 50.976562 26.605469 L 50.789062 29.132812 " fill-opacity="1" fill-rule="nonzero"/><path fill="#e2a18d" d="M 55.609375 29.132812 L 53.203125 29.132812 L 53.390625 26.609375 L 55.800781 26.609375 L 55.609375 29.132812 " fill-opacity="1" fill-rule="nonzero"/><path fill="#e2a18d" d="M 40.765625 34.1875 L 38.355469 34.1875 L 38.546875 31.664062 L 40.953125 31.664062 L 40.765625 34.1875 " fill-opacity="1" fill-rule="nonzero"/><path fill="#e2a18d" d="M 45.589844 34.1875 L 43.179688 34.1875 L 43.367188 31.664062 L 45.777344 31.664062 L 45.589844 34.1875 " fill-opacity="1" fill-rule="nonzero"/><path fill="#e2a18d" d="M 50.410156 34.1875 L 48.003906 34.1875 L 48.191406 31.664062 L 50.601562 31.664062 L 50.410156 34.1875 " fill-opacity="1" fill-rule="nonzero"/><path fill="#e2a18d" d="M 55.234375 34.1875 L 52.824219 34.1875 L 53.011719 31.664062 L 55.421875 31.664062 L 55.234375 34.1875 " fill-opacity="1" fill-rule="nonzero"/><path fill="#e2a18d" d="M 40.386719 39.242188 L 37.980469 39.242188 L 38.167969 36.71875 L 40.578125 36.71875 L 40.386719 39.242188 " fill-opacity="1" fill-rule="nonzero"/><path fill="#e2a18d" d="M 45.210938 39.242188 L 42.800781 39.242188 L 42.988281 36.71875 L 45.398438 36.71875 L 45.210938 39.242188 " fill-opacity="1" fill-rule="nonzero"/><path fill="#e6d0be" d="M 32.109375 23.992188 L 29.703125 23.992188 L 29.890625 21.46875 L 32.300781 21.46875 L 32.109375 23.992188 " fill-opacity="1" fill-rule="nonzero"/><path fill="#e6d0be" d="M 36.933594 23.992188 L 34.523438 23.992188 L 34.710938 21.46875 L 37.121094 21.46875 L 36.933594 23.992188 " fill-opacity="1" fill-rule="nonzero"/><path fill="#e2a18d" d="M 31.734375 29.046875 L 29.324219 29.046875 L 29.511719 26.523438 L 31.921875 26.523438 L 31.734375 29.046875 " fill-opacity="1" fill-rule="nonzero"/><path fill="#e2a18d" d="M 36.554688 29.046875 L 34.144531 29.046875 L 34.335938 26.523438 L 36.742188 26.523438 L 36.554688 29.046875 " fill-opacity="1" fill-rule="nonzero"/><path fill="#e2a18d" d="M 31.355469 34.105469 L 28.945312 34.105469 L 29.132812 31.578125 L 31.542969 31.578125 L 31.355469 34.105469 " fill-opacity="1" fill-rule="nonzero"/><path fill="#e2a18d" d="M 36.175781 34.105469 L 33.769531 34.105469 L 33.957031 31.578125 L 36.367188 31.578125 L 36.175781 34.105469 " fill-opacity="1" fill-rule="nonzero"/><path fill="#e2a18d" d="M 30.976562 39.160156 L 28.566406 39.160156 L 28.757812 36.632812 L 31.164062 36.632812 L 30.976562 39.160156 " fill-opacity="1" fill-rule="nonzero"/><path fill="#e2a18d" d="M 35.800781 39.160156 L 33.390625 39.160156 L 33.578125 36.632812 L 35.988281 36.632812 L 35.800781 39.160156 " fill-opacity="1" fill-rule="nonzero"/><path fill="#e2a18d" d="M 50.03125 39.242188 L 47.625 39.242188 L 47.8125 36.71875 L 50.222656 36.71875 L 50.03125 39.242188 " fill-opacity="1" fill-rule="nonzero"/><path fill="#e6d0be" d="M 54.855469 39.242188 L 52.445312 39.242188 L 52.636719 36.71875 L 55.042969 36.71875 L 54.855469 39.242188 " fill-opacity="1" fill-rule="nonzero"/><path fill="#e6d0be" d="M 60.691406 23.984375 L 58.28125 23.984375 L 58.46875 21.457031 L 60.878906 21.457031 L 60.691406 23.984375 " fill-opacity="1" fill-rule="nonzero"/><path fill="#e2a18d" d="M 60.3125 29.039062 L 57.902344 29.039062 L 58.089844 26.511719 L 60.5 26.511719 L 60.3125 29.039062 " fill-opacity="1" fill-rule="nonzero"/><path fill="#e2a18d" d="M 59.933594 34.09375 L 57.523438 34.09375 L 57.714844 31.566406 L 60.121094 31.566406 L 59.933594 34.09375 " fill-opacity="1" fill-rule="nonzero"/><path fill="#e6d0be" d="M 59.554688 39.148438 L 57.144531 39.148438 L 57.335938 36.625 L 59.746094 36.625 L 59.554688 39.148438 " fill-opacity="1" fill-rule="nonzero"/><path fill="#e6d0be" d="M 50.613281 19.457031 L 38.550781 19.457031 L 38.699219 17.507812 L 50.761719 17.507812 L 50.613281 19.457031 " fill-opacity="1" fill-rule="nonzero"/><path fill="#8b865c" d="M 40.925781 11.308594 C 40.492188 11.308594 40.085938 11.484375 39.78125 11.800781 C 39.46875 12.121094 39.300781 12.546875 39.300781 13 C 39.296875 13.933594 40.027344 14.695312 40.925781 14.699219 C 41.359375 14.699219 41.765625 14.523438 42.074219 14.203125 C 42.382812 13.886719 42.550781 13.460938 42.554688 13.003906 C 42.554688 12.070312 41.824219 11.308594 40.929688 11.308594 Z M 40.925781 14.851562 L 40.921875 14.851562 C 39.941406 14.851562 39.144531 14.019531 39.144531 13 C 39.148438 12.507812 39.332031 12.042969 39.667969 11.695312 C 40.003906 11.347656 40.453125 11.152344 40.925781 11.152344 L 40.929688 11.152344 C 41.910156 11.15625 42.707031 11.988281 42.707031 13.007812 L 42.628906 13.007812 L 42.707031 13.007812 C 42.707031 13.5 42.519531 13.964844 42.183594 14.3125 C 41.847656 14.660156 41.402344 14.851562 40.925781 14.851562 " fill-opacity="1" fill-rule="nonzero"/><path fill="#8b865c" d="M 45.136719 13.011719 Z M 43.433594 11.3125 C 43 11.3125 42.59375 11.488281 42.285156 11.804688 C 41.976562 12.125 41.808594 12.550781 41.808594 13.003906 C 41.804688 13.9375 42.535156 14.699219 43.429688 14.703125 L 43.433594 14.703125 C 43.867188 14.703125 44.273438 14.527344 44.582031 14.207031 C 44.890625 13.890625 45.058594 13.464844 45.058594 13.011719 C 45.0625 12.074219 44.332031 11.3125 43.4375 11.3125 Z M 43.433594 14.855469 L 43.429688 14.855469 C 42.449219 14.855469 41.652344 14.023438 41.652344 13.003906 C 41.652344 12.511719 41.839844 12.046875 42.175781 11.699219 C 42.511719 11.351562 42.957031 11.15625 43.433594 11.15625 L 43.4375 11.15625 C 44.417969 11.160156 45.214844 11.992188 45.214844 13.011719 C 45.214844 13.503906 45.027344 13.96875 44.691406 14.316406 C 44.355469 14.664062 43.910156 14.855469 43.433594 14.855469 " fill-opacity="1" fill-rule="nonzero"/><path fill="#8b865c" d="M 47.644531 13.015625 Z M 45.941406 11.316406 C 45.507812 11.316406 45.097656 11.492188 44.792969 11.808594 C 44.484375 12.128906 44.3125 12.554688 44.3125 13.007812 C 44.3125 13.941406 45.039062 14.703125 45.9375 14.707031 C 46.367188 14.707031 46.777344 14.53125 47.085938 14.214844 C 47.394531 13.894531 47.566406 13.46875 47.566406 13.015625 C 47.566406 12.082031 46.839844 11.320312 45.941406 11.316406 Z M 45.941406 14.859375 L 45.9375 14.859375 C 44.957031 14.859375 44.15625 14.027344 44.160156 13.007812 C 44.160156 12.515625 44.34375 12.050781 44.683594 11.703125 C 45.019531 11.355469 45.464844 11.164062 45.941406 11.164062 C 46.925781 11.164062 47.722656 11.996094 47.71875 13.015625 C 47.71875 13.507812 47.535156 13.972656 47.199219 14.320312 C 46.863281 14.667969 46.414062 14.859375 45.941406 14.859375 " fill-opacity="1" fill-rule="nonzero"/><path fill="#8b865c" d="M 33.300781 11.261719 C 32.867188 11.261719 32.457031 11.4375 32.152344 11.753906 C 31.84375 12.074219 31.671875 12.5 31.671875 12.953125 C 31.671875 13.886719 32.398438 14.648438 33.296875 14.652344 L 33.300781 14.652344 C 33.730469 14.652344 34.140625 14.476562 34.445312 14.15625 C 34.753906 13.835938 34.925781 13.410156 34.925781 12.957031 C 34.925781 12.023438 34.199219 11.261719 33.300781 11.261719 Z M 33.300781 14.804688 L 33.296875 14.804688 C 32.3125 14.804688 31.515625 13.972656 31.519531 12.953125 C 31.519531 12.460938 31.703125 11.996094 32.039062 11.648438 C 32.378906 11.300781 32.824219 11.105469 33.300781 11.105469 C 34.285156 11.109375 35.082031 11.9375 35.078125 12.960938 C 35.078125 13.453125 34.894531 13.914062 34.558594 14.265625 C 34.222656 14.613281 33.773438 14.804688 33.300781 14.804688 " fill-opacity="1" fill-rule="nonzero"/><path fill="#8b865c" d="M 35.804688 11.265625 C 35.371094 11.265625 34.964844 11.441406 34.660156 11.757812 C 34.351562 12.078125 34.179688 12.503906 34.179688 12.957031 C 34.175781 13.890625 34.90625 14.652344 35.804688 14.65625 C 36.238281 14.65625 36.644531 14.480469 36.953125 14.160156 C 37.261719 13.84375 37.429688 13.417969 37.433594 12.964844 C 37.433594 12.027344 36.703125 11.265625 35.808594 11.265625 Z M 35.804688 14.808594 L 35.800781 14.808594 C 34.820312 14.808594 34.023438 13.976562 34.023438 12.957031 C 34.027344 12.464844 34.210938 12 34.546875 11.652344 C 34.882812 11.304688 35.332031 11.113281 35.804688 11.113281 L 35.808594 11.113281 C 36.789062 11.113281 37.585938 11.945312 37.585938 12.964844 C 37.585938 13.457031 37.398438 13.921875 37.0625 14.269531 C 36.726562 14.617188 36.28125 14.808594 35.804688 14.808594 " fill-opacity="1" fill-rule="nonzero"/><path fill="#8b865c" d="M 38.3125 11.269531 C 37.878906 11.269531 37.472656 11.445312 37.164062 11.761719 C 36.855469 12.082031 36.6875 12.507812 36.683594 12.960938 C 36.683594 13.894531 37.414062 14.65625 38.308594 14.660156 L 38.3125 14.660156 C 38.746094 14.660156 39.152344 14.484375 39.460938 14.164062 C 39.769531 13.847656 39.9375 13.421875 39.9375 12.96875 L 40.015625 12.96875 L 39.9375 12.96875 C 39.941406 12.03125 39.210938 11.269531 38.316406 11.269531 Z M 38.3125 14.8125 L 38.308594 14.8125 C 37.328125 14.8125 36.53125 13.980469 36.53125 12.960938 C 36.53125 12.46875 36.71875 12.003906 37.054688 11.65625 C 37.390625 11.308594 37.835938 11.117188 38.3125 11.117188 L 38.316406 11.117188 C 39.296875 11.117188 40.09375 11.949219 40.09375 12.96875 C 40.089844 13.460938 39.90625 13.925781 39.570312 14.273438 C 39.234375 14.621094 38.789062 14.8125 38.3125 14.8125 " fill-opacity="1" fill-rule="nonzero"/><path fill="#8b865c" d="M 48.445312 11.320312 C 48.015625 11.320312 47.605469 11.496094 47.300781 11.8125 C 46.992188 12.132812 46.820312 12.558594 46.820312 13.011719 C 46.820312 13.945312 47.546875 14.707031 48.445312 14.710938 C 48.878906 14.710938 49.285156 14.535156 49.59375 14.21875 C 49.902344 13.898438 50.070312 13.472656 50.074219 13.019531 C 50.074219 12.085938 49.347656 11.324219 48.449219 11.320312 Z M 48.445312 14.863281 L 48.441406 14.863281 C 47.460938 14.863281 46.664062 14.03125 46.664062 13.011719 C 46.667969 12.519531 46.851562 12.054688 47.1875 11.707031 C 47.523438 11.359375 47.972656 11.167969 48.445312 11.167969 L 48.449219 11.167969 C 49.429688 11.167969 50.230469 12 50.226562 13.019531 C 50.226562 13.511719 50.039062 13.976562 49.703125 14.324219 C 49.367188 14.671875 48.921875 14.863281 48.445312 14.863281 " fill-opacity="1" fill-rule="nonzero"/><path fill="#8b865c" d="M 50.953125 11.324219 C 50.519531 11.324219 50.113281 11.5 49.804688 11.820312 C 49.496094 12.136719 49.328125 12.5625 49.328125 13.015625 C 49.324219 13.953125 50.054688 14.714844 50.949219 14.714844 L 50.953125 14.714844 C 51.386719 14.714844 51.792969 14.539062 52.101562 14.222656 C 52.40625 13.902344 52.578125 13.476562 52.578125 13.023438 C 52.582031 12.089844 51.851562 11.328125 50.957031 11.324219 Z M 50.953125 14.871094 L 50.949219 14.871094 C 49.96875 14.867188 49.171875 14.035156 49.171875 13.015625 C 49.171875 12.523438 49.359375 12.058594 49.695312 11.710938 C 50.03125 11.363281 50.476562 11.171875 50.953125 11.171875 L 50.957031 11.171875 C 51.9375 11.171875 52.734375 12.003906 52.734375 13.023438 C 52.730469 13.515625 52.546875 13.980469 52.210938 14.328125 C 51.875 14.675781 51.425781 14.871094 50.953125 14.871094 " fill-opacity="1" fill-rule="nonzero"/><path fill="#8b865c" d="M 53.457031 11.328125 C 53.027344 11.328125 52.617188 11.503906 52.3125 11.824219 C 52.003906 12.144531 51.832031 12.570312 51.832031 13.023438 C 51.832031 13.957031 52.558594 14.71875 53.457031 14.71875 L 53.460938 14.71875 C 53.890625 14.71875 54.300781 14.542969 54.605469 14.226562 C 54.914062 13.90625 55.085938 13.480469 55.085938 13.027344 C 55.085938 12.09375 54.359375 11.332031 53.460938 11.328125 Z M 53.460938 14.875 L 53.457031 14.875 C 52.472656 14.871094 51.675781 14.042969 51.679688 13.023438 C 51.679688 12.527344 51.863281 12.066406 52.199219 11.714844 C 52.539062 11.367188 52.984375 11.175781 53.457031 11.175781 L 53.460938 11.175781 C 54.445312 11.175781 55.242188 12.007812 55.238281 13.027344 L 55.164062 13.027344 L 55.238281 13.027344 C 55.238281 13.519531 55.054688 13.984375 54.714844 14.332031 C 54.378906 14.683594 53.933594 14.875 53.460938 14.875 " fill-opacity="1" fill-rule="nonzero"/><path fill="#8b865c" d="M 55.964844 11.335938 C 55.53125 11.335938 55.125 11.507812 54.816406 11.828125 C 54.511719 12.148438 54.339844 12.574219 54.339844 13.027344 C 54.335938 13.960938 55.066406 14.722656 55.964844 14.722656 C 56.398438 14.722656 56.804688 14.546875 57.113281 14.230469 C 57.421875 13.910156 57.59375 13.484375 57.59375 13.03125 C 57.59375 12.097656 56.867188 11.335938 55.96875 11.335938 Z M 55.964844 14.878906 C 54.980469 14.875 54.183594 14.046875 54.183594 13.027344 C 54.1875 12.53125 54.371094 12.070312 54.707031 11.71875 C 55.042969 11.371094 55.492188 11.179688 55.964844 11.179688 L 55.96875 11.179688 C 56.949219 11.179688 57.746094 12.011719 57.746094 13.03125 C 57.746094 13.523438 57.558594 13.988281 57.222656 14.335938 C 56.886719 14.6875 56.441406 14.878906 55.964844 14.878906 " fill-opacity="1" fill-rule="nonzero"/><path fill="#8b865c" d="M 60.175781 13.035156 Z M 58.472656 11.339844 C 58.039062 11.339844 57.632812 11.511719 57.324219 11.832031 C 57.015625 12.152344 56.847656 12.578125 56.847656 13.03125 C 56.84375 13.964844 57.574219 14.726562 58.46875 14.726562 L 58.472656 14.726562 C 58.90625 14.726562 59.3125 14.550781 59.621094 14.234375 C 59.929688 13.914062 60.097656 13.488281 60.097656 13.035156 C 60.101562 12.101562 59.371094 11.339844 58.476562 11.339844 Z M 58.472656 14.882812 L 58.46875 14.882812 C 57.488281 14.878906 56.691406 14.050781 56.691406 13.03125 C 56.691406 12.535156 56.878906 12.074219 57.214844 11.722656 C 57.550781 11.375 57.996094 11.183594 58.472656 11.183594 L 58.476562 11.183594 C 59.457031 11.1875 60.253906 12.015625 60.253906 13.035156 C 60.253906 13.53125 60.066406 13.992188 59.730469 14.339844 C 59.394531 14.691406 58.945312 14.882812 58.472656 14.882812 " fill-opacity="1" fill-rule="nonzero"/><path fill="#8b865c" d="M 62.683594 13.039062 Z M 60.980469 11.34375 C 60.546875 11.34375 60.136719 11.519531 59.832031 11.835938 C 59.523438 12.15625 59.351562 12.582031 59.351562 13.035156 C 59.351562 13.96875 60.078125 14.730469 60.976562 14.730469 L 60.980469 14.730469 C 61.410156 14.730469 61.820312 14.558594 62.125 14.238281 C 62.433594 13.917969 62.605469 13.492188 62.605469 13.039062 C 62.605469 12.105469 61.878906 11.34375 60.980469 11.34375 Z M 60.980469 14.886719 L 60.976562 14.886719 C 59.996094 14.886719 59.195312 14.054688 59.199219 13.035156 C 59.199219 12.539062 59.382812 12.078125 59.722656 11.730469 C 60.058594 11.378906 60.503906 11.1875 60.980469 11.1875 C 61.964844 11.191406 62.761719 12.019531 62.757812 13.039062 C 62.757812 13.535156 62.574219 13.996094 62.238281 14.347656 C 61.898438 14.695312 61.453125 14.886719 60.980469 14.886719 " fill-opacity="1" fill-rule="nonzero"/><path fill="#ffffff" d="M 43.601562 14.382812 C 43.601562 14.84375 43.242188 15.21875 42.796875 15.21875 C 42.355469 15.214844 41.996094 14.84375 41.996094 14.382812 C 41.996094 13.917969 42.355469 13.546875 42.800781 13.546875 C 43.242188 13.546875 43.601562 13.921875 43.601562 14.382812 " fill-opacity="1" fill-rule="nonzero"/><path fill="#ffffff" d="M 46.109375 14.386719 C 46.105469 14.847656 45.746094 15.222656 45.304688 15.222656 C 44.859375 15.222656 44.5 14.847656 44.5 14.386719 C 44.503906 13.925781 44.863281 13.550781 45.304688 13.550781 C 45.75 13.550781 46.109375 13.925781 46.109375 14.386719 " fill-opacity="1" fill-rule="nonzero"/><path fill="#ffffff" d="M 48.613281 14.394531 C 48.613281 14.855469 48.253906 15.226562 47.808594 15.226562 C 47.367188 15.226562 47.007812 14.851562 47.007812 14.390625 C 47.007812 13.929688 47.367188 13.554688 47.8125 13.554688 C 48.253906 13.558594 48.613281 13.929688 48.613281 14.394531 " fill-opacity="1" fill-rule="nonzero"/><path fill="#ffffff" d="M 51.121094 14.398438 C 51.121094 14.859375 50.761719 15.230469 50.316406 15.230469 C 49.871094 15.230469 49.515625 14.855469 49.515625 14.394531 C 49.515625 13.933594 49.875 13.558594 50.320312 13.558594 C 50.761719 13.5625 51.121094 13.9375 51.121094 14.398438 " fill-opacity="1" fill-rule="nonzero"/><path fill="#ffffff" d="M 53.628906 14.402344 C 53.625 14.863281 53.265625 15.234375 52.824219 15.234375 C 52.378906 15.234375 52.019531 14.859375 52.019531 14.398438 C 52.023438 13.9375 52.382812 13.5625 52.824219 13.566406 C 53.269531 13.566406 53.628906 13.941406 53.628906 14.402344 " fill-opacity="1" fill-rule="nonzero"/><path fill="#ffffff" d="M 56.132812 14.40625 C 56.132812 14.867188 55.773438 15.238281 55.328125 15.238281 C 54.886719 15.238281 54.527344 14.863281 54.527344 14.402344 C 54.527344 13.941406 54.890625 13.566406 55.332031 13.570312 C 55.777344 13.570312 56.132812 13.945312 56.132812 14.40625 " fill-opacity="1" fill-rule="nonzero"/><path fill="#ffffff" d="M 58.640625 14.410156 C 58.640625 14.871094 58.277344 15.246094 57.835938 15.242188 C 57.390625 15.242188 57.035156 14.867188 57.035156 14.40625 C 57.035156 13.945312 57.394531 13.574219 57.839844 13.574219 C 58.28125 13.574219 58.640625 13.949219 58.640625 14.410156 " fill-opacity="1" fill-rule="nonzero"/><path fill="#ffffff" d="M 61.148438 14.414062 C 61.144531 14.875 60.785156 15.25 60.34375 15.246094 C 59.898438 15.246094 59.539062 14.871094 59.542969 14.410156 C 59.542969 13.949219 59.902344 13.578125 60.34375 13.578125 C 60.789062 13.578125 61.148438 13.953125 61.148438 14.414062 " fill-opacity="1" fill-rule="nonzero"/><path fill="#ffffff" d="M 41.09375 14.585938 C 41.09375 15.046875 40.734375 15.421875 40.289062 15.417969 C 39.847656 15.417969 39.488281 15.042969 39.488281 14.582031 C 39.488281 14.121094 39.851562 13.75 40.292969 13.75 C 40.738281 13.75 41.097656 14.125 41.09375 14.585938 " fill-opacity="1" fill-rule="nonzero"/><path fill="#8b865c" d="M 40.609375 14.820312 C 40.601562 14.820312 40.597656 14.820312 40.59375 14.820312 C 39.753906 14.652344 39.144531 13.890625 39.144531 13 C 39.148438 12.507812 39.332031 12.042969 39.667969 11.695312 C 40.003906 11.347656 40.453125 11.152344 40.925781 11.152344 C 40.972656 11.152344 41.007812 11.1875 41.007812 11.230469 C 41.007812 11.273438 40.972656 11.308594 40.929688 11.308594 L 40.925781 11.308594 C 40.492188 11.308594 40.085938 11.484375 39.78125 11.800781 C 39.46875 12.121094 39.300781 12.546875 39.300781 13 C 39.296875 13.816406 39.855469 14.515625 40.621094 14.667969 C 40.664062 14.675781 40.691406 14.71875 40.683594 14.757812 C 40.675781 14.796875 40.644531 14.820312 40.609375 14.820312 " fill-opacity="1" fill-rule="nonzero"/><path fill="#8b865c" d="M 43.113281 14.824219 C 43.109375 14.824219 43.105469 14.824219 43.101562 14.824219 C 42.257812 14.660156 41.652344 13.894531 41.652344 13.003906 C 41.652344 12.511719 41.839844 12.046875 42.175781 11.699219 C 42.511719 11.351562 42.957031 11.15625 43.433594 11.15625 C 43.476562 11.15625 43.511719 11.191406 43.511719 11.234375 C 43.511719 11.277344 43.480469 11.3125 43.4375 11.3125 L 43.433594 11.3125 C 43 11.3125 42.59375 11.488281 42.285156 11.804688 C 41.976562 12.125 41.808594 12.550781 41.808594 13.003906 C 41.804688 13.820312 42.363281 14.519531 43.128906 14.671875 C 43.171875 14.679688 43.199219 14.722656 43.191406 14.761719 C 43.183594 14.800781 43.152344 14.824219 43.113281 14.824219 " fill-opacity="1" fill-rule="nonzero"/><path fill="#8b865c" d="M 45.621094 14.828125 C 45.617188 14.828125 45.609375 14.828125 45.605469 14.828125 C 44.765625 14.664062 44.15625 13.898438 44.160156 13.007812 C 44.160156 12.515625 44.34375 12.050781 44.683594 11.703125 C 45.019531 11.355469 45.464844 11.164062 45.941406 11.164062 C 45.984375 11.164062 46.019531 11.195312 46.019531 11.238281 C 46.019531 11.28125 45.984375 11.316406 45.941406 11.316406 C 45.507812 11.316406 45.097656 11.492188 44.792969 11.808594 C 44.484375 12.128906 44.3125 12.554688 44.3125 13.007812 C 44.3125 13.824219 44.867188 14.527344 45.636719 14.675781 C 45.675781 14.683594 45.703125 14.726562 45.695312 14.765625 C 45.6875 14.804688 45.65625 14.828125 45.621094 14.828125 " fill-opacity="1" fill-rule="nonzero"/><path fill="#ffffff" d="M 35.984375 14.355469 C 35.984375 14.816406 35.625 15.1875 35.179688 15.1875 C 34.738281 15.1875 34.378906 14.8125 34.378906 14.351562 C 34.378906 13.890625 34.738281 13.515625 35.183594 13.519531 C 35.625 13.519531 35.984375 13.894531 35.984375 14.355469 " fill-opacity="1" fill-rule="nonzero"/><path fill="#ffffff" d="M 38.492188 14.359375 C 38.492188 14.820312 38.128906 15.191406 37.6875 15.191406 C 37.242188 15.191406 36.882812 14.816406 36.886719 14.355469 C 36.886719 13.894531 37.246094 13.519531 37.691406 13.523438 C 38.132812 13.523438 38.492188 13.898438 38.492188 14.359375 " fill-opacity="1" fill-rule="nonzero"/><path fill="#ffffff" d="M 33.59375 14.566406 C 33.59375 15.03125 33.234375 15.402344 32.789062 15.402344 C 32.347656 15.402344 31.988281 15.027344 31.988281 14.566406 C 31.988281 14.105469 32.347656 13.730469 32.792969 13.730469 C 33.234375 13.734375 33.59375 14.105469 33.59375 14.566406 " fill-opacity="1" fill-rule="nonzero"/><path fill="#8b865c" d="M 32.992188 14.792969 C 32.984375 14.792969 32.980469 14.792969 32.976562 14.789062 C 32.136719 14.625 31.527344 13.859375 31.53125 12.972656 C 31.53125 12.476562 31.714844 12.011719 32.050781 11.664062 C 32.386719 11.316406 32.835938 11.125 33.308594 11.125 C 33.351562 11.125 33.390625 11.160156 33.390625 11.203125 C 33.390625 11.246094 33.355469 11.277344 33.3125 11.277344 L 33.308594 11.277344 C 32.878906 11.277344 32.46875 11.453125 32.164062 11.773438 C 31.855469 12.09375 31.683594 12.515625 31.683594 12.972656 C 31.683594 13.785156 32.238281 14.488281 33.003906 14.640625 C 33.046875 14.648438 33.074219 14.6875 33.066406 14.730469 C 33.058594 14.765625 33.027344 14.792969 32.992188 14.792969 " fill-opacity="1" fill-rule="nonzero"/><path fill="#8b865c" d="M 35.496094 14.796875 C 35.492188 14.796875 35.488281 14.796875 35.480469 14.792969 C 34.644531 14.628906 34.035156 13.863281 34.035156 12.976562 C 34.035156 12.480469 34.222656 12.019531 34.558594 11.667969 C 34.894531 11.320312 35.339844 11.128906 35.816406 11.128906 C 35.859375 11.128906 35.894531 11.164062 35.894531 11.207031 C 35.894531 11.25 35.863281 11.285156 35.820312 11.285156 L 35.816406 11.285156 C 35.382812 11.285156 34.976562 11.457031 34.667969 11.777344 C 34.359375 12.097656 34.191406 12.523438 34.191406 12.976562 C 34.1875 13.789062 34.746094 14.492188 35.511719 14.644531 C 35.554688 14.652344 35.582031 14.691406 35.574219 14.734375 C 35.566406 14.769531 35.535156 14.796875 35.496094 14.796875 " fill-opacity="1" fill-rule="nonzero"/><path fill="#8b865c" d="M 38.003906 14.800781 C 38 14.800781 37.996094 14.800781 37.988281 14.796875 C 37.148438 14.632812 36.539062 13.867188 36.542969 12.980469 C 36.542969 12.484375 36.730469 12.023438 37.066406 11.671875 C 37.402344 11.324219 37.847656 11.132812 38.324219 11.132812 C 38.367188 11.132812 38.402344 11.167969 38.402344 11.210938 C 38.402344 11.253906 38.367188 11.289062 38.324219 11.289062 C 37.890625 11.289062 37.484375 11.460938 37.175781 11.78125 C 36.867188 12.101562 36.699219 12.527344 36.695312 12.980469 C 36.695312 13.792969 37.25 14.496094 38.019531 14.648438 C 38.0625 14.65625 38.089844 14.695312 38.078125 14.738281 C 38.074219 14.773438 38.039062 14.800781 38.003906 14.800781 " fill-opacity="1" fill-rule="nonzero"/><path fill="#8b865c" d="M 48.128906 14.832031 C 48.121094 14.832031 48.117188 14.832031 48.113281 14.832031 C 47.273438 14.667969 46.664062 13.902344 46.664062 13.011719 C 46.667969 12.519531 46.851562 12.054688 47.1875 11.707031 C 47.523438 11.359375 47.972656 11.167969 48.445312 11.167969 C 48.492188 11.167969 48.527344 11.199219 48.527344 11.242188 C 48.527344 11.285156 48.492188 11.320312 48.449219 11.320312 L 48.445312 11.320312 C 48.011719 11.320312 47.605469 11.496094 47.300781 11.8125 C 46.992188 12.132812 46.820312 12.558594 46.820312 13.011719 C 46.820312 13.828125 47.375 14.53125 48.140625 14.679688 C 48.183594 14.6875 48.210938 14.730469 48.203125 14.769531 C 48.195312 14.808594 48.164062 14.832031 48.128906 14.832031 " fill-opacity="1" fill-rule="nonzero"/><path fill="#8b865c" d="M 50.632812 14.839844 C 50.628906 14.839844 50.625 14.839844 50.617188 14.835938 C 49.777344 14.671875 49.171875 13.90625 49.171875 13.015625 C 49.171875 12.523438 49.359375 12.058594 49.695312 11.710938 C 50.03125 11.363281 50.476562 11.171875 50.953125 11.171875 C 50.996094 11.171875 51.03125 11.203125 51.03125 11.25 C 51.03125 11.292969 50.996094 11.324219 50.957031 11.324219 L 50.953125 11.324219 C 50.519531 11.324219 50.113281 11.5 49.804688 11.820312 C 49.496094 12.140625 49.328125 12.5625 49.324219 13.019531 C 49.324219 13.832031 49.878906 14.535156 50.648438 14.683594 C 50.691406 14.695312 50.71875 14.734375 50.710938 14.777344 C 50.703125 14.8125 50.667969 14.839844 50.632812 14.839844 " fill-opacity="1" fill-rule="nonzero"/><path fill="#8b865c" d="M 53.140625 14.84375 C 53.136719 14.84375 53.128906 14.84375 53.125 14.839844 C 52.285156 14.675781 51.675781 13.910156 51.679688 13.019531 C 51.679688 12.527344 51.867188 12.0625 52.203125 11.714844 C 52.539062 11.367188 52.984375 11.175781 53.460938 11.175781 C 53.503906 11.175781 53.539062 11.210938 53.539062 11.253906 C 53.539062 11.296875 53.503906 11.328125 53.460938 11.328125 C 53.027344 11.328125 52.621094 11.503906 52.3125 11.824219 C 52.003906 12.144531 51.832031 12.570312 51.832031 13.023438 C 51.832031 13.835938 52.386719 14.539062 53.15625 14.691406 C 53.195312 14.699219 53.222656 14.738281 53.214844 14.78125 C 53.210938 14.816406 53.175781 14.84375 53.140625 14.84375 " fill-opacity="1" fill-rule="nonzero"/><path fill="#8b865c" d="M 55.648438 14.847656 C 55.640625 14.847656 55.636719 14.847656 55.632812 14.84375 C 54.792969 14.679688 54.183594 13.914062 54.183594 13.027344 C 54.1875 12.53125 54.371094 12.070312 54.707031 11.71875 C 55.042969 11.371094 55.492188 11.179688 55.964844 11.179688 C 56.011719 11.179688 56.046875 11.214844 56.046875 11.257812 C 56.046875 11.300781 56.011719 11.335938 55.96875 11.335938 L 55.964844 11.335938 C 55.53125 11.335938 55.125 11.507812 54.816406 11.828125 C 54.511719 12.148438 54.339844 12.574219 54.339844 13.027344 C 54.339844 13.839844 54.894531 14.542969 55.660156 14.695312 C 55.703125 14.703125 55.730469 14.742188 55.722656 14.785156 C 55.714844 14.820312 55.683594 14.847656 55.648438 14.847656 " fill-opacity="1" fill-rule="nonzero"/><path fill="#8b865c" d="M 58.152344 14.851562 C 58.148438 14.851562 58.144531 14.851562 58.136719 14.851562 C 57.300781 14.683594 56.691406 13.917969 56.691406 13.03125 C 56.691406 12.535156 56.878906 12.074219 57.214844 11.726562 C 57.550781 11.375 57.996094 11.183594 58.472656 11.183594 C 58.515625 11.183594 58.550781 11.21875 58.550781 11.261719 C 58.550781 11.304688 58.515625 11.339844 58.476562 11.339844 L 58.472656 11.339844 C 58.039062 11.339844 57.632812 11.515625 57.324219 11.832031 C 57.015625 12.152344 56.847656 12.578125 56.847656 13.03125 C 56.84375 13.847656 57.402344 14.546875 58.167969 14.699219 C 58.210938 14.707031 58.238281 14.746094 58.230469 14.789062 C 58.222656 14.824219 58.191406 14.851562 58.152344 14.851562 " fill-opacity="1" fill-rule="nonzero"/><path fill="#8b865c" d="M 60.660156 14.855469 C 60.65625 14.855469 60.648438 14.855469 60.644531 14.855469 C 59.804688 14.6875 59.195312 13.921875 59.199219 13.035156 C 59.199219 12.539062 59.382812 12.078125 59.71875 11.730469 C 60.058594 11.378906 60.503906 11.1875 60.980469 11.1875 C 61.023438 11.1875 61.058594 11.222656 61.058594 11.265625 C 61.058594 11.308594 61.023438 11.34375 60.980469 11.34375 C 60.546875 11.34375 60.136719 11.519531 59.832031 11.835938 C 59.523438 12.15625 59.351562 12.582031 59.351562 13.035156 C 59.351562 13.851562 59.90625 14.550781 60.675781 14.703125 C 60.71875 14.710938 60.742188 14.75 60.734375 14.792969 C 60.726562 14.828125 60.695312 14.855469 60.660156 14.855469 " fill-opacity="1" fill-rule="nonzero"/><path fill="#8b865c" d="M 22.003906 61.671875 L 22.734375 47.507812 L 26.625 63.058594 C 26.859375 63.121094 27.378906 63.386719 27.601562 63.421875 C 30.644531 63.882812 32.339844 64.03125 35.28125 63.988281 L 29.539062 33.382812 L 14.824219 35.949219 L 12.464844 56.019531 C 13.019531 56.394531 13.925781 57.070312 14.390625 57.40625 C 15.539062 58.234375 16.96875 59.257812 18.222656 60.007812 C 19.597656 60.832031 20.753906 61.035156 22.003906 61.671875 " fill-opacity="1" fill-rule="nonzero"/><path fill="#84524d" d="M 27.894531 27.800781 C 30.914062 30.082031 39.265625 37.164062 41.921875 33.894531 C 44.117188 31.1875 35.828125 24.855469 32.617188 22.433594 C 30.96875 24.308594 29.542969 25.925781 27.894531 27.800781 " fill-opacity="1" fill-rule="nonzero"/><path fill="#84524d" d="M 11.976562 21.390625 C 9.503906 22.351562 0.429688 25.054688 1.945312 29.042969 C 2.800781 31.289062 9.976562 29.335938 12.203125 28.496094 C 11.632812 26.871094 12.546875 23.015625 11.976562 21.390625 " fill-opacity="1" fill-rule="nonzero"/><path fill="#efbc73" d="M 38.5 26.472656 C 38.5 26.472656 31.046875 19.402344 23.515625 19.035156 C 14.664062 18.601562 5.960938 21.605469 5.960938 21.605469 L 11.167969 29.742188 L 13.210938 39.144531 L 32.261719 39.457031 L 32.265625 33.628906 L 38.5 26.472656 " fill-opacity="1" fill-rule="nonzero"/><path fill="#84524d" d="M 36.789062 29.511719 C 36.789062 29.511719 43.847656 22.84375 44.710938 21.894531 C 44.800781 21.792969 44.960938 21.617188 45.21875 21.453125 C 46.183594 20.84375 47.003906 21.371094 48.3125 21.191406 C 49.792969 20.992188 50.515625 20.035156 50.800781 20.292969 C 50.996094 20.472656 50.824219 20.910156 50.179688 21.601562 C 50.730469 21.132812 51.503906 20.527344 51.761719 20.832031 C 52.042969 21.199219 51.214844 22.015625 50.691406 22.484375 C 51.328125 21.917969 51.832031 21.804688 51.933594 22.011719 C 52.09375 22.335938 51.707031 22.890625 50.839844 23.609375 C 51.574219 23.28125 51.804688 23.3125 51.847656 23.515625 C 51.933594 23.886719 51.207031 24.464844 50.492188 24.875 C 49.683594 25.339844 48.894531 25.417969 48.398438 25.457031 C 45.996094 28.808594 44.363281 31.476562 42.035156 33.851562 C 40.757812 35.152344 37.003906 31.917969 36.789062 29.511719 " fill-opacity="1" fill-rule="nonzero"/><path fill="#363e44" d="M 36.789062 29.585938 C 36.777344 29.585938 36.765625 29.585938 36.757812 29.582031 C 36.730469 29.570312 36.710938 29.539062 36.710938 29.511719 C 36.710938 29.476562 36.722656 29.464844 36.757812 29.433594 C 36.902344 29.296875 37.714844 28.527344 38.765625 27.527344 C 38.796875 27.5 38.847656 27.5 38.875 27.53125 C 38.90625 27.5625 38.902344 27.613281 38.875 27.640625 C 37.820312 28.640625 37.007812 29.40625 36.863281 29.542969 L 36.839844 29.566406 C 36.824219 29.582031 36.808594 29.585938 36.789062 29.585938 " fill-opacity="1" fill-rule="nonzero"/><path fill="#84524d" d="M 47.148438 21.636719 C 48.058594 20.464844 48.140625 19.851562 47.949219 19.710938 C 47.628906 19.480469 46.445312 20.160156 44.898438 21.703125 C 45.527344 21.742188 46.519531 21.597656 47.148438 21.636719 " fill-opacity="1" fill-rule="nonzero"/><path fill="#363e44" d="M 47.445312 21.355469 L 47.441406 21.355469 C 47.261719 21.347656 47.089844 21.332031 46.925781 21.316406 C 46.585938 21.285156 46.261719 21.257812 45.953125 21.304688 C 45.910156 21.308594 45.871094 21.28125 45.863281 21.238281 C 45.859375 21.195312 45.886719 21.15625 45.929688 21.152344 C 46.257812 21.101562 46.589844 21.132812 46.941406 21.164062 C 47.101562 21.175781 47.269531 21.191406 47.445312 21.199219 C 47.488281 21.203125 47.523438 21.238281 47.519531 21.28125 C 47.519531 21.324219 47.484375 21.355469 47.445312 21.355469 " fill-opacity="1" fill-rule="nonzero"/><path fill="#363e44" d="M 48.929688 22.179688 C 48.894531 22.179688 48.863281 22.15625 48.855469 22.117188 C 48.847656 22.074219 48.875 22.035156 48.917969 22.027344 C 49.089844 21.996094 49.261719 21.949219 49.425781 21.886719 C 49.664062 21.800781 49.886719 21.675781 50.09375 21.527344 C 50.128906 21.5 50.179688 21.507812 50.203125 21.542969 C 50.226562 21.578125 50.21875 21.628906 50.183594 21.652344 C 49.96875 21.808594 49.730469 21.9375 49.480469 22.03125 C 49.304688 22.097656 49.125 22.148438 48.945312 22.179688 C 48.9375 22.179688 48.933594 22.179688 48.929688 22.179688 " fill-opacity="1" fill-rule="nonzero"/><path fill="#363e44" d="M 49.519531 22.988281 C 49.484375 22.988281 49.453125 22.964844 49.445312 22.925781 C 49.4375 22.882812 49.464844 22.84375 49.507812 22.835938 C 49.679688 22.804688 49.851562 22.757812 50.015625 22.699219 C 50.253906 22.609375 50.480469 22.484375 50.6875 22.335938 C 50.71875 22.3125 50.769531 22.320312 50.792969 22.351562 C 50.816406 22.386719 50.8125 22.4375 50.777344 22.460938 C 50.558594 22.621094 50.320312 22.746094 50.070312 22.84375 C 49.898438 22.90625 49.71875 22.957031 49.535156 22.988281 C 49.53125 22.988281 49.527344 22.988281 49.519531 22.988281 " fill-opacity="1" fill-rule="nonzero"/><path fill="#363e44" d="M 45.953125 24.703125 C 45.941406 24.703125 45.929688 24.699219 45.917969 24.695312 C 45.882812 24.675781 45.867188 24.628906 45.886719 24.589844 C 45.972656 24.417969 46.226562 23.996094 46.75 23.773438 C 47.363281 23.511719 47.929688 23.707031 48.089844 23.773438 C 48.128906 23.792969 48.148438 23.835938 48.132812 23.875 C 48.117188 23.914062 48.070312 23.933594 48.03125 23.917969 C 47.886719 23.855469 47.371094 23.679688 46.808594 23.917969 C 46.335938 24.121094 46.101562 24.503906 46.023438 24.660156 C 46.007812 24.6875 45.984375 24.703125 45.953125 24.703125 " fill-opacity="1" fill-rule="nonzero"/><path fill="#363e44" d="M 49.609375 24.207031 C 49.570312 24.207031 49.539062 24.179688 49.53125 24.140625 C 49.523438 24.101562 49.554688 24.0625 49.59375 24.054688 C 49.769531 24.023438 49.9375 23.976562 50.101562 23.914062 C 50.339844 23.824219 50.566406 23.703125 50.773438 23.550781 C 50.808594 23.527344 50.855469 23.535156 50.878906 23.570312 C 50.90625 23.605469 50.898438 23.652344 50.863281 23.675781 C 50.644531 23.835938 50.40625 23.964844 50.15625 24.058594 C 49.984375 24.125 49.804688 24.171875 49.621094 24.207031 C 49.617188 24.207031 49.613281 24.207031 49.609375 24.207031 " fill-opacity="1" fill-rule="nonzero"/><path fill="#363e44" d="M 20.546875 14.242188 L 25.789062 14.738281 L 26.175781 10.636719 L 20.929688 10.144531 L 20.546875 14.242188 " fill-opacity="1" fill-rule="nonzero"/><path fill="#84524d" d="M 23.179688 21.109375 L 21.226562 18.992188 L 21.226562 15.777344 L 24.976562 15.777344 L 25.128906 19.210938 L 23.179688 21.109375 " fill-opacity="1" fill-rule="nonzero"/><path fill="#84524d" d="M 25.894531 13.777344 C 25.828125 15.238281 24.960938 17.511719 23.078125 17.421875 C 21.199219 17.332031 20.550781 14.988281 20.617188 13.53125 C 20.6875 12.070312 21.9375 11.328125 23.394531 11.394531 C 24.851562 11.464844 25.964844 12.320312 25.894531 13.777344 " fill-opacity="1" fill-rule="nonzero"/><path fill="#84524d" d="M 21.15625 14.160156 C 21.382812 14.734375 21.25 15.324219 20.867188 15.472656 C 20.484375 15.625 19.992188 15.277344 19.765625 14.699219 C 19.542969 14.121094 19.671875 13.535156 20.058594 13.382812 C 20.441406 13.234375 20.933594 13.582031 21.15625 14.160156 " fill-opacity="1" fill-rule="nonzero"/><path fill="#84524d" d="M 25.285156 14.351562 C 25.007812 14.90625 25.082031 15.503906 25.453125 15.691406 C 25.820312 15.875 26.34375 15.574219 26.621094 15.023438 C 26.898438 14.46875 26.824219 13.871094 26.453125 13.6875 C 26.085938 13.5 25.5625 13.800781 25.285156 14.351562 " fill-opacity="1" fill-rule="nonzero"/><path fill="#363e44" d="M 26.015625 15.273438 C 25.988281 15.273438 25.964844 15.257812 25.949219 15.234375 C 25.929688 15.199219 25.941406 15.152344 25.976562 15.128906 C 26.085938 15.070312 26.179688 14.964844 26.242188 14.832031 C 26.371094 14.578125 26.347656 14.296875 26.1875 14.21875 C 26.175781 14.210938 26.160156 14.207031 26.144531 14.203125 C 26.101562 14.191406 26.078125 14.152344 26.085938 14.109375 C 26.097656 14.070312 26.136719 14.042969 26.179688 14.050781 C 26.207031 14.058594 26.234375 14.066406 26.257812 14.082031 C 26.496094 14.199219 26.550781 14.5625 26.382812 14.902344 C 26.300781 15.058594 26.1875 15.1875 26.054688 15.261719 C 26.042969 15.269531 26.03125 15.273438 26.015625 15.273438 " fill-opacity="1" fill-rule="nonzero"/><path fill="#363e44" d="M 20.375 15.007812 C 20.359375 15.007812 20.34375 15.003906 20.332031 14.992188 C 20.207031 14.90625 20.105469 14.769531 20.039062 14.605469 C 19.902344 14.25 19.988281 13.894531 20.238281 13.796875 C 20.265625 13.785156 20.292969 13.78125 20.320312 13.777344 C 20.363281 13.769531 20.402344 13.800781 20.40625 13.84375 C 20.414062 13.882812 20.382812 13.921875 20.339844 13.929688 C 20.324219 13.929688 20.308594 13.933594 20.296875 13.941406 C 20.132812 14.003906 20.082031 14.28125 20.183594 14.546875 C 20.234375 14.683594 20.320312 14.796875 20.417969 14.867188 C 20.453125 14.890625 20.464844 14.941406 20.4375 14.976562 C 20.421875 14.996094 20.398438 15.007812 20.375 15.007812 " fill-opacity="1" fill-rule="nonzero"/><path fill="#363e44" d="M 25.59375 15.359375 C 25.585938 15.359375 25.574219 15.359375 25.566406 15.355469 C 25.527344 15.339844 25.507812 15.296875 25.519531 15.257812 C 25.65625 14.867188 25.753906 14.453125 25.796875 14.050781 C 25.800781 14.011719 25.839844 13.980469 25.882812 13.984375 C 25.925781 13.988281 25.953125 14.027344 25.949219 14.070312 C 25.90625 14.480469 25.808594 14.910156 25.664062 15.308594 C 25.65625 15.339844 25.625 15.359375 25.59375 15.359375 " fill-opacity="1" fill-rule="nonzero"/><path fill="#363e44" d="M 20.816406 15.273438 C 20.78125 15.273438 20.75 15.25 20.742188 15.21875 C 20.605469 14.730469 20.53125 14.195312 20.535156 13.703125 C 20.535156 13.660156 20.570312 13.625 20.613281 13.625 C 20.65625 13.625 20.691406 13.660156 20.691406 13.703125 C 20.6875 14.179688 20.757812 14.703125 20.890625 15.175781 C 20.902344 15.214844 20.878906 15.257812 20.835938 15.269531 C 20.828125 15.273438 20.824219 15.273438 20.816406 15.273438 " fill-opacity="1" fill-rule="nonzero"/><path fill="#363e44" d="M 23.171875 17.546875 C 23.136719 17.546875 23.101562 17.546875 23.066406 17.542969 C 22.324219 17.5 21.761719 16.980469 21.351562 16.535156 C 21.324219 16.503906 21.328125 16.457031 21.359375 16.425781 C 21.390625 16.398438 21.4375 16.402344 21.46875 16.433594 C 21.878906 16.882812 22.394531 17.347656 23.078125 17.390625 C 23.761719 17.433594 24.335938 17.003906 24.761719 16.625 C 24.792969 16.597656 24.839844 16.601562 24.871094 16.632812 C 24.898438 16.664062 24.894531 16.714844 24.863281 16.742188 C 24.4375 17.121094 23.863281 17.546875 23.171875 17.546875 " fill-opacity="1" fill-rule="nonzero"/><path fill="#363e44" d="M 23.226562 15.523438 C 23.199219 15.523438 23.171875 15.507812 23.15625 15.480469 C 23.136719 15.441406 23.15625 15.394531 23.191406 15.378906 C 23.265625 15.34375 23.351562 15.289062 23.367188 15.21875 C 23.375 15.179688 23.355469 15.148438 23.320312 15.082031 C 23.292969 15.03125 23.261719 14.964844 23.238281 14.878906 C 23.203125 14.753906 23.203125 14.621094 23.234375 14.484375 C 23.246094 14.441406 23.285156 14.414062 23.328125 14.425781 C 23.367188 14.433594 23.394531 14.476562 23.382812 14.519531 C 23.359375 14.632812 23.359375 14.738281 23.386719 14.839844 C 23.402344 14.90625 23.429688 14.960938 23.457031 15.007812 C 23.496094 15.082031 23.535156 15.15625 23.515625 15.25 C 23.496094 15.355469 23.410156 15.445312 23.257812 15.515625 C 23.25 15.523438 23.238281 15.523438 23.226562 15.523438 " fill-opacity="1" fill-rule="nonzero"/><path fill="#363e44" d="M 23.050781 16.101562 C 22.894531 16.101562 22.730469 16.019531 22.632812 15.890625 C 22.566406 15.804688 22.53125 15.703125 22.527344 15.601562 C 22.527344 15.5625 22.5625 15.527344 22.601562 15.523438 C 22.644531 15.523438 22.679688 15.558594 22.683594 15.601562 C 22.683594 15.667969 22.707031 15.738281 22.753906 15.796875 C 22.828125 15.894531 22.949219 15.953125 23.066406 15.949219 C 23.109375 15.945312 23.144531 15.976562 23.148438 16.019531 C 23.148438 16.0625 23.117188 16.097656 23.074219 16.101562 C 23.066406 16.101562 23.058594 16.101562 23.050781 16.101562 " fill-opacity="1" fill-rule="nonzero"/><path fill="#363e44" d="M 25.140625 11.351562 C 25.296875 11.75 25.746094 11.949219 26.148438 11.792969 C 26.546875 11.636719 27.363281 11.183594 27.207031 10.785156 C 27.050781 10.382812 25.980469 10.1875 25.582031 10.34375 C 25.179688 10.5 24.984375 10.949219 25.140625 11.351562 " fill-opacity="1" fill-rule="nonzero"/><path fill="#363e44" d="M 19.535156 11.507812 C 19.726562 12 20.957031 11.957031 21.445312 11.765625 C 21.933594 11.574219 22.171875 11.023438 21.984375 10.535156 C 21.792969 10.042969 21.242188 9.804688 20.753906 9.992188 C 20.265625 10.183594 19.34375 11.019531 19.535156 11.507812 " fill-opacity="1" fill-rule="nonzero"/><path fill="#363e44" d="M 24.566406 10.449219 C 24.757812 10.941406 25.308594 11.179688 25.796875 10.988281 C 26.285156 10.796875 27.101562 9.667969 26.777344 9.292969 C 26.4375 8.894531 25.597656 9.027344 25.105469 9.21875 C 24.617188 9.410156 24.378906 9.960938 24.566406 10.449219 " fill-opacity="1" fill-rule="nonzero"/><path fill="#363e44" d="M 21.292969 10.164062 C 21.414062 10.472656 21.761719 10.625 22.070312 10.503906 C 22.378906 10.382812 22.53125 10.035156 22.410156 9.726562 C 22.289062 9.417969 21.707031 8.976562 21.402344 9.097656 C 21.09375 9.21875 21.171875 9.855469 21.292969 10.164062 " fill-opacity="1" fill-rule="nonzero"/><path fill="#363e44" d="M 22.160156 10.371094 C 22.351562 10.863281 22.902344 11.101562 23.390625 10.910156 C 23.878906 10.722656 24.121094 10.167969 23.929688 9.679688 C 23.738281 9.191406 22.746094 7.777344 22.257812 7.96875 C 21.765625 8.160156 21.96875 9.882812 22.160156 10.371094 " fill-opacity="1" fill-rule="nonzero"/><path fill="#363e44" d="M 22.28125 12.121094 C 22.472656 12.609375 23.554688 12.492188 24.042969 12.300781 C 24.535156 12.109375 24.773438 11.558594 24.582031 11.066406 C 24.394531 10.578125 23.84375 10.335938 23.351562 10.527344 C 22.863281 10.71875 22.089844 11.628906 22.28125 12.121094 " fill-opacity="1" fill-rule="nonzero"/><path fill="#363e44" d="M 23.417969 9.964844 C 23.609375 10.453125 24.160156 10.695312 24.648438 10.503906 C 25.136719 10.3125 25.378906 9.761719 25.1875 9.273438 C 24.996094 8.785156 24.222656 8.113281 23.734375 8.304688 C 23.246094 8.496094 23.226562 9.476562 23.417969 9.964844 " fill-opacity="1" fill-rule="nonzero"/><path fill="#363e44" d="M 24.226562 12.355469 C 24.347656 12.664062 24.8125 13.109375 25.121094 12.988281 C 25.429688 12.867188 25.460938 12.226562 25.34375 11.917969 C 25.222656 11.609375 24.875 11.457031 24.566406 11.578125 C 24.257812 11.699219 24.105469 12.046875 24.226562 12.355469 " fill-opacity="1" fill-rule="nonzero"/><path fill="#ffffff" d="M 20.886719 13.28125 C 20.886719 13.28125 21.066406 13.707031 21.445312 14.011719 C 21.523438 14.070312 21.78125 13.277344 21.632812 13.253906 C 21.230469 13.191406 20.886719 13.28125 20.886719 13.28125 " fill-opacity="1" fill-rule="nonzero"/><path fill="#363e44" d="M 22.902344 14.289062 C 22.902344 14.289062 22.257812 14.453125 21.699219 14.171875 C 21.605469 14.125 21.523438 14.070312 21.445312 14.007812 C 21.433594 13.96875 21.425781 13.929688 21.421875 13.890625 C 21.398438 13.648438 21.480469 13.421875 21.632812 13.253906 C 21.78125 13.277344 21.9375 13.320312 22.085938 13.394531 C 22.644531 13.671875 22.902344 14.289062 22.902344 14.289062 " fill-opacity="1" fill-rule="nonzero"/><path fill="#ffffff" d="M 24.371094 13.5625 C 23.894531 13.8125 23.628906 14.28125 23.628906 14.28125 C 23.628906 14.28125 23.972656 14.414062 24.386719 14.390625 C 24.53125 14.382812 24.425781 13.535156 24.371094 13.5625 " fill-opacity="1" fill-rule="nonzero"/><path fill="#363e44" d="M 24.371094 13.5625 C 24.425781 13.535156 24.480469 13.507812 24.539062 13.488281 C 25.121094 13.273438 25.746094 13.507812 25.746094 13.507812 C 25.746094 13.507812 25.421875 14.089844 24.835938 14.304688 C 24.6875 14.359375 24.53125 14.382812 24.386719 14.390625 C 24.234375 14.140625 24.222656 13.824219 24.371094 13.5625 " fill-opacity="1" fill-rule="nonzero"/><path fill="#363e44" d="M 23.414062 35.714844 C 24.171875 37.351562 24.898438 39.183594 25.523438 41.210938 C 27.398438 47.285156 27.828125 59.324219 27.601562 63.421875 C 22.722656 62.289062 20.183594 61.066406 18.152344 60.027344 C 17.703125 56.871094 17.554688 50.996094 17.105469 47.839844 C 16.707031 49.398438 16.308594 50.957031 15.910156 52.515625 C 15.460938 54.269531 14.972656 55.824219 14.523438 57.578125 C 9.09375 53.972656 6.53125 49.019531 6.082031 47.945312 C 6.480469 46.636719 7.273438 44.484375 7.59375 43.386719 C 8.996094 38.609375 10.261719 37.042969 11.851562 34.433594 C 15.707031 34.863281 19.558594 35.289062 23.414062 35.714844 " fill-opacity="1" fill-rule="nonzero"/><path fill="#bc8271" d="M 26.875 25.65625 C 28.898438 27.503906 35.066406 32.480469 32.949219 35.050781 C 31.199219 37.175781 25.410156 32.0625 23.28125 30.355469 C 24.480469 28.789062 25.679688 27.222656 26.875 25.65625 " fill-opacity="1" fill-rule="nonzero"/><path fill="#bc8271" d="M 7.480469 25.21875 C 5.722656 27.320312 0.269531 33.070312 2.707031 35.335938 C 4.722656 37.210938 9.785156 31.371094 11.667969 29.398438 C 10.273438 28.003906 8.878906 26.609375 7.480469 25.21875 " fill-opacity="1" fill-rule="nonzero"/><path fill="#776e42" d="M 4.410156 27.757812 C 5.140625 26.976562 10.628906 21.3125 18.691406 22.050781 C 23.34375 22.476562 26.703125 25.1875 28.035156 26.292969 C 27.167969 27.542969 26.15625 28.429688 25.289062 29.683594 C 25.949219 32.125 26.804688 35.3125 27.464844 37.75 C 23.300781 37.890625 12.765625 37.5625 8.691406 37.328125 C 9.199219 35.1875 9.363281 34.539062 9.871094 32.398438 C 9.394531 32.855469 8.917969 33.316406 8.4375 33.777344 C 7.125 31.902344 5.589844 29.523438 4.410156 27.757812 " fill-opacity="1" fill-rule="nonzero"/><path fill="#363e44" d="M 9.335938 33.796875 C 9.316406 33.796875 9.296875 33.792969 9.285156 33.777344 C 9.253906 33.746094 9.253906 33.699219 9.28125 33.667969 L 12.371094 30.503906 C 12.402344 30.472656 12.449219 30.472656 12.480469 30.503906 C 12.511719 30.53125 12.511719 30.582031 12.480469 30.613281 L 9.390625 33.777344 C 9.378906 33.789062 9.355469 33.796875 9.335938 33.796875 " fill-opacity="1" fill-rule="nonzero"/><path fill="#f2e6dc" d="M 18.660156 29.886719 C 14.109375 33.554688 11.660156 37.617188 13.5625 39.980469 C 15.460938 42.339844 20.097656 40.835938 24.648438 37.167969 C 29.199219 33.5 31.394531 29.5 29.496094 27.136719 C 27.59375 24.777344 23.210938 26.21875 18.660156 29.886719 " fill-opacity="1" fill-rule="nonzero"/><path fill="#bc8271" d="M 24.175781 27.757812 C 23.101562 28.621094 22.933594 30.191406 23.796875 31.261719 C 24.660156 32.335938 26.226562 32.503906 27.300781 31.640625 C 28.371094 30.777344 28.539062 29.207031 27.675781 28.136719 C 26.8125 27.0625 25.246094 26.890625 24.175781 27.757812 " fill-opacity="1" fill-rule="nonzero"/><path fill="#363e44" d="M 27.402344 28.292969 C 27.132812 28.507812 27.089844 28.90625 27.308594 29.179688 C 27.527344 29.449219 27.921875 29.492188 28.195312 29.273438 C 28.464844 29.054688 28.507812 28.660156 28.289062 28.386719 C 28.070312 28.113281 27.675781 28.070312 27.402344 28.292969 " fill-opacity="1" fill-rule="nonzero"/><path fill="#363e44" d="M 26.679688 27.089844 C 26.355469 27.347656 26.304688 27.820312 26.566406 28.140625 C 26.824219 28.464844 27.296875 28.515625 27.617188 28.257812 C 27.9375 27.996094 27.988281 27.527344 27.730469 27.203125 C 27.472656 26.882812 27 26.832031 26.679688 27.089844 " fill-opacity="1" fill-rule="nonzero"/><path fill="#363e44" d="M 27.675781 27.429688 C 27.433594 27.625 27.394531 27.980469 27.589844 28.222656 C 27.785156 28.46875 28.140625 28.503906 28.386719 28.308594 C 28.628906 28.113281 28.667969 27.757812 28.472656 27.515625 C 28.277344 27.273438 27.917969 27.234375 27.675781 27.429688 " fill-opacity="1" fill-rule="nonzero"/><path fill="#bc8271" d="M 27.359375 31.023438 C 26.929688 31.214844 26.683594 31.605469 26.808594 31.894531 C 26.9375 32.183594 27.394531 32.261719 27.824219 32.066406 C 28.257812 31.875 28.503906 31.484375 28.375 31.195312 C 28.246094 30.910156 27.792969 30.832031 27.359375 31.023438 " fill-opacity="1" fill-rule="nonzero"/><path fill="#363e44" d="M 27.449219 31.949219 C 27.417969 31.949219 27.386719 31.945312 27.355469 31.941406 C 27.316406 31.933594 27.285156 31.894531 27.292969 31.851562 C 27.300781 31.808594 27.339844 31.78125 27.382812 31.789062 C 27.472656 31.804688 27.574219 31.789062 27.671875 31.742188 C 27.773438 31.699219 27.851562 31.632812 27.898438 31.558594 C 27.925781 31.519531 27.960938 31.445312 27.929688 31.378906 C 27.925781 31.367188 27.921875 31.359375 27.914062 31.351562 C 27.886719 31.316406 27.894531 31.269531 27.925781 31.242188 C 27.960938 31.214844 28.007812 31.222656 28.035156 31.253906 C 28.050781 31.273438 28.0625 31.292969 28.070312 31.316406 C 28.113281 31.414062 28.101562 31.53125 28.03125 31.640625 C 27.964844 31.742188 27.863281 31.828125 27.734375 31.882812 C 27.640625 31.925781 27.542969 31.949219 27.449219 31.949219 " fill-opacity="1" fill-rule="nonzero"/><path fill="#bc8271" d="M 24.792969 27.828125 C 24.511719 28.210938 24.078125 28.367188 23.824219 28.179688 C 23.570312 27.996094 23.589844 27.535156 23.871094 27.152344 C 24.152344 26.769531 24.582031 26.613281 24.839844 26.796875 C 25.09375 26.984375 25.070312 27.445312 24.792969 27.828125 " fill-opacity="1" fill-rule="nonzero"/><path fill="#363e44" d="M 23.972656 27.71875 L 23.96875 27.71875 C 23.925781 27.714844 23.894531 27.679688 23.894531 27.636719 C 23.902344 27.515625 23.949219 27.390625 24.03125 27.277344 C 24.113281 27.167969 24.21875 27.082031 24.332031 27.042969 C 24.453125 26.996094 24.570312 27.007812 24.660156 27.070312 C 24.675781 27.085938 24.695312 27.101562 24.707031 27.117188 C 24.734375 27.152344 24.730469 27.199219 24.699219 27.226562 C 24.667969 27.253906 24.617188 27.25 24.589844 27.21875 C 24.582031 27.210938 24.574219 27.203125 24.566406 27.195312 C 24.507812 27.152344 24.425781 27.171875 24.382812 27.1875 C 24.300781 27.21875 24.21875 27.28125 24.15625 27.371094 C 24.089844 27.457031 24.054688 27.554688 24.050781 27.644531 C 24.046875 27.683594 24.011719 27.71875 23.972656 27.71875 " fill-opacity="1" fill-rule="nonzero"/><path fill="#363e44" d="M 25.179688 30.132812 C 25.148438 30.132812 25.113281 30.109375 25.105469 30.074219 C 25.070312 29.914062 25.085938 29.789062 25.152344 29.707031 C 25.214844 29.632812 25.296875 29.617188 25.378906 29.601562 C 25.433594 29.589844 25.488281 29.578125 25.554688 29.550781 C 25.59375 29.535156 25.640625 29.550781 25.65625 29.589844 C 25.671875 29.628906 25.65625 29.675781 25.617188 29.691406 C 25.535156 29.726562 25.464844 29.742188 25.40625 29.753906 C 25.332031 29.765625 25.296875 29.773438 25.269531 29.804688 C 25.226562 29.859375 25.238281 29.960938 25.257812 30.039062 C 25.265625 30.078125 25.242188 30.121094 25.199219 30.132812 C 25.195312 30.132812 25.1875 30.132812 25.179688 30.132812 " fill-opacity="1" fill-rule="nonzero"/><path fill="#363e44" d="M 25.199219 30.796875 C 25.027344 30.796875 24.859375 30.714844 24.765625 30.585938 C 24.742188 30.550781 24.75 30.5 24.785156 30.476562 C 24.820312 30.453125 24.867188 30.460938 24.890625 30.496094 C 24.957031 30.589844 25.085938 30.648438 25.207031 30.644531 C 25.28125 30.640625 25.351562 30.617188 25.402344 30.578125 C 25.4375 30.550781 25.484375 30.554688 25.511719 30.589844 C 25.539062 30.625 25.53125 30.671875 25.496094 30.699219 C 25.417969 30.757812 25.316406 30.792969 25.210938 30.796875 C 25.207031 30.796875 25.203125 30.796875 25.199219 30.796875 " fill-opacity="1" fill-rule="nonzero"/><path fill="#363e44" d="M 27.300781 30.792969 C 27.296875 30.792969 27.289062 30.789062 27.285156 30.789062 C 27.121094 30.753906 26.804688 30.652344 26.539062 30.363281 C 26.277344 30.082031 26.195312 29.765625 26.171875 29.601562 C 26.167969 29.558594 26.195312 29.519531 26.238281 29.511719 C 26.28125 29.507812 26.320312 29.535156 26.324219 29.578125 C 26.347656 29.726562 26.417969 30.007812 26.652344 30.257812 C 26.890625 30.515625 27.171875 30.605469 27.316406 30.636719 C 27.359375 30.648438 27.386719 30.6875 27.375 30.730469 C 27.367188 30.765625 27.335938 30.792969 27.300781 30.792969 " fill-opacity="1" fill-rule="nonzero"/><path fill="#363e44" d="M 25.726562 29.167969 C 25.71875 29.167969 25.714844 29.167969 25.710938 29.167969 C 25.546875 29.132812 25.230469 29.03125 24.964844 28.742188 C 24.703125 28.460938 24.621094 28.144531 24.597656 27.980469 C 24.59375 27.9375 24.621094 27.898438 24.664062 27.890625 C 24.707031 27.886719 24.746094 27.914062 24.75 27.957031 C 24.773438 28.101562 24.84375 28.386719 25.078125 28.636719 C 25.3125 28.894531 25.59375 28.984375 25.742188 29.015625 C 25.785156 29.027344 25.808594 29.066406 25.800781 29.109375 C 25.792969 29.144531 25.761719 29.167969 25.726562 29.167969 " fill-opacity="1" fill-rule="nonzero"/><path fill="#e6d0be" d="M 23.140625 37.890625 C 23.105469 37.890625 23.078125 37.871094 23.066406 37.839844 C 22.507812 36.109375 22.152344 34.316406 22.007812 32.511719 C 21.890625 31.085938 21.910156 29.644531 22.054688 28.21875 C 22.058594 28.175781 22.097656 28.148438 22.140625 28.152344 C 22.183594 28.15625 22.214844 28.195312 22.207031 28.234375 C 22.0625 29.648438 22.046875 31.085938 22.160156 32.5 C 22.304688 34.292969 22.660156 36.074219 23.210938 37.789062 C 23.226562 37.832031 23.203125 37.875 23.164062 37.886719 C 23.15625 37.890625 23.148438 37.890625 23.140625 37.890625 " fill-opacity="1" fill-rule="nonzero"/><path fill="#e6d0be" d="M 18.941406 39.867188 C 18.90625 39.867188 18.875 39.839844 18.867188 39.804688 C 18.484375 37.867188 18.328125 35.886719 18.402344 33.917969 C 18.445312 32.875 18.550781 31.816406 18.71875 30.78125 C 18.726562 30.738281 18.765625 30.710938 18.804688 30.71875 C 18.847656 30.726562 18.878906 30.765625 18.871094 30.808594 C 18.703125 31.835938 18.597656 32.886719 18.558594 33.925781 C 18.484375 35.878906 18.640625 37.847656 19.015625 39.773438 C 19.023438 39.816406 19 39.855469 18.957031 39.867188 C 18.953125 39.867188 18.945312 39.867188 18.941406 39.867188 " fill-opacity="1" fill-rule="nonzero"/><path fill="#e6d0be" d="M 22.402344 34.992188 C 22.367188 34.992188 22.332031 34.960938 22.328125 34.925781 C 22.320312 34.882812 22.351562 34.84375 22.394531 34.835938 C 23.664062 34.664062 24.9375 34.40625 26.179688 34.070312 C 26.21875 34.058594 26.261719 34.082031 26.273438 34.125 C 26.285156 34.164062 26.257812 34.207031 26.21875 34.21875 C 24.972656 34.554688 23.691406 34.816406 22.414062 34.988281 C 22.410156 34.992188 22.40625 34.992188 22.402344 34.992188 " fill-opacity="1" fill-rule="nonzero"/><path fill="#e6d0be" d="M 18.328125 35.269531 C 16.808594 35.269531 15.277344 35.152344 13.773438 34.921875 C 13.734375 34.917969 13.703125 34.878906 13.710938 34.835938 C 13.714844 34.792969 13.753906 34.765625 13.796875 34.769531 C 15.339844 35.007812 16.910156 35.121094 18.464844 35.113281 C 18.507812 35.113281 18.542969 35.148438 18.542969 35.191406 C 18.542969 35.234375 18.507812 35.269531 18.464844 35.269531 C 18.417969 35.269531 18.371094 35.269531 18.328125 35.269531 " fill-opacity="1" fill-rule="nonzero"/><path fill="#363e44" d="M 20.996094 35.722656 C 20.878906 35.722656 20.777344 35.6875 20.714844 35.609375 C 20.472656 35.308594 20.972656 34.632812 21.566406 34.15625 C 22.164062 33.675781 22.925781 33.328125 23.167969 33.632812 C 23.316406 33.816406 23.191406 34.175781 22.828125 34.59375 C 22.800781 34.625 22.753906 34.628906 22.71875 34.601562 C 22.6875 34.574219 22.683594 34.523438 22.710938 34.492188 C 23.050781 34.101562 23.125 33.820312 23.046875 33.726562 C 22.917969 33.566406 22.296875 33.765625 21.664062 34.277344 C 21.03125 34.785156 20.703125 35.347656 20.835938 35.511719 C 20.925781 35.625 21.296875 35.570312 21.808594 35.253906 C 21.84375 35.234375 21.894531 35.246094 21.914062 35.28125 C 21.9375 35.316406 21.925781 35.363281 21.890625 35.386719 C 21.59375 35.570312 21.25 35.722656 20.996094 35.722656 " fill-opacity="1" fill-rule="nonzero"/><path fill="#363e44" d="M 23.007812 34.125 Z M 22.867188 33.679688 C 22.808594 33.679688 22.75 33.703125 22.699219 33.742188 C 22.59375 33.828125 22.566406 33.96875 22.636719 34.058594 C 22.710938 34.148438 22.851562 34.148438 22.960938 34.066406 C 23.011719 34.023438 23.046875 33.964844 23.058594 33.902344 C 23.066406 33.847656 23.054688 33.792969 23.019531 33.75 C 22.988281 33.707031 22.9375 33.683594 22.878906 33.679688 C 22.875 33.679688 22.871094 33.679688 22.867188 33.679688 Z M 22.789062 34.28125 C 22.683594 34.28125 22.585938 34.238281 22.519531 34.15625 C 22.394531 34 22.429688 33.761719 22.605469 33.621094 C 22.683594 33.558594 22.785156 33.523438 22.886719 33.527344 C 22.988281 33.53125 23.078125 33.578125 23.140625 33.652344 C 23.203125 33.730469 23.226562 33.828125 23.210938 33.929688 C 23.191406 34.027344 23.136719 34.121094 23.054688 34.183594 C 22.976562 34.25 22.882812 34.28125 22.789062 34.28125 " fill-opacity="1" fill-rule="nonzero"/><path fill="#363e44" d="M 21.117188 35.09375 C 21.058594 35.09375 21 35.113281 20.949219 35.15625 C 20.894531 35.199219 20.859375 35.253906 20.851562 35.316406 C 20.839844 35.375 20.851562 35.429688 20.886719 35.46875 C 20.957031 35.558594 21.101562 35.5625 21.207031 35.476562 C 21.3125 35.390625 21.339844 35.25 21.269531 35.160156 C 21.234375 35.117188 21.175781 35.09375 21.117188 35.09375 Z M 21.039062 35.691406 C 20.933594 35.691406 20.832031 35.648438 20.765625 35.566406 C 20.703125 35.492188 20.679688 35.390625 20.699219 35.289062 C 20.714844 35.191406 20.769531 35.101562 20.851562 35.035156 C 21.023438 34.894531 21.265625 34.910156 21.390625 35.066406 C 21.515625 35.21875 21.476562 35.457031 21.304688 35.597656 C 21.222656 35.660156 21.128906 35.691406 21.039062 35.691406 " fill-opacity="1" fill-rule="nonzero"/><path fill="#bc8271" d="M 4.730469 30.121094 C 9.972656 32.335938 13.734375 33.804688 14.875 34.304688 C 14.996094 34.355469 15.207031 34.449219 15.441406 34.636719 C 16.304688 35.335938 16.074219 36.253906 16.644531 37.40625 C 17.292969 38.710938 18.394531 39.078125 18.246094 39.417969 C 18.144531 39.65625 17.6875 39.636719 16.851562 39.257812 C 17.453125 39.617188 18.25 40.144531 18.050781 40.476562 C 17.800781 40.847656 16.792969 40.339844 16.195312 40.003906 C 16.917969 40.410156 17.179688 40.84375 17.019531 41 C 16.773438 41.25 16.140625 41.066406 15.210938 40.488281 C 15.742188 41.066406 15.785156 41.285156 15.609375 41.390625 C 15.292969 41.582031 14.539062 41.097656 13.9375 40.5625 C 13.257812 39.960938 12.941406 39.261719 12.75 38.816406 L 12.75 38.8125 C 8.917969 37.644531 5.953125 36.972656 3.042969 35.5625 C 1.445312 34.792969 2.585938 31.074219 4.730469 30.121094 " fill-opacity="1" fill-rule="nonzero"/><path fill="#363e44" d="M 6.347656 30.839844 C 6.339844 30.839844 6.328125 30.839844 6.320312 30.835938 C 5.75 30.597656 5.199219 30.367188 4.667969 30.140625 C 4.628906 30.125 4.609375 30.078125 4.625 30.039062 C 4.644531 30 4.6875 29.984375 4.726562 30 C 5.257812 30.222656 5.808594 30.453125 6.378906 30.691406 C 6.417969 30.710938 6.4375 30.753906 6.417969 30.792969 C 6.40625 30.824219 6.378906 30.839844 6.347656 30.839844 " fill-opacity="1" fill-rule="nonzero"/><path fill="#bc8271" d="M 15.875 36.472656 C 17.234375 36.945312 17.824219 36.828125 17.894531 36.609375 C 18.007812 36.242188 17.011719 35.363281 15.113281 34.417969 C 15.273438 35.007812 15.710938 35.878906 15.875 36.472656 " fill-opacity="1" fill-rule="nonzero"/><path fill="#363e44" d="M 16.296875 36.707031 C 16.261719 36.707031 16.230469 36.6875 16.222656 36.652344 C 16.171875 36.484375 16.132812 36.324219 16.097656 36.167969 C 16.019531 35.84375 15.945312 35.539062 15.804688 35.265625 C 15.785156 35.226562 15.800781 35.179688 15.839844 35.160156 C 15.875 35.140625 15.921875 35.15625 15.941406 35.195312 C 16.089844 35.484375 16.167969 35.796875 16.246094 36.132812 C 16.285156 36.285156 16.320312 36.445312 16.371094 36.609375 C 16.382812 36.652344 16.359375 36.695312 16.316406 36.707031 C 16.308594 36.707031 16.300781 36.707031 16.296875 36.707031 " fill-opacity="1" fill-rule="nonzero"/><path fill="#363e44" d="M 16.847656 39.292969 C 16.832031 39.292969 16.816406 39.289062 16.804688 39.277344 C 16.589844 39.125 16.398438 38.945312 16.234375 38.746094 C 16.121094 38.605469 16.019531 38.457031 15.933594 38.296875 C 15.910156 38.261719 15.925781 38.214844 15.960938 38.191406 C 16 38.171875 16.046875 38.1875 16.066406 38.222656 C 16.148438 38.375 16.246094 38.515625 16.351562 38.648438 C 16.507812 38.839844 16.691406 39.007812 16.894531 39.152344 C 16.929688 39.175781 16.9375 39.226562 16.914062 39.257812 C 16.898438 39.28125 16.875 39.292969 16.847656 39.292969 " fill-opacity="1" fill-rule="nonzero"/><path fill="#363e44" d="M 16.289062 40.089844 C 16.273438 40.089844 16.257812 40.085938 16.246094 40.074219 C 16.03125 39.921875 15.839844 39.742188 15.675781 39.542969 C 15.558594 39.402344 15.457031 39.253906 15.371094 39.09375 C 15.351562 39.058594 15.363281 39.011719 15.402344 38.988281 C 15.441406 38.96875 15.488281 38.984375 15.507812 39.019531 C 15.589844 39.167969 15.683594 39.3125 15.792969 39.445312 C 15.949219 39.636719 16.132812 39.804688 16.332031 39.949219 C 16.367188 39.972656 16.375 40.023438 16.351562 40.054688 C 16.335938 40.078125 16.3125 40.089844 16.289062 40.089844 " fill-opacity="1" fill-rule="nonzero"/><path fill="#363e44" d="M 15.199219 40.546875 C 15.183594 40.546875 15.167969 40.542969 15.152344 40.535156 C 14.9375 40.382812 14.746094 40.203125 14.582031 40 C 14.46875 39.863281 14.367188 39.710938 14.28125 39.554688 C 14.257812 39.515625 14.273438 39.46875 14.308594 39.449219 C 14.347656 39.429688 14.394531 39.441406 14.414062 39.480469 C 14.496094 39.628906 14.59375 39.773438 14.703125 39.902344 C 14.859375 40.09375 15.039062 40.265625 15.242188 40.410156 C 15.277344 40.433594 15.285156 40.480469 15.261719 40.515625 C 15.246094 40.535156 15.222656 40.546875 15.199219 40.546875 " fill-opacity="1" fill-rule="nonzero"/><path fill="#bc8271" d="M 29.746094 31.105469 C 27.945312 32.535156 24.171875 35.203125 23.753906 35.527344 C 22.972656 36.136719 18.871094 39.019531 19.589844 39.757812 C 19.925781 40.105469 21.761719 38.667969 22.171875 38.347656 C 21.773438 38.789062 19.835938 40.480469 20.308594 40.898438 C 20.796875 41.324219 23.023438 39.226562 23.046875 39.21875 C 22.839844 39.457031 21.136719 41.050781 21.617188 41.542969 C 22.078125 42.015625 23.621094 40.109375 23.914062 39.929688 C 23.683594 40.261719 22.597656 41.378906 22.898438 41.6875 C 23.304688 42.097656 24.652344 40.597656 24.929688 40.464844 C 25.621094 39.925781 26.835938 39.25 28.253906 38.375 C 30.324219 37.09375 31.753906 36.328125 32.949219 35.050781 C 33.460938 34.503906 31.371094 31.128906 29.746094 31.105469 " fill-opacity="1" fill-rule="nonzero"/><path fill="#363e44" d="M 29.179688 31.621094 C 29.160156 31.621094 29.136719 31.613281 29.121094 31.597656 C 29.09375 31.5625 29.097656 31.515625 29.128906 31.488281 L 30.535156 30.257812 C 30.566406 30.230469 30.617188 30.234375 30.644531 30.265625 C 30.671875 30.300781 30.667969 30.347656 30.636719 30.375 L 29.230469 31.601562 C 29.214844 31.617188 29.199219 31.621094 29.179688 31.621094 " fill-opacity="1" fill-rule="nonzero"/><path fill="#363e44" d="M 22.574219 37.667969 C 22.554688 37.667969 22.535156 37.660156 22.519531 37.644531 L 22.175781 37.300781 C 22.148438 37.273438 22.148438 37.222656 22.175781 37.195312 C 22.207031 37.164062 22.257812 37.164062 22.285156 37.195312 L 22.628906 37.539062 C 22.660156 37.566406 22.660156 37.617188 22.628906 37.648438 C 22.613281 37.660156 22.59375 37.667969 22.574219 37.667969 " fill-opacity="1" fill-rule="nonzero"/><path fill="#363e44" d="M 23.277344 38.726562 C 23.257812 38.726562 23.238281 38.71875 23.222656 38.703125 L 22.878906 38.359375 C 22.851562 38.328125 22.851562 38.277344 22.878906 38.25 C 22.910156 38.21875 22.957031 38.21875 22.988281 38.25 L 23.332031 38.59375 C 23.359375 38.625 23.359375 38.671875 23.332031 38.703125 C 23.316406 38.71875 23.296875 38.726562 23.277344 38.726562 " fill-opacity="1" fill-rule="nonzero"/><path fill="#363e44" d="M 23.980469 39.570312 C 23.960938 39.570312 23.941406 39.5625 23.925781 39.546875 L 23.582031 39.203125 C 23.550781 39.171875 23.554688 39.125 23.582031 39.09375 C 23.613281 39.0625 23.660156 39.0625 23.691406 39.09375 L 24.035156 39.4375 C 24.0625 39.46875 24.0625 39.515625 24.035156 39.546875 C 24.019531 39.5625 24 39.570312 23.980469 39.570312 " fill-opacity="1" fill-rule="nonzero"/><path fill="#363e44" d="M 24.683594 40.273438 C 24.664062 40.273438 24.644531 40.265625 24.628906 40.25 L 24.285156 39.90625 C 24.253906 39.875 24.253906 39.828125 24.285156 39.796875 C 24.316406 39.765625 24.363281 39.765625 24.394531 39.796875 L 24.738281 40.140625 C 24.765625 40.171875 24.765625 40.21875 24.738281 40.25 C 24.722656 40.265625 24.703125 40.273438 24.683594 40.273438 " fill-opacity="1" fill-rule="nonzero"/><path fill="#bc8271" d="M 19.644531 20.289062 C 18.917969 20.882812 16.65625 19.5625 16.65625 19.5625 L 15.238281 17.070312 C 15.144531 15.75 16.136719 14.605469 17.457031 14.511719 C 18.773438 14.417969 19.917969 15.410156 20.011719 16.726562 C 20.011719 16.726562 20.382812 19.679688 19.644531 20.289062 " fill-opacity="1" fill-rule="nonzero"/><path fill="#bc8271" d="M 20.019531 22.902344 C 20.0625 23.527344 18.863281 24.125 17.335938 24.234375 C 15.8125 24.339844 14.539062 23.921875 14.496094 23.296875 C 14.449219 22.667969 15.652344 22.074219 17.175781 21.964844 C 18.703125 21.855469 19.972656 22.277344 20.019531 22.902344 " fill-opacity="1" fill-rule="nonzero"/><path fill="#bc8271" d="M 15.667969 23.078125 L 18.617188 22.867188 L 18.1875 16.832031 L 15.238281 17.042969 L 15.667969 23.078125 " fill-opacity="1" fill-rule="nonzero"/><path fill="#bc8271" d="M 19.78125 17.375 C 19.78125 17.375 20.5 18.03125 20.476562 18.21875 C 20.449219 18.441406 19.714844 18.628906 19.714844 18.628906 C 19.714844 18.628906 19.800781 17.375 19.78125 17.375 " fill-opacity="1" fill-rule="nonzero"/><path fill="#363e44" d="M 18.441406 20.476562 C 18.433594 20.476562 18.425781 20.476562 18.417969 20.476562 C 17.566406 20.214844 16.644531 19.640625 16.632812 19.636719 C 16.597656 19.613281 16.585938 19.566406 16.609375 19.53125 C 16.632812 19.492188 16.679688 19.484375 16.714844 19.503906 C 16.722656 19.511719 17.632812 20.074219 18.460938 20.328125 C 18.503906 20.339844 18.527344 20.382812 18.515625 20.421875 C 18.503906 20.457031 18.472656 20.476562 18.441406 20.476562 " fill-opacity="1" fill-rule="nonzero"/><path fill="#363e44" d="M 19.027344 19.171875 C 18.953125 19.171875 18.878906 19.15625 18.8125 19.117188 C 18.664062 19.035156 18.574219 18.875 18.582031 18.707031 C 18.585938 18.664062 18.621094 18.628906 18.664062 18.632812 C 18.707031 18.636719 18.738281 18.671875 18.738281 18.714844 C 18.730469 18.824219 18.789062 18.929688 18.886719 18.984375 C 18.988281 19.039062 19.109375 19.027344 19.203125 18.960938 C 19.234375 18.933594 19.285156 18.941406 19.308594 18.976562 C 19.335938 19.011719 19.328125 19.058594 19.292969 19.082031 C 19.214844 19.144531 19.121094 19.171875 19.027344 19.171875 " fill-opacity="1" fill-rule="nonzero"/><path fill="#363e44" d="M 18.636719 15.578125 C 18.347656 16.0625 18.070312 16.617188 17.839844 17.25 C 16.828125 20.039062 17.433594 23.9375 17.820312 25.277344 C 16.660156 25.078125 14.664062 24.6875 13.507812 24.488281 C 13.132812 22.925781 13.332031 15.964844 16.324219 14.609375 C 17.273438 14.179688 18.730469 14.335938 19.476562 15.246094 C 19.757812 15.59375 19.871094 15.964844 19.921875 16.222656 C 19.550781 15.835938 19.203125 15.707031 18.636719 15.578125 " fill-opacity="1" fill-rule="nonzero"/><path fill="#ffffff" d="M 17.371094 17.277344 C 17.371094 17.277344 17.792969 17.011719 18.320312 16.972656 C 18.433594 16.964844 18.285156 17.878906 18.175781 17.835938 C 17.691406 17.644531 17.371094 17.277344 17.371094 17.277344 " fill-opacity="1" fill-rule="nonzero"/><path fill="#363e44" d="M 18.667969 16.984375 C 18.550781 16.96875 18.433594 16.964844 18.324219 16.972656 C 18.121094 17.222656 18.074219 17.550781 18.175781 17.835938 C 18.285156 17.878906 18.40625 17.914062 18.53125 17.933594 C 19.207031 18.03125 19.828125 17.640625 19.828125 17.640625 C 19.828125 17.640625 19.347656 17.085938 18.667969 16.984375 " fill-opacity="1" fill-rule="nonzero"/><path fill="#84524d" d="M 5.585938 25.0625 C 7.167969 26.734375 11.089844 30.480469 11.460938 30.859375 C 12.148438 31.574219 15.808594 35 14.996094 35.628906 C 14.609375 35.925781 12.992188 34.246094 12.632812 33.875 C 12.964844 34.367188 14.648438 36.3125 14.121094 36.660156 C 13.582031 37.015625 11.667969 34.625 11.644531 34.613281 C 11.816406 34.875 13.28125 36.695312 12.738281 37.113281 C 12.214844 37.519531 10.949219 35.414062 10.6875 35.195312 C 10.867188 35.558594 11.789062 36.8125 11.445312 37.078125 C 10.988281 37.429688 9.863281 35.753906 9.609375 35.585938 C 8.996094 34.953125 7.882812 34.125 6.605469 33.050781 C 3.617188 30.527344 3.652344 30.886719 2.230469 29.46875 C 1.703125 28.941406 3.96875 24.859375 5.585938 25.0625 " fill-opacity="1" fill-rule="nonzero"/><path fill="#363e44" d="M 6.652344 26.226562 C 6.632812 26.226562 6.613281 26.21875 6.597656 26.203125 C 6.414062 26.015625 6.117188 25.714844 5.855469 25.449219 C 5.617188 25.207031 5.410156 25 5.335938 24.921875 C 5.304688 24.890625 5.304688 24.84375 5.335938 24.8125 C 5.367188 24.785156 5.414062 24.785156 5.445312 24.816406 C 5.519531 24.890625 5.726562 25.101562 5.964844 25.339844 C 6.226562 25.605469 6.523438 25.90625 6.710938 26.097656 C 6.738281 26.125 6.738281 26.175781 6.707031 26.203125 C 6.691406 26.21875 6.671875 26.226562 6.652344 26.226562 " fill-opacity="1" fill-rule="nonzero"/><path fill="#776e42" d="M 44.144531 55.984375 C 44.140625 55.984375 44.136719 55.984375 44.132812 55.984375 C 44.089844 55.976562 44.0625 55.9375 44.066406 55.898438 C 44.472656 53.261719 45.476562 50.714844 46.96875 48.535156 C 48.207031 46.730469 49.753906 45.179688 51.570312 43.933594 C 51.605469 43.910156 51.652344 43.917969 51.675781 43.953125 C 51.703125 43.988281 51.691406 44.035156 51.65625 44.0625 C 49.859375 45.296875 48.324219 46.832031 47.097656 48.621094 C 45.617188 50.785156 44.621094 53.308594 44.21875 55.921875 C 44.214844 55.957031 44.179688 55.984375 44.144531 55.984375 " fill-opacity="1" fill-rule="nonzero"/><path fill="#776e42" d="M 43.125 56.179688 C 43.09375 56.179688 43.0625 56.160156 43.050781 56.128906 C 42.375 54.152344 42.070312 51.988281 42.171875 49.871094 C 42.253906 48.121094 42.605469 46.414062 43.214844 44.804688 C 43.230469 44.765625 43.277344 44.746094 43.316406 44.761719 C 43.355469 44.777344 43.375 44.820312 43.359375 44.859375 C 42.757812 46.453125 42.410156 48.144531 42.324219 49.878906 C 42.222656 51.976562 42.527344 54.117188 43.199219 56.078125 C 43.210938 56.117188 43.191406 56.164062 43.148438 56.175781 C 43.140625 56.179688 43.132812 56.179688 43.125 56.179688 " fill-opacity="1" fill-rule="nonzero"/><path fill="#efbc73" d="M 47.4375 59.351562 L 39.191406 59.351562 L 39.191406 53.300781 L 47.4375 53.300781 L 47.4375 59.351562 " fill-opacity="1" fill-rule="nonzero"/><path fill="#8b865c" d="M 55.347656 46.824219 L 50.292969 45.90625 L 57.015625 43.886719 C 58.261719 41.078125 58.675781 38.429688 58.675781 38.429688 C 58.675781 38.429688 57.476562 38.359375 55.753906 38.535156 L 52.691406 43.683594 L 52.972656 38.988281 C 51.546875 39.320312 50.027344 39.839844 48.640625 40.644531 C 48.445312 40.757812 48.257812 40.875 48.078125 40.996094 L 47.445312 48.097656 L 45.597656 43.597656 C 44.40625 45.648438 44.496094 47.882812 45.554688 49.175781 C 47.179688 51.160156 51.355469 51.28125 54.523438 47.832031 C 54.816406 47.511719 55.089844 47.175781 55.347656 46.824219 " fill-opacity="1" fill-rule="nonzero"/><path fill="#776e42" d="M 55.753906 38.535156 C 54.921875 38.617188 53.96875 38.757812 52.972656 38.988281 L 52.691406 43.683594 L 55.753906 38.535156 " fill-opacity="1" fill-rule="nonzero"/><path fill="#776e42" d="M 48.078125 40.996094 C 46.960938 41.753906 46.144531 42.65625 45.597656 43.597656 L 47.445312 48.097656 L 48.078125 40.996094 " fill-opacity="1" fill-rule="nonzero"/><path fill="#776e42" d="M 55.347656 46.824219 C 56.019531 45.898438 56.570312 44.882812 57.015625 43.886719 L 50.292969 45.90625 L 55.347656 46.824219 " fill-opacity="1" fill-rule="nonzero"/><path fill="#776e42" d="M 45.683594 50.996094 C 45.671875 50.996094 45.660156 50.992188 45.648438 50.988281 C 45.609375 50.96875 45.59375 50.925781 45.613281 50.886719 C 46.003906 50.070312 46.460938 49.28125 46.96875 48.535156 C 48.207031 46.730469 49.753906 45.179688 51.570312 43.933594 C 51.605469 43.910156 51.652344 43.917969 51.675781 43.953125 C 51.703125 43.988281 51.691406 44.035156 51.65625 44.0625 C 49.859375 45.296875 48.324219 46.832031 47.097656 48.621094 C 46.589844 49.359375 46.140625 50.144531 45.753906 50.953125 C 45.738281 50.980469 45.710938 50.996094 45.683594 50.996094 " fill-opacity="1" fill-rule="nonzero"/><path fill="#776e42" d="M 46.398438 45.226562 L 43.191406 46.691406 L 46.339844 42.519531 C 46.085938 40.078125 45.40625 38.085938 45.40625 38.085938 C 45.40625 38.085938 44.695312 38.535156 43.769531 39.367188 L 43.796875 44.171875 L 42.335938 40.835938 C 41.632812 41.652344 40.945312 42.636719 40.429688 43.765625 C 40.355469 43.921875 40.289062 44.082031 40.226562 44.238281 L 42.316406 49.375 L 39.707031 47.050781 C 39.734375 48.953125 40.554688 50.449219 41.605469 50.898438 C 43.222656 51.585938 45.65625 49.9375 46.277344 46.257812 C 46.335938 45.921875 46.375 45.574219 46.398438 45.226562 " fill-opacity="1" fill-rule="nonzero"/><path fill="#8b865c" d="M 43.769531 39.367188 C 43.324219 39.769531 42.828125 40.261719 42.335938 40.835938 L 43.796875 44.171875 L 43.769531 39.367188 " fill-opacity="1" fill-rule="nonzero"/><path fill="#8b865c" d="M 40.226562 44.238281 C 39.847656 45.21875 39.695312 46.179688 39.707031 47.050781 L 42.316406 49.375 L 40.226562 44.238281 " fill-opacity="1" fill-rule="nonzero"/><path fill="#8b865c" d="M 46.398438 45.226562 C 46.464844 44.3125 46.429688 43.390625 46.339844 42.519531 L 43.191406 46.691406 L 46.398438 45.226562 " fill-opacity="1" fill-rule="nonzero"/><path fill="#776e42" d="M 42.265625 51.898438 C 42.226562 51.898438 42.191406 51.867188 42.1875 51.824219 C 42.144531 51.175781 42.140625 50.519531 42.171875 49.871094 C 42.253906 48.121094 42.605469 46.414062 43.214844 44.804688 C 43.230469 44.765625 43.277344 44.746094 43.316406 44.761719 C 43.355469 44.777344 43.375 44.820312 43.359375 44.859375 C 42.757812 46.453125 42.410156 48.144531 42.324219 49.878906 C 42.292969 50.519531 42.300781 51.171875 42.34375 51.8125 C 42.347656 51.855469 42.3125 51.894531 42.269531 51.898438 L 42.265625 51.898438 " fill-opacity="1" fill-rule="nonzero"/></svg>