<svg xmlns="http://www.w3.org/2000/svg" xmlns:xlink="http://www.w3.org/1999/xlink" width="88" zoomAndPan="magnify" viewBox="0 0 66 64.499998" height="86" preserveAspectRatio="xMidYMid meet" version="1.0"><defs><clipPath id="5f74638ab9"><path d="M 1 0 L 65.746094 0 L 65.746094 64.003906 L 1 64.003906 Z M 1 0 " clip-rule="nonzero"/></clipPath><clipPath id="24acc1179e"><path d="M 54 26 L 65.746094 26 L 65.746094 40 L 54 40 Z M 54 26 " clip-rule="nonzero"/></clipPath></defs><g clip-path="url(#5f74638ab9)"><path fill="#f2e6dc" d="M 65.539062 32 C 65.539062 49.675781 51.160156 64.003906 33.421875 64.003906 C 15.683594 64.003906 1.304688 49.675781 1.304688 32 C 1.304688 14.328125 15.683594 0 33.421875 0 C 51.160156 0 65.539062 14.328125 65.539062 32 " fill-opacity="1" fill-rule="nonzero"/></g><path fill="#ffffff" d="M 32.242188 41.46875 L 56.402344 41.46875 L 56.402344 17.390625 L 32.242188 17.390625 L 32.242188 41.46875 " fill-opacity="1" fill-rule="nonzero"/><path fill="#e2a18d" d="M 39.886719 31.703125 C 39.886719 31.703125 38.652344 24.976562 38.097656 22.777344 C 37.515625 20.46875 36.320312 17.140625 35.855469 17.316406 C 35.59375 17.414062 35.660156 17.902344 35.933594 19.191406 C 35.851562 19.140625 35.574219 19.042969 35.34375 19.171875 C 35.003906 19.367188 35.085938 19.683594 35.078125 19.714844 C 35.054688 19.695312 34.75 19.488281 34.5 19.578125 C 34.21875 19.683594 34.117188 19.917969 34.105469 20.152344 C 34.042969 20.105469 33.734375 19.949219 33.5 20.050781 C 33.191406 20.179688 33.144531 20.546875 33.214844 20.8125 C 33.34375 21.296875 33.734375 22.617188 33.847656 23.339844 C 34.078125 24.765625 34.207031 29.933594 35.082031 31.90625 C 36.449219 30.628906 39.886719 31.703125 39.886719 31.703125 " fill-opacity="1" fill-rule="nonzero"/><path fill="#363e44" d="M 35.5625 23.378906 L 35.558594 23.378906 C 35.539062 23.375 35.527344 23.359375 35.527344 23.339844 C 35.574219 22.808594 35.804688 22.445312 35.988281 22.15625 C 36.167969 21.871094 36.289062 21.679688 36.140625 21.488281 C 36.011719 21.316406 35.945312 21.058594 35.941406 20.726562 C 35.941406 20.621094 36.003906 20.527344 36.105469 20.492188 C 36.203125 20.453125 36.316406 20.480469 36.386719 20.558594 L 37.410156 21.722656 C 37.425781 21.738281 37.421875 21.757812 37.40625 21.769531 C 37.394531 21.785156 37.371094 21.78125 37.359375 21.769531 L 36.332031 20.605469 C 36.269531 20.535156 36.1875 20.535156 36.128906 20.554688 C 36.074219 20.578125 36.011719 20.632812 36.011719 20.726562 C 36.015625 21.039062 36.078125 21.289062 36.199219 21.445312 C 36.371094 21.675781 36.230469 21.90625 36.046875 22.191406 C 35.867188 22.476562 35.644531 22.832031 35.597656 23.34375 C 35.59375 23.363281 35.582031 23.378906 35.5625 23.378906 " fill-opacity="1" fill-rule="nonzero"/><path fill="#363e44" d="M 33.726562 21.601562 C 33.710938 21.601562 33.699219 21.59375 33.695312 21.578125 C 33.6875 21.558594 33.699219 21.539062 33.71875 21.535156 C 34.09375 21.4375 34.328125 21.0625 34.257812 20.683594 L 34.199219 20.378906 C 34.195312 20.363281 34.207031 20.34375 34.222656 20.339844 C 34.242188 20.332031 34.257812 20.34375 34.265625 20.359375 L 34.503906 20.917969 C 34.589844 21.121094 34.8125 21.238281 35.027344 21.1875 C 35.152344 21.160156 35.253906 21.085938 35.320312 20.980469 C 35.386719 20.875 35.40625 20.75 35.375 20.628906 L 35.179688 19.84375 C 35.175781 19.824219 35.1875 19.808594 35.203125 19.800781 C 35.222656 19.796875 35.242188 19.804688 35.25 19.824219 L 35.382812 20.191406 C 35.449219 20.375 35.65625 20.472656 35.839844 20.40625 C 36.015625 20.347656 36.117188 20.167969 36.074219 19.988281 L 35.953125 19.433594 C 35.949219 19.417969 35.960938 19.398438 35.980469 19.394531 C 35.996094 19.390625 36.015625 19.402344 36.019531 19.421875 L 36.144531 19.972656 C 36.191406 20.1875 36.070312 20.402344 35.863281 20.472656 C 35.679688 20.535156 35.480469 20.46875 35.371094 20.316406 L 35.445312 20.613281 C 35.480469 20.75 35.457031 20.894531 35.382812 21.019531 C 35.304688 21.140625 35.183594 21.226562 35.042969 21.257812 C 34.792969 21.3125 34.539062 21.179688 34.4375 20.945312 L 34.328125 20.6875 C 34.398438 21.097656 34.140625 21.496094 33.738281 21.601562 L 33.726562 21.601562 " fill-opacity="1" fill-rule="nonzero"/><path fill="#efbc73" d="M 38.859375 24.101562 L 33.414062 25.761719 C 33.414062 25.761719 33.476562 32.195312 34.921875 33.742188 C 36.121094 35.023438 44.335938 33.546875 44.335938 33.546875 L 44.773438 26.554688 L 39.445312 28.058594 L 38.859375 24.101562 " fill-opacity="1" fill-rule="nonzero"/><g clip-path="url(#24acc1179e)"><path fill="#efbc73" d="M 56.726562 34.320312 L 59.507812 39.097656 L 63.789062 36.105469 C 65.601562 35.066406 65.851562 32.5625 64.277344 31.1875 C 62.097656 29.285156 59.648438 27.230469 54.515625 26.464844 L 54.863281 31.320312 L 57.992188 33.742188 L 56.726562 34.320312 " fill-opacity="1" fill-rule="nonzero"/></g><path fill="#efbc73" d="M 56.578125 39.371094 C 56.578125 39.371094 49.5625 42.351562 42.515625 39.183594 L 44 26.789062 C 44 26.789062 48.640625 25.007812 56.183594 26.742188 L 56.578125 39.371094 " fill-opacity="1" fill-rule="nonzero"/><path fill="#363e44" d="M 42.757812 33.917969 L 42.753906 33.917969 C 42.734375 33.914062 42.71875 33.894531 42.722656 33.878906 L 43.394531 29.683594 C 43.398438 29.664062 43.417969 29.652344 43.4375 29.652344 C 43.453125 29.65625 43.46875 29.675781 43.464844 29.695312 L 42.792969 33.886719 C 42.789062 33.90625 42.773438 33.917969 42.757812 33.917969 " fill-opacity="1" fill-rule="nonzero"/><path fill="#e2a18d" d="M 53.632812 26.445312 C 53.632812 26.445312 50.089844 28.289062 46.539062 26.421875 C 46.539062 26.421875 49.402344 25.511719 53.632812 26.445312 " fill-opacity="1" fill-rule="nonzero"/><path fill="#363e44" d="M 53.230469 24.535156 C 53.230469 25.214844 52.679688 25.761719 51.996094 25.761719 C 51.316406 25.761719 50.765625 25.214844 50.765625 24.535156 L 51.996094 23.304688 C 52.679688 23.304688 53.230469 23.855469 53.230469 24.535156 " fill-opacity="1" fill-rule="nonzero"/><path fill="#363e44" d="M 53.855469 26.261719 C 53.855469 26.933594 53.308594 27.476562 52.632812 27.476562 C 51.957031 27.476562 51.410156 26.933594 51.410156 26.261719 C 51.410156 25.585938 51.957031 25.042969 52.632812 25.042969 C 53.308594 25.042969 53.855469 25.585938 53.855469 26.261719 " fill-opacity="1" fill-rule="nonzero"/><path fill="#363e44" d="M 53.777344 27.878906 C 53.777344 28.507812 53.265625 29.019531 52.632812 29.019531 C 52 29.019531 51.488281 28.507812 51.488281 27.878906 C 51.488281 27.25 52 26.738281 52.632812 26.738281 C 53.265625 26.738281 53.777344 27.25 53.777344 27.878906 " fill-opacity="1" fill-rule="nonzero"/><path fill="#363e44" d="M 53.144531 29.269531 C 53.144531 29.804688 52.707031 30.242188 52.167969 30.242188 C 51.628906 30.242188 51.191406 29.804688 51.191406 29.269531 C 51.191406 28.730469 51.628906 28.292969 52.167969 28.292969 C 52.707031 28.292969 53.144531 28.730469 53.144531 29.269531 " fill-opacity="1" fill-rule="nonzero"/><path fill="#363e44" d="M 51.710938 29.589844 C 51.152344 29.992188 50.390625 30.65625 49.769531 31.675781 C 48.4375 33.859375 48.714844 36.109375 48.835938 36.824219 C 49.601562 36.792969 50.363281 36.757812 51.128906 36.726562 C 51.050781 36.222656 50.996094 35.589844 51.054688 34.867188 C 51.144531 33.695312 51.476562 32.765625 51.757812 32.152344 C 51.648438 32.742188 51.554688 33.433594 51.53125 34.210938 C 51.503906 35.191406 51.589844 36.050781 51.710938 36.75 C 52.054688 36.726562 52.398438 36.699219 52.742188 36.675781 C 52.609375 35.800781 52.503906 34.851562 52.441406 33.835938 C 52.351562 32.40625 52.367188 31.09375 52.441406 29.917969 C 52.195312 29.808594 51.953125 29.699219 51.710938 29.589844 " fill-opacity="1" fill-rule="nonzero"/><path fill="#363e44" d="M 48.535156 36.792969 C 48.515625 36.792969 48.5 36.777344 48.5 36.761719 C 48.367188 35.75 48.320312 33.769531 49.476562 31.867188 C 49.976562 31.050781 50.632812 30.347656 51.429688 29.773438 C 51.445312 29.761719 51.464844 29.765625 51.476562 29.78125 C 51.488281 29.796875 51.484375 29.816406 51.46875 29.828125 C 50.679688 30.398438 50.03125 31.09375 49.539062 31.902344 C 48.390625 33.789062 48.4375 35.75 48.570312 36.753906 C 48.570312 36.773438 48.558594 36.789062 48.539062 36.792969 L 48.535156 36.792969 " fill-opacity="1" fill-rule="nonzero"/><path fill="#f2e6dc" d="M 57.683594 28.464844 C 57.683594 28.464844 51.925781 29.441406 50.335938 34.550781 C 50.335938 34.550781 44.726562 31.882812 41.222656 31.425781 L 51.015625 37.882812 L 57.683594 28.464844 " fill-opacity="1" fill-rule="nonzero"/><path fill="#8b865c" d="M 42.75 41.480469 L 51.789062 45.21875 C 51.867188 45.613281 52.25 45.863281 52.640625 45.785156 C 53.035156 45.707031 53.289062 45.324219 53.210938 44.933594 L 60.03125 38 L 57.945312 27.714844 L 51.125 34.648438 C 51.203125 35.039062 50.949219 35.421875 50.554688 35.5 C 50.164062 35.578125 49.78125 35.324219 49.703125 34.933594 L 40.664062 31.195312 L 42.75 41.480469 " fill-opacity="1" fill-rule="nonzero"/><path fill="#776e42" d="M 53.089844 44.550781 C 53.074219 44.550781 53.058594 44.539062 53.054688 44.523438 L 51.238281 35.550781 C 51.234375 35.53125 51.246094 35.511719 51.265625 35.511719 C 51.285156 35.503906 51.300781 35.519531 51.304688 35.539062 L 53.125 44.507812 C 53.128906 44.527344 53.117188 44.546875 53.097656 44.550781 L 53.089844 44.550781 " fill-opacity="1" fill-rule="nonzero"/><path fill="#776e42" d="M 51.753906 44.820312 C 51.738281 44.820312 51.722656 44.808594 51.722656 44.792969 L 49.902344 35.820312 C 49.898438 35.800781 49.910156 35.78125 49.929688 35.777344 C 49.949219 35.773438 49.964844 35.789062 49.96875 35.804688 L 51.789062 44.777344 C 51.792969 44.796875 51.78125 44.816406 51.761719 44.820312 L 51.753906 44.820312 " fill-opacity="1" fill-rule="nonzero"/><path fill="#e6d0be" d="M 49.804688 34.847656 C 49.796875 34.847656 49.785156 34.84375 49.78125 34.835938 C 49.765625 34.820312 49.769531 34.796875 49.78125 34.785156 C 49.789062 34.78125 50.292969 34.335938 50.992188 34.539062 C 51.011719 34.546875 51.023438 34.566406 51.015625 34.582031 C 51.011719 34.601562 50.992188 34.613281 50.972656 34.605469 C 50.3125 34.414062 49.835938 34.832031 49.828125 34.835938 C 49.824219 34.84375 49.8125 34.847656 49.804688 34.847656 " fill-opacity="1" fill-rule="nonzero"/><path fill="#efbc73" d="M 56.402344 34.355469 L 59.507812 39.097656 L 64.710938 34.8125 L 62.355469 31.390625 L 56.402344 34.355469 " fill-opacity="1" fill-rule="nonzero"/><path fill="#363e44" d="M 59.027344 33.007812 C 59.011719 33.007812 59 33 58.996094 32.988281 C 58.984375 32.96875 58.992188 32.949219 59.011719 32.941406 L 62.34375 31.359375 C 62.359375 31.351562 62.378906 31.359375 62.386719 31.375 C 62.398438 31.394531 62.390625 31.414062 62.371094 31.421875 L 59.042969 33.003906 C 59.035156 33.003906 59.03125 33.007812 59.027344 33.007812 " fill-opacity="1" fill-rule="nonzero"/><path fill="#e2a18d" d="M 55.503906 35.375 C 55.671875 35.269531 56.335938 34.941406 57.203125 34.507812 C 58.128906 34.046875 59.253906 34.222656 59.980469 34.957031 C 60 34.976562 60.019531 34.996094 60.039062 35.015625 C 61.160156 36.164062 60.859375 38.058594 59.441406 38.808594 C 57.113281 40.03125 54.867188 41.183594 54.496094 41.414062 C 54.097656 41.6875 53.175781 42.316406 52.960938 42.042969 C 52.667969 41.667969 53.550781 40.855469 53.550781 40.792969 C 53.261719 41.011719 52.257812 41.695312 52 41.394531 C 51.800781 41.164062 52.589844 40.191406 52.773438 39.941406 C 52.75 39.949219 51.722656 40.945312 51.398438 40.59375 C 51.121094 40.292969 51.839844 39.347656 51.996094 39.085938 C 51.710938 39.269531 50.84375 39.792969 50.675781 39.472656 C 50.324219 38.800781 54.675781 35.894531 55.503906 35.375 " fill-opacity="1" fill-rule="nonzero"/><path fill="#363e44" d="M 51.96875 39.097656 C 51.960938 39.097656 51.953125 39.09375 51.945312 39.089844 C 51.929688 39.078125 51.929688 39.054688 51.941406 39.039062 C 52.066406 38.878906 52.203125 38.722656 52.351562 38.578125 C 52.613281 38.320312 52.910156 38.097656 53.230469 37.910156 C 53.25 37.898438 53.269531 37.90625 53.28125 37.921875 C 53.289062 37.9375 53.285156 37.960938 53.265625 37.96875 C 52.949219 38.152344 52.660156 38.375 52.398438 38.628906 C 52.253906 38.769531 52.121094 38.921875 51.996094 39.082031 C 51.988281 39.09375 51.976562 39.097656 51.96875 39.097656 " fill-opacity="1" fill-rule="nonzero"/><path fill="#363e44" d="M 52.746094 39.964844 C 52.738281 39.964844 52.726562 39.960938 52.722656 39.957031 C 52.707031 39.941406 52.707031 39.921875 52.71875 39.90625 C 52.75 39.875 52.78125 39.84375 52.8125 39.8125 C 53.078125 39.554688 53.375 39.332031 53.695312 39.144531 C 53.710938 39.132812 53.734375 39.140625 53.742188 39.15625 C 53.753906 39.171875 53.746094 39.195312 53.730469 39.203125 C 53.414062 39.386719 53.121094 39.609375 52.863281 39.863281 C 52.832031 39.894531 52.800781 39.925781 52.769531 39.957031 C 52.765625 39.960938 52.753906 39.964844 52.746094 39.964844 " fill-opacity="1" fill-rule="nonzero"/><path fill="#363e44" d="M 53.566406 40.808594 C 53.554688 40.808594 53.546875 40.804688 53.539062 40.796875 C 53.527344 40.78125 53.527344 40.757812 53.542969 40.746094 C 53.730469 40.59375 53.929688 40.453125 54.140625 40.332031 C 54.15625 40.320312 54.179688 40.328125 54.1875 40.34375 C 54.199219 40.359375 54.191406 40.382812 54.175781 40.390625 C 53.96875 40.511719 53.773438 40.648438 53.589844 40.800781 C 53.582031 40.804688 53.574219 40.808594 53.566406 40.808594 " fill-opacity="1" fill-rule="nonzero"/><path fill="#363e44" d="M 39.667969 29.835938 C 39.648438 29.835938 39.632812 29.820312 39.632812 29.804688 L 39.410156 28.0625 C 39.410156 28.042969 39.421875 28.027344 39.441406 28.023438 C 39.460938 28.023438 39.476562 28.035156 39.480469 28.054688 L 39.699219 29.796875 C 39.703125 29.816406 39.691406 29.832031 39.671875 29.835938 L 39.667969 29.835938 " fill-opacity="1" fill-rule="nonzero"/><path fill="#e2a18d" d="M 49.710938 27.152344 L 50.113281 27.078125 C 50.570312 26.992188 50.875 26.558594 50.789062 26.101562 L 50.382812 23.863281 C 50.296875 23.40625 49.859375 23.101562 49.402344 23.1875 L 48.996094 23.257812 C 48.539062 23.34375 48.234375 23.78125 48.320312 24.238281 L 48.730469 26.476562 C 48.8125 26.929688 49.25 27.234375 49.710938 27.152344 " fill-opacity="1" fill-rule="nonzero"/><path fill="#e2a18d" d="M 50.597656 20.757812 C 50.519531 20.699219 49.769531 20.175781 48.980469 20.4375 C 48.390625 20.628906 48.046875 21.117188 47.597656 22.023438 C 47.0625 23.089844 46.894531 23.800781 47.070312 24.179688 C 47.351562 24.769531 49.175781 24.875 50.230469 24.285156 C 50.988281 23.863281 51.4375 23.003906 51.410156 22.128906 C 51.382812 21.257812 50.648438 20.792969 50.597656 20.757812 " fill-opacity="1" fill-rule="nonzero"/><path fill="#ffffff" d="M 47.925781 21.039062 C 47.925781 21.042969 47.917969 21.046875 47.914062 21.054688 C 47.839844 21.140625 47.761719 21.230469 47.675781 21.296875 C 47.636719 21.328125 47.597656 21.335938 47.558594 21.359375 C 47.527344 21.378906 47.5 21.394531 47.46875 21.414062 C 47.375 21.054688 47.457031 20.71875 47.457031 20.71875 C 47.457031 20.71875 47.707031 20.820312 47.925781 21.039062 " fill-opacity="1" fill-rule="nonzero"/><path fill="#363e44" d="M 48.246094 22.234375 C 48.238281 22.234375 48.234375 22.238281 48.226562 22.238281 C 48.144531 22.203125 47.75 22.011719 47.554688 21.632812 C 47.515625 21.5625 47.492188 21.488281 47.472656 21.417969 C 47.480469 21.386719 47.496094 21.359375 47.511719 21.332031 C 47.605469 21.171875 47.757812 21.070312 47.929688 21.039062 C 48.007812 21.121094 48.085938 21.214844 48.144531 21.332031 C 48.34375 21.714844 48.261719 22.15625 48.246094 22.234375 " fill-opacity="1" fill-rule="nonzero"/><path fill="#ffffff" d="M 49.355469 22.734375 C 49.289062 22.847656 49.21875 22.921875 49.105469 22.976562 C 48.84375 22.800781 48.691406 22.570312 48.691406 22.570312 C 48.691406 22.570312 49.070312 22.40625 49.476562 22.464844 C 49.460938 22.558594 49.402344 22.652344 49.355469 22.734375 " fill-opacity="1" fill-rule="nonzero"/><path fill="#363e44" d="M 49.476562 22.464844 C 49.523438 22.472656 49.566406 22.480469 49.613281 22.492188 C 50.070312 22.625 50.347656 23.050781 50.347656 23.050781 C 50.347656 23.050781 49.882812 23.261719 49.429688 23.128906 C 49.308594 23.09375 49.203125 23.042969 49.109375 22.980469 C 49.128906 22.757812 49.265625 22.558594 49.476562 22.464844 " fill-opacity="1" fill-rule="nonzero"/><path fill="#363e44" d="M 52.617188 22.503906 C 52.371094 23.5625 51.78125 24.386719 50.523438 24.628906 C 50.0625 24.136719 50.5625 23.433594 50.539062 23.113281 C 50.507812 22.71875 51.003906 22.0625 51.273438 21.800781 C 50.148438 21.269531 48.40625 20.648438 48.394531 20.597656 C 48.359375 20.441406 48.761719 20.164062 49.449219 19.941406 C 49.835938 19.8125 50.429688 19.652344 50.894531 19.902344 C 51.726562 20.34375 52.925781 21.195312 52.617188 22.503906 " fill-opacity="1" fill-rule="nonzero"/><path fill="#e2a18d" d="M 50.210938 23.335938 C 49.894531 23.550781 49.785156 23.945312 49.96875 24.210938 C 50.152344 24.476562 50.558594 24.519531 50.875 24.300781 C 51.191406 24.085938 51.300781 23.695312 51.117188 23.429688 C 50.933594 23.164062 50.527344 23.121094 50.210938 23.335938 " fill-opacity="1" fill-rule="nonzero"/><path fill="#363e44" d="M 50.648438 24.136719 C 50.636719 24.136719 50.625 24.128906 50.617188 24.113281 C 50.609375 24.097656 50.617188 24.078125 50.636719 24.070312 C 50.65625 24.058594 50.671875 24.050781 50.691406 24.035156 C 50.835938 23.9375 50.886719 23.761719 50.804688 23.640625 C 50.785156 23.613281 50.761719 23.589844 50.730469 23.570312 C 50.710938 23.5625 50.707031 23.542969 50.714844 23.523438 C 50.726562 23.507812 50.746094 23.5 50.761719 23.511719 C 50.804688 23.535156 50.835938 23.5625 50.863281 23.601562 C 50.96875 23.753906 50.90625 23.972656 50.730469 24.09375 C 50.710938 24.109375 50.6875 24.121094 50.664062 24.132812 C 50.660156 24.132812 50.652344 24.136719 50.648438 24.136719 " fill-opacity="1" fill-rule="nonzero"/><path fill="#363e44" d="M 47.855469 22.78125 C 47.835938 22.78125 47.820312 22.765625 47.820312 22.746094 C 47.816406 22.671875 47.832031 22.609375 47.871094 22.566406 C 47.914062 22.515625 47.964844 22.503906 48.023438 22.492188 C 48.0625 22.484375 48.105469 22.476562 48.15625 22.453125 C 48.21875 22.425781 48.273438 22.382812 48.324219 22.324219 C 48.335938 22.308594 48.355469 22.308594 48.371094 22.320312 C 48.386719 22.332031 48.386719 22.355469 48.375 22.367188 C 48.320312 22.433594 48.253906 22.484375 48.183594 22.515625 C 48.128906 22.542969 48.082031 22.550781 48.039062 22.5625 C 47.988281 22.570312 47.949219 22.578125 47.921875 22.609375 C 47.898438 22.640625 47.886719 22.683594 47.890625 22.742188 C 47.890625 22.761719 47.875 22.777344 47.855469 22.78125 " fill-opacity="1" fill-rule="nonzero"/><path fill="#363e44" d="M 48.035156 23.5 C 48.011719 23.5 47.984375 23.5 47.957031 23.492188 C 47.8125 23.460938 47.734375 23.367188 47.707031 23.328125 C 47.695312 23.3125 47.699219 23.289062 47.714844 23.277344 C 47.730469 23.265625 47.753906 23.269531 47.761719 23.285156 C 47.785156 23.320312 47.851562 23.398438 47.96875 23.421875 C 48.101562 23.453125 48.203125 23.390625 48.230469 23.371094 C 48.246094 23.359375 48.269531 23.363281 48.28125 23.378906 C 48.289062 23.394531 48.285156 23.417969 48.269531 23.429688 C 48.242188 23.449219 48.15625 23.5 48.035156 23.5 " fill-opacity="1" fill-rule="nonzero"/><path fill="#363e44" d="M 48.644531 24.730469 C 48.566406 24.730469 48.484375 24.726562 48.398438 24.722656 C 48.378906 24.71875 48.363281 24.703125 48.363281 24.683594 C 48.367188 24.664062 48.382812 24.648438 48.402344 24.652344 C 49.066406 24.699219 49.375 24.53125 49.375 24.53125 C 49.394531 24.519531 49.414062 24.527344 49.425781 24.542969 C 49.433594 24.558594 49.429688 24.582031 49.410156 24.589844 C 49.398438 24.597656 49.160156 24.730469 48.644531 24.730469 " fill-opacity="1" fill-rule="nonzero"/><path fill="#bc8271" d="M 15.183594 58.425781 L 12.019531 58.425781 L 11.5 45.519531 L 15.511719 45.519531 L 15.183594 58.425781 " fill-opacity="1" fill-rule="nonzero"/><path fill="#8b865c" d="M 18.265625 60.417969 L 11.953125 60.417969 L 11.953125 57.539062 L 15.378906 57.539062 C 16.972656 57.539062 18.265625 58.828125 18.265625 60.417969 " fill-opacity="1" fill-rule="nonzero"/><path fill="#363e44" d="M 15.332031 58.148438 C 15.320312 58.148438 15.3125 58.144531 15.304688 58.136719 C 15.292969 58.125 15.292969 58.101562 15.304688 58.089844 L 15.863281 57.53125 C 15.875 57.519531 15.898438 57.519531 15.914062 57.53125 C 15.925781 57.546875 15.925781 57.570312 15.914062 57.582031 L 15.355469 58.136719 C 15.347656 58.144531 15.339844 58.148438 15.332031 58.148438 " fill-opacity="1" fill-rule="nonzero"/><path fill="#363e44" d="M 15.964844 58.335938 C 15.957031 58.335938 15.945312 58.332031 15.9375 58.328125 C 15.925781 58.3125 15.925781 58.292969 15.9375 58.277344 L 16.496094 57.722656 C 16.511719 57.707031 16.53125 57.707031 16.546875 57.722656 C 16.558594 57.734375 16.558594 57.757812 16.546875 57.773438 L 15.988281 58.328125 C 15.980469 58.332031 15.972656 58.335938 15.964844 58.335938 " fill-opacity="1" fill-rule="nonzero"/><path fill="#bc8271" d="M 7.808594 58.441406 L 4.699219 57.851562 L 6.289062 52.066406 L 6.789062 45.113281 L 10.800781 45.824219 L 9.730469 52.507812 L 7.808594 58.441406 " fill-opacity="1" fill-rule="nonzero"/><path fill="#8b865c" d="M 9.757812 61.78125 L 3.832031 59.621094 L 4.820312 56.917969 L 8.039062 58.089844 C 9.535156 58.636719 10.304688 60.285156 9.757812 61.78125 " fill-opacity="1" fill-rule="nonzero"/><path fill="#363e44" d="M 7.796875 58.648438 C 7.785156 58.648438 7.769531 58.640625 7.765625 58.625 C 7.757812 58.609375 7.765625 58.589844 7.78125 58.582031 L 8.496094 58.25 C 8.515625 58.242188 8.535156 58.25 8.542969 58.265625 C 8.550781 58.285156 8.542969 58.304688 8.527344 58.3125 L 7.8125 58.644531 C 7.808594 58.644531 7.800781 58.648438 7.796875 58.648438 " fill-opacity="1" fill-rule="nonzero"/><path fill="#363e44" d="M 8.328125 59.042969 C 8.3125 59.042969 8.300781 59.035156 8.292969 59.019531 C 8.285156 59.003906 8.292969 58.984375 8.3125 58.972656 L 9.027344 58.644531 C 9.042969 58.636719 9.0625 58.644531 9.074219 58.660156 C 9.082031 58.679688 9.074219 58.699219 9.054688 58.707031 L 8.339844 59.039062 C 8.335938 59.039062 8.332031 59.042969 8.328125 59.042969 " fill-opacity="1" fill-rule="nonzero"/><path fill="#efbc73" d="M 17.132812 49.09375 L 11.386719 49.09375 L 11.082031 45.949219 L 10.546875 49.09375 L 5.03125 49.09375 L 6.765625 40.792969 L 15.429688 40.792969 L 17.132812 49.09375 " fill-opacity="1" fill-rule="nonzero"/><path fill="#bc8271" d="M 16.101562 33.71875 C 17.765625 33.664062 22.582031 33.78125 22.59375 31.886719 C 22.605469 30.320312 17.910156 30.398438 16.253906 30.355469 C 16.203125 31.476562 16.152344 32.597656 16.101562 33.71875 " fill-opacity="1" fill-rule="nonzero"/><path fill="#bc8271" d="M 5 32.59375 C 3.859375 33.804688 0.375 37.113281 1.707031 38.460938 C 2.8125 39.578125 6.074219 36.214844 7.277344 35.078125 C 6.519531 34.25 5.757812 33.421875 5 32.59375 " fill-opacity="1" fill-rule="nonzero"/><path fill="#ffffff" d="M 3.175781 33.71875 C 3.175781 33.71875 5.945312 30.023438 11.28125 30.144531 C 15.179688 30.238281 17.636719 30.238281 17.636719 30.238281 L 17.636719 34.683594 L 15.429688 35.613281 L 15.429688 40.792969 L 6.765625 40.792969 L 6.765625 36.140625 L 6.054688 36.507812 L 3.175781 33.71875 " fill-opacity="1" fill-rule="nonzero"/><path fill="#d87355" d="M 16.101562 35.859375 L 9.242188 43.871094 C 9.039062 44.109375 8.675781 44.136719 8.4375 43.933594 L 8.128906 43.671875 C 8.097656 43.453125 7.984375 43.25 7.816406 43.105469 L 7.585938 42.910156 C 7.4375 42.78125 7.417969 42.554688 7.546875 42.40625 L 7.894531 42 C 7.820312 40.511719 8.320312 39.054688 9.285156 37.921875 L 9.707031 37.421875 C 10.097656 36.96875 10.632812 36.660156 11.222656 36.550781 L 12.601562 36.300781 C 12.734375 36.273438 12.863281 36.214844 12.964844 36.125 L 14.140625 35.128906 C 14.660156 34.6875 15.410156 34.640625 15.980469 35.011719 C 16.269531 35.199219 16.324219 35.597656 16.101562 35.859375 " fill-opacity="1" fill-rule="nonzero"/><path fill="#363e44" d="M 15.476562 36.28125 C 15.871094 36.617188 15.917969 37.210938 15.582031 37.601562 C 15.246094 37.996094 14.652344 38.042969 14.257812 37.707031 C 13.863281 37.371094 13.816406 36.78125 14.152344 36.386719 C 14.488281 35.992188 15.082031 35.945312 15.476562 36.28125 " fill-opacity="1" fill-rule="nonzero"/><path fill="#d3bba3" d="M 15.296875 36.492188 C 15.578125 36.730469 15.609375 37.148438 15.371094 37.425781 C 15.132812 37.703125 14.714844 37.738281 14.4375 37.5 C 14.15625 37.261719 14.125 36.84375 14.363281 36.566406 C 14.601562 36.289062 15.019531 36.253906 15.296875 36.492188 " fill-opacity="1" fill-rule="nonzero"/><path fill="#363e44" d="M 10.867188 41.667969 C 11.261719 42.003906 11.308594 42.59375 10.972656 42.988281 C 10.636719 43.378906 10.042969 43.425781 9.648438 43.089844 C 9.25 42.753906 9.203125 42.164062 9.542969 41.769531 C 9.878906 41.378906 10.472656 41.332031 10.867188 41.667969 " fill-opacity="1" fill-rule="nonzero"/><path fill="#d3bba3" d="M 10.6875 41.875 C 10.96875 42.113281 11 42.53125 10.761719 42.808594 C 10.523438 43.085938 10.105469 43.121094 9.824219 42.882812 C 9.546875 42.644531 9.511719 42.226562 9.75 41.949219 C 9.988281 41.671875 10.410156 41.636719 10.6875 41.875 " fill-opacity="1" fill-rule="nonzero"/><path fill="#363e44" d="M 8.664062 41.167969 L 12.578125 36.597656 L 10.605469 37.03125 C 10.472656 37.058594 10.351562 37.125 10.253906 37.222656 C 9.179688 38.28125 8.476562 39.648438 8.246094 41.113281 L 8.664062 41.167969 " fill-opacity="1" fill-rule="nonzero"/><path fill="#ffffff" d="M 15.441406 34.828125 C 15.5 34.933594 15.28125 35.164062 14.957031 35.339844 C 14.628906 35.519531 14.320312 35.582031 14.261719 35.476562 C 14.203125 35.371094 14.417969 35.140625 14.746094 34.960938 C 15.070312 34.78125 15.382812 34.722656 15.441406 34.828125 " fill-opacity="1" fill-rule="nonzero"/><path fill="#ffd092" d="M 16.011719 35.394531 L 15.871094 35.558594 C 15.832031 35.601562 15.765625 35.601562 15.726562 35.5625 L 15.578125 35.402344 C 15.542969 35.367188 15.542969 35.3125 15.574219 35.273438 L 15.714844 35.109375 C 15.75 35.066406 15.820312 35.0625 15.859375 35.105469 L 16.007812 35.265625 C 16.042969 35.300781 16.042969 35.355469 16.011719 35.394531 " fill-opacity="1" fill-rule="nonzero"/><path fill="#bc8271" d="M 2.949219 36 C 4.234375 36.277344 7.296875 36.785156 7.59375 36.847656 C 8.148438 36.960938 11.109375 37.652344 11.054688 38.089844 C 11.03125 38.300781 10.453125 38.191406 10.261719 38.148438 C 10.398438 38.261719 10.984375 38.628906 10.894531 38.847656 C 10.789062 39.101562 10.027344 38.769531 10.011719 38.773438 C 10.164062 38.871094 10.792969 39.238281 10.734375 39.40625 C 10.652344 39.621094 9.96875 39.453125 9.765625 39.394531 C 9.777344 39.429688 10.425781 39.691406 10.34375 39.953125 C 10.28125 40.144531 9.652344 39.992188 9.378906 39.925781 C 8.886719 39.824219 3.089844 38.949219 2.03125 38.652344 C 1.617188 38.535156 2.320312 36.320312 2.949219 36 " fill-opacity="1" fill-rule="nonzero"/><path fill="#363e44" d="M 5.734375 36.542969 L 5.726562 36.542969 C 5.070312 36.421875 3.359375 36.089844 2.941406 36.003906 C 2.925781 36 2.910156 35.984375 2.914062 35.964844 C 2.917969 35.945312 2.9375 35.933594 2.957031 35.9375 C 3.371094 36.023438 5.082031 36.351562 5.738281 36.472656 C 5.757812 36.476562 5.773438 36.492188 5.769531 36.511719 C 5.765625 36.53125 5.75 36.542969 5.734375 36.542969 " fill-opacity="1" fill-rule="nonzero"/><path fill="#363e44" d="M 10.269531 38.164062 C 10.265625 38.164062 10.257812 38.164062 10.253906 38.160156 C 10.152344 38.097656 10.046875 38.042969 9.941406 37.996094 C 9.75 37.914062 9.546875 37.851562 9.339844 37.816406 C 9.320312 37.8125 9.304688 37.792969 9.308594 37.777344 C 9.3125 37.757812 9.332031 37.742188 9.351562 37.746094 C 9.566406 37.785156 9.773438 37.847656 9.96875 37.933594 C 10.078125 37.980469 10.1875 38.039062 10.289062 38.101562 C 10.304688 38.109375 10.3125 38.132812 10.300781 38.148438 C 10.292969 38.160156 10.28125 38.164062 10.269531 38.164062 " fill-opacity="1" fill-rule="nonzero"/><path fill="#363e44" d="M 10.027344 38.796875 C 10.019531 38.796875 10.015625 38.796875 10.011719 38.792969 C 9.988281 38.78125 9.964844 38.773438 9.941406 38.761719 C 9.75 38.675781 9.546875 38.617188 9.339844 38.582031 C 9.320312 38.578125 9.308594 38.558594 9.3125 38.539062 C 9.316406 38.519531 9.332031 38.507812 9.351562 38.511719 C 9.566406 38.546875 9.773438 38.609375 9.972656 38.699219 C 9.996094 38.707031 10.019531 38.71875 10.042969 38.730469 C 10.058594 38.738281 10.066406 38.757812 10.058594 38.777344 C 10.050781 38.789062 10.039062 38.796875 10.027344 38.796875 " fill-opacity="1" fill-rule="nonzero"/><path fill="#363e44" d="M 9.753906 39.421875 C 9.75 39.421875 9.746094 39.421875 9.742188 39.417969 C 9.613281 39.375 9.476562 39.339844 9.339844 39.316406 C 9.324219 39.3125 9.308594 39.296875 9.3125 39.277344 C 9.316406 39.257812 9.332031 39.246094 9.351562 39.25 C 9.492188 39.273438 9.632812 39.308594 9.765625 39.351562 C 9.78125 39.359375 9.792969 39.378906 9.785156 39.398438 C 9.78125 39.410156 9.769531 39.421875 9.753906 39.421875 " fill-opacity="1" fill-rule="nonzero"/><path fill="#bc8271" d="M 19.28125 31.566406 C 20.382812 28.277344 21.289062 25.980469 21.703125 24.5 C 21.886719 23.835938 21.945312 23.136719 22.453125 22.707031 C 22.675781 22.515625 22.941406 22.359375 23.0625 22.539062 C 23.257812 22.816406 22.5 23.347656 22.664062 23.570312 C 22.828125 23.792969 23.734375 23.449219 23.75 23.125 C 23.765625 22.863281 23.148438 22.882812 23.230469 22.582031 C 23.289062 22.378906 23.632812 22.390625 23.875 22.445312 C 23.953125 22.464844 24.273438 22.539062 24.425781 22.855469 C 24.585938 23.195312 24.414062 23.511719 24.398438 23.542969 C 24.605469 23.507812 24.800781 23.597656 24.867188 23.734375 C 24.949219 23.917969 24.820312 24.222656 24.507812 24.308594 C 24.546875 24.304688 24.847656 24.285156 24.921875 24.417969 C 24.992188 24.554688 24.839844 24.832031 24.480469 25.050781 C 24.71875 25.042969 24.878906 25.117188 24.90625 25.199219 C 24.980469 25.4375 24.691406 25.796875 23.738281 26.28125 C 23.542969 27.097656 22.574219 32.09375 22.574219 32.09375 C 22.574219 32.09375 21.253906 33.054688 19.28125 31.566406 " fill-opacity="1" fill-rule="nonzero"/><path fill="#363e44" d="M 19.28125 31.601562 C 19.277344 31.601562 19.273438 31.597656 19.269531 31.597656 C 19.253906 31.59375 19.242188 31.570312 19.25 31.554688 C 19.363281 31.214844 19.480469 30.867188 19.601562 30.515625 C 19.605469 30.5 19.628906 30.488281 19.644531 30.496094 C 19.664062 30.5 19.671875 30.519531 19.667969 30.539062 C 19.546875 30.886719 19.429688 31.238281 19.316406 31.574219 C 19.3125 31.589844 19.296875 31.601562 19.28125 31.601562 " fill-opacity="1" fill-rule="nonzero"/><path fill="#363e44" d="M 24.160156 24.3125 Z M 24.253906 25.667969 C 23.894531 25.652344 23.601562 25.519531 23.59375 25.367188 C 23.585938 25.257812 23.734375 25.136719 23.953125 25.066406 C 23.699219 25.039062 23.523438 24.953125 23.496094 24.835938 C 23.464844 24.691406 23.664062 24.507812 23.972656 24.378906 C 23.703125 24.367188 23.488281 24.273438 23.457031 24.140625 C 23.414062 23.964844 23.671875 23.691406 24.113281 23.578125 C 24.132812 23.574219 24.152344 23.582031 24.15625 23.601562 C 24.160156 23.621094 24.148438 23.640625 24.132812 23.644531 C 23.714844 23.753906 23.496094 24 23.523438 24.125 C 23.550781 24.238281 23.820312 24.339844 24.164062 24.300781 C 24.183594 24.300781 24.203125 24.3125 24.207031 24.332031 C 24.210938 24.351562 24.199219 24.371094 24.179688 24.378906 C 23.75 24.507812 23.542969 24.722656 23.566406 24.824219 C 23.585938 24.917969 23.820312 25.011719 24.171875 25.003906 C 24.191406 25.003906 24.210938 25.019531 24.210938 25.039062 C 24.214844 25.0625 24.199219 25.078125 24.179688 25.082031 C 23.839844 25.136719 23.660156 25.285156 23.664062 25.363281 C 23.667969 25.449219 23.894531 25.582031 24.253906 25.597656 C 24.273438 25.597656 24.289062 25.613281 24.289062 25.632812 C 24.289062 25.652344 24.273438 25.667969 24.253906 25.667969 " fill-opacity="1" fill-rule="nonzero"/><path fill="#363e44" d="M 22.605469 26.113281 L 22.59375 26.109375 C 22.578125 26.105469 22.566406 26.085938 22.570312 26.066406 C 22.605469 25.949219 22.691406 25.726562 22.910156 25.546875 C 23.160156 25.347656 23.429688 25.320312 23.566406 25.324219 C 23.585938 25.324219 23.601562 25.339844 23.601562 25.359375 C 23.601562 25.378906 23.585938 25.390625 23.566406 25.390625 C 23.460938 25.390625 23.195312 25.410156 22.953125 25.601562 C 22.75 25.769531 22.667969 25.976562 22.636719 26.085938 C 22.632812 26.101562 22.621094 26.113281 22.605469 26.113281 " fill-opacity="1" fill-rule="nonzero"/><path fill="#8b865c" d="M 30.75 25.207031 L 31.363281 25.183594 L 30.394531 23.730469 L 30.429688 23.53125 L 31.367188 21.53125 L 30.878906 21.441406 L 29.273438 23.269531 C 27.746094 22.964844 24.96875 22.414062 22.4375 21.957031 L 23.769531 19.910156 L 23.355469 19.835938 L 20.765625 21.664062 C 19.652344 21.472656 18.671875 21.324219 17.988281 21.246094 C 17.511719 21.191406 16.1875 21.433594 16.128906 21.761719 C 16.039062 22.289062 17.191406 22.578125 17.71875 22.710938 C 18.554688 22.925781 19.804688 23.144531 21.199219 23.34375 L 26.582031 28.15625 L 27.59375 28.140625 L 23.957031 23.710938 C 26.246094 23.988281 28.460938 24.210938 29.558594 24.316406 L 30.75 25.207031 " fill-opacity="1" fill-rule="nonzero"/><path fill="#776e42" d="M 18.933594 22.148438 C 18.9375 22.238281 18.871094 22.3125 18.78125 22.3125 C 18.695312 22.316406 18.621094 22.25 18.617188 22.164062 C 18.613281 22.074219 18.679688 22 18.769531 21.996094 C 18.855469 21.996094 18.929688 22.0625 18.933594 22.148438 " fill-opacity="1" fill-rule="nonzero"/><path fill="#776e42" d="M 19.574219 22.25 C 19.578125 22.339844 19.511719 22.414062 19.421875 22.414062 C 19.335938 22.417969 19.261719 22.351562 19.257812 22.265625 C 19.253906 22.175781 19.320312 22.101562 19.410156 22.097656 C 19.496094 22.097656 19.570312 22.164062 19.574219 22.25 " fill-opacity="1" fill-rule="nonzero"/><path fill="#776e42" d="M 20.214844 22.351562 C 20.21875 22.441406 20.152344 22.511719 20.0625 22.515625 C 19.976562 22.519531 19.902344 22.453125 19.898438 22.367188 C 19.894531 22.277344 19.960938 22.203125 20.050781 22.199219 C 20.136719 22.199219 20.210938 22.265625 20.214844 22.351562 " fill-opacity="1" fill-rule="nonzero"/><path fill="#776e42" d="M 20.855469 22.453125 C 20.859375 22.542969 20.789062 22.613281 20.703125 22.617188 C 20.617188 22.621094 20.542969 22.554688 20.539062 22.464844 C 20.535156 22.378906 20.601562 22.304688 20.691406 22.300781 C 20.777344 22.300781 20.851562 22.367188 20.855469 22.453125 " fill-opacity="1" fill-rule="nonzero"/><path fill="#776e42" d="M 21.496094 22.554688 C 21.5 22.644531 21.429688 22.714844 21.34375 22.71875 C 21.257812 22.722656 21.183594 22.65625 21.179688 22.566406 C 21.175781 22.480469 21.242188 22.40625 21.332031 22.402344 C 21.417969 22.398438 21.492188 22.46875 21.496094 22.554688 " fill-opacity="1" fill-rule="nonzero"/><path fill="#776e42" d="M 22.136719 22.65625 C 22.140625 22.742188 22.070312 22.816406 21.984375 22.820312 C 21.898438 22.824219 21.824219 22.757812 21.820312 22.667969 C 21.816406 22.582031 21.882812 22.507812 21.972656 22.503906 C 22.058594 22.5 22.132812 22.570312 22.136719 22.65625 " fill-opacity="1" fill-rule="nonzero"/><path fill="#776e42" d="M 22.777344 22.757812 C 22.78125 22.84375 22.710938 22.917969 22.625 22.921875 C 22.535156 22.925781 22.464844 22.859375 22.460938 22.769531 C 22.457031 22.683594 22.523438 22.609375 22.613281 22.605469 C 22.699219 22.601562 22.773438 22.671875 22.777344 22.757812 " fill-opacity="1" fill-rule="nonzero"/><path fill="#776e42" d="M 23.417969 22.859375 C 23.421875 22.945312 23.351562 23.019531 23.265625 23.023438 C 23.175781 23.027344 23.101562 22.960938 23.101562 22.871094 C 23.097656 22.785156 23.164062 22.710938 23.253906 22.707031 C 23.339844 22.703125 23.414062 22.773438 23.417969 22.859375 " fill-opacity="1" fill-rule="nonzero"/><path fill="#776e42" d="M 24.058594 22.960938 C 24.0625 23.046875 23.992188 23.121094 23.90625 23.125 C 23.816406 23.128906 23.742188 23.0625 23.742188 22.972656 C 23.738281 22.886719 23.804688 22.8125 23.894531 22.808594 C 23.980469 22.804688 24.054688 22.875 24.058594 22.960938 " fill-opacity="1" fill-rule="nonzero"/><path fill="#776e42" d="M 24.699219 23.0625 C 24.703125 23.148438 24.632812 23.222656 24.546875 23.226562 C 24.457031 23.230469 24.382812 23.164062 24.382812 23.074219 C 24.378906 22.988281 24.445312 22.914062 24.535156 22.910156 C 24.621094 22.90625 24.695312 22.976562 24.699219 23.0625 " fill-opacity="1" fill-rule="nonzero"/><path fill="#776e42" d="M 25.339844 23.164062 C 25.34375 23.25 25.273438 23.324219 25.1875 23.328125 C 25.097656 23.332031 25.023438 23.265625 25.019531 23.175781 C 25.019531 23.089844 25.085938 23.015625 25.171875 23.011719 C 25.261719 23.007812 25.335938 23.078125 25.339844 23.164062 " fill-opacity="1" fill-rule="nonzero"/><path fill="#776e42" d="M 25.980469 23.265625 C 25.984375 23.351562 25.914062 23.425781 25.828125 23.429688 C 25.738281 23.433594 25.664062 23.363281 25.660156 23.277344 C 25.65625 23.191406 25.726562 23.117188 25.8125 23.113281 C 25.902344 23.109375 25.976562 23.179688 25.980469 23.265625 " fill-opacity="1" fill-rule="nonzero"/><path fill="#363e44" d="M 14.675781 24.4375 C 14.675781 26.15625 13.152344 27.550781 11.273438 27.550781 C 9.390625 27.550781 7.867188 26.15625 7.867188 24.4375 C 7.867188 22.71875 9.390625 21.324219 11.273438 21.324219 C 13.152344 21.324219 14.675781 22.71875 14.675781 24.4375 " fill-opacity="1" fill-rule="nonzero"/><path fill="#bc8271" d="M 12.621094 31.09375 L 10.023438 31.09375 L 10.023438 27.144531 L 12.621094 27.144531 L 12.621094 31.09375 " fill-opacity="1" fill-rule="nonzero"/><path fill="#bc8271" d="M 14.046875 25.632812 C 14.046875 27.386719 12.828125 28.808594 11.324219 28.808594 C 9.820312 28.808594 8.601562 27.386719 8.601562 25.632812 C 8.601562 23.878906 9.820312 22.460938 11.324219 22.460938 C 12.828125 22.460938 14.046875 23.878906 14.046875 25.632812 " fill-opacity="1" fill-rule="nonzero"/><path fill="#363e44" d="M 12.378906 23.089844 L 12.753906 24.222656 L 14.027344 24.222656 C 14.023438 22.734375 12.8125 21.53125 11.316406 21.53125 C 9.824219 21.53125 8.613281 22.734375 8.609375 24.222656 L 12.046875 24.222656 L 12.378906 23.089844 " fill-opacity="1" fill-rule="nonzero"/><path fill="#bc8271" d="M 9.09375 25.570312 C 9.339844 26.109375 9.242188 26.679688 8.878906 26.84375 C 8.519531 27.007812 8.023438 26.707031 7.777344 26.167969 C 7.53125 25.632812 7.628906 25.0625 7.992188 24.898438 C 8.351562 24.734375 8.847656 25.035156 9.09375 25.570312 " fill-opacity="1" fill-rule="nonzero"/><path fill="#363e44" d="M 8.253906 26.324219 C 8.246094 26.324219 8.238281 26.320312 8.234375 26.316406 C 8.148438 26.242188 8.074219 26.144531 8.023438 26.03125 C 7.957031 25.886719 7.929688 25.730469 7.953125 25.59375 C 7.976562 25.449219 8.050781 25.34375 8.15625 25.296875 C 8.234375 25.261719 8.328125 25.261719 8.421875 25.296875 C 8.441406 25.304688 8.449219 25.324219 8.441406 25.339844 C 8.4375 25.359375 8.414062 25.367188 8.398438 25.359375 C 8.320312 25.332031 8.246094 25.332031 8.183594 25.359375 C 8.101562 25.398438 8.042969 25.484375 8.023438 25.605469 C 8.003906 25.726562 8.027344 25.867188 8.085938 26.003906 C 8.132812 26.105469 8.199219 26.195312 8.277344 26.261719 C 8.292969 26.273438 8.296875 26.296875 8.28125 26.3125 C 8.277344 26.320312 8.265625 26.324219 8.253906 26.324219 " fill-opacity="1" fill-rule="nonzero"/><path fill="#363e44" d="M 11.328125 28.890625 C 10.871094 28.890625 10.410156 28.761719 10.007812 28.515625 C 9.988281 28.507812 9.984375 28.484375 9.996094 28.46875 C 10.003906 28.453125 10.027344 28.445312 10.042969 28.457031 C 10.441406 28.699219 10.875 28.820312 11.328125 28.820312 C 11.78125 28.820312 12.210938 28.699219 12.609375 28.460938 C 12.625 28.449219 12.648438 28.457031 12.65625 28.472656 C 12.667969 28.488281 12.664062 28.511719 12.644531 28.519531 C 12.234375 28.765625 11.792969 28.890625 11.328125 28.890625 " fill-opacity="1" fill-rule="nonzero"/><path fill="#bc8271" d="M 13.601562 25.570312 C 13.359375 26.109375 13.453125 26.679688 13.816406 26.84375 C 14.175781 27.007812 14.671875 26.707031 14.917969 26.167969 C 15.164062 25.632812 15.066406 25.0625 14.707031 24.898438 C 14.34375 24.734375 13.847656 25.035156 13.601562 25.570312 " fill-opacity="1" fill-rule="nonzero"/><path fill="#363e44" d="M 14.402344 26.324219 C 14.394531 26.324219 14.382812 26.320312 14.375 26.3125 C 14.363281 26.296875 14.367188 26.273438 14.378906 26.261719 C 14.457031 26.195312 14.523438 26.105469 14.570312 26.003906 C 14.695312 25.730469 14.652344 25.441406 14.472656 25.359375 C 14.410156 25.332031 14.339844 25.332031 14.261719 25.359375 C 14.242188 25.367188 14.222656 25.359375 14.214844 25.339844 C 14.210938 25.324219 14.21875 25.304688 14.238281 25.296875 C 14.332031 25.261719 14.421875 25.261719 14.503906 25.296875 C 14.71875 25.394531 14.777344 25.722656 14.636719 26.03125 C 14.585938 26.144531 14.511719 26.242188 14.425781 26.316406 C 14.417969 26.320312 14.410156 26.324219 14.402344 26.324219 " fill-opacity="1" fill-rule="nonzero"/><path fill="#363e44" d="M 13.863281 26.832031 C 13.859375 26.832031 13.855469 26.832031 13.851562 26.828125 C 13.835938 26.824219 13.824219 26.804688 13.832031 26.785156 C 13.953125 26.414062 14.015625 26.023438 14.015625 25.625 C 14.015625 25.453125 14.003906 25.28125 13.980469 25.117188 C 13.976562 25.097656 13.992188 25.078125 14.011719 25.078125 C 14.03125 25.074219 14.046875 25.085938 14.050781 25.105469 C 14.074219 25.277344 14.085938 25.449219 14.085938 25.625 C 14.085938 26.03125 14.023438 26.429688 13.898438 26.804688 C 13.894531 26.820312 13.878906 26.832031 13.863281 26.832031 " fill-opacity="1" fill-rule="nonzero"/><path fill="#363e44" d="M 8.785156 26.816406 C 8.769531 26.816406 8.757812 26.808594 8.75 26.792969 C 8.628906 26.425781 8.566406 26.035156 8.566406 25.632812 C 8.566406 25.4375 8.582031 25.238281 8.613281 25.042969 C 8.617188 25.023438 8.632812 25.011719 8.652344 25.015625 C 8.671875 25.019531 8.683594 25.035156 8.683594 25.054688 C 8.652344 25.246094 8.636719 25.441406 8.636719 25.632812 C 8.636719 26.027344 8.699219 26.410156 8.816406 26.769531 C 8.824219 26.789062 8.8125 26.808594 8.796875 26.816406 C 8.792969 26.816406 8.789062 26.816406 8.785156 26.816406 " fill-opacity="1" fill-rule="nonzero"/><path fill="#ffffff" d="M 10.742188 25.824219 C 10.742188 25.824219 10.183594 26.132812 9.699219 25.953125 C 9.214844 25.773438 8.988281 25.179688 8.988281 25.179688 C 8.988281 25.179688 9.179688 25.078125 9.4375 25.027344 C 9.617188 24.988281 9.859375 25.453125 9.859375 25.453125 C 9.859375 25.453125 10.417969 25.304688 10.535156 25.460938 C 10.675781 25.652344 10.742188 25.824219 10.742188 25.824219 " fill-opacity="1" fill-rule="nonzero"/><path fill="#363e44" d="M 10.503906 25.574219 C 10.519531 25.539062 10.527344 25.496094 10.535156 25.457031 C 10.417969 25.300781 10.253906 25.132812 10.03125 25.054688 C 9.832031 24.980469 9.617188 24.988281 9.4375 25.027344 C 9.410156 25.066406 9.386719 25.109375 9.367188 25.15625 C 9.253906 25.46875 9.414062 25.816406 9.726562 25.933594 C 10.039062 26.046875 10.390625 25.886719 10.503906 25.574219 " fill-opacity="1" fill-rule="nonzero"/><path fill="#363e44" d="M 11.378906 26.808594 C 11.367188 26.808594 11.355469 26.804688 11.347656 26.792969 C 11.339844 26.777344 11.34375 26.757812 11.359375 26.746094 C 11.449219 26.6875 11.503906 26.621094 11.523438 26.546875 C 11.542969 26.46875 11.511719 26.40625 11.476562 26.320312 C 11.445312 26.253906 11.410156 26.175781 11.390625 26.074219 C 11.367188 25.949219 11.371094 25.8125 11.40625 25.671875 C 11.410156 25.652344 11.429688 25.640625 11.449219 25.644531 C 11.46875 25.648438 11.480469 25.667969 11.472656 25.6875 C 11.441406 25.816406 11.4375 25.945312 11.460938 26.0625 C 11.480469 26.15625 11.511719 26.226562 11.539062 26.292969 C 11.578125 26.382812 11.613281 26.464844 11.589844 26.5625 C 11.570312 26.65625 11.503906 26.738281 11.398438 26.804688 C 11.390625 26.808594 11.386719 26.808594 11.378906 26.808594 " fill-opacity="1" fill-rule="nonzero"/><path fill="#363e44" d="M 11.050781 27.378906 C 10.945312 27.378906 10.835938 27.347656 10.75 27.28125 C 10.664062 27.214844 10.609375 27.117188 10.605469 27.015625 C 10.605469 26.996094 10.621094 26.980469 10.640625 26.980469 C 10.660156 26.976562 10.675781 26.992188 10.675781 27.011719 C 10.679688 27.09375 10.722656 27.171875 10.792969 27.226562 C 10.925781 27.328125 11.136719 27.339844 11.265625 27.246094 C 11.28125 27.238281 11.300781 27.238281 11.3125 27.257812 C 11.324219 27.273438 11.320312 27.292969 11.304688 27.304688 C 11.234375 27.355469 11.144531 27.378906 11.050781 27.378906 " fill-opacity="1" fill-rule="nonzero"/><path fill="#bc8271" d="M 13.402344 30.996094 C 13.402344 31.53125 12.460938 31.96875 11.296875 31.96875 C 10.136719 31.96875 9.191406 31.53125 9.191406 30.996094 C 9.191406 30.457031 10.136719 30.023438 11.296875 30.023438 C 12.460938 30.023438 13.402344 30.457031 13.402344 30.996094 " fill-opacity="1" fill-rule="nonzero"/><path fill="#ffffff" d="M 11.832031 25.816406 C 11.832031 25.816406 12.390625 26.128906 12.875 25.957031 C 13.363281 25.785156 13.597656 25.191406 13.597656 25.191406 C 13.597656 25.191406 13.453125 25.109375 13.246094 25.054688 C 13.046875 25 12.742188 25.441406 12.742188 25.441406 C 12.742188 25.441406 12.21875 25.242188 12.105469 25.375 C 11.921875 25.589844 11.832031 25.816406 11.832031 25.816406 " fill-opacity="1" fill-rule="nonzero"/><path fill="#363e44" d="M 13.28125 25.128906 C 13.269531 25.101562 13.257812 25.078125 13.246094 25.054688 C 13.050781 25 12.792969 24.96875 12.554688 25.050781 C 12.367188 25.117188 12.21875 25.246094 12.105469 25.375 C 12.109375 25.429688 12.121094 25.480469 12.136719 25.53125 C 12.25 25.84375 12.597656 26.011719 12.910156 25.898438 C 13.226562 25.789062 13.390625 25.441406 13.28125 25.128906 " fill-opacity="1" fill-rule="nonzero"/><path fill="#363e44" d="M 7.859375 23.0625 C 7.855469 23.0625 7.847656 23.0625 7.84375 23.058594 C 7.828125 23.050781 7.816406 23.03125 7.824219 23.015625 C 8.199219 22.011719 9.015625 21.328125 9.949219 21.222656 C 10.570312 21.15625 11.089844 21.363281 11.414062 21.550781 C 11.429688 21.558594 11.4375 21.578125 11.425781 21.597656 C 11.417969 21.613281 11.394531 21.621094 11.378906 21.609375 C 11.0625 21.429688 10.558594 21.226562 9.957031 21.292969 C 9.046875 21.394531 8.257812 22.0625 7.890625 23.039062 C 7.886719 23.054688 7.871094 23.0625 7.859375 23.0625 " fill-opacity="1" fill-rule="nonzero"/><path fill="#363e44" d="M 9.84375 22.460938 C 9.835938 22.460938 9.832031 22.457031 9.824219 22.457031 C 9.808594 22.445312 9.800781 22.425781 9.8125 22.40625 C 9.996094 22.082031 10.339844 21.644531 10.914062 21.390625 C 11.769531 21.007812 12.820312 21.191406 13.652344 21.867188 C 13.667969 21.878906 13.667969 21.902344 13.65625 21.917969 C 13.644531 21.933594 13.621094 21.933594 13.609375 21.921875 C 12.796875 21.261719 11.777344 21.085938 10.941406 21.453125 C 10.386719 21.699219 10.054688 22.125 9.871094 22.441406 C 9.867188 22.453125 9.855469 22.460938 9.84375 22.460938 " fill-opacity="1" fill-rule="nonzero"/><path fill="#ffd092" d="M 23.257812 55.890625 L 18.679688 55.890625 L 18.679688 51.328125 L 23.257812 51.328125 L 23.257812 55.890625 " fill-opacity="1" fill-rule="nonzero"/><path fill="#d87355" d="M 20.332031 60.453125 L 15.753906 60.453125 L 15.753906 55.890625 L 20.332031 55.890625 L 20.332031 60.453125 " fill-opacity="1" fill-rule="nonzero"/><path fill="#8b865c" d="M 26.183594 60.453125 L 21.601562 60.453125 L 21.601562 55.890625 L 26.183594 55.890625 L 26.183594 60.453125 " fill-opacity="1" fill-rule="nonzero"/><path fill="#363e44" d="M 14.5625 53.609375 C 14.5625 53.609375 14.582031 48.332031 16.382812 48.332031 C 18.179688 48.332031 18.375 53.402344 18.375 53.402344 C 18.375 53.402344 16.746094 54.480469 14.5625 53.609375 " fill-opacity="1" fill-rule="nonzero"/><path fill="#e2a18d" d="M 17.054688 49.871094 C 17.054688 50.460938 16.753906 50.941406 16.382812 50.941406 C 16.011719 50.941406 15.710938 50.460938 15.710938 49.871094 C 15.710938 49.28125 16.300781 49.007812 16.300781 49.007812 C 16.300781 49.007812 17.054688 49.28125 17.054688 49.871094 " fill-opacity="1" fill-rule="nonzero"/><path fill="#d87355" d="M 9.378906 62.816406 C 9.433594 63.015625 9.941406 63.050781 10.515625 62.894531 C 11.089844 62.742188 11.511719 62.453125 11.457031 62.257812 C 11.40625 62.058594 10.894531 62.023438 10.320312 62.175781 C 9.746094 62.332031 9.324219 62.617188 9.378906 62.816406 " fill-opacity="1" fill-rule="nonzero"/><path fill="#e2a18d" d="M 14.742188 57.664062 L 13.398438 59.300781 C 13.398438 59.300781 13.324219 60.832031 11.457031 62.257812 L 10.199219 62.535156 L 11.011719 62.066406 L 12.566406 59.027344 L 13.4375 56.96875 L 14.742188 57.664062 " fill-opacity="1" fill-rule="nonzero"/><path fill="#d87355" d="M 6.5 59.601562 C 6.464844 59.804688 6.914062 60.046875 7.503906 60.144531 C 8.089844 60.242188 8.59375 60.15625 8.625 59.953125 C 8.660156 59.75 8.210938 59.507812 7.625 59.410156 C 7.035156 59.316406 6.535156 59.402344 6.5 59.601562 " fill-opacity="1" fill-rule="nonzero"/><path fill="#e2a18d" d="M 13.523438 57.128906 L 11.621094 58.0625 C 11.621094 58.0625 10.914062 59.425781 8.625 59.953125 L 7.363281 59.6875 L 8.296875 59.597656 L 10.976562 57.46875 L 12.625 55.957031 L 13.523438 57.128906 " fill-opacity="1" fill-rule="nonzero"/><path fill="#e2a18d" d="M 17.496094 52.226562 C 17.496094 52.226562 17.859375 52.277344 17.933594 52.554688 C 18.003906 52.832031 18.171875 54.753906 18.171875 54.753906 L 17.609375 57.148438 L 17.113281 57.054688 L 17.640625 54.6875 L 17.175781 52.9375 L 17.496094 52.226562 " fill-opacity="1" fill-rule="nonzero"/><path fill="#e2a18d" d="M 15.839844 51.945312 C 15.839844 51.945312 15.808594 52.308594 15.53125 52.394531 C 15.257812 52.480469 13.339844 52.746094 13.339844 52.746094 L 10.914062 52.3125 L 10.980469 51.8125 L 13.382812 52.214844 L 15.109375 51.660156 L 15.839844 51.945312 " fill-opacity="1" fill-rule="nonzero"/><path fill="#ffffff" d="M 14.867188 51.457031 L 17.726562 52.097656 L 16.503906 54.617188 C 16.503906 54.617188 18.292969 55.910156 15.777344 58.867188 C 15.777344 58.867188 12.214844 58.273438 10.929688 55.910156 C 10.929688 55.910156 12.253906 54.285156 15.074219 54.242188 L 14.867188 51.457031 " fill-opacity="1" fill-rule="nonzero"/><path fill="#e2a18d" d="M 17.09375 52.234375 C 17.054688 52.390625 16.628906 52.421875 16.140625 52.308594 C 15.652344 52.195312 15.289062 51.976562 15.324219 51.820312 C 15.359375 51.667969 15.785156 51.632812 16.273438 51.746094 C 16.761719 51.859375 17.128906 52.078125 17.09375 52.234375 " fill-opacity="1" fill-rule="nonzero"/><path fill="#e2a18d" d="M 15.824219 51.855469 L 16.207031 50.6875 L 16.777344 50.507812 L 16.625 52.027344 L 15.824219 51.855469 " fill-opacity="1" fill-rule="nonzero"/><path fill="#e2a18d" d="M 11.617188 52.246094 C 11.542969 52.4375 11.109375 52.445312 10.652344 52.261719 C 10.195312 52.078125 9.886719 51.777344 9.964844 51.585938 C 10.042969 51.394531 10.472656 51.386719 10.929688 51.570312 C 11.386719 51.753906 11.695312 52.054688 11.617188 52.246094 " fill-opacity="1" fill-rule="nonzero"/><path fill="#e2a18d" d="M 16.277344 57.984375 C 16.140625 57.828125 16.332031 57.441406 16.703125 57.121094 C 17.074219 56.796875 17.484375 56.660156 17.617188 56.816406 C 17.753906 56.972656 17.5625 57.359375 17.191406 57.679688 C 16.824219 58.003906 16.410156 58.136719 16.277344 57.984375 " fill-opacity="1" fill-rule="nonzero"/><path fill="#d87355" d="M 45.238281 61.449219 L 43.898438 56.039062 L 41.414062 56.652344 L 42.140625 59.585938 C 42.480469 60.953125 43.867188 61.789062 45.238281 61.449219 " fill-opacity="1" fill-rule="nonzero"/><path fill="#ffffff" d="M 42.265625 60.054688 C 42.257812 60.054688 42.25 60.054688 42.246094 60.050781 C 42.230469 60.039062 42.222656 60.019531 42.234375 60.003906 L 42.59375 59.40625 C 42.605469 59.390625 42.625 59.386719 42.644531 59.394531 C 42.660156 59.40625 42.664062 59.425781 42.65625 59.441406 L 42.292969 60.039062 C 42.289062 60.050781 42.277344 60.054688 42.265625 60.054688 " fill-opacity="1" fill-rule="nonzero"/><path fill="#ffffff" d="M 42.5625 60.558594 C 42.554688 60.558594 42.550781 60.554688 42.542969 60.554688 C 42.527344 60.542969 42.523438 60.519531 42.53125 60.503906 L 42.894531 59.910156 C 42.902344 59.894531 42.925781 59.886719 42.941406 59.898438 C 42.957031 59.90625 42.964844 59.929688 42.953125 59.945312 L 42.59375 60.539062 C 42.585938 60.550781 42.574219 60.558594 42.5625 60.558594 " fill-opacity="1" fill-rule="nonzero"/><path fill="#e2a18d" d="M 35.925781 60.109375 L 40.089844 59.167969 L 39.34375 55.78125 L 35.144531 56.703125 L 35.925781 60.109375 " fill-opacity="1" fill-rule="nonzero"/><path fill="#e2a18d" d="M 34.757812 59.871094 C 35.683594 60.667969 37.886719 59.632812 39.679688 57.566406 C 41.476562 55.496094 42.183594 53.175781 41.261719 52.378906 C 40.339844 51.582031 38.132812 52.617188 36.339844 54.6875 C 34.542969 56.753906 33.835938 59.078125 34.757812 59.871094 " fill-opacity="1" fill-rule="nonzero"/><path fill="#ffffff" d="M 39.457031 58.835938 C 39.457031 58.835938 43.550781 54.769531 43.273438 51.824219 C 43.0625 49.625 40.433594 47.96875 40.433594 47.96875 L 34.394531 55.210938 L 39.457031 58.835938 " fill-opacity="1" fill-rule="nonzero"/><path fill="#e2a18d" d="M 38.671875 60.261719 L 45.734375 58.679688 L 44.988281 55.292969 L 37.867188 56.855469 L 38.671875 60.261719 " fill-opacity="1" fill-rule="nonzero"/><path fill="#e2a18d" d="M 37.832031 60.15625 C 38.894531 60.753906 40.851562 59.308594 42.203125 56.925781 C 43.550781 54.542969 43.785156 52.128906 42.722656 51.53125 C 41.664062 50.933594 39.707031 52.378906 38.355469 54.757812 C 37.003906 57.140625 36.769531 59.554688 37.832031 60.15625 " fill-opacity="1" fill-rule="nonzero"/><path fill="#363e44" d="M 37.429688 59.78125 C 37.414062 59.78125 37.402344 59.773438 37.398438 59.765625 C 36.910156 58.933594 37.105469 57.289062 37.898438 55.570312 C 37.90625 55.550781 37.929688 55.542969 37.945312 55.550781 C 37.964844 55.558594 37.972656 55.582031 37.964844 55.597656 C 37.179688 57.296875 36.980469 58.917969 37.457031 59.730469 C 37.46875 59.746094 37.460938 59.765625 37.445312 59.777344 C 37.441406 59.78125 37.433594 59.78125 37.429688 59.78125 " fill-opacity="1" fill-rule="nonzero"/><path fill="#363e44" d="M 37.933594 55.617188 C 37.925781 55.617188 37.921875 55.617188 37.917969 55.617188 C 37.898438 55.609375 37.890625 55.585938 37.898438 55.570312 C 38.027344 55.292969 38.171875 55.015625 38.324219 54.742188 C 38.980469 53.585938 39.796875 52.613281 40.628906 52 C 41.464844 51.382812 42.214844 51.203125 42.742188 51.5 C 43.53125 51.945312 43.648438 53.386719 43.035156 55.171875 C 43.03125 55.191406 43.007812 55.203125 42.992188 55.195312 C 42.972656 55.191406 42.964844 55.167969 42.96875 55.152344 C 43.570312 53.398438 43.464844 51.988281 42.707031 51.5625 C 42.207031 51.28125 41.480469 51.453125 40.667969 52.054688 C 39.847656 52.664062 39.035156 53.628906 38.386719 54.777344 C 38.234375 55.046875 38.089844 55.324219 37.964844 55.597656 C 37.957031 55.609375 37.945312 55.617188 37.933594 55.617188 " fill-opacity="1" fill-rule="nonzero"/><path fill="#363e44" d="M 40.453125 59.238281 C 40.445312 59.238281 40.433594 59.234375 40.429688 59.226562 C 40.414062 59.210938 40.414062 59.1875 40.429688 59.175781 C 41.066406 58.578125 41.667969 57.796875 42.171875 56.910156 C 42.5 56.328125 42.769531 55.738281 42.96875 55.152344 C 42.976562 55.132812 42.996094 55.121094 43.015625 55.128906 C 43.03125 55.136719 43.042969 55.15625 43.035156 55.171875 C 42.832031 55.765625 42.5625 56.359375 42.230469 56.941406 C 41.726562 57.835938 41.117188 58.625 40.476562 59.226562 C 40.472656 59.234375 40.460938 59.238281 40.453125 59.238281 " fill-opacity="1" fill-rule="nonzero"/><path fill="#ffffff" d="M 42.234375 58.214844 C 42.234375 58.214844 45.445312 53.421875 44.585938 50.59375 C 43.945312 48.476562 41.042969 47.371094 41.042969 47.371094 L 37.191406 55.945312 L 42.234375 58.214844 " fill-opacity="1" fill-rule="nonzero"/><path fill="#d87355" d="M 48.488281 60.167969 L 47.144531 54.757812 L 44.660156 55.367188 L 45.386719 58.300781 C 45.726562 59.667969 47.113281 60.503906 48.488281 60.167969 " fill-opacity="1" fill-rule="nonzero"/><path fill="#ffffff" d="M 45.511719 58.773438 C 45.507812 58.773438 45.5 58.769531 45.496094 58.765625 C 45.476562 58.757812 45.472656 58.734375 45.484375 58.71875 L 45.84375 58.125 C 45.855469 58.105469 45.875 58.101562 45.890625 58.109375 C 45.910156 58.121094 45.914062 58.144531 45.902344 58.160156 L 45.542969 58.753906 C 45.535156 58.765625 45.523438 58.773438 45.511719 58.773438 " fill-opacity="1" fill-rule="nonzero"/><path fill="#ffffff" d="M 45.8125 59.273438 C 45.804688 59.273438 45.796875 59.273438 45.792969 59.269531 C 45.777344 59.257812 45.769531 59.238281 45.78125 59.222656 L 46.140625 58.625 C 46.152344 58.609375 46.171875 58.605469 46.191406 58.613281 C 46.207031 58.625 46.210938 58.644531 46.203125 58.660156 L 45.839844 59.257812 C 45.835938 59.269531 45.824219 59.273438 45.8125 59.273438 " fill-opacity="1" fill-rule="nonzero"/><path fill="#e2a18d" d="M 28.90625 52.699219 C 25.792969 53.128906 24.085938 53.410156 23.402344 53.496094 C 23.328125 53.507812 23.203125 53.523438 23.039062 53.5 C 22.433594 53.410156 22.285156 52.914062 21.6875 52.53125 C 21.011719 52.09375 20.386719 52.230469 20.359375 52.03125 C 20.339844 51.886719 20.5625 51.769531 21.066406 51.714844 C 20.679688 51.710938 20.152344 51.6875 20.15625 51.476562 C 20.167969 51.230469 20.789062 51.183594 21.167969 51.175781 C 20.710938 51.1875 20.464844 51.054688 20.496094 50.9375 C 20.542969 50.75 20.894531 50.660156 21.5 50.667969 C 21.085938 50.546875 21 50.453125 21.054688 50.355469 C 21.148438 50.175781 21.644531 50.195312 22.082031 50.277344 C 22.574219 50.367188 22.921875 50.609375 23.140625 50.769531 C 25.285156 50.242188 27.765625 49.917969 27.765625 49.917969 C 28.257812 49.496094 30.960938 47.179688 31.179688 47.203125 C 32.320312 47.320312 32.761719 49.546875 32.851562 50.117188 C 32.902344 50.445312 28.90625 52.699219 28.90625 52.699219 " fill-opacity="1" fill-rule="nonzero"/><path fill="#e2a18d" d="M 22.316406 52.753906 C 21.539062 52.914062 21.289062 53.132812 21.320312 53.257812 C 21.367188 53.460938 22.089844 53.597656 23.257812 53.507812 C 23.015625 53.277344 22.558594 52.988281 22.316406 52.753906 " fill-opacity="1" fill-rule="nonzero"/><path fill="#363e44" d="M 22.667969 53.375 C 22.660156 53.375 22.652344 53.375 22.648438 53.371094 C 22.496094 53.277344 22.371094 53.148438 22.242188 53.015625 C 22.179688 52.953125 22.117188 52.886719 22.046875 52.824219 C 22.035156 52.808594 22.03125 52.785156 22.046875 52.773438 C 22.058594 52.757812 22.082031 52.757812 22.09375 52.773438 C 22.164062 52.835938 22.230469 52.902344 22.292969 52.964844 C 22.421875 53.097656 22.542969 53.222656 22.6875 53.3125 C 22.703125 53.320312 22.707031 53.34375 22.695312 53.359375 C 22.691406 53.371094 22.679688 53.375 22.667969 53.375 " fill-opacity="1" fill-rule="nonzero"/><path fill="#d87355" d="M 31.03125 46.144531 L 28.480469 48.667969 L 31.632812 51.773438 L 32.042969 51.355469 C 33.488281 53.320312 35.808594 53.949219 35.808594 53.949219 L 41.042969 47.371094 C 32.957031 41.832031 31.648438 45.375 31.03125 46.144531 " fill-opacity="1" fill-rule="nonzero"/><path fill="#e2a18d" d="M 30.65625 60.15625 C 30.257812 60.839844 29.96875 61.003906 29.859375 60.9375 C 29.679688 60.824219 29.78125 60.101562 30.238281 59.027344 C 30.382812 59.328125 30.511719 59.851562 30.65625 60.15625 " fill-opacity="1" fill-rule="nonzero"/><path fill="#e2a18d" d="M 32.902344 54.082031 C 31.503906 56.882812 30.59375 58.273438 30.292969 58.894531 C 30.261719 58.957031 30.207031 59.074219 30.175781 59.234375 C 30.070312 59.835938 30.496094 60.136719 30.667969 60.820312 C 30.867188 61.597656 30.539062 62.144531 30.722656 62.234375 C 30.851562 62.296875 31.035156 62.125 31.25 61.667969 C 31.125 62.035156 30.980469 62.539062 31.183594 62.605469 C 31.425781 62.667969 31.664062 62.097656 31.792969 61.742188 C 31.636719 62.171875 31.683594 62.445312 31.804688 62.453125 C 32 62.46875 32.195312 62.164062 32.378906 61.589844 C 32.363281 62.023438 32.425781 62.128906 32.535156 62.109375 C 32.738281 62.078125 32.878906 61.601562 32.9375 61.164062 C 33.007812 60.671875 32.886719 60.265625 32.808594 60.011719 C 33.992188 58.148438 36.011719 54.980469 36.011719 54.980469 L 36.476562 51.328125 L 33.207031 51.328125 L 32.902344 54.082031 " fill-opacity="1" fill-rule="nonzero"/><path fill="#363e44" d="M 30.539062 60.40625 C 30.523438 60.40625 30.511719 60.398438 30.503906 60.386719 C 30.464844 60.300781 30.425781 60.222656 30.382812 60.144531 C 30.296875 59.976562 30.21875 59.816406 30.175781 59.644531 C 30.171875 59.625 30.183594 59.609375 30.203125 59.605469 C 30.222656 59.597656 30.238281 59.609375 30.246094 59.628906 C 30.285156 59.792969 30.363281 59.949219 30.445312 60.113281 C 30.488281 60.191406 30.527344 60.269531 30.570312 60.359375 C 30.578125 60.375 30.570312 60.398438 30.550781 60.40625 C 30.546875 60.40625 30.542969 60.40625 30.539062 60.40625 " fill-opacity="1" fill-rule="nonzero"/><path fill="#e2a18d" d="M 29.332031 45.792969 C 30.511719 46.433594 33.175781 44.882812 33.175781 44.882812 L 34.070312 42.253906 C 34.804688 40.09375 33.109375 37.835938 30.828125 38.015625 C 30.78125 38.019531 30.734375 38.023438 30.6875 38.027344 C 28.808594 38.25 27.46875 39.949219 27.695312 41.820312 C 27.695312 41.820312 28.128906 45.140625 29.332031 45.792969 " fill-opacity="1" fill-rule="nonzero"/><path fill="#e2a18d" d="M 33.816406 46.734375 L 33.777344 46.761719 C 33.15625 47.171875 32.316406 46.976562 31.945312 46.335938 L 29.558594 42.257812 C 29.207031 41.652344 29.402344 40.875 30.003906 40.507812 C 30.617188 40.132812 31.421875 40.328125 31.792969 40.949219 L 34.214844 45 C 34.566406 45.589844 34.390625 46.355469 33.816406 46.734375 " fill-opacity="1" fill-rule="nonzero"/><path fill="#363e44" d="M 31.492188 45.636719 C 31.480469 45.636719 31.46875 45.632812 31.460938 45.617188 C 31.453125 45.601562 31.460938 45.578125 31.480469 45.570312 C 31.949219 45.351562 32.28125 45.160156 32.28125 45.160156 C 32.300781 45.148438 32.320312 45.15625 32.332031 45.171875 C 32.339844 45.1875 32.335938 45.210938 32.316406 45.21875 C 32.316406 45.222656 31.984375 45.414062 31.507812 45.636719 C 31.503906 45.636719 31.5 45.636719 31.492188 45.636719 " fill-opacity="1" fill-rule="nonzero"/><path fill="#e2a18d" d="M 28.144531 42.828125 C 28.144531 42.828125 27.449219 43.75 27.519531 43.964844 C 27.601562 44.21875 28.503906 44.273438 28.503906 44.273438 C 28.503906 44.273438 28.125 42.835938 28.144531 42.828125 " fill-opacity="1" fill-rule="nonzero"/><path fill="#ffffff" d="M 31.074219 42.210938 C 31.074219 42.210938 30.535156 42.003906 29.925781 42.074219 C 29.792969 42.089844 30.164062 43.09375 30.28125 43.023438 C 30.789062 42.699219 31.074219 42.210938 31.074219 42.210938 " fill-opacity="1" fill-rule="nonzero"/><path fill="#373e44" d="M 29.53125 42.164062 C 29.660156 42.117188 29.792969 42.089844 29.921875 42.074219 C 30.207031 42.316406 30.332031 42.675781 30.28125 43.023438 C 30.164062 43.09375 30.035156 43.160156 29.894531 43.207031 C 29.144531 43.46875 28.355469 43.160156 28.355469 43.160156 C 28.355469 43.160156 28.78125 42.425781 29.53125 42.164062 " fill-opacity="1" fill-rule="nonzero"/><path fill="#363e44" d="M 29.242188 44.742188 C 29.1875 44.742188 29.128906 44.730469 29.078125 44.703125 C 29.0625 44.695312 29.054688 44.675781 29.0625 44.65625 C 29.070312 44.640625 29.089844 44.632812 29.109375 44.640625 C 29.21875 44.695312 29.347656 44.679688 29.441406 44.601562 C 29.527344 44.527344 29.566406 44.40625 29.539062 44.292969 C 29.535156 44.277344 29.546875 44.257812 29.566406 44.253906 C 29.585938 44.25 29.605469 44.261719 29.609375 44.277344 C 29.640625 44.417969 29.59375 44.566406 29.484375 44.65625 C 29.414062 44.710938 29.332031 44.742188 29.242188 44.742188 " fill-opacity="1" fill-rule="nonzero"/><path fill="#e2a18d" d="M 31.5625 41.859375 C 31.402344 42.429688 31.671875 43 32.160156 43.132812 C 32.652344 43.269531 33.175781 42.917969 33.335938 42.347656 C 33.492188 41.777344 33.222656 41.203125 32.734375 41.070312 C 32.242188 40.933594 31.71875 41.289062 31.5625 41.859375 " fill-opacity="1" fill-rule="nonzero"/><path fill="#363e44" d="M 32.859375 42.363281 C 32.855469 42.363281 32.851562 42.363281 32.84375 42.359375 C 32.828125 42.351562 32.820312 42.332031 32.828125 42.3125 C 32.84375 42.285156 32.855469 42.25 32.863281 42.21875 C 32.902344 42.085938 32.890625 41.949219 32.835938 41.832031 C 32.785156 41.71875 32.695312 41.640625 32.582031 41.609375 C 32.527344 41.597656 32.46875 41.59375 32.414062 41.605469 C 32.394531 41.609375 32.375 41.597656 32.371094 41.578125 C 32.367188 41.558594 32.378906 41.539062 32.398438 41.535156 C 32.46875 41.523438 32.535156 41.527344 32.601562 41.542969 C 32.734375 41.578125 32.839844 41.671875 32.902344 41.804688 C 32.960938 41.933594 32.972656 42.085938 32.933594 42.234375 C 32.921875 42.273438 32.910156 42.308594 32.890625 42.34375 C 32.886719 42.355469 32.871094 42.363281 32.859375 42.363281 " fill-opacity="1" fill-rule="nonzero"/><path fill="#84524d" d="M 35.019531 38.285156 C 33.84375 36.882812 32.035156 36.953125 31.769531 36.96875 C 30.414062 36.472656 28.953125 36.753906 27.953125 37.710938 C 26.492188 39.109375 26.804688 41.175781 26.835938 41.34375 C 27.601562 41.078125 28.683594 40.871094 29.460938 40.902344 L 29.945312 39.484375 L 30.019531 40.96875 C 30.632812 41.085938 31.386719 41.34375 31.730469 41.632812 C 31.757812 41.574219 32.035156 41.175781 32.449219 41.148438 C 32.945312 41.113281 33.421875 41.558594 33.445312 42.070312 C 33.480469 42.855469 33.484375 43.429688 33.519531 43.859375 C 36.082031 42.6875 36.355469 39.875 35.019531 38.285156 " fill-opacity="1" fill-rule="nonzero"/><path fill="#84524d" d="M 38.011719 38.058594 C 38.011719 39.054688 37.199219 39.859375 36.203125 39.859375 C 35.203125 39.859375 34.394531 39.054688 34.394531 38.058594 C 34.394531 37.0625 35.203125 36.257812 36.203125 36.257812 C 37.199219 36.257812 38.011719 37.0625 38.011719 38.058594 " fill-opacity="1" fill-rule="nonzero"/><path fill="#84524d" d="M 36.203125 36.738281 C 35.226562 36.738281 34.429688 37.527344 34.429688 38.503906 C 34.429688 39.476562 35.226562 40.269531 36.203125 40.269531 C 37.179688 40.269531 37.976562 39.476562 37.976562 38.503906 C 37.976562 37.527344 37.179688 36.738281 36.203125 36.738281 Z M 36.203125 40.335938 C 35.1875 40.335938 34.359375 39.515625 34.359375 38.503906 C 34.359375 37.488281 35.1875 36.667969 36.203125 36.667969 C 37.21875 36.667969 38.046875 37.488281 38.046875 38.503906 C 38.046875 39.515625 37.21875 40.335938 36.203125 40.335938 " fill-opacity="1" fill-rule="nonzero"/><path fill="#84524d" d="M 36.710938 36.355469 C 35.734375 36.355469 34.941406 37.148438 34.941406 38.121094 C 34.941406 39.09375 35.734375 39.886719 36.710938 39.886719 C 37.6875 39.886719 38.484375 39.09375 38.484375 38.121094 C 38.484375 37.148438 37.6875 36.355469 36.710938 36.355469 Z M 36.710938 39.957031 C 35.695312 39.957031 34.871094 39.132812 34.871094 38.121094 C 34.871094 37.109375 35.695312 36.285156 36.710938 36.285156 C 37.726562 36.285156 38.554688 37.109375 38.554688 38.121094 C 38.554688 39.132812 37.726562 39.957031 36.710938 39.957031 " fill-opacity="1" fill-rule="nonzero"/><path fill="#84524d" d="M 32.921875 35.90625 C 32.921875 36.898438 32.113281 37.703125 31.117188 37.703125 C 30.117188 37.703125 29.308594 36.898438 29.308594 35.90625 C 29.308594 34.910156 30.117188 34.105469 31.117188 34.105469 C 32.113281 34.105469 32.921875 34.910156 32.921875 35.90625 " fill-opacity="1" fill-rule="nonzero"/><path fill="#84524d" d="M 30.734375 34.136719 C 29.757812 34.136719 28.960938 34.929688 28.960938 35.90625 C 28.960938 36.878906 29.757812 37.667969 30.734375 37.667969 C 31.710938 37.667969 32.507812 36.878906 32.507812 35.90625 C 32.507812 34.929688 31.710938 34.136719 30.734375 34.136719 Z M 30.734375 37.738281 C 29.71875 37.738281 28.890625 36.917969 28.890625 35.90625 C 28.890625 34.890625 29.71875 34.070312 30.734375 34.070312 C 31.75 34.070312 32.578125 34.890625 32.578125 35.90625 C 32.578125 36.917969 31.75 37.738281 30.734375 37.738281 " fill-opacity="1" fill-rule="nonzero"/><path fill="#d87355" d="M 43.714844 15.628906 L 33.773438 15.628906 L 33.773438 5.722656 L 43.714844 5.722656 L 43.714844 15.628906 " fill-opacity="1" fill-rule="nonzero"/><path fill="#ffffff" d="M 40.699219 11.226562 C 40.636719 11.75 40.445312 12.152344 40.117188 12.4375 C 39.792969 12.71875 39.359375 12.863281 38.820312 12.863281 C 38.234375 12.863281 37.765625 12.652344 37.414062 12.234375 C 37.0625 11.816406 36.886719 11.257812 36.886719 10.554688 L 36.886719 10.082031 C 36.886719 9.625 36.96875 9.21875 37.132812 8.871094 C 37.296875 8.523438 37.53125 8.257812 37.832031 8.070312 C 38.132812 7.882812 38.480469 7.789062 38.878906 7.789062 C 39.40625 7.789062 39.828125 7.9375 40.144531 8.230469 C 40.460938 8.523438 40.648438 8.925781 40.699219 9.445312 L 40.042969 9.445312 C 39.984375 9.050781 39.863281 8.765625 39.671875 8.589844 C 39.484375 8.410156 39.21875 8.324219 38.878906 8.324219 C 38.460938 8.324219 38.136719 8.476562 37.898438 8.785156 C 37.660156 9.09375 37.542969 9.53125 37.542969 10.097656 L 37.542969 10.574219 C 37.542969 11.113281 37.65625 11.539062 37.878906 11.855469 C 38.105469 12.171875 38.417969 12.328125 38.820312 12.328125 C 39.183594 12.328125 39.460938 12.246094 39.65625 12.082031 C 39.851562 11.917969 39.980469 11.632812 40.042969 11.226562 L 40.699219 11.226562 " fill-opacity="1" fill-rule="nonzero"/><path fill="#efbc73" d="M 35.910156 11.464844 L 25.96875 11.464844 L 25.96875 1.558594 L 35.910156 1.558594 L 35.910156 11.464844 " fill-opacity="1" fill-rule="nonzero"/><path fill="#ffffff" d="M 29.90625 6.320312 L 29.90625 8.097656 L 30.984375 8.097656 C 31.289062 8.097656 31.527344 8.019531 31.703125 7.863281 C 31.878906 7.703125 31.96875 7.488281 31.96875 7.210938 C 31.96875 6.617188 31.644531 6.320312 30.996094 6.320312 Z M 29.90625 5.800781 L 30.894531 5.800781 C 31.179688 5.800781 31.40625 5.726562 31.578125 5.585938 C 31.75 5.441406 31.835938 5.25 31.835938 5.003906 C 31.835938 4.734375 31.757812 4.535156 31.597656 4.410156 C 31.4375 4.289062 31.195312 4.226562 30.871094 4.226562 L 29.90625 4.226562 Z M 29.253906 8.628906 L 29.253906 3.695312 L 30.871094 3.695312 C 31.410156 3.695312 31.8125 3.804688 32.085938 4.027344 C 32.355469 4.246094 32.492188 4.574219 32.492188 5.007812 C 32.492188 5.238281 32.425781 5.445312 32.292969 5.621094 C 32.164062 5.796875 31.984375 5.9375 31.757812 6.03125 C 32.023438 6.105469 32.234375 6.25 32.390625 6.457031 C 32.546875 6.667969 32.625 6.917969 32.625 7.207031 C 32.625 7.648438 32.480469 7.996094 32.191406 8.25 C 31.90625 8.503906 31.496094 8.628906 30.972656 8.628906 L 29.253906 8.628906 " fill-opacity="1" fill-rule="nonzero"/><path fill="#ffffff" d="M 28.25 18.457031 L 15.886719 18.457031 L 15.886719 6.140625 L 28.25 6.140625 L 28.25 18.457031 " fill-opacity="1" fill-rule="nonzero"/><path fill="#e6d0be" d="M 21.035156 12.664062 L 23.128906 12.664062 L 22.082031 9.792969 Z M 23.371094 13.324219 L 20.789062 13.324219 L 20.210938 14.929688 L 19.375 14.929688 L 21.726562 8.796875 L 22.4375 8.796875 L 24.792969 14.929688 L 23.957031 14.929688 L 23.371094 13.324219 " fill-opacity="1" fill-rule="nonzero"/></svg>