<svg xmlns="http://www.w3.org/2000/svg" xmlns:xlink="http://www.w3.org/1999/xlink" width="80" zoomAndPan="magnify" viewBox="0 0 60 64.499998" height="86" preserveAspectRatio="xMidYMid meet" version="1.0"><path fill="#e5eef9" d="M 53.910156 23.195312 C 52.539062 18.519531 49.296875 14.507812 44.917969 12.339844 C 42.6875 11.238281 40.363281 10.789062 37.90625 10.5625 C 36.382812 10.425781 34.832031 10.269531 33.457031 9.539062 C 32.289062 8.917969 31.339844 7.976562 30.453125 7.003906 C 28.824219 5.226562 27.347656 3.363281 25.246094 2.117188 C 22.976562 0.769531 20.324219 0.0976562 17.691406 0.0742188 C 12.894531 0.0273438 7.082031 2.019531 4.039062 5.910156 C 0.558594 10.367188 1.753906 16.097656 2.492188 21.0625 C 2.964844 24.238281 4.234375 27.246094 5.957031 30.046875 C 7.355469 32.328125 9.40625 34.164062 11.824219 35.304688 C 15.417969 37.003906 19.277344 37.25 23.128906 36.90625 C 24.640625 38.328125 26.5625 39.148438 28.566406 39.707031 C 31.296875 40.464844 34.140625 41 36.957031 41.289062 C 42.085938 41.820312 47.976562 41.066406 51.734375 37.160156 C 55.179688 33.578125 55.234375 27.710938 53.910156 23.195312 Z M 53.910156 23.195312 " fill-opacity="1" fill-rule="nonzero"/><path fill="#dea379" d="M 57.855469 32.304688 C 57.175781 33.738281 54.027344 35.542969 52.445312 35.613281 C 50.863281 35.683594 47.582031 34.144531 46.769531 32.78125 C 44.984375 29.785156 45.089844 18.921875 45.089844 18.921875 C 45.089844 18.921875 49.910156 17.691406 51.558594 17.617188 C 53.203125 17.546875 58.113281 18.359375 58.113281 18.359375 C 58.113281 18.359375 59.351562 29.152344 57.855469 32.300781 Z M 57.855469 32.304688 " fill-opacity="1" fill-rule="nonzero"/><path fill="#ffffff" d="M 50.496094 26.175781 C 50.523438 26.867188 50.296875 27.433594 49.84375 27.453125 C 49.390625 27.472656 49.113281 26.925781 49.082031 26.238281 C 49.050781 25.550781 49.292969 24.980469 49.738281 24.960938 C 50.171875 24.941406 50.464844 25.488281 50.492188 26.175781 Z M 50.496094 26.175781 " fill-opacity="1" fill-rule="nonzero"/><path fill="#ffffff" d="M 54.964844 25.984375 C 54.996094 26.671875 54.765625 27.242188 54.316406 27.257812 C 53.859375 27.28125 53.582031 26.734375 53.550781 26.042969 C 53.523438 25.355469 53.765625 24.785156 54.207031 24.769531 C 54.640625 24.75 54.933594 25.296875 54.964844 25.984375 Z M 54.964844 25.984375 " fill-opacity="1" fill-rule="nonzero"/><path fill="#ffffff" d="M 52.410156 30.351562 C 53.613281 30.242188 54.203125 29.472656 54.4375 29.21875 C 54.480469 29.175781 54.472656 29.136719 54.394531 29.140625 C 54.394531 29.140625 53.152344 29.507812 52.339844 29.550781 C 51.492188 29.597656 50.203125 29.363281 50.203125 29.363281 C 50.125 29.367188 50.117188 29.398438 50.160156 29.4375 C 50.398438 29.664062 51.292969 30.453125 52.410156 30.351562 Z M 52.410156 30.351562 " fill-opacity="1" fill-rule="nonzero"/><path fill="#ffffff" d="M 48.375 23.375 C 48.917969 22.878906 49.609375 22.566406 50.335938 22.484375 C 50.484375 22.464844 50.515625 21.90625 50.453125 21.914062 C 49.707031 21.996094 49 22.3125 48.445312 22.820312 C 48.359375 22.894531 48.335938 23.050781 48.320312 23.160156 C 48.320312 23.179688 48.3125 23.433594 48.371094 23.375 Z M 48.375 23.375 " fill-opacity="1" fill-rule="nonzero"/><path fill="#ffffff" d="M 55.753906 23.191406 C 55.214844 22.691406 54.527344 22.371094 53.796875 22.285156 C 53.648438 22.265625 53.625 21.707031 53.6875 21.714844 C 54.429688 21.804688 55.136719 22.125 55.6875 22.636719 C 55.769531 22.714844 55.796875 22.867188 55.808594 22.976562 C 55.808594 22.996094 55.816406 23.25 55.753906 23.191406 Z M 55.753906 23.191406 " fill-opacity="1" fill-rule="nonzero"/><path fill="#ffffff" d="M 51.707031 26.015625 C 51.714844 26.773438 51.664062 27.53125 51.546875 28.28125 C 51.539062 28.332031 51.644531 28.304688 51.667969 28.296875 C 52.007812 28.175781 52.347656 28.054688 52.683594 27.929688 C 52.707031 27.921875 52.753906 27.898438 52.734375 27.871094 C 52.714844 27.84375 52.644531 27.867188 52.621094 27.875 C 52.28125 27.996094 51.941406 28.117188 51.601562 28.238281 C 51.640625 28.246094 51.683594 28.25 51.722656 28.257812 C 51.839844 27.5 51.890625 26.734375 51.878906 25.96875 C 51.878906 25.925781 51.707031 25.957031 51.707031 26.015625 Z M 51.707031 26.015625 " fill-opacity="1" fill-rule="nonzero"/><path fill="#afbbc6" d="M 49.128906 41.957031 C 48.9375 42.03125 48.441406 40.921875 47.9375 39.636719 C 47.4375 38.351562 47.105469 37.214844 47.296875 37.140625 C 47.492188 37.0625 47.949219 38.128906 48.449219 39.414062 C 48.953125 40.699219 49.320312 41.878906 49.128906 41.957031 Z M 49.128906 41.957031 " fill-opacity="1" fill-rule="nonzero"/><path fill="#afbbc6" d="M 13.109375 31.28125 C 13.179688 31.476562 12.171875 32.097656 10.875 32.566406 C 9.578125 33.035156 8.476562 33.375 8.40625 33.179688 C 8.335938 32.984375 9.386719 32.460938 10.683594 31.992188 C 11.980469 31.527344 13.035156 31.085938 13.105469 31.28125 Z M 13.109375 31.28125 " fill-opacity="1" fill-rule="nonzero"/><path fill="#ffa18a" d="M 54.089844 38.789062 C 53.289062 38.851562 52.5 38.839844 51.707031 39 C 50.816406 39.179688 48.140625 40.917969 47.664062 41.171875 L 45.992188 37.871094 C 46.472656 37.71875 48.378906 37.03125 48.785156 36.582031 C 49.117188 36.214844 49.648438 35.75 50.132812 35.632812 C 50.5625 35.53125 50.800781 35.566406 51.234375 35.480469 C 51.855469 35.363281 52.152344 34.980469 52.28125 34.417969 C 52.402344 33.882812 52.273438 33.398438 52.269531 32.867188 C 52.265625 32.582031 52.332031 32.246094 52.617188 32.117188 C 52.769531 32.050781 52.929688 32.082031 53.035156 32.175781 C 53.046875 31.984375 53.109375 31.816406 53.304688 31.726562 C 53.535156 31.621094 53.714844 31.765625 53.832031 31.953125 C 53.878906 31.835938 53.960938 31.738281 54.101562 31.730469 C 54.21875 31.722656 54.320312 31.792969 54.40625 31.863281 C 54.464844 31.914062 54.519531 31.972656 54.570312 32.035156 C 54.699219 31.867188 54.898438 31.949219 55.039062 32.117188 C 55.582031 32.75 55.9375 33.585938 56.125 34.390625 C 56.3125 35.191406 56.335938 36.03125 56.175781 36.839844 C 56.023438 37.613281 55.667969 38.320312 54.855469 38.480469 C 54.648438 38.65625 54.386719 38.761719 54.089844 38.785156 Z M 54.089844 38.789062 " fill-opacity="1" fill-rule="nonzero"/><path fill="#ff7a5a" d="M 48.5625 36.792969 C 48.484375 37.40625 48.703125 38.039062 49.144531 38.46875 C 49.175781 38.503906 49.230469 38.449219 49.195312 38.414062 C 48.769531 37.996094 48.5625 37.386719 48.636719 36.792969 C 48.644531 36.746094 48.570312 36.746094 48.5625 36.792969 Z M 48.5625 36.792969 " fill-opacity="1" fill-rule="nonzero"/><path fill="#ff7a5a" d="M 53 32.195312 C 53.265625 32.921875 53.351562 33.695312 53.371094 34.464844 C 53.382812 34.8125 53.414062 35.207031 53.289062 35.539062 C 53.144531 35.921875 52.773438 36.074219 52.414062 36.203125 C 52.371094 36.21875 52.390625 36.292969 52.4375 36.273438 C 52.730469 36.167969 53.042969 36.050781 53.238281 35.792969 C 53.453125 35.496094 53.453125 35.109375 53.449219 34.765625 C 53.445312 33.886719 53.375 33.003906 53.070312 32.175781 C 53.054688 32.132812 52.980469 32.152344 52.996094 32.195312 Z M 53 32.195312 " fill-opacity="1" fill-rule="nonzero"/><path fill="#ff7a5a" d="M 53.800781 31.996094 C 54.046875 32.886719 54.324219 33.792969 54.472656 34.703125 C 54.542969 35.160156 54.5625 35.644531 54.398438 36.082031 C 54.21875 36.554688 53.851562 36.78125 53.414062 36.984375 C 53.371094 37.003906 53.410156 37.070312 53.453125 37.050781 C 53.820312 36.878906 54.171875 36.6875 54.371094 36.320312 C 54.578125 35.933594 54.621094 35.480469 54.589844 35.050781 C 54.550781 34.570312 54.425781 34.105469 54.3125 33.640625 C 54.171875 33.085938 54.027344 32.527344 53.875 31.976562 C 53.859375 31.929688 53.789062 31.949219 53.800781 31.996094 Z M 53.800781 31.996094 " fill-opacity="1" fill-rule="nonzero"/><path fill="#ff7a5a" d="M 54.570312 32.085938 C 54.855469 33.035156 55.183594 33.988281 55.359375 34.964844 C 55.527344 35.867188 55.679688 37.320312 54.691406 37.820312 C 54.652344 37.839844 54.6875 37.90625 54.730469 37.886719 C 55.625 37.433594 55.605469 36.21875 55.496094 35.363281 C 55.355469 34.238281 54.964844 33.148438 54.640625 32.066406 C 54.628906 32.023438 54.554688 32.039062 54.570312 32.085938 Z M 54.570312 32.085938 " fill-opacity="1" fill-rule="nonzero"/><path fill="#ffa18a" d="M 32.710938 22.203125 L 32.011719 19.113281 C 31.964844 19.121094 31.921875 19.136719 31.871094 19.140625 C 31.871094 19.140625 31.425781 18.78125 31.242188 18.554688 C 31 18.261719 30.636719 17.457031 30.601562 16.296875 C 30.496094 16.3125 30.390625 16.316406 30.285156 16.292969 C 29.667969 16.160156 29.40625 15.394531 29.539062 14.777344 C 29.570312 14.625 29.640625 14.476562 29.730469 14.34375 C 29.3125 14.945312 29.132812 14.445312 29.121094 13.902344 C 29.117188 13.503906 28.800781 13.085938 28.902344 12.269531 C 29.015625 11.34375 27.777344 10.621094 27.558594 10.640625 C 24.769531 10.859375 23.320312 10.484375 22.53125 11.152344 C 22.089844 12.039062 21.828125 13.085938 21.800781 14.226562 C 21.800781 14.257812 21.800781 14.292969 21.800781 14.328125 C 21.753906 17.492188 23.074219 22.0625 26.046875 21.3125 C 28.960938 21.085938 30.890625 18.214844 30.890625 18.214844 C 30.433594 20.148438 28.960938 22.316406 26.027344 22.261719 L 26.027344 22.273438 C 26.015625 22.558594 25.871094 23.039062 25.589844 23.402344 C 25.589844 23.402344 29.738281 24.925781 32.707031 22.203125 Z M 32.710938 22.203125 " fill-opacity="1" fill-rule="nonzero"/><path fill="#f9e7cf" d="M 18.632812 9.773438 C 19.074219 9.707031 19.5 9.789062 19.894531 9.988281 C 20.15625 10.117188 20.414062 10.261719 20.707031 10.269531 C 20.480469 10.511719 20.089844 10.574219 19.96875 10.914062 C 19.960938 10.941406 19.992188 10.972656 20.019531 10.960938 C 20.269531 10.886719 20.515625 10.890625 20.761719 10.964844 C 20.539062 11.144531 20.238281 11.351562 20.183594 11.636719 C 20.175781 11.664062 20.199219 11.695312 20.230469 11.683594 C 20.402344 11.628906 20.574219 11.621094 20.742188 11.65625 C 20.480469 11.738281 20.230469 11.863281 20.121094 12.128906 C 20.109375 12.167969 20.164062 12.195312 20.191406 12.167969 C 20.519531 11.863281 20.96875 11.917969 21.375 11.976562 C 21.371094 12.679688 21.496094 13.386719 21.800781 14.328125 C 21.800781 14.292969 21.800781 14.257812 21.800781 14.226562 C 21.820312 13.410156 21.960938 12.644531 22.199219 11.945312 C 22.5 11.714844 22.859375 11.527344 23.125 11.410156 C 23.753906 11.136719 24.375 11.121094 25.042969 11.210938 C 25.628906 11.292969 26.238281 11.378906 26.832031 11.332031 C 27.164062 11.304688 27.464844 11.199219 27.648438 10.921875 C 28.078125 11.472656 28.859375 13.128906 28.859375 13.128906 C 28.972656 13.394531 29.117188 13.6875 29.121094 13.898438 C 29.128906 14.441406 29.308594 14.945312 29.730469 14.339844 C 30.015625 13.921875 30.542969 13.628906 31.007812 13.730469 C 31.625 13.863281 31.847656 14.640625 31.710938 15.257812 C 31.601562 15.769531 31.117188 16.230469 30.601562 16.296875 C 30.605469 16.386719 30.613281 16.472656 30.617188 16.558594 C 30.566406 17.089844 30.628906 17.613281 30.808594 18.117188 C 30.824219 18.152344 30.847656 18.160156 30.875 18.160156 C 30.996094 18.453125 31.152344 18.722656 31.34375 18.980469 C 31.382812 19.027344 31.46875 19.007812 31.46875 18.941406 C 31.605469 19.175781 31.773438 19.386719 31.972656 19.574219 C 32.03125 19.625 32.097656 19.558594 32.085938 19.496094 C 32.070312 19.449219 32.066406 19.402344 32.058594 19.355469 C 32.167969 19.488281 32.285156 19.613281 32.429688 19.71875 C 32.488281 19.757812 32.558594 19.710938 32.542969 19.644531 C 32.515625 19.558594 32.5 19.472656 32.488281 19.386719 C 32.605469 19.5 32.730469 19.605469 32.867188 19.703125 C 32.917969 19.738281 32.976562 19.707031 32.980469 19.644531 C 32.984375 19.542969 32.988281 19.441406 32.992188 19.339844 C 33.03125 19.417969 33.070312 19.496094 33.109375 19.578125 C 33.136719 19.628906 33.210938 19.640625 33.238281 19.585938 C 33.324219 19.414062 33.40625 19.246094 33.492188 19.074219 C 33.523438 19.089844 33.566406 19.078125 33.585938 19.042969 C 33.789062 18.730469 33.992188 18.417969 34.195312 18.101562 C 34.230469 18.144531 34.296875 18.128906 34.316406 18.074219 C 34.449219 17.65625 34.582031 17.238281 34.714844 16.816406 C 34.746094 16.816406 34.773438 16.804688 34.78125 16.765625 C 34.832031 16.488281 34.867188 16.207031 34.894531 15.929688 C 35.066406 15.003906 35.007812 13.996094 34.710938 13.074219 C 34.472656 12.328125 34.445312 11.457031 34.320312 10.671875 C 34.363281 10.707031 34.4375 10.675781 34.433594 10.613281 C 34.359375 9.835938 34.222656 9.015625 33.617188 8.464844 C 33.070312 7.960938 32.351562 7.691406 31.792969 7.199219 C 31.171875 6.660156 30.601562 6.253906 29.761719 6.160156 C 28.953125 6.066406 28.152344 6.238281 27.367188 6.429688 C 26.644531 6.09375 25.832031 6.035156 25.035156 6.089844 C 24.078125 6.152344 23.078125 6.324219 22.246094 6.824219 C 22.214844 6.839844 22.1875 6.863281 22.160156 6.882812 C 22.066406 6.917969 21.976562 6.960938 21.886719 7.007812 C 21.484375 7.226562 21.070312 7.523438 20.882812 7.953125 C 20.773438 8.203125 20.6875 8.445312 20.5 8.644531 C 20.324219 8.828125 20.097656 8.964844 19.851562 9.027344 C 19.609375 9.09375 19.363281 9.101562 19.140625 9.226562 C 18.929688 9.347656 18.761719 9.523438 18.597656 9.699219 C 18.566406 9.730469 18.597656 9.769531 18.636719 9.765625 Z M 18.632812 9.773438 " fill-opacity="1" fill-rule="nonzero"/><path fill="#f9e7cf" d="M 27.871094 14.550781 C 27.546875 14.464844 27.113281 14.394531 26.375 14.371094 C 25.976562 14.359375 25.5 14.421875 25.421875 14.328125 C 25.304688 14.1875 25.261719 13.820312 25.605469 13.761719 C 25.90625 13.710938 26.691406 13.785156 27.015625 13.84375 C 28.570312 14.117188 28.511719 14.71875 27.871094 14.550781 Z M 27.871094 14.550781 " fill-opacity="1" fill-rule="nonzero"/><path fill="#ff7a5a" d="M 24.367188 17.054688 C 24.261719 17.050781 24.144531 17.007812 24.078125 16.925781 C 24.023438 16.855469 24.035156 16.757812 24.054688 16.679688 C 24.089844 16.550781 24.148438 16.429688 24.203125 16.304688 C 24.285156 16.132812 24.363281 15.960938 24.429688 15.78125 C 24.449219 15.726562 24.535156 15.761719 24.511719 15.820312 C 24.4375 16.011719 24.355469 16.199219 24.269531 16.390625 C 24.214844 16.507812 24.148438 16.636719 24.132812 16.765625 C 24.121094 16.867188 24.199219 16.925781 24.292969 16.949219 C 24.453125 16.992188 24.605469 16.910156 24.707031 16.789062 C 24.742188 16.742188 24.816406 16.800781 24.78125 16.847656 C 24.675781 16.972656 24.53125 17.058594 24.363281 17.054688 Z M 24.367188 17.054688 " fill-opacity="1" fill-rule="nonzero"/><path fill="#ffa18a" d="M 30.890625 18.214844 C 30.4375 20.148438 28.964844 22.316406 26.027344 22.257812 L 26.039062 21.726562 C 26.050781 21.605469 26.050781 21.308594 26.050781 21.308594 C 28.964844 21.085938 30.890625 18.214844 30.890625 18.214844 Z M 30.890625 18.214844 " fill-opacity="1" fill-rule="nonzero"/><path fill="#ff7a5a" d="M 30.890625 18.214844 C 30.4375 20.148438 28.964844 22.316406 26.027344 22.257812 L 26.039062 21.726562 C 26.050781 21.605469 26.050781 21.308594 26.050781 21.308594 C 28.964844 21.085938 30.890625 18.214844 30.890625 18.214844 Z M 30.890625 18.214844 " fill-opacity="0.4" fill-rule="nonzero"/><path fill="#f9e7cf" d="M 23.203125 14.335938 C 22.554688 14.34375 22.25 14.367188 21.957031 14.402344 C 21.738281 14.429688 21.582031 13.988281 22.644531 13.851562 C 22.933594 13.816406 23.609375 13.746094 23.875 13.800781 C 24.175781 13.867188 24.117188 14.171875 24.015625 14.308594 C 23.945312 14.402344 23.554688 14.332031 23.203125 14.335938 Z M 23.203125 14.335938 " fill-opacity="1" fill-rule="nonzero"/><path fill="#ffa18a" d="M 29.730469 14.34375 C 29.640625 14.476562 29.570312 14.625 29.539062 14.777344 C 29.40625 15.394531 29.667969 16.160156 30.285156 16.292969 C 30.390625 16.316406 30.496094 16.3125 30.601562 16.296875 C 31.117188 16.230469 31.605469 15.773438 31.714844 15.257812 C 31.847656 14.640625 31.628906 13.863281 31.011719 13.730469 C 30.542969 13.632812 30.019531 13.925781 29.730469 14.34375 Z M 30.597656 14.820312 C 30.707031 14.679688 30.855469 14.59375 31.023438 14.535156 C 31.058594 14.523438 31.09375 14.554688 31.097656 14.585938 C 31.109375 14.625 31.082031 14.652344 31.050781 14.664062 C 30.925781 14.703125 30.816406 14.773438 30.726562 14.867188 C 30.824219 14.898438 30.914062 14.953125 30.957031 15.054688 C 31.003906 15.15625 30.988281 15.273438 30.929688 15.371094 C 30.898438 15.425781 30.851562 15.46875 30.796875 15.503906 C 30.765625 15.523438 30.722656 15.503906 30.707031 15.476562 C 30.691406 15.441406 30.707031 15.40625 30.738281 15.386719 C 30.738281 15.386719 30.753906 15.375 30.742188 15.386719 C 30.746094 15.382812 30.75 15.378906 30.753906 15.375 C 30.761719 15.371094 30.773438 15.363281 30.777344 15.355469 C 30.785156 15.351562 30.785156 15.347656 30.789062 15.34375 C 30.792969 15.339844 30.804688 15.328125 30.792969 15.339844 C 30.800781 15.332031 30.804688 15.324219 30.8125 15.316406 C 30.816406 15.308594 30.824219 15.296875 30.828125 15.289062 C 30.828125 15.289062 30.832031 15.285156 30.832031 15.285156 C 30.832031 15.28125 30.835938 15.273438 30.835938 15.273438 C 30.839844 15.261719 30.84375 15.253906 30.847656 15.246094 C 30.847656 15.242188 30.847656 15.234375 30.851562 15.230469 C 30.851562 15.226562 30.851562 15.226562 30.851562 15.222656 C 30.851562 15.21875 30.851562 15.21875 30.851562 15.21875 C 30.855469 15.210938 30.855469 15.203125 30.855469 15.195312 C 30.855469 15.1875 30.855469 15.175781 30.855469 15.164062 C 30.855469 15.160156 30.851562 15.152344 30.851562 15.148438 C 30.847656 15.140625 30.847656 15.132812 30.84375 15.121094 C 30.84375 15.121094 30.84375 15.117188 30.839844 15.117188 C 30.839844 15.109375 30.839844 15.105469 30.835938 15.101562 C 30.832031 15.097656 30.832031 15.09375 30.828125 15.089844 C 30.828125 15.085938 30.824219 15.085938 30.824219 15.085938 C 30.816406 15.078125 30.8125 15.066406 30.804688 15.058594 C 30.800781 15.054688 30.796875 15.050781 30.792969 15.046875 C 30.792969 15.046875 30.789062 15.046875 30.789062 15.046875 C 30.777344 15.035156 30.761719 15.027344 30.75 15.019531 C 30.746094 15.015625 30.738281 15.011719 30.730469 15.007812 C 30.730469 15.007812 30.722656 15.007812 30.71875 15.003906 C 30.703125 15 30.6875 14.992188 30.671875 14.988281 C 30.664062 14.984375 30.65625 14.984375 30.648438 14.980469 C 30.648438 14.980469 30.644531 14.980469 30.644531 14.980469 C 30.578125 15.09375 30.539062 15.222656 30.519531 15.351562 C 30.507812 15.433594 30.375 15.429688 30.390625 15.34375 C 30.417969 15.160156 30.476562 14.972656 30.59375 14.824219 Z M 30.597656 14.820312 " fill-opacity="1" fill-rule="nonzero"/><path fill="#ff7a5a" d="M 31.023438 14.535156 C 31.058594 14.523438 31.09375 14.554688 31.101562 14.585938 C 31.109375 14.625 31.082031 14.652344 31.050781 14.664062 C 30.929688 14.703125 30.816406 14.773438 30.730469 14.867188 C 30.828125 14.898438 30.917969 14.953125 30.960938 15.054688 C 31.003906 15.15625 30.988281 15.273438 30.933594 15.371094 C 30.898438 15.425781 30.851562 15.46875 30.796875 15.503906 C 30.769531 15.523438 30.726562 15.503906 30.710938 15.476562 C 30.691406 15.441406 30.707031 15.40625 30.738281 15.386719 C 30.742188 15.386719 30.757812 15.375 30.742188 15.386719 C 30.746094 15.382812 30.75 15.378906 30.753906 15.375 C 30.765625 15.371094 30.773438 15.363281 30.78125 15.355469 C 30.785156 15.351562 30.789062 15.347656 30.792969 15.34375 C 30.796875 15.339844 30.804688 15.328125 30.792969 15.339844 C 30.800781 15.332031 30.808594 15.324219 30.8125 15.316406 C 30.820312 15.308594 30.824219 15.296875 30.832031 15.289062 C 30.832031 15.289062 30.832031 15.285156 30.832031 15.285156 C 30.832031 15.28125 30.839844 15.273438 30.839844 15.273438 C 30.84375 15.261719 30.84375 15.253906 30.847656 15.246094 C 30.847656 15.242188 30.851562 15.234375 30.851562 15.230469 C 30.851562 15.226562 30.851562 15.226562 30.855469 15.222656 C 30.855469 15.21875 30.855469 15.21875 30.855469 15.21875 C 30.855469 15.210938 30.855469 15.203125 30.855469 15.195312 C 30.855469 15.1875 30.855469 15.175781 30.855469 15.164062 C 30.855469 15.160156 30.855469 15.152344 30.851562 15.148438 C 30.851562 15.140625 30.847656 15.132812 30.847656 15.121094 C 30.847656 15.121094 30.847656 15.117188 30.84375 15.117188 C 30.84375 15.109375 30.839844 15.105469 30.835938 15.101562 C 30.832031 15.097656 30.832031 15.09375 30.828125 15.089844 C 30.828125 15.085938 30.828125 15.085938 30.824219 15.085938 C 30.820312 15.078125 30.8125 15.066406 30.804688 15.058594 C 30.800781 15.054688 30.796875 15.050781 30.792969 15.046875 C 30.792969 15.046875 30.792969 15.046875 30.789062 15.046875 C 30.777344 15.035156 30.765625 15.027344 30.753906 15.019531 C 30.746094 15.015625 30.738281 15.011719 30.734375 15.007812 C 30.734375 15.007812 30.726562 15.007812 30.722656 15.003906 C 30.707031 15 30.691406 14.992188 30.675781 14.988281 C 30.664062 14.984375 30.65625 14.984375 30.648438 14.980469 C 30.648438 14.980469 30.648438 14.980469 30.644531 14.980469 C 30.578125 15.09375 30.539062 15.222656 30.523438 15.351562 C 30.507812 15.433594 30.378906 15.429688 30.390625 15.34375 C 30.421875 15.160156 30.476562 14.972656 30.597656 14.824219 C 30.707031 14.683594 30.855469 14.59375 31.023438 14.539062 Z M 31.023438 14.535156 " fill-opacity="1" fill-rule="nonzero"/><path fill="#393146" d="M 26.738281 15.738281 C 26.460938 15.941406 26.0625 15.925781 25.804688 15.707031 C 25.75 15.664062 25.675781 15.734375 25.726562 15.777344 C 25.871094 15.898438 26.058594 15.976562 26.257812 15.984375 C 26.460938 15.992188 26.65625 15.925781 26.816406 15.808594 C 26.871094 15.769531 26.792969 15.699219 26.738281 15.738281 Z M 26.738281 15.738281 " fill-opacity="1" fill-rule="nonzero"/><path fill="#393146" d="M 23.34375 15.722656 C 23.066406 15.925781 22.667969 15.910156 22.410156 15.691406 C 22.355469 15.648438 22.28125 15.71875 22.332031 15.761719 C 22.480469 15.882812 22.667969 15.960938 22.863281 15.96875 C 23.066406 15.976562 23.261719 15.910156 23.421875 15.792969 C 23.476562 15.753906 23.398438 15.683594 23.34375 15.722656 Z M 23.34375 15.722656 " fill-opacity="1" fill-rule="nonzero"/><path fill="#ead2b5" d="M 27.707031 10.921875 C 28.136719 10.464844 28.261719 9.738281 28.195312 9.128906 C 28.160156 8.789062 27.960938 8.535156 27.800781 8.242188 C 27.601562 7.871094 27.460938 7.46875 27.460938 7.042969 C 27.460938 6.992188 27.378906 6.992188 27.378906 7.042969 C 27.378906 7.359375 27.453125 7.664062 27.574219 7.953125 C 27.710938 8.277344 27.949219 8.558594 28.0625 8.886719 C 28.175781 9.203125 28.136719 9.601562 28.082031 9.925781 C 28.019531 10.277344 27.894531 10.605469 27.648438 10.863281 C 27.613281 10.902344 27.671875 10.957031 27.707031 10.921875 Z M 27.707031 10.921875 " fill-opacity="1" fill-rule="nonzero"/><path fill="#ead2b5" d="M 34.332031 10.601562 C 34.101562 10.210938 33.785156 9.894531 33.390625 9.660156 C 33.355469 9.640625 33.320312 9.679688 33.335938 9.714844 C 33.625 10.351562 33.871094 11.035156 33.71875 11.746094 C 33.742188 11.742188 33.769531 11.738281 33.792969 11.734375 C 33.496094 11.175781 33.191406 10.613281 32.691406 10.210938 C 32.664062 10.1875 32.617188 10.210938 32.625 10.25 C 32.707031 10.5625 32.925781 10.859375 32.859375 11.195312 C 32.882812 11.191406 32.90625 11.1875 32.929688 11.183594 C 32.804688 10.9375 32.644531 10.726562 32.4375 10.542969 C 32.414062 10.519531 32.359375 10.542969 32.375 10.582031 C 32.574219 11.148438 32.730469 11.742188 32.585938 12.34375 C 32.609375 12.335938 32.628906 12.332031 32.652344 12.324219 C 32.4375 12.082031 32.3125 11.777344 32.109375 11.519531 C 31.941406 11.304688 31.742188 11.125 31.515625 10.972656 C 31.492188 10.953125 31.449219 10.984375 31.460938 11.015625 C 31.582031 11.355469 31.695312 11.695312 31.722656 12.058594 C 31.75 12.054688 31.773438 12.046875 31.796875 12.039062 C 31.683594 11.828125 31.570312 11.617188 31.460938 11.40625 C 31.441406 11.371094 31.378906 11.386719 31.386719 11.425781 C 31.445312 11.898438 31.492188 12.375 31.304688 12.832031 C 31.332031 12.828125 31.355469 12.824219 31.378906 12.820312 C 31.015625 12.25 30.582031 11.738281 30.078125 11.285156 C 30.050781 11.261719 30 11.285156 30.011719 11.324219 C 30.179688 11.921875 30.34375 12.582031 29.964844 13.132812 C 29.992188 13.136719 30.015625 13.136719 30.039062 13.140625 C 30.003906 12.878906 29.917969 12.640625 29.785156 12.414062 C 29.761719 12.378906 29.714844 12.398438 29.710938 12.433594 C 29.667969 12.820312 29.542969 13.175781 29.328125 13.496094 C 29.351562 13.5 29.375 13.503906 29.402344 13.507812 C 29.375 13.417969 29.34375 13.335938 29.300781 13.253906 C 29.285156 13.222656 29.234375 13.230469 29.226562 13.261719 C 29.203125 13.378906 29.179688 13.496094 29.15625 13.617188 C 29.144531 13.664062 29.21875 13.6875 29.230469 13.636719 C 29.257812 13.519531 29.28125 13.402344 29.304688 13.285156 C 29.28125 13.285156 29.257812 13.289062 29.230469 13.292969 C 29.273438 13.367188 29.304688 13.445312 29.324219 13.527344 C 29.335938 13.5625 29.378906 13.566406 29.398438 13.539062 C 29.617188 13.203125 29.75 12.835938 29.792969 12.433594 C 29.765625 12.441406 29.742188 12.449219 29.71875 12.457031 C 29.851562 12.675781 29.929688 12.90625 29.964844 13.164062 C 29.96875 13.199219 30.019531 13.199219 30.039062 13.171875 C 30.429688 12.605469 30.265625 11.917969 30.089844 11.304688 C 30.066406 11.316406 30.046875 11.328125 30.023438 11.34375 C 30.523438 11.789062 30.953125 12.296875 31.3125 12.859375 C 31.335938 12.890625 31.375 12.882812 31.386719 12.851562 C 31.574219 12.390625 31.527344 11.90625 31.46875 11.425781 C 31.441406 11.433594 31.417969 11.4375 31.394531 11.445312 C 31.507812 11.65625 31.621094 11.871094 31.730469 12.082031 C 31.75 12.113281 31.808594 12.101562 31.804688 12.058594 C 31.777344 11.6875 31.664062 11.34375 31.539062 10.996094 C 31.515625 11.011719 31.5 11.023438 31.476562 11.039062 C 31.75 11.222656 31.980469 11.449219 32.164062 11.722656 C 32.3125 11.945312 32.421875 12.183594 32.597656 12.378906 C 32.617188 12.402344 32.65625 12.390625 32.664062 12.363281 C 32.808594 11.746094 32.660156 11.140625 32.453125 10.558594 C 32.429688 10.574219 32.40625 10.585938 32.382812 10.597656 C 32.585938 10.777344 32.742188 10.984375 32.863281 11.226562 C 32.878906 11.253906 32.929688 11.25 32.9375 11.214844 C 33.003906 10.859375 32.792969 10.5625 32.703125 10.230469 C 32.679688 10.242188 32.660156 10.253906 32.636719 10.269531 C 33.128906 10.667969 33.433594 11.222656 33.722656 11.777344 C 33.738281 11.804688 33.789062 11.800781 33.796875 11.765625 C 33.953125 11.035156 33.703125 10.335938 33.40625 9.675781 C 33.386719 9.695312 33.367188 9.710938 33.351562 9.730469 C 33.730469 9.957031 34.035156 10.261719 34.261719 10.640625 C 34.289062 10.683594 34.359375 10.644531 34.332031 10.601562 Z M 34.332031 10.601562 " fill-opacity="1" fill-rule="nonzero"/><path fill="#ead2b5" d="M 31.558594 11.050781 C 31.289062 10.386719 30.808594 9.820312 30.195312 9.445312 C 30.148438 9.417969 30.109375 9.488281 30.152344 9.515625 C 30.746094 9.875 31.21875 10.425781 31.484375 11.070312 C 31.5 11.117188 31.578125 11.097656 31.558594 11.050781 Z M 31.558594 11.050781 " fill-opacity="1" fill-rule="nonzero"/><path fill="#ead2b5" d="M 31.476562 11.539062 C 31.476562 11.300781 31.296875 11.105469 31.15625 10.933594 C 30.988281 10.734375 30.8125 10.542969 30.628906 10.359375 C 30.59375 10.324219 30.539062 10.382812 30.574219 10.417969 C 30.742188 10.582031 30.90625 10.757812 31.058594 10.941406 C 31.199219 11.109375 31.398438 11.308594 31.398438 11.539062 C 31.398438 11.589844 31.476562 11.589844 31.476562 11.539062 Z M 31.476562 11.539062 " fill-opacity="1" fill-rule="nonzero"/><path fill="#ead2b5" d="M 32.726562 10.273438 C 32.582031 9.945312 32.308594 9.699219 32.019531 9.496094 C 31.671875 9.253906 31.304688 9.042969 30.925781 8.851562 C 30.882812 8.828125 30.839844 8.894531 30.886719 8.917969 C 31.246094 9.101562 31.597656 9.304688 31.933594 9.53125 C 32.226562 9.734375 32.511719 9.976562 32.65625 10.3125 C 32.675781 10.359375 32.746094 10.320312 32.726562 10.273438 Z M 32.726562 10.273438 " fill-opacity="1" fill-rule="nonzero"/><path fill="#ead2b5" d="M 20.765625 11.675781 C 21.246094 11.746094 21.652344 11.601562 22.035156 11.308594 C 22.570312 10.886719 23.0625 10.519531 23.773438 10.476562 C 24.75 10.414062 25.945312 11.066406 26.773438 10.257812 C 26.808594 10.21875 26.75 10.164062 26.714844 10.199219 C 25.878906 11.019531 24.625 10.289062 23.628906 10.410156 C 23.160156 10.464844 22.722656 10.65625 22.351562 10.945312 C 21.867188 11.324219 21.449219 11.695312 20.785156 11.597656 C 20.734375 11.589844 20.714844 11.664062 20.765625 11.671875 Z M 20.765625 11.675781 " fill-opacity="1" fill-rule="nonzero"/><path fill="#ead2b5" d="M 20.777344 10.972656 C 21.59375 11.175781 22.085938 10.359375 22.769531 10.113281 C 23.152344 9.976562 23.578125 10.050781 23.972656 9.992188 C 24.371094 9.9375 24.753906 9.808594 25.113281 9.625 C 25.160156 9.601562 25.121094 9.53125 25.074219 9.554688 C 24.703125 9.746094 24.304688 9.875 23.886719 9.925781 C 23.535156 9.96875 23.160156 9.910156 22.816406 10.015625 C 22.113281 10.226562 21.609375 11.097656 20.800781 10.898438 C 20.75 10.886719 20.730469 10.960938 20.777344 10.972656 Z M 20.777344 10.972656 " fill-opacity="1" fill-rule="nonzero"/><path fill="#ead2b5" d="M 25.507812 9.207031 C 25.804688 8.945312 26.082031 8.667969 26.34375 8.371094 C 26.375 8.332031 26.320312 8.273438 26.289062 8.3125 C 26.027344 8.609375 25.75 8.890625 25.453125 9.152344 C 25.414062 9.1875 25.46875 9.242188 25.507812 9.207031 Z M 25.507812 9.207031 " fill-opacity="1" fill-rule="nonzero"/><path fill="#ead2b5" d="M 20.800781 10.261719 C 21.292969 9.6875 22.125 9.820312 22.757812 9.53125 C 23.085938 9.378906 23.339844 9.109375 23.625 8.890625 C 23.9375 8.65625 24.269531 8.449219 24.621094 8.273438 C 24.664062 8.25 24.625 8.179688 24.578125 8.203125 C 24.230469 8.382812 23.898438 8.585938 23.585938 8.824219 C 23.265625 9.0625 22.984375 9.367188 22.601562 9.507812 C 21.980469 9.734375 21.210938 9.65625 20.742188 10.207031 C 20.710938 10.246094 20.765625 10.300781 20.800781 10.261719 Z M 20.800781 10.261719 " fill-opacity="1" fill-rule="nonzero"/><path fill="#ead2b5" d="M 22.136719 11.921875 C 22.09375 11.953125 22.042969 11.957031 21.992188 11.964844 C 21.929688 11.972656 21.867188 11.976562 21.808594 11.980469 C 21.683594 11.984375 21.558594 11.976562 21.4375 11.957031 C 21.386719 11.949219 21.367188 12.027344 21.417969 12.035156 C 21.550781 12.054688 21.6875 12.0625 21.820312 12.058594 C 21.886719 12.054688 21.953125 12.050781 22.015625 12.039062 C 22.074219 12.03125 22.128906 12.023438 22.175781 11.988281 C 22.214844 11.960938 22.175781 11.890625 22.136719 11.921875 Z M 22.136719 11.921875 " fill-opacity="1" fill-rule="nonzero"/><path fill="#ead2b5" d="M 29.304688 13.355469 C 29.335938 12.976562 29.289062 12.589844 29.113281 12.246094 C 28.921875 11.882812 28.601562 11.566406 28.589844 11.128906 C 28.589844 11.078125 28.507812 11.078125 28.507812 11.128906 C 28.519531 11.523438 28.769531 11.828125 28.964844 12.148438 C 29.191406 12.519531 29.261719 12.925781 29.226562 13.355469 C 29.222656 13.40625 29.304688 13.40625 29.308594 13.355469 Z M 29.304688 13.355469 " fill-opacity="1" fill-rule="nonzero"/><path fill="#ead2b5" d="M 30.09375 11.371094 C 30.050781 11.261719 29.976562 11.175781 29.890625 11.09375 C 29.792969 11 29.695312 10.902344 29.613281 10.792969 C 29.453125 10.566406 29.347656 10.304688 29.316406 10.027344 C 29.308594 9.976562 29.230469 9.976562 29.234375 10.027344 C 29.269531 10.296875 29.359375 10.550781 29.507812 10.777344 C 29.578125 10.886719 29.664062 10.988281 29.761719 11.078125 C 29.855469 11.171875 29.96875 11.261719 30.015625 11.390625 C 30.035156 11.4375 30.113281 11.417969 30.09375 11.371094 Z M 30.09375 11.371094 " fill-opacity="1" fill-rule="nonzero"/><path fill="#ead2b5" d="M 30.941406 18.152344 C 31.078125 17.691406 31.066406 17.207031 31.046875 16.730469 C 31.046875 16.675781 30.964844 16.675781 30.96875 16.730469 C 30.984375 17.199219 31 17.675781 30.863281 18.132812 C 30.847656 18.183594 30.925781 18.203125 30.941406 18.152344 Z M 30.941406 18.152344 " fill-opacity="1" fill-rule="nonzero"/><path fill="#ead2b5" d="M 31.519531 18.933594 C 31.515625 18.777344 31.488281 18.628906 31.46875 18.480469 C 31.441406 18.292969 31.445312 18.113281 31.472656 17.925781 C 31.527344 17.582031 31.589844 17.238281 31.652344 16.898438 C 31.660156 16.847656 31.582031 16.824219 31.574219 16.875 C 31.515625 17.230469 31.445312 17.582031 31.390625 17.941406 C 31.367188 18.097656 31.359375 18.253906 31.378906 18.414062 C 31.398438 18.585938 31.4375 18.757812 31.441406 18.933594 C 31.441406 18.984375 31.523438 18.984375 31.519531 18.933594 Z M 31.519531 18.933594 " fill-opacity="1" fill-rule="nonzero"/><path fill="#ead2b5" d="M 32.105469 19.355469 C 32.011719 19.039062 31.953125 18.726562 32 18.394531 C 32.039062 18.121094 32.128906 17.859375 32.203125 17.59375 C 32.351562 17.046875 32.386719 16.492188 32.300781 15.933594 C 32.292969 15.882812 32.214844 15.90625 32.222656 15.953125 C 32.320312 16.59375 32.234375 17.191406 32.058594 17.808594 C 31.988281 18.054688 31.917969 18.308594 31.902344 18.566406 C 31.886719 18.84375 31.953125 19.113281 32.03125 19.378906 C 32.042969 19.425781 32.121094 19.40625 32.105469 19.355469 Z M 32.105469 19.355469 " fill-opacity="1" fill-rule="nonzero"/><path fill="#ead2b5" d="M 33.015625 19.300781 C 32.816406 18.375 33.488281 17.550781 33.523438 16.636719 C 33.523438 16.585938 33.445312 16.585938 33.445312 16.636719 C 33.410156 17.558594 32.734375 18.382812 32.941406 19.324219 C 32.953125 19.375 33.03125 19.355469 33.019531 19.304688 Z M 33.015625 19.300781 " fill-opacity="1" fill-rule="nonzero"/><path fill="#ead2b5" d="M 34.210938 18.078125 C 34.464844 17.449219 34.523438 16.753906 34.386719 16.09375 C 34.375 16.042969 34.300781 16.0625 34.3125 16.113281 C 34.445312 16.761719 34.382812 17.441406 34.132812 18.054688 C 34.117188 18.101562 34.191406 18.121094 34.210938 18.074219 Z M 34.210938 18.078125 " fill-opacity="1" fill-rule="nonzero"/><path fill="#ff7a5a" d="M 25.296875 18.664062 C 24.796875 18.5 24.230469 18.402344 23.742188 18.660156 C 23.695312 18.683594 23.65625 18.617188 23.703125 18.589844 C 24.210938 18.324219 24.796875 18.414062 25.316406 18.585938 C 25.367188 18.601562 25.347656 18.679688 25.296875 18.664062 Z M 25.296875 18.664062 " fill-opacity="1" fill-rule="nonzero"/><path fill="#393146" d="M 16.816406 23.121094 C 15.816406 24.355469 12.332031 25.367188 10.777344 25.058594 C 9.222656 24.75 6.398438 22.480469 5.929688 20.964844 C 4.902344 17.628906 7.570312 7.097656 7.570312 7.097656 C 7.570312 7.097656 12.542969 7.042969 14.164062 7.363281 C 15.78125 7.683594 20.355469 9.632812 20.355469 9.632812 C 20.355469 9.632812 19.015625 20.414062 16.820312 23.121094 Z M 16.816406 23.121094 " fill-opacity="1" fill-rule="nonzero"/><path fill="#ffffff" d="M 11.109375 15.425781 C 10.976562 16.101562 10.621094 16.601562 10.179688 16.511719 C 9.730469 16.421875 9.589844 15.828125 9.722656 15.148438 C 9.855469 14.472656 10.226562 13.976562 10.660156 14.0625 C 11.085938 14.148438 11.246094 14.75 11.109375 15.425781 Z M 11.109375 15.425781 " fill-opacity="1" fill-rule="nonzero"/><path fill="#ffffff" d="M 15.5 16.296875 C 15.367188 16.972656 15.011719 17.472656 14.566406 17.382812 C 14.121094 17.292969 13.980469 16.695312 14.113281 16.023438 C 14.246094 15.347656 14.617188 14.851562 15.050781 14.9375 C 15.476562 15.019531 15.632812 15.621094 15.5 16.296875 Z M 15.5 16.296875 " fill-opacity="1" fill-rule="nonzero"/><path fill="#ffffff" d="M 12.101562 18.824219 C 10.910156 18.621094 10.144531 19.210938 9.851562 19.398438 C 9.800781 19.429688 9.792969 19.46875 9.871094 19.484375 C 9.871094 19.484375 11.167969 19.449219 11.964844 19.613281 C 12.796875 19.785156 13.980469 20.34375 13.980469 20.34375 C 14.058594 20.359375 14.074219 20.332031 14.042969 20.28125 C 13.867188 20.003906 13.203125 19.011719 12.101562 18.824219 Z M 12.101562 18.824219 " fill-opacity="1" fill-rule="nonzero"/><path fill="#ffffff" d="M 10.132812 10.996094 C 10.753906 11.390625 11.242188 11.972656 11.515625 12.660156 C 11.566406 12.796875 12.113281 12.675781 12.09375 12.621094 C 11.816406 11.921875 11.324219 11.320312 10.691406 10.917969 C 10.59375 10.859375 10.4375 10.875 10.332031 10.890625 C 10.3125 10.894531 10.066406 10.949219 10.136719 10.996094 Z M 10.132812 10.996094 " fill-opacity="1" fill-rule="nonzero"/><path fill="#ffffff" d="M 16.585938 12.277344 C 15.863281 12.402344 15.191406 12.757812 14.679688 13.285156 C 14.578125 13.394531 14.117188 13.074219 14.160156 13.027344 C 14.683594 12.488281 15.367188 12.121094 16.101562 11.992188 C 16.214844 11.972656 16.351562 12.046875 16.445312 12.101562 C 16.464844 12.113281 16.667969 12.261719 16.585938 12.277344 Z M 16.585938 12.277344 " fill-opacity="1" fill-rule="nonzero"/><path fill="#ffffff" d="M 12.328125 15.5625 C 12.15625 16.300781 11.929688 17.019531 11.640625 17.722656 C 11.621094 17.769531 11.671875 17.792969 11.714844 17.785156 C 12.070312 17.75 12.429688 17.710938 12.789062 17.671875 C 12.882812 17.664062 12.925781 17.542969 12.808594 17.554688 C 12.449219 17.59375 12.089844 17.632812 11.730469 17.667969 C 11.757812 17.691406 11.78125 17.714844 11.804688 17.734375 C 12.097656 17.027344 12.332031 16.296875 12.5 15.546875 C 12.519531 15.46875 12.34375 15.492188 12.328125 15.5625 Z M 12.328125 15.5625 " fill-opacity="1" fill-rule="nonzero"/><path fill="#f9e7cf" d="M 41.109375 63.976562 L 40.292969 52.796875 L 18.574219 52.796875 L 17.933594 63.976562 Z M 41.109375 63.976562 " fill-opacity="1" fill-rule="nonzero"/><path fill="#ffa18a" d="M 6.453125 27.726562 C 6.996094 28.316406 7.585938 28.84375 8.058594 29.5 C 8.59375 30.234375 9.382812 33.332031 9.558594 33.839844 L 13.023438 32.546875 C 12.773438 32.109375 11.835938 30.3125 11.84375 29.703125 C 11.847656 29.210938 11.773438 28.511719 11.496094 28.09375 C 11.25 27.726562 11.046875 27.589844 10.785156 27.234375 C 10.414062 26.726562 10.453125 26.242188 10.738281 25.742188 C 11.011719 25.265625 11.433594 24.996094 11.796875 24.609375 C 11.992188 24.402344 12.171875 24.113281 12.046875 23.824219 C 11.980469 23.667969 11.84375 23.582031 11.703125 23.582031 C 11.824219 23.4375 11.886719 23.265625 11.808594 23.070312 C 11.707031 22.832031 11.480469 22.816406 11.265625 22.878906 C 11.3125 22.761719 11.316406 22.632812 11.21875 22.53125 C 11.140625 22.445312 11.015625 22.429688 10.902344 22.421875 C 10.824219 22.421875 10.746094 22.425781 10.667969 22.4375 C 10.6875 22.226562 10.484375 22.152344 10.265625 22.179688 C 9.441406 22.277344 8.613281 22.648438 7.929688 23.113281 C 7.25 23.574219 6.664062 24.175781 6.238281 24.878906 C 5.824219 25.550781 5.605469 26.3125 6.09375 26.984375 C 6.128906 27.25 6.25 27.507812 6.453125 27.726562 Z M 6.453125 27.726562 " fill-opacity="1" fill-rule="nonzero"/><path fill="#cdd5e0" d="M 47.300781 37.140625 C 47.300781 37.140625 42.59375 37.871094 42.027344 37.789062 C 42.050781 37.3125 41.828125 30.394531 41.597656 28.695312 C 41.261719 26.1875 40.0625 23.710938 37.539062 22.832031 C 36.082031 22.324219 34.515625 22.300781 33.023438 21.941406 C 32.875 21.503906 32.738281 20.921875 32.496094 20.519531 C 32.496094 20.519531 29.421875 22.078125 25.679688 21.640625 C 25.679688 21.640625 25.589844 22.339844 25.578125 22.554688 C 22.871094 22.628906 20.070312 22.835938 17.734375 24.332031 C 16.621094 25.046875 15.710938 26.023438 15.15625 27.230469 C 14.53125 28.589844 14.308594 30.082031 13.90625 31.511719 C 13.804688 31.871094 13.695312 32.222656 13.574219 32.574219 C 13.472656 32.175781 13.304688 31.664062 13.109375 31.28125 C 13.109375 31.28125 10.132812 33.035156 8.410156 33.179688 C 9.210938 34.949219 9.34375 36.90625 9.785156 38.777344 C 10.949219 43.707031 14.003906 44.425781 16 43.566406 C 17.46875 42.933594 18.5625 39.921875 18.570312 39.910156 C 18.597656 40.226562 17.929688 51.730469 18.398438 54.253906 C 18.398438 54.253906 23.679688 54.886719 24.8125 54.949219 C 25.953125 55.011719 30.585938 55.519531 31.769531 55.554688 C 32.910156 55.589844 40.480469 54.476562 40.480469 54.476562 C 40.667969 50.191406 40.566406 46.863281 40.472656 44.210938 C 43.496094 44.375 46.5625 43.601562 49.132812 41.953125 C 48.382812 40.507812 47.640625 38.976562 47.304688 37.136719 Z M 47.300781 37.140625 " fill-opacity="1" fill-rule="nonzero"/><path fill="#afbbc6" d="M 18.683594 40.082031 C 18.953125 36.015625 19.214844 31.882812 18.378906 27.863281 C 18.15625 26.773438 17.84375 25.703125 17.445312 24.664062 C 17.425781 24.617188 17.347656 24.636719 17.367188 24.6875 C 18.820312 28.449219 18.980469 32.53125 18.8125 36.515625 C 18.757812 37.707031 18.683594 38.894531 18.601562 40.082031 C 18.597656 40.132812 18.679688 40.132812 18.683594 40.082031 Z M 18.683594 40.082031 " fill-opacity="1" fill-rule="nonzero"/><path fill="#afbbc6" d="M 13.574219 32.558594 C 13.992188 33.773438 14.644531 34.84375 15.457031 35.828125 C 15.894531 36.355469 16.296875 36.886719 16.578125 37.511719 C 16.871094 38.15625 17.039062 38.84375 17.09375 39.546875 C 17.097656 39.601562 17.175781 39.601562 17.171875 39.546875 C 17.078125 38.292969 16.605469 37.132812 15.824219 36.152344 C 15.382812 35.597656 14.925781 35.066406 14.558594 34.464844 C 14.183594 33.859375 13.882812 33.210938 13.648438 32.539062 C 13.632812 32.488281 13.554688 32.507812 13.574219 32.558594 Z M 13.574219 32.558594 " fill-opacity="1" fill-rule="nonzero"/><path fill="#afbbc6" d="M 15.675781 36.089844 C 16.507812 36.671875 17.53125 37.269531 17.742188 38.351562 C 17.75 38.402344 17.828125 38.382812 17.816406 38.328125 C 17.605469 37.222656 16.5625 36.613281 15.714844 36.019531 C 15.671875 35.992188 15.628906 36.058594 15.671875 36.089844 Z M 15.675781 36.089844 " fill-opacity="1" fill-rule="nonzero"/><path fill="#afbbc6" d="M 9.03125 34.871094 C 9.855469 34.710938 10.707031 34.597656 11.488281 34.265625 C 12.277344 33.929688 13.074219 33.570312 13.792969 33.09375 C 13.832031 33.066406 13.792969 32.996094 13.75 33.023438 C 13.054688 33.484375 12.289062 33.828125 11.53125 34.164062 C 10.730469 34.511719 9.859375 34.628906 9.011719 34.796875 C 8.960938 34.804688 8.980469 34.882812 9.03125 34.871094 Z M 9.03125 34.871094 " fill-opacity="1" fill-rule="nonzero"/><path fill="#afbbc6" d="M 8.773438 33.21875 C 8.957031 33.726562 9.136719 34.234375 9.316406 34.742188 C 9.332031 34.789062 9.410156 34.765625 9.390625 34.71875 C 9.210938 34.210938 9.03125 33.703125 8.851562 33.195312 C 8.832031 33.148438 8.753906 33.167969 8.773438 33.21875 Z M 8.773438 33.21875 " fill-opacity="1" fill-rule="nonzero"/><path fill="#afbbc6" d="M 9.269531 33.0625 C 9.46875 33.597656 9.683594 34.128906 9.917969 34.652344 C 9.9375 34.699219 10.003906 34.660156 9.984375 34.613281 C 9.757812 34.09375 9.542969 33.570312 9.347656 33.039062 C 9.328125 32.992188 9.25 33.011719 9.269531 33.0625 Z M 9.269531 33.0625 " fill-opacity="1" fill-rule="nonzero"/><path fill="#afbbc6" d="M 9.835938 32.875 C 10.066406 33.425781 10.308594 33.972656 10.574219 34.511719 C 10.59375 34.558594 10.664062 34.515625 10.640625 34.46875 C 10.382812 33.9375 10.140625 33.398438 9.914062 32.851562 C 9.894531 32.804688 9.816406 32.824219 9.839844 32.875 Z M 9.835938 32.875 " fill-opacity="1" fill-rule="nonzero"/><path fill="#afbbc6" d="M 10.460938 32.636719 C 10.714844 33.195312 10.972656 33.753906 11.238281 34.304688 C 11.257812 34.351562 11.328125 34.3125 11.304688 34.265625 C 11.042969 33.710938 10.78125 33.15625 10.53125 32.597656 C 10.507812 32.550781 10.4375 32.589844 10.460938 32.636719 Z M 10.460938 32.636719 " fill-opacity="1" fill-rule="nonzero"/><path fill="#afbbc6" d="M 11.242188 32.304688 C 11.492188 32.859375 11.742188 33.410156 11.992188 33.960938 C 12.015625 34.007812 12.082031 33.96875 12.0625 33.921875 C 11.8125 33.371094 11.558594 32.816406 11.308594 32.265625 C 11.289062 32.21875 11.21875 32.257812 11.242188 32.304688 Z M 11.242188 32.304688 " fill-opacity="1" fill-rule="nonzero"/><path fill="#afbbc6" d="M 12.023438 31.921875 C 12.28125 32.46875 12.523438 33.023438 12.753906 33.585938 C 12.773438 33.632812 12.851562 33.609375 12.832031 33.5625 C 12.597656 32.996094 12.351562 32.433594 12.09375 31.882812 C 12.070312 31.835938 12.003906 31.875 12.023438 31.921875 Z M 12.023438 31.921875 " fill-opacity="1" fill-rule="nonzero"/><path fill="#afbbc6" d="M 12.640625 31.59375 C 12.910156 32.144531 13.140625 32.710938 13.335938 33.292969 C 13.351562 33.34375 13.429688 33.320312 13.414062 33.273438 C 13.214844 32.683594 12.976562 32.109375 12.710938 31.554688 C 12.6875 31.507812 12.617188 31.546875 12.640625 31.59375 Z M 12.640625 31.59375 " fill-opacity="1" fill-rule="nonzero"/><path fill="#afbbc6" d="M 45.3125 37.464844 C 45.453125 39.429688 46.058594 41.328125 47.078125 43.007812 C 47.105469 43.050781 47.171875 43.011719 47.144531 42.96875 C 46.132812 41.300781 45.527344 39.414062 45.390625 37.464844 C 45.386719 37.414062 45.308594 37.414062 45.3125 37.464844 Z M 45.3125 37.464844 " fill-opacity="1" fill-rule="nonzero"/><path fill="#afbbc6" d="M 45.398438 37.847656 C 46.039062 37.71875 46.679688 37.605469 47.324219 37.5 C 47.375 37.492188 47.351562 37.414062 47.304688 37.421875 C 46.660156 37.527344 46.019531 37.644531 45.378906 37.769531 C 45.328125 37.777344 45.347656 37.855469 45.398438 37.847656 Z M 45.398438 37.847656 " fill-opacity="1" fill-rule="nonzero"/><path fill="#afbbc6" d="M 45.460938 38.421875 C 46.125 38.304688 46.785156 38.175781 47.445312 38.03125 C 47.492188 38.023438 47.472656 37.945312 47.421875 37.957031 C 46.765625 38.097656 46.105469 38.226562 45.441406 38.347656 C 45.390625 38.355469 45.414062 38.433594 45.460938 38.421875 Z M 45.460938 38.421875 " fill-opacity="1" fill-rule="nonzero"/><path fill="#afbbc6" d="M 45.570312 39.035156 C 46.253906 38.898438 46.929688 38.742188 47.605469 38.578125 C 47.65625 38.566406 47.632812 38.492188 47.582031 38.503906 C 46.910156 38.667969 46.230469 38.820312 45.550781 38.957031 C 45.5 38.96875 45.523438 39.046875 45.570312 39.035156 Z M 45.570312 39.035156 " fill-opacity="1" fill-rule="nonzero"/><path fill="#afbbc6" d="M 45.75 39.820312 C 46.441406 39.640625 47.136719 39.460938 47.828125 39.277344 C 47.878906 39.265625 47.855469 39.1875 47.808594 39.203125 C 47.113281 39.382812 46.421875 39.5625 45.726562 39.742188 C 45.679688 39.753906 45.699219 39.832031 45.75 39.820312 Z M 45.75 39.820312 " fill-opacity="1" fill-rule="nonzero"/><path fill="#afbbc6" d="M 46.003906 40.558594 C 46.355469 40.425781 46.710938 40.292969 47.0625 40.160156 C 47.394531 40.035156 47.730469 39.914062 48.046875 39.753906 C 48.09375 39.730469 48.054688 39.660156 48.007812 39.683594 C 47.683594 39.851562 47.339844 39.96875 47.003906 40.097656 C 46.664062 40.226562 46.324219 40.355469 45.984375 40.484375 C 45.9375 40.5 45.957031 40.578125 46.003906 40.558594 Z M 46.003906 40.558594 " fill-opacity="1" fill-rule="nonzero"/><path fill="#afbbc6" d="M 46.324219 41.441406 C 46.671875 41.332031 46.996094 41.164062 47.324219 41 C 47.667969 40.824219 48.011719 40.648438 48.351562 40.46875 C 48.398438 40.445312 48.355469 40.375 48.3125 40.402344 C 47.980469 40.574219 47.652344 40.742188 47.320312 40.910156 C 46.988281 41.078125 46.660156 41.253906 46.304688 41.363281 C 46.253906 41.378906 46.277344 41.457031 46.324219 41.441406 Z M 46.324219 41.441406 " fill-opacity="1" fill-rule="nonzero"/><path fill="#afbbc6" d="M 46.667969 42.191406 C 46.832031 42.136719 46.992188 42.050781 47.152344 41.976562 C 47.320312 41.894531 47.492188 41.8125 47.664062 41.730469 C 48.011719 41.5625 48.359375 41.386719 48.699219 41.207031 C 48.746094 41.183594 48.703125 41.113281 48.660156 41.136719 C 48.328125 41.308594 47.996094 41.480469 47.660156 41.644531 C 47.496094 41.722656 47.328125 41.804688 47.164062 41.882812 C 46.996094 41.960938 46.824219 42.054688 46.648438 42.117188 C 46.597656 42.132812 46.621094 42.210938 46.667969 42.191406 Z M 46.667969 42.191406 " fill-opacity="1" fill-rule="nonzero"/><path fill="#afbbc6" d="M 47.0625 42.898438 C 47.738281 42.59375 48.382812 42.226562 48.992188 41.804688 C 49.035156 41.773438 48.996094 41.707031 48.953125 41.734375 C 48.34375 42.160156 47.695312 42.523438 47.019531 42.828125 C 46.972656 42.847656 47.015625 42.917969 47.0625 42.898438 Z M 47.0625 42.898438 " fill-opacity="1" fill-rule="nonzero"/><path fill="#afbbc6" d="M 40.550781 44.058594 C 40.140625 41.507812 40.050781 38.957031 40.023438 36.378906 C 40.011719 35.113281 39.960938 33.855469 39.824219 32.597656 C 39.691406 31.355469 39.507812 30.121094 39.375 28.878906 C 39.230469 27.472656 39.15625 26.054688 39.300781 24.640625 C 39.308594 24.589844 39.226562 24.589844 39.222656 24.640625 C 38.964844 27.167969 39.40625 29.675781 39.695312 32.179688 C 39.84375 33.449219 39.921875 34.722656 39.9375 36 C 39.957031 37.285156 39.949219 38.570312 40.019531 39.855469 C 40.09375 41.269531 40.25 42.683594 40.472656 44.082031 C 40.480469 44.128906 40.558594 44.109375 40.550781 44.058594 Z M 40.550781 44.058594 " fill-opacity="1" fill-rule="nonzero"/><path fill="#afbbc6" d="M 41.929688 37.8125 C 41.300781 37.941406 40.710938 38.21875 40.207031 38.625 C 40.167969 38.660156 40.226562 38.714844 40.265625 38.683594 C 40.753906 38.285156 41.335938 38.015625 41.953125 37.886719 C 42 37.878906 41.980469 37.800781 41.929688 37.8125 Z M 41.929688 37.8125 " fill-opacity="1" fill-rule="nonzero"/><path fill="#afbbc6" d="M 25.582031 22.621094 C 26.800781 23.058594 28.101562 22.996094 29.367188 22.851562 C 30.601562 22.710938 31.839844 22.519531 32.984375 22.023438 C 33.03125 22.003906 32.992188 21.933594 32.945312 21.953125 C 31.78125 22.457031 30.519531 22.644531 29.265625 22.78125 C 28.042969 22.917969 26.78125 22.96875 25.601562 22.546875 C 25.554688 22.527344 25.53125 22.605469 25.578125 22.621094 Z M 25.582031 22.621094 " fill-opacity="1" fill-rule="nonzero"/><path fill="#afbbc6" d="M 28.261719 21.710938 C 28.296875 22.09375 28.339844 22.480469 28.386719 22.863281 C 28.394531 22.914062 28.472656 22.914062 28.46875 22.863281 C 28.421875 22.480469 28.378906 22.09375 28.34375 21.710938 C 28.335938 21.660156 28.257812 21.65625 28.261719 21.710938 Z M 28.261719 21.710938 " fill-opacity="1" fill-rule="nonzero"/><path fill="#afbbc6" d="M 27.632812 21.746094 C 27.640625 22.125 27.671875 22.507812 27.71875 22.886719 C 27.726562 22.933594 27.804688 22.9375 27.796875 22.886719 C 27.75 22.507812 27.722656 22.125 27.710938 21.746094 C 27.710938 21.695312 27.628906 21.695312 27.632812 21.746094 Z M 27.632812 21.746094 " fill-opacity="1" fill-rule="nonzero"/><path fill="#afbbc6" d="M 26.957031 21.753906 C 26.945312 22.117188 26.949219 22.484375 26.960938 22.847656 C 26.960938 22.898438 27.042969 22.898438 27.039062 22.847656 C 27.027344 22.484375 27.027344 22.117188 27.035156 21.753906 C 27.035156 21.703125 26.957031 21.703125 26.957031 21.753906 Z M 26.957031 21.753906 " fill-opacity="1" fill-rule="nonzero"/><path fill="#afbbc6" d="M 26.339844 21.738281 C 26.347656 22.078125 26.351562 22.417969 26.359375 22.757812 C 26.359375 22.808594 26.4375 22.808594 26.4375 22.757812 C 26.433594 22.417969 26.425781 22.078125 26.421875 21.738281 C 26.421875 21.6875 26.339844 21.6875 26.339844 21.738281 Z M 26.339844 21.738281 " fill-opacity="1" fill-rule="nonzero"/><path fill="#afbbc6" d="M 25.816406 21.714844 C 25.808594 22.015625 25.796875 22.316406 25.777344 22.617188 C 25.773438 22.667969 25.851562 22.667969 25.855469 22.617188 C 25.875 22.316406 25.886719 22.015625 25.894531 21.714844 C 25.894531 21.664062 25.816406 21.664062 25.816406 21.714844 Z M 25.816406 21.714844 " fill-opacity="1" fill-rule="nonzero"/><path fill="#afbbc6" d="M 28.910156 21.621094 C 28.996094 22.011719 29.066406 22.402344 29.125 22.796875 C 29.132812 22.847656 29.210938 22.828125 29.203125 22.777344 C 29.144531 22.382812 29.074219 21.988281 28.988281 21.601562 C 28.976562 21.550781 28.902344 21.570312 28.910156 21.621094 Z M 28.910156 21.621094 " fill-opacity="1" fill-rule="nonzero"/><path fill="#afbbc6" d="M 29.6875 21.507812 C 29.769531 21.90625 29.851562 22.304688 29.933594 22.699219 C 29.941406 22.75 30.019531 22.730469 30.011719 22.675781 C 29.929688 22.28125 29.847656 21.882812 29.765625 21.488281 C 29.753906 21.4375 29.679688 21.457031 29.691406 21.507812 Z M 29.6875 21.507812 " fill-opacity="1" fill-rule="nonzero"/><path fill="#afbbc6" d="M 30.550781 21.277344 C 30.6875 21.707031 30.792969 22.148438 30.863281 22.597656 C 30.871094 22.648438 30.949219 22.625 30.941406 22.574219 C 30.871094 22.128906 30.765625 21.6875 30.628906 21.257812 C 30.613281 21.210938 30.535156 21.230469 30.550781 21.28125 Z M 30.550781 21.277344 " fill-opacity="1" fill-rule="nonzero"/><path fill="#afbbc6" d="M 31.277344 21.074219 C 31.40625 21.515625 31.511719 21.964844 31.597656 22.417969 C 31.609375 22.46875 31.683594 22.445312 31.675781 22.394531 C 31.589844 21.945312 31.480469 21.496094 31.351562 21.054688 C 31.339844 21.003906 31.261719 21.023438 31.277344 21.074219 Z M 31.277344 21.074219 " fill-opacity="1" fill-rule="nonzero"/><path fill="#afbbc6" d="M 32.019531 20.773438 C 32.152344 21.242188 32.285156 21.714844 32.421875 22.183594 C 32.433594 22.234375 32.511719 22.210938 32.496094 22.160156 C 32.363281 21.691406 32.226562 21.222656 32.09375 20.753906 C 32.078125 20.703125 32.003906 20.726562 32.015625 20.773438 Z M 32.019531 20.773438 " fill-opacity="1" fill-rule="nonzero"/><path fill="#afbbc6" d="M 30.558594 55.382812 C 30.183594 54.46875 29.898438 53.511719 29.753906 52.53125 C 29.59375 51.449219 29.617188 50.351562 29.617188 49.261719 C 29.617188 47.109375 29.519531 44.960938 29.320312 42.820312 C 29.316406 42.769531 29.234375 42.769531 29.242188 42.820312 C 29.445312 44.996094 29.539062 47.179688 29.539062 49.367188 C 29.535156 50.398438 29.523438 51.433594 29.664062 52.457031 C 29.804688 53.472656 30.097656 54.460938 30.480469 55.40625 C 30.5 55.453125 30.578125 55.433594 30.558594 55.386719 Z M 30.558594 55.382812 " fill-opacity="1" fill-rule="nonzero"/><path fill="#afbbc6" d="M 34.015625 55.214844 C 34.382812 53.34375 34.460938 51.429688 34.246094 49.535156 C 34.242188 49.488281 34.160156 49.484375 34.167969 49.535156 C 34.382812 51.421875 34.304688 53.328125 33.9375 55.191406 C 33.925781 55.242188 34.003906 55.265625 34.015625 55.214844 Z M 34.015625 55.214844 " fill-opacity="1" fill-rule="nonzero"/><path fill="#afbbc6" d="M 24.492188 54.808594 C 23.621094 53.621094 23.066406 52.226562 22.890625 50.761719 C 22.882812 50.710938 22.804688 50.710938 22.8125 50.761719 C 22.988281 52.242188 23.542969 53.648438 24.421875 54.847656 C 24.453125 54.886719 24.523438 54.847656 24.492188 54.808594 Z M 24.492188 54.808594 " fill-opacity="1" fill-rule="nonzero"/><path fill="#ff7a5a" d="M 11.808594 29.972656 C 11.464844 30.457031 10.898438 30.761719 10.304688 30.777344 C 10.257812 30.777344 10.257812 30.855469 10.304688 30.851562 C 10.925781 30.832031 11.515625 30.515625 11.871094 30.007812 C 11.902344 29.96875 11.835938 29.933594 11.808594 29.972656 Z M 11.808594 29.972656 " fill-opacity="1" fill-rule="nonzero"/><path fill="#ff7a5a" d="M 11.675781 23.558594 C 10.941406 23.933594 10.320312 24.488281 9.753906 25.085938 C 9.519531 25.335938 9.238281 25.605469 9.140625 25.945312 C 9.027344 26.320312 9.199219 26.675781 9.367188 27 C 9.390625 27.042969 9.457031 27.007812 9.433594 26.964844 C 9.242188 26.59375 9.074219 26.207031 9.277344 25.800781 C 9.4375 25.484375 9.726562 25.222656 9.972656 24.96875 C 10.488281 24.441406 11.054688 23.960938 11.714844 23.625 C 11.757812 23.601562 11.722656 23.535156 11.679688 23.558594 Z M 11.675781 23.558594 " fill-opacity="1" fill-rule="nonzero"/><path fill="#ff7a5a" d="M 11.222656 22.867188 C 10.746094 23.164062 10.273438 23.464844 9.804688 23.773438 C 9.429688 24.019531 9.046875 24.265625 8.707031 24.558594 C 8.40625 24.824219 8.136719 25.132812 7.988281 25.507812 C 7.792969 25.988281 7.90625 26.421875 8.097656 26.882812 C 8.113281 26.925781 8.1875 26.90625 8.167969 26.863281 C 7.96875 26.375 7.863281 25.921875 8.105469 25.425781 C 8.285156 25.050781 8.582031 24.75 8.902344 24.496094 C 9.636719 23.910156 10.464844 23.425781 11.261719 22.933594 C 11.300781 22.910156 11.265625 22.84375 11.222656 22.871094 Z M 11.222656 22.867188 " fill-opacity="1" fill-rule="nonzero"/><path fill="#ff7a5a" d="M 10.597656 22.410156 C 9.660156 22.964844 8.675781 23.484375 7.832031 24.175781 C 7.148438 24.734375 6.222656 25.652344 6.59375 26.625 C 6.609375 26.671875 6.683594 26.648438 6.667969 26.605469 C 6.277344 25.574219 7.371094 24.609375 8.101562 24.058594 C 8.894531 23.457031 9.785156 22.980469 10.636719 22.472656 C 10.679688 22.449219 10.640625 22.382812 10.601562 22.410156 Z M 10.597656 22.410156 " fill-opacity="1" fill-rule="nonzero"/><path fill="#ead2b5" d="M 29.464844 55.429688 C 29.558594 56.824219 29.5625 58.222656 29.519531 59.617188 C 29.472656 61.050781 29.390625 62.484375 29.53125 63.914062 C 29.539062 63.96875 29.617188 63.96875 29.613281 63.914062 C 29.472656 62.488281 29.554688 61.050781 29.601562 59.617188 C 29.644531 58.222656 29.640625 56.824219 29.546875 55.429688 C 29.542969 55.378906 29.460938 55.378906 29.464844 55.429688 Z M 29.464844 55.429688 " fill-opacity="1" fill-rule="nonzero"/><path fill="#ead2b5" d="M 29.566406 63.21875 C 30.117188 63.128906 30.585938 62.945312 30.769531 62.371094 C 30.960938 61.753906 30.875 61.023438 30.882812 60.386719 C 30.902344 58.777344 30.925781 57.167969 30.945312 55.558594 C 30.945312 55.503906 30.863281 55.503906 30.863281 55.558594 C 30.84375 56.988281 30.828125 58.421875 30.808594 59.855469 C 30.800781 60.519531 30.824219 61.191406 30.773438 61.855469 C 30.75 62.164062 30.691406 62.488281 30.484375 62.734375 C 30.25 63.011719 29.886719 63.085938 29.542969 63.140625 C 29.492188 63.148438 29.515625 63.226562 29.566406 63.21875 Z M 29.566406 63.21875 " fill-opacity="1" fill-rule="nonzero"/><path fill="#ead2b5" d="M 23.625 54.980469 C 23.136719 56.171875 22.578125 57.375 21.683594 58.320312 C 20.757812 59.304688 19.511719 59.851562 18.246094 60.253906 C 18.199219 60.269531 18.21875 60.351562 18.269531 60.335938 C 19.546875 59.925781 20.804688 59.371094 21.742188 58.382812 C 22.648438 57.425781 23.210938 56.207031 23.703125 55.003906 C 23.726562 54.953125 23.644531 54.933594 23.625 54.980469 Z M 23.625 54.980469 " fill-opacity="1" fill-rule="nonzero"/><path fill="#ead2b5" d="M 35.78125 55.246094 C 36.449219 57.742188 38.140625 60.070312 40.765625 60.671875 C 40.820312 60.683594 40.839844 60.605469 40.789062 60.59375 C 38.1875 59.996094 36.519531 57.691406 35.859375 55.222656 C 35.847656 55.171875 35.769531 55.195312 35.78125 55.246094 Z M 35.78125 55.246094 " fill-opacity="1" fill-rule="nonzero"/><path fill="#ffffff" d="M 30.578125 56.15625 C 30.578125 56.375 30.398438 56.550781 30.183594 56.550781 C 29.964844 56.550781 29.789062 56.375 29.789062 56.15625 C 29.789062 55.941406 29.964844 55.761719 30.183594 55.761719 C 30.398438 55.761719 30.578125 55.941406 30.578125 56.15625 Z M 30.578125 56.15625 " fill-opacity="1" fill-rule="nonzero"/></svg>