<svg xmlns="http://www.w3.org/2000/svg" xmlns:xlink="http://www.w3.org/1999/xlink" width="40" zoomAndPan="magnify" viewBox="0 0 30 37.5" height="50" preserveAspectRatio="xMidYMid meet" version="1.0"><defs><clipPath id="ed33a3d4b6"><path d="M 0.613281 0.113281 L 29.476562 0.113281 L 29.476562 37.007812 L 0.613281 37.007812 Z M 0.613281 0.113281 " clip-rule="nonzero"/></clipPath></defs><g clip-path="url(#ed33a3d4b6)"><path fill="#876c56" d="M 0.613281 3.941406 L 24.265625 0.117188 L 29.476562 33.292969 L 5.828125 37.117188 Z M 0.613281 3.941406 " fill-opacity="1" fill-rule="evenodd"/></g><path fill="#daa38f" d="M 1.941406 6.007812 L 22.117188 1.757812 L 28.148438 31.226562 L 7.976562 35.476562 Z M 1.941406 6.007812 " fill-opacity="1" fill-rule="evenodd"/><path fill="#92ada4" d="M 3.265625 4.730469 L 23.757812 2.566406 L 26.828125 32.503906 L 6.332031 34.667969 Z M 3.265625 4.730469 " fill-opacity="1" fill-rule="evenodd"/><path fill="#ffffff" d="M 2.535156 5.402344 L 22.886719 2.109375 L 27.554688 31.835938 L 7.207031 35.125 Z M 2.535156 5.402344 " fill-opacity="1" fill-rule="evenodd"/><path fill="#e9d7bf" d="M 6.132812 3.503906 L 18.875 1.445312 L 18.984375 2.136719 L 6.242188 4.199219 Z M 6.132812 3.503906 " fill-opacity="1" fill-rule="evenodd"/><path fill="#e9d7bf" d="M 19.402344 2.117188 L 19.859375 5.023438 C 19.898438 5.28125 19.722656 5.527344 19.46875 5.570312 L 6.835938 7.609375 C 6.578125 7.652344 6.335938 7.476562 6.296875 7.214844 L 5.839844 4.308594 C 5.800781 4.050781 5.972656 3.804688 6.230469 3.765625 L 18.863281 1.722656 C 19.121094 1.679688 19.359375 1.855469 19.402344 2.117188 Z M 19.246094 2.140625 C 19.21875 1.96875 19.058594 1.851562 18.886719 1.878906 L 6.253906 3.921875 C 6.082031 3.949219 5.96875 4.113281 5.996094 4.285156 L 6.453125 7.191406 C 6.476562 7.363281 6.640625 7.480469 6.808594 7.453125 L 19.441406 5.410156 C 19.613281 5.382812 19.730469 5.21875 19.703125 5.046875 Z M 19.246094 2.140625 " fill-opacity="1" fill-rule="evenodd"/><path fill="#e9d7bf" d="M 6.261719 7.839844 L 5.996094 6.152344 L 6.410156 6.085938 L 6.609375 7.351562 L 7.648438 7.183594 L 7.714844 7.605469 Z M 6.261719 7.839844 " fill-opacity="1" fill-rule="evenodd"/><path fill="#e9d7bf" d="M 20.089844 5.601562 L 19.828125 3.917969 L 19.410156 3.984375 L 19.609375 5.25 L 18.570312 5.417969 L 18.636719 5.835938 Z M 20.089844 5.601562 " fill-opacity="1" fill-rule="evenodd"/><path fill="#daa38f" d="M 10.46875 11.78125 L 21.261719 10.035156 L 21.351562 10.605469 L 10.558594 12.351562 Z M 10.46875 11.78125 " fill-opacity="1" fill-rule="evenodd"/><path fill="#92ada4" d="M 11.199219 16.429688 L 21.992188 14.683594 L 22.082031 15.253906 L 11.289062 17 Z M 11.199219 16.429688 " fill-opacity="1" fill-rule="evenodd"/><path fill="#daa38f" d="M 11.984375 21.429688 L 22.78125 19.683594 L 22.871094 20.253906 L 12.074219 22 Z M 11.984375 21.429688 " fill-opacity="1" fill-rule="evenodd"/><path fill="#92ada4" d="M 12.792969 26.574219 L 23.585938 24.828125 L 23.675781 25.398438 L 12.882812 27.144531 Z M 12.792969 26.574219 " fill-opacity="1" fill-rule="evenodd"/><path fill="#daa38f" d="M 6.882812 13.777344 L 5.992188 12.972656 C 5.835938 12.832031 5.820312 12.585938 5.960938 12.429688 C 6.097656 12.269531 6.339844 12.257812 6.496094 12.398438 L 7.046875 12.894531 L 8.292969 10.726562 C 8.398438 10.542969 8.628906 10.480469 8.808594 10.589844 C 8.992188 10.695312 9.050781 10.929688 8.945312 11.113281 L 7.472656 13.679688 C 7.464844 13.695312 7.457031 13.707031 7.445312 13.71875 C 7.425781 13.75 7.398438 13.777344 7.371094 13.800781 C 7.320312 13.839844 7.261719 13.863281 7.199219 13.875 C 7.140625 13.882812 7.074219 13.878906 7.015625 13.855469 C 6.980469 13.84375 6.949219 13.828125 6.917969 13.804688 C 6.90625 13.796875 6.894531 13.785156 6.882812 13.777344 Z M 6.882812 13.777344 " fill-opacity="1" fill-rule="evenodd"/><path fill="#92ada4" d="M 7.625 18.503906 L 6.734375 17.699219 C 6.578125 17.558594 6.5625 17.3125 6.703125 17.15625 C 6.839844 16.996094 7.082031 16.980469 7.238281 17.125 L 7.789062 17.621094 L 9.035156 15.453125 C 9.140625 15.269531 9.371094 15.207031 9.550781 15.3125 C 9.734375 15.421875 9.792969 15.65625 9.6875 15.839844 L 8.214844 18.40625 C 8.207031 18.421875 8.199219 18.433594 8.1875 18.445312 C 8.167969 18.476562 8.140625 18.503906 8.113281 18.527344 C 8.0625 18.566406 8.003906 18.589844 7.941406 18.597656 C 7.882812 18.609375 7.820312 18.605469 7.757812 18.582031 C 7.722656 18.570312 7.691406 18.554688 7.660156 18.53125 C 7.648438 18.523438 7.636719 18.511719 7.625 18.503906 Z M 7.625 18.503906 " fill-opacity="1" fill-rule="evenodd"/><path fill="#daa38f" d="M 8.390625 23.382812 L 7.5 22.578125 C 7.34375 22.4375 7.332031 22.195312 7.46875 22.035156 C 7.609375 21.878906 7.847656 21.863281 8.003906 22.003906 L 8.554688 22.5 L 9.800781 20.332031 C 9.90625 20.152344 10.140625 20.089844 10.320312 20.195312 C 10.5 20.300781 10.5625 20.539062 10.457031 20.722656 L 8.980469 23.289062 C 8.972656 23.300781 8.964844 23.3125 8.957031 23.328125 C 8.933594 23.355469 8.90625 23.382812 8.878906 23.40625 C 8.828125 23.445312 8.769531 23.46875 8.710938 23.480469 C 8.648438 23.488281 8.585938 23.484375 8.527344 23.464844 C 8.492188 23.453125 8.457031 23.433594 8.425781 23.410156 C 8.414062 23.402344 8.402344 23.394531 8.390625 23.382812 Z M 8.390625 23.382812 " fill-opacity="1" fill-rule="evenodd"/><path fill="#92ada4" d="M 9.179688 28.386719 L 8.285156 27.582031 C 8.128906 27.441406 8.117188 27.199219 8.253906 27.039062 C 8.394531 26.882812 8.632812 26.867188 8.789062 27.007812 L 9.339844 27.503906 L 10.585938 25.335938 C 10.691406 25.15625 10.925781 25.09375 11.105469 25.199219 C 11.285156 25.304688 11.347656 25.542969 11.242188 25.726562 L 9.765625 28.292969 C 9.757812 28.304688 9.75 28.316406 9.742188 28.332031 C 9.71875 28.363281 9.695312 28.386719 9.664062 28.410156 C 9.613281 28.449219 9.554688 28.472656 9.496094 28.484375 C 9.433594 28.492188 9.371094 28.488281 9.3125 28.46875 C 9.277344 28.457031 9.242188 28.4375 9.214844 28.414062 C 9.203125 28.40625 9.191406 28.398438 9.179688 28.386719 Z M 9.179688 28.386719 " fill-opacity="1" fill-rule="evenodd"/></svg>