<svg xmlns="http://www.w3.org/2000/svg" xmlns:xlink="http://www.w3.org/1999/xlink" width="74" zoomAndPan="magnify" viewBox="0 0 55.5 30.000001" height="40" preserveAspectRatio="xMidYMid meet" version="1.0"><defs><clipPath id="975e7b08f7"><path d="M 1.78125 0 L 54.363281 0 L 54.363281 28.570312 L 1.78125 28.570312 Z M 1.78125 0 " clip-rule="nonzero"/></clipPath><clipPath id="8a8836194f"><path d="M 27 22 L 28 22 L 28 29.03125 L 27 29.03125 Z M 27 22 " clip-rule="nonzero"/></clipPath><clipPath id="128908a36f"><path d="M 18.214844 26.207031 L 18.90625 26.207031 L 18.90625 29.03125 L 18.214844 29.03125 Z M 18.214844 26.207031 " clip-rule="nonzero"/></clipPath><clipPath id="ed71002c88"><path d="M 12.917969 26.207031 L 13.605469 26.207031 L 13.605469 29.03125 L 12.917969 29.03125 Z M 12.917969 26.207031 " clip-rule="nonzero"/></clipPath><clipPath id="2738cb0340"><path d="M 4.25 26.207031 L 4.9375 26.207031 L 4.9375 29.03125 L 4.25 29.03125 Z M 4.25 26.207031 " clip-rule="nonzero"/></clipPath><clipPath id="c5a7ea2543"><path d="M 9.550781 26.207031 L 10.238281 26.207031 L 10.238281 29.03125 L 9.550781 29.03125 Z M 9.550781 26.207031 " clip-rule="nonzero"/></clipPath><clipPath id="944e57cffa"><path d="M 0.769531 11 L 20 11 L 20 27 L 0.769531 27 Z M 0.769531 11 " clip-rule="nonzero"/></clipPath><clipPath id="4b9e5028f9"><path d="M 10 18 L 28 18 L 28 29.03125 L 10 29.03125 Z M 10 18 " clip-rule="nonzero"/></clipPath><clipPath id="06f47887df"><path d="M 22 22 L 27 22 L 27 29.03125 L 22 29.03125 Z M 22 22 " clip-rule="nonzero"/></clipPath><clipPath id="5ec7a606f0"><path d="M 35.339844 26.207031 L 36.007812 26.207031 L 36.007812 29.03125 L 35.339844 29.03125 Z M 35.339844 26.207031 " clip-rule="nonzero"/></clipPath><clipPath id="ba13a902ab"><path d="M 40.636719 26.207031 L 41.328125 26.207031 L 41.328125 29.03125 L 40.636719 29.03125 Z M 40.636719 26.207031 " clip-rule="nonzero"/></clipPath><clipPath id="e0800a6b88"><path d="M 49.304688 26.207031 L 49.992188 26.207031 L 49.992188 29.03125 L 49.304688 29.03125 Z M 49.304688 26.207031 " clip-rule="nonzero"/></clipPath><clipPath id="4a8bc119c8"><path d="M 44.003906 26.207031 L 44.675781 26.207031 L 44.675781 29.03125 L 44.003906 29.03125 Z M 44.003906 26.207031 " clip-rule="nonzero"/></clipPath><clipPath id="a7ff5d3156"><path d="M 29.464844 19.769531 L 43.757812 19.769531 L 43.757812 29.03125 L 29.464844 29.03125 Z M 29.464844 19.769531 " clip-rule="nonzero"/></clipPath><clipPath id="02ce2c775e"><path d="M 32.582031 23.769531 L 34.609375 23.769531 L 34.609375 29.03125 L 32.582031 29.03125 Z M 32.582031 23.769531 " clip-rule="nonzero"/></clipPath><clipPath id="ca0a69110e"><path d="M 33.617188 19.75 L 46.300781 19.75 L 46.300781 29.03125 L 33.617188 29.03125 Z M 33.617188 19.75 " clip-rule="nonzero"/></clipPath></defs><g clip-path="url(#975e7b08f7)"><path fill="#fcf7f5" d="M 53.753906 9.574219 C 53.171875 8.34375 52.21875 7.226562 50.816406 6.316406 C 49.90625 5.730469 48.871094 5.328125 47.792969 5.1875 C 44.734375 4.78125 41.929688 6.589844 39.652344 8.410156 C 37.582031 10.070312 35.664062 11.960938 33.339844 13.246094 C 31.015625 14.535156 28.117188 15.148438 25.695312 14.058594 C 23.847656 13.226562 22.539062 11.539062 21.535156 9.785156 C 20.535156 8.03125 19.753906 6.140625 18.554688 4.515625 C 16.410156 1.609375 12.796875 -0.308594 9.195312 0.0429688 C 6.972656 0.257812 4.855469 1.4375 3.441406 3.148438 C 1.726562 5.234375 1.398438 8.757812 2.253906 11.273438 C 2.871094 13.09375 3.964844 13.976562 5.136719 15.5 C 7.0625 18.007812 9.539062 20.054688 12.171875 21.8125 C 17.789062 25.558594 24.308594 28.101562 31.058594 28.5 C 37.8125 28.898438 44.027344 27.0625 49.308594 22.859375 C 53.152344 19.800781 55.820312 13.960938 53.753906 9.574219 " fill-opacity="1" fill-rule="nonzero"/></g><path fill="#32694c" d="M 22.636719 18.273438 C 22.632812 18.34375 22.628906 18.382812 22.628906 18.382812 C 22.628906 18.382812 22.605469 18.367188 22.566406 18.332031 C 22.273438 18.09375 20.949219 16.984375 20.367188 15.816406 C 19.789062 14.65625 19.324219 12.855469 19.222656 12.433594 C 19.207031 12.375 19.199219 12.34375 19.199219 12.34375 C 19.199219 12.34375 19.238281 12.367188 19.308594 12.40625 C 19.742188 12.671875 21.363281 13.714844 22.011719 14.921875 C 22.699219 16.203125 22.660156 17.839844 22.636719 18.273438 " fill-opacity="1" fill-rule="nonzero"/><path fill="#32694c" d="M 24.496094 17.472656 C 24.476562 17.574219 24.464844 17.628906 24.464844 17.628906 C 24.464844 17.628906 24.449219 17.597656 24.414062 17.539062 C 24.191406 17.132812 23.257812 15.394531 22.765625 13.808594 C 22.265625 12.183594 22.019531 9.183594 21.972656 8.589844 C 21.96875 8.519531 21.964844 8.484375 21.964844 8.484375 C 21.964844 8.484375 21.992188 8.507812 22.046875 8.550781 C 22.441406 8.878906 24.148438 10.394531 24.589844 12.3125 C 25.019531 14.199219 24.609375 16.8125 24.496094 17.472656 " fill-opacity="1" fill-rule="nonzero"/><path fill="#32694c" d="M 30.027344 7.429688 C 30.027344 7.429688 30.027344 7.460938 30.027344 7.527344 C 30.007812 8.027344 29.886719 10.308594 29.132812 12.386719 C 28.367188 14.492188 26.648438 17.503906 26.296875 18.117188 C 26.253906 18.1875 26.230469 18.226562 26.230469 18.226562 C 26.230469 18.226562 26.226562 18.164062 26.222656 18.050781 C 26.1875 17.203125 26.082031 13.484375 26.765625 11.578125 C 27.457031 9.640625 29.527344 7.847656 29.953125 7.492188 C 30 7.449219 30.027344 7.429688 30.027344 7.429688 " fill-opacity="1" fill-rule="nonzero"/><path fill="#32694c" d="M 30.273438 15.019531 C 30.273438 15.019531 30.273438 15.050781 30.261719 15.101562 C 30.214844 15.402344 30.007812 16.515625 29.476562 17.460938 C 29.101562 18.125 28.140625 19.035156 27.875 19.277344 C 27.871094 19.277344 27.871094 19.277344 27.871094 19.277344 C 27.828125 19.316406 27.804688 19.339844 27.804688 19.339844 C 27.804688 19.339844 27.800781 19.304688 27.796875 19.246094 C 27.765625 18.882812 27.695312 17.558594 28.222656 16.664062 C 28.746094 15.769531 29.875 15.203125 30.191406 15.058594 C 30.246094 15.035156 30.273438 15.019531 30.273438 15.019531 " fill-opacity="1" fill-rule="nonzero"/><path fill="#361e14" d="M 30.027344 7.429688 C 30.027344 7.429688 30.027344 7.460938 30.027344 7.527344 C 29.609375 8.371094 28.152344 11.390625 27.515625 13.308594 C 26.925781 15.089844 26.535156 16.824219 26.296875 18.117188 C 26.058594 19.402344 25.964844 20.246094 25.960938 20.265625 L 25.878906 20.253906 C 25.882812 20.238281 25.976562 19.367188 26.222656 18.050781 C 26.464844 16.761719 26.851562 15.046875 27.4375 13.28125 C 28.078125 11.359375 29.535156 8.335938 29.953125 7.492188 C 30 7.449219 30.027344 7.429688 30.027344 7.429688 " fill-opacity="1" fill-rule="nonzero"/><path fill="#361e14" d="M 30.273438 15.019531 C 30.273438 15.019531 30.273438 15.050781 30.261719 15.101562 C 29.933594 15.507812 29.117188 16.550781 28.644531 17.488281 C 28.351562 18.066406 28.078125 18.738281 27.875 19.277344 C 27.871094 19.277344 27.871094 19.277344 27.871094 19.277344 C 27.65625 19.84375 27.519531 20.265625 27.515625 20.273438 L 27.4375 20.246094 C 27.441406 20.238281 27.578125 19.816406 27.796875 19.246094 C 28 18.707031 28.273438 18.03125 28.566406 17.449219 C 29.042969 16.511719 29.855469 15.472656 30.191406 15.058594 C 30.246094 15.035156 30.273438 15.019531 30.273438 15.019531 " fill-opacity="1" fill-rule="nonzero"/><path fill="#361e14" d="M 23.242188 20.496094 L 23.160156 20.515625 C 23.160156 20.5 22.953125 19.527344 22.566406 18.332031 C 22.332031 17.597656 22.027344 16.773438 21.660156 16.03125 C 20.894531 14.480469 19.683594 12.980469 19.222656 12.433594 C 19.207031 12.375 19.199219 12.34375 19.199219 12.34375 C 19.199219 12.34375 19.238281 12.367188 19.308594 12.40625 C 19.789062 12.976562 20.976562 14.460938 21.734375 15.996094 C 22.097656 16.726562 22.398438 17.539062 22.636719 18.273438 C 23.027344 19.488281 23.238281 20.480469 23.242188 20.496094 " fill-opacity="1" fill-rule="nonzero"/><path fill="#361e14" d="M 24.628906 20.507812 L 24.546875 20.507812 C 24.546875 20.484375 24.542969 19.21875 24.414062 17.539062 C 24.316406 16.246094 24.144531 14.703125 23.84375 13.292969 C 23.476562 11.582031 22.34375 9.308594 21.972656 8.589844 C 21.96875 8.519531 21.964844 8.484375 21.964844 8.484375 C 21.964844 8.484375 21.992188 8.507812 22.046875 8.550781 C 22.421875 9.273438 23.558594 11.554688 23.925781 13.277344 C 24.222656 14.667969 24.394531 16.1875 24.496094 17.472656 C 24.628906 19.1875 24.628906 20.484375 24.628906 20.507812 " fill-opacity="1" fill-rule="nonzero"/><path fill="#fad178" d="M 29.089844 19.894531 C 29.050781 20.765625 28.933594 21.765625 28.214844 22.460938 C 28.183594 22.488281 28.15625 22.515625 28.125 22.542969 C 27.578125 23.019531 26.71875 23.332031 25.351562 23.332031 C 21.984375 23.332031 21.6875 21.417969 21.613281 19.894531 L 29.089844 19.894531 " fill-opacity="1" fill-rule="nonzero"/><path fill="#361e14" d="M 28.214844 22.460938 C 28.183594 22.488281 28.15625 22.515625 28.125 22.542969 L 22.996094 22.542969 L 22.996094 22.460938 L 28.214844 22.460938 " fill-opacity="1" fill-rule="nonzero"/><g clip-path="url(#8a8836194f)"><path fill="#361e14" d="M 27.804688 29.019531 L 27.722656 29.019531 L 27.722656 22.503906 L 27.804688 22.503906 L 27.804688 29.019531 " fill-opacity="1" fill-rule="nonzero"/></g><g clip-path="url(#128908a36f)"><path fill="#361e14" d="M 18.816406 29.03125 L 18.902344 29.03125 L 18.316406 26.253906 C 18.308594 26.230469 18.289062 26.21875 18.265625 26.222656 C 18.242188 26.226562 18.230469 26.25 18.234375 26.273438 L 18.816406 29.03125 " fill-opacity="1" fill-rule="nonzero"/></g><g clip-path="url(#ed71002c88)"><path fill="#361e14" d="M 13.511719 29.03125 L 13.597656 29.03125 L 13.011719 26.253906 C 13.007812 26.230469 12.984375 26.21875 12.960938 26.222656 C 12.9375 26.226562 12.925781 26.25 12.929688 26.273438 L 13.511719 29.03125 " fill-opacity="1" fill-rule="nonzero"/></g><g clip-path="url(#2738cb0340)"><path fill="#361e14" d="M 4.347656 29.03125 L 4.929688 26.273438 C 4.933594 26.25 4.917969 26.226562 4.898438 26.222656 C 4.875 26.21875 4.851562 26.230469 4.847656 26.253906 L 4.261719 29.03125 L 4.347656 29.03125 " fill-opacity="1" fill-rule="nonzero"/></g><g clip-path="url(#c5a7ea2543)"><path fill="#361e14" d="M 9.652344 29.03125 L 10.234375 26.273438 C 10.238281 26.25 10.222656 26.226562 10.203125 26.222656 C 10.179688 26.21875 10.15625 26.230469 10.152344 26.253906 L 9.566406 29.03125 L 9.652344 29.03125 " fill-opacity="1" fill-rule="nonzero"/></g><path fill="#ffffff" d="M 9.839844 9.367188 C 9.839844 9.367188 11.230469 9.886719 11.859375 10.484375 C 12.667969 11.246094 13.90625 13.894531 13.90625 13.894531 C 13.90625 13.894531 13.214844 15.683594 13.101562 15.875 C 12.992188 16.070312 12.570312 16.632812 11.96875 16.742188 C 11.367188 16.855469 10.847656 17.253906 10.679688 16.070312 C 10.515625 14.882812 9.839844 9.367188 9.839844 9.367188 " fill-opacity="1" fill-rule="nonzero"/><g clip-path="url(#944e57cffa)"><path fill="#e3cec5" d="M 17.351562 19.832031 L 14.515625 18.199219 C 14.484375 18.316406 14.398438 18.425781 14.257812 18.476562 C 13.683594 18.683594 13.078125 18.714844 12.480469 18.824219 C 11.820312 18.941406 11.179688 19.125 10.523438 19.242188 C 10.03125 19.328125 9.820312 18.578125 10.3125 18.492188 C 10.65625 18.429688 10.992188 18.351562 11.328125 18.273438 C 11.273438 18.128906 11.292969 17.953125 11.40625 17.84375 C 11.285156 17.84375 11.164062 17.835938 11.039062 17.816406 C 10.679688 17.753906 10.699219 17.273438 10.945312 17.105469 C 11.210938 16.921875 11.507812 16.785156 11.789062 16.628906 L 2.488281 11.273438 L 1.742188 11.273438 C 1.195312 11.273438 0.78125 11.769531 0.878906 12.304688 L 3.328125 25.710938 C 3.402344 26.125 3.765625 26.429688 4.191406 26.429688 L 19.839844 26.429688 L 17.351562 19.832031 " fill-opacity="1" fill-rule="nonzero"/></g><path fill="#361e14" d="M 20.3125 26.027344 L 4.601562 26.027344 C 4.15625 26.027344 3.777344 25.710938 3.699219 25.273438 L 1.390625 12.617188 C 1.328125 12.210938 1.367188 11.953125 1.511719 11.78125 C 1.65625 11.613281 1.90625 11.535156 2.296875 11.535156 L 3.054688 11.535156 L 3.0625 11.542969 L 8.738281 14.785156 C 8.757812 14.796875 8.761719 14.820312 8.753906 14.839844 C 8.742188 14.859375 8.714844 14.867188 8.695312 14.855469 L 3.03125 11.617188 L 2.296875 11.617188 C 1.9375 11.617188 1.703125 11.691406 1.574219 11.835938 C 1.445312 11.984375 1.414062 12.222656 1.472656 12.601562 L 3.777344 25.261719 C 3.851562 25.65625 4.199219 25.945312 4.601562 25.945312 L 20.191406 25.945312 L 17.867188 20.085938 C 17.859375 20.066406 17.867188 20.042969 17.890625 20.035156 C 17.910156 20.027344 17.933594 20.035156 17.941406 20.058594 L 20.3125 26.027344 " fill-opacity="1" fill-rule="nonzero"/><path fill="#c26844" d="M 5.476562 4.445312 C 5.167969 5.082031 5.152344 5.929688 5.105469 6.558594 C 5.105469 6.597656 5.058594 7.195312 5.070312 7.195312 L 6.472656 7.394531 C 6.472656 7.394531 8.042969 8.1875 8.269531 8.347656 C 8.492188 8.507812 9.234375 9.015625 9.269531 9.011719 C 9.304688 9.003906 9.328125 6.304688 9.296875 5.574219 C 9.25 4.503906 8.996094 4.019531 8.167969 3.65625 C 7.574219 3.398438 6.664062 3.429688 6.097656 3.75 C 5.8125 3.914062 5.613281 4.15625 5.476562 4.445312 " fill-opacity="1" fill-rule="nonzero"/><path fill="#ffffff" d="M 9.15625 6.777344 C 9.15625 7.035156 9.03125 7.238281 8.867188 7.238281 C 8.707031 7.238281 8.582031 7.035156 8.582031 6.777344 C 8.582031 6.636719 8.621094 6.488281 8.671875 6.398438 C 8.695312 6.417969 8.714844 6.433594 8.738281 6.449219 C 8.703125 6.511719 8.664062 6.632812 8.664062 6.777344 C 8.664062 6.984375 8.757812 7.15625 8.867188 7.15625 C 8.980469 7.15625 9.074219 6.984375 9.074219 6.777344 C 9.074219 6.671875 9.042969 6.578125 9.011719 6.511719 C 8.976562 6.445312 8.941406 6.40625 8.925781 6.398438 C 8.902344 6.398438 8.886719 6.382812 8.886719 6.359375 C 8.886719 6.335938 8.90625 6.316406 8.929688 6.316406 C 8.980469 6.316406 9.042969 6.386719 9.09375 6.488281 C 9.128906 6.570312 9.15625 6.675781 9.15625 6.777344 " fill-opacity="1" fill-rule="nonzero"/><path fill="#ffa991" d="M 7.976562 9.144531 L 6.6875 10.484375 L 5.90625 9.0625 L 6.34375 6.75 L 7.90625 7.582031 L 7.917969 7.851562 L 7.945312 8.441406 L 7.976562 9.144531 " fill-opacity="1" fill-rule="nonzero"/><path fill="#361e14" d="M 7.945312 8.441406 C 7.582031 8.378906 7.171875 8.136719 6.90625 7.675781 C 6.734375 7.371094 6.875 7.1875 6.917969 7.195312 C 6.957031 7.203125 7.496094 7.371094 7.523438 7.402344 C 7.546875 7.429688 7.816406 7.734375 7.917969 7.851562 L 7.945312 8.441406 " fill-opacity="1" fill-rule="nonzero"/><path fill="#ffa991" d="M 8.949219 6.261719 C 8.921875 6.964844 8.882812 7.84375 8.003906 7.886719 C 7.402344 7.914062 6.539062 7.421875 6.359375 7.03125 C 6.175781 6.644531 5.980469 5.765625 6.15625 5.027344 C 6.328125 4.289062 7.28125 3.960938 7.28125 3.960938 C 7.28125 3.960938 8.796875 3.933594 8.867188 4.578125 C 8.898438 4.828125 8.921875 5.066406 8.9375 5.3125 C 8.941406 5.382812 8.945312 5.453125 8.949219 5.523438 C 8.960938 5.753906 8.960938 5.996094 8.949219 6.261719 " fill-opacity="1" fill-rule="nonzero"/><path fill="#361e14" d="M 8.867188 5.976562 C 8.867188 6.058594 8.832031 6.125 8.785156 6.125 C 8.738281 6.125 8.699219 6.058594 8.699219 5.976562 C 8.699219 5.894531 8.738281 5.832031 8.785156 5.832031 C 8.832031 5.832031 8.867188 5.894531 8.867188 5.976562 " fill-opacity="1" fill-rule="nonzero"/><path fill="#361e14" d="M 8.066406 5.976562 C 8.066406 6.0625 8.027344 6.132812 7.976562 6.132812 C 7.925781 6.132812 7.886719 6.0625 7.886719 5.976562 C 7.886719 5.890625 7.925781 5.820312 7.976562 5.820312 C 8.027344 5.820312 8.066406 5.890625 8.066406 5.976562 " fill-opacity="1" fill-rule="nonzero"/><path fill="#361e14" d="M 8.621094 6.441406 Z M 8.507812 6.636719 C 8.496094 6.636719 8.484375 6.628906 8.476562 6.621094 C 8.460938 6.605469 8.464844 6.578125 8.480469 6.5625 C 8.535156 6.515625 8.597656 6.453125 8.617188 6.429688 C 8.597656 6.386719 8.539062 6.257812 8.488281 6.140625 C 8.476562 6.121094 8.488281 6.097656 8.507812 6.085938 C 8.527344 6.078125 8.550781 6.085938 8.5625 6.105469 C 8.59375 6.171875 8.691406 6.390625 8.699219 6.417969 C 8.707031 6.4375 8.714844 6.464844 8.535156 6.625 C 8.527344 6.632812 8.519531 6.636719 8.507812 6.636719 " fill-opacity="1" fill-rule="nonzero"/><path fill="#361e14" d="M 8.433594 6.949219 C 8.300781 6.949219 8.148438 6.882812 8.050781 6.808594 C 8.03125 6.792969 8.027344 6.769531 8.042969 6.75 C 8.054688 6.734375 8.082031 6.730469 8.101562 6.742188 C 8.199219 6.816406 8.359375 6.886719 8.484375 6.863281 C 8.546875 6.855469 8.59375 6.820312 8.625 6.769531 C 8.636719 6.75 8.664062 6.742188 8.683594 6.753906 C 8.703125 6.765625 8.707031 6.792969 8.695312 6.8125 C 8.648438 6.886719 8.585938 6.929688 8.5 6.945312 C 8.480469 6.949219 8.457031 6.949219 8.433594 6.949219 " fill-opacity="1" fill-rule="nonzero"/><path fill="#c26844" d="M 8.207031 5.535156 C 8.203125 5.511719 8.191406 5.488281 8.171875 5.46875 C 8.152344 5.453125 8.128906 5.445312 8.105469 5.441406 C 7.96875 5.410156 7.820312 5.460938 7.734375 5.566406 C 7.710938 5.589844 7.695312 5.628906 7.710938 5.65625 C 7.722656 5.671875 7.742188 5.679688 7.761719 5.679688 C 7.78125 5.679688 7.800781 5.675781 7.816406 5.671875 C 7.882812 5.65625 7.945312 5.648438 8.011719 5.652344 C 8.054688 5.652344 8.101562 5.65625 8.144531 5.640625 C 8.1875 5.621094 8.210938 5.578125 8.207031 5.535156 " fill-opacity="1" fill-rule="nonzero"/><path fill="#c26844" d="M 8.976562 5.445312 C 8.910156 5.429688 8.84375 5.425781 8.777344 5.441406 C 8.75 5.445312 8.722656 5.453125 8.703125 5.46875 C 8.675781 5.488281 8.664062 5.511719 8.660156 5.535156 C 8.65625 5.578125 8.683594 5.621094 8.734375 5.640625 C 8.777344 5.65625 8.832031 5.652344 8.882812 5.652344 C 8.917969 5.648438 8.953125 5.652344 8.988281 5.65625 C 8.984375 5.582031 8.980469 5.511719 8.976562 5.445312 " fill-opacity="1" fill-rule="nonzero"/><path fill="#c26844" d="M 7.328125 4.640625 C 7.328125 4.640625 7.09375 5.191406 6.824219 5.882812 C 6.550781 6.574219 6.3125 6.917969 6.3125 6.917969 C 6.3125 6.917969 5.828125 6.277344 5.855469 6.121094 C 5.882812 5.96875 6.003906 4.5625 6.058594 4.359375 C 6.109375 4.160156 7.640625 3.648438 7.703125 3.683594 C 7.769531 3.71875 8.113281 3.804688 8.367188 3.9375 C 8.621094 4.070312 8.953125 4.457031 8.984375 4.496094 C 9.015625 4.53125 9.066406 5.433594 9.066406 5.433594 C 9.066406 5.433594 8.648438 4.878906 8.132812 4.746094 C 7.621094 4.609375 7.328125 4.640625 7.328125 4.640625 " fill-opacity="1" fill-rule="nonzero"/><path fill="#c26844" d="M 5.070312 7.195312 C 5.070312 7.195312 5.402344 7.53125 5.824219 7.78125 C 6.246094 8.027344 6.597656 8.121094 6.597656 8.121094 C 6.597656 8.121094 6.46875 6.964844 6.554688 6.488281 C 6.636719 6.011719 5.703125 6.214844 5.703125 6.214844 L 5.070312 7.195312 " fill-opacity="1" fill-rule="nonzero"/><path fill="#ffa991" d="M 5.984375 8.828125 L 5.554688 9.066406 C 5.554688 9.066406 6.164062 10.816406 6.691406 11.539062 C 7.222656 12.261719 7.851562 13.265625 8.207031 13.152344 C 8.558594 13.039062 9.304688 12.367188 9.3125 12.023438 C 9.316406 11.683594 8.316406 8.835938 8.316406 8.835938 L 7.605469 8.617188 L 5.984375 8.828125 " fill-opacity="1" fill-rule="nonzero"/><path fill="#ffffff" d="M 7.738281 10.816406 C 7.585938 10.816406 7.441406 10.75 7.359375 10.703125 C 6.835938 10.40625 6.371094 10 5.917969 9.609375 L 5.828125 9.527344 L 5.882812 9.464844 L 5.972656 9.546875 C 6.421875 9.9375 6.886719 10.339844 7.402344 10.632812 C 7.5 10.6875 7.6875 10.773438 7.859375 10.714844 C 7.996094 10.671875 8.09375 10.503906 8.160156 10.363281 C 8.269531 10.144531 8.347656 9.882812 8.40625 9.539062 L 8.488281 9.550781 C 8.425781 9.902344 8.347656 10.171875 8.234375 10.398438 C 8.160156 10.554688 8.050781 10.738281 7.886719 10.792969 C 7.835938 10.808594 7.785156 10.816406 7.738281 10.816406 " fill-opacity="1" fill-rule="nonzero"/><path fill="#361e14" d="M 7.285156 4.628906 C 7.277344 4.628906 7.273438 4.625 7.265625 4.625 L 5.953125 3.996094 C 5.933594 3.988281 5.925781 3.960938 5.933594 3.941406 C 5.945312 3.921875 5.96875 3.914062 5.988281 3.921875 L 7.300781 4.550781 C 7.320312 4.558594 7.332031 4.582031 7.320312 4.605469 C 7.3125 4.617188 7.300781 4.628906 7.285156 4.628906 " fill-opacity="1" fill-rule="nonzero"/><g clip-path="url(#4b9e5028f9)"><path fill="#663020" d="M 27.949219 29.019531 L 19.839844 29.019531 L 18.238281 23.933594 L 10.488281 24.800781 C 10.488281 24.800781 14.390625 20.820312 14.472656 20.703125 C 14.554688 20.585938 18.152344 18.675781 18.320312 18.570312 C 18.484375 18.464844 21.613281 18.851562 21.613281 18.851562 L 27.949219 29.019531 " fill-opacity="1" fill-rule="nonzero"/></g><path fill="#ffffff" d="M 5.554688 9.066406 L 8.367188 12.386719 L 8.316406 8.835938 C 8.316406 8.835938 9.601562 9.199219 10.195312 9.542969 C 10.792969 9.882812 11.386719 11.425781 11.511719 11.949219 C 11.636719 12.472656 11.550781 15.023438 11.664062 15.945312 C 11.773438 16.867188 12.144531 17.574219 12.105469 17.847656 C 12.035156 18.355469 10.265625 18.824219 8.382812 19.332031 C 6.5 19.84375 6.40625 19.777344 5.503906 19.832031 C 4.605469 19.882812 2.726562 10.898438 2.738281 10.734375 C 2.75 10.570312 5.554688 9.066406 5.554688 9.066406 " fill-opacity="1" fill-rule="nonzero"/><path fill="#361e14" d="M 13.460938 12.914062 C 13.449219 12.914062 13.433594 12.90625 13.425781 12.890625 C 13.414062 12.871094 12.394531 10.929688 11.417969 10.21875 C 10.4375 9.503906 8.378906 8.898438 8.355469 8.890625 C 8.335938 8.886719 8.320312 8.863281 8.328125 8.839844 C 8.335938 8.820312 8.355469 8.808594 8.378906 8.8125 C 8.398438 8.820312 10.476562 9.429688 11.464844 10.152344 C 12.457031 10.875 13.488281 12.835938 13.5 12.855469 C 13.507812 12.875 13.5 12.898438 13.480469 12.910156 C 13.476562 12.910156 13.46875 12.914062 13.460938 12.914062 " fill-opacity="1" fill-rule="nonzero"/><path fill="#361e14" d="M 10.140625 18.609375 C 10.136719 18.609375 10.136719 18.605469 10.132812 18.605469 C 10.109375 18.601562 10.097656 18.578125 10.101562 18.558594 C 10.101562 18.550781 10.25 17.941406 10.101562 17.558594 C 9.980469 17.238281 9.769531 17.054688 9.421875 16.757812 C 9.347656 16.695312 9.269531 16.628906 9.1875 16.554688 C 8.695312 16.121094 8.53125 13.867188 8.523438 13.769531 L 8.378906 12.464844 C 8.375 12.441406 8.390625 12.421875 8.414062 12.417969 C 8.4375 12.417969 8.457031 12.433594 8.460938 12.453125 L 8.605469 13.765625 C 8.605469 13.789062 8.773438 16.082031 9.242188 16.492188 C 9.324219 16.566406 9.402344 16.632812 9.476562 16.695312 C 9.820312 16.992188 10.050781 17.1875 10.179688 17.527344 C 10.335938 17.933594 10.1875 18.550781 10.179688 18.578125 C 10.175781 18.59375 10.160156 18.609375 10.140625 18.609375 " fill-opacity="1" fill-rule="nonzero"/><path fill="#361e14" d="M 11.921875 18.152344 C 11.90625 18.152344 11.894531 18.144531 11.886719 18.132812 C 11.875 18.113281 11.878906 18.085938 11.898438 18.074219 C 11.90625 18.070312 12.042969 17.980469 12.066406 17.746094 C 12.089844 17.523438 11.992188 17.261719 11.90625 17.027344 C 11.882812 16.964844 11.863281 16.902344 11.84375 16.84375 C 11.703125 16.425781 11.605469 16.074219 11.582031 15.703125 C 11.566406 15.433594 11.5625 14.882812 11.570312 14.613281 C 11.570312 14.589844 11.589844 14.574219 11.613281 14.574219 C 11.636719 14.574219 11.652344 14.59375 11.652344 14.617188 C 11.644531 14.882812 11.648438 15.433594 11.664062 15.695312 C 11.6875 16.058594 11.785156 16.40625 11.921875 16.820312 C 11.9375 16.875 11.960938 16.9375 11.984375 17 C 12.074219 17.242188 12.175781 17.515625 12.148438 17.753906 C 12.121094 18.027344 11.949219 18.140625 11.945312 18.144531 C 11.9375 18.148438 11.929688 18.152344 11.921875 18.152344 " fill-opacity="1" fill-rule="nonzero"/><path fill="#f27255" d="M 13.839844 13.363281 C 13.816406 13.359375 13.789062 13.34375 13.777344 13.320312 L 11.800781 9.628906 C 11.777344 9.589844 11.792969 9.539062 11.835938 9.515625 C 11.875 9.496094 11.925781 9.511719 11.945312 9.550781 L 13.925781 13.242188 C 13.945312 13.28125 13.929688 13.332031 13.890625 13.355469 C 13.875 13.363281 13.859375 13.363281 13.839844 13.363281 " fill-opacity="1" fill-rule="nonzero"/><path fill="#ffa991" d="M 9.320312 12.796875 C 9.320312 12.796875 10.832031 11.550781 11.261719 11.414062 C 11.691406 11.273438 12.382812 11.386719 12.882812 11.648438 C 13.378906 11.910156 13.683594 12.171875 13.683594 12.171875 C 13.683594 12.171875 12.882812 14.175781 12.785156 14.277344 C 12.6875 14.382812 12.355469 14.449219 12.15625 14.449219 C 11.953125 14.449219 11.863281 14.402344 11.863281 14.402344 C 11.863281 14.402344 11.492188 14.902344 11.160156 15.078125 C 10.828125 15.25 10.347656 15.25 10.3125 15.226562 C 10.28125 15.207031 9.320312 12.796875 9.320312 12.796875 " fill-opacity="1" fill-rule="nonzero"/><path fill="#361e14" d="M 13.515625 12.679688 C 13.511719 12.679688 13.507812 12.679688 13.5 12.675781 L 12.304688 12.171875 C 12.285156 12.164062 12.273438 12.140625 12.28125 12.121094 C 12.292969 12.097656 12.316406 12.089844 12.335938 12.097656 L 13.535156 12.601562 C 13.554688 12.609375 13.5625 12.632812 13.554688 12.65625 C 13.546875 12.671875 13.535156 12.679688 13.515625 12.679688 " fill-opacity="1" fill-rule="nonzero"/><path fill="#361e14" d="M 13.398438 13.296875 C 13.394531 13.296875 13.386719 13.296875 13.382812 13.292969 L 12.183594 12.789062 C 12.164062 12.78125 12.15625 12.757812 12.164062 12.738281 C 12.171875 12.714844 12.195312 12.707031 12.21875 12.714844 L 13.414062 13.21875 C 13.433594 13.226562 13.445312 13.25 13.4375 13.273438 C 13.429688 13.289062 13.414062 13.296875 13.398438 13.296875 " fill-opacity="1" fill-rule="nonzero"/><path fill="#361e14" d="M 13.277344 13.914062 C 13.273438 13.914062 13.269531 13.914062 13.261719 13.910156 L 12.066406 13.410156 C 12.042969 13.398438 12.035156 13.375 12.042969 13.355469 C 12.054688 13.335938 12.078125 13.324219 12.097656 13.332031 L 13.292969 13.835938 C 13.316406 13.84375 13.324219 13.867188 13.316406 13.890625 C 13.308594 13.90625 13.292969 13.914062 13.277344 13.914062 " fill-opacity="1" fill-rule="nonzero"/><path fill="#361e14" d="M 11.882812 14.414062 C 11.875 14.414062 11.867188 14.410156 11.859375 14.40625 C 11.839844 14.390625 11.839844 14.363281 11.855469 14.347656 C 11.859375 14.339844 12.027344 14.148438 12.15625 14.09375 C 12.429688 13.980469 12.871094 14.328125 12.886719 14.34375 C 12.90625 14.355469 12.90625 14.382812 12.894531 14.398438 C 12.878906 14.417969 12.855469 14.421875 12.835938 14.40625 C 12.71875 14.3125 12.378906 14.089844 12.1875 14.171875 C 12.097656 14.210938 11.960938 14.351562 11.914062 14.402344 C 11.90625 14.410156 11.894531 14.414062 11.882812 14.414062 " fill-opacity="1" fill-rule="nonzero"/><path fill="#e3cec5" d="M 16.882812 10.746094 C 16.882812 11.058594 16.476562 11.308594 15.976562 11.308594 C 15.472656 11.308594 15.066406 11.058594 15.066406 10.746094 C 15.066406 10.4375 15.472656 10.183594 15.976562 10.183594 C 16.476562 10.183594 16.882812 10.4375 16.882812 10.746094 " fill-opacity="1" fill-rule="nonzero"/><path fill="#c7795a" d="M 18.003906 10.753906 C 18.003906 10.757812 18.003906 10.765625 18.003906 10.769531 L 15.875 17.074219 C 15.84375 17.171875 15.75 17.238281 15.648438 17.238281 L 11.78125 17.238281 C 11.753906 17.238281 11.730469 17.234375 11.710938 17.222656 C 11.632812 17.191406 11.59375 17.101562 11.621094 17.019531 L 13.746094 10.710938 C 13.777344 10.613281 13.871094 10.546875 13.976562 10.546875 L 17.84375 10.546875 C 17.921875 10.546875 17.988281 10.601562 18.003906 10.671875 C 18.011719 10.699219 18.011719 10.726562 18.003906 10.753906 " fill-opacity="1" fill-rule="nonzero"/><path fill="#361e14" d="M 18.003906 10.671875 C 18 10.671875 17.988281 10.667969 17.980469 10.667969 L 14.070312 10.667969 C 13.976562 10.667969 13.890625 10.730469 13.859375 10.824219 L 11.71875 17.171875 C 11.714844 17.1875 11.710938 17.207031 11.710938 17.222656 C 11.730469 17.234375 11.753906 17.238281 11.78125 17.238281 L 11.792969 17.238281 C 11.789062 17.222656 11.792969 17.210938 11.796875 17.195312 L 13.9375 10.847656 C 13.957031 10.792969 14.011719 10.753906 14.070312 10.753906 L 17.980469 10.753906 C 17.988281 10.753906 18 10.753906 18.003906 10.753906 C 18.011719 10.726562 18.011719 10.699219 18.003906 10.671875 " fill-opacity="1" fill-rule="nonzero"/><g clip-path="url(#06f47887df)"><path fill="#361e14" d="M 26.476562 29.019531 L 25.164062 29.019531 L 22.996094 22.671875 Z M 26.476562 29.019531 " fill-opacity="1" fill-rule="nonzero"/></g><path fill="#361e14" d="M 11.371094 24.636719 C 11.359375 24.636719 11.34375 24.628906 11.335938 24.617188 C 11.324219 24.59375 11.332031 24.570312 11.351562 24.558594 C 11.398438 24.535156 15.828125 22.191406 17.136719 21.484375 C 18.574219 20.714844 20.613281 20.066406 21.636719 20.765625 C 22.726562 21.511719 23.492188 23.679688 23.523438 23.773438 C 23.53125 23.792969 23.519531 23.816406 23.496094 23.824219 C 23.476562 23.832031 23.453125 23.820312 23.445312 23.800781 C 23.4375 23.777344 22.65625 21.5625 21.589844 20.832031 C 20.597656 20.152344 18.589844 20.800781 17.175781 21.558594 C 15.863281 22.261719 11.4375 24.609375 11.390625 24.632812 C 11.386719 24.636719 11.378906 24.636719 11.371094 24.636719 " fill-opacity="1" fill-rule="nonzero"/><path fill="#ffa991" d="M 10.6875 15.078125 L 10.367188 15.390625 L 9.773438 15.976562 L 6.941406 18.753906 L 5.269531 15.707031 C 5.269531 15.707031 7.246094 14.289062 8.4375 13.429688 C 8.761719 13.199219 9.027344 13.007812 9.179688 12.898438 C 9.269531 12.832031 9.320312 12.796875 9.320312 12.796875 C 9.320312 12.796875 10.789062 13.394531 10.851562 13.433594 C 10.914062 13.472656 10.6875 15.078125 10.6875 15.078125 " fill-opacity="1" fill-rule="nonzero"/><path fill="#663020" d="M 6.597656 19.914062 C 6.597656 19.914062 8.964844 24.757812 9.878906 24.933594 C 10.792969 25.105469 19.050781 20.480469 19.050781 20.480469 L 21.613281 18.851562 C 21.257812 18.289062 20.8125 17.75 20.3125 17.308594 C 19.046875 16.1875 17.277344 16.792969 15.816406 17.144531 C 14.371094 17.496094 12.933594 17.890625 11.503906 18.304688 C 11.039062 18.4375 10.574219 18.574219 10.113281 18.714844 L 6.597656 19.914062 " fill-opacity="1" fill-rule="nonzero"/><path fill="#e3cec5" d="M 3.296875 19.175781 L 8.132812 19.175781 C 9.121094 19.175781 9.972656 19.875 10.164062 20.839844 L 11.082031 25.503906 L 5.835938 25.503906 L 3.296875 19.175781 " fill-opacity="1" fill-rule="nonzero"/><path fill="#ffffff" d="M 2.957031 10.546875 C 2.957031 10.546875 1.992188 11.074219 1.929688 12.386719 C 1.867188 13.699219 2.550781 17.957031 3.777344 19.09375 C 5 20.230469 6.414062 19.183594 6.941406 18.753906 C 7.46875 18.328125 7.945312 18.042969 7.945312 18.042969 L 6.230469 14.558594 L 2.957031 10.546875 " fill-opacity="1" fill-rule="nonzero"/><path fill="#ffa991" d="M 6.398438 14.898438 C 6.398438 14.898438 6.128906 16.261719 6.597656 16.964844 C 7.070312 17.667969 7.859375 17.855469 7.859375 17.855469 L 7.886719 15.972656 L 6.398438 14.898438 " fill-opacity="1" fill-rule="nonzero"/><path fill="#361e14" d="M 2.253906 11.316406 C 2.246094 11.316406 2.238281 11.3125 2.234375 11.308594 C 2.214844 11.296875 2.207031 11.273438 2.21875 11.253906 C 2.527344 10.746094 3.03125 10.460938 3.515625 10.183594 L 3.660156 10.101562 C 4.140625 9.824219 4.621094 9.546875 5.101562 9.273438 L 5.484375 9.058594 C 5.503906 9.046875 5.527344 9.054688 5.539062 9.074219 C 5.550781 9.09375 5.542969 9.117188 5.523438 9.128906 L 5.144531 9.34375 C 4.660156 9.621094 4.179688 9.894531 3.699219 10.171875 L 3.554688 10.253906 C 3.058594 10.539062 2.589844 10.808594 2.289062 11.296875 C 2.28125 11.308594 2.269531 11.316406 2.253906 11.316406 " fill-opacity="1" fill-rule="nonzero"/><path fill="#ffa991" d="M 18.296875 12.953125 C 18.253906 12.859375 18.191406 12.8125 18.117188 12.796875 C 18.144531 12.773438 18.167969 12.746094 18.191406 12.71875 C 18.265625 12.613281 18.28125 12.464844 18.226562 12.347656 C 18.085938 12.03125 17.769531 12.210938 17.558594 12.320312 C 17.402344 12.40625 17.242188 12.492188 17.082031 12.578125 C 16.960938 12.640625 16.835938 12.691406 16.75 12.808594 C 16.617188 12.996094 16.636719 13.246094 16.839844 13.34375 C 16.738281 13.398438 16.640625 13.457031 16.566406 13.546875 C 16.410156 13.738281 16.40625 13.976562 16.59375 14.078125 C 16.554688 14.105469 16.523438 14.136719 16.496094 14.175781 C 16.382812 14.339844 16.390625 14.558594 16.535156 14.675781 C 16.511719 14.695312 16.488281 14.71875 16.472656 14.753906 C 16.390625 14.90625 16.425781 15.128906 16.582031 15.242188 C 16.667969 15.304688 16.757812 15.265625 16.835938 15.222656 C 16.957031 15.164062 17.453125 14.9375 17.511719 14.828125 C 17.589844 14.683594 17.523438 14.515625 17.445312 14.394531 C 17.546875 14.324219 17.667969 14.296875 17.765625 14.222656 C 17.808594 14.195312 17.84375 14.160156 17.875 14.117188 C 17.945312 14.015625 17.957031 13.867188 17.90625 13.75 C 17.882812 13.699219 17.847656 13.65625 17.816406 13.617188 C 17.824219 13.628906 18.070312 13.476562 18.089844 13.464844 C 18.144531 13.425781 18.191406 13.386719 18.230469 13.339844 C 18.320312 13.226562 18.347656 13.070312 18.296875 12.953125 " fill-opacity="1" fill-rule="nonzero"/><path fill="#361e14" d="M 16.882812 13.410156 C 16.867188 13.410156 16.851562 13.402344 16.847656 13.386719 C 16.835938 13.367188 16.847656 13.34375 16.867188 13.332031 L 17.996094 12.835938 C 18.015625 12.828125 18.039062 12.835938 18.050781 12.855469 C 18.058594 12.875 18.050781 12.902344 18.027344 12.910156 L 16.898438 13.410156 C 16.894531 13.410156 16.890625 13.410156 16.882812 13.410156 " fill-opacity="1" fill-rule="nonzero"/><path fill="#361e14" d="M 16.671875 14.097656 C 16.65625 14.097656 16.640625 14.089844 16.632812 14.074219 C 16.625 14.050781 16.636719 14.027344 16.65625 14.019531 L 17.738281 13.585938 C 17.757812 13.574219 17.78125 13.585938 17.789062 13.605469 C 17.796875 13.628906 17.789062 13.652344 17.765625 13.660156 L 16.6875 14.09375 C 16.683594 14.097656 16.675781 14.097656 16.671875 14.097656 " fill-opacity="1" fill-rule="nonzero"/><path fill="#361e14" d="M 16.644531 14.65625 C 16.628906 14.65625 16.613281 14.644531 16.605469 14.628906 C 16.597656 14.609375 16.609375 14.585938 16.628906 14.578125 L 17.390625 14.296875 C 17.414062 14.289062 17.4375 14.300781 17.445312 14.320312 C 17.453125 14.339844 17.441406 14.363281 17.421875 14.371094 L 16.660156 14.652344 C 16.65625 14.65625 16.648438 14.65625 16.644531 14.65625 " fill-opacity="1" fill-rule="nonzero"/><path fill="#361e14" d="M 8.417969 12.742188 C 8.410156 12.742188 8.40625 12.738281 8.398438 12.738281 C 7.894531 12.476562 6.5625 11.789062 6.460938 11.753906 C 6.335938 11.710938 5.78125 10.078125 5.464844 9.105469 C 5.457031 9.085938 5.46875 9.0625 5.492188 9.054688 C 5.511719 9.046875 5.535156 9.058594 5.542969 9.082031 C 5.855469 10.039062 6.390625 11.59375 6.492188 11.679688 C 6.613281 11.71875 8.363281 12.625 8.4375 12.664062 C 8.457031 12.675781 8.464844 12.699219 8.453125 12.71875 C 8.449219 12.734375 8.433594 12.742188 8.417969 12.742188 " fill-opacity="1" fill-rule="nonzero"/><path fill="#361e14" d="M 8.417969 12.5 C 8.410156 12.5 8.398438 12.496094 8.394531 12.492188 C 8.375 12.476562 8.371094 12.453125 8.386719 12.433594 C 8.863281 11.839844 9.359375 11.171875 9.359375 11.078125 C 9.359375 10.964844 8.726562 9.664062 8.332031 8.871094 C 8.320312 8.851562 8.328125 8.828125 8.347656 8.816406 C 8.371094 8.804688 8.394531 8.8125 8.40625 8.835938 C 8.511719 9.046875 9.441406 10.914062 9.441406 11.078125 C 9.441406 11.246094 8.617188 12.28125 8.449219 12.484375 C 8.441406 12.496094 8.429688 12.5 8.417969 12.5 " fill-opacity="1" fill-rule="nonzero"/><path fill="#361e14" d="M 3.933594 17.28125 C 3.929688 17.28125 3.929688 17.28125 3.925781 17.28125 C 3.90625 17.277344 3.886719 17.257812 3.890625 17.234375 C 3.894531 17.210938 3.949219 16.664062 4.335938 16.253906 C 4.722656 15.851562 6.234375 14.90625 6.300781 14.863281 C 6.316406 14.851562 6.34375 14.859375 6.355469 14.878906 C 6.367188 14.898438 6.363281 14.921875 6.34375 14.933594 C 6.328125 14.945312 4.773438 15.917969 4.398438 16.3125 C 4.027344 16.699219 3.972656 17.238281 3.972656 17.242188 C 3.96875 17.265625 3.953125 17.28125 3.933594 17.28125 " fill-opacity="1" fill-rule="nonzero"/><path fill="#361e14" d="M 3.515625 16.703125 C 3.503906 16.703125 3.492188 16.699219 3.484375 16.6875 C 3.46875 16.667969 3.472656 16.640625 3.492188 16.628906 C 3.519531 16.613281 4.140625 16.1875 4.527344 16.089844 C 4.546875 16.085938 4.570312 16.097656 4.574219 16.121094 C 4.582031 16.140625 4.566406 16.164062 4.546875 16.167969 C 4.175781 16.261719 3.546875 16.691406 3.539062 16.695312 C 3.53125 16.703125 3.523438 16.703125 3.515625 16.703125 " fill-opacity="1" fill-rule="nonzero"/><path fill="#361e14" d="M 5.792969 15.277344 C 5.777344 15.277344 5.761719 15.269531 5.753906 15.253906 C 5.75 15.242188 5.355469 14.222656 5.09375 13.921875 C 4.835938 13.617188 2.460938 12.3125 2.4375 12.300781 C 2.417969 12.289062 2.410156 12.261719 2.421875 12.242188 C 2.433594 12.222656 2.457031 12.214844 2.476562 12.226562 C 2.574219 12.28125 4.886719 13.550781 5.15625 13.867188 C 5.425781 14.179688 5.816406 15.179688 5.832031 15.222656 C 5.839844 15.242188 5.828125 15.269531 5.808594 15.277344 C 5.804688 15.277344 5.796875 15.277344 5.792969 15.277344 " fill-opacity="1" fill-rule="nonzero"/><path fill="#361e14" d="M 6.390625 19.191406 C 6.378906 19.191406 6.367188 19.1875 6.359375 19.179688 C 6.34375 19.160156 6.347656 19.136719 6.363281 19.121094 L 7.84375 17.859375 C 7.859375 17.847656 7.886719 17.847656 7.902344 17.863281 C 7.917969 17.882812 7.914062 17.90625 7.898438 17.921875 L 6.417969 19.183594 C 6.410156 19.191406 6.398438 19.191406 6.390625 19.191406 " fill-opacity="1" fill-rule="nonzero"/><path fill="#ffffff" d="M 8.027344 11.039062 C 8.050781 11.210938 8.007812 11.355469 7.929688 11.367188 C 7.851562 11.378906 7.769531 11.25 7.742188 11.078125 C 7.71875 10.90625 7.761719 10.757812 7.839844 10.746094 C 7.917969 10.738281 8.003906 10.867188 8.027344 11.039062 " fill-opacity="1" fill-rule="nonzero"/><path fill="#ffa991" d="M 6.695312 5.328125 C 6.4375 5.328125 6.226562 5.59375 6.226562 5.921875 C 6.226562 6.117188 6.300781 6.292969 6.417969 6.398438 C 6.4375 6.417969 6.457031 6.433594 6.480469 6.449219 C 6.542969 6.492188 6.617188 6.515625 6.695312 6.515625 C 6.714844 6.515625 6.734375 6.515625 6.753906 6.511719 C 6.78125 6.507812 6.808594 6.5 6.835938 6.488281 C 7.023438 6.410156 7.15625 6.1875 7.15625 5.921875 C 7.15625 5.59375 6.949219 5.328125 6.695312 5.328125 " fill-opacity="1" fill-rule="nonzero"/><path fill="#ffffff" d="M 6.898438 6.777344 C 6.898438 7.035156 6.773438 7.238281 6.613281 7.238281 C 6.449219 7.238281 6.324219 7.035156 6.324219 6.777344 C 6.324219 6.636719 6.363281 6.488281 6.417969 6.398438 C 6.4375 6.417969 6.457031 6.433594 6.480469 6.449219 C 6.449219 6.511719 6.40625 6.632812 6.40625 6.777344 C 6.40625 6.984375 6.5 7.15625 6.613281 7.15625 C 6.722656 7.15625 6.816406 6.984375 6.816406 6.777344 C 6.816406 6.671875 6.789062 6.578125 6.753906 6.511719 C 6.722656 6.445312 6.683594 6.40625 6.667969 6.398438 C 6.644531 6.398438 6.628906 6.382812 6.628906 6.359375 C 6.628906 6.335938 6.648438 6.316406 6.671875 6.316406 C 6.722656 6.316406 6.789062 6.386719 6.835938 6.488281 C 6.871094 6.570312 6.898438 6.675781 6.898438 6.777344 " fill-opacity="1" fill-rule="nonzero"/><path fill="#361e14" d="M 10.367188 15.390625 L 9.773438 15.976562 C 9.546875 15.703125 9.230469 15.277344 8.972656 14.796875 C 8.683594 14.253906 8.527344 13.785156 8.4375 13.429688 C 8.761719 13.199219 9.027344 13.007812 9.179688 12.898438 C 9.214844 13.15625 9.332031 13.703125 9.707031 14.40625 C 9.914062 14.796875 10.171875 15.148438 10.367188 15.390625 " fill-opacity="1" fill-rule="nonzero"/><path fill="#ffffff" d="M 9.347656 14.1875 C 9.105469 14.363281 8.78125 14.332031 8.628906 14.117188 C 8.472656 13.90625 8.546875 13.589844 8.789062 13.414062 C 9.035156 13.238281 9.359375 13.273438 9.511719 13.484375 C 9.667969 13.699219 9.59375 14.015625 9.347656 14.1875 " fill-opacity="1" fill-rule="nonzero"/><path fill="#361e14" d="M 11.203125 26.027344 C 11.183594 26.027344 11.164062 26.011719 11.160156 25.996094 L 10.902344 24.796875 C 10.894531 24.773438 10.910156 24.753906 10.933594 24.746094 C 10.953125 24.742188 10.976562 24.757812 10.980469 24.777344 L 11.242188 25.976562 C 11.246094 26 11.234375 26.019531 11.210938 26.027344 C 11.207031 26.027344 11.203125 26.027344 11.203125 26.027344 " fill-opacity="1" fill-rule="nonzero"/><path fill="#ffa991" d="M 40.296875 14.09375 L 38.851562 15.136719 L 38.71875 15.113281 L 38.085938 14.734375 L 37.089844 13.96875 L 36.945312 13.707031 L 35.816406 11.644531 C 35.816406 11.644531 35.632812 10.222656 35.703125 10.203125 C 35.773438 10.183594 37.355469 10.074219 37.355469 10.074219 C 37.359375 10.074219 38.375 11.4375 38.773438 11.976562 C 38.871094 12.109375 38.933594 12.191406 38.933594 12.191406 C 38.933594 12.191406 39.113281 12.441406 39.335938 12.753906 C 39.671875 13.226562 40.105469 13.832031 40.167969 13.914062 C 40.25 14.027344 40.296875 14.09375 40.296875 14.09375 " fill-opacity="1" fill-rule="nonzero"/><path fill="#ffffff" d="M 39.335938 12.753906 C 39.191406 12.945312 39 13.160156 38.785156 13.347656 C 38.3125 13.761719 38.007812 14.085938 37.816406 14.140625 C 37.628906 14.195312 37.117188 13.980469 37.089844 13.96875 L 36.945312 13.707031 C 37.105469 13.578125 37.683594 13.113281 38.050781 12.777344 C 38.347656 12.503906 38.628906 12.160156 38.773438 11.976562 C 38.871094 12.109375 38.933594 12.191406 38.933594 12.191406 C 38.933594 12.191406 39.113281 12.441406 39.335938 12.753906 " fill-opacity="1" fill-rule="nonzero"/><path fill="#f27255" d="M 40.335938 13.894531 L 38.933594 12.191406 C 38.933594 12.191406 38.480469 12.792969 37.796875 13.371094 C 37.109375 13.945312 37.089844 13.96875 37.089844 13.96875 C 37.089844 13.96875 39.058594 17.542969 39.664062 18.007812 C 40.269531 18.472656 40.734375 18.882812 40.976562 18.78125 C 41.21875 18.679688 41.976562 18.796875 42.367188 18.199219 C 42.757812 17.601562 42.984375 17.273438 43.046875 16.46875 C 43.109375 15.664062 40.335938 13.894531 40.335938 13.894531 " fill-opacity="1" fill-rule="nonzero"/><path fill="#663020" d="M 45.78125 4.359375 C 45.683594 4.222656 45.441406 4.144531 45.285156 4.121094 C 45.074219 4.089844 44.84375 4.160156 44.773438 4.375 C 44.699219 4.589844 44.773438 4.871094 44.980469 4.976562 C 45.035156 5.007812 45.09375 5.019531 45.15625 5.023438 C 45.636719 5.039062 45.988281 4.65625 45.988281 4.65625 C 45.988281 4.65625 45.78125 4.359375 45.78125 4.359375 " fill-opacity="1" fill-rule="nonzero"/><path fill="#663020" d="M 46.316406 4.257812 C 46.3125 4.089844 46.148438 3.894531 46.03125 3.789062 C 45.875 3.648438 45.59375 3.59375 45.414062 3.734375 C 45.238281 3.875 45.179688 4.109375 45.292969 4.3125 C 45.324219 4.363281 45.378906 4.4375 45.429688 4.472656 C 45.820312 4.746094 46.328125 4.617188 46.328125 4.617188 C 46.328125 4.617188 46.316406 4.261719 46.316406 4.257812 " fill-opacity="1" fill-rule="nonzero"/><path fill="#663020" d="M 47.003906 4.179688 C 46.996094 4.011719 46.835938 3.816406 46.714844 3.707031 C 46.558594 3.566406 46.285156 3.511719 46.105469 3.652344 C 45.929688 3.792969 45.878906 4.054688 45.992188 4.261719 C 46.023438 4.3125 46.066406 4.355469 46.113281 4.390625 C 46.507812 4.667969 47.011719 4.539062 47.011719 4.539062 C 47.011719 4.539062 47.003906 4.179688 47.003906 4.179688 " fill-opacity="1" fill-rule="nonzero"/><g clip-path="url(#5ec7a606f0)"><path fill="#361e14" d="M 35.425781 29.03125 L 35.339844 29.03125 L 35.925781 26.253906 C 35.929688 26.230469 35.953125 26.21875 35.972656 26.222656 C 35.996094 26.226562 36.011719 26.25 36.007812 26.273438 L 35.425781 29.03125 " fill-opacity="1" fill-rule="nonzero"/></g><g clip-path="url(#ba13a902ab)"><path fill="#361e14" d="M 40.726562 29.03125 L 40.644531 29.03125 L 41.230469 26.253906 C 41.234375 26.230469 41.257812 26.21875 41.277344 26.222656 C 41.300781 26.226562 41.316406 26.25 41.3125 26.273438 L 40.726562 29.03125 " fill-opacity="1" fill-rule="nonzero"/></g><g clip-path="url(#e0800a6b88)"><path fill="#361e14" d="M 49.894531 29.03125 L 49.3125 26.273438 C 49.304688 26.25 49.320312 26.226562 49.34375 26.222656 C 49.367188 26.21875 49.386719 26.230469 49.390625 26.253906 L 49.976562 29.03125 L 49.894531 29.03125 " fill-opacity="1" fill-rule="nonzero"/></g><g clip-path="url(#4a8bc119c8)"><path fill="#361e14" d="M 44.589844 29.03125 L 44.007812 26.273438 C 44.003906 26.25 44.015625 26.226562 44.039062 26.222656 C 44.0625 26.21875 44.082031 26.230469 44.089844 26.253906 L 44.675781 29.03125 L 44.589844 29.03125 " fill-opacity="1" fill-rule="nonzero"/></g><path fill="#f27255" d="M 44.402344 9.367188 C 44.402344 9.367188 43.726562 14.882812 43.558594 16.070312 C 43.394531 17.253906 42.875 16.851562 42.273438 16.742188 C 41.671875 16.632812 41.25 16.070312 41.136719 15.875 C 41.027344 15.683594 40.335938 13.894531 40.335938 13.894531 C 40.335938 13.894531 41.308594 11.816406 42.089844 10.808594 C 42.113281 10.78125 42.136719 10.75 42.160156 10.722656 C 42.238281 10.628906 42.308594 10.550781 42.382812 10.480469 C 43.007812 9.886719 44.402344 9.367188 44.402344 9.367188 " fill-opacity="1" fill-rule="nonzero"/><path fill="#361e14" d="M 42.4375 12.605469 C 42.542969 12.582031 42.617188 13.273438 42.507812 13.90625 C 42.394531 14.539062 42.0625 14.699219 41.96875 15.492188 C 41.871094 16.289062 41.132812 18.121094 41.132812 18.121094 L 40.296875 18.199219 C 40.296875 18.199219 41.125 16.453125 41.359375 15.820312 C 41.59375 15.1875 41.925781 14.207031 42.1875 13.769531 C 42.453125 13.328125 42.332031 12.625 42.4375 12.605469 " fill-opacity="1" fill-rule="nonzero"/><path fill="#e3cec5" d="M 36.890625 19.832031 L 39.722656 18.199219 C 39.753906 18.316406 39.839844 18.425781 39.984375 18.476562 C 40.558594 18.683594 41.164062 18.714844 41.761719 18.824219 C 42.417969 18.941406 43.0625 19.125 43.71875 19.242188 C 44.210938 19.328125 44.421875 18.578125 43.925781 18.492188 C 43.585938 18.429688 43.246094 18.351562 42.910156 18.273438 C 42.96875 18.128906 42.949219 17.953125 42.835938 17.84375 C 42.953125 17.84375 43.074219 17.835938 43.199219 17.816406 C 43.558594 17.753906 43.539062 17.273438 43.292969 17.105469 C 43.027344 16.921875 42.734375 16.785156 42.453125 16.628906 L 51.75 11.273438 L 52.496094 11.273438 C 53.046875 11.273438 53.460938 11.769531 53.363281 12.304688 L 50.914062 25.710938 C 50.839844 26.125 50.472656 26.429688 50.050781 26.429688 L 34.398438 26.429688 L 36.890625 19.832031 " fill-opacity="1" fill-rule="nonzero"/><path fill="#361e14" d="M 49.636719 26.027344 L 33.925781 26.027344 L 36.296875 20.058594 C 36.304688 20.035156 36.332031 20.027344 36.351562 20.035156 C 36.371094 20.042969 36.382812 20.066406 36.375 20.085938 L 34.046875 25.945312 L 49.636719 25.945312 C 50.042969 25.945312 50.390625 25.65625 50.460938 25.261719 L 52.769531 12.601562 C 52.828125 12.222656 52.792969 11.984375 52.664062 11.835938 C 52.539062 11.691406 52.300781 11.617188 51.945312 11.617188 L 51.207031 11.617188 L 45.542969 14.855469 C 45.523438 14.867188 45.5 14.859375 45.488281 14.839844 C 45.476562 14.820312 45.484375 14.796875 45.503906 14.785156 L 51.1875 11.535156 L 51.945312 11.535156 C 52.332031 11.535156 52.582031 11.613281 52.726562 11.78125 C 52.875 11.953125 52.910156 12.210938 52.847656 12.613281 L 50.542969 25.273438 C 50.464844 25.710938 50.082031 26.027344 49.636719 26.027344 " fill-opacity="1" fill-rule="nonzero"/><path fill="#ffa991" d="M 46.265625 9.144531 L 47.550781 10.484375 L 48.332031 9.0625 L 47.898438 6.996094 L 46.335938 7.832031 L 46.320312 8.101562 L 46.296875 8.691406 L 46.265625 9.144531 " fill-opacity="1" fill-rule="nonzero"/><path fill="#361e14" d="M 46.296875 8.691406 C 46.65625 8.625 47.070312 8.386719 47.332031 7.921875 C 47.507812 7.621094 47.367188 7.4375 47.324219 7.445312 C 47.28125 7.453125 46.746094 7.621094 46.71875 7.652344 C 46.695312 7.675781 46.425781 7.984375 46.320312 8.101562 L 46.296875 8.691406 " fill-opacity="1" fill-rule="nonzero"/><path fill="#ffa991" d="M 47.882812 7.28125 C 47.699219 7.667969 46.835938 8.160156 46.238281 8.132812 C 45.359375 8.09375 45.320312 7.214844 45.289062 6.507812 C 45.28125 6.308594 45.28125 6.121094 45.285156 5.941406 C 45.285156 5.882812 45.289062 5.828125 45.289062 5.773438 C 45.292969 5.75 45.292969 5.726562 45.296875 5.703125 C 45.296875 5.652344 45.300781 5.605469 45.300781 5.558594 C 45.320312 5.316406 45.34375 5.074219 45.371094 4.828125 C 45.445312 4.179688 46.960938 4.207031 46.960938 4.207031 C 46.960938 4.207031 47.910156 4.535156 48.085938 5.273438 C 48.261719 6.015625 48.0625 6.890625 47.882812 7.28125 " fill-opacity="1" fill-rule="nonzero"/><path fill="#361e14" d="M 45.371094 6.226562 C 45.371094 6.304688 45.410156 6.371094 45.457031 6.371094 C 45.503906 6.371094 45.539062 6.304688 45.539062 6.226562 C 45.539062 6.144531 45.503906 6.078125 45.457031 6.078125 C 45.410156 6.078125 45.371094 6.144531 45.371094 6.226562 " fill-opacity="1" fill-rule="nonzero"/><path fill="#361e14" d="M 46.175781 6.226562 C 46.175781 6.3125 46.214844 6.382812 46.265625 6.382812 C 46.316406 6.382812 46.355469 6.3125 46.355469 6.226562 C 46.355469 6.136719 46.316406 6.066406 46.265625 6.066406 C 46.214844 6.066406 46.175781 6.136719 46.175781 6.226562 " fill-opacity="1" fill-rule="nonzero"/><path fill="#361e14" d="M 45.730469 6.882812 C 45.722656 6.882812 45.710938 6.878906 45.703125 6.871094 C 45.527344 6.714844 45.535156 6.6875 45.539062 6.664062 C 45.546875 6.640625 45.648438 6.421875 45.679688 6.355469 C 45.6875 6.335938 45.710938 6.324219 45.734375 6.335938 C 45.753906 6.34375 45.761719 6.367188 45.753906 6.386719 C 45.699219 6.503906 45.640625 6.632812 45.625 6.675781 C 45.644531 6.703125 45.707031 6.761719 45.757812 6.8125 C 45.777344 6.828125 45.777344 6.851562 45.761719 6.871094 C 45.753906 6.878906 45.742188 6.882812 45.730469 6.882812 " fill-opacity="1" fill-rule="nonzero"/><path fill="#663020" d="M 46.910156 4.890625 C 46.910156 4.890625 47.148438 5.4375 47.417969 6.128906 C 47.6875 6.820312 47.929688 7.167969 47.929688 7.167969 L 48.246094 6.25 C 48.246094 6.25 48.234375 4.808594 48.183594 4.609375 C 48.132812 4.40625 46.601562 3.894531 46.535156 3.933594 C 46.46875 3.96875 46.125 4.050781 45.871094 4.183594 C 45.621094 4.320312 45.289062 4.707031 45.257812 4.742188 C 45.226562 4.777344 44.929688 4.945312 44.929688 4.945312 C 44.929688 4.945312 45.105469 5.152344 45.863281 5.109375 C 46.390625 5.082031 46.910156 4.890625 46.910156 4.890625 " fill-opacity="1" fill-rule="nonzero"/><path fill="#361e14" d="M 46.460938 4.433594 C 46.363281 4.433594 46.128906 4.414062 45.996094 4.230469 C 45.832031 4 45.945312 3.78125 45.953125 3.773438 C 45.964844 3.753906 45.988281 3.746094 46.007812 3.757812 C 46.027344 3.769531 46.035156 3.792969 46.023438 3.8125 C 46.019531 3.820312 45.929688 3.996094 46.0625 4.183594 C 46.199219 4.375 46.492188 4.351562 46.496094 4.351562 C 46.515625 4.351562 46.535156 4.367188 46.539062 4.390625 C 46.539062 4.414062 46.523438 4.433594 46.5 4.433594 C 46.5 4.433594 46.484375 4.433594 46.460938 4.433594 " fill-opacity="1" fill-rule="nonzero"/><path fill="#361e14" d="M 45.972656 4.703125 C 45.824219 4.703125 45.648438 4.679688 45.507812 4.582031 C 45.28125 4.429688 45.230469 4.179688 45.230469 4.167969 C 45.226562 4.144531 45.242188 4.125 45.261719 4.121094 C 45.285156 4.117188 45.308594 4.132812 45.3125 4.152344 C 45.3125 4.15625 45.355469 4.378906 45.554688 4.515625 C 45.816406 4.695312 46.25 4.59375 46.253906 4.59375 C 46.277344 4.585938 46.300781 4.601562 46.304688 4.621094 C 46.308594 4.644531 46.296875 4.667969 46.273438 4.671875 C 46.265625 4.675781 46.136719 4.703125 45.972656 4.703125 " fill-opacity="1" fill-rule="nonzero"/><path fill="#663020" d="M 46.71875 3.898438 C 46.71875 3.898438 47.839844 3.683594 48.417969 4.371094 C 49.054688 5.125 48.683594 5.742188 48.453125 6.171875 C 48.320312 6.417969 47.929688 7.167969 47.929688 7.167969 L 46.71875 3.898438 " fill-opacity="1" fill-rule="nonzero"/><g clip-path="url(#a7ff5d3156)"><path fill="#361e14" d="M 43.742188 20.953125 L 42.121094 24.484375 L 36.40625 24.484375 L 33.625 29.03125 L 29.472656 29.03125 C 29.472656 29.03125 32.34375 22.054688 33.851562 20.800781 C 34.660156 20.125 35.222656 19.769531 37.878906 19.777344 C 39.5625 19.78125 41.242188 19.847656 42.921875 19.917969 L 43.742188 20.953125 " fill-opacity="1" fill-rule="nonzero"/></g><g clip-path="url(#02ce2c775e)"><path fill="#5c3727" d="M 34.601562 23.785156 L 33.625 29.03125 L 32.601562 29.03125 C 33.125 27.609375 34.601562 23.785156 34.601562 23.785156 " fill-opacity="1" fill-rule="nonzero"/></g><g clip-path="url(#ca0a69110e)"><path fill="#361e14" d="M 45.476562 19.917969 C 43.796875 19.847656 42.113281 19.796875 40.433594 19.777344 C 39.875 19.773438 39.3125 19.761719 38.75 19.777344 C 37.90625 19.804688 37.03125 19.859375 36.34375 20.402344 C 34.804688 21.621094 34.660156 23.5625 34.316406 25.347656 C 34.082031 26.574219 33.851562 27.804688 33.625 29.03125 L 37.773438 29.03125 L 38.957031 24.484375 L 44.675781 24.484375 L 46.296875 20.953125 L 45.476562 19.917969 " fill-opacity="1" fill-rule="nonzero"/></g><path fill="#5c3727" d="M 34.4375 24.527344 L 34.359375 24.507812 C 34.390625 24.386719 35.128906 21.605469 35.300781 21.246094 C 35.464844 20.90625 35.800781 20.527344 36.1875 20.449219 L 36.207031 20.527344 C 35.847656 20.601562 35.53125 20.957031 35.375 21.28125 C 35.207031 21.632812 34.445312 24.5 34.4375 24.527344 " fill-opacity="1" fill-rule="nonzero"/><path fill="#ffa991" d="M 48.253906 8.828125 L 48.683594 9.066406 C 48.683594 9.066406 48.074219 10.816406 47.546875 11.539062 C 47.019531 12.261719 46.386719 13.265625 46.035156 13.152344 C 45.679688 13.039062 44.933594 12.367188 44.929688 12.023438 C 44.921875 11.683594 45.925781 8.835938 45.925781 8.835938 L 46.636719 8.617188 L 48.253906 8.828125 " fill-opacity="1" fill-rule="nonzero"/><path fill="#f27255" d="M 48.683594 9.066406 L 47.847656 8.996094 C 47.839844 9.003906 47.835938 9.015625 47.828125 9.023438 C 47.5625 9.328125 46.933594 9.335938 46.605469 9.132812 C 46.5 9.066406 46.445312 8.976562 46.429688 8.878906 L 45.925781 8.835938 C 45.925781 8.835938 44.640625 9.199219 44.042969 9.542969 C 43.449219 9.882812 42.855469 11.425781 42.730469 11.949219 C 42.605469 12.472656 42.6875 15.023438 42.578125 15.945312 C 42.464844 16.867188 41.550781 19.351562 41.585938 19.625 C 41.65625 20.132812 43.574219 19.996094 45.457031 20.503906 C 47.339844 21.015625 47.835938 19.777344 48.734375 19.832031 C 49.632812 19.882812 51.511719 10.898438 51.503906 10.734375 C 51.492188 10.570312 48.683594 9.066406 48.683594 9.066406 " fill-opacity="1" fill-rule="nonzero"/><path fill="#ffa991" d="M 44.796875 19.175781 L 44.714844 19.277344 L 43.941406 20.21875 L 43.589844 20.203125 L 40.242188 20.042969 C 40.242188 20.042969 38.914062 19.488281 38.933594 19.414062 C 38.953125 19.34375 39.648438 17.925781 39.648438 17.925781 C 39.652344 17.925781 42.234375 17.65625 43.671875 17.503906 C 43.976562 17.472656 44.226562 17.445312 44.394531 17.429688 C 44.535156 17.414062 44.617188 17.40625 44.617188 17.40625 L 44.796875 19.175781 " fill-opacity="1" fill-rule="nonzero"/><path fill="#ffffff" d="M 44.75 19.175781 C 44.742188 19.203125 44.730469 19.238281 44.714844 19.277344 L 43.941406 20.21875 L 43.589844 20.203125 C 43.746094 19.925781 44.082031 19.257812 44.070312 18.78125 C 44.058594 18.304688 43.789062 17.730469 43.671875 17.503906 C 43.976562 17.472656 44.226562 17.445312 44.394531 17.429688 C 44.511719 17.800781 44.796875 18.925781 44.75 19.175781 " fill-opacity="1" fill-rule="nonzero"/><path fill="#e3cec5" d="M 50.941406 19.175781 L 46.109375 19.175781 C 45.117188 19.175781 44.265625 19.875 44.074219 20.839844 L 43.160156 25.503906 L 48.40625 25.503906 L 50.941406 19.175781 " fill-opacity="1" fill-rule="nonzero"/><path fill="#f27255" d="M 51.28125 10.546875 C 51.28125 10.546875 52.25 11.074219 52.3125 12.386719 C 52.375 13.699219 51.558594 18.132812 50.332031 19.269531 C 49.109375 20.40625 43.941406 20.21875 43.941406 20.21875 C 43.941406 20.21875 44.210938 19.851562 44.296875 19.550781 C 44.484375 18.902344 44.425781 18.339844 44.136719 17.734375 C 43.90625 17.253906 43.515625 16.660156 43.585938 16.105469 C 43.601562 15.976562 43.652344 15.855469 43.742188 15.765625 C 44.832031 14.683594 48.011719 14.558594 48.011719 14.558594 L 51.28125 10.546875 " fill-opacity="1" fill-rule="nonzero"/><path fill="#ffa991" d="M 47.675781 5.589844 C 47.929688 5.644531 48.074219 5.949219 48 6.269531 C 47.957031 6.460938 47.847656 6.617188 47.710938 6.695312 C 47.6875 6.710938 47.664062 6.722656 47.640625 6.730469 C 47.566406 6.757812 47.492188 6.765625 47.417969 6.75 C 47.398438 6.746094 47.375 6.738281 47.359375 6.730469 C 47.332031 6.722656 47.308594 6.707031 47.285156 6.691406 C 47.117188 6.574219 47.035156 6.328125 47.09375 6.070312 C 47.167969 5.75 47.429688 5.535156 47.675781 5.589844 " fill-opacity="1" fill-rule="nonzero"/><path fill="#f27255" d="M 45.601562 7.050781 L 46.285156 7.050781 C 46.285156 7.050781 46.203125 7.242188 45.941406 7.28125 C 45.683594 7.316406 45.601562 7.050781 45.601562 7.050781 " fill-opacity="1" fill-rule="nonzero"/><path fill="#663020" d="M 46.582031 5.816406 C 46.578125 5.804688 46.574219 5.796875 46.566406 5.785156 C 46.542969 5.757812 46.511719 5.738281 46.476562 5.730469 C 46.414062 5.707031 46.347656 5.703125 46.28125 5.699219 C 46.230469 5.699219 46.175781 5.699219 46.125 5.714844 C 46.023438 5.75 45.980469 5.886719 46.101562 5.929688 C 46.144531 5.945312 46.191406 5.945312 46.238281 5.941406 C 46.300781 5.9375 46.367188 5.9375 46.429688 5.9375 C 46.457031 5.941406 46.488281 5.941406 46.511719 5.933594 C 46.539062 5.929688 46.566406 5.914062 46.582031 5.890625 C 46.59375 5.867188 46.59375 5.839844 46.582031 5.816406 " fill-opacity="1" fill-rule="nonzero"/><path fill="#663020" d="M 45.46875 5.714844 C 45.417969 5.695312 45.363281 5.699219 45.3125 5.703125 C 45.304688 5.703125 45.300781 5.703125 45.296875 5.703125 C 45.292969 5.726562 45.292969 5.75 45.289062 5.773438 C 45.289062 5.828125 45.285156 5.882812 45.285156 5.941406 C 45.308594 5.9375 45.332031 5.941406 45.355469 5.941406 C 45.402344 5.945312 45.449219 5.945312 45.488281 5.929688 C 45.609375 5.886719 45.566406 5.75 45.46875 5.714844 " fill-opacity="1" fill-rule="nonzero"/><path fill="#ffffff" d="M 45.925781 8.835938 C 45.925781 8.835938 46.382812 9.324219 47.074219 9.421875 C 47.769531 9.519531 48.683594 9.066406 48.683594 9.066406 L 48.289062 8.847656 C 48.289062 8.847656 47.613281 9.074219 47.191406 9.039062 C 46.773438 9.003906 46.296875 8.722656 46.296875 8.722656 L 45.925781 8.835938 " fill-opacity="1" fill-rule="nonzero"/><path fill="#ffa991" d="M 39.648438 17.925781 C 39.648438 17.925781 39.167969 17.992188 39.089844 18.003906 C 38.882812 18.035156 38.679688 18.070312 38.476562 18.113281 C 38.078125 18.195312 37.679688 18.304688 37.304688 18.46875 C 36.488281 18.820312 35.921875 19.375 35.460938 20.117188 C 35.347656 20.296875 35.203125 20.578125 35.175781 20.792969 C 35.144531 21.082031 35.300781 21.136719 35.484375 21.121094 C 35.601562 21.113281 35.742188 20.996094 35.742188 20.996094 C 35.742188 20.996094 35.890625 21.25 36.152344 21.15625 C 36.414062 21.058594 36.527344 20.875 36.527344 20.875 C 36.527344 20.875 36.765625 21.179688 37.046875 21.019531 C 37.167969 20.953125 37.347656 20.695312 37.53125 20.503906 C 37.785156 20.234375 38.039062 20.023438 38.039062 20.023438 C 38.039062 20.023438 39.59375 20.339844 40.242188 20.042969 C 40.890625 19.742188 41.089844 19.527344 41.132812 19.5 C 41.175781 19.46875 39.648438 17.925781 39.648438 17.925781 " fill-opacity="1" fill-rule="nonzero"/><path fill="#361e14" d="M 36.535156 20.988281 C 36.53125 20.988281 36.523438 20.988281 36.519531 20.984375 C 36.496094 20.976562 36.488281 20.949219 36.5 20.929688 C 36.511719 20.90625 36.796875 20.328125 37.117188 19.996094 C 37.433594 19.667969 37.613281 19.542969 37.621094 19.539062 C 37.636719 19.523438 37.664062 19.527344 37.675781 19.546875 C 37.691406 19.566406 37.683594 19.589844 37.667969 19.605469 C 37.664062 19.605469 37.484375 19.730469 37.175781 20.054688 C 36.863281 20.375 36.574219 20.960938 36.574219 20.964844 C 36.566406 20.980469 36.550781 20.988281 36.535156 20.988281 " fill-opacity="1" fill-rule="nonzero"/><path fill="#361e14" d="M 35.71875 21.132812 C 35.695312 21.132812 35.675781 21.113281 35.679688 21.089844 C 35.679688 21.078125 35.695312 20.8125 35.898438 20.46875 C 36.097656 20.117188 36.523438 19.574219 36.808594 19.351562 C 37.085938 19.136719 37.136719 19.105469 37.144531 19.101562 C 37.164062 19.09375 37.1875 19.101562 37.199219 19.121094 C 37.210938 19.140625 37.199219 19.164062 37.179688 19.175781 C 37.179688 19.175781 37.128906 19.203125 36.859375 19.414062 C 36.582031 19.632812 36.167969 20.164062 35.96875 20.507812 C 35.777344 20.835938 35.761719 21.09375 35.761719 21.09375 C 35.757812 21.117188 35.742188 21.132812 35.71875 21.132812 " fill-opacity="1" fill-rule="nonzero"/><path fill="#ffa991" d="M 37.878906 10.875 C 37.878906 10.875 38.007812 10.492188 37.835938 10.03125 C 37.667969 9.570312 37.375 9.363281 36.898438 8.996094 C 36.707031 8.847656 36.523438 8.6875 36.316406 8.5625 C 36.179688 8.476562 35.78125 8.253906 35.664062 8.484375 C 35.585938 8.640625 35.824219 8.855469 35.921875 8.953125 C 36.078125 9.109375 36.363281 9.402344 36.363281 9.402344 C 36.363281 9.402344 35.640625 10.980469 35.652344 11.179688 C 35.664062 11.378906 35.828125 11.648438 35.828125 11.648438 C 35.828125 11.648438 37.167969 11.722656 37.203125 11.730469 C 37.238281 11.742188 37.878906 10.875 37.878906 10.875 " fill-opacity="1" fill-rule="nonzero"/><path fill="#ffa991" d="M 35.828125 11.648438 C 35.828125 11.648438 34.550781 11.195312 34.097656 10.867188 C 33.640625 10.542969 33.3125 10.222656 33.378906 9.980469 C 33.449219 9.738281 33.753906 9.863281 33.753906 9.863281 C 33.753906 9.863281 33.402344 9.515625 33.324219 9.34375 C 33.246094 9.175781 33.25 9.003906 33.371094 8.917969 C 33.476562 8.84375 33.660156 8.917969 33.660156 8.917969 C 33.648438 8.914062 33.628906 8.867188 33.625 8.855469 C 33.59375 8.804688 33.570312 8.753906 33.550781 8.699219 C 33.511719 8.570312 33.503906 8.398438 33.660156 8.34375 C 33.78125 8.304688 33.941406 8.335938 34.039062 8.414062 C 34.160156 8.515625 34.289062 8.65625 34.289062 8.65625 C 34.246094 8.609375 34.230469 8.496094 34.230469 8.433594 C 34.222656 8.25 34.421875 8.167969 34.574219 8.242188 C 34.71875 8.316406 34.828125 8.46875 34.9375 8.582031 C 34.992188 8.636719 35.050781 8.695312 35.109375 8.75 C 35.519531 9.132812 36.527344 9.429688 36.527344 9.429688 C 36.527344 9.429688 37.074219 10.890625 37.03125 11.058594 C 36.988281 11.230469 35.828125 11.648438 35.828125 11.648438 " fill-opacity="1" fill-rule="nonzero"/><path fill="#361e14" d="M 34.820312 10.546875 C 34.816406 10.546875 34.8125 10.546875 34.808594 10.542969 C 34.796875 10.539062 34.539062 10.449219 34.277344 10.285156 C 34.035156 10.136719 33.757812 9.917969 33.753906 9.917969 C 33.738281 9.902344 33.734375 9.878906 33.75 9.859375 C 33.761719 9.84375 33.789062 9.839844 33.804688 9.851562 C 33.808594 9.855469 34.082031 10.070312 34.320312 10.21875 C 34.578125 10.375 34.832031 10.464844 34.835938 10.464844 C 34.855469 10.472656 34.867188 10.496094 34.859375 10.519531 C 34.851562 10.535156 34.835938 10.546875 34.820312 10.546875 " fill-opacity="1" fill-rule="nonzero"/><path fill="#361e14" d="M 36.910156 11.027344 C 36.898438 11.027344 36.882812 11.023438 36.875 11.011719 C 36.867188 11 36.695312 10.742188 36.515625 10.292969 C 36.367188 9.921875 36.347656 9.4375 36.347656 9.417969 C 36.347656 9.394531 36.363281 9.378906 36.386719 9.375 C 36.410156 9.375 36.429688 9.394531 36.429688 9.414062 C 36.429688 9.421875 36.449219 9.90625 36.59375 10.261719 C 36.769531 10.703125 36.941406 10.960938 36.945312 10.964844 C 36.957031 10.984375 36.953125 11.007812 36.933594 11.019531 C 36.925781 11.027344 36.917969 11.027344 36.910156 11.027344 " fill-opacity="1" fill-rule="nonzero"/><path fill="#361e14" d="M 35.089844 10.003906 C 35.085938 10.003906 35.082031 10 35.074219 10 C 35.0625 9.992188 34.730469 9.855469 34.402344 9.617188 C 34.078125 9.375 33.660156 8.988281 33.65625 8.984375 C 33.640625 8.96875 33.640625 8.941406 33.65625 8.925781 C 33.671875 8.910156 33.695312 8.90625 33.714844 8.921875 C 33.71875 8.925781 34.128906 9.3125 34.449219 9.550781 C 34.769531 9.785156 35.105469 9.921875 35.105469 9.921875 C 35.128906 9.933594 35.136719 9.957031 35.128906 9.976562 C 35.121094 9.992188 35.105469 10.003906 35.089844 10.003906 " fill-opacity="1" fill-rule="nonzero"/><path fill="#361e14" d="M 35.316406 9.511719 C 35.308594 9.511719 35.304688 9.511719 35.296875 9.507812 C 34.835938 9.316406 34.292969 8.738281 34.269531 8.710938 C 34.253906 8.695312 34.257812 8.667969 34.273438 8.65625 C 34.289062 8.640625 34.316406 8.640625 34.332031 8.65625 C 34.335938 8.664062 34.882812 9.25 35.332031 9.433594 C 35.351562 9.441406 35.359375 9.464844 35.351562 9.488281 C 35.347656 9.503906 35.332031 9.511719 35.316406 9.511719 " fill-opacity="1" fill-rule="nonzero"/><path fill="#361e14" d="M 40.429688 15.308594 C 40.410156 15.308594 40.390625 15.292969 40.390625 15.273438 L 40.324219 13.96875 C 40.320312 13.949219 40.332031 13.933594 40.351562 13.925781 C 40.371094 13.921875 40.390625 13.929688 40.398438 13.945312 L 40.871094 14.710938 C 40.882812 14.730469 40.878906 14.757812 40.859375 14.769531 C 40.839844 14.78125 40.8125 14.773438 40.800781 14.753906 L 40.414062 14.125 L 40.472656 15.269531 C 40.472656 15.289062 40.457031 15.308594 40.433594 15.308594 C 40.433594 15.308594 40.433594 15.308594 40.429688 15.308594 " fill-opacity="1" fill-rule="nonzero"/><path fill="#361e14" d="M 42.492188 12.757812 L 42.410156 12.769531 L 42.089844 10.808594 C 42.113281 10.78125 42.136719 10.75 42.160156 10.722656 L 42.492188 12.757812 " fill-opacity="1" fill-rule="nonzero"/><path fill="#361e14" d="M 44 17.46875 C 44 17.46875 46.496094 16.96875 46.804688 16.898438 C 47.113281 16.828125 47.878906 15.402344 47.945312 14.980469 C 48.011719 14.558594 48.234375 14.148438 48.234375 14.148438 C 48.234375 14.148438 47.46875 14.980469 47.21875 15.570312 C 46.96875 16.160156 44 17.46875 44 17.46875 " fill-opacity="1" fill-rule="nonzero"/><path fill="#361e14" d="M 47.945312 14.605469 C 47.9375 14.605469 47.929688 14.601562 47.921875 14.59375 C 47.902344 14.582031 47.898438 14.554688 47.914062 14.539062 C 47.949219 14.496094 48.757812 13.476562 49.335938 13.097656 C 50.773438 12.15625 52.019531 12.449219 52.035156 12.449219 C 52.054688 12.457031 52.070312 12.476562 52.0625 12.5 C 52.058594 12.523438 52.035156 12.535156 52.015625 12.53125 C 52.003906 12.527344 50.789062 12.246094 49.378906 13.167969 C 48.8125 13.535156 47.988281 14.578125 47.976562 14.589844 C 47.96875 14.597656 47.957031 14.605469 47.945312 14.605469 " fill-opacity="1" fill-rule="nonzero"/><path fill="#5c3727" d="M 39.003906 24.445312 C 39 24.445312 38.992188 24.445312 38.984375 24.441406 C 38.96875 24.433594 38.960938 24.414062 38.964844 24.394531 L 39.269531 22.972656 C 39.273438 22.949219 39.296875 22.9375 39.316406 22.941406 C 39.339844 22.945312 39.351562 22.96875 39.347656 22.988281 L 39.078125 24.253906 L 39.496094 23.757812 C 39.507812 23.742188 39.535156 23.738281 39.554688 23.753906 C 39.570312 23.769531 39.574219 23.792969 39.558594 23.8125 L 39.035156 24.429688 C 39.027344 24.441406 39.015625 24.445312 39.003906 24.445312 " fill-opacity="1" fill-rule="nonzero"/><path fill="#361e14" d="M 43.101562 25.992188 L 43.019531 25.980469 L 43.292969 24.328125 L 43.371094 24.34375 L 43.101562 25.992188 " fill-opacity="1" fill-rule="nonzero"/><path fill="#361e14" d="M 47.011719 4.902344 C 46.996094 4.902344 46.980469 4.890625 46.972656 4.875 C 46.964844 4.855469 46.976562 4.832031 47 4.824219 L 48.273438 4.355469 C 48.296875 4.347656 48.320312 4.359375 48.328125 4.378906 C 48.335938 4.402344 48.324219 4.425781 48.304688 4.433594 L 47.027344 4.898438 C 47.023438 4.902344 47.019531 4.902344 47.011719 4.902344 " fill-opacity="1" fill-rule="nonzero"/></svg>