<svg xmlns="http://www.w3.org/2000/svg" xmlns:xlink="http://www.w3.org/1999/xlink" width="48" zoomAndPan="magnify" viewBox="0 0 36 30.000001" height="40" preserveAspectRatio="xMidYMid meet" version="1.0"><defs><clipPath id="76337fa6d0"><path d="M 2 0.144531 L 35 0.144531 L 35 29.03125 L 2 29.03125 Z M 2 0.144531 " clip-rule="nonzero"/></clipPath><clipPath id="ddd860ef56"><path d="M 27 24 L 31 24 L 31 29.03125 L 27 29.03125 Z M 27 24 " clip-rule="nonzero"/></clipPath><clipPath id="5348386686"><path d="M 25 18 L 31 18 L 31 29.03125 L 25 29.03125 Z M 25 18 " clip-rule="nonzero"/></clipPath><clipPath id="b452e1a8c9"><path d="M 25 18 L 32 18 L 32 29.03125 L 25 29.03125 Z M 25 18 " clip-rule="nonzero"/></clipPath><clipPath id="cf231a8c37"><path d="M 24 20 L 28 20 L 28 29.03125 L 24 29.03125 Z M 24 20 " clip-rule="nonzero"/></clipPath><clipPath id="76f2e897fd"><path d="M 26 19 L 31 19 L 31 29.03125 L 26 29.03125 Z M 26 19 " clip-rule="nonzero"/></clipPath><clipPath id="159615052b"><path d="M 25 22 L 27 22 L 27 29.03125 L 25 29.03125 Z M 25 22 " clip-rule="nonzero"/></clipPath><clipPath id="e004bc83d1"><path d="M 1 15 L 19 15 L 19 29.03125 L 1 29.03125 Z M 1 15 " clip-rule="nonzero"/></clipPath></defs><g clip-path="url(#76337fa6d0)"><path fill="#e7e8ff" d="M 11.375 29.074219 L 27.039062 29.074219 C 28.804688 29.074219 30.488281 28.320312 31.675781 26.996094 L 32.652344 25.902344 C 34.074219 24.320312 34.199219 21.945312 32.953125 20.214844 C 31.734375 18.53125 31.820312 16.222656 33.160156 14.632812 L 33.40625 14.339844 C 35.382812 11.992188 34.808594 8.414062 32.199219 6.816406 L 24.222656 1.933594 C 21.300781 0.140625 17.515625 0.839844 15.402344 3.554688 L 14.910156 4.191406 C 14.054688 5.289062 12.78125 5.976562 11.402344 6.085938 L 10.566406 6.152344 C 8 6.351562 6.207031 8.804688 6.777344 11.34375 C 7.191406 13.195312 6.339844 15.101562 4.695312 16.019531 L 4.5625 16.09375 C 2.339844 17.328125 1.597656 20.195312 2.9375 22.371094 L 4.796875 25.382812 C 6.210938 27.679688 8.695312 29.074219 11.375 29.074219 Z M 11.375 29.074219 " fill-opacity="1" fill-rule="nonzero"/></g><g clip-path="url(#ddd860ef56)"><path fill="#032068" d="M 30.644531 24.992188 C 30.667969 26.925781 29.363281 28.558594 28.699219 29.128906 L 27.683594 29.128906 C 28.441406 26.550781 29.6875 25.265625 30.386719 24.839844 C 30.503906 24.769531 30.640625 24.851562 30.644531 24.992188 Z M 30.644531 24.992188 " fill-opacity="1" fill-rule="nonzero"/></g><g clip-path="url(#5348386686)"><path fill="#ffffff" d="M 30.75 18.644531 C 31.792969 22.601562 29.167969 27.285156 28.039062 29.027344 L 25.753906 29.027344 C 26.734375 21.566406 28.382812 19.753906 30.464844 18.527344 C 30.574219 18.460938 30.71875 18.519531 30.75 18.644531 Z M 30.75 18.644531 " fill-opacity="1" fill-rule="nonzero"/></g><g clip-path="url(#b452e1a8c9)"><path fill="#032068" d="M 30.515625 18.617188 C 30.570312 18.582031 30.636719 18.613281 30.652344 18.671875 C 31.167969 20.621094 30.777344 22.757812 30.113281 24.632812 C 29.460938 26.472656 28.550781 28.046875 27.984375 28.925781 L 25.871094 28.925781 C 26.359375 25.265625 27.007812 22.992188 27.785156 21.484375 C 28.570312 19.96875 29.488281 19.222656 30.515625 18.617188 Z M 30.847656 18.617188 C 30.796875 18.425781 30.582031 18.339844 30.414062 18.4375 C 29.359375 19.058594 28.410156 19.832031 27.605469 21.390625 C 26.804688 22.945312 26.144531 25.277344 25.652344 29.015625 L 25.636719 29.128906 L 28.09375 29.128906 L 28.125 29.082031 C 28.691406 28.207031 29.632812 26.59375 30.304688 24.699219 C 30.976562 22.808594 31.378906 20.625 30.847656 18.617188 Z M 30.847656 18.617188 " fill-opacity="1" fill-rule="evenodd"/></g><g clip-path="url(#cf231a8c37)"><path fill="#032068" d="M 27.0625 21.078125 C 27.964844 24.390625 26.933594 27.835938 26.261719 29.128906 L 24.585938 29.128906 C 24.207031 25.089844 25.738281 22.152344 26.75 21 C 26.847656 20.886719 27.023438 20.933594 27.0625 21.078125 Z M 27.0625 21.078125 " fill-opacity="1" fill-rule="nonzero"/></g><g clip-path="url(#76f2e897fd)"><path fill="#032068" d="M 29.328125 21.460938 L 29.875 19.90625 L 30.066406 19.976562 L 28.8125 23.53125 L 29.636719 23.28125 L 29.695312 23.480469 L 28.730469 23.773438 L 27.589844 27.007812 L 28.613281 26.621094 L 28.6875 26.8125 L 27.5 27.257812 L 26.863281 29.0625 L 26.671875 28.992188 L 27.964844 25.332031 L 27.488281 23.980469 L 27.679688 23.910156 L 28.070312 25.023438 L 29.210938 21.785156 L 28.855469 20.585938 L 29.050781 20.527344 Z M 29.328125 21.460938 " fill-opacity="1" fill-rule="evenodd"/></g><g clip-path="url(#159615052b)"><path fill="#ffffff" d="M 26.207031 23.726562 L 26.464844 22.285156 L 26.667969 22.320312 L 26.140625 25.246094 L 26.824219 24.882812 L 26.917969 25.0625 L 26.09375 25.5 L 25.640625 28.007812 L 26.207031 27.5625 L 26.332031 27.722656 L 25.585938 28.3125 L 25.445312 29.097656 L 25.246094 29.058594 L 25.609375 27.050781 L 25.011719 26.265625 L 25.171875 26.140625 L 25.65625 26.777344 L 26.160156 23.976562 L 25.679688 23.449219 L 25.828125 23.3125 Z M 26.207031 23.726562 " fill-opacity="1" fill-rule="evenodd"/></g><path fill="#ffffff" d="M 10.195312 3.578125 C 10.195312 3.199219 10.5 2.894531 10.875 2.894531 L 33.199219 2.894531 C 33.570312 2.894531 33.875 3.199219 33.875 3.578125 L 33.875 22.949219 C 33.875 23.324219 33.570312 23.632812 33.199219 23.632812 L 10.875 23.632812 C 10.5 23.632812 10.195312 23.324219 10.195312 22.949219 Z M 10.195312 3.578125 " fill-opacity="1" fill-rule="nonzero"/><path fill="#032068" d="M 10.09375 3.578125 C 10.09375 3.144531 10.445312 2.789062 10.875 2.789062 L 33.199219 2.789062 C 33.628906 2.789062 33.976562 3.144531 33.976562 3.578125 L 33.976562 22.949219 C 33.976562 23.382812 33.628906 23.734375 33.199219 23.734375 L 10.875 23.734375 C 10.445312 23.734375 10.09375 23.382812 10.09375 22.949219 Z M 10.875 2.996094 C 10.554688 2.996094 10.296875 3.257812 10.296875 3.578125 L 10.296875 22.949219 C 10.296875 23.269531 10.554688 23.53125 10.875 23.53125 L 33.199219 23.53125 C 33.515625 23.53125 33.773438 23.269531 33.773438 22.949219 L 33.773438 3.578125 C 33.773438 3.257812 33.515625 2.996094 33.199219 2.996094 Z M 10.875 2.996094 " fill-opacity="1" fill-rule="evenodd"/><path fill="#032068" d="M 10.195312 3.578125 C 10.195312 3.199219 10.5 2.894531 10.875 2.894531 L 33.199219 2.894531 C 33.570312 2.894531 33.875 3.199219 33.875 3.578125 L 33.875 5.253906 L 10.195312 5.253906 Z M 10.195312 3.578125 " fill-opacity="1" fill-rule="nonzero"/><path fill="#ffffff" d="M 12.339844 4.089844 C 12.339844 4.375 12.113281 4.605469 11.832031 4.605469 C 11.550781 4.605469 11.324219 4.375 11.324219 4.089844 C 11.324219 3.808594 11.550781 3.578125 11.832031 3.578125 C 12.113281 3.578125 12.339844 3.808594 12.339844 4.089844 Z M 12.339844 4.089844 " fill-opacity="1" fill-rule="nonzero"/><path fill="#ffffff" d="M 14.035156 4.089844 C 14.035156 4.375 13.808594 4.605469 13.527344 4.605469 C 13.246094 4.605469 13.019531 4.375 13.019531 4.089844 C 13.019531 3.808594 13.246094 3.578125 13.527344 3.578125 C 13.808594 3.578125 14.035156 3.808594 14.035156 4.089844 Z M 14.035156 4.089844 " fill-opacity="1" fill-rule="nonzero"/><path fill="#ffffff" d="M 15.726562 4.089844 C 15.726562 4.375 15.5 4.605469 15.21875 4.605469 C 14.9375 4.605469 14.710938 4.375 14.710938 4.089844 C 14.710938 3.808594 14.9375 3.578125 15.21875 3.578125 C 15.5 3.578125 15.726562 3.808594 15.726562 4.089844 Z M 15.726562 4.089844 " fill-opacity="1" fill-rule="nonzero"/><path fill="#e7e8ff" d="M 13.042969 16.855469 C 13.042969 16.742188 13.132812 16.652344 13.246094 16.652344 L 15.886719 16.652344 C 16 16.652344 16.089844 16.742188 16.089844 16.855469 L 16.089844 20.550781 C 16.089844 20.667969 16 20.757812 15.886719 20.757812 L 13.246094 20.757812 C 13.132812 20.757812 13.042969 20.667969 13.042969 20.550781 Z M 13.042969 16.855469 " fill-opacity="1" fill-rule="nonzero"/><path fill="#e7e8ff" d="M 18.023438 14.90625 C 18.023438 14.792969 18.113281 14.699219 18.226562 14.699219 L 20.867188 14.699219 C 20.980469 14.699219 21.070312 14.792969 21.070312 14.90625 L 21.070312 20.550781 C 21.070312 20.667969 20.980469 20.757812 20.867188 20.757812 L 18.226562 20.757812 C 18.113281 20.757812 18.023438 20.667969 18.023438 20.550781 Z M 18.023438 14.90625 " fill-opacity="1" fill-rule="nonzero"/><path fill="#f4ad5e" d="M 23 11.722656 C 23 11.609375 23.09375 11.519531 23.203125 11.519531 L 25.847656 11.519531 C 25.960938 11.519531 26.050781 11.609375 26.050781 11.722656 L 26.050781 20.550781 C 26.050781 20.667969 25.960938 20.757812 25.847656 20.757812 L 23.203125 20.757812 C 23.09375 20.757812 23 20.667969 23 20.550781 Z M 23 11.722656 " fill-opacity="1" fill-rule="nonzero"/><path fill="#e7e8ff" d="M 27.980469 13.878906 C 27.980469 13.765625 28.070312 13.671875 28.183594 13.671875 L 30.828125 13.671875 C 30.9375 13.671875 31.03125 13.765625 31.03125 13.878906 L 31.03125 20.550781 C 31.03125 20.667969 30.9375 20.757812 30.828125 20.757812 L 28.183594 20.757812 C 28.070312 20.757812 27.980469 20.667969 27.980469 20.550781 Z M 27.980469 13.878906 " fill-opacity="1" fill-rule="nonzero"/><path fill="#f4ad5e" d="M 13.042969 9.15625 C 13.042969 8.984375 13.179688 8.847656 13.347656 8.847656 L 17.003906 8.847656 C 17.171875 8.847656 17.308594 8.984375 17.308594 9.15625 L 17.308594 9.464844 C 17.308594 9.632812 17.171875 9.773438 17.003906 9.773438 L 13.347656 9.773438 C 13.179688 9.773438 13.042969 9.632812 13.042969 9.464844 Z M 13.042969 9.15625 " fill-opacity="1" fill-rule="nonzero"/><path fill="#e7e8ff" d="M 32.046875 7.820312 C 32.046875 8.386719 31.589844 8.847656 31.03125 8.847656 C 30.46875 8.847656 30.015625 8.386719 30.015625 7.820312 C 30.015625 7.253906 30.46875 6.792969 31.03125 6.792969 C 31.589844 6.792969 32.046875 7.253906 32.046875 7.820312 Z M 32.046875 7.820312 " fill-opacity="1" fill-rule="nonzero"/><path fill="#032068" d="M 24.519531 8.523438 L 29.550781 11.117188 L 29.460938 11.300781 L 24.53125 8.761719 L 19.589844 12.125 L 14.59375 13.617188 L 14.539062 13.421875 L 19.503906 11.9375 Z M 24.519531 8.523438 " fill-opacity="1" fill-rule="evenodd"/><path fill="#f4ad5e" d="M 15.074219 13.46875 C 15.074219 13.75 14.847656 13.980469 14.566406 13.980469 C 14.285156 13.980469 14.058594 13.75 14.058594 13.46875 C 14.058594 13.183594 14.285156 12.953125 14.566406 12.953125 C 14.847656 12.953125 15.074219 13.183594 15.074219 13.46875 Z M 15.074219 13.46875 " fill-opacity="1" fill-rule="nonzero"/><path fill="#f4ad5e" d="M 20.054688 12.03125 C 20.054688 12.3125 19.828125 12.542969 19.546875 12.542969 C 19.265625 12.542969 19.039062 12.3125 19.039062 12.03125 C 19.039062 11.746094 19.265625 11.519531 19.546875 11.519531 C 19.828125 11.519531 20.054688 11.746094 20.054688 12.03125 Z M 20.054688 12.03125 " fill-opacity="1" fill-rule="nonzero"/><path fill="#f4ad5e" d="M 25.035156 8.644531 C 25.035156 8.925781 24.804688 9.15625 24.527344 9.15625 C 24.246094 9.15625 24.019531 8.925781 24.019531 8.644531 C 24.019531 8.359375 24.246094 8.128906 24.527344 8.128906 C 24.804688 8.128906 25.035156 8.359375 25.035156 8.644531 Z M 25.035156 8.644531 " fill-opacity="1" fill-rule="nonzero"/><path fill="#f4ad5e" d="M 30.015625 11.210938 C 30.015625 11.492188 29.785156 11.722656 29.503906 11.722656 C 29.226562 11.722656 28.996094 11.492188 28.996094 11.210938 C 28.996094 10.925781 29.226562 10.695312 29.503906 10.695312 C 29.785156 10.695312 30.015625 10.925781 30.015625 11.210938 Z M 30.015625 11.210938 " fill-opacity="1" fill-rule="nonzero"/><path fill="#f4ad5e" d="M 3.488281 9.375 L 3.148438 9.273438 C 3.085938 9.257812 3.082031 9.171875 3.144531 9.148438 L 3.46875 9.03125 C 3.488281 9.023438 3.503906 9.007812 3.511719 8.988281 L 3.613281 8.617188 C 3.632812 8.558594 3.710938 8.554688 3.738281 8.609375 L 3.890625 8.964844 C 3.898438 8.984375 3.910156 8.996094 3.929688 9.003906 L 4.332031 9.132812 C 4.390625 9.152344 4.390625 9.238281 4.332031 9.257812 L 3.957031 9.386719 C 3.9375 9.394531 3.925781 9.40625 3.917969 9.425781 L 3.761719 9.832031 C 3.738281 9.890625 3.652344 9.886719 3.636719 9.824219 L 3.535156 9.421875 C 3.527344 9.398438 3.511719 9.378906 3.488281 9.375 Z M 3.488281 9.375 " fill-opacity="1" fill-rule="nonzero"/><path fill="#f4ad5e" d="M 6.382812 6.042969 L 6.296875 5.964844 C 6.25 5.921875 6.285156 5.84375 6.347656 5.851562 L 6.457031 5.859375 C 6.476562 5.863281 6.5 5.855469 6.511719 5.839844 L 6.605469 5.734375 C 6.644531 5.6875 6.722656 5.71875 6.71875 5.777344 L 6.714844 5.921875 C 6.714844 5.941406 6.71875 5.960938 6.734375 5.972656 L 6.851562 6.085938 C 6.894531 6.128906 6.859375 6.207031 6.796875 6.199219 L 6.65625 6.179688 C 6.636719 6.179688 6.617188 6.183594 6.601562 6.199219 L 6.484375 6.3125 C 6.4375 6.355469 6.363281 6.3125 6.375 6.25 L 6.402344 6.101562 C 6.410156 6.082031 6.402344 6.054688 6.382812 6.042969 Z M 6.382812 6.042969 " fill-opacity="1" fill-rule="nonzero"/><path fill="#efcb96" d="M 17.132812 17.796875 C 17.046875 18.136719 16.847656 18.5 16.835938 18.546875 L 17.609375 19.476562 C 17.699219 19.410156 17.933594 19.25 18.183594 19.105469 C 18.496094 18.925781 19.109375 18.203125 19.28125 17.726562 C 19.457031 17.253906 18.867188 16.839844 18.53125 16.910156 C 18.382812 16.996094 17.921875 17.425781 17.707031 17.632812 C 17.734375 17.464844 17.742188 17.132812 17.570312 17.128906 C 17.359375 17.125 17.222656 17.453125 17.132812 17.796875 Z M 17.132812 17.796875 " fill-opacity="1" fill-rule="nonzero"/><path fill="#efcb96" d="M 7.335938 11.230469 C 6.085938 12.117188 6.613281 13.695312 6.847656 14.308594 L 6.742188 15.554688 C 6.851562 15.949219 7.238281 16.734375 7.929688 16.734375 C 8.625 16.734375 8.941406 16.0625 9.015625 15.730469 L 8.90625 14.78125 C 9.71875 14.484375 9.773438 13.300781 9.71875 12.355469 C 9.65625 11.230469 8.433594 10.449219 7.335938 11.230469 Z M 7.335938 11.230469 " fill-opacity="1" fill-rule="nonzero"/><path fill="#032068" d="M 6.886719 14 L 6.777344 15.070312 C 6.742188 14.992188 6.660156 14.761719 6.617188 14.476562 C 6.5625 14.117188 5.695312 12.746094 5.96875 11.734375 C 6.183594 10.921875 6.777344 10.957031 7.046875 11.078125 C 7.210938 10.777344 8.183594 9.765625 9.585938 9.882812 C 10.992188 10.003906 11.152344 12.03125 10.019531 12.328125 C 9.109375 12.566406 8.09375 12.429688 7.695312 12.328125 C 7.660156 12.410156 7.554688 12.675781 7.425781 13.105469 C 7.261719 13.640625 7.261719 13.761719 7.210938 13.402344 C 7.15625 13.042969 6.941406 12.390625 6.667969 13.042969 C 6.453125 13.570312 6.722656 13.898438 6.886719 14 Z M 6.886719 14 " fill-opacity="1" fill-rule="nonzero"/><path fill="#032068" d="M 7.671875 14.761719 C 8.042969 14.980469 8.617188 14.851562 8.859375 14.761719 L 8.910156 15.144531 C 8.371094 15.277344 7.859375 14.945312 7.671875 14.761719 Z M 7.671875 14.761719 " fill-opacity="1" fill-rule="nonzero"/><g clip-path="url(#e004bc83d1)"><path fill="#f4ad5e" d="M 7.882812 16.171875 C 8.640625 16.171875 9.042969 15.757812 9.171875 15.507812 C 9.1875 15.480469 9.214844 15.460938 9.246094 15.460938 C 11.613281 15.503906 13.261719 18.253906 13.816406 19.679688 C 13.828125 19.710938 13.859375 19.730469 13.890625 19.726562 C 14.578125 19.65625 16.183594 18.328125 16.628906 18.230469 C 17.085938 18.128906 17.953125 19.382812 18.003906 19.730469 C 18.054688 20.074219 16.019531 23.457031 15.152344 24.226562 C 14.664062 24.664062 14.011719 24.835938 13.527344 24.800781 C 13.476562 24.796875 13.429688 24.839844 13.4375 24.894531 C 13.613281 26.300781 13.746094 27.828125 13.585938 28.210938 C 13.34375 28.78125 11.0625 29.175781 9.195312 29.175781 C 5.964844 29.175781 1.796875 29.097656 1.273438 28.566406 C 0.617188 27.90625 1.476562 19.679688 2.9375 17.597656 C 4.082031 15.96875 5.816406 15.433594 6.570312 15.460938 C 6.601562 15.460938 6.628906 15.480469 6.640625 15.511719 C 6.753906 15.757812 7.125 16.171875 7.882812 16.171875 Z M 7.882812 16.171875 " fill-opacity="1" fill-rule="nonzero"/></g><path fill="#032068" d="M 4.25 27.347656 C 3.523438 26.578125 2.535156 24.148438 2.128906 23.03125 C 2.230469 24.570312 3.59375 28.058594 4.25 28.058594 C 5.703125 28.382812 9.261719 26.027344 10.859375 24.808594 C 8.960938 25.976562 4.976562 28.121094 4.25 27.347656 Z M 4.25 27.347656 " fill-opacity="1" fill-rule="nonzero"/><path fill="#032068" d="M 11.917969 18.714844 L 12.425781 20.238281 L 12.777344 20.238281 Z M 11.917969 18.714844 " fill-opacity="1" fill-rule="nonzero"/><path fill="#032068" d="M 6.320312 27.296875 C 5.109375 26.28125 3.796875 26.09375 3.292969 26.128906 C 3.425781 26.585938 3.976562 27.480469 4.503906 27.601562 C 5.027344 27.722656 5.882812 27.46875 6.320312 27.296875 Z M 6.320312 27.296875 " fill-opacity="1" fill-rule="nonzero"/><path fill="#032068" d="M 6.824219 22.777344 L 6.269531 20.085938 L 7.378906 22.625 C 8.386719 22.371094 9.480469 22.371094 10.050781 22.371094 C 7.730469 22.777344 6.621094 23.234375 5.5625 23.539062 Z M 6.824219 22.777344 " fill-opacity="1" fill-rule="nonzero"/><path fill="#ffffff" d="M 12.015625 20.144531 L 11.675781 25.105469 C 11.671875 25.160156 11.71875 25.199219 11.773438 25.1875 L 14.644531 24.414062 C 14.675781 24.40625 14.695312 24.382812 14.699219 24.347656 L 15.242188 19.574219 C 15.25 19.519531 15.203125 19.476562 15.152344 19.488281 L 12.078125 20.074219 C 12.042969 20.082031 12.019531 20.109375 12.015625 20.144531 Z M 12.015625 20.144531 " fill-opacity="1" fill-rule="nonzero"/><path fill="#032068" d="M 15.136719 19.410156 C 15.238281 19.390625 15.332031 19.476562 15.320312 19.582031 L 14.777344 24.359375 C 14.769531 24.421875 14.726562 24.476562 14.664062 24.492188 L 11.792969 25.261719 C 11.6875 25.289062 11.589844 25.207031 11.597656 25.101562 L 11.9375 20.140625 C 11.941406 20.070312 11.996094 20.007812 12.066406 19.996094 Z M 15.164062 19.566406 L 12.09375 20.152344 L 11.753906 25.109375 L 14.625 24.339844 Z M 15.164062 19.566406 " fill-opacity="1" fill-rule="evenodd"/><path fill="#efcb96" d="M 11.164062 22.167969 C 10.925781 22.382812 10.535156 22.570312 10.367188 22.742188 L 10.65625 24.148438 C 10.898438 24.109375 11.355469 23.953125 11.640625 23.867188 C 11.960938 23.800781 12.648438 23.601562 12.8125 23.355469 C 13.015625 23.046875 13.21875 21.867188 12.8125 21.921875 C 12.484375 21.960938 11.984375 22.140625 11.773438 22.277344 L 11.84375 21.460938 C 11.339844 21.613281 11.414062 21.9375 11.164062 22.167969 Z M 11.164062 22.167969 " fill-opacity="1" fill-rule="nonzero"/></svg>