<svg xmlns="http://www.w3.org/2000/svg" xmlns:xlink="http://www.w3.org/1999/xlink" width="80" zoomAndPan="magnify" viewBox="0 0 60 64.499998" height="86" preserveAspectRatio="xMidYMid meet" version="1.0"><defs><clipPath id="b7c75c7213"><path d="M 0.230469 41 L 37 41 L 37 62.878906 L 0.230469 62.878906 Z M 0.230469 41 " clip-rule="nonzero"/></clipPath></defs><path fill="#1d0e07" d="M 30.820312 3.972656 C 32.320312 5.039062 33.261719 6.542969 34.007812 8.199219 C 34.679688 9.691406 35.085938 11.355469 36 12.726562 C 36.753906 13.859375 37.925781 14.621094 38.917969 15.527344 C 39.640625 16.1875 41.398438 18.097656 40.210938 19.007812 C 40.082031 19.105469 40.152344 19.359375 40.332031 19.292969 C 43.191406 18.210938 38.324219 14.363281 37.476562 13.605469 C 35.882812 12.183594 35.339844 10.128906 34.503906 8.238281 C 33.707031 6.433594 32.636719 4.832031 30.925781 3.789062 C 30.808594 3.714844 30.707031 3.894531 30.820312 3.972656 Z M 30.820312 3.972656 " fill-opacity="1" fill-rule="nonzero"/><path fill="#1d0e07" d="M 20.597656 4.160156 C 18.960938 5.386719 17.121094 6.324219 17.277344 8.660156 C 17.34375 9.65625 18.335938 12.449219 19.734375 11.078125 C 19.789062 11.019531 19.746094 10.933594 19.671875 10.929688 C 18.171875 10.839844 17.785156 9.453125 17.773438 8.125 C 17.761719 6.289062 19.660156 5.5 20.757812 4.371094 C 20.859375 4.265625 20.71875 4.070312 20.597656 4.160156 Z M 20.597656 4.160156 " fill-opacity="1" fill-rule="nonzero"/><path fill="#1d0e07" d="M 32.144531 4.085938 C 34.789062 6.859375 34.707031 10.789062 35.761719 12.902344 C 37.214844 15.675781 40.785156 16.46875 41.578125 19.640625 C 42.371094 23.078125 41.445312 25.984375 37.746094 26.644531 C 34.574219 27.171875 32.195312 26.246094 30.476562 23.472656 C 28.230469 19.375 27.171875 12.769531 28.097656 8.144531 " fill-opacity="1" fill-rule="nonzero"/><path fill="#a0a0c2" d="M 26.742188 34.070312 C 24.5625 34.269531 23.074219 38.472656 20.894531 39.066406 C 17.523438 40.054688 9.792969 41.046875 9.792969 45.40625 C 9.992188 52.941406 26.644531 49.769531 30.804688 51.550781 C 39.132812 54.722656 45.871094 62.058594 55.191406 56.902344 C 59.75 54.328125 58.957031 49.371094 56.179688 45.605469 C 53.800781 42.238281 49.042969 39.859375 45.476562 37.875 " fill-opacity="1" fill-rule="nonzero"/><path fill="#cf5443" d="M 22.386719 43.121094 C 26.117188 42.492188 29.523438 43.542969 32.105469 46.339844 C 34.21875 48.628906 35.316406 51.726562 37.894531 53.605469 C 38.101562 53.753906 38.296875 53.414062 38.09375 53.265625 C 35.148438 51.125 33.980469 47.351562 31.261719 44.964844 C 28.761719 42.769531 25.488281 42.199219 22.28125 42.742188 C 22.03125 42.78125 22.136719 43.160156 22.386719 43.121094 Z M 22.386719 43.121094 " fill-opacity="1" fill-rule="nonzero"/><path fill="#cf5443" d="M 32.429688 46.753906 C 35.023438 47.578125 37.675781 47.535156 40.355469 47.707031 C 41.527344 47.78125 42.691406 47.96875 43.816406 48.308594 C 45.066406 48.683594 45.867188 49.3125 46.722656 50.261719 C 46.808594 50.355469 46.996094 50.257812 46.945312 50.128906 C 46.226562 48.261719 43.308594 47.710938 41.601562 47.5 C 40.300781 47.335938 39.007812 47.351562 37.703125 47.3125 C 35.921875 47.265625 34.214844 46.878906 32.460938 46.640625 C 32.386719 46.628906 32.355469 46.730469 32.429688 46.753906 Z M 32.429688 46.753906 " fill-opacity="1" fill-rule="nonzero"/><g clip-path="url(#b7c75c7213)"><path fill="#f9efe3" d="M 20.113281 49.519531 C 21.390625 50.050781 38.144531 55.699219 36.382812 57.589844 C 35.460938 58.515625 25.246094 61.902344 22.429688 62.386719 C 19.609375 62.871094 4.15625 57.769531 3.1875 55.609375 C 2.21875 53.449219 0.238281 43.679688 0.371094 42.40625 C 0.503906 40.996094 2.132812 41.261719 3.144531 41.4375 C 5.082031 41.742188 7.0625 42.183594 9 42.625 C 11.332031 43.109375 13.621094 43.769531 16 44.296875 C 17.101562 44.5625 18.90625 44.691406 19.699219 45.574219 C 20.269531 46.101562 20.535156 46.761719 20.667969 47.554688 C 20.753906 48.125 22.734375 60.554688 22.691406 61.128906 " fill-opacity="1" fill-rule="nonzero"/></g><path fill="#cf5443" d="M 25.253906 52.753906 C 24.550781 52.480469 23.84375 52.214844 23.136719 51.957031 C 22.695312 51.796875 22.257812 51.640625 21.816406 51.484375 C 21.660156 51.429688 21.429688 51.316406 21.257812 51.359375 C 21.226562 51.367188 21.203125 51.414062 21.226562 51.441406 C 21.515625 51.828125 22.496094 51.980469 22.925781 52.132812 C 23.683594 52.398438 24.445312 52.660156 25.210938 52.910156 C 25.3125 52.945312 25.351562 52.789062 25.253906 52.753906 Z M 25.253906 52.753906 " fill-opacity="1" fill-rule="nonzero"/><path fill="#cf5443" d="M 29.378906 58.777344 C 28.144531 59.164062 26.898438 59.519531 25.644531 59.832031 C 24.847656 60.03125 24.03125 60.234375 23.207031 60.285156 C 22.621094 60.324219 22.65625 59.9375 22.554688 59.445312 C 21.972656 56.632812 21.703125 53.734375 21.386719 50.882812 C 21.355469 50.632812 20.960938 50.628906 20.988281 50.882812 C 21.328125 53.921875 21.527344 57.113281 22.292969 60.078125 C 22.578125 61.179688 24.21875 60.5625 24.992188 60.394531 C 26.503906 60.0625 28.003906 59.625 29.484375 59.160156 C 29.726562 59.082031 29.621094 58.699219 29.378906 58.777344 Z M 29.378906 58.777344 " fill-opacity="1" fill-rule="nonzero"/><path fill="#de937b" d="M 32.390625 10.550781 C 33.246094 9.207031 33.835938 10.386719 33.898438 11.179688 C 34.0625 12.625 33.136719 13.105469 31.925781 13.5 " fill-opacity="1" fill-rule="nonzero"/><path fill="#de937b" d="M 32.371094 7.488281 C 33.292969 10.289062 32.089844 14.699219 29.949219 16.632812 C 27.0625 19.238281 23.066406 19.058594 21.199219 15.953125 C 20.238281 14.359375 19.214844 10.253906 19.480469 8.363281 C 19.609375 7.441406 19.835938 3.875 25.300781 3 C 30.765625 2.128906 31.804688 5.765625 32.371094 7.488281 Z M 32.371094 7.488281 " fill-opacity="1" fill-rule="nonzero"/><path fill="#1d0e07" d="M 20.304688 11.597656 C 20.445312 12.027344 20.902344 12.230469 21.316406 12.324219 C 21.652344 12.394531 22.316406 12.433594 22.5 12.082031 C 22.527344 12.03125 22.515625 11.957031 22.460938 11.929688 C 22.195312 11.804688 21.882812 11.953125 21.59375 11.949219 C 21.136719 11.941406 20.863281 11.65625 20.484375 11.457031 C 20.394531 11.40625 20.269531 11.488281 20.304688 11.597656 Z M 20.304688 11.597656 " fill-opacity="1" fill-rule="nonzero"/><path fill="#1d0e07" d="M 24.800781 12.019531 C 25.195312 12.484375 25.859375 12.453125 26.40625 12.351562 C 26.929688 12.253906 27.824219 11.976562 28.125 11.511719 C 28.160156 11.460938 28.113281 11.402344 28.058594 11.398438 C 27.644531 11.371094 27.222656 11.679688 26.847656 11.828125 C 26.164062 12.09375 25.621094 12.121094 24.945312 11.832031 C 24.824219 11.78125 24.710938 11.914062 24.800781 12.019531 Z M 24.800781 12.019531 " fill-opacity="1" fill-rule="nonzero"/><path fill="#de937b" d="M 22.472656 11.300781 C 23.140625 13.035156 20.421875 15.261719 23.59375 14.421875 " fill-opacity="1" fill-rule="nonzero"/><path fill="#cf5443" d="M 22.355469 11.332031 C 22.652344 12.347656 21.945312 13.199219 21.832031 14.171875 C 21.722656 15.121094 23.234375 14.769531 23.671875 14.554688 C 23.804688 14.488281 23.742188 14.269531 23.59375 14.273438 C 23.195312 14.289062 22.636719 14.554688 22.261719 14.359375 C 22.066406 14.257812 22.367188 13.589844 22.414062 13.460938 C 22.664062 12.742188 22.882812 12.007812 22.585938 11.265625 C 22.53125 11.128906 22.3125 11.179688 22.355469 11.332031 Z M 22.355469 11.332031 " fill-opacity="1" fill-rule="nonzero"/><path fill="#1d0e07" d="M 20.53125 10.199219 C 20.941406 10.050781 21.234375 10.003906 21.664062 10.148438 C 21.855469 10.214844 22.277344 10.578125 22.398438 10.242188 C 22.425781 10.171875 22.390625 10.101562 22.347656 10.046875 C 21.984375 9.609375 20.671875 9.335938 20.351562 9.960938 C 20.289062 10.078125 20.390625 10.25 20.53125 10.199219 Z M 20.53125 10.199219 " fill-opacity="1" fill-rule="nonzero"/><path fill="#1d0e07" d="M 24.949219 10.210938 C 25.847656 9.808594 26.574219 9.613281 27.515625 10.035156 C 27.769531 10.148438 27.972656 9.816406 27.734375 9.65625 C 26.859375 9.066406 25.503906 9.242188 24.714844 9.90625 C 24.53125 10.058594 24.761719 10.292969 24.949219 10.210938 Z M 24.949219 10.210938 " fill-opacity="1" fill-rule="nonzero"/><path fill="#1d0e07" d="M 22.6875 15.546875 C 23.996094 16.128906 25.496094 15.628906 26.609375 14.800781 C 26.660156 14.761719 26.652344 14.648438 26.570312 14.65625 C 26.054688 14.714844 25.621094 14.980469 25.160156 15.207031 C 24.332031 15.613281 23.644531 15.621094 22.761719 15.367188 C 22.65625 15.335938 22.585938 15.5 22.6875 15.546875 Z M 22.6875 15.546875 " fill-opacity="1" fill-rule="nonzero"/><path fill="#de937b" d="M 31.269531 14.621094 C 32.0625 17.261719 32.457031 17 34.707031 17 C 36.820312 17 37.746094 17.660156 37.878906 19.90625 C 38.140625 22.8125 36.820312 26.511719 36.027344 29.289062 C 35.761719 30.476562 35.5 32.195312 34.175781 32.457031 C 32.457031 32.722656 30.210938 30.476562 28.890625 29.550781 C 26.644531 28.097656 20.695312 24.53125 22.148438 21.09375 C 23.207031 18.585938 27.832031 19.246094 25.585938 15.414062 " fill-opacity="1" fill-rule="nonzero"/><path fill="#de937b" d="M 38.933594 43.160156 L 38.273438 41.574219 C 35.5 43.824219 32.328125 44.484375 29.15625 45.9375 C 27.039062 46.863281 27.039062 48.84375 25.71875 50.5625 C 24.398438 52.015625 23.867188 53.46875 22.8125 55.1875 C 24 54.921875 24.660156 53.601562 25.320312 52.808594 C 25.984375 53.601562 25.320312 54.921875 26.90625 55.320312 C 27.4375 55.582031 28.824219 54.988281 29.417969 54.65625 C 30.476562 55.1875 30.609375 54.789062 30.742188 53.863281 C 31.003906 52.542969 30.078125 52.941406 31.136719 51.488281 C 31.535156 51.089844 32.0625 50.957031 32.328125 50.429688 C 32.457031 50.03125 32.195312 49.371094 32.457031 49.109375 C 32.988281 48.183594 34.042969 48.449219 34.96875 48.316406 C 36.292969 48.050781 39.464844 48.050781 40.386719 46.992188 C 41.445312 45.804688 40.257812 43.558594 38.933594 43.160156 Z M 38.933594 43.160156 " fill-opacity="1" fill-rule="nonzero"/><path fill="#cf5443" d="M 27.765625 14.261719 C 27.980469 15.078125 29.113281 15.21875 29.96875 14.5625 C 30.953125 13.808594 31.625 12.136719 30.9375 11.523438 C 29.652344 10.378906 27.40625 13.261719 27.765625 14.261719 Z M 27.765625 14.261719 " fill-opacity="0.4" fill-rule="nonzero"/><path fill="#cf5443" d="M 21.058594 15.695312 C 21.058594 15.695312 21.058594 15.695312 21.054688 15.699219 C 20.640625 14.90625 20.226562 13.691406 19.917969 12.429688 C 20.464844 12.648438 21.011719 13.035156 21.359375 13.492188 C 22.015625 14.351562 21.875 15.484375 21.058594 15.695312 Z M 21.058594 15.695312 " fill-opacity="0.4" fill-rule="nonzero"/><path fill="#cf5443" d="M 32.25 12.46875 C 32.421875 12.113281 32.453125 11.71875 32.6875 11.382812 C 32.730469 11.320312 32.792969 11.257812 32.867188 11.230469 C 32.96875 11.195312 33.042969 11.277344 33.128906 11.308594 C 33.316406 11.375 33.417969 11.261719 33.292969 11.09375 C 33.039062 10.738281 32.59375 11.003906 32.40625 11.265625 C 32.28125 11.441406 32.207031 11.660156 32.144531 11.863281 C 32.089844 12.035156 32.019531 12.226562 32.023438 12.40625 C 32.023438 12.523438 32.195312 12.582031 32.25 12.46875 Z M 32.25 12.46875 " fill-opacity="1" fill-rule="nonzero"/><path fill="#1d0e07" d="M 20.871094 3.667969 C 19.242188 4.707031 16.707031 9.109375 20.34375 9.394531 C 20.003906 8.710938 20.167969 7.847656 20.675781 7.285156 C 20.804688 9.035156 21.242188 9.054688 22.660156 9.621094 C 22.636719 8.886719 22.761719 8.34375 23.199219 7.785156 C 23.339844 8.507812 23.191406 9.679688 24.042969 9.507812 C 25.039062 9.304688 25.292969 7.910156 26.125 7.503906 C 26.550781 9.039062 25.5 10.578125 27.828125 10.300781 C 29.097656 10.148438 29.976562 9.539062 30.871094 10.597656 C 31.054688 10.816406 30.890625 11.367188 31.355469 11.402344 C 31.65625 11.425781 31.617188 10.902344 31.808594 10.808594 C 32.511719 10.472656 33.464844 10.441406 33.882812 9.648438 C 34.597656 8.285156 33.445312 5.910156 32.691406 4.777344 C 30.242188 1.105469 24.203125 1.535156 20.871094 3.667969 Z M 20.871094 3.667969 " fill-opacity="1" fill-rule="nonzero"/><path fill="#cf5443" d="M 26.742188 18.382812 C 27.589844 18.46875 28.375 18.0625 29.046875 17.582031 C 29.601562 17.183594 30.375 16.507812 30.53125 15.808594 C 30.554688 15.691406 30.414062 15.59375 30.324219 15.6875 C 29.855469 16.171875 29.53125 16.734375 29.007812 17.179688 C 28.371094 17.726562 27.585938 18.082031 26.742188 18.125 C 26.574219 18.132812 26.578125 18.367188 26.742188 18.382812 Z M 26.742188 18.382812 " fill-opacity="1" fill-rule="nonzero"/><path fill="#cf5443" d="M 35.191406 17.617188 C 35.488281 19.003906 33.285156 21.523438 32.292969 22.21875 C 32.789062 22.8125 33.878906 23.308594 33.976562 24.101562 C 34.078125 24.894531 33.285156 25.289062 32.988281 25.882812 C 32.390625 27.46875 32.789062 29.351562 31.5 30.742188 C 29.914062 28.164062 28.128906 26.378906 25.257812 25.289062 C 23.847656 24.757812 23.394531 23.84375 23.722656 22.433594 C 23.921875 21.578125 24.839844 19.019531 23.246094 19.257812 C 20.152344 20.335938 19.851562 22.019531 19.804688 23.40625 C 19.757812 24.792969 18.515625 26.875 17.625 28.460938 C 17.128906 29.253906 16.53125 29.847656 16.832031 30.742188 C 17.027344 31.632812 17.921875 32.523438 18.21875 33.316406 C 19.011719 35.101562 19.011719 36.6875 19.507812 38.472656 C 17.722656 38.867188 16.730469 35.003906 15.640625 36.886719 C 14.648438 38.667969 15.839844 40.355469 17.523438 40.75 C 19.308594 41.148438 19.828125 41.691406 21.414062 41.292969 C 22.625 40.949219 23.601562 40.085938 24.421875 39.164062 C 24.910156 38.613281 25.195312 37.570312 25.890625 37.238281 C 27.148438 36.632812 26.765625 38.929688 27.105469 39.59375 C 27.6875 40.714844 29.277344 41.253906 30.445312 41.464844 C 31.210938 41.601562 32.152344 41.652344 32.695312 42.292969 C 33.441406 43.164062 32.050781 43.886719 32.683594 44.519531 C 33.390625 45.226562 35.988281 45.917969 36.355469 46.5 C 36.953125 47.390625 36.753906 48.578125 37.84375 49.273438 C 39.925781 50.460938 42.304688 49.273438 43.394531 47.488281 C 44.683594 45.308594 46.269531 44.8125 48.550781 43.921875 C 50.628906 43.03125 52.8125 42.535156 52.910156 39.957031 C 53.109375 34.902344 48.746094 31.136719 46.964844 26.777344 C 45.378906 22.910156 45.460938 17.875 38.125 16.488281 C 36.308594 16.144531 34.894531 16.230469 35.191406 17.617188 Z M 35.191406 17.617188 " fill-opacity="1" fill-rule="nonzero"/><path fill="#de937b" d="M 11.597656 24.933594 C 10.859375 24.105469 9.511719 23.75 8.40625 23.867188 C 8.40625 24.578125 9.265625 25.171875 9.753906 25.648438 C 8.160156 25.882812 9.753906 27.546875 10.125 28.375 C 10.492188 28.96875 10.125 28.96875 10.859375 29.5625 C 11.351562 29.917969 12.089844 29.800781 12.582031 30.035156 C 14.789062 31.222656 15.8125 34.328125 16.140625 36.5625 C 16.53125 39.214844 19.964844 41.085938 21.667969 37.746094 C 23.371094 34.40625 18.113281 30.003906 17.625 28.460938 C 17.378906 27.394531 17.984375 24.460938 16.265625 24.222656 " fill-opacity="1" fill-rule="nonzero"/><path fill="#f9efe3" d="M 10.46875 20.472656 C 9.558594 22.3125 10.753906 27.339844 11.175781 28.289062 C 11.597656 29.242188 15.957031 29.40625 16.460938 28.289062 C 16.964844 27.171875 17.449219 21.777344 17.316406 21.050781 C 17.058594 19.613281 11.378906 18.628906 10.46875 20.472656 Z M 10.46875 20.472656 " fill-opacity="1" fill-rule="nonzero"/><path fill="#cf5443" d="M 16.011719 20.527344 C 15.226562 20.222656 13.183594 20.128906 12.875 20.167969 C 12.5 20.214844 11.367188 20.226562 11.1875 20.582031 C 10.945312 21.078125 12.320312 21.171875 12.707031 21.253906 C 13.457031 21.417969 15.410156 21.421875 16.0625 21.054688 C 16.457031 20.832031 16.355469 20.660156 16.011719 20.527344 Z M 16.011719 20.527344 " fill-opacity="1" fill-rule="nonzero"/><path fill="#cf5443" d="M 27.183594 4.75 C 27.824219 4.933594 28.210938 5.5 28.398438 6.109375 C 28.589844 6.734375 28.417969 7.207031 28.167969 7.769531 C 28.113281 7.886719 28.238281 8.074219 28.371094 7.972656 C 28.9375 7.546875 28.871094 6.628906 28.703125 6.023438 C 28.503906 5.292969 27.972656 4.695312 27.207031 4.59375 C 27.113281 4.582031 27.101562 4.726562 27.183594 4.75 Z M 27.183594 4.75 " fill-opacity="1" fill-rule="nonzero"/><path fill="#cf5443" d="M 23.722656 4.519531 C 22.6875 4.707031 20.757812 6.136719 21.632812 7.332031 C 22.035156 7.878906 22.613281 7.347656 22.777344 6.878906 C 22.957031 6.367188 23 5.910156 23.289062 5.433594 C 23.460938 5.15625 23.671875 4.910156 23.859375 4.644531 C 23.953125 4.507812 23.75 4.375 23.636719 4.472656 C 23.351562 4.722656 23.136719 5.070312 22.941406 5.394531 C 22.605469 5.949219 22.675781 6.71875 22.234375 7.1875 C 21.9375 7.503906 21.746094 6.992188 21.703125 6.851562 C 21.664062 6.714844 21.703125 6.566406 21.738281 6.433594 C 21.824219 6.117188 22.070312 5.84375 22.289062 5.613281 C 22.675781 5.210938 23.214844 4.808594 23.75 4.628906 C 23.820312 4.605469 23.792969 4.503906 23.722656 4.519531 Z M 23.722656 4.519531 " fill-opacity="1" fill-rule="nonzero"/><path fill="#a0a0c2" d="M 29.167969 3.855469 C 31.109375 4.125 31.816406 6.710938 32.492188 8.179688 C 32.519531 8.238281 32.617188 8.222656 32.628906 8.160156 C 32.824219 7.234375 31.953125 6.015625 31.464844 5.308594 C 30.941406 4.554688 30.179688 3.695312 29.1875 3.703125 C 29.101562 3.703125 29.078125 3.84375 29.167969 3.855469 Z M 29.167969 3.855469 " fill-opacity="1" fill-rule="nonzero"/><path fill="#a0a0c2" d="M 34.433594 42.78125 C 34.882812 41.761719 35.601562 41.113281 36.6875 40.824219 C 37.480469 40.613281 38.234375 40.46875 38.835938 39.871094 C 39.191406 39.515625 39.230469 38.921875 39.339844 38.464844 C 39.535156 37.664062 40.3125 37.238281 40.941406 36.8125 C 41.746094 36.269531 41.929688 35.625 41.488281 34.753906 C 41.136719 34.054688 40.519531 33.503906 40.097656 32.84375 C 39.585938 32.039062 39.59375 31.15625 39.507812 30.242188 C 39.484375 29.972656 39.109375 29.96875 39.089844 30.242188 C 38.988281 31.628906 39.402344 32.753906 40.238281 33.839844 C 40.648438 34.375 41.699219 35.328125 41.132812 36.058594 C 40.832031 36.445312 40.304688 36.660156 39.925781 36.960938 C 39.5625 37.25 39.121094 37.644531 38.984375 38.109375 C 38.902344 38.398438 38.839844 38.683594 38.78125 38.976562 C 38.640625 39.652344 38.109375 39.980469 37.507812 40.222656 C 36.714844 40.542969 35.992188 40.59375 35.292969 41.125 C 34.765625 41.523438 34.4375 42.082031 34.238281 42.699219 C 34.203125 42.8125 34.386719 42.894531 34.433594 42.78125 Z M 34.433594 42.78125 " fill-opacity="1" fill-rule="nonzero"/><path fill="#a0a0c2" d="M 25.980469 35.160156 C 26.632812 34.371094 26.882812 33.570312 26.574219 32.570312 C 26.421875 32.074219 26.125 31.605469 25.851562 31.167969 C 25.503906 30.613281 25.230469 30.003906 24.867188 29.464844 C 24.761719 29.3125 24.539062 29.410156 24.570312 29.589844 C 24.976562 31.710938 27.285156 32.6875 25.839844 35.050781 C 25.785156 35.136719 25.914062 35.242188 25.980469 35.160156 Z M 25.980469 35.160156 " fill-opacity="1" fill-rule="nonzero"/><path fill="#cf5443" d="M 25.683594 21.546875 C 26.035156 21.652344 26.351562 21.792969 26.667969 21.984375 C 26.964844 22.164062 27.226562 22.433594 27.578125 22.496094 C 27.648438 22.507812 27.722656 22.4375 27.675781 22.367188 C 27.484375 22.0625 27.136719 21.882812 26.835938 21.691406 C 26.5 21.484375 26.121094 21.3125 25.71875 21.292969 C 25.570312 21.285156 25.550781 21.503906 25.683594 21.546875 Z M 25.683594 21.546875 " fill-opacity="1" fill-rule="nonzero"/><path fill="#cf5443" d="M 30.699219 21.914062 C 31.363281 21.683594 31.964844 21.34375 32.570312 20.996094 C 33.316406 20.570312 34.054688 20.296875 34.863281 20.03125 C 34.976562 19.992188 34.949219 19.847656 34.839844 19.835938 C 33.328125 19.683594 31.929688 21.167969 30.625 21.730469 C 30.519531 21.777344 30.597656 21.949219 30.699219 21.914062 Z M 30.699219 21.914062 " fill-opacity="1" fill-rule="nonzero"/><path fill="#a0a0c2" d="M 11.417969 49.148438 C 10.820312 48.753906 10.046875 49.285156 9.597656 49.769531 C 9.203125 49.253906 8.636719 48.507812 8.046875 49.25 C 7.386719 50.074219 8.9375 51.628906 9.632812 52.121094 C 10.128906 51.429688 12.507812 49.84375 11.417969 49.148438 Z M 11.417969 49.148438 " fill-opacity="1" fill-rule="nonzero"/><path fill="#a0a0c2" d="M 11.269531 22.269531 C 10.59375 23.261719 11.3125 24.335938 12.195312 24.902344 C 12.574219 25.144531 13.085938 25.597656 12.640625 26.085938 C 12.539062 26.195312 12.355469 26.355469 12.328125 26.511719 C 12.265625 26.875 12.441406 27.050781 12.757812 27.199219 C 12.914062 27.273438 13.042969 27.097656 12.9375 26.964844 C 12.511719 26.433594 13.640625 25.90625 13.242188 25.226562 C 13.0625 24.921875 12.671875 24.75 12.378906 24.585938 C 11.535156 24.109375 11.160156 23.269531 11.429688 22.335938 C 11.457031 22.238281 11.324219 22.191406 11.269531 22.269531 Z M 11.269531 22.269531 " fill-opacity="1" fill-rule="nonzero"/><path fill="#a0a0c2" d="M 48.257812 38.566406 C 48.269531 39.113281 48.089844 39.765625 48.5 40.207031 C 48.855469 40.578125 49.265625 40.832031 49.785156 40.65625 C 50.65625 40.359375 50.675781 39.160156 50.023438 38.667969 C 49.933594 38.597656 49.765625 38.667969 49.746094 38.78125 C 49.589844 39.703125 50.144531 40.558594 51.167969 40.105469 C 51.738281 39.855469 51.933594 39.367188 52.050781 38.777344 C 52.207031 37.964844 52.238281 37.167969 52.457031 36.359375 C 52.496094 36.207031 52.3125 36.113281 52.199219 36.210938 C 51.742188 36.617188 51.726562 37.300781 51.679688 37.871094 C 51.640625 38.375 51.621094 38.882812 51.410156 39.347656 C 51.261719 39.671875 50.914062 39.789062 50.59375 39.808594 C 50.050781 39.847656 50.054688 39.234375 50.109375 38.878906 C 50.019531 38.917969 49.925781 38.957031 49.832031 38.992188 C 50.613281 39.570312 49.738281 40.800781 48.898438 40.117188 C 48.355469 39.675781 48.75 39.023438 48.417969 38.523438 C 48.371094 38.453125 48.253906 38.476562 48.257812 38.566406 Z M 48.257812 38.566406 " fill-opacity="1" fill-rule="nonzero"/><path fill="#cf5443" d="M 51.652344 52.441406 C 51.6875 53.347656 52.945312 55.25 54.027344 54.304688 C 54.925781 53.519531 54.117188 51.832031 53.851562 50.925781 C 53.820312 50.828125 53.734375 50.757812 53.628906 50.757812 C 53.585938 50.757812 53.542969 50.757812 53.496094 50.753906 C 53.421875 50.753906 53.328125 50.800781 53.296875 50.871094 C 52.878906 51.832031 53.1875 53.191406 54.371094 53.355469 C 55.734375 53.546875 56.375 51.621094 56.667969 50.628906 C 56.699219 50.519531 56.566406 50.402344 56.46875 50.472656 C 55.878906 50.898438 55.726562 51.707031 55.390625 52.324219 C 55.023438 52.988281 54.179688 53.0625 53.753906 52.421875 C 53.585938 52.175781 53.570312 51.863281 53.574219 51.582031 C 53.597656 51.46875 53.621094 51.355469 53.644531 51.242188 C 53.589844 51.191406 53.523438 51.167969 53.445312 51.171875 C 53.652344 51.847656 53.90625 52.503906 53.972656 53.214844 C 54.027344 53.824219 53.660156 54.316406 52.96875 53.957031 C 52.441406 53.679688 51.992188 52.980469 51.902344 52.40625 C 51.878906 52.261719 51.644531 52.296875 51.652344 52.441406 Z M 51.652344 52.441406 " fill-opacity="1" fill-rule="nonzero"/></svg>