<svg xmlns="http://www.w3.org/2000/svg" xmlns:xlink="http://www.w3.org/1999/xlink" width="163" zoomAndPan="magnify" viewBox="0 0 122.25 133.499994" height="178" preserveAspectRatio="xMidYMid meet" version="1.0"><defs><clipPath id="f2e5821de7"><path d="M 66 0.160156 L 75 0.160156 L 75 9 L 66 9 Z M 66 0.160156 " clip-rule="nonzero"/></clipPath><clipPath id="2783443333"><path d="M 28 122 L 49 122 L 49 132.84375 L 28 132.84375 Z M 28 122 " clip-rule="nonzero"/></clipPath><clipPath id="809cbf4c52"><path d="M 46 128 L 52 128 L 52 132.84375 L 46 132.84375 Z M 46 128 " clip-rule="nonzero"/></clipPath></defs><path fill="#e9eff0" d="M 5.472656 52.195312 C 5.195312 49.839844 5.265625 47.246094 6.734375 45.378906 C 9.402344 41.996094 14.648438 42.933594 18.855469 41.972656 C 25.5625 40.433594 29.722656 33.757812 32.164062 27.335938 C 34.605469 20.914062 36.269531 13.867188 41.027344 8.902344 C 43.671875 6.140625 47.453125 4.160156 51.238281 4.699219 C 56.648438 5.472656 60.003906 10.738281 63.222656 15.140625 C 66.917969 20.1875 71.6875 24.902344 77.777344 26.363281 C 84.503906 27.980469 91.410156 25.367188 98.152344 23.820312 C 104.890625 22.273438 113.015625 22.21875 117.523438 27.457031 C 121.644531 32.25 120.894531 39.773438 117.609375 45.171875 C 114.320312 50.570312 109.039062 54.390625 104.070312 58.300781 C 99.097656 62.214844 94.121094 66.605469 91.875 72.507812 C 87.671875 83.554688 94.148438 96.660156 89.488281 107.523438 C 85.238281 117.433594 72 124.632812 61.964844 126.972656 C 50.851562 129.566406 39.746094 123.113281 29.164062 120.292969 C 21.828125 118.335938 12.683594 117.03125 6.589844 112.136719 C 0.195312 106.996094 2.601562 99.230469 6.253906 93.089844 C 10.121094 86.589844 12.605469 81.597656 11.277344 73.792969 C 10.019531 66.417969 6.351562 59.65625 5.472656 52.195312 Z M 5.472656 52.195312 " fill-opacity="1" fill-rule="nonzero"/><path fill="#c6cbcc" d="M 4.554688 73.851562 C 4.136719 73.851562 3.734375 73.929688 3.351562 74.089844 C 2.964844 74.246094 2.625 74.472656 2.332031 74.769531 C 2.035156 75.0625 1.808594 75.402344 1.652344 75.785156 C 1.492188 76.167969 1.410156 76.570312 1.410156 76.984375 C 1.410156 77.402344 1.492188 77.800781 1.652344 78.183594 C 1.808594 78.570312 2.039062 78.90625 2.332031 79.203125 C 2.625 79.496094 2.964844 79.722656 3.351562 79.882812 C 3.734375 80.039062 4.136719 80.121094 4.554688 80.121094 C 4.96875 80.121094 5.371094 80.039062 5.753906 79.882812 C 6.140625 79.722656 6.480469 79.496094 6.773438 79.203125 C 7.070312 78.90625 7.296875 78.570312 7.457031 78.183594 C 7.617188 77.800781 7.695312 77.402344 7.695312 76.984375 C 7.695312 76.570312 7.617188 76.167969 7.457031 75.785156 C 7.296875 75.402344 7.070312 75.0625 6.773438 74.769531 C 6.480469 74.472656 6.140625 74.246094 5.753906 74.089844 C 5.371094 73.929688 4.96875 73.851562 4.554688 73.851562 Z M 4.554688 79.644531 C 4.199219 79.644531 3.859375 79.574219 3.535156 79.441406 C 3.207031 79.304688 2.917969 79.113281 2.667969 78.863281 C 2.417969 78.617188 2.226562 78.328125 2.09375 78.003906 C 1.957031 77.675781 1.890625 77.335938 1.890625 76.984375 C 1.890625 76.632812 1.957031 76.292969 2.09375 75.96875 C 2.226562 75.640625 2.417969 75.355469 2.667969 75.105469 C 2.917969 74.855469 3.207031 74.664062 3.535156 74.53125 C 3.859375 74.394531 4.199219 74.328125 4.554688 74.328125 C 4.90625 74.328125 5.246094 74.394531 5.574219 74.53125 C 5.898438 74.664062 6.1875 74.855469 6.4375 75.105469 C 6.6875 75.355469 6.878906 75.640625 7.015625 75.96875 C 7.148438 76.292969 7.21875 76.632812 7.21875 76.984375 C 7.21875 77.335938 7.148438 77.675781 7.015625 78.003906 C 6.878906 78.328125 6.6875 78.617188 6.4375 78.863281 C 6.1875 79.113281 5.898438 79.304688 5.574219 79.441406 C 5.246094 79.574219 4.90625 79.644531 4.554688 79.644531 Z M 4.554688 79.644531 " fill-opacity="1" fill-rule="nonzero"/><g clip-path="url(#f2e5821de7)"><path fill="#c6cbcc" d="M 70.53125 0.160156 C 70.246094 0.160156 69.964844 0.1875 69.6875 0.242188 C 69.40625 0.296875 69.136719 0.378906 68.875 0.488281 C 68.613281 0.597656 68.363281 0.730469 68.125 0.886719 C 67.890625 1.042969 67.671875 1.222656 67.46875 1.425781 C 67.269531 1.625 67.089844 1.84375 66.929688 2.078125 C 66.773438 2.3125 66.640625 2.5625 66.53125 2.824219 C 66.421875 3.085938 66.339844 3.359375 66.285156 3.636719 C 66.230469 3.914062 66.203125 4.195312 66.203125 4.480469 C 66.203125 4.761719 66.230469 5.042969 66.285156 5.320312 C 66.339844 5.597656 66.421875 5.871094 66.53125 6.132812 C 66.640625 6.394531 66.773438 6.644531 66.933594 6.878906 C 67.089844 7.113281 67.269531 7.332031 67.46875 7.535156 C 67.671875 7.734375 67.890625 7.914062 68.125 8.070312 C 68.363281 8.226562 68.613281 8.359375 68.875 8.46875 C 69.136719 8.578125 69.40625 8.660156 69.6875 8.714844 C 69.964844 8.769531 70.246094 8.796875 70.53125 8.796875 C 70.816406 8.796875 71.097656 8.769531 71.375 8.714844 C 71.65625 8.660156 71.925781 8.578125 72.1875 8.46875 C 72.449219 8.359375 72.699219 8.226562 72.9375 8.070312 C 73.171875 7.914062 73.390625 7.734375 73.59375 7.53125 C 73.792969 7.332031 73.972656 7.113281 74.132812 6.878906 C 74.289062 6.640625 74.421875 6.394531 74.53125 6.132812 C 74.640625 5.871094 74.722656 5.597656 74.777344 5.320312 C 74.832031 5.042969 74.859375 4.761719 74.859375 4.476562 C 74.859375 4.195312 74.832031 3.914062 74.777344 3.636719 C 74.722656 3.355469 74.640625 3.085938 74.53125 2.824219 C 74.421875 2.5625 74.289062 2.3125 74.132812 2.078125 C 73.972656 1.84375 73.792969 1.625 73.59375 1.421875 C 73.390625 1.222656 73.171875 1.042969 72.9375 0.886719 C 72.699219 0.730469 72.449219 0.597656 72.1875 0.488281 C 71.925781 0.378906 71.65625 0.296875 71.375 0.242188 C 71.097656 0.1875 70.816406 0.160156 70.53125 0.160156 Z M 70.53125 8.140625 C 70.042969 8.140625 69.578125 8.046875 69.125 7.863281 C 68.675781 7.675781 68.28125 7.410156 67.9375 7.066406 C 67.59375 6.722656 67.328125 6.328125 67.140625 5.878906 C 66.953125 5.429688 66.859375 4.964844 66.859375 4.476562 C 66.859375 3.992188 66.953125 3.523438 67.140625 3.078125 C 67.328125 2.628906 67.59375 2.230469 67.9375 1.886719 C 68.28125 1.546875 68.675781 1.28125 69.125 1.09375 C 69.578125 0.910156 70.042969 0.816406 70.53125 0.816406 C 71.019531 0.816406 71.488281 0.910156 71.9375 1.09375 C 72.386719 1.28125 72.78125 1.546875 73.125 1.886719 C 73.472656 2.230469 73.734375 2.628906 73.921875 3.078125 C 74.109375 3.523438 74.203125 3.992188 74.203125 4.476562 C 74.203125 4.964844 74.109375 5.429688 73.921875 5.878906 C 73.734375 6.328125 73.472656 6.722656 73.125 7.066406 C 72.78125 7.410156 72.386719 7.675781 71.9375 7.863281 C 71.488281 8.046875 71.019531 8.140625 70.53125 8.140625 Z M 70.53125 8.140625 " fill-opacity="1" fill-rule="nonzero"/></g><path fill="#c6cbcc" d="M 90.292969 117.636719 C 90.011719 117.636719 89.742188 117.691406 89.480469 117.800781 C 89.21875 117.90625 88.988281 118.058594 88.789062 118.257812 C 88.589844 118.457031 88.4375 118.6875 88.328125 118.949219 C 88.222656 119.207031 88.167969 119.480469 88.167969 119.761719 C 88.167969 120.042969 88.222656 120.3125 88.328125 120.574219 C 88.4375 120.832031 88.589844 121.0625 88.789062 121.261719 C 88.988281 121.460938 89.21875 121.613281 89.480469 121.722656 C 89.742188 121.828125 90.011719 121.882812 90.292969 121.882812 C 90.578125 121.882812 90.847656 121.828125 91.109375 121.722656 C 91.371094 121.613281 91.597656 121.460938 91.800781 121.261719 C 92 121.0625 92.152344 120.832031 92.261719 120.574219 C 92.367188 120.3125 92.421875 120.042969 92.421875 119.761719 C 92.421875 119.480469 92.367188 119.207031 92.261719 118.949219 C 92.152344 118.6875 92 118.457031 91.800781 118.257812 C 91.597656 118.058594 91.371094 117.90625 91.109375 117.800781 C 90.847656 117.691406 90.578125 117.636719 90.292969 117.636719 Z M 90.292969 121.5625 C 90.054688 121.5625 89.824219 121.515625 89.605469 121.425781 C 89.382812 121.332031 89.1875 121.203125 89.019531 121.035156 C 88.847656 120.863281 88.71875 120.671875 88.628906 120.449219 C 88.535156 120.230469 88.488281 120 88.488281 119.761719 C 88.488281 119.523438 88.535156 119.292969 88.628906 119.070312 C 88.71875 118.851562 88.847656 118.65625 89.019531 118.488281 C 89.1875 118.320312 89.382812 118.1875 89.605469 118.097656 C 89.824219 118.007812 90.054688 117.960938 90.292969 117.960938 C 90.535156 117.960938 90.765625 118.007812 90.984375 118.097656 C 91.207031 118.1875 91.402344 118.320312 91.570312 118.488281 C 91.738281 118.65625 91.871094 118.851562 91.960938 119.070312 C 92.054688 119.292969 92.097656 119.523438 92.097656 119.761719 C 92.097656 120 92.054688 120.230469 91.960938 120.449219 C 91.871094 120.671875 91.738281 120.867188 91.570312 121.035156 C 91.402344 121.203125 91.207031 121.332031 90.984375 121.425781 C 90.765625 121.515625 90.535156 121.5625 90.292969 121.5625 Z M 90.292969 121.5625 " fill-opacity="1" fill-rule="nonzero"/><path fill="#d47374" d="M 41.601562 62.652344 C 41.601562 63.167969 41.550781 63.683594 41.449219 64.191406 C 41.347656 64.699219 41.199219 65.195312 41 65.675781 C 40.800781 66.152344 40.558594 66.609375 40.269531 67.039062 C 39.980469 67.472656 39.652344 67.871094 39.285156 68.238281 C 38.914062 68.605469 38.515625 68.929688 38.082031 69.21875 C 37.652344 69.507812 37.195312 69.75 36.714844 69.949219 C 36.234375 70.148438 35.738281 70.296875 35.230469 70.398438 C 34.71875 70.5 34.207031 70.550781 33.683594 70.550781 C 33.164062 70.550781 32.652344 70.5 32.140625 70.398438 C 31.632812 70.296875 31.136719 70.148438 30.65625 69.949219 C 30.175781 69.75 29.71875 69.507812 29.285156 69.21875 C 28.855469 68.929688 28.453125 68.605469 28.085938 68.238281 C 27.71875 67.871094 27.390625 67.472656 27.101562 67.039062 C 26.8125 66.609375 26.570312 66.152344 26.371094 65.675781 C 26.171875 65.195312 26.023438 64.699219 25.921875 64.191406 C 25.820312 63.683594 25.769531 63.167969 25.769531 62.652344 C 25.769531 62.132812 25.820312 61.617188 25.921875 61.109375 C 26.023438 60.601562 26.171875 60.105469 26.371094 59.628906 C 26.570312 59.148438 26.8125 58.691406 27.101562 58.261719 C 27.390625 57.832031 27.71875 57.433594 28.085938 57.066406 C 28.453125 56.699219 28.855469 56.371094 29.285156 56.082031 C 29.71875 55.792969 30.175781 55.550781 30.65625 55.351562 C 31.136719 55.152344 31.632812 55.003906 32.140625 54.902344 C 32.652344 54.800781 33.164062 54.75 33.683594 54.75 C 34.207031 54.75 34.71875 54.800781 35.230469 54.902344 C 35.738281 55.003906 36.234375 55.152344 36.714844 55.351562 C 37.195312 55.550781 37.652344 55.792969 38.082031 56.082031 C 38.515625 56.371094 38.914062 56.699219 39.285156 57.066406 C 39.652344 57.433594 39.980469 57.832031 40.269531 58.261719 C 40.558594 58.691406 40.800781 59.148438 41 59.628906 C 41.199219 60.105469 41.347656 60.601562 41.449219 61.109375 C 41.550781 61.617188 41.601562 62.132812 41.601562 62.652344 Z M 41.601562 62.652344 " fill-opacity="1" fill-rule="nonzero"/><path fill="#38405e" d="M 31.894531 61.484375 C 32.027344 61.753906 32.074219 62.015625 32.035156 62.273438 C 31.996094 62.53125 31.882812 62.703125 31.695312 62.796875 C 31.507812 62.886719 31.296875 62.871094 31.070312 62.742188 C 30.84375 62.617188 30.664062 62.417969 30.53125 62.148438 C 30.398438 61.875 30.351562 61.613281 30.390625 61.355469 C 30.429688 61.097656 30.546875 60.925781 30.734375 60.832031 C 30.921875 60.742188 31.128906 60.757812 31.355469 60.886719 C 31.582031 61.011719 31.761719 61.210938 31.894531 61.484375 Z M 31.894531 61.484375 " fill-opacity="1" fill-rule="nonzero"/><path fill="#38405e" d="M 35.222656 59.859375 C 35.355469 60.132812 35.402344 60.394531 35.363281 60.652344 C 35.324219 60.90625 35.210938 61.082031 35.023438 61.171875 C 34.835938 61.265625 34.628906 61.246094 34.402344 61.121094 C 34.175781 60.992188 33.996094 60.792969 33.863281 60.523438 C 33.730469 60.253906 33.683594 59.988281 33.722656 59.734375 C 33.761719 59.476562 33.875 59.300781 34.0625 59.210938 C 34.25 59.117188 34.457031 59.136719 34.683594 59.261719 C 34.910156 59.390625 35.089844 59.589844 35.222656 59.859375 Z M 35.222656 59.859375 " fill-opacity="1" fill-rule="nonzero"/><path fill="#38405e" d="M 29.882812 68.472656 C 29.996094 68.5 30.097656 68.480469 30.195312 68.421875 C 30.292969 68.363281 30.355469 68.277344 30.378906 68.164062 C 30.964844 65.691406 32.097656 64.027344 33.746094 63.222656 L 33.753906 63.21875 C 35.21875 62.511719 36.847656 62.601562 37.957031 62.804688 C 39.175781 63.027344 40.058594 63.429688 40.074219 63.4375 C 40.179688 63.484375 40.285156 63.488281 40.390625 63.449219 C 40.496094 63.410156 40.574219 63.339844 40.621094 63.238281 C 40.671875 63.132812 40.675781 63.03125 40.636719 62.921875 C 40.597656 62.816406 40.527344 62.738281 40.425781 62.691406 C 40.386719 62.671875 39.453125 62.242188 38.128906 62 C 37.382812 61.855469 36.632812 61.808594 35.875 61.851562 C 34.972656 61.90625 34.140625 62.117188 33.398438 62.476562 L 33.382812 62.484375 C 31.5 63.402344 30.21875 65.25 29.574219 67.976562 C 29.550781 68.089844 29.566406 68.191406 29.625 68.289062 C 29.6875 68.386719 29.773438 68.445312 29.882812 68.472656 Z M 29.882812 68.472656 " fill-opacity="1" fill-rule="nonzero"/><path fill="#262a3d" d="M 38.65625 70.503906 C 38.445312 72.984375 40.074219 75.136719 41.847656 76.679688 C 42.847656 77.546875 43.933594 78.304688 44.964844 79.132812 C 45.933594 79.910156 46.832031 80.765625 47.632812 81.71875 C 49.207031 83.589844 50.402344 85.769531 51.214844 88.070312 C 52.136719 90.667969 52.570312 93.421875 52.625 96.171875 C 52.652344 97.558594 52.589844 98.9375 52.445312 100.316406 C 52.3125 101.609375 52.136719 102.9375 52.390625 104.230469 C 52.457031 104.550781 52.546875 104.863281 52.667969 105.167969 C 52.695312 105.234375 52.796875 105.207031 52.773438 105.140625 C 52.269531 103.882812 52.335938 102.511719 52.460938 101.1875 C 52.59375 99.824219 52.726562 98.464844 52.738281 97.089844 C 52.761719 94.335938 52.425781 91.566406 51.613281 88.933594 C 50.90625 86.640625 49.835938 84.449219 48.402344 82.523438 C 47.695312 81.566406 46.898438 80.691406 46.019531 79.890625 C 45.042969 79.003906 43.964844 78.242188 42.929688 77.429688 C 41.003906 75.921875 39.003906 73.980469 38.765625 71.402344 C 38.738281 71.105469 38.738281 70.804688 38.765625 70.507812 C 38.769531 70.4375 38.664062 70.4375 38.65625 70.507812 Z M 38.65625 70.503906 " fill-opacity="1" fill-rule="nonzero"/><path fill="#262a3d" d="M 45.679688 53.425781 C 44.964844 56.957031 46.300781 60.441406 47.644531 63.652344 C 48.324219 65.285156 49.023438 66.917969 49.5 68.625 C 49.746094 69.511719 49.929688 70.414062 50.015625 71.332031 C 50.105469 72.269531 50.101562 73.21875 50.082031 74.160156 C 50.046875 75.976562 49.96875 77.804688 50.355469 79.59375 C 50.71875 81.261719 51.390625 82.84375 52.089844 84.398438 C 52.804688 85.996094 53.535156 87.585938 54.046875 89.261719 C 54.554688 90.933594 54.886719 92.636719 55.035156 94.375 C 55.332031 97.828125 54.921875 101.34375 53.804688 104.628906 C 53.664062 105.039062 53.511719 105.445312 53.351562 105.84375 C 53.328125 105.90625 53.429688 105.9375 53.453125 105.871094 C 54.726562 102.695312 55.320312 99.269531 55.226562 95.851562 C 55.179688 94.160156 54.964844 92.492188 54.582031 90.839844 C 54.195312 89.171875 53.613281 87.574219 52.925781 86.007812 C 52.222656 84.40625 51.449219 82.828125 50.902344 81.164062 C 50.625 80.328125 50.40625 79.46875 50.289062 78.59375 C 50.160156 77.644531 50.144531 76.6875 50.15625 75.730469 C 50.179688 73.902344 50.292969 72.070312 49.980469 70.257812 C 49.683594 68.519531 49.070312 66.851562 48.40625 65.21875 C 47.0625 61.917969 45.394531 58.519531 45.601562 54.859375 C 45.628906 54.386719 45.6875 53.917969 45.785156 53.453125 C 45.796875 53.386719 45.695312 53.355469 45.679688 53.425781 Z M 45.679688 53.425781 " fill-opacity="1" fill-rule="nonzero"/><path fill="#262a3d" d="M 59.585938 59.851562 C 58.679688 62.902344 57.269531 65.765625 55.933594 68.648438 C 54.625 71.460938 53.363281 74.335938 52.753906 77.390625 C 52.101562 80.660156 52.382812 83.976562 52.710938 87.261719 C 53.042969 90.589844 53.429688 93.992188 52.777344 97.304688 C 52.613281 98.132812 52.371094 98.9375 52.105469 99.734375 C 51.839844 100.535156 51.570312 101.351562 51.453125 102.195312 C 51.285156 103.410156 51.503906 104.789062 52.398438 105.695312 C 52.609375 105.910156 52.847656 106.082031 53.117188 106.214844 C 53.179688 106.246094 53.234375 106.152344 53.171875 106.121094 C 51.941406 105.511719 51.457031 104.054688 51.507812 102.757812 C 51.578125 101.078125 52.378906 99.519531 52.757812 97.902344 C 53.503906 94.714844 53.230469 91.410156 52.910156 88.1875 C 52.585938 84.894531 52.1875 81.558594 52.707031 78.265625 C 53.1875 75.195312 54.375 72.296875 55.660156 69.488281 C 56.949219 66.675781 58.351562 63.902344 59.34375 60.964844 C 59.464844 60.605469 59.582031 60.242188 59.6875 59.878906 C 59.707031 59.8125 59.605469 59.78125 59.585938 59.851562 Z M 59.585938 59.851562 " fill-opacity="1" fill-rule="nonzero"/><path fill="#262a3d" d="M 52.214844 77.53125 C 52.589844 79.289062 53.804688 80.679688 54.835938 82.09375 C 55.390625 82.855469 55.898438 83.648438 56.25 84.523438 C 56.613281 85.421875 56.828125 86.371094 56.925781 87.328125 C 57.121094 89.292969 56.84375 91.277344 56.359375 93.179688 C 55.847656 95.199219 55.078125 97.144531 54.382812 99.101562 C 53.683594 101.070312 53.039062 103.078125 52.777344 105.160156 C 52.746094 105.417969 52.71875 105.671875 52.699219 105.929688 C 52.695312 106 52.800781 106 52.808594 105.929688 C 52.976562 103.808594 53.574219 101.75 54.269531 99.746094 C 54.957031 97.765625 55.746094 95.816406 56.308594 93.796875 C 56.835938 91.90625 57.175781 89.933594 57.078125 87.964844 C 57.035156 87.023438 56.882812 86.082031 56.597656 85.183594 C 56.320312 84.296875 55.902344 83.46875 55.386719 82.695312 C 54.394531 81.203125 53.070312 79.859375 52.488281 78.128906 C 52.417969 77.925781 52.363281 77.714844 52.316406 77.503906 C 52.300781 77.433594 52.199219 77.464844 52.214844 77.53125 Z M 52.214844 77.53125 " fill-opacity="1" fill-rule="nonzero"/><path fill="#eed47f" d="M 76.75 49.976562 C 76.75 50.648438 76.683594 51.3125 76.550781 51.972656 C 76.421875 52.632812 76.226562 53.269531 75.96875 53.890625 C 75.710938 54.511719 75.394531 55.101562 75.019531 55.660156 C 74.644531 56.21875 74.222656 56.734375 73.746094 57.210938 C 73.269531 57.6875 72.75 58.109375 72.191406 58.484375 C 71.632812 58.855469 71.039062 59.171875 70.417969 59.429688 C 69.796875 59.6875 69.15625 59.878906 68.496094 60.011719 C 67.832031 60.144531 67.167969 60.207031 66.492188 60.207031 C 65.820312 60.207031 65.152344 60.144531 64.492188 60.011719 C 63.832031 59.878906 63.191406 59.6875 62.570312 59.429688 C 61.945312 59.171875 61.355469 58.855469 60.796875 58.484375 C 60.238281 58.109375 59.71875 57.6875 59.242188 57.210938 C 58.765625 56.734375 58.339844 56.21875 57.96875 55.660156 C 57.59375 55.101562 57.277344 54.511719 57.019531 53.890625 C 56.761719 53.269531 56.566406 52.632812 56.4375 51.972656 C 56.304688 51.3125 56.238281 50.648438 56.238281 49.976562 C 56.238281 49.304688 56.304688 48.636719 56.4375 47.980469 C 56.566406 47.320312 56.761719 46.679688 57.019531 46.058594 C 57.277344 45.4375 57.59375 44.851562 57.96875 44.289062 C 58.339844 43.730469 58.765625 43.214844 59.242188 42.742188 C 59.71875 42.265625 60.238281 41.839844 60.796875 41.46875 C 61.355469 41.09375 61.945312 40.78125 62.570312 40.523438 C 63.191406 40.265625 63.832031 40.070312 64.492188 39.941406 C 65.152344 39.808594 65.820312 39.742188 66.492188 39.742188 C 67.167969 39.742188 67.832031 39.808594 68.496094 39.941406 C 69.15625 40.070312 69.796875 40.265625 70.417969 40.523438 C 71.039062 40.78125 71.632812 41.09375 72.191406 41.46875 C 72.75 41.839844 73.269531 42.265625 73.746094 42.742188 C 74.222656 43.214844 74.644531 43.730469 75.019531 44.289062 C 75.394531 44.851562 75.710938 45.4375 75.96875 46.058594 C 76.226562 46.679688 76.421875 47.320312 76.550781 47.980469 C 76.683594 48.636719 76.75 49.304688 76.75 49.976562 Z M 76.75 49.976562 " fill-opacity="1" fill-rule="nonzero"/><path fill="#38405e" d="M 64.160156 44.113281 C 64.320312 44.214844 64.445312 44.359375 64.539062 44.539062 C 64.632812 44.722656 64.683594 44.929688 64.691406 45.164062 C 64.703125 45.398438 64.667969 45.640625 64.597656 45.890625 C 64.523438 46.140625 64.410156 46.382812 64.265625 46.609375 C 64.117188 46.839844 63.949219 47.039062 63.75 47.210938 C 63.554688 47.382812 63.347656 47.515625 63.128906 47.601562 C 62.914062 47.691406 62.703125 47.734375 62.5 47.726562 C 62.292969 47.71875 62.113281 47.664062 61.953125 47.5625 C 61.789062 47.460938 61.664062 47.320312 61.574219 47.136719 C 61.480469 46.953125 61.429688 46.746094 61.417969 46.511719 C 61.410156 46.277344 61.441406 46.035156 61.515625 45.785156 C 61.589844 45.535156 61.699219 45.296875 61.847656 45.066406 C 61.992188 44.839844 62.164062 44.636719 62.359375 44.464844 C 62.558594 44.292969 62.765625 44.164062 62.980469 44.074219 C 63.199219 43.984375 63.410156 43.941406 63.613281 43.949219 C 63.816406 43.957031 64 44.011719 64.160156 44.113281 Z M 64.160156 44.113281 " fill-opacity="1" fill-rule="nonzero"/><path fill="#38405e" d="M 72.800781 49.625 C 72.960938 49.726562 73.085938 49.867188 73.179688 50.050781 C 73.273438 50.230469 73.324219 50.441406 73.332031 50.675781 C 73.34375 50.910156 73.3125 51.152344 73.238281 51.402344 C 73.164062 51.652344 73.054688 51.890625 72.90625 52.121094 C 72.761719 52.347656 72.589844 52.546875 72.390625 52.722656 C 72.195312 52.894531 71.988281 53.023438 71.769531 53.113281 C 71.554688 53.203125 71.34375 53.242188 71.140625 53.238281 C 70.933594 53.230469 70.753906 53.175781 70.59375 53.074219 C 70.433594 52.96875 70.304688 52.828125 70.214844 52.644531 C 70.121094 52.464844 70.070312 52.257812 70.058594 52.023438 C 70.050781 51.789062 70.082031 51.546875 70.15625 51.296875 C 70.230469 51.046875 70.339844 50.804688 70.488281 50.578125 C 70.632812 50.347656 70.804688 50.148438 71 49.976562 C 71.199219 49.804688 71.40625 49.671875 71.621094 49.582031 C 71.839844 49.492188 72.050781 49.453125 72.253906 49.460938 C 72.457031 49.46875 72.640625 49.519531 72.800781 49.625 Z M 72.800781 49.625 " fill-opacity="1" fill-rule="nonzero"/><path fill="#38405e" d="M 63.496094 49.644531 C 64.074219 50.203125 65.929688 51.800781 68.402344 51.945312 C 68.570312 51.953125 68.542969 52.226562 68.367188 52.289062 C 66.464844 52.984375 62.21875 54.105469 63.222656 49.789062 C 63.257812 49.644531 63.414062 49.5625 63.496094 49.644531 Z M 63.496094 49.644531 " fill-opacity="1" fill-rule="nonzero"/><path fill="#eed47f" d="M 61.480469 57.53125 L 57.726562 59.222656 C 57.675781 59.246094 57.671875 59.273438 57.71875 59.308594 L 60.992188 61.652344 C 61.039062 61.6875 61.0625 61.675781 61.070312 61.617188 Z M 61.480469 57.53125 " fill-opacity="1" fill-rule="nonzero"/><path fill="#a8bdc7" d="M 50.269531 35.832031 C 50.71875 36.277344 51.117188 36.765625 51.464844 37.289062 C 51.816406 37.8125 52.113281 38.363281 52.355469 38.945312 C 52.597656 39.527344 52.777344 40.125 52.902344 40.746094 C 53.023438 41.363281 53.085938 41.984375 53.085938 42.617188 C 53.085938 43.246094 53.023438 43.867188 52.902344 44.488281 C 52.777344 45.105469 52.597656 45.703125 52.355469 46.285156 C 52.113281 46.867188 51.816406 47.421875 51.464844 47.945312 C 51.117188 48.46875 50.71875 48.953125 50.269531 49.398438 C 49.824219 49.84375 49.339844 50.238281 48.8125 50.589844 C 48.289062 50.941406 47.734375 51.234375 47.152344 51.476562 C 46.570312 51.71875 45.96875 51.898438 45.347656 52.023438 C 44.730469 52.144531 44.105469 52.207031 43.472656 52.207031 C 42.84375 52.207031 42.21875 52.144531 41.597656 52.023438 C 40.980469 51.898438 40.378906 51.71875 39.796875 51.476562 C 39.214844 51.234375 38.660156 50.941406 38.132812 50.589844 C 37.609375 50.238281 37.125 49.84375 36.679688 49.398438 C 36.230469 48.953125 35.832031 48.46875 35.484375 47.945312 C 35.132812 47.421875 34.835938 46.867188 34.59375 46.285156 C 34.351562 45.703125 34.171875 45.105469 34.046875 44.488281 C 33.925781 43.867188 33.863281 43.246094 33.863281 42.617188 C 33.863281 41.984375 33.925781 41.363281 34.046875 40.746094 C 34.171875 40.125 34.351562 39.527344 34.59375 38.945312 C 34.835938 38.363281 35.132812 37.8125 35.484375 37.289062 C 35.832031 36.765625 36.230469 36.277344 36.679688 35.832031 C 37.125 35.390625 37.609375 34.992188 38.132812 34.640625 C 38.660156 34.292969 39.214844 33.996094 39.796875 33.753906 C 40.378906 33.515625 40.980469 33.332031 41.597656 33.210938 C 42.21875 33.085938 42.84375 33.023438 43.472656 33.023438 C 44.105469 33.023438 44.730469 33.085938 45.347656 33.210938 C 45.96875 33.332031 46.570312 33.515625 47.152344 33.753906 C 47.734375 33.996094 48.289062 34.292969 48.8125 34.640625 C 49.339844 34.992188 49.824219 35.390625 50.269531 35.832031 Z M 50.269531 35.832031 " fill-opacity="1" fill-rule="nonzero"/><path fill="#38405e" d="M 39.875 41.445312 C 39.898438 41.695312 39.890625 41.945312 39.847656 42.183594 C 39.804688 42.425781 39.726562 42.640625 39.621094 42.832031 C 39.515625 43.023438 39.382812 43.175781 39.230469 43.292969 C 39.074219 43.40625 38.910156 43.472656 38.730469 43.488281 C 38.554688 43.507812 38.378906 43.476562 38.203125 43.394531 C 38.03125 43.316406 37.871094 43.195312 37.726562 43.027344 C 37.585938 42.859375 37.464844 42.664062 37.375 42.4375 C 37.28125 42.210938 37.222656 41.972656 37.195312 41.71875 C 37.171875 41.464844 37.179688 41.21875 37.222656 40.976562 C 37.265625 40.738281 37.34375 40.519531 37.449219 40.328125 C 37.558594 40.136719 37.6875 39.984375 37.839844 39.871094 C 37.996094 39.757812 38.160156 39.691406 38.339844 39.671875 C 38.515625 39.65625 38.691406 39.683594 38.867188 39.765625 C 39.039062 39.84375 39.199219 39.96875 39.34375 40.132812 C 39.488281 40.300781 39.605469 40.496094 39.695312 40.722656 C 39.789062 40.949219 39.847656 41.191406 39.875 41.445312 Z M 39.875 41.445312 " fill-opacity="1" fill-rule="nonzero"/><path fill="#38405e" d="M 49.4375 40.460938 C 49.460938 40.714844 49.453125 40.960938 49.410156 41.203125 C 49.367188 41.445312 49.289062 41.660156 49.183594 41.851562 C 49.074219 42.042969 48.945312 42.195312 48.792969 42.308594 C 48.636719 42.421875 48.472656 42.488281 48.292969 42.507812 C 48.117188 42.527344 47.941406 42.496094 47.765625 42.414062 C 47.59375 42.335938 47.433594 42.210938 47.289062 42.046875 C 47.144531 41.878906 47.027344 41.683594 46.9375 41.457031 C 46.84375 41.230469 46.785156 40.988281 46.757812 40.738281 C 46.730469 40.484375 46.742188 40.238281 46.785156 39.996094 C 46.828125 39.753906 46.90625 39.539062 47.011719 39.347656 C 47.117188 39.15625 47.25 39.003906 47.402344 38.890625 C 47.558594 38.777344 47.722656 38.710938 47.902344 38.691406 C 48.078125 38.671875 48.253906 38.703125 48.429688 38.785156 C 48.601562 38.863281 48.761719 38.988281 48.90625 39.152344 C 49.046875 39.320312 49.167969 39.515625 49.257812 39.742188 C 49.351562 39.96875 49.410156 40.210938 49.4375 40.460938 Z M 49.4375 40.460938 " fill-opacity="1" fill-rule="nonzero"/><path fill="#38405e" d="M 47.085938 47.90625 C 46.164062 47.648438 43.367188 47.167969 41.214844 50.03125 C 41.066406 50.226562 40.871094 49.710938 40.964844 49.378906 C 41.984375 45.753906 44.601562 38.441406 47.195312 47.304688 C 47.28125 47.597656 47.21875 47.945312 47.085938 47.90625 Z M 47.085938 47.90625 " fill-opacity="1" fill-rule="nonzero"/><path fill="#a8bdc7" d="M 45.480469 50.761719 L 43.804688 54.496094 C 43.792969 54.511719 43.796875 54.53125 43.808594 54.546875 C 43.820312 54.5625 43.835938 54.566406 43.855469 54.566406 L 47.847656 54.15625 C 47.90625 54.148438 47.917969 54.125 47.882812 54.078125 Z M 45.480469 50.761719 " fill-opacity="1" fill-rule="nonzero"/><path fill="#e1a17e" d="M 56.371094 63.566406 C 56.722656 63.917969 57.039062 64.300781 57.316406 64.710938 C 57.589844 65.125 57.824219 65.5625 58.015625 66.019531 C 58.207031 66.480469 58.351562 66.953125 58.445312 67.441406 C 58.542969 67.925781 58.59375 68.417969 58.59375 68.917969 C 58.59375 69.414062 58.542969 69.90625 58.445312 70.394531 C 58.351562 70.878906 58.207031 71.351562 58.015625 71.8125 C 57.824219 72.269531 57.589844 72.707031 57.316406 73.121094 C 57.039062 73.535156 56.722656 73.914062 56.371094 74.265625 C 56.019531 74.617188 55.636719 74.933594 55.222656 75.207031 C 54.808594 75.484375 54.371094 75.71875 53.910156 75.90625 C 53.453125 76.097656 52.976562 76.242188 52.488281 76.335938 C 52 76.433594 51.507812 76.484375 51.007812 76.484375 C 50.511719 76.484375 50.019531 76.433594 49.53125 76.335938 C 49.042969 76.242188 48.566406 76.097656 48.105469 75.90625 C 47.648438 75.71875 47.210938 75.484375 46.796875 75.207031 C 46.382812 74.933594 46 74.617188 45.648438 74.265625 C 45.296875 73.914062 44.980469 73.535156 44.703125 73.121094 C 44.425781 72.707031 44.195312 72.269531 44.003906 71.8125 C 43.8125 71.351562 43.667969 70.878906 43.570312 70.394531 C 43.476562 69.90625 43.425781 69.414062 43.425781 68.917969 C 43.425781 68.417969 43.476562 67.925781 43.570312 67.441406 C 43.667969 66.953125 43.8125 66.480469 44.003906 66.019531 C 44.195312 65.5625 44.425781 65.125 44.703125 64.710938 C 44.980469 64.300781 45.296875 63.917969 45.648438 63.566406 C 46 63.214844 46.382812 62.902344 46.796875 62.625 C 47.210938 62.347656 47.648438 62.117188 48.105469 61.925781 C 48.566406 61.734375 49.042969 61.59375 49.53125 61.496094 C 50.019531 61.398438 50.511719 61.351562 51.007812 61.351562 C 51.507812 61.351562 52 61.398438 52.488281 61.496094 C 52.976562 61.59375 53.453125 61.734375 53.910156 61.925781 C 54.371094 62.117188 54.808594 62.347656 55.222656 62.625 C 55.636719 62.902344 56.019531 63.214844 56.371094 63.566406 Z M 56.371094 63.566406 " fill-opacity="1" fill-rule="nonzero"/><path fill="#38405e" d="M 48.265625 67.734375 C 48.269531 67.933594 48.246094 68.128906 48.191406 68.316406 C 48.140625 68.5 48.066406 68.664062 47.96875 68.808594 C 47.871094 68.949219 47.757812 69.0625 47.628906 69.140625 C 47.496094 69.21875 47.363281 69.257812 47.222656 69.257812 C 47.082031 69.261719 46.945312 69.222656 46.816406 69.148438 C 46.683594 69.074219 46.566406 68.964844 46.464844 68.824219 C 46.367188 68.683594 46.289062 68.519531 46.230469 68.335938 C 46.175781 68.152344 46.144531 67.957031 46.144531 67.757812 C 46.140625 67.558594 46.167969 67.363281 46.21875 67.175781 C 46.269531 66.992188 46.34375 66.828125 46.445312 66.683594 C 46.542969 66.542969 46.65625 66.429688 46.785156 66.351562 C 46.914062 66.273438 47.046875 66.234375 47.1875 66.234375 C 47.328125 66.230469 47.464844 66.269531 47.597656 66.34375 C 47.726562 66.417969 47.84375 66.527344 47.945312 66.667969 C 48.046875 66.808594 48.125 66.972656 48.179688 67.15625 C 48.234375 67.339844 48.265625 67.535156 48.265625 67.734375 Z M 48.265625 67.734375 " fill-opacity="1" fill-rule="nonzero"/><path fill="#38405e" d="M 55.851562 67.652344 C 55.851562 67.851562 55.828125 68.046875 55.773438 68.234375 C 55.722656 68.417969 55.648438 68.582031 55.550781 68.726562 C 55.453125 68.867188 55.339844 68.980469 55.210938 69.058594 C 55.082031 69.136719 54.945312 69.175781 54.804688 69.175781 C 54.664062 69.179688 54.527344 69.140625 54.398438 69.066406 C 54.265625 68.992188 54.152344 68.882812 54.050781 68.742188 C 53.949219 68.601562 53.871094 68.4375 53.8125 68.253906 C 53.757812 68.070312 53.730469 67.875 53.726562 67.675781 C 53.726562 67.476562 53.75 67.28125 53.800781 67.097656 C 53.851562 66.910156 53.929688 66.746094 54.027344 66.601562 C 54.125 66.460938 54.238281 66.347656 54.367188 66.269531 C 54.496094 66.191406 54.632812 66.152344 54.773438 66.152344 C 54.914062 66.148438 55.046875 66.1875 55.179688 66.261719 C 55.308594 66.335938 55.425781 66.445312 55.527344 66.585938 C 55.628906 66.726562 55.707031 66.890625 55.761719 67.074219 C 55.820312 67.257812 55.847656 67.453125 55.851562 67.652344 Z M 55.851562 67.652344 " fill-opacity="1" fill-rule="nonzero"/><path fill="#38405e" d="M 47.585938 71.898438 C 47.6875 71.511719 47.808594 71.066406 48.203125 70.878906 C 48.351562 70.808594 48.503906 70.804688 48.65625 70.863281 C 48.777344 70.910156 48.886719 70.996094 48.980469 71.082031 C 49.195312 71.28125 49.375 71.527344 49.628906 71.683594 C 49.757812 71.769531 49.898438 71.8125 50.054688 71.8125 C 50.238281 71.8125 50.414062 71.734375 50.558594 71.625 C 50.710938 71.507812 50.84375 71.367188 50.960938 71.210938 C 51.078125 71.058594 51.191406 70.894531 51.328125 70.753906 C 51.453125 70.625 51.597656 70.507812 51.773438 70.457031 C 51.855469 70.429688 51.9375 70.425781 52.023438 70.4375 C 52.082031 70.449219 52.140625 70.464844 52.191406 70.492188 C 52.429688 70.605469 52.59375 70.835938 52.757812 71.042969 C 52.917969 71.246094 53.089844 71.46875 53.339844 71.566406 C 53.476562 71.621094 53.617188 71.625 53.757812 71.585938 C 53.933594 71.535156 54.078125 71.414062 54.203125 71.28125 C 54.332031 71.144531 54.441406 70.984375 54.582031 70.859375 C 54.707031 70.746094 54.875 70.636719 55.050781 70.632812 C 55.136719 70.628906 55.210938 70.652344 55.277344 70.699219 C 55.316406 70.71875 55.347656 70.710938 55.367188 70.671875 C 55.390625 70.632812 55.382812 70.601562 55.34375 70.578125 C 55 70.335938 54.570312 70.640625 54.34375 70.90625 C 54.132812 71.152344 53.894531 71.5 53.523438 71.46875 C 53.421875 71.460938 53.308594 71.40625 53.222656 71.339844 C 53.121094 71.257812 53.027344 71.160156 52.945312 71.058594 C 52.769531 70.84375 52.609375 70.605469 52.378906 70.441406 C 52.265625 70.359375 52.136719 70.308594 51.992188 70.292969 C 51.804688 70.277344 51.617188 70.34375 51.464844 70.453125 C 51.300781 70.5625 51.164062 70.710938 51.042969 70.867188 C 50.921875 71.023438 50.816406 71.183594 50.679688 71.328125 C 50.558594 71.457031 50.414062 71.585938 50.238281 71.640625 C 50.089844 71.691406 49.941406 71.683594 49.800781 71.617188 C 49.535156 71.5 49.351562 71.253906 49.148438 71.050781 C 48.933594 70.839844 48.671875 70.648438 48.355469 70.691406 C 48.152344 70.71875 47.972656 70.832031 47.839844 70.980469 C 47.695312 71.140625 47.601562 71.34375 47.535156 71.550781 C 47.503906 71.652344 47.476562 71.757812 47.449219 71.863281 C 47.425781 71.949219 47.558594 71.984375 47.582031 71.898438 Z M 47.585938 71.898438 " fill-opacity="1" fill-rule="nonzero"/><path fill="#e1a17e" d="M 52.355469 75.554688 L 51.25 78.433594 C 51.242188 78.445312 51.246094 78.457031 51.253906 78.46875 C 51.265625 78.480469 51.277344 78.484375 51.289062 78.484375 L 54.277344 78.011719 C 54.320312 78.003906 54.328125 77.984375 54.300781 77.949219 Z M 52.355469 75.554688 " fill-opacity="1" fill-rule="nonzero"/><path fill="#d47374" d="M 36.71875 68.226562 L 36.71875 72.746094 C 36.71875 72.808594 36.746094 72.824219 36.800781 72.792969 L 40.640625 70.582031 C 40.691406 70.550781 40.691406 70.519531 40.640625 70.484375 Z M 36.71875 68.226562 " fill-opacity="1" fill-rule="nonzero"/><path fill="#cc917b" d="M 54.425781 103.46875 C 51.640625 103.953125 50.5625 106.140625 50.5625 106.140625 C 50.359375 106.453125 50.25 106.796875 50.238281 107.167969 L 49.980469 115.320312 C 49.773438 117.699219 48.996094 117.621094 48.996094 117.621094 L 49.148438 120.648438 C 49.941406 120.671875 50.527344 120.386719 50.953125 120.023438 C 51.542969 119.511719 51.875 118.867188 51.945312 118.085938 C 52.265625 114.679688 51.875 108.332031 51.835938 107.710938 C 51.835938 107.679688 51.832031 107.644531 51.832031 107.613281 C 51.835938 107.527344 51.84375 107.445312 51.851562 107.363281 C 51.894531 107.046875 52.066406 106.832031 52.367188 106.71875 C 54.46875 105.933594 54.898438 104.675781 54.960938 103.953125 C 54.972656 103.804688 54.925781 103.679688 54.816406 103.578125 C 54.703125 103.476562 54.574219 103.441406 54.425781 103.46875 Z M 54.425781 103.46875 " fill-opacity="1" fill-rule="nonzero"/><path fill="#2a2a3b" d="M 39.394531 104.390625 C 38.410156 104.054688 38.128906 102.8125 37.59375 101.910156 C 36.695312 100.394531 34.867188 99.703125 33.140625 99.582031 C 31.410156 99.460938 29.683594 99.792969 27.949219 99.792969 C 26.214844 99.792969 24.359375 99.386719 23.179688 98.089844 C 22.261719 97.082031 21.882812 95.675781 21.75 94.304688 C 21.683594 93.597656 21.691406 92.835938 22.078125 92.246094 C 22.613281 91.449219 23.667969 91.238281 24.613281 91.242188 C 25.558594 91.246094 26.539062 91.386719 27.414062 91.027344 C 28.609375 90.539062 29.292969 89.246094 29.652344 87.984375 C 30.015625 86.722656 30.15625 85.378906 30.742188 84.207031 C 31.324219 83.035156 32.535156 82.039062 33.800781 82.269531 C 34.765625 82.449219 35.480469 83.273438 36.058594 84.085938 C 37.421875 86.007812 38.574219 88.242188 40.601562 89.394531 C 41.800781 90.074219 43.210938 90.3125 44.351562 91.09375 C 45.738281 92.042969 46.546875 93.710938 46.789062 95.402344 C 47.03125 97.09375 46.769531 98.816406 46.382812 100.480469 C 46 102.113281 45.320312 103.738281 43.507812 104.007812 C 42.945312 104.09375 42.386719 103.988281 41.824219 104.066406 C 41.023438 104.183594 40.210938 104.667969 39.394531 104.390625 Z M 39.394531 104.390625 " fill-opacity="1" fill-rule="nonzero"/><path fill="#de474e" d="M 43.757812 108.335938 C 43.9375 108.359375 46.480469 111.363281 49.148438 117.363281 C 49.148438 117.363281 50.386719 120.6875 49.148438 120.648438 C 49.140625 120.648438 49.128906 120.648438 49.121094 120.644531 C 49.082031 120.636719 49.042969 120.621094 49.011719 120.597656 C 48.621094 120.332031 44.980469 117.816406 44.171875 115.8125 Z M 43.757812 108.335938 " fill-opacity="1" fill-rule="nonzero"/><path fill="#ff525a" d="M 44.101562 108.449219 C 43.921875 108.046875 43.65625 107.707031 43.308594 107.433594 C 42.960938 107.160156 42.570312 106.980469 42.136719 106.894531 C 41.710938 106.816406 41.285156 106.785156 40.851562 106.804688 C 40.652344 106.8125 40.464844 106.867188 40.289062 106.960938 C 34.277344 110.304688 29.453125 120.214844 29.453125 120.214844 L 32.371094 120.5625 C 32.953125 119.109375 35.167969 116.546875 35.167969 116.546875 C 34.996094 118.761719 32.542969 122.542969 32.542969 122.542969 L 40.359375 122.542969 C 41.121094 120.273438 44.152344 116.664062 44.152344 116.664062 C 47.246094 115.988281 44.972656 110.359375 44.101562 108.449219 Z M 44.101562 108.449219 " fill-opacity="1" fill-rule="nonzero"/><g clip-path="url(#2783443333)"><path fill="#282b40" d="M 48.820312 128.539062 C 48.820312 128.539062 47.1875 128.769531 46.019531 132.84375 L 31.828125 132.84375 C 30.535156 132.84375 29.320312 132.175781 28.667969 131.0625 C 27.734375 129.46875 27.722656 126.734375 32.546875 122.542969 L 40.359375 122.542969 C 40.359375 122.542969 39.367188 125.195312 39.644531 126.550781 C 39.683594 126.738281 39.773438 126.894531 39.917969 127.019531 C 40.058594 127.144531 40.226562 127.214844 40.417969 127.230469 C 42.019531 127.363281 47.863281 127.886719 48.820312 128.539062 Z M 48.820312 128.539062 " fill-opacity="1" fill-rule="nonzero"/></g><g clip-path="url(#809cbf4c52)"><path fill="#cc917b" d="M 46.019531 132.84375 L 51.476562 132.84375 C 51.476562 132.84375 51.121094 129.546875 48.820312 128.539062 C 48.820312 128.539062 46.777344 128.265625 46.019531 132.84375 Z M 46.019531 132.84375 " fill-opacity="1" fill-rule="nonzero"/></g><path fill="#cc917b" d="M 45.429688 121.871094 C 45.40625 121.851562 45.378906 121.828125 45.351562 121.8125 C 44.121094 120.988281 41.761719 122.355469 41.761719 122.355469 C 35.851562 122.070312 32.582031 120.828125 32.582031 120.828125 C 32.265625 120.746094 32.371094 120.5625 32.371094 120.5625 L 29.453125 120.214844 C 27.761719 123.3125 30.523438 123.414062 31.179688 123.398438 C 31.324219 123.394531 31.472656 123.390625 31.617188 123.390625 L 41.804688 123.390625 C 41.976562 123.390625 42.144531 123.375 42.3125 123.347656 C 43.640625 123.132812 45.753906 123.363281 45.753906 123.363281 C 47.25 123.507812 45.703125 122.109375 45.429688 121.871094 Z M 45.429688 121.871094 " fill-opacity="1" fill-rule="nonzero"/><path fill="#bd8672" d="M 45.078125 105.359375 L 42.851562 103.472656 C 42.640625 104.816406 40.546875 106.855469 40.546875 106.855469 C 44.488281 110.679688 43.914062 107.972656 43.914062 107.972656 C 43.808594 106.164062 45.078125 105.359375 45.078125 105.359375 Z M 45.078125 105.359375 " fill-opacity="1" fill-rule="nonzero"/><path fill="#cc917b" d="M 46.167969 100.066406 C 46.132812 99.984375 46.078125 99.921875 46 99.882812 C 44.113281 98.867188 44.207031 100.980469 44.28125 101.644531 C 44.300781 101.832031 44.230469 101.972656 44.058594 102.058594 C 43.90625 102.132812 43.789062 102.070312 43.71875 102 C 43.605469 101.886719 43.472656 101.816406 43.316406 101.78125 C 42.492188 101.609375 42.582031 102.722656 42.71875 103.4375 C 42.796875 103.871094 43.003906 104.238281 43.332031 104.535156 C 44.085938 105.207031 45.144531 105.667969 45.554688 105.832031 C 45.703125 105.890625 45.855469 105.929688 46.011719 105.945312 C 48.519531 106.1875 46.515625 100.933594 46.167969 100.066406 Z M 46.167969 100.066406 " fill-opacity="1" fill-rule="nonzero"/></svg>