<svg xmlns="http://www.w3.org/2000/svg" xmlns:xlink="http://www.w3.org/1999/xlink" width="648" zoomAndPan="magnify" viewBox="0 0 486 576" height="768" preserveAspectRatio="xMidYMid meet" version="1.0"><defs><clipPath id="435507e369"><path d="M 482 195 L 483 195 L 483 197 L 482 197 Z M 482 195 " clip-rule="nonzero"/></clipPath></defs><path fill="#bbd7c8" d="M 66.246094 408.644531 L 66.316406 408.746094 Z M 66.246094 408.644531 " fill-opacity="1" fill-rule="nonzero"/><path fill="#bbd7c8" d="M 472.035156 163.421875 C 468.671875 163.433594 465.359375 163.03125 462.09375 162.214844 C 456.417969 160.46875 451.050781 158.070312 445.484375 155.910156 C 446.492188 153.285156 446.691406 150.332031 449.644531 148.8125 C 450.113281 148.574219 450.507812 148.246094 450.828125 147.828125 C 451.144531 147.410156 451.355469 146.941406 451.460938 146.425781 C 451.460938 143.402344 453.632812 141.910156 455.378906 140.050781 C 456.617188 138.722656 457.6875 137.269531 458.589844 135.691406 C 459.34375 134.617188 459.867188 133.441406 460.160156 132.160156 C 460.457031 130.882812 460.5 129.59375 460.292969 128.296875 C 460.019531 127.152344 459.507812 126.125 458.757812 125.214844 C 458.011719 124.304688 457.101562 123.605469 456.03125 123.113281 C 455.664062 122.902344 455.550781 122.246094 455.179688 121.523438 C 456.714844 119.136719 458.320312 116.609375 460.109375 113.8125 C 458.496094 113.265625 456.960938 112.546875 455.507812 111.65625 C 451.71875 108.519531 448.140625 105.125 444.375 101.945312 C 438.285156 96.820312 432.605469 91.140625 423.734375 90.714844 C 421.078125 90.574219 418.4375 89.167969 415.46875 89.535156 C 414.136719 89.691406 412.628906 88.640625 411.210938 87.945312 C 410.074219 87.363281 409.136719 86.355469 407.988281 85.84375 C 407.632812 85.789062 407.285156 85.816406 406.945312 85.929688 C 406.605469 86.042969 406.308594 86.226562 406.058594 86.484375 C 405.730469 86.910156 405.984375 87.816406 406.058594 88.5 C 406.175781 88.910156 406.351562 89.292969 406.582031 89.648438 C 402.097656 86.652344 402.097656 86.652344 398.519531 86.414062 C 399.609375 84.140625 401.1875 81.96875 401.683594 79.570312 C 401.996094 76.734375 402.035156 73.894531 401.796875 71.050781 C 398.53125 68.851562 395.804688 66.210938 395.125 61.992188 C 395.039062 61.480469 393.546875 61.113281 392.667969 60.925781 C 392.511719 60.925781 392.03125 62.105469 391.832031 62.789062 C 391.765625 63.289062 391.765625 63.789062 391.832031 64.292969 L 385.910156 66.75 L 383.296875 62.078125 C 386.535156 60.984375 387.289062 57.816406 389.671875 55.375 L 385.738281 52.410156 C 381.664062 55.417969 378.824219 59.71875 373.613281 60.542969 C 372.933594 60.65625 372.523438 62.132812 371.910156 62.902344 C 370.40625 64.789062 368.332031 65.5 366.574219 64.320312 C 365.226562 63.199219 364.011719 61.949219 362.925781 60.574219 C 362.925781 60.574219 362.925781 60.574219 362.996094 60.574219 L 362.867188 60.574219 L 350.800781 52.410156 L 347.773438 53.6875 C 347.09375 52.394531 346.355469 51.089844 345.6875 49.78125 C 342.992188 48.875 340.917969 51.046875 338.390625 51.429688 C 336.386719 49.8125 334.472656 48.136719 332.414062 46.644531 C 330.355469 45.152344 330.992188 43.664062 331.519531 41.988281 C 329.957031 42.796875 328.421875 44.019531 326.789062 44.203125 C 325.15625 44.386719 323 43.621094 320.601562 43.152344 C 320.671875 44.570312 320.671875 45.992188 320.601562 47.410156 C 320.246094 50.109375 317.761719 52.394531 315.476562 52.222656 C 313.1875 52.054688 311.214844 49.539062 311.640625 46.546875 C 311.933594 42.953125 312.476562 39.398438 313.273438 35.882812 C 313.828125 33.808594 315.503906 32.050781 316.894531 29.820312 L 313.1875 27.363281 C 310.519531 31.738281 308.078125 35.570312 305.777344 39.503906 C 303.351562 43.648438 301.0625 47.894531 298.679688 52.152344 C 296.28125 52.648438 293.980469 52.992188 291.75 53.574219 C 290.011719 54.042969 288.359375 54.722656 286.796875 55.617188 C 285.476562 56.414062 285.746094 57.789062 286.355469 59.023438 L 279.980469 59.023438 C 280.859375 56.796875 281.671875 54.765625 282.507812 52.636719 C 283.605469 52.765625 284.710938 52.816406 285.816406 52.792969 C 288.753906 52.507812 288.96875 52.011719 287.945312 48.179688 C 288.355469 44.488281 291.113281 43.917969 294.066406 43.351562 C 294.304688 43.351562 294.304688 41.929688 294.492188 40.765625 C 295.527344 40.410156 297.742188 41.261719 298.75 38.496094 L 293.441406 34.832031 C 294.460938 32.519531 295.441406 30.261719 296.351562 28.1875 C 294.269531 26.082031 292.375 23.820312 290.671875 21.402344 C 289.324219 18.570312 288.191406 15.65625 287.277344 12.65625 C 284.625 16.488281 286.683594 20.789062 284.4375 24.480469 C 282.648438 23.203125 281.214844 22.195312 279.808594 21.144531 C 277.792969 19.726562 275.820312 21.359375 273.820312 21.144531 C 273.082031 21.074219 272.398438 20.5625 271.617188 20.40625 C 267.359375 19.484375 265.667969 20.292969 263.710938 24.4375 C 263.363281 25.300781 263.089844 26.1875 262.886719 27.09375 L 257.363281 28.003906 L 254.523438 34.917969 C 252.976562 34.570312 251.410156 34.378906 249.824219 34.335938 C 248.164062 34.5625 246.539062 34.925781 244.941406 35.429688 C 246.503906 32.246094 248.050781 29.066406 249.597656 25.929688 C 250.445312 25.871094 251.292969 25.871094 252.136719 25.929688 C 253.175781 26.085938 254.238281 26.511719 254.523438 24.949219 C 254.523438 23.386719 251.441406 22.734375 253.417969 20.40625 C 254.679688 18.988281 254.269531 17 252.578125 15.523438 L 245.765625 18.363281 C 246.445312 14.726562 248.019531 11.660156 251.441406 9.972656 C 251.683594 7.132812 251.882812 4.660156 252.109375 1.976562 C 248.53125 0.628906 245.550781 1.394531 243.507812 4.007812 C 240.339844 8.054688 237.585938 12.441406 234.703125 16.785156 C 234.476562 17.140625 234.605469 17.738281 234.5625 18.207031 L 237.515625 19.625 C 235.597656 22.210938 233.910156 24.453125 232.277344 26.726562 C 230.914062 28.273438 229.769531 29.964844 228.839844 31.808594 C 227.558594 35.054688 225.851562 38.058594 223.714844 40.816406 C 221.578125 43.574219 219.097656 45.984375 216.273438 48.035156 C 216.671875 51.03125 213.664062 55.019531 219.113281 56.3125 C 219.753906 55.269531 220.515625 54.320312 221.398438 53.472656 C 222.699219 52.625 224.058594 51.886719 225.476562 51.257812 L 225.476562 51.34375 L 225.6875 51.441406 L 225.558594 51.289062 C 227.347656 50.335938 229.109375 49.199219 231.609375 50.890625 C 228.910156 56.300781 223.175781 59.125 220.25 64.277344 C 218.964844 66.121094 217.496094 67.804688 215.847656 69.332031 C 216.171875 66.808594 216.796875 64.363281 217.722656 61.992188 C 217.835938 61.613281 217.882812 61.226562 217.863281 60.832031 C 217.84375 60.4375 217.761719 60.054688 217.613281 59.6875 C 217.46875 59.320312 217.265625 58.988281 217.007812 58.691406 C 216.746094 58.390625 216.445312 58.144531 216.105469 57.945312 C 214.371094 56.738281 212.667969 57.292969 210.992188 58.171875 C 208.863281 59.308594 211.347656 61.011719 210.054688 62.945312 L 203.640625 68.480469 L 203.640625 68.382812 L 203.640625 68.539062 C 203.226562 69.789062 202.625 70.945312 201.835938 72 C 201.046875 73.058594 200.109375 73.960938 199.023438 74.714844 C 199.023438 72.414062 199.023438 70.113281 199.023438 67.828125 C 199.023438 67.445312 198.429688 66.949219 198.015625 66.777344 C 197.523438 66.585938 197.050781 66.628906 196.597656 66.90625 C 195.460938 68.324219 194.679688 70.097656 193.316406 71.164062 C 191.605469 72.210938 189.796875 73.058594 187.894531 73.707031 C 190.195312 77.410156 190.308594 77.964844 189.527344 80.804688 C 189.382812 81.300781 189.371094 81.941406 189.042969 82.222656 C 188.242188 83.171875 187.296875 83.9375 186.203125 84.523438 C 185.054688 84.992188 183.847656 83.375 183.976562 81.144531 C 184.1875 77.582031 183.308594 73.71875 185.578125 70.597656 C 188.007812 67.230469 190.71875 63.851562 195.078125 62.945312 C 198.398438 62.261719 199.777344 60.105469 200.757812 57.265625 C 202.773438 51.144531 204.859375 45.070312 209.191406 40.027344 C 210.132812 38.75 210.738281 37.332031 211.007812 35.769531 C 211.246094 34.535156 211.1875 33.3125 210.835938 32.105469 C 209.898438 28.65625 207.386719 27.917969 204.164062 28.628906 C 201.097656 31.484375 198.652344 34.796875 196.824219 38.566406 C 195.613281 41.15625 194.195312 43.628906 192.566406 45.976562 C 190.933594 48.449219 189.03125 50.746094 186.886719 53.585938 C 186.886719 48.660156 186.503906 44.34375 189.527344 40.667969 C 189.761719 40.199219 189.894531 39.699219 189.925781 39.175781 C 190.433594 37.019531 189.78125 36.335938 186.515625 35.511719 C 186.515625 33.953125 186.515625 32.148438 184.742188 31.695312 C 183.457031 31.527344 182.253906 31.773438 181.136719 32.433594 C 178.210938 34.066406 175.457031 35.9375 172.53125 37.644531 C 172.320312 37.769531 171.738281 37.273438 171.464844 37.132812 C 171.820312 35.429688 172.164062 33.765625 172.546875 31.964844 L 165.320312 29.976562 C 162.28125 35.585938 157.867188 39.558594 153.449219 43.59375 C 151.941406 45.027344 150.679688 46.648438 149.660156 48.460938 C 145.144531 56.226562 137.902344 61.339844 131.597656 67.375 C 127.824219 67.769531 126.402344 71.234375 123.875 73.265625 C 122.453125 74.289062 120.980469 75.234375 119.460938 76.105469 C 119.691406 76.628906 119.855469 77.175781 119.953125 77.742188 C 120.046875 78.308594 120.070312 78.878906 120.019531 79.449219 C 119.96875 80.023438 119.847656 80.578125 119.660156 81.121094 C 119.46875 81.664062 119.210938 82.171875 118.890625 82.648438 C 115.816406 87.105469 112.335938 91.222656 108.457031 95.003906 L 108.457031 95.160156 L 108.472656 95.003906 C 108.019531 95.644531 107.5 96.21875 106.910156 96.734375 C 105.269531 97.800781 103.859375 99.113281 102.671875 100.667969 C 101.484375 102.222656 100.59375 103.929688 99.996094 105.792969 C 98.839844 108.378906 97.339844 110.746094 95.496094 112.890625 C 92.910156 116.453125 89.445312 119.5625 87.699219 123.398438 C 85.554688 128.140625 81.878906 131.261719 78.570312 134.839844 C 77.832031 135.636719 77.152344 137.054688 75.503906 136.148438 C 76.269531 134.726562 77.050781 133.4375 77.691406 132.042969 C 77.847656 131.6875 77.691406 130.792969 77.363281 130.625 C 76.738281 130.339844 75.675781 130.042969 75.320312 130.355469 C 73.992188 131.578125 72.757812 132.890625 71.613281 134.289062 C 70.042969 136.503906 68.148438 138.394531 65.933594 139.964844 L 69.34375 132.484375 C 67.289062 133.953125 65.394531 135.605469 63.664062 137.4375 C 59.402344 142.691406 55.824219 148.414062 51.4375 153.484375 C 48.597656 156.789062 48.710938 160.441406 48.597656 164.160156 C 48.597656 164.925781 49.679688 165.804688 48.953125 166.855469 C 45.261719 172.179688 41.726562 177.605469 37.835938 182.773438 C 35.367188 186.066406 32.15625 188.75 31.207031 193.109375 C 30.796875 194.386719 30.046875 195.414062 28.949219 196.191406 C 24.5625 199.582031 23.652344 205.007812 21.113281 209.449219 C 21.015625 209.816406 21.015625 210.179688 21.109375 210.542969 C 21.207031 210.910156 21.386719 211.226562 21.652344 211.496094 C 22.433594 211.976562 23.796875 212.402344 24.40625 212.019531 C 25.878906 210.988281 27.253906 209.84375 28.539062 208.585938 C 34.414062 203.574219 35.496094 203.488281 42.125 207.378906 C 43.066406 207.792969 43.980469 208.269531 44.863281 208.796875 C 46.171875 209.804688 47.179688 211.351562 46.285156 212.859375 C 43.515625 217.601562 44.042969 222.796875 43.558594 227.90625 C 42.019531 229.992188 40.597656 232.152344 39.300781 234.394531 C 36.585938 239.675781 34.058594 245.058594 31.574219 250.453125 C 30.453125 252.894531 30.441406 255.4375 32.386719 258.800781 C 32.609375 258.523438 32.859375 258.265625 33.128906 258.035156 C 33.402344 257.800781 33.691406 257.59375 34.003906 257.414062 C 34.3125 257.234375 34.636719 257.085938 34.972656 256.964844 C 35.3125 256.84375 35.65625 256.757812 36.011719 256.703125 C 36.367188 256.644531 36.722656 256.621094 37.078125 256.632812 C 37.4375 256.640625 37.792969 256.683594 38.140625 256.761719 C 38.492188 256.835938 38.832031 256.941406 39.164062 257.078125 C 39.492188 257.21875 39.808594 257.386719 40.109375 257.582031 C 41.84375 255.824219 43.667969 254.175781 45.589844 252.625 C 47.007812 251.574219 48.953125 251.207031 50.375 250.128906 C 51.992188 248.726562 53.503906 247.21875 54.902344 245.597656 L 54.902344 256.6875 L 48.273438 260.476562 C 48.503906 263.320312 48.136719 266.085938 47.164062 268.769531 C 47.011719 269.097656 46.894531 269.4375 46.8125 269.789062 C 46.726562 270.140625 46.675781 270.5 46.664062 270.859375 C 46.648438 271.222656 46.667969 271.582031 46.726562 271.9375 C 46.78125 272.296875 46.875 272.644531 47 272.984375 C 47.125 273.324219 47.28125 273.648438 47.46875 273.957031 C 47.660156 274.265625 47.875 274.550781 48.121094 274.816406 C 48.367188 275.082031 48.636719 275.320312 48.929688 275.535156 C 49.222656 275.746094 49.535156 275.929688 49.863281 276.082031 C 52.703125 277.359375 53.171875 279.6875 53.710938 281.875 C 55.585938 283.195312 58.269531 281.675781 59.460938 284.386719 C 54.859375 285.59375 53.9375 289.765625 52.0625 293.21875 L 53.953125 300.132812 L 47.136719 303.851562 C 47.808594 304.824219 48.40625 305.84375 48.925781 306.902344 C 49.875 309.402344 49.023438 310.441406 45.972656 310.554688 C 45.492188 310.515625 45.019531 310.4375 44.550781 310.3125 C 43.84375 307.984375 44.125 305.285156 42.480469 303.382812 L 33.734375 305.542969 C 33.550781 301.496094 33.464844 297.960938 33.167969 294.425781 C 33.167969 293.898438 32.1875 293.457031 31.660156 293.003906 C 31.222656 293.515625 30.367188 294.082031 30.425781 294.523438 C 30.679688 296.496094 32.511719 298.570312 30.753906 300.359375 C 29.171875 301.644531 27.4375 302.683594 25.554688 303.46875 C 24.945312 303.839844 24.292969 304.125 23.609375 304.332031 C 22.921875 304.535156 22.222656 304.652344 21.503906 304.679688 C 20.789062 304.703125 20.082031 304.640625 19.382812 304.484375 C 18.683594 304.332031 18.015625 304.089844 17.378906 303.765625 C 16.699219 303.363281 15.964844 303.160156 15.175781 303.15625 C 14.160156 303.214844 13.242188 303.546875 12.421875 304.148438 C 11.484375 304.960938 10.691406 306.125 11.941406 307.457031 L 17.71875 306.761719 C 17.71875 309.132812 17.832031 310.9375 17.71875 312.710938 C 17.605469 314.484375 17.179688 316.628906 16.824219 319.15625 L 21.679688 316.96875 C 22.984375 320.363281 18.171875 320.933594 19.011719 323.472656 L 28.851562 324.425781 C 28.4375 326.667969 28.167969 328.9375 27.570312 331.125 C 27.144531 332.617188 25.683594 332.746094 23.824219 331.707031 L 21.964844 330.6875 C 20.730469 333.710938 22.589844 336.023438 22.757812 338.507812 C 22.929688 340.992188 22.757812 343.847656 22.757812 346.714844 C 23.796875 346.289062 24.503906 346.230469 24.660156 345.90625 C 25.96875 343.179688 27.160156 340.398438 28.75 336.789062 C 29.390625 338.308594 30.042969 339.132812 30 339.929688 C 29.886719 342.242188 29.304688 344.527344 29.246094 346.828125 C 29.246094 348.050781 29.816406 349.371094 31.589844 349.113281 C 32.5 344.855469 32.5 344.855469 35.679688 345.265625 C 35.4375 349.980469 35.4375 349.980469 37.296875 353.558594 C 38.902344 350.347656 38.71875 346.003906 43.230469 345.039062 C 45.375 349.101562 43.699219 353.300781 44.253906 356.964844 L 47.746094 360.839844 C 45.53125 362.089844 43.148438 362.472656 42.921875 364.917969 C 44.027344 365.894531 45.289062 366.832031 44.097656 368.664062 L 34.941406 371.859375 C 34.246094 375.023438 34.941406 377.722656 35.097656 380.378906 L 39.058594 374.996094 C 44.878906 374.996094 45.53125 375.421875 47.351562 379.867188 C 47.859375 381.117188 47.277344 383.175781 49.636719 383.246094 L 53.753906 375.210938 C 51.167969 372.371094 52.21875 369.445312 53.355469 366.222656 L 63.632812 371.644531 L 61.050781 376.261719 L 56.792969 376.261719 C 56.023438 379.625 55.371094 382.777344 54.632812 385.789062 C 59.417969 388.300781 60.3125 383.628906 62.484375 381.769531 C 63.023438 382.605469 63.59375 383.089844 63.507812 383.402344 C 62.640625 386.597656 64.101562 388.230469 66.929688 389.394531 C 72.878906 391.835938 78.457031 395.230469 85.042969 395.554688 C 84.886719 399.816406 84.703125 400 82.0625 399.542969 C 80.828125 399.332031 79.679688 398.296875 78.441406 399.542969 C 78.304688 399.765625 78.210938 400 78.160156 400.253906 C 78.085938 402.101562 79.71875 402.738281 80.671875 403.902344 C 82.816406 406.515625 82.007812 409.582031 78.742188 410.519531 C 77.847656 410.660156 77.03125 410.984375 76.285156 411.496094 C 75.539062 412.003906 74.9375 412.648438 74.480469 413.429688 C 74.351562 413.765625 74.164062 414.066406 73.921875 414.332031 C 73.675781 414.597656 73.394531 414.808594 73.070312 414.964844 C 72.746094 415.121094 72.402344 415.214844 72.042969 415.238281 C 71.683594 415.265625 71.332031 415.226562 70.988281 415.121094 L 66.316406 408.773438 C 57.542969 415.871094 55.96875 417.703125 55.570312 421.550781 C 58.734375 421.878906 60.496094 417.71875 64.257812 418.9375 C 64.890625 422.488281 64.859375 426.035156 64.175781 429.574219 L 59.175781 427.785156 C 57.332031 429.574219 56.675781 432.257812 53.851562 432.113281 L 53.851562 432 L 53.753906 432.113281 C 53.894531 430.425781 55.171875 428.679688 53.539062 427.089844 C 46.980469 426.238281 43.0625 429.148438 38.035156 433.859375 C 37.632812 434.214844 37.410156 434.660156 37.367188 435.195312 C 37.441406 436.132812 37.46875 437.496094 38.050781 437.863281 C 38.511719 438.0625 38.992188 438.144531 39.488281 438.113281 C 39.988281 438.085938 40.457031 437.945312 40.890625 437.695312 C 41.628906 437.226562 41.839844 436.003906 42.410156 435.195312 C 42.804688 434.640625 43.6875 433.777344 43.828125 433.777344 C 46.667969 435.351562 47.648438 431.929688 50.21875 431.292969 C 49.480469 434.246094 48.628906 437.113281 50.828125 439.453125 C 51.742188 440.144531 52.726562 440.710938 53.78125 441.160156 L 53.78125 436.742188 L 59.246094 440.890625 L 64.925781 438.320312 L 63.507812 443.132812 L 72.609375 447.574219 L 75.589844 441.898438 C 78.074219 444.878906 80.359375 447.660156 82.6875 450.414062 C 85.257812 453.425781 85.273438 453.410156 89.785156 451.976562 C 91.945312 454.007812 91.40625 458.265625 95.339844 458.804688 C 98.546875 457.613281 97.253906 454.460938 98.347656 451.707031 L 100.621094 456.449219 C 103.046875 457.101562 106.183594 456.777344 108.03125 459.488281 C 109.875 462.199219 112.289062 462.328125 114.988281 461.644531 C 119.53125 460.625 124.058594 459.472656 128.589844 458.378906 C 129.570312 454.84375 131.613281 453.15625 135.546875 454.460938 C 135.347656 456.464844 133.359375 456.109375 132.308594 456.875 C 131.226562 457.558594 130.101562 458.160156 128.929688 458.679688 C 128.644531 460.410156 128.761719 462.355469 127.980469 463.816406 C 125.921875 467.636719 123.449219 471.230469 121.191406 474.949219 C 120.667969 475.785156 120.199219 476.765625 121.804688 477.589844 C 124.058594 475.445312 126.417969 473.230469 128.761719 471.03125 L 128.761719 471.128906 C 128.753906 471.074219 128.753906 471.015625 128.761719 470.960938 L 128.675781 470.960938 L 132.847656 464.710938 C 133.5 464.5625 134.160156 464.503906 134.824219 464.535156 C 135.492188 464.566406 136.144531 464.683594 136.777344 464.890625 C 137.414062 465.097656 138.007812 465.382812 138.566406 465.75 C 139.125 466.117188 139.621094 466.554688 140.0625 467.054688 C 140.402344 467.546875 140.800781 467.980469 141.257812 468.363281 C 141.714844 468.746094 142.21875 469.058594 142.761719 469.300781 C 143.308594 469.546875 143.875 469.710938 144.464844 469.800781 C 145.054688 469.890625 145.644531 469.898438 146.238281 469.824219 C 147.855469 466.898438 147.515625 463.816406 147.316406 460.808594 C 147.242188 459.746094 146.820312 458.847656 146.050781 458.109375 C 143.9375 456.363281 142.035156 454.40625 143.425781 451.609375 C 144.816406 448.8125 147.683594 449.519531 150.523438 449.691406 C 150 451.652344 149.488281 453.539062 148.964844 455.441406 L 148.964844 455.570312 L 149.0625 455.457031 C 150.398438 459.316406 150.398438 459.316406 153.746094 458.578125 L 153.664062 458.648438 L 153.746094 458.820312 L 153.746094 458.59375 L 157.722656 456.179688 L 158.929688 460.765625 C 165.902344 463.378906 165.902344 463.378906 167.761719 470.023438 C 168.238281 470.042969 168.710938 470.007812 169.179688 469.910156 C 173.953125 468.175781 176.28125 469.382812 176.707031 473.8125 C 176.863281 475.617188 176.847656 477.449219 177.160156 479.222656 C 177.167969 479.355469 177.1875 479.484375 177.226562 479.613281 C 177.261719 479.738281 177.316406 479.859375 177.382812 479.972656 C 177.449219 480.085938 177.53125 480.191406 177.621094 480.285156 C 177.714844 480.382812 177.816406 480.464844 177.929688 480.535156 C 178.042969 480.605469 178.160156 480.660156 178.289062 480.699219 C 178.414062 480.742188 178.542969 480.765625 178.675781 480.777344 C 178.804688 480.785156 178.9375 480.777344 179.066406 480.757812 C 179.199219 480.734375 179.324219 480.695312 179.445312 480.644531 C 180.125 480.273438 180.570312 479.714844 180.78125 478.96875 C 181.347656 476.824219 179.132812 474.707031 180.269531 472.378906 C 183.71875 472.976562 184.34375 477.648438 188.320312 477.050781 C 188.730469 476.523438 189.46875 476.015625 189.640625 475.359375 C 190.070312 473.582031 190.808594 471.941406 191.855469 470.441406 C 192.898438 468.9375 194.183594 467.679688 195.703125 466.65625 C 196.027344 466.429688 195.703125 465.335938 195.703125 464.8125 C 194.125 463.390625 192.179688 466.003906 190.605469 464.058594 L 193.046875 460.695312 L 199.152344 463.066406 C 201.269531 461.175781 202.347656 459.757812 200.359375 457.472656 C 199.507812 456.492188 199.535156 454.761719 199.136719 453.296875 L 203.398438 452.730469 C 203.539062 453.878906 203.695312 455.015625 203.894531 456.675781 C 207.300781 455.425781 209.957031 454.390625 211.886719 451.90625 C 208.835938 449.519531 208.835938 449.519531 205.144531 450.855469 C 205.144531 449.863281 205.144531 448.867188 205.144531 447.875 L 205.144531 447.773438 C 206.125 447.503906 207.121094 447.375 208.140625 447.390625 C 213.164062 448.171875 215.878906 445.871094 216.660156 441.046875 L 220.164062 441.046875 L 226 430.128906 C 226.484375 434.484375 226.667969 434.386719 228.667969 437.226562 C 229.117188 437.941406 229.644531 438.589844 230.257812 439.167969 C 230.871094 439.75 231.542969 440.242188 232.28125 440.652344 C 233.019531 441.0625 233.796875 441.371094 234.613281 441.582031 C 235.429688 441.792969 236.261719 441.898438 237.101562 441.898438 C 240.738281 442.011719 243.820312 441.257812 245.183594 437.339844 C 245.296875 437.011719 246.089844 436.730469 246.515625 436.785156 C 247.023438 436.902344 247.363281 437.203125 247.539062 437.695312 C 247.539062 438.078125 247.140625 438.558594 246.898438 438.972656 C 245.265625 441.710938 245.636719 442.835938 248.234375 443.089844 C 252.097656 443.472656 255.886719 443.644531 259.378906 441.398438 C 260.703125 440.804688 262.074219 440.371094 263.496094 440.09375 C 263.585938 442.109375 264.0625 444.027344 264.921875 445.851562 C 265.78125 447.671875 266.957031 449.261719 268.453125 450.613281 C 269.21875 451.355469 269.691406 452.25 269.871094 453.296875 C 270.410156 456.449219 272.710938 457.371094 275.308594 458.082031 C 277.90625 458.792969 278.292969 455.882812 280.050781 454.84375 C 281.273438 456.519531 282.394531 458.238281 283.714844 459.785156 C 286.554688 463.121094 288.910156 463.433594 292.390625 460.667969 C 293.765625 459.496094 294.804688 458.078125 295.5 456.40625 C 297.570312 451.628906 300.285156 447.25 303.648438 443.273438 C 308.53125 437.355469 313.730469 431.40625 315.007812 423.328125 C 315.128906 422.808594 315.347656 422.335938 315.660156 421.90625 L 322.191406 411.101562 C 323.019531 411.527344 323.886719 411.855469 324.789062 412.097656 C 325.9375 412.292969 327.257812 411.003906 328.609375 412.792969 L 323.710938 417.960938 C 326.109375 421.664062 326.109375 421.664062 325.457031 428.734375 C 326.734375 428.59375 328.183594 428.847656 328.992188 428.238281 C 330.261719 427.328125 331.113281 426.121094 331.546875 424.617188 C 331.800781 422.253906 331.839844 419.890625 331.660156 417.519531 L 336.332031 416.566406 L 334.910156 421.226562 C 338.148438 420.984375 340.136719 419.804688 341.1875 417.675781 C 342.265625 415.558594 343.679688 413.6875 345.421875 412.070312 C 347.164062 410.453125 349.132812 409.183594 351.324219 408.261719 C 352.019531 405.820312 352.746094 403.390625 353.441406 400.765625 L 350.601562 399.347656 C 352.289062 397.429688 353.964844 395.5 355.613281 393.667969 C 355.542969 392.402344 355.511719 391.382812 355.398438 390.359375 C 354.972656 386.3125 355.582031 382.59375 358.777344 379.695312 C 362.214844 376.574219 362.300781 373.007812 360.113281 369.191406 C 359.601562 368.296875 358.933594 367.5 358.351562 366.664062 L 357.332031 367.246094 L 358.265625 366.5625 C 358.910156 365.449219 359.75 364.515625 360.789062 363.757812 C 361.828125 362.996094 362.972656 362.480469 364.230469 362.203125 C 365.925781 361.707031 367.582031 361.101562 369.199219 360.386719 C 369.601562 361.203125 369.863281 362.058594 369.992188 362.957031 C 370.117188 363.855469 370.101562 364.753906 369.941406 365.648438 C 369.785156 366.542969 369.488281 367.386719 369.058594 368.1875 C 368.628906 368.988281 368.082031 369.699219 367.425781 370.324219 C 367.3125 370.4375 367.824219 371.136719 368.0625 371.574219 C 371.953125 369.644531 376.683594 369.628906 379.988281 366.308594 C 380.421875 366.015625 380.898438 365.921875 381.410156 366.023438 C 386.308594 367.132812 387.757812 363.765625 389.046875 360.1875 C 389.574219 358.769531 390 357.277344 390.636719 355.359375 L 395.28125 359.292969 C 396.089844 361.550781 393.859375 363.128906 396.402344 364.503906 C 397.820312 364.007812 399.597656 363.46875 401.257812 362.785156 C 402.242188 362.429688 403.128906 361.90625 403.914062 361.210938 C 408.910156 356.328125 415.554688 354.480469 421.660156 351.726562 C 424.855469 350.308594 427.820312 349.214844 428.914062 345.453125 C 429.652344 342.867188 431.898438 342.070312 434.367188 341.773438 C 437.476562 341.550781 440.558594 341.121094 443.609375 340.480469 C 446.332031 339.6875 448.933594 338.59375 451.40625 337.203125 C 451.800781 336.886719 452.101562 336.496094 452.304688 336.03125 C 452.507812 335.566406 452.589844 335.082031 452.554688 334.574219 C 452.394531 334.101562 452.136719 333.6875 451.777344 333.335938 C 451.421875 332.988281 451.003906 332.738281 450.523438 332.589844 C 445.953125 331.777344 441.265625 330.429688 436.722656 330.757812 C 431.542969 331.140625 427.324219 328.78125 422.695312 328.242188 C 422.171875 324.722656 423.507812 322.820312 426.230469 321.640625 C 430.84375 319.65625 434.851562 316.816406 438.257812 313.121094 C 438.519531 312.914062 438.738281 312.667969 438.90625 312.378906 C 439.078125 312.089844 439.191406 311.777344 439.242188 311.445312 C 439.296875 311.117188 439.289062 310.785156 439.21875 310.457031 C 439.152344 310.128906 439.023438 309.824219 438.839844 309.546875 C 437.191406 309.546875 434.792969 310.253906 433.925781 309.402344 C 431.316406 306.832031 428.25 307.289062 425.179688 307.019531 C 423.464844 306.875 421.746094 306.832031 419.402344 306.71875 C 419.855469 304.164062 420.226562 302.175781 420.554688 300.1875 C 420.878906 298.199219 421.09375 296.539062 421.449219 294.011719 C 422.652344 296.722656 424.117188 297.617188 426.160156 297.121094 C 428.207031 296.625 429.3125 295.035156 429.140625 292.324219 C 428.953125 291.039062 428.96875 289.753906 429.1875 288.472656 C 429.402344 287.191406 429.816406 285.976562 430.421875 284.828125 L 439.605469 280.949219 C 442.445312 283.050781 442.445312 283.050781 446.433594 282.285156 C 447.5 276.320312 447.5 276.308594 452.597656 272.628906 C 454.015625 271.636719 455.4375 270.785156 456.769531 269.933594 C 456.472656 269.152344 456.445312 268.769531 456.304688 268.726562 C 451.488281 267.222656 446.664062 265.746094 441.722656 264.238281 L 444.292969 261.144531 L 439.804688 257.242188 C 443.015625 254.984375 446.308594 259.113281 448.949219 256.289062 C 447.527344 252.03125 447.527344 252.03125 448.949219 249.191406 C 449.359375 248.28125 449.828125 247.386719 450.28125 246.492188 C 446.292969 245.230469 445.484375 250.382812 441.992188 251.035156 C 442.417969 247.289062 443.410156 244.703125 447.058594 243.753906 C 447.910156 243.523438 448.480469 242.515625 449.617188 241.566406 C 447.101562 238.5 447.8125 235.261719 448.351562 231.898438 C 448.796875 228.332031 449.042969 224.753906 449.089844 221.164062 C 449.15625 219.46875 448.875 217.832031 448.257812 216.253906 C 447.636719 214.675781 446.726562 213.289062 445.527344 212.089844 C 443.921875 210.105469 442.441406 208.03125 441.082031 205.871094 C 444.574219 203.53125 446.492188 199.964844 448.367188 196.375 C 448.707031 195.722656 449.105469 194.429688 449.289062 194.457031 C 453.421875 195.222656 452.726562 190.625 455.152344 189.289062 C 458.121094 189.742188 461.257812 191.6875 464.195312 188.324219 C 465.460938 186.90625 467.660156 188.210938 467.929688 190.410156 C 467.957031 191.394531 467.859375 192.363281 467.632812 193.320312 C 474.988281 189.859375 476.933594 188.523438 476.535156 186.664062 L 470.34375 185.085938 C 472.21875 177.464844 480.808594 174.679688 482.371094 167.242188 C 479.246094 164.058594 475.753906 163.589844 472.035156 163.421875 Z M 472.035156 163.421875 " fill-opacity="1" fill-rule="nonzero"/><path fill="#bbd7c8" d="M 119.375 76.21875 L 119.460938 76.21875 C 119.453125 76.195312 119.453125 76.171875 119.460938 76.148438 Z M 119.375 76.21875 " fill-opacity="1" fill-rule="nonzero"/><path fill="#bbd7c8" d="M 69.414062 132.414062 L 69.328125 132.582031 L 69.46875 132.46875 Z M 69.414062 132.414062 " fill-opacity="1" fill-rule="nonzero"/><path fill="#bbd7c8" d="M 171.621094 473.898438 C 169.109375 475.546875 171.238281 479.664062 167.363281 480.246094 L 165.660156 477.546875 C 162.351562 478.894531 160.703125 481.933594 156.785156 480.785156 C 157.695312 479.535156 158.390625 478.554688 159.113281 477.605469 C 160.847656 475.347656 162.707031 473.1875 164.238281 470.804688 C 164.851562 469.867188 165.164062 468.289062 162.933594 467.636719 L 156.828125 474.082031 C 156.546875 472.855469 156.1875 471.65625 155.75 470.476562 C 155.210938 469.199219 154.328125 468.332031 151.875 469.382812 C 151.957031 470.171875 151.949219 470.957031 151.84375 471.742188 C 151.742188 472.53125 151.550781 473.292969 151.269531 474.03125 C 150.984375 474.773438 150.621094 475.46875 150.171875 476.125 C 149.726562 476.777344 149.210938 477.371094 148.621094 477.902344 C 148.179688 478.144531 147.707031 478.296875 147.203125 478.355469 L 143.484375 474.238281 L 141.3125 479.050781 L 137.335938 476.695312 C 135.773438 478.925781 134.625 480.828125 135.914062 483.269531 C 138.65625 484.023438 141.3125 484.800781 144.007812 485.46875 C 145.457031 485.984375 146.945312 486.1875 148.480469 486.082031 C 149.617188 485.839844 150.523438 484.492188 151.675781 483.496094 C 151.832031 484.191406 151.902344 484.449219 151.945312 484.6875 C 152.699219 489.273438 153.492188 489.855469 157.210938 488.523438 C 160.457031 487.609375 163.609375 486.4375 166.667969 485.015625 C 169.457031 483.183594 172.066406 481.128906 174.503906 478.855469 C 174.675781 478.710938 174.675781 478.371094 174.761719 478.101562 C 174.277344 476.269531 174.207031 473.984375 171.621094 473.898438 Z M 171.621094 473.898438 " fill-opacity="1" fill-rule="nonzero"/><path fill="#bbd7c8" d="M 74.355469 403.351562 C 73.695312 401.699219 73.164062 400.011719 72.765625 398.28125 L 66.402344 408.632812 L 77.464844 407.550781 C 76.320312 406.230469 75.285156 404.828125 74.355469 403.351562 Z M 74.355469 403.351562 " fill-opacity="1" fill-rule="nonzero"/><path fill="#bbd7c8" d="M 66.246094 408.644531 L 66.347656 408.730469 L 66.347656 408.632812 Z M 66.246094 408.644531 " fill-opacity="1" fill-rule="nonzero"/><path fill="#bbd7c8" d="M 455.023438 201.160156 L 451.789062 201.160156 L 448.480469 206.257812 C 449.898438 208.058594 450.851562 210.117188 453.277344 209.492188 C 455.367188 208.953125 455.28125 206.765625 455.378906 205.019531 C 455.371094 203.722656 455.25 202.4375 455.023438 201.160156 Z M 455.023438 201.160156 " fill-opacity="1" fill-rule="nonzero"/><path fill="#bbd7c8" d="M 42.835938 364.960938 L 42.933594 365.03125 L 42.835938 364.945312 Z M 42.835938 364.960938 " fill-opacity="1" fill-rule="nonzero"/><path fill="#bbd7c8" d="M 40.804688 363.054688 C 40.378906 362.21875 40.804688 360.984375 40.335938 360.144531 C 39.867188 359.308594 39 359.023438 38.304688 358.484375 C 37.9375 359.308594 37.253906 360.160156 37.285156 360.984375 C 37.324219 362.507812 37.632812 363.972656 38.207031 365.386719 C 38.703125 366.273438 39.449219 366.839844 40.433594 367.089844 C 41.96875 367.429688 42.609375 366.308594 42.835938 364.960938 C 42.109375 364.347656 41.171875 363.835938 40.804688 363.054688 Z M 40.804688 363.054688 " fill-opacity="1" fill-rule="nonzero"/><path fill="#bbd7c8" d="M 356.664062 44.941406 L 356.578125 44.941406 C 356.585938 44.980469 356.585938 45.015625 356.578125 45.054688 Z M 356.664062 44.941406 " fill-opacity="1" fill-rule="nonzero"/><path fill="#bbd7c8" d="M 356.578125 44.882812 C 356.40625 42.738281 356.976562 40.367188 354.816406 38.621094 C 351.421875 39.671875 350.332031 41.789062 350.957031 45.070312 C 352.957031 44.785156 354.761719 43.292969 356.578125 44.882812 Z M 356.578125 44.882812 " fill-opacity="1" fill-rule="nonzero"/><path fill="#bbd7c8" d="M 76.425781 127.0625 C 77.511719 126.417969 78.308594 125.519531 78.8125 124.363281 C 79.097656 123.398438 78.398438 122.132812 78.046875 120.644531 C 77.191406 121.082031 76.398438 121.605469 75.660156 122.21875 C 74.941406 122.980469 74.386719 123.847656 74 124.816406 C 73.785156 125.554688 73.914062 126.226562 74.382812 126.832031 C 74.683594 127.042969 75.011719 127.167969 75.375 127.207031 C 75.738281 127.246094 76.089844 127.199219 76.425781 127.0625 Z M 76.425781 127.0625 " fill-opacity="1" fill-rule="nonzero"/><path fill="#bbd7c8" d="M 96.546875 102.683594 C 96.828125 101.503906 96.019531 100.070312 95.636719 98.425781 C 92.796875 100.835938 92.796875 100.835938 91.617188 105.421875 C 94.214844 105.070312 96.089844 104.570312 96.546875 102.683594 Z M 96.546875 102.683594 " fill-opacity="1" fill-rule="nonzero"/><path fill="#bbd7c8" d="M 336.84375 43.023438 C 337.59375 41.699219 338.035156 40.28125 338.164062 38.765625 C 338.210938 38.597656 338.234375 38.425781 338.242188 38.253906 C 338.25 38.078125 338.234375 37.90625 338.203125 37.738281 C 338.167969 37.566406 338.117188 37.402344 338.042969 37.242188 C 337.972656 37.085938 337.882812 36.9375 337.777344 36.800781 C 337.671875 36.660156 337.550781 36.539062 337.417969 36.429688 C 337.28125 36.320312 337.136719 36.226562 336.980469 36.148438 C 336.824219 36.074219 336.660156 36.015625 336.492188 35.980469 C 336.320312 35.941406 336.148438 35.921875 335.976562 35.925781 C 334.558594 37.800781 333.136719 39.816406 331.71875 41.832031 C 332.425781 42.527344 333.234375 43.070312 334.144531 43.464844 C 334.953125 43.691406 336.488281 43.5625 336.84375 43.023438 Z M 336.84375 43.023438 " fill-opacity="1" fill-rule="nonzero"/><path fill="#bbd7c8" d="M 331.675781 41.832031 C 331.636719 41.816406 331.601562 41.792969 331.574219 41.761719 L 331.574219 41.945312 L 331.6875 41.875 Z M 331.675781 41.832031 " fill-opacity="1" fill-rule="nonzero"/><path fill="#bbd7c8" d="M 458.363281 193.960938 C 457.226562 196.316406 457.722656 197.554688 460.589844 199.640625 L 462.863281 193.675781 C 460.660156 192.171875 459.214844 192.214844 458.363281 193.960938 Z M 458.363281 193.960938 " fill-opacity="1" fill-rule="nonzero"/><path fill="#bbd7c8" d="M 222.90625 460.609375 C 220.933594 461.757812 218.875 462.910156 218.234375 465.351562 C 218.136719 465.691406 218.632812 466.1875 218.859375 466.601562 C 219.113281 466.601562 219.398438 466.769531 219.613281 466.699219 C 220.71875 466.359375 221.703125 465.800781 222.566406 465.027344 C 223.429688 464.253906 224.09375 463.335938 224.550781 462.269531 C 224.683594 461.761719 224.570312 461.316406 224.210938 460.9375 C 223.835938 460.59375 223.398438 460.484375 222.90625 460.609375 Z M 222.90625 460.609375 " fill-opacity="1" fill-rule="nonzero"/><path fill="#bbd7c8" d="M 231.808594 448.667969 C 231.464844 449.09375 231.738281 449.988281 231.738281 450.671875 C 232.390625 450.671875 233.355469 450.882812 233.667969 450.527344 C 234.988281 449.109375 236.09375 447.492188 238.238281 444.722656 C 233.851562 444.707031 233.058594 447.109375 231.808594 448.667969 Z M 231.808594 448.667969 " fill-opacity="1" fill-rule="nonzero"/><path fill="#bbd7c8" d="M 261.636719 21.910156 C 262.785156 20.863281 263.847656 19.734375 264.832031 18.53125 C 264.417969 18.285156 263.972656 18.121094 263.496094 18.042969 C 263.023438 17.964844 262.546875 17.976562 262.078125 18.078125 C 261.605469 18.179688 261.171875 18.367188 260.769531 18.636719 C 260.371094 18.90625 260.035156 19.242188 259.761719 19.640625 C 259.582031 19.945312 259.480469 20.273438 259.464844 20.628906 C 259.453125 20.984375 259.523438 21.324219 259.675781 21.640625 C 259.957031 21.855469 260.273438 21.984375 260.621094 22.03125 C 260.972656 22.078125 261.308594 22.039062 261.636719 21.910156 Z M 261.636719 21.910156 " fill-opacity="1" fill-rule="nonzero"/><path fill="#bbd7c8" d="M 327.96875 433.207031 C 327.300781 433.945312 326.761719 434.769531 326.351562 435.679688 C 326.3125 436.203125 326.496094 436.632812 326.902344 436.96875 C 327.339844 437.242188 327.789062 437.269531 328.253906 437.054688 C 328.894531 436.371094 329.480469 435.640625 330.011719 434.867188 C 329.703125 434.101562 329.644531 433.449219 329.304688 433.234375 C 328.863281 432.988281 328.417969 432.980469 327.96875 433.207031 Z M 327.96875 433.207031 " fill-opacity="1" fill-rule="nonzero"/><path fill="#bbd7c8" d="M 360.625 49.328125 C 362.042969 49.570312 363.039062 48.859375 362.910156 47.042969 L 356.691406 45.027344 C 356.179688 48.050781 358.265625 48.929688 360.625 49.328125 Z M 360.625 49.328125 " fill-opacity="1" fill-rule="nonzero"/><path fill="#bbd7c8" d="M 41.558594 381.796875 C 40.683594 382.140625 39.886719 382.613281 39.171875 383.21875 C 39.625 383.742188 40.109375 384.75 40.589844 384.722656 C 41.683594 384.46875 42.710938 384.054688 43.671875 383.472656 C 42.59375 382.578125 41.953125 381.699219 41.558594 381.796875 Z M 41.558594 381.796875 " fill-opacity="1" fill-rule="nonzero"/><path fill="#bbd7c8" d="M 315.714844 433.207031 C 315.417969 433.066406 314.195312 433.875 314.183594 434.285156 C 314.285156 435.183594 314.53125 436.042969 314.921875 436.855469 L 317.875 435.4375 C 316.878906 434.328125 316.410156 433.5625 315.714844 433.207031 Z M 315.714844 433.207031 " fill-opacity="1" fill-rule="nonzero"/><path fill="#bbd7c8" d="M 145.242188 452.132812 C 145.089844 452.5625 145.042969 453.003906 145.109375 453.457031 C 145.175781 453.910156 145.34375 454.320312 145.613281 454.6875 C 146.675781 455.128906 147.785156 455.371094 148.933594 455.414062 C 148.667969 454.273438 148.261719 453.183594 147.714844 452.148438 C 147.589844 451.925781 147.417969 451.75 147.195312 451.617188 C 146.976562 451.488281 146.738281 451.421875 146.484375 451.421875 C 146.226562 451.417969 145.988281 451.480469 145.765625 451.609375 C 145.546875 451.738281 145.371094 451.910156 145.242188 452.132812 Z M 145.242188 452.132812 " fill-opacity="1" fill-rule="nonzero"/><path fill="#bbd7c8" d="M 84.378906 114.511719 C 85.101562 114.628906 85.832031 114.660156 86.5625 114.609375 C 86.949219 114.609375 87.230469 113.941406 87.558594 113.574219 C 87.246094 113.230469 86.933594 112.621094 86.636719 112.621094 C 85.878906 112.664062 85.164062 112.863281 84.492188 113.21875 C 84.277344 113.332031 84.40625 114.054688 84.378906 114.511719 Z M 84.378906 114.511719 " fill-opacity="1" fill-rule="nonzero"/><path fill="#bbd7c8" d="M 459.085938 240.386719 C 459.015625 241.4375 459.085938 242.503906 459.085938 243.824219 C 460.023438 243.382812 460.761719 243.199219 460.746094 243.027344 C 460.699219 242.066406 460.546875 241.117188 460.292969 240.1875 C 459.878906 240.1875 459.476562 240.253906 459.085938 240.386719 Z M 459.085938 240.386719 " fill-opacity="1" fill-rule="nonzero"/><path fill="#bbd7c8" d="M 367.226562 58.160156 C 366.347656 58.128906 365.527344 58.328125 364.757812 58.761719 C 363.992188 59.191406 363.394531 59.792969 362.964844 60.558594 L 368.644531 60.160156 C 369.015625 58.882812 368.363281 58.257812 367.226562 58.160156 Z M 367.226562 58.160156 " fill-opacity="1" fill-rule="nonzero"/><path fill="#bbd7c8" d="M 85.273438 121.195312 C 85.902344 120.832031 86.476562 120.394531 87.003906 119.890625 C 87.347656 119.355469 87.601562 118.785156 87.769531 118.171875 C 86.363281 118.785156 84.121094 118.683594 85.273438 121.195312 Z M 85.273438 121.195312 " fill-opacity="1" fill-rule="nonzero"/><path fill="#bbd7c8" d="M 159.738281 465.023438 C 159.738281 464.742188 158.886719 464.359375 158.40625 464.03125 C 158.078125 464.609375 157.816406 465.214844 157.625 465.847656 C 157.625 466.046875 158.261719 466.375 158.773438 466.769531 C 159.21875 466.257812 159.539062 465.675781 159.738281 465.023438 Z M 159.738281 465.023438 " fill-opacity="1" fill-rule="nonzero"/><path fill="#bbd7c8" d="M 427.199219 352.523438 C 427.195312 353.203125 427.429688 353.785156 427.90625 354.269531 C 428.964844 353.964844 429.988281 353.566406 430.972656 353.074219 C 429.882812 352.136719 429.355469 351.34375 428.84375 351.359375 C 428.488281 351.402344 428.167969 351.527344 427.875 351.734375 C 427.582031 351.941406 427.359375 352.203125 427.199219 352.523438 Z M 427.199219 352.523438 " fill-opacity="1" fill-rule="nonzero"/><path fill="#bbd7c8" d="M 203.597656 68.324219 L 203.597656 61.863281 C 201.464844 64.632812 202.375 66.492188 203.597656 68.324219 Z M 203.597656 68.324219 " fill-opacity="1" fill-rule="nonzero"/><path fill="#bbd7c8" d="M 108.398438 94.859375 L 109.109375 90.246094 C 106.484375 92.363281 106.484375 92.402344 108.398438 94.859375 Z M 108.398438 94.859375 " fill-opacity="1" fill-rule="nonzero"/><path fill="#bbd7c8" d="M 345.660156 49.683594 L 345.757812 49.753906 L 345.757812 49.414062 Z M 345.660156 49.683594 " fill-opacity="1" fill-rule="nonzero"/><path fill="#bbd7c8" d="M 346.113281 42.042969 C 345.945312 45.609375 345.859375 47.554688 345.773438 49.414062 C 347.007812 46.558594 346.992188 46.402344 346.113281 42.042969 Z M 346.113281 42.042969 " fill-opacity="1" fill-rule="nonzero"/><path fill="#bbd7c8" d="M 25.796875 362.671875 C 25.980469 363.253906 26.152344 363.835938 26.324219 364.417969 L 27.542969 363.792969 C 27.414062 363.355469 27.414062 362.714844 27.132812 362.53125 C 26.847656 362.347656 26.25 362.617188 25.796875 362.671875 Z M 25.796875 362.671875 " fill-opacity="1" fill-rule="nonzero"/><path fill="#bbd7c8" d="M 49.109375 256.21875 C 49.578125 256.304688 50.1875 255.679688 50.941406 255.265625 C 50.402344 254.484375 50.148438 253.746094 49.621094 253.421875 C 48.855469 252.925781 47.492188 253.976562 47.761719 254.839844 C 47.984375 255.519531 48.433594 255.980469 49.109375 256.21875 Z M 49.109375 256.21875 " fill-opacity="1" fill-rule="nonzero"/><path fill="#bbd7c8" d="M 129.34375 476 C 130.449219 473.957031 130.464844 473.914062 128.800781 471.199219 C 128.859375 472.804688 127.679688 474.550781 129.34375 476 Z M 129.34375 476 " fill-opacity="1" fill-rule="nonzero"/><path fill="#bbd7c8" d="M 22.519531 353.488281 C 22.519531 353.6875 23.113281 354.410156 23.183594 354.382812 C 23.75 354.054688 24.28125 353.683594 24.789062 353.273438 C 24.179688 352.949219 23.78125 352.550781 23.484375 352.621094 C 23.03125 352.765625 22.710938 353.054688 22.519531 353.488281 Z M 22.519531 353.488281 " fill-opacity="1" fill-rule="nonzero"/><path fill="#bbd7c8" d="M 332.226562 36.082031 C 331.648438 35.59375 331.023438 35.171875 330.355469 34.816406 C 329.894531 35.28125 329.480469 35.777344 329.105469 36.308594 C 329.460938 36.550781 329.871094 37.046875 330.15625 36.988281 C 330.878906 36.761719 331.570312 36.457031 332.226562 36.082031 Z M 332.226562 36.082031 " fill-opacity="1" fill-rule="nonzero"/><path fill="#bbd7c8" d="M 0 175.132812 C 0 175.375 1.417969 176.199219 1.648438 176.015625 C 2.3125 175.632812 2.710938 174.765625 3.207031 174.097656 L 1.136719 172.679688 C 0.640625 173.445312 0.261719 174.261719 0 175.132812 Z M 0 175.132812 " fill-opacity="1" fill-rule="nonzero"/><path fill="#bbd7c8" d="M 204.449219 461.21875 C 204.449219 461.292969 204.960938 462.285156 205.128906 462.257812 C 205.742188 462.078125 206.324219 461.828125 206.875 461.503906 L 206.011719 460.085938 C 205.457031 460.417969 204.9375 460.796875 204.449219 461.21875 Z M 204.449219 461.21875 " fill-opacity="1" fill-rule="nonzero"/><path fill="#bbd7c8" d="M 110.429688 83.898438 C 110.863281 83.671875 111.191406 83.339844 111.410156 82.90625 C 111.410156 82.792969 110.898438 82.351562 110.613281 82.066406 L 109.578125 83.089844 C 109.875 83.386719 110.300781 83.957031 110.429688 83.898438 Z M 110.429688 83.898438 " fill-opacity="1" fill-rule="nonzero"/><path fill="#bbd7c8" d="M 33.039062 384.722656 L 34.925781 380.746094 C 33.890625 381.65625 32.042969 382.039062 33.039062 384.722656 Z M 33.039062 384.722656 " fill-opacity="1" fill-rule="nonzero"/><path fill="#bbd7c8" d="M 35.125 380.578125 L 35.039062 380.503906 C 35.039062 380.589844 34.96875 380.675781 34.925781 380.746094 Z M 35.125 380.578125 " fill-opacity="1" fill-rule="nonzero"/><path fill="#bbd7c8" d="M 33.664062 362.234375 C 33.40625 361.925781 33.125 361.644531 32.8125 361.394531 C 32.8125 361.394531 32.441406 361.664062 32.242188 361.808594 L 33.066406 362.671875 Z M 33.664062 362.234375 " fill-opacity="1" fill-rule="nonzero"/><path fill="#bbd7c8" d="M 341.457031 43.890625 C 341.140625 43.617188 340.804688 43.371094 340.449219 43.152344 C 340.449219 43.152344 339.996094 43.507812 340.023438 43.632812 C 340.152344 44.023438 340.3125 44.394531 340.503906 44.757812 Z M 341.457031 43.890625 " fill-opacity="1" fill-rule="nonzero"/><path fill="#bbd7c8" d="M 258.398438 12.65625 C 258.398438 12.457031 258.398438 12.242188 258.285156 12.042969 C 257.941406 12.167969 257.617188 12.324219 257.304688 12.511719 C 257.234375 12.511719 257.304688 12.894531 257.421875 13.109375 Z M 258.398438 12.65625 " fill-opacity="1" fill-rule="nonzero"/><path fill="#bbd7c8" d="M 322.515625 36.863281 C 322.417969 36.691406 322.132812 36.648438 321.933594 36.5625 L 321.507812 37.0625 L 322.472656 37.488281 C 322.488281 37.273438 322.601562 37.003906 322.515625 36.863281 Z M 322.515625 36.863281 " fill-opacity="1" fill-rule="nonzero"/><path fill="#bbd7c8" d="M 316.46875 38.070312 C 316.339844 38.480469 316.253906 38.902344 316.214844 39.332031 L 317.421875 39.121094 C 317.335938 38.71875 317.222656 38.324219 317.078125 37.941406 C 317.078125 37.941406 316.496094 37.957031 316.46875 38.070312 Z M 316.46875 38.070312 " fill-opacity="1" fill-rule="nonzero"/><path fill="#bbd7c8" d="M 215.027344 41.761719 C 214.8125 41.660156 214.558594 41.460938 214.414062 41.519531 C 214.273438 41.574219 214.203125 41.902344 214.089844 42.101562 L 214.714844 42.386719 C 214.8125 42.171875 214.910156 41.960938 215.027344 41.761719 Z M 215.027344 41.761719 " fill-opacity="1" fill-rule="nonzero"/><path fill="#bbd7c8" d="M 119.375 76.21875 L 119.375 76.105469 L 119.234375 76.191406 Z M 119.375 76.21875 " fill-opacity="1" fill-rule="nonzero"/><path fill="#bbd7c8" d="M 116.308594 76.429688 C 116.664062 76.6875 117.101562 77.183594 117.375 77.113281 C 118.035156 76.875 118.664062 76.566406 119.261719 76.191406 C 118.609375 75.867188 117.929688 75.632812 117.21875 75.480469 C 116.988281 75.453125 116.621094 76.105469 116.308594 76.429688 Z M 116.308594 76.429688 " fill-opacity="1" fill-rule="nonzero"/><path fill="#bbd7c8" d="M 467.363281 193.363281 L 467.476562 193.363281 C 467.46875 193.320312 467.46875 193.28125 467.476562 193.238281 L 467.378906 193.238281 Z M 467.363281 193.363281 " fill-opacity="1" fill-rule="nonzero"/><path fill="#bbd7c8" d="M 465.828125 194.5 C 466.171875 194.5 466.679688 194.683594 466.824219 194.5 C 467.0625 194.140625 467.242188 193.75 467.363281 193.335938 C 466.957031 193.492188 466.5625 193.675781 466.183594 193.890625 C 466.015625 194.03125 465.941406 194.300781 465.828125 194.5 Z M 465.828125 194.5 " fill-opacity="1" fill-rule="nonzero"/><path fill="#bbd7c8" d="M 33.238281 367.445312 L 32.582031 367.515625 C 32.582031 367.882812 32.457031 368.253906 32.398438 368.621094 C 32.613281 368.621094 32.996094 368.621094 33.023438 368.535156 C 33.140625 368.179688 33.210938 367.816406 33.238281 367.445312 Z M 33.238281 367.445312 " fill-opacity="1" fill-rule="nonzero"/><path fill="#bbd7c8" d="M 41.328125 421.421875 C 41.484375 421.421875 41.699219 421.296875 41.882812 421.226562 C 42.066406 421.152344 41.882812 420.839844 41.882812 420.644531 L 41.003906 420.996094 C 41.089844 421.152344 41.171875 421.394531 41.328125 421.421875 Z M 41.328125 421.421875 " fill-opacity="1" fill-rule="nonzero"/><path fill="#bbd7c8" d="M 155.296875 461.703125 L 153.761719 458.863281 C 153.734375 459.96875 153.335938 461.304688 155.296875 461.703125 Z M 155.296875 461.703125 " fill-opacity="1" fill-rule="nonzero"/><path fill="#bbd7c8" d="M 213.734375 474.4375 C 213.734375 474.523438 214.046875 474.964844 214.089844 474.933594 C 214.460938 474.75 214.820312 474.539062 215.167969 474.308594 L 214.445312 473.457031 C 214.179688 473.765625 213.941406 474.089844 213.734375 474.4375 Z M 213.734375 474.4375 " fill-opacity="1" fill-rule="nonzero"/><path fill="#bbd7c8" d="M 450.269531 246.363281 L 450.566406 246.222656 L 450.199219 246.222656 L 450.199219 246.324219 Z M 450.269531 246.363281 " fill-opacity="1" fill-rule="nonzero"/><path fill="#bbd7c8" d="M 451.5625 245.738281 C 451.21875 245.878906 450.886719 246.039062 450.566406 246.222656 L 451.988281 246.09375 C 451.875 245.96875 451.660156 245.699219 451.5625 245.738281 Z M 451.5625 245.738281 " fill-opacity="1" fill-rule="nonzero"/><path fill="#bbd7c8" d="M 316.609375 24.582031 C 316.753906 24.582031 316.980469 24.410156 317.148438 24.324219 L 317.148438 23.644531 L 316.199219 24.070312 C 316.398438 24.253906 316.496094 24.523438 316.609375 24.582031 Z M 316.609375 24.582031 " fill-opacity="1" fill-rule="nonzero"/><path fill="#bbd7c8" d="M 17.039062 354.410156 C 16.882812 354.410156 16.695312 354.621094 16.511719 354.738281 C 16.667969 354.878906 16.839844 355.007812 16.996094 355.164062 L 17.476562 354.835938 C 17.363281 354.679688 17.234375 354.425781 17.039062 354.410156 Z M 17.039062 354.410156 " fill-opacity="1" fill-rule="nonzero"/><path fill="#bbd7c8" d="M 423.789062 357.960938 L 424.457031 357.960938 C 424.527344 357.730469 424.710938 357.492188 424.65625 357.304688 C 424.597656 357.121094 424.316406 357.066406 424.117188 356.953125 Z M 423.789062 357.960938 " fill-opacity="1" fill-rule="nonzero"/><path fill="#bbd7c8" d="M 218.09375 30.429688 L 217.652344 30.730469 L 218.148438 30.984375 Z M 218.09375 30.429688 " fill-opacity="1" fill-rule="nonzero"/><path fill="#bbd7c8" d="M 211.320312 54.4375 L 211.417969 53.800781 L 210.835938 54.054688 Z M 211.320312 54.4375 " fill-opacity="1" fill-rule="nonzero"/><path fill="#bbd7c8" d="M 183.933594 482.445312 C 184.058594 482.714844 184.1875 482.984375 184.328125 483.253906 L 184.828125 482.914062 C 184.726562 482.757812 184.683594 482.515625 184.542969 482.460938 C 184.339844 482.402344 184.136719 482.398438 183.933594 482.445312 Z M 183.933594 482.445312 " fill-opacity="1" fill-rule="nonzero"/><path fill="#bbd7c8" d="M 129.03125 487.515625 C 129.1875 487.640625 129.328125 487.871094 129.484375 487.871094 C 129.640625 487.871094 129.78125 487.65625 129.9375 487.527344 C 129.796875 487.402344 129.640625 487.171875 129.484375 487.171875 C 129.328125 487.171875 129.199219 487.402344 129.03125 487.515625 Z M 129.03125 487.515625 " fill-opacity="1" fill-rule="nonzero"/><g clip-path="url(#435507e369)"><path fill="#bbd7c8" d="M 482.496094 195.992188 L 482.652344 196.503906 L 483.308594 196.234375 Z M 482.496094 195.992188 " fill-opacity="1" fill-rule="nonzero"/></g><path fill="#bbd7c8" d="M 451.730469 201.160156 L 451.832031 201.089844 L 451.703125 200.789062 Z M 451.730469 201.160156 " fill-opacity="1" fill-rule="nonzero"/><path fill="#bbd7c8" d="M 451.304688 199.851562 C 451.414062 200.175781 451.546875 200.488281 451.703125 200.789062 L 451.617188 199.371094 C 451.488281 199.554688 451.261719 199.753906 451.304688 199.851562 Z M 451.304688 199.851562 " fill-opacity="1" fill-rule="nonzero"/><path fill="#bbd7c8" d="M 69.414062 132.414062 C 69.414062 132.171875 69.539062 131.929688 69.597656 131.6875 C 69.570312 131.917969 69.484375 132.1875 69.414062 132.414062 Z M 69.414062 132.414062 " fill-opacity="1" fill-rule="nonzero"/><path fill="#bbd7c8" d="M 455.222656 231.246094 L 454.585938 231.472656 L 455.140625 231.839844 Z M 455.222656 231.246094 " fill-opacity="1" fill-rule="nonzero"/><path fill="#bbd7c8" d="M 72.59375 447.617188 L 72.523438 447.617188 L 72.976562 448.1875 Z M 72.59375 447.617188 " fill-opacity="1" fill-rule="nonzero"/><path fill="#bbd7c8" d="M 226.453125 51.753906 L 225.675781 51.386719 C 225.746094 51.507812 225.835938 51.609375 225.945312 51.699219 C 226.070312 51.785156 226.285156 51.742188 226.453125 51.753906 Z M 226.453125 51.753906 " fill-opacity="1" fill-rule="nonzero"/><path fill="#674839" d="M 273.230469 15.683594 C 258.070312 0.0273438 230.992188 1.085938 213.261719 13.757812 C 195.53125 26.429688 185.941406 47.832031 181.539062 69.175781 C 178.699219 82.941406 177.683594 97.066406 174.191406 110.6875 C 170.695312 124.304688 164.320312 137.800781 153.101562 146.277344 C 143.933594 153.214844 132.460938 156.164062 121.65625 160.128906 C 110.863281 164.09375 99.828125 169.839844 94.371094 179.96875 C 89.507812 188.976562 89.859375 200.0625 85.140625 209.15625 C 80.011719 219.050781 69.753906 225.078125 62.40625 233.445312 C 48.226562 249.597656 46.457031 275.367188 58.269531 293.304688 C 60.453125 286.890625 61.882812 280.21875 62.515625 273.476562 C 60.0625 282.910156 63.011719 293.558594 69.949219 300.410156 C 70.675781 295.851562 71.390625 291.292969 72.117188 286.730469 C 70.371094 297.523438 79.480469 306.511719 89.046875 311.820312 C 101.5 318.746094 113.203125 327.320312 123.71875 324.289062 C 134.230469 321.257812 141.957031 303.503906 152.738281 301.660156 C 156.351562 298.398438 157.332031 292.578125 155.648438 289.449219 C 150.53125 300.167969 145.425781 310.875 140.308594 321.597656 C 139.675781 322.929688 139.023438 324.3125 139.023438 325.792969 C 139.023438 328.726562 141.542969 330.996094 143.992188 332.609375 C 152.773438 338.378906 163.578125 341.011719 174.03125 339.921875 C 183.417969 338.9375 192.574219 335.070312 201.960938 336.039062 C 206.882812 336.546875 211.589844 338.378906 216.511719 338.839844 C 221.777344 339.339844 227.050781 338.257812 232.230469 337.179688 C 245.460938 334.4375 258.675781 331.699219 271.90625 328.957031 C 276.503906 328 281.210938 327.015625 285.257812 324.640625 C 289.019531 322.433594 292.015625 319.148438 294.914062 315.882812 C 312.21875 296.371094 328.480469 275.152344 336.796875 250.4375 C 345.117188 225.722656 344.449219 196.785156 329.632812 175.324219 C 324.730469 168.226562 318.367188 161.984375 315.128906 153.992188 C 311.757812 145.671875 312.132812 136.382812 312.679688 127.433594 C 313.695312 110.699219 315.089844 93.890625 313.625 77.179688 C 312.15625 60.46875 307.632812 43.660156 297.835938 30.054688 C 291.347656 21.019531 281.050781 13.113281 273.230469 15.683594 Z M 273.230469 15.683594 " fill-opacity="1" fill-rule="nonzero"/><path fill="#fdb58e" d="M 210.0625 96.351562 C 208.300781 94.824219 207.113281 92.761719 205.527344 91.054688 C 203.9375 89.355469 201.65625 87.972656 199.378906 88.46875 C 197.195312 88.957031 195.667969 91.101562 195.316406 93.320312 C 194.964844 95.527344 195.558594 97.785156 196.296875 99.894531 C 197.304688 102.730469 198.601562 105.460938 200.152344 108.042969 C 201.984375 111.0625 204.277344 113.949219 207.441406 115.488281 C 208.085938 115.804688 208.777344 116.058594 209.480469 115.984375 C 211.308594 115.804688 212.195312 113.632812 212.414062 111.8125 C 213.175781 105.773438 211.042969 99.785156 210.0625 96.351562 Z M 210.0625 96.351562 " fill-opacity="1" fill-rule="nonzero"/><path fill="#fdb58e" d="M 287.515625 93.867188 C 287.175781 90.628906 290.449219 88.300781 293.3125 86.722656 C 294.050781 86.324219 294.828125 85.898438 295.664062 85.875 C 296.890625 85.839844 298.015625 86.675781 298.636719 87.742188 C 299.253906 88.808594 299.421875 90.058594 299.496094 91.285156 C 299.933594 99.640625 295.09375 108.042969 287.648438 111.851562 C 286.046875 112.675781 283.78125 113.148438 282.6875 111.707031 C 282.265625 111.136719 282.15625 110.394531 282.09375 109.691406 C 281.585938 103.496094 284.3125 97.480469 287.515625 93.867188 Z M 287.515625 93.867188 " fill-opacity="1" fill-rule="nonzero"/><path fill="#fdb58e" d="M 130.628906 269.125 C 124.953125 282.511719 119.28125 295.898438 113.605469 309.289062 C 107.710938 323.195312 101.769531 337.238281 98.894531 352.070312 C 97.789062 357.769531 97.148438 363.628906 98.007812 369.363281 C 98.859375 375.101562 101.332031 380.738281 105.660156 384.59375 C 108.730469 387.324219 113.035156 389.09375 116.953125 387.882812 C 118.746094 387.324219 120.308594 386.195312 121.679688 384.921875 C 129.054688 378.09375 131.25 367.507812 133.808594 357.796875 C 140.246094 333.347656 151.222656 310.390625 160.703125 286.949219 C 161.785156 284.28125 162.816406 281.128906 161.347656 278.65625 C 160.582031 277.371094 159.273438 276.53125 157.976562 275.792969 C 149.898438 271.269531 140.511719 269.085938 130.628906 269.125 Z M 130.628906 269.125 " fill-opacity="1" fill-rule="nonzero"/><path fill="#fdb58e" d="M 365.164062 278.558594 C 373.796875 295.125 379.449219 313.058594 385.050781 330.886719 C 387.644531 339.144531 390.242188 347.425781 392.046875 355.902344 C 393.40625 362.304688 394.316406 371.304688 393.792969 377.839844 C 393.46875 381.925781 391.804688 385.734375 388.035156 387.359375 C 383.910156 389.144531 379.667969 384.753906 376.210938 381.890625 C 372.597656 378.894531 369.175781 375.671875 365.976562 372.238281 C 362.277344 368.285156 358.832031 363.980469 356.648438 359.019531 C 355.425781 356.230469 354.625 353.296875 353.738281 350.386719 C 348.027344 331.457031 341.515625 311.859375 332.894531 294.785156 C 342.632812 285.617188 352.480469 280.972656 365.164062 278.558594 Z M 365.164062 278.558594 " fill-opacity="1" fill-rule="nonzero"/><path fill="#f0b732" d="M 471.40625 496.308594 C 462.203125 505.609375 449.734375 510.894531 437.257812 514.824219 C 400.378906 526.441406 361.210938 527.996094 323.121094 534.53125 C 286.824219 540.753906 250.601562 551.59375 213.90625 548.539062 C 213.03125 549 211.359375 549.253906 211.359375 549.253906 C 180.082031 547.628906 148.785156 546.015625 117.75 541.832031 C 78.132812 536.496094 36.621094 525.605469 9.410156 496.320312 C 6.246094 492.925781 3.261719 489.214844 1.710938 484.824219 C 0.046875 480.09375 0.183594 474.867188 1.332031 469.992188 C 4.839844 455.222656 17.351562 443.8125 31.410156 438.097656 C 45.476562 432.375 61.011719 431.539062 76.191406 431.636719 C 105.914062 431.828125 135.625 435.359375 164.585938 442.125 C 171.339844 431.113281 178.277344 420.550781 183.914062 409.769531 C 186.027344 405.746094 187.953125 401.683594 189.613281 397.558594 C 191.96875 391.761719 193.800781 385.832031 194.902344 379.671875 C 200.054688 380.546875 205.050781 379.320312 210.0625 378.59375 C 218.257812 377.402344 226.589844 377.574219 234.882812 377.402344 C 256.796875 376.957031 278.589844 374.152344 300.320312 371.351562 C 302.660156 372.867188 301.933594 374.566406 302.210938 377.5625 C 302.746094 383.441406 303.863281 389.496094 305.4375 395.507812 C 306.84375 400.871094 308.628906 406.207031 310.691406 411.359375 C 313.113281 417.433594 315.953125 423.28125 319.042969 428.640625 C 320.777344 431.636719 322.683594 434.605469 325.3125 436.851562 C 358.871094 439.042969 392.289062 434.691406 425.75 434.414062 C 436.820312 434.316406 448.136719 434.703125 458.539062 438.488281 C 468.957031 442.269531 478.476562 449.972656 481.894531 460.496094 C 485.933594 472.9375 480.609375 487.007812 471.40625 496.308594 Z M 471.40625 496.308594 " fill-opacity="1" fill-rule="nonzero"/><path fill="#e0a825" d="M 310.691406 411.359375 C 292.523438 418.429688 271.90625 419.167969 252.152344 418.730469 C 229.160156 418.222656 205.878906 416.355469 183.914062 409.769531 C 186.027344 405.746094 187.953125 401.683594 189.613281 397.558594 C 191.96875 391.761719 193.800781 385.832031 194.902344 379.671875 C 200.054688 380.546875 205.050781 379.320312 210.0625 378.59375 C 218.257812 377.402344 226.589844 377.574219 234.882812 377.402344 C 256.796875 376.957031 278.589844 374.152344 300.320312 371.351562 C 302.660156 372.867188 301.933594 374.566406 302.210938 377.5625 C 302.746094 383.441406 303.863281 389.496094 305.4375 395.507812 C 306.84375 400.871094 308.628906 406.207031 310.691406 411.359375 Z M 310.691406 411.359375 " fill-opacity="1" fill-rule="nonzero"/><path fill="#e0a825" d="M 263.105469 529.367188 C 230.882812 507.863281 190.683594 502.625 155.222656 487.03125 C 134.207031 477.789062 114.671875 464.828125 92.527344 458.75 C 127.1875 458.582031 168.816406 486.8125 191.6875 485.527344 C 187.285156 475.984375 182.898438 466.4375 178.496094 456.90625 C 195.835938 474.722656 218.320312 488.292969 242.960938 491.664062 C 267.589844 495.035156 294.292969 487.175781 310.726562 468.511719 C 306.589844 472.089844 299.507812 490.074219 305.449219 487.769531 C 374.984375 460.800781 408.675781 456.945312 411.183594 461.792969 C 414.167969 467.554688 308.289062 504.394531 312.703125 509.164062 C 313.175781 509.671875 314.835938 510.921875 314.996094 511.585938 C 315.527344 513.78125 311.695312 514.621094 309.550781 515.347656 C 291.359375 521.433594 273.085938 527.253906 263.105469 529.367188 Z M 263.105469 529.367188 " fill-opacity="1" fill-rule="nonzero"/><path fill="#fdb58e" d="M 305.4375 395.507812 C 268.171875 407.574219 227.28125 408.328125 189.613281 397.558594 C 191.96875 391.761719 193.800781 385.832031 194.902344 379.671875 C 200.054688 380.546875 205.050781 379.320312 210.0625 378.59375 C 218.257812 377.402344 226.589844 377.574219 234.882812 377.402344 C 256.796875 376.957031 278.589844 374.152344 300.320312 371.351562 C 302.660156 372.867188 301.933594 374.566406 302.210938 377.5625 C 302.746094 383.441406 303.863281 389.496094 305.4375 395.507812 Z M 305.4375 395.507812 " fill-opacity="1" fill-rule="nonzero"/><path fill="#ffe099" d="M 381.160156 277.503906 C 376.199219 284.027344 369.445312 287.773438 362.738281 291.074219 C 357.921875 293.425781 353.035156 295.632812 348.089844 297.695312 C 342.753906 299.902344 337.332031 301.9375 331.851562 303.78125 C 330.203125 299.914062 328.589844 296.128906 326.964844 292.347656 C 326.9375 292.757812 326.914062 293.183594 326.890625 293.609375 L 326.890625 293.621094 C 326.394531 301.054688 324.78125 309.347656 321.496094 316.925781 C 318.886719 322.929688 315.261719 328.4375 312.328125 334.292969 C 304.832031 349.257812 302.007812 366.515625 304.324219 383.078125 C 266.777344 388.898438 228.664062 389.871094 190.828125 387.152344 C 193.203125 372.082031 195.507812 356.183594 190.027344 341.933594 C 183.601562 325.210938 166.925781 311.992188 167.15625 294.082031 C 167.023438 294.203125 166.902344 294.324219 166.78125 294.445312 C 163.238281 297.839844 161.613281 300.703125 160.011719 303.589844 C 159.660156 304.207031 159.261719 304.875 158.59375 305.128906 C 157.792969 305.445312 156.910156 305.054688 156.144531 304.679688 C 151.003906 302.121094 145.957031 299.355469 141.035156 296.382812 C 131.589844 290.722656 122.566406 284.34375 114.089844 277.308594 C 121.011719 261.3125 128.691406 245.632812 137.082031 230.34375 C 143.035156 219.476562 149.828125 208.34375 160.546875 202.136719 C 168.660156 197.453125 178.179688 196.082031 187.164062 193.464844 C 190.160156 192.601562 193.121094 191.585938 196.007812 190.421875 C 204.046875 187.195312 211.648438 182.890625 218.539062 177.652344 C 221.363281 175.503906 224.140625 173.101562 225.703125 169.9375 C 227.074219 167.183594 227.4375 164.070312 227.707031 161.011719 C 228.613281 150.875 228.820312 140.664062 228.324219 130.5 C 236.714844 139.257812 250.902344 142.808594 262.109375 138.019531 C 265.878906 148.484375 260.605469 161.144531 266.171875 170.785156 C 268.695312 175.164062 273.085938 178.125 277.460938 180.660156 C 283.648438 184.246094 290.109375 187.339844 296.78125 189.898438 C 301.558594 191.730469 306.433594 193.292969 311.378906 194.566406 C 325.558594 198.21875 341.757812 200.375 350.757812 211.933594 C 355.402344 217.898438 357.292969 225.480469 359.5625 232.695312 C 364.542969 248.570312 371.84375 263.714844 381.160156 277.503906 Z M 381.160156 277.503906 " fill-opacity="1" fill-rule="nonzero"/><path fill="#e8c77b" d="M 179.210938 256.960938 C 179.148438 258.222656 179.078125 259.507812 178.640625 260.695312 C 178.117188 262.175781 177.074219 263.398438 176.128906 264.660156 C 172.054688 270.03125 169.242188 276.351562 167.945312 282.972656 C 167.21875 286.742188 166.972656 290.589844 166.78125 294.445312 C 163.238281 297.839844 161.613281 300.703125 160.011719 303.589844 C 159.660156 304.207031 159.261719 304.875 158.59375 305.128906 C 157.792969 305.445312 156.910156 305.054688 156.144531 304.679688 C 151.003906 302.121094 145.957031 299.355469 141.035156 296.382812 C 157.089844 283.15625 169.570312 265.632812 176.601562 246.824219 C 177.996094 242.421875 178.992188 237.871094 179.5625 233.289062 C 179.742188 241.183594 179.621094 249.078125 179.210938 256.960938 Z M 179.210938 256.960938 " fill-opacity="1" fill-rule="nonzero"/><path fill="#e8c77b" d="M 348.089844 297.695312 C 342.753906 299.902344 337.332031 301.9375 331.851562 303.78125 C 330.203125 299.914062 328.589844 296.128906 326.964844 292.347656 C 326.9375 292.757812 326.914062 293.183594 326.890625 293.609375 C 326.890625 291.789062 326.867188 290.007812 326.816406 288.285156 C 326.722656 284.816406 325.992188 282.476562 324.757812 279.238281 C 323.542969 276.023438 321.3125 273.320312 319.53125 270.386719 C 315.238281 263.316406 313.585938 254.898438 313.492188 246.628906 C 313.394531 238.359375 314.765625 230.148438 316.132812 221.988281 C 315.382812 241.863281 324.222656 260.683594 332.882812 278.582031 C 335.0625 283.082031 337.285156 287.628906 340.472656 291.484375 C 342.570312 294.007812 345.152344 296.238281 348.089844 297.695312 Z M 348.089844 297.695312 " fill-opacity="1" fill-rule="nonzero"/><path fill="#fdb58e" d="M 296.78125 189.898438 C 296.027344 192.324219 295.3125 194.761719 294.671875 197.222656 C 290.800781 211.847656 288.253906 228.390625 276.417969 237.824219 C 265.867188 246.226562 250.917969 246.277344 237.660156 243.753906 C 226.988281 241.71875 216.039062 237.933594 208.96875 229.6875 C 204.386719 224.339844 201.828125 217.558594 199.921875 210.769531 C 198.054688 204.113281 196.746094 197.296875 196.007812 190.421875 C 204.046875 187.195312 211.648438 182.890625 218.539062 177.652344 C 221.363281 175.503906 224.140625 173.101562 225.703125 169.9375 C 227.074219 167.183594 227.4375 164.070312 227.707031 161.011719 C 227.9375 158.355469 228.128906 155.703125 228.277344 153.046875 C 228.578125 147.332031 228.664062 141.621094 228.519531 135.910156 L 228.519531 135.898438 C 228.480469 134.089844 228.410156 132.296875 228.324219 130.5 C 229.414062 131.640625 230.617188 132.707031 231.890625 133.667969 C 240.378906 140.046875 252.371094 142.179688 262.109375 138.019531 C 263.867188 142.882812 263.660156 148.21875 263.503906 153.507812 C 263.320312 159.605469 263.1875 165.632812 266.171875 170.785156 C 268.695312 175.164062 273.085938 178.125 277.460938 180.660156 C 283.648438 184.246094 290.109375 187.339844 296.78125 189.898438 Z M 296.78125 189.898438 " fill-opacity="1" fill-rule="nonzero"/><path fill="#e1a080" d="M 231.890625 133.667969 C 230.738281 134.332031 229.621094 135.074219 228.519531 135.898438 L 228.519531 135.910156 C 228.664062 141.621094 228.738281 143.695312 228.433594 149.40625 C 236.777344 159.085938 245.046875 160.164062 252.675781 158.695312 C 256.6875 157.921875 259.671875 156.308594 263.503906 153.507812 C 263.503906 153.507812 263.808594 148.703125 264.050781 146.207031 C 261.734375 144.289062 259.078125 142.824219 256.421875 141.414062 C 253.65625 139.949219 250.855469 138.53125 247.945312 137.390625 C 245.53125 136.445312 243.058594 135.703125 240.570312 134.964844 C 238.886719 134.457031 237.199219 133.957031 235.527344 133.449219 C 234.777344 133.21875 234 132.988281 233.210938 133.074219 C 232.726562 133.121094 232.339844 133.398438 231.890625 133.667969 Z M 231.890625 133.667969 " fill-opacity="1" fill-rule="nonzero"/><path fill="#fdb58e" d="M 203.195312 70.292969 C 204.398438 81.046875 205.585938 91.792969 206.785156 102.550781 C 207.867188 112.191406 209.054688 122.183594 214.136719 130.441406 C 219.121094 138.53125 227.28125 144.058594 235.261719 149.214844 C 240.027344 152.292969 245.253906 155.445312 250.917969 155.023438 C 256.53125 154.597656 261.222656 150.753906 265.433594 147.019531 C 271 142.070312 276.539062 136.917969 280.347656 130.515625 C 285.867188 121.210938 287.273438 110.128906 288.570312 99.394531 C 289.671875 90.179688 290.789062 80.878906 289.820312 71.648438 C 289.175781 65.5 287.625 59.476562 285.527344 53.652344 C 283.78125 48.816406 281.621094 44.050781 278.347656 40.097656 C 272.308594 32.808594 262.984375 28.914062 253.644531 27.375 C 243.433594 25.691406 232.445312 26.648438 223.59375 32.019531 C 209.695312 40.421875 201.777344 57.582031 203.195312 70.292969 Z M 203.195312 70.292969 " fill-opacity="1" fill-rule="nonzero"/><path fill="#fdb58e" d="M 240.003906 553.460938 C 274.734375 556.882812 309.269531 562.277344 343.394531 569.613281 C 352.234375 571.519531 361.0625 573.542969 370.050781 574.5 C 377.738281 575.328125 385.476562 575.351562 393.210938 575.265625 C 398.160156 575.21875 403.179688 575.121094 407.972656 573.871094 C 412.761719 572.621094 417.394531 570.085938 419.820312 565.867188 C 423.542969 565.042969 426.199219 560.945312 425.445312 557.207031 C 426.742188 555.765625 427.226562 553.644531 426.695312 551.777344 C 426.148438 549.910156 424.597656 548.378906 422.730469 547.859375 C 420.4375 547.226562 418.011719 548.066406 415.636719 548.199219 C 412.980469 548.355469 410.335938 547.617188 407.679688 547.652344 C 405.121094 547.6875 402.636719 548.429688 400.089844 548.660156 C 394.765625 549.132812 389.417969 547.300781 385.003906 544.28125 C 381.898438 542.160156 379.21875 539.492188 376.246094 537.175781 C 373.277344 534.859375 369.917969 532.859375 366.183594 532.421875 C 361.234375 531.839844 356.433594 534.046875 351.53125 534.957031 C 347.628906 535.683594 343.566406 535.5625 339.890625 534.796875 C 319.433594 533.996094 298.976562 536.082031 278.613281 538.167969 C 269.238281 539.128906 259.574219 540.183594 251.339844 544.742188 C 247.351562 546.972656 243.859375 549.921875 240.003906 553.460938 Z M 240.003906 553.460938 " fill-opacity="1" fill-rule="nonzero"/><path fill="#f0b732" d="M 479.117188 490.863281 C 476.027344 497.761719 473.734375 501.65625 468.277344 506.894531 C 459.726562 515.140625 447.589844 518.207031 436.007812 520.875 C 367.578125 536.617188 298.332031 548.839844 228.640625 557.511719 C 205.234375 560.421875 181.769531 562.921875 158.265625 565.03125 C 153.089844 568.886719 146.929688 570.546875 140.78125 571.820312 C 125.050781 575.070312 108.851562 576.03125 92.855469 574.621094 C 87.035156 574.113281 80.921875 573.167969 76.363281 569.53125 C 75.066406 568.5 73.925781 567.273438 72.894531 565.976562 C 72.480469 565.453125 72.09375 564.933594 71.695312 564.398438 C 71.28125 563.84375 70.871094 563.296875 70.445312 562.738281 C 69.015625 560.808594 67.484375 558.433594 68.324219 556.164062 C 66.296875 555.789062 65.824219 552.855469 67.109375 551.375 C 68.394531 549.894531 70.515625 549.558594 72.46875 549.363281 C 86.875 547.871094 102.253906 548.746094 114.851562 541.578125 C 123.765625 536.507812 131.589844 527.402344 141.824219 528.042969 C 151.34375 528.648438 159.007812 537.84375 168.527344 537.382812 C 185.660156 536.542969 202.785156 533.925781 219.859375 529.996094 C 269.386719 518.621094 318.558594 496.246094 366.582031 474.25 C 375.386719 470.210938 384.203125 466.171875 393.019531 462.132812 C 401.519531 458.242188 410.070312 454.324219 419.078125 451.800781 C 427.167969 449.546875 435.558594 448.417969 443.953125 448.03125 C 452.597656 447.628906 461.535156 448.054688 469.40625 451.644531 C 477.277344 455.246094 482.597656 462.621094 483.207031 471.242188 C 483.605469 477 481.472656 485.601562 479.117188 490.863281 Z M 479.117188 490.863281 " fill-opacity="1" fill-rule="nonzero"/><path fill="#fdb58e" d="M 228.640625 557.511719 C 205.234375 560.421875 181.769531 562.921875 158.265625 565.03125 C 153.089844 568.886719 146.929688 570.546875 140.78125 571.820312 C 125.050781 575.070312 108.851562 576.03125 92.855469 574.621094 C 87.035156 574.113281 80.921875 573.167969 76.363281 569.53125 C 75.066406 568.5 73.925781 567.273438 72.894531 565.976562 C 72.480469 565.453125 72.09375 564.933594 71.695312 564.398438 C 71.28125 563.84375 70.871094 563.296875 70.445312 562.738281 C 69.015625 560.808594 67.484375 558.433594 68.324219 556.164062 C 66.296875 555.789062 65.824219 552.855469 67.109375 551.375 C 68.394531 549.894531 70.515625 549.558594 72.46875 549.363281 C 86.875 547.871094 102.253906 548.746094 114.851562 541.578125 C 123.765625 536.507812 131.589844 527.402344 141.824219 528.042969 C 151.34375 528.648438 159.007812 537.84375 168.527344 537.382812 C 185.660156 536.542969 202.785156 533.925781 219.859375 529.996094 C 223.996094 533.804688 227.015625 539.164062 228.335938 544.65625 C 229.34375 548.804688 229.511719 553.328125 228.640625 557.511719 Z M 228.640625 557.511719 " fill-opacity="1" fill-rule="nonzero"/><path fill="#fdb58e" d="M 223.484375 311.082031 C 202.722656 322.542969 180.8125 331.929688 158.183594 339.035156 C 149.207031 341.847656 140.089844 344.335938 131.492188 348.167969 C 122.90625 352 114.757812 357.320312 109.09375 364.839844 C 104.835938 370.492188 102.21875 378.640625 106.21875 384.460938 C 108.390625 387.628906 112.101562 389.410156 115.8125 390.378906 C 119.742188 391.410156 123.863281 391.703125 127.902344 391.230469 C 133.734375 390.539062 139.265625 388.292969 144.601562 385.832031 C 161.433594 378.082031 177.101562 368.054688 192.378906 357.578125 C 203.9375 349.644531 215.347656 341.410156 225.523438 331.757812 C 226.175781 331.128906 226.855469 330.484375 227.667969 330.109375 C 228.675781 329.636719 229.828125 329.589844 230.945312 329.453125 C 237.078125 328.726562 242.804688 325.039062 245.800781 319.269531 C 248.746094 324.519531 254.238281 328.253906 260.617188 328.507812 C 292.085938 352.714844 324.488281 377.417969 362.519531 388.777344 C 368.886719 390.683594 375.640625 392.199219 382.128906 390.804688 C 388.191406 389.507812 394.253906 384.121094 392.945312 378.070312 C 392.558594 376.277344 391.574219 374.6875 390.542969 373.171875 C 385.0625 365.070312 377.894531 358.097656 369.542969 353.003906 C 359.136719 346.675781 347.203125 343.414062 335.621094 339.628906 C 312.667969 332.148438 290.449219 322.371094 269.496094 310.113281 C 268.148438 299.027344 265.492188 288.152344 262.835938 277.308594 C 261.285156 270.96875 259.734375 264.601562 257.210938 258.574219 C 255.246094 253.878906 252.710938 249.441406 250.03125 245.113281 C 249.339844 244.007812 248.636719 242.882812 247.617188 242.070312 C 246.597656 241.257812 245.214844 240.796875 243.980469 241.195312 C 242.902344 241.546875 242.113281 242.457031 241.433594 243.355469 C 236.046875 250.386719 232.8125 258.828125 230.226562 267.292969 C 227.183594 277.222656 223.484375 299.742188 223.484375 311.082031 Z M 223.484375 311.082031 " fill-opacity="1" fill-rule="nonzero"/><path fill="#674839" d="M 198.550781 81.847656 C 208.410156 78.027344 217.917969 73.058594 225.945312 66.167969 C 233.976562 59.292969 240.488281 50.417969 243.554688 40.300781 C 243.058594 47.226562 240.546875 53.980469 236.425781 59.558594 C 242.304688 54.867188 246.476562 48.085938 248.003906 40.714844 C 248.722656 47.613281 253.269531 53.496094 258.191406 58.382812 C 267.589844 67.710938 279.257812 75.058594 292.195312 77.90625 C 293.117188 78.113281 294.101562 78.296875 295.007812 78.003906 C 297.691406 77.179688 297.738281 73.445312 297.167969 70.703125 C 293.796875 54.371094 287.128906 37.648438 273.605469 27.898438 C 265.40625 21.992188 255.34375 19.164062 245.300781 17.902344 C 238.414062 17.042969 231.246094 16.898438 224.671875 19.152344 C 216.5625 21.941406 209.964844 28.25 205.707031 35.695312 C 201.449219 43.140625 199.363281 51.652344 198.417969 60.179688 C 197.65625 67.140625 197.605469 74.257812 198.550781 81.847656 Z M 198.550781 81.847656 " fill-opacity="1" fill-rule="nonzero"/><path fill="#e1a080" d="M 198.796875 95.6875 C 199.488281 94.824219 200.542969 93.867188 201.546875 94.339844 C 201.925781 94.507812 202.179688 94.847656 202.421875 95.1875 C 205.488281 99.542969 206.433594 105 207.296875 110.25 C 206.53125 107.945312 205.769531 105.628906 205.003906 103.324219 C 204.699219 102.402344 204.386719 101.457031 203.792969 100.695312 C 203.195312 99.929688 202.25 99.359375 201.292969 99.46875 C 201.125 99.492188 200.929688 99.519531 200.808594 99.394531 C 200.699219 99.289062 200.710938 99.105469 200.757812 98.960938 C 200.964844 98.292969 201.71875 97.832031 202.410156 97.964844 C 202.203125 96.460938 200.457031 95.371094 198.796875 95.6875 Z M 198.796875 95.6875 " fill-opacity="1" fill-rule="nonzero"/><path fill="#e1a080" d="M 296.089844 90.894531 C 295.882812 90.203125 295.105469 89.804688 294.390625 89.839844 C 293.675781 89.875 293.019531 90.277344 292.488281 90.761719 C 291.457031 91.683594 290.777344 92.921875 290.207031 94.183594 C 288.753906 97.417969 287.976562 100.972656 287.964844 104.527344 C 288.074219 102.851562 288.558594 101.144531 289.6875 99.917969 C 291.082031 98.402344 293.289062 97.769531 294.5625 96.144531 C 294.644531 96.039062 294.730469 95.917969 294.730469 95.78125 C 294.742188 95.347656 294.085938 95.296875 293.6875 95.441406 C 292.460938 95.890625 291.371094 96.703125 290.59375 97.746094 C 291.285156 95.164062 293.324219 92.992188 295.859375 92.132812 C 295.917969 91.925781 296.332031 91.683594 296.089844 90.894531 Z M 296.089844 90.894531 " fill-opacity="1" fill-rule="nonzero"/><path fill="#e1a080" d="M 239.261719 114.820312 C 240.195312 114.785156 241.058594 115.355469 241.613281 116.09375 C 242.171875 116.835938 242.476562 117.730469 242.765625 118.617188 C 242.160156 118.75 241.640625 118.191406 241.261719 117.707031 C 240.707031 116.96875 240.136719 116.214844 239.261719 114.820312 Z M 239.261719 114.820312 " fill-opacity="1" fill-rule="nonzero"/><path fill="#e1a080" d="M 252.796875 114.519531 C 250.832031 114.90625 249.171875 116.582031 248.820312 118.558594 C 250.25 117.464844 251.582031 116.265625 252.796875 114.519531 Z M 252.796875 114.519531 " fill-opacity="1" fill-rule="nonzero"/><path fill="#e1a080" d="M 235.453125 129.265625 C 237.078125 132.164062 241.382812 133.617188 244.671875 134.140625 C 247.242188 134.550781 249.023438 134.492188 251.472656 133.59375 C 253.921875 132.695312 256.082031 130.851562 257.015625 128.414062 C 256.53125 130.597656 253.488281 136.40625 246.609375 136.019531 C 243.277344 135.824219 237.429688 133.15625 235.453125 129.265625 Z M 235.453125 129.265625 " fill-opacity="1" fill-rule="nonzero"/><path fill="#e1a080" d="M 245.09375 315.703125 C 244.039062 308.160156 244.125 300.460938 245.339844 292.929688 C 246.066406 300.519531 246.152344 308.183594 245.09375 315.703125 Z M 245.09375 315.703125 " fill-opacity="1" fill-rule="nonzero"/><path fill="#e1a080" d="M 233.539062 283.75 C 233.757812 276.691406 235.792969 269.695312 239.40625 263.628906 C 239.929688 262.757812 240.488281 261.894531 241.289062 261.277344 C 241.578125 262.273438 240.886719 263.265625 240.28125 264.101562 C 236.800781 268.929688 234.777344 274.800781 233.539062 283.75 Z M 233.539062 283.75 " fill-opacity="1" fill-rule="nonzero"/><path fill="#e1a080" d="M 256.375 282.246094 C 255.195312 274.90625 253.234375 267.703125 250.515625 260.804688 C 251.207031 260.648438 251.714844 261.433594 251.972656 262.089844 C 254.421875 268.140625 255.9375 274.554688 256.375 282.246094 Z M 256.375 282.246094 " fill-opacity="1" fill-rule="nonzero"/><path fill="#e1a080" d="M 245.582031 275.71875 C 245.59375 271.160156 245.59375 266.601562 245.605469 262.03125 C 245.605469 261.203125 245.59375 260.320312 245.109375 259.652344 C 244.621094 258.984375 243.484375 258.753906 242.996094 259.433594 C 244.769531 258.414062 246.027344 256.558594 246.308594 254.546875 C 246.382812 253.988281 246.367188 253.371094 245.980469 252.96875 C 245.59375 252.570312 244.742188 252.667969 244.660156 253.214844 C 245.664062 251.46875 246.164062 249.429688 246.113281 247.417969 C 246.101562 247.039062 246.066406 246.640625 245.859375 246.324219 C 245.652344 246.011719 245.214844 245.816406 244.878906 245.996094 C 245.605469 244.601562 246.054688 243.074219 246.1875 241.511719 C 245.957031 243.195312 245.859375 245.234375 247.21875 246.253906 C 246.855469 246.023438 246.476562 246.554688 246.40625 246.980469 C 246.003906 249.054688 246.246094 251.261719 247.109375 253.1875 C 246.804688 253.117188 246.648438 253.539062 246.636719 253.84375 C 246.585938 255.746094 247.167969 257.652344 248.273438 259.203125 C 247.8125 258.902344 247.300781 259.519531 247.109375 260.027344 C 245.933594 263.15625 245.375 266.515625 245.484375 269.851562 " fill-opacity="1" fill-rule="nonzero"/><path fill="#e1a080" d="M 132.777344 545.347656 C 134.109375 543.128906 136.113281 541.273438 138.511719 540.304688 C 140.914062 539.332031 143.714844 539.285156 146.066406 540.363281 C 141.933594 540.144531 137.722656 541.445312 132.777344 545.347656 Z M 132.777344 545.347656 " fill-opacity="1" fill-rule="nonzero"/><path fill="#e1a080" d="M 71.816406 557.074219 C 74.023438 556.976562 75.949219 558.578125 78.144531 558.90625 C 76.082031 558.808594 74.046875 558.226562 71.816406 557.074219 Z M 71.816406 557.074219 " fill-opacity="1" fill-rule="nonzero"/><path fill="#e1a080" d="M 74.242188 564.714844 C 75.890625 565.964844 78.035156 566.546875 80.097656 566.328125 C 79.648438 565.855469 79.007812 565.613281 78.375 565.429688 C 77.382812 565.140625 76.363281 564.921875 75.34375 564.800781 C 74.871094 564.726562 74.363281 564.679688 74.242188 564.714844 Z M 74.242188 564.714844 " fill-opacity="1" fill-rule="nonzero"/><path fill="#674839" d="M 213.722656 87.101562 C 214.863281 83.253906 218.210938 80.296875 222.03125 79.070312 C 224.140625 78.394531 226.445312 78.199219 228.578125 78.78125 C 230.714844 79.363281 232.675781 80.757812 233.683594 82.734375 C 230.605469 80.953125 226.867188 80.308594 223.363281 80.964844 C 219.871094 81.605469 216.621094 83.558594 213.722656 87.101562 Z M 213.722656 87.101562 " fill-opacity="1" fill-rule="nonzero"/><path fill="#674839" d="M 234.070312 97.675781 C 233.113281 98.949219 231.453125 99.457031 229.863281 99.652344 C 227.015625 100.015625 224.066406 99.601562 221.425781 98.460938 C 219.082031 97.46875 216.753906 95.878906 214.246094 96.292969 C 217.808594 97.128906 220.453125 100.246094 223.945312 101.335938 C 227.585938 102.476562 231.851562 101.070312 234.070312 97.675781 Z M 234.070312 97.675781 " fill-opacity="1" fill-rule="nonzero"/><path fill="#674839" d="M 259.320312 98.097656 C 262.558594 100.707031 267.277344 101.359375 271.109375 99.722656 C 273.738281 98.597656 276.078125 96.472656 278.941406 96.460938 C 275.65625 97.238281 273.496094 100.402344 270.417969 101.773438 C 268.476562 102.632812 266.195312 102.730469 264.195312 102.039062 C 262.183594 101.335938 260.460938 99.855469 259.320312 98.097656 Z M 259.320312 98.097656 " fill-opacity="1" fill-rule="nonzero"/><path fill="#674839" d="M 258.433594 83.21875 C 259.273438 80.914062 261.40625 79.21875 263.769531 78.574219 C 266.136719 77.933594 268.695312 78.246094 270.972656 79.132812 C 273.265625 80.019531 275.304688 81.4375 277.195312 82.988281 C 271.664062 79.945312 264.59375 79.910156 258.433594 83.21875 Z M 258.433594 83.21875 " fill-opacity="1" fill-rule="nonzero"/></svg>