<?xml version="1.0" encoding="UTF-8" standalone="no"?>
<svg
   xmlns:dc="http://purl.org/dc/elements/1.1/"
   xmlns:cc="http://creativecommons.org/ns#"
   xmlns:rdf="http://www.w3.org/1999/02/22-rdf-syntax-ns#"
   xmlns:svg="http://www.w3.org/2000/svg"
   xmlns="http://www.w3.org/2000/svg"
   viewBox="0 0 666.66669 666.66669"
   height="666.66669"
   width="666.66669"
   xml:space="preserve"
   id="svg2"
   version="1.1"><metadata
     id="metadata8"><rdf:RDF><cc:Work
         rdf:about=""><dc:format>image/svg+xml</dc:format><dc:type
           rdf:resource="http://purl.org/dc/dcmitype/StillImage" /></cc:Work></rdf:RDF></metadata><defs
     id="defs6"><clipPath
       id="clipPath18"
       clipPathUnits="userSpaceOnUse"><path
         id="path16"
         d="M 0,500 H 500 V 0 H 0 Z" /></clipPath><clipPath
       id="clipPath30"
       clipPathUnits="userSpaceOnUse"><path
         id="path28"
         d="M 32.9103,438.222 H 471.886 V 48.221 H 32.9103 Z" /></clipPath><clipPath
       id="clipPath46"
       clipPathUnits="userSpaceOnUse"><path
         id="path44"
         d="M 0,500 H 500 V 0 H 0 Z" /></clipPath><clipPath
       id="clipPath66"
       clipPathUnits="userSpaceOnUse"><path
         id="path64"
         d="M 0,500 H 500 V 0 H 0 Z" /></clipPath><clipPath
       id="clipPath94"
       clipPathUnits="userSpaceOnUse"><path
         id="path92"
         d="M 0,500 H 500 V 0 H 0 Z" /></clipPath><clipPath
       id="clipPath122"
       clipPathUnits="userSpaceOnUse"><path
         id="path120"
         d="M 0,500 H 500 V 0 H 0 Z" /></clipPath><clipPath
       id="clipPath154"
       clipPathUnits="userSpaceOnUse"><path
         id="path152"
         d="M 0,500 H 500 V 0 H 0 Z" /></clipPath><clipPath
       id="clipPath398"
       clipPathUnits="userSpaceOnUse"><path
         id="path396"
         d="M 0,500 H 500 V 0 H 0 Z" /></clipPath></defs><g
     transform="matrix(1.3333333,0,0,-1.3333333,0,666.66667)"
     id="g10"><g
       id="g12"><g
         clip-path="url(#clipPath18)"
         id="g14"><g
           transform="translate(456.7061,250.2974)"
           id="g20"><path
             id="path22"
             style="fill:#75e6a4;fill-opacity:0;fill-rule:nonzero;stroke:none"
             d="m 0,0 c -2.149,16.969 -5.642,33.729 -10.438,50.146 -12.784,43.765 -38.989,131.223 -45.926,137.169 -9.281,7.955 -359.928,-64.296 -365.894,-82.193 -5.966,-17.897 6.628,-294.306 17.234,-302.923 10.606,-8.617 404.339,-3.315 416.933,7.954 C 21.723,-181.067 6.985,-55.164 0,0" /></g><g
           id="g24"><g
             id="g26" /><g
             id="g38"><g
               style="opacity:0"
               id="g36"
               clip-path="url(#clipPath30)"><g
                 id="g34"
                 transform="translate(456.7061,250.2974)"><path
                   id="path32"
                   style="fill:#ffffff;fill-opacity:1;fill-rule:nonzero;stroke:none"
                   d="m 0,0 c -2.149,16.969 -5.642,33.729 -10.438,50.146 -12.784,43.765 -38.989,131.223 -45.926,137.169 -9.281,7.955 -359.928,-64.296 -365.894,-82.193 -5.966,-17.897 6.628,-294.306 17.234,-302.923 10.606,-8.617 404.339,-3.315 416.933,7.954 C 21.723,-181.067 6.985,-55.164 0,0" /></g></g></g></g></g></g><g
       id="g40"><g
         clip-path="url(#clipPath46)"
         id="g42"><g
           transform="translate(457.3916,395.4155)"
           id="g48"><path
             id="path50"
             style="fill:none;stroke:#233239;stroke-width:1;stroke-linecap:round;stroke-linejoin:round;stroke-miterlimit:10;stroke-dasharray:none;stroke-opacity:1"
             d="m 0,0 c 0,0 -2.387,12.531 -13.127,14.321 -10.74,1.79 -17.304,-12.531 -19.094,-13.128 -1.79,-0.596 -3.58,4.178 -9.547,1.791 -5.966,-2.387 -8.95,-7.757 -8.95,-7.757 0,0 -2.386,3.58 -6.564,2.983 -4.177,-0.597 -7.757,-4.773 -7.757,-4.773 h 84.73 c 0,0 -2.387,6.563 -7.757,8.353 C 6.563,3.58 0,0 0,0 Z" /></g><g
           transform="translate(86.2568,301.4277)"
           id="g52"><path
             id="path54"
             style="fill:none;stroke:#233239;stroke-width:1;stroke-linecap:round;stroke-linejoin:round;stroke-miterlimit:10;stroke-dasharray:none;stroke-opacity:1"
             d="m 0,0 c 0,0 -2.072,10.879 -11.397,12.433 -9.325,1.554 -15.024,-10.879 -16.578,-11.397 -1.554,-0.518 -3.108,3.627 -8.289,1.554 -5.18,-2.072 -7.771,-6.735 -7.771,-6.735 0,0 -2.072,3.109 -5.698,2.591 -3.627,-0.518 -6.735,-4.145 -6.735,-4.145 h 73.564 c 0,0 -2.073,5.699 -6.735,7.253 C 5.698,3.108 0,0 0,0 Z" /></g><g
           transform="translate(193.3369,464.3862)"
           id="g56"><path
             id="path58"
             style="fill:none;stroke:#233239;stroke-width:1;stroke-linecap:round;stroke-linejoin:round;stroke-miterlimit:10;stroke-dasharray:none;stroke-opacity:1"
             d="m 0,0 c 0,0 -1.628,8.545 -8.952,9.766 -7.325,1.221 -11.801,-8.545 -13.022,-8.952 -1.22,-0.407 -2.441,2.849 -6.51,1.221 -4.069,-1.628 -6.104,-5.29 -6.104,-5.29 0,0 -1.627,2.441 -4.476,2.034 -2.848,-0.406 -5.29,-3.255 -5.29,-3.255 h 57.782 c 0,0 -1.628,4.476 -5.29,5.697 C 4.476,2.441 0,0 0,0 Z" /></g></g></g><g
       id="g60"><g
         clip-path="url(#clipPath66)"
         id="g62"><g
           transform="translate(140.4741,449.8242)"
           id="g68"><path
             id="path70"
             style="fill:#d4d4d4;fill-opacity:1;fill-rule:nonzero;stroke:none"
             d="m 0,0 -7.411,-16.744 7.96,1.922 c 0,0 -2.196,-7.411 3.843,-13.999 6.039,-6.587 18.116,-12.351 15.92,-20.86 -2.196,-8.509 -7.96,-13.725 -6.862,-23.881 1.098,-10.155 10.979,-18.39 10.979,-18.39 l 9.332,10.431 c 0,0 -9.332,6.038 -5.763,16.743 3.567,10.705 6.745,20.563 0.548,30.742 -4.374,7.185 -14.426,5.929 -20.586,14.548 -3.231,4.522 -1.921,6.038 -1.921,6.038 l 7.411,2.196 z" /></g><g
           transform="translate(245.4102,448.9751)"
           id="g72"><path
             id="path74"
             style="fill:#233239;fill-opacity:1;fill-rule:nonzero;stroke:none"
             d="m 0,0 -12.352,-8.783 6.039,-1.647 c 0,0 -6.862,-7.411 -4.94,-16.195 1.921,-8.783 17.292,-18.665 18.115,-25.252 0.824,-6.587 -5.764,-16.469 -5.764,-16.469 l 11.254,-3.843 c 0,0 7.685,15.646 4.667,24.978 -3.02,9.333 -20.312,17.567 -21.685,24.704 -1.373,7.136 3.02,11.802 3.02,11.802 l 4.666,-0.548 z" /></g><g
           transform="translate(245.4102,448.9751)"
           id="g76"><path
             id="path78"
             style="fill:none;stroke:#233239;stroke-width:1;stroke-linecap:round;stroke-linejoin:round;stroke-miterlimit:10;stroke-dasharray:none;stroke-opacity:1"
             d="m 0,0 -12.352,-8.783 6.039,-1.647 c 0,0 -6.862,-7.411 -4.94,-16.195 1.921,-8.783 17.292,-18.665 18.115,-25.252 0.824,-6.587 -5.764,-16.469 -5.764,-16.469 l 11.254,-3.843 c 0,0 7.685,15.646 4.667,24.978 -3.02,9.333 -20.312,17.567 -21.685,24.704 -1.373,7.136 3.02,11.802 3.02,11.802 l 4.666,-0.548 z" /></g><g
           transform="translate(298.833,453.9346)"
           id="g80"><path
             id="path82"
             style="fill:#75e6a4;fill-opacity:1;fill-rule:nonzero;stroke:none"
             d="m 0,0 -10.882,-1.462 3.315,-3.093 c 0,0 -6.9,-2.435 -8.632,-8.714 -1.733,-6.278 4.785,-17.799 3.09,-22.3 -1.696,-4.5 -9.252,-8.611 -9.252,-8.611 l 5.916,-6.261 c 0,0 10.207,7.435 11.421,14.436 1.213,7.001 -7.091,18.115 -5.563,23.152 1.528,5.038 5.918,6.547 5.918,6.547 l 2.807,-1.927 z" /></g><g
           transform="translate(93.3423,402.9341)"
           id="g84"><path
             id="path86"
             style="fill:#75e6a4;fill-opacity:1;fill-rule:nonzero;stroke:none"
             d="M 0,0 10.567,2.98 8.753,-1.176 c 0,0 7.3,0.506 11.383,-4.568 4.084,-5.074 2.677,-18.237 6.02,-21.694 3.344,-3.457 11.912,-4.229 11.912,-4.229 l -2.944,-8.096 c 0,0 -12.32,2.771 -16.214,8.714 -3.895,5.943 -0.686,19.442 -4.09,23.458 -3.403,4.016 -8.031,3.657 -8.031,3.657 l -1.81,-2.882 z" /></g></g></g><g
       id="g88"><g
         clip-path="url(#clipPath94)"
         id="g90"><g
           transform="translate(295.6367,389.2661)"
           id="g96"><path
             id="path98"
             style="fill:#75e6a4;fill-opacity:1;fill-rule:nonzero;stroke:none"
             d="m 0,0 c 0,0 -0.962,2.378 0.865,7.338 1.827,4.961 7.049,5.745 7.049,5.745 0,0 0.783,-3.134 -0.521,-6.267 C 6.087,3.684 0,0 0,0" /></g><g
           transform="translate(136.5503,413.7554)"
           id="g100"><path
             id="path102"
             style="fill:#233239;fill-opacity:1;fill-rule:nonzero;stroke:none"
             d="m 0,0 c 0,0 -2.545,-0.321 -6.872,2.716 -4.327,3.038 -3.746,8.286 -3.746,8.286 0,0 3.229,-0.045 5.923,-2.11 C -2.001,6.828 0,0 0,0" /></g><g
           transform="translate(136.5503,413.7554)"
           id="g104"><path
             id="path106"
             style="fill:none;stroke:#233239;stroke-width:1;stroke-linecap:round;stroke-linejoin:round;stroke-miterlimit:10;stroke-dasharray:none;stroke-opacity:1"
             d="m 0,0 c 0,0 -2.545,-0.321 -6.872,2.716 -4.327,3.038 -3.746,8.286 -3.746,8.286 0,0 3.229,-0.045 5.923,-2.11 C -2.001,6.828 0,0 0,0 Z" /></g><g
           transform="translate(108.5112,350.1172)"
           id="g108"><path
             id="path110"
             style="fill:#75e6a4;fill-opacity:1;fill-rule:nonzero;stroke:none"
             d="m 0,0 c 0,0 1.419,2.137 6.545,3.43 5.126,1.292 8.721,-2.576 8.721,-2.576 0,0 -2.144,-2.415 -5.467,-3.106 C 6.477,-2.944 0,0 0,0" /></g><g
           transform="translate(221.3955,453.9033)"
           id="g112"><path
             id="path114"
             style="fill:#75e6a4;fill-opacity:1;fill-rule:nonzero;stroke:none"
             d="m 0,0 c 0,0 1.463,-2.107 0.773,-7.349 -0.689,-5.241 -5.61,-7.156 -5.61,-7.156 0,0 -1.454,2.883 -0.871,6.227 C -5.125,-4.934 0,0 0,0" /></g></g></g><g
       id="g116"><g
         clip-path="url(#clipPath122)"
         id="g118"><g
           transform="translate(269.6104,465.0615)"
           id="g124"><path
             id="path126"
             style="fill:#233239;fill-opacity:1;fill-rule:nonzero;stroke:none"
             d="m 0,0 c 0,0 -2.912,4.049 -7.316,2.366 -2.829,-1.08 -5.646,-4.726 -3.895,-8.856 1.751,-4.129 10.389,-11.32 10.389,-11.32 0,0 12.004,6.227 12.448,14.028 C 11.969,2.229 4.69,5.245 0,0" /></g><g
           transform="translate(274.2832,459.73)"
           id="g128"><path
             id="path130"
             style="fill:#75e6a4;fill-opacity:1;fill-rule:nonzero;stroke:none"
             d="M 0,0 H -3.502 V 3.502 H -6.42 V 0 H -9.922 V -2.918 H -6.42 V -6.42 h 2.918 v 3.502 H 0 Z" /></g><g
           transform="translate(78.4785,364.9629)"
           id="g132"><path
             id="path134"
             style="fill:#233239;fill-opacity:1;fill-rule:nonzero;stroke:none"
             d="m 0,0 c 0,0 -4.882,1.021 -6.996,-3.193 -1.357,-2.706 -0.975,-7.298 3.104,-9.162 4.08,-1.866 15.307,-1.34 15.307,-1.34 0,0 4.653,12.696 -0.285,18.752 C 7.326,9.723 -0.081,7.035 0,0" /></g><g
           transform="translate(85.5244,364.1831)"
           id="g136"><path
             id="path138"
             style="fill:#75e6a4;fill-opacity:1;fill-rule:nonzero;stroke:none"
             d="m 0,0 -2.584,-2.364 -2.364,2.584 -2.153,-1.97 2.364,-2.583 -2.583,-2.364 1.969,-2.153 2.584,2.364 2.364,-2.584 2.153,1.969 -2.364,2.584 2.584,2.364 z" /></g><g
           transform="translate(300.6943,304.4478)"
           id="g140"><path
             id="path142"
             style="fill:#233239;fill-opacity:1;fill-rule:nonzero;stroke:none"
             d="m 0,0 c 0,0 0.294,4.979 -4.184,6.452 -2.876,0.946 -7.362,-0.105 -8.609,-4.413 -1.247,-4.309 0.919,-15.338 0.919,-15.338 0,0 13.241,-2.742 18.508,3.03 C 10.691,-5.822 6.947,1.11 0,0" /></g><g
           transform="translate(300.9551,297.3638)"
           id="g144"><path
             id="path146"
             style="fill:#75e6a4;fill-opacity:1;fill-rule:nonzero;stroke:none"
             d="m 0,0 -2.717,2.209 2.21,2.717 -2.264,1.841 -2.209,-2.717 -2.717,2.21 -1.841,-2.264 2.717,-2.21 -2.21,-2.717 2.264,-1.84 2.209,2.716 2.717,-2.209 z" /></g></g></g><g
       id="g148"><g
         clip-path="url(#clipPath154)"
         id="g150"><g
           transform="translate(188.6216,422.7002)"
           id="g156"><path
             id="path158"
             style="fill:#75e6a4;fill-opacity:1;fill-rule:nonzero;stroke:none"
             d="M 0,0 C 0,0 -2.247,2.247 -5.431,2.809 -8.615,3.371 -12.36,8.053 -8.802,10.862 -5.244,13.671 0.562,6.929 1.311,4.869 L 2.06,2.809 c 0,0 -1.685,8.24 -0.749,12.547 0.936,4.308 7.678,3.746 7.865,-1.311 0.188,-5.056 -2.434,-9.55 -2.434,-9.55 0,0 3.932,4.868 6.929,5.992 2.996,1.124 6.742,-2.996 5.244,-5.805 C 17.417,1.873 8.615,0.749 7.116,-0.187 5.618,-1.124 2.809,-2.06 0,0" /></g><g
           transform="translate(188.6216,422.7002)"
           id="g160"><path
             id="path162"
             style="fill:#233239;fill-opacity:1;fill-rule:nonzero;stroke:none"
             d="m 0,0 c 0,0 1.124,-3.933 3.184,-4.12 2.06,-0.188 3.932,3.933 3.932,3.933 C 7.116,-0.187 1.498,0 0,0" /></g><g
           transform="translate(188.6216,422.7002)"
           id="g164"><path
             id="path166"
             style="fill:none;stroke:#233239;stroke-width:1;stroke-linecap:round;stroke-linejoin:round;stroke-miterlimit:10;stroke-dasharray:none;stroke-opacity:1"
             d="m 0,0 c 0,0 1.124,-3.933 3.184,-4.12 2.06,-0.188 3.932,3.933 3.932,3.933 C 7.116,-0.187 1.498,0 0,0 Z" /></g><g
           transform="translate(191.8052,418.5801)"
           id="g168"><path
             id="path170"
             style="fill:#ffffff;fill-opacity:1;fill-rule:nonzero;stroke:#233239;stroke-width:1;stroke-linecap:round;stroke-linejoin:round;stroke-miterlimit:10;stroke-dasharray:none;stroke-opacity:1"
             d="M 0,0 C 0,0 -0.562,-25.095 7.491,-50.002" /></g><g
           transform="translate(192.3672,404.9092)"
           id="g172"><path
             id="path174"
             style="fill:#233239;fill-opacity:1;fill-rule:nonzero;stroke:none"
             d="m 0,0 c 0,0 -2.435,2.622 -5.057,5.805 -2.621,3.184 -7.678,5.431 -7.678,5.431 0,0 -0.936,-5.992 3.371,-9.363 C -5.057,-1.498 0,0 0,0" /></g><g
           transform="translate(192.3672,404.9092)"
           id="g176"><path
             id="path178"
             style="fill:none;stroke:#233239;stroke-width:1;stroke-linecap:round;stroke-linejoin:round;stroke-miterlimit:10;stroke-dasharray:none;stroke-opacity:1"
             d="m 0,0 c 0,0 -2.435,2.622 -5.057,5.805 -2.621,3.184 -7.678,5.431 -7.678,5.431 0,0 -0.936,-5.992 3.371,-9.363 C -5.057,-1.498 0,0 0,0 Z" /></g><g
           transform="translate(192.3672,404.9092)"
           id="g180"><path
             id="path182"
             style="fill:#233239;fill-opacity:1;fill-rule:nonzero;stroke:none"
             d="m 0,0 c 0,0 1.124,5.431 3.371,7.865 2.247,2.435 7.417,5.077 7.417,5.077 0,0 -0.488,-4.702 -2.361,-9.009 C 6.554,-0.375 0,0 0,0" /></g><g
           transform="translate(192.3672,404.9092)"
           id="g184"><path
             id="path186"
             style="fill:none;stroke:#233239;stroke-width:1;stroke-linecap:round;stroke-linejoin:round;stroke-miterlimit:10;stroke-dasharray:none;stroke-opacity:1"
             d="m 0,0 c 0,0 1.124,5.431 3.371,7.865 2.247,2.435 7.417,5.077 7.417,5.077 0,0 -0.488,-4.702 -2.361,-9.009 C 6.554,-0.375 0,0 0,0 Z" /></g><g
           transform="translate(193.6777,394.0474)"
           id="g188"><path
             id="path190"
             style="fill:#233239;fill-opacity:1;fill-rule:nonzero;stroke:none"
             d="m 0,0 c 0,0 -2.435,2.622 -5.056,5.805 -2.622,3.184 -7.678,5.431 -7.678,5.431 0,0 -0.937,-5.992 3.371,-9.363 C -5.056,-1.499 0,0 0,0" /></g><g
           transform="translate(193.6777,394.0474)"
           id="g192"><path
             id="path194"
             style="fill:none;stroke:#233239;stroke-width:1;stroke-linecap:round;stroke-linejoin:round;stroke-miterlimit:10;stroke-dasharray:none;stroke-opacity:1"
             d="m 0,0 c 0,0 -2.435,2.622 -5.056,5.805 -2.622,3.184 -7.678,5.431 -7.678,5.431 0,0 -0.937,-5.992 3.371,-9.363 C -5.056,-1.499 0,0 0,0 Z" /></g><g
           transform="translate(193.6777,394.0474)"
           id="g196"><path
             id="path198"
             style="fill:#233239;fill-opacity:1;fill-rule:nonzero;stroke:none"
             d="m 0,0 c 0,0 0.562,3.745 2.809,6.18 2.248,2.434 7.98,6.762 7.98,6.762 0,0 -0.114,-4.328 -1.987,-8.635 C 6.929,0 0,0 0,0" /></g><g
           transform="translate(193.6777,394.0474)"
           id="g200"><path
             id="path202"
             style="fill:none;stroke:#233239;stroke-width:1;stroke-linecap:round;stroke-linejoin:round;stroke-miterlimit:10;stroke-dasharray:none;stroke-opacity:1"
             d="m 0,0 c 0,0 0.562,3.745 2.809,6.18 2.248,2.434 7.98,6.762 7.98,6.762 0,0 -0.114,-4.328 -1.987,-8.635 C 6.929,0 0,0 0,0 Z" /></g><g
           transform="translate(195.9253,380.3765)"
           id="g204"><path
             id="path206"
             style="fill:#233239;fill-opacity:1;fill-rule:nonzero;stroke:none"
             d="m 0,0 c 0,0 -0.749,1.498 -3.371,4.682 -2.622,3.183 -9.364,6.554 -9.364,6.554 0,0 -0.749,-7.491 3.559,-10.861 C -4.869,-2.997 0,0 0,0" /></g><g
           transform="translate(195.9253,380.3765)"
           id="g208"><path
             id="path210"
             style="fill:none;stroke:#233239;stroke-width:1;stroke-linecap:round;stroke-linejoin:round;stroke-miterlimit:10;stroke-dasharray:none;stroke-opacity:1"
             d="m 0,0 c 0,0 -0.749,1.498 -3.371,4.682 -2.622,3.183 -9.364,6.554 -9.364,6.554 0,0 -0.749,-7.491 3.559,-10.861 C -4.869,-2.997 0,0 0,0 Z" /></g><g
           transform="translate(195.9253,380.3765)"
           id="g212"><path
             id="path214"
             style="fill:#233239;fill-opacity:1;fill-rule:nonzero;stroke:none"
             d="m 0,0 c 0,0 0.562,3.745 2.809,6.18 2.247,2.434 7.979,6.762 7.979,6.762 0,0 -0.301,-4.702 -2.174,-9.009 C 6.742,-0.375 0,0 0,0" /></g><g
           transform="translate(195.9253,380.3765)"
           id="g216"><path
             id="path218"
             style="fill:none;stroke:#233239;stroke-width:1;stroke-linecap:round;stroke-linejoin:round;stroke-miterlimit:10;stroke-dasharray:none;stroke-opacity:1"
             d="m 0,0 c 0,0 0.562,3.745 2.809,6.18 2.247,2.434 7.979,6.762 7.979,6.762 0,0 -0.301,-4.702 -2.174,-9.009 C 6.742,-0.375 0,0 0,0 Z" /></g><g
           transform="translate(259.1484,302.9194)"
           id="g220"><path
             id="path222"
             style="fill:#ffffff;fill-opacity:1;fill-rule:nonzero;stroke:#75e6a4;stroke-width:1;stroke-linecap:round;stroke-linejoin:round;stroke-miterlimit:10;stroke-dasharray:none;stroke-opacity:1"
             d="M 0,0 C 0,0 16.566,16.36 22.286,36.48" /></g><g
           transform="translate(279.9775,334.7759)"
           id="g224"><path
             id="path226"
             style="fill:#75e6a4;fill-opacity:1;fill-rule:nonzero;stroke:none"
             d="M 0,0 C 0,0 4.115,2.372 3.974,7.32 3.889,10.261 2.701,14.282 1.371,13.495 0.041,12.708 -1.436,10.039 -1.952,7.288 -2.678,3.428 0,0 0,0" /></g><g
           transform="translate(276.2744,326.8325)"
           id="g228"><path
             id="path230"
             style="fill:#75e6a4;fill-opacity:1;fill-rule:nonzero;stroke:none"
             d="M 0,0 C 0,0 1.188,5.169 -0.559,7.537 -2.306,9.904 -6.288,13.105 -6.893,11.683 -7.497,10.261 -6.997,6.182 -5.819,3.643 -4.641,1.104 0,0 0,0" /></g><g
           transform="translate(290.1787,325.7007)"
           id="g232"><path
             id="path234"
             style="fill:#75e6a4;fill-opacity:1;fill-rule:nonzero;stroke:none"
             d="m 0,0 c 0,0 -3.685,3.814 -6.622,3.641 -2.937,-0.174 -7.792,-1.767 -6.93,-3.05 0.863,-1.282 4.555,-3.087 7.325,-3.483 C -3.456,-3.289 0,0 0,0" /></g><g
           transform="translate(271.7187,319.1196)"
           id="g236"><path
             id="path238"
             style="fill:#75e6a4;fill-opacity:1;fill-rule:nonzero;stroke:none"
             d="M 0,0 C 0,0 1.188,5.169 -0.559,7.536 -2.306,9.904 -6.288,13.105 -6.893,11.683 -7.498,10.26 -6.997,6.182 -5.819,3.643 -4.641,1.104 0,0 0,0" /></g><g
           transform="translate(285.623,317.9873)"
           id="g240"><path
             id="path242"
             style="fill:#75e6a4;fill-opacity:1;fill-rule:nonzero;stroke:none"
             d="m 0,0 c 0,0 -3.686,3.814 -6.622,3.641 -2.937,-0.174 -7.792,-1.766 -6.93,-3.049 0.863,-1.283 4.555,-3.088 7.325,-3.484 C -3.456,-3.288 0,0 0,0" /></g><g
           transform="translate(266.8154,312.1118)"
           id="g244"><path
             id="path246"
             style="fill:#75e6a4;fill-opacity:1;fill-rule:nonzero;stroke:none"
             d="M 0,0 C 0,0 1.188,5.168 -0.559,7.536 -2.305,9.903 -6.288,13.105 -6.893,11.683 -7.497,10.26 -6.997,6.181 -5.819,3.642 -4.641,1.104 0,0 0,0" /></g><g
           transform="translate(280.7197,310.9795)"
           id="g248"><path
             id="path250"
             style="fill:#75e6a4;fill-opacity:1;fill-rule:nonzero;stroke:none"
             d="m 0,0 c 0,0 -3.685,3.814 -6.622,3.641 -2.937,-0.174 -7.792,-1.767 -6.93,-3.05 0.864,-1.282 4.555,-3.087 7.325,-3.483 C -3.455,-3.289 0,0 0,0" /></g><g
           transform="translate(261.4785,305.647)"
           id="g252"><path
             id="path254"
             style="fill:#75e6a4;fill-opacity:1;fill-rule:nonzero;stroke:none"
             d="M 0,0 C 0,0 1.188,5.169 -0.558,7.536 -2.305,9.904 -6.287,13.105 -6.893,11.683 -7.497,10.261 -6.997,6.182 -5.818,3.643 -4.641,1.104 0,0 0,0" /></g><g
           transform="translate(275.3828,304.5151)"
           id="g256"><path
             id="path258"
             style="fill:#75e6a4;fill-opacity:1;fill-rule:nonzero;stroke:none"
             d="m 0,0 c 0,0 -3.685,3.814 -6.622,3.641 -2.937,-0.174 -7.792,-1.767 -6.93,-3.05 0.864,-1.282 4.556,-3.087 7.326,-3.484 C -3.455,-3.289 0,0 0,0" /></g><g
           transform="translate(134.0986,312.082)"
           id="g260"><path
             id="path262"
             style="fill:#75e6a4;fill-opacity:1;fill-rule:nonzero;stroke:none"
             d="m 0,0 c 0,0 -2.77,-0.184 -4.971,-1.954 -2.201,-1.769 -7.433,-1.537 -7.233,2.418 0.201,3.955 7.973,3.892 9.758,3.199 l 1.785,-0.692 c 0,0 -6.386,3.633 -8.679,6.726 -2.292,3.094 1.956,7.202 5.387,4.416 3.432,-2.786 4.878,-7.095 4.878,-7.095 0,0 -0.938,5.386 0.047,8.003 0.986,2.615 5.849,2.707 6.833,0.106 C 8.79,12.526 4.464,6.094 4.218,4.57 3.971,3.046 2.971,0.661 0,0" /></g><g
           transform="translate(134.0986,312.082)"
           id="g264"><path
             id="path266"
             style="fill:#233239;fill-opacity:1;fill-rule:nonzero;stroke:none"
             d="M 0,0 C 0,0 3.231,-1.524 4.54,-0.278 5.848,0.969 4.218,4.57 4.218,4.57 4.218,4.57 0.862,0.985 0,0" /></g><g
           transform="translate(134.0986,312.082)"
           id="g268"><path
             id="path270"
             style="fill:none;stroke:#233239;stroke-width:1;stroke-linecap:round;stroke-linejoin:round;stroke-miterlimit:10;stroke-dasharray:none;stroke-opacity:1"
             d="M 0,0 C 0,0 3.231,-1.524 4.54,-0.278 5.848,0.969 4.218,4.57 4.218,4.57 4.218,4.57 0.862,0.985 0,0 Z" /></g><g
           transform="translate(138.6387,311.8042)"
           id="g272"><path
             id="path274"
             style="fill:#ffffff;fill-opacity:1;fill-rule:nonzero;stroke:#233239;stroke-width:1;stroke-linecap:round;stroke-linejoin:round;stroke-miterlimit:10;stroke-dasharray:none;stroke-opacity:1"
             d="M 0,0 C 0,0 16.172,-14.808 37.177,-23.845" /></g><g
           transform="translate(147.9482,304.3081)"
           id="g276"><path
             id="path278"
             style="fill:#233239;fill-opacity:1;fill-rule:nonzero;stroke:none"
             d="m 0,0 c 0,0 -3.124,-0.092 -6.726,0.017 -3.601,0.108 -7.987,-1.923 -7.987,-1.923 0,0 3.4,-4.063 8.094,-3.172 C -1.925,-4.186 0,0 0,0" /></g><g
           transform="translate(147.9482,304.3081)"
           id="g280"><path
             id="path282"
             style="fill:none;stroke:#233239;stroke-width:1;stroke-linecap:round;stroke-linejoin:round;stroke-miterlimit:10;stroke-dasharray:none;stroke-opacity:1"
             d="m 0,0 c 0,0 -3.124,-0.092 -6.726,0.017 -3.601,0.108 -7.987,-1.923 -7.987,-1.923 0,0 3.4,-4.063 8.094,-3.172 C -1.925,-4.186 0,0 0,0 Z" /></g><g
           transform="translate(147.9482,304.3081)"
           id="g284"><path
             id="path286"
             style="fill:#233239;fill-opacity:1;fill-rule:nonzero;stroke:none"
             d="m 0,0 c 0,0 -2.923,3.863 -3.231,6.741 -0.307,2.878 0.931,7.797 0.931,7.797 0,0 2.81,-3.027 4.564,-6.736 C 4.017,4.093 0,0 0,0" /></g><g
           transform="translate(147.9482,304.3081)"
           id="g288"><path
             id="path290"
             style="fill:none;stroke:#233239;stroke-width:1;stroke-linecap:round;stroke-linejoin:round;stroke-miterlimit:10;stroke-dasharray:none;stroke-opacity:1"
             d="m 0,0 c 0,0 -2.923,3.863 -3.231,6.741 -0.307,2.878 0.931,7.797 0.931,7.797 0,0 2.81,-3.027 4.564,-6.736 C 4.017,4.093 0,0 0,0 Z" /></g><g
           transform="translate(155.8418,298.9199)"
           id="g292"><path
             id="path294"
             style="fill:#233239;fill-opacity:1;fill-rule:nonzero;stroke:none"
             d="m 0,0 c 0,0 -3.124,-0.091 -6.725,0.017 -3.601,0.108 -7.987,-1.923 -7.987,-1.923 0,0 3.4,-4.063 8.094,-3.171 C -1.924,-4.186 0,0 0,0" /></g><g
           transform="translate(155.8418,298.9199)"
           id="g296"><path
             id="path298"
             style="fill:none;stroke:#233239;stroke-width:1;stroke-linecap:round;stroke-linejoin:round;stroke-miterlimit:10;stroke-dasharray:none;stroke-opacity:1"
             d="m 0,0 c 0,0 -3.124,-0.091 -6.725,0.017 -3.601,0.108 -7.987,-1.923 -7.987,-1.923 0,0 3.4,-4.063 8.094,-3.171 C -1.924,-4.186 0,0 0,0 Z" /></g><g
           transform="translate(155.8418,298.9199)"
           id="g300"><path
             id="path302"
             style="fill:#233239;fill-opacity:1;fill-rule:nonzero;stroke:none"
             d="m 0,0 c 0,0 -2.139,2.524 -2.446,5.402 -0.307,2.878 0.146,9.136 0.146,9.136 0,0 2.779,-2.565 4.533,-6.274 C 3.987,4.555 0,0 0,0" /></g><g
           transform="translate(155.8418,298.9199)"
           id="g304"><path
             id="path306"
             style="fill:none;stroke:#233239;stroke-width:1;stroke-linecap:round;stroke-linejoin:round;stroke-miterlimit:10;stroke-dasharray:none;stroke-opacity:1"
             d="m 0,0 c 0,0 -2.139,2.524 -2.446,5.402 -0.307,2.878 0.146,9.136 0.146,9.136 0,0 2.779,-2.565 4.533,-6.274 C 3.987,4.555 0,0 0,0 Z" /></g><g
           transform="translate(166.1211,292.5317)"
           id="g308"><path
             id="path310"
             style="fill:#233239;fill-opacity:1;fill-rule:nonzero;stroke:none"
             d="m 0,0 c 0,0 -1.416,0.37 -5.017,0.478 -3.601,0.108 -9.696,-2.384 -9.696,-2.384 0,0 4.493,-4.802 9.187,-3.91 C -0.832,-4.925 0,0 0,0" /></g><g
           transform="translate(166.1211,292.5317)"
           id="g312"><path
             id="path314"
             style="fill:none;stroke:#233239;stroke-width:1;stroke-linecap:round;stroke-linejoin:round;stroke-miterlimit:10;stroke-dasharray:none;stroke-opacity:1"
             d="m 0,0 c 0,0 -1.416,0.37 -5.017,0.478 -3.601,0.108 -9.696,-2.384 -9.696,-2.384 0,0 4.493,-4.802 9.187,-3.91 C -0.832,-4.925 0,0 0,0 Z" /></g><g
           transform="translate(166.1211,292.5317)"
           id="g316"><path
             id="path318"
             style="fill:#233239;fill-opacity:1;fill-rule:nonzero;stroke:none"
             d="m 0,0 c 0,0 -2.139,2.524 -2.446,5.402 -0.307,2.878 0.146,9.136 0.146,9.136 0,0 2.918,-2.904 4.672,-6.613 C 4.125,4.216 0,0 0,0" /></g><g
           transform="translate(166.1211,292.5317)"
           id="g320"><path
             id="path322"
             style="fill:none;stroke:#233239;stroke-width:1;stroke-linecap:round;stroke-linejoin:round;stroke-miterlimit:10;stroke-dasharray:none;stroke-opacity:1"
             d="m 0,0 c 0,0 -2.139,2.524 -2.446,5.402 -0.307,2.878 0.146,9.136 0.146,9.136 0,0 2.918,-2.904 4.672,-6.613 C 4.125,4.216 0,0 0,0 Z" /></g><g
           transform="translate(224.6099,367.647)"
           id="g324"><path
             id="path326"
             style="fill:#ffffff;fill-opacity:1;fill-rule:nonzero;stroke:#233239;stroke-width:1;stroke-linecap:round;stroke-linejoin:round;stroke-miterlimit:10;stroke-dasharray:none;stroke-opacity:1"
             d="M 0,0 C 0,0 4.166,-33.796 -1.195,-54.425" /></g><g
           transform="translate(224.0703,377.4233)"
           id="g328"><path
             id="path330"
             style="fill:#75e6a4;fill-opacity:1;fill-rule:nonzero;stroke:none"
             d="M 0,0 C 0,0 1.888,6.978 4.362,6.158 6.836,5.339 7.293,-1.412 7.297,-3.473 7.301,-5.533 3.723,-7.411 2.014,-8.745 0.305,-10.08 0,0 0,0" /></g><g
           transform="translate(225.8042,349.6577)"
           id="g332"><path
             id="path334"
             style="fill:#75e6a4;fill-opacity:1;fill-rule:nonzero;stroke:none"
             d="m 0,0 c 0,0 -8.976,2.392 -10.412,7.461 -1.436,5.069 4.202,23.688 6.867,22.33 2.666,-1.358 3.825,-10.77 3.825,-10.77 0,0 4.924,10.724 7.207,10.443 C 9.77,29.183 11.796,14.256 9.748,8.071 7.7,1.885 0,0 0,0" /></g><g
           transform="translate(224.375,315.1084)"
           id="g336"><path
             id="path338"
             style="fill:#233239;fill-opacity:1;fill-rule:nonzero;stroke:none"
             d="m 0,0 c 0,0 1.814,13.383 6.423,19.548 4.609,6.165 18.042,22.032 18.042,22.032 0,0 -3.012,-14.172 -9.677,-30.884 C 9.267,-3.146 0,0 0,0" /></g><g
           transform="translate(223.6226,320.8896)"
           id="g340"><path
             id="path342"
             style="fill:#233239;fill-opacity:1;fill-rule:nonzero;stroke:none"
             d="m 0,0 c 0,0 -1.236,8.089 -7.119,17.259 -5.881,9.17 -14.243,17.77 -14.243,17.77 0,0 3.308,-23.134 7.969,-29.352 C -8.73,-0.541 0.399,-6.715 0.399,-6.715 Z" /></g><g
           transform="translate(192.7637,305.1572)"
           id="g344"><path
             id="path346"
             style="fill:#ffffff;fill-opacity:1;fill-rule:nonzero;stroke:#75e6a4;stroke-width:1;stroke-linecap:round;stroke-linejoin:round;stroke-miterlimit:10;stroke-dasharray:none;stroke-opacity:1"
             d="M 0,0 C 0,0 -14.158,28.657 -37.902,44.805" /></g><g
           transform="translate(160.2559,346.0649)"
           id="g348"><path
             id="path350"
             style="fill:#75e6a4;fill-opacity:1;fill-rule:nonzero;stroke:none"
             d="m 0,0 c 0,0 -1.312,6.388 -7.821,8.341 -3.868,1.161 -9.621,1.352 -9.171,-0.721 0.451,-2.074 3.291,-5.152 6.652,-7.014 C -5.623,-2.007 0,0 0,0" /></g><g
           transform="translate(169.0059,337.8071)"
           id="g352"><path
             id="path354"
             style="fill:#75e6a4;fill-opacity:1;fill-rule:nonzero;stroke:none"
             d="m 0,0 c 0,0 -6.221,3.783 -10.061,2.529 -3.84,-1.253 -9.732,-5.058 -8.141,-6.461 1.593,-1.403 7.124,-2.514 10.941,-2.076 C -3.444,-5.57 0,0 0,0" /></g><g
           transform="translate(176.4902,355.4355)"
           id="g356"><path
             id="path358"
             style="fill:#75e6a4;fill-opacity:1;fill-rule:nonzero;stroke:none"
             d="m 0,0 c 0,0 -6.562,-3.153 -7.606,-7.055 -1.043,-3.902 -1.065,-10.917 0.979,-10.347 2.044,0.569 5.991,4.6 7.705,8.039 C 2.792,-5.924 0,0 0,0" /></g><g
           transform="translate(177.0874,328.5376)"
           id="g360"><path
             id="path362"
             style="fill:#75e6a4;fill-opacity:1;fill-rule:nonzero;stroke:none"
             d="m 0,0 c 0,0 -6.222,3.782 -10.061,2.529 -3.84,-1.253 -9.733,-5.058 -8.141,-6.461 1.592,-1.403 7.123,-2.514 10.941,-2.076 C -3.444,-5.57 0,0 0,0" /></g><g
           transform="translate(184.5718,346.166)"
           id="g364"><path
             id="path366"
             style="fill:#75e6a4;fill-opacity:1;fill-rule:nonzero;stroke:none"
             d="m 0,0 c 0,0 -6.563,-3.153 -7.606,-7.055 -1.043,-3.902 -1.066,-10.917 0.979,-10.347 2.044,0.569 5.991,4.6 7.705,8.039 C 2.791,-5.924 0,0 0,0" /></g><g
           transform="translate(184.1001,319.1201)"
           id="g368"><path
             id="path370"
             style="fill:#75e6a4;fill-opacity:1;fill-rule:nonzero;stroke:none"
             d="m 0,0 c 0,0 -6.221,3.783 -10.061,2.529 -3.84,-1.253 -9.733,-5.058 -8.141,-6.461 1.593,-1.403 7.124,-2.514 10.941,-2.076 C -3.444,-5.57 0,0 0,0" /></g><g
           transform="translate(191.5845,336.7485)"
           id="g372"><path
             id="path374"
             style="fill:#75e6a4;fill-opacity:1;fill-rule:nonzero;stroke:none"
             d="m 0,0 c 0,0 -6.563,-3.153 -7.606,-7.055 -1.043,-3.902 -1.065,-10.917 0.979,-10.347 2.044,0.569 5.991,4.6 7.705,8.039 C 2.792,-5.924 0,0 0,0" /></g><g
           transform="translate(190.2168,309.3726)"
           id="g376"><path
             id="path378"
             style="fill:#75e6a4;fill-opacity:1;fill-rule:nonzero;stroke:none"
             d="m 0,0 c 0,0 -6.221,3.782 -10.061,2.529 -3.839,-1.253 -9.732,-5.058 -8.141,-6.461 1.593,-1.403 7.124,-2.514 10.941,-2.076 C -3.444,-5.57 0,0 0,0" /></g><g
           transform="translate(197.7012,327.001)"
           id="g380"><path
             id="path382"
             style="fill:#75e6a4;fill-opacity:1;fill-rule:nonzero;stroke:none"
             d="m 0,0 c 0,0 -6.562,-3.153 -7.605,-7.055 -1.043,-3.902 -1.066,-10.917 0.978,-10.347 2.044,0.569 5.991,4.6 7.705,8.039 C 2.792,-5.924 0,0 0,0" /></g><g
           transform="translate(269.2314,363.311)"
           id="g384"><path
             id="path386"
             style="fill:#233239;fill-opacity:1;fill-rule:nonzero;stroke:none"
             d="m 0,0 c 0,0 -0.603,3.698 -3.261,6.428 -2.658,2.731 -3.016,9.79 2.323,10.026 C 4.401,16.69 5.311,6.241 4.607,3.755 L 3.905,1.268 c 0,0 4.065,9.044 7.927,12.519 3.863,3.476 9.926,-1.706 6.621,-6.672 -3.304,-4.967 -8.908,-7.46 -8.908,-7.46 0,0 7.116,1.949 10.757,0.96 3.64,-0.99 4.385,-7.511 1.016,-9.166 C 17.95,-10.207 8.757,-5.218 6.679,-5.082 4.6,-4.945 1.268,-3.906 0,0" /></g><g
           transform="translate(269.2314,363.311)"
           id="g388"><path
             id="path390"
             style="fill:#75e6a4;fill-opacity:1;fill-rule:nonzero;stroke:none"
             d="m 0,0 c 0,0 -1.635,-4.537 0.207,-6.135 1.842,-1.598 6.472,1.053 6.472,1.053 0,0 -5.246,4.05 -6.679,5.082" /></g></g></g><g
       id="g392"><g
         clip-path="url(#clipPath398)"
         id="g394"><g
           transform="translate(179.063,298.4229)"
           id="g400"><path
             id="path402"
             style="fill:#233239;fill-opacity:1;fill-rule:nonzero;stroke:none"
             d="m 0,0 c 0,0 -14.639,-11.589 -16.774,-23.484 -2.135,-11.894 -1.22,-13.419 -2.745,-17.384 -1.525,-3.965 -23.484,-11.59 -25.924,-29.889 -2.44,-18.299 13.42,-30.804 12.809,-35.988 -0.61,-5.185 -9.149,-16.164 -5.794,-40.564 3.354,-24.398 48.492,-27.448 77.161,-26.228 28.669,1.22 87.531,16.164 97.291,35.378 9.76,19.215 7.319,36.903 3.965,44.223 -3.355,7.32 -16.775,14.64 -20.739,23.484 -3.965,8.845 3.355,15.555 -1.831,32.329 C 112.235,-21.349 100.036,-3.355 89.056,4.27 78.077,11.895 66.487,14.334 45.748,15.25 25.009,16.165 3.965,2.135 0,0" /></g><g
           transform="translate(179.063,298.4229)"
           id="g404"><path
             id="path406"
             style="fill:none;stroke:#233239;stroke-width:1;stroke-linecap:round;stroke-linejoin:round;stroke-miterlimit:10;stroke-dasharray:none;stroke-opacity:1"
             d="m 0,0 c 0,0 -14.639,-11.589 -16.774,-23.484 -2.135,-11.894 -1.22,-13.419 -2.745,-17.384 -1.525,-3.965 -23.484,-11.59 -25.924,-29.889 -2.44,-18.299 13.42,-30.804 12.809,-35.988 -0.61,-5.185 -9.149,-16.164 -5.794,-40.564 3.354,-24.398 48.492,-27.448 77.161,-26.228 28.669,1.22 87.531,16.164 97.291,35.378 9.76,19.215 7.319,36.903 3.965,44.223 -3.355,7.32 -16.775,14.64 -20.739,23.484 -3.965,8.845 3.355,15.555 -1.831,32.329 C 112.235,-21.349 100.036,-3.355 89.056,4.27 78.077,11.895 66.487,14.334 45.748,15.25 25.009,16.165 3.965,2.135 0,0 Z" /></g><g
           transform="translate(369.2705,278.7715)"
           id="g408"><path
             id="path410"
             style="fill:#ffffff;fill-opacity:1;fill-rule:nonzero;stroke:none"
             d="m 0,0 c 0,0 -4.305,73.14 -9.032,87.715 -4.728,14.576 -9.454,32.696 -9.454,32.696 L 9.06,118.966 c 0,0 9.455,-37.029 19.302,-66.574 C 38.211,22.848 42.149,5.515 42.149,5.515 42.149,5.515 6.696,-1.182 0,0" /></g><g
           transform="translate(369.2705,278.7715)"
           id="g412"><path
             id="path414"
             style="fill:none;stroke:#233239;stroke-width:1;stroke-linecap:round;stroke-linejoin:round;stroke-miterlimit:10;stroke-dasharray:none;stroke-opacity:1"
             d="m 0,0 c 0,0 -4.305,73.14 -9.032,87.715 -4.728,14.576 -9.454,32.696 -9.454,32.696 L 9.06,118.966 c 0,0 9.455,-37.029 19.302,-66.574 C 38.211,22.848 42.149,5.515 42.149,5.515 42.149,5.515 6.696,-1.182 0,0 Z" /></g><g
           transform="translate(403.7334,312.0581)"
           id="g416"><path
             id="path418"
             style="fill:#75e6a4;fill-opacity:1;fill-rule:nonzero;stroke:none"
             d="m 0,0 -37.855,-9.587 c 1.989,-13.391 3.392,-23.7 3.392,-23.7 6.696,-1.181 42.15,5.516 42.15,5.516 0,0 -2.277,10.011 -7.687,27.771" /></g><g
           transform="translate(403.7334,312.0581)"
           id="g420"><path
             id="path422"
             style="fill:none;stroke:#233239;stroke-width:1;stroke-linecap:round;stroke-linejoin:round;stroke-miterlimit:10;stroke-dasharray:none;stroke-opacity:1"
             d="m 0,0 -37.855,-9.587 c 1.989,-13.391 3.392,-23.7 3.392,-23.7 6.696,-1.181 42.15,5.516 42.15,5.516 0,0 -2.277,10.011 -7.687,27.771 z" /></g><g
           transform="translate(202.2456,142.4727)"
           id="g424"><path
             id="path426"
             style="fill:#75e6a4;fill-opacity:1;fill-rule:nonzero;stroke:none"
             d="m 0,0 c 0,0 -44.908,-0.787 -61.847,-11.424 -16.939,-10.636 -22.06,-32.695 -22.847,-43.332 -0.788,-10.636 -0.394,-61.058 -0.394,-61.058 h 219.023 c 0,0 2.757,32.302 4.727,49.634 1.969,17.333 2.364,21.666 2.364,21.666 0,0 52.786,52.786 63.422,71.696 10.635,18.908 16.545,39.786 16.938,44.907 0.395,5.121 -6.572,63.702 -9.454,70.907 -1.575,3.939 -6.303,5.908 -16.545,3.939 -10.242,-1.97 -25.605,-2.758 -29.15,-6.303 -3.546,-3.545 0.393,-60.271 0.393,-60.271 0,0 -4.726,-0.393 -3.151,-2.363 1.576,-1.97 1.576,-4.334 1.576,-4.334 L 138.268,40.181 c 0,0 -12.212,-3.152 -25.605,-10.636 C 99.269,22.061 85.875,8.667 85.875,8.667 c 0,0 -9.964,-2.744 -14.042,-2.357 C 67.755,6.697 0,0 0,0" /></g><g
           transform="translate(202.2456,142.4727)"
           id="g428"><path
             id="path430"
             style="fill:none;stroke:#233239;stroke-width:1;stroke-linecap:round;stroke-linejoin:round;stroke-miterlimit:10;stroke-dasharray:none;stroke-opacity:1"
             d="m 0,0 c 0,0 -44.908,-0.787 -61.847,-11.424 -16.939,-10.636 -22.06,-32.695 -22.847,-43.332 -0.788,-10.636 -0.394,-61.058 -0.394,-61.058 h 219.023 c 0,0 2.757,32.302 4.727,49.634 1.969,17.333 2.364,21.666 2.364,21.666 0,0 52.786,52.786 63.422,71.696 10.635,18.908 16.545,39.786 16.938,44.907 0.395,5.121 -6.572,63.702 -9.454,70.907 -1.575,3.939 -6.303,5.908 -16.545,3.939 -10.242,-1.97 -25.605,-2.758 -29.15,-6.303 -3.546,-3.545 0.393,-60.271 0.393,-60.271 0,0 -4.726,-0.393 -3.151,-2.363 1.576,-1.97 1.576,-4.334 1.576,-4.334 L 138.268,40.181 c 0,0 -12.212,-3.152 -25.605,-10.636 C 99.269,22.061 85.875,8.667 85.875,8.667 c 0,0 -9.964,-2.744 -14.042,-2.357 C 67.755,6.697 0,0 0,0 Z" /></g><g
           transform="translate(396.5156,211.8203)"
           id="g432"><path
             id="path434"
             style="fill:none;stroke:#233239;stroke-width:1;stroke-linecap:round;stroke-linejoin:round;stroke-miterlimit:10;stroke-dasharray:none;stroke-opacity:1"
             d="M 0,0 C 1.917,-0.146 3.875,-0.164 5.845,-0.017" /></g><g
           transform="translate(371.6338,220.0762)"
           id="g436"><path
             id="path438"
             style="fill:none;stroke:#233239;stroke-width:1;stroke-linecap:round;stroke-linejoin:round;stroke-miterlimit:10;stroke-dasharray:none;stroke-opacity:1"
             d="M 0,0 C 0,0 10.053,-6.349 22.354,-7.99" /></g><g
           transform="translate(370.0576,214.5615)"
           id="g440"><path
             id="path442"
             style="fill:none;stroke:#233239;stroke-width:1;stroke-linecap:round;stroke-linejoin:round;stroke-miterlimit:10;stroke-dasharray:none;stroke-opacity:1"
             d="M 0,0 C 0,0 -1.182,-8.666 16.939,-13.394" /></g><g
           transform="translate(343.2715,138.1396)"
           id="g444"><path
             id="path446"
             style="fill:none;stroke:#233239;stroke-width:1;stroke-linecap:round;stroke-linejoin:round;stroke-miterlimit:10;stroke-dasharray:none;stroke-opacity:1"
             d="M 0,0 V -40.181" /></g><g
           transform="translate(346.8975,125.2354)"
           id="g448"><path
             id="path450"
             style="fill:none;stroke:#233239;stroke-width:1;stroke-linecap:round;stroke-linejoin:round;stroke-miterlimit:10;stroke-dasharray:none;stroke-opacity:1"
             d="M 0,0 -0.869,-6.398" /></g><g
           transform="translate(350.3613,150.7451)"
           id="g452"><path
             id="path454"
             style="fill:none;stroke:#233239;stroke-width:1;stroke-linecap:round;stroke-linejoin:round;stroke-miterlimit:10;stroke-dasharray:none;stroke-opacity:1"
             d="M 0,0 -3.021,-22.242" /></g><g
           transform="translate(278.2734,132.625)"
           id="g456"><path
             id="path458"
             style="fill:none;stroke:#233239;stroke-width:1;stroke-linecap:round;stroke-linejoin:round;stroke-miterlimit:10;stroke-dasharray:none;stroke-opacity:1"
             d="M 0,0 C 0,0 -3.939,-13.788 -19.303,-35.06" /></g><g
           transform="translate(260.4229,78.3818)"
           id="g460"><path
             id="path462"
             style="fill:none;stroke:#233239;stroke-width:1;stroke-linecap:round;stroke-linejoin:round;stroke-miterlimit:10;stroke-dasharray:none;stroke-opacity:1"
             d="M 0,0 C -1.212,-2.31 -2.486,-4.6 -3.815,-6.815" /></g><g
           transform="translate(274.334,111.7471)"
           id="g464"><path
             id="path466"
             style="fill:none;stroke:#233239;stroke-width:1;stroke-linecap:round;stroke-linejoin:round;stroke-miterlimit:10;stroke-dasharray:none;stroke-opacity:1"
             d="M 0,0 C 0,0 -4.67,-14.789 -12.115,-29.838" /></g><g
           transform="translate(162.853,27.4463)"
           id="g468"><path
             id="path470"
             style="fill:none;stroke:#233239;stroke-width:1;stroke-linecap:round;stroke-linejoin:round;stroke-miterlimit:10;stroke-dasharray:none;stroke-opacity:1"
             d="M 0,0 -1.182,31.515" /></g><g
           transform="translate(336.9619,402.228)"
           id="g472"><path
             id="path474"
             style="fill:#ffffff;fill-opacity:1;fill-rule:nonzero;stroke:none"
             d="m 0,0 c 0,0 -5.813,-3.997 -13.443,-2.543 -7.63,1.453 -11.626,0.363 -9.447,-3.997 2.18,-4.36 10.9,-5.813 15.623,-6.903 4.723,-1.09 16.713,1.453 16.713,1.453 0,0 -3.269,15.26 -9.446,11.99" /></g><g
           transform="translate(336.9619,402.228)"
           id="g476"><path
             id="path478"
             style="fill:none;stroke:#233239;stroke-width:1;stroke-linecap:round;stroke-linejoin:round;stroke-miterlimit:10;stroke-dasharray:none;stroke-opacity:1"
             d="m 0,0 c 0,0 -5.813,-3.997 -13.443,-2.543 -7.63,1.453 -11.626,0.363 -9.447,-3.997 2.18,-4.36 10.9,-5.813 15.623,-6.903 4.723,-1.09 16.713,1.453 16.713,1.453 0,0 -3.269,15.26 -9.446,11.99 z" /></g><g
           transform="translate(373.7705,407.7212)"
           id="g480"><path
             id="path482"
             style="fill:#ffffff;fill-opacity:1;fill-rule:nonzero;stroke:none"
             d="m 0,0 c 0,0 8.159,-17.342 9.417,-22.687 1.258,-5.344 1.886,-9.431 -1.887,-11.946 -3.772,-2.514 -12.259,1.886 -16.661,4.716 -4.401,2.829 -7.778,7.201 -7.778,7.201 0,0 -1.653,-3.115 -8.57,-1.228 -6.916,1.886 -9.71,20.859 -9.71,20.859 0,0 12.882,18.855 35.189,3.085" /></g><g
           transform="translate(373.7705,407.7212)"
           id="g484"><path
             id="path486"
             style="fill:none;stroke:#233239;stroke-width:1;stroke-linecap:round;stroke-linejoin:round;stroke-miterlimit:10;stroke-dasharray:none;stroke-opacity:1"
             d="m 0,0 c 0,0 8.159,-17.342 9.417,-22.687 1.258,-5.344 1.886,-9.431 -1.887,-11.946 -3.772,-2.514 -12.259,1.886 -16.661,4.716 -4.401,2.829 -7.778,7.201 -7.778,7.201 0,0 -1.653,-3.115 -8.57,-1.228 -6.916,1.886 -9.71,20.859 -9.71,20.859 0,0 12.882,18.855 35.189,3.085 z" /></g><g
           transform="translate(383.7051,353.4541)"
           id="g488"><path
             id="path490"
             style="fill:#233239;fill-opacity:1;fill-rule:nonzero;stroke:none"
             d="M 0,0 C -8.82,17.271 -13.178,24.106 -13.178,24.106 L -61.711,5.785 c 0,0 -4.781,11.84 0.964,21.214 6.107,9.963 20.249,12.535 30.855,12.535 10.607,0 26.356,-9 30.856,-18.964 C 5.464,10.606 0,0 0,0 m 16.713,-34.712 c -0.227,1.698 -4.004,9.503 -8.803,18.899 l 1.41,10.67 c 2.25,5.786 3.536,13.178 0,26.356 -3.535,13.178 -16.623,24.356 -31.498,26.034 -14.874,1.679 -34.712,0.964 -45.962,-17.677 -10.554,-17.491 -0.642,-33.106 0,-36.963 0.644,-3.857 -1.927,-13.177 -10.927,-12.535 C -88.066,-19.285 -114.744,-9 -114.744,-9 l 1.929,-11.57 c 0,0 6.107,-1.286 20.891,-9.321 14.785,-8.035 37.284,-18.32 37.284,-18.32 0,0 6.428,-13.5 8.999,-16.071 2.572,-2.572 12.857,-0.965 31.498,4.5 18.643,5.464 31.499,20.248 30.856,25.07" /></g><g
           transform="translate(383.7051,353.4541)"
           id="g492"><path
             id="path494"
             style="fill:none;stroke:#233239;stroke-width:1;stroke-linecap:round;stroke-linejoin:round;stroke-miterlimit:10;stroke-dasharray:none;stroke-opacity:1"
             d="M 0,0 C -8.82,17.271 -13.178,24.106 -13.178,24.106 L -61.711,5.785 c 0,0 -4.781,11.84 0.964,21.214 6.107,9.963 20.249,12.535 30.855,12.535 10.607,0 26.356,-9 30.856,-18.964 C 5.464,10.606 0,0 0,0 Z m 16.713,-34.712 c -0.227,1.698 -4.004,9.503 -8.803,18.899 l 1.41,10.67 c 2.25,5.786 3.536,13.178 0,26.356 -3.535,13.178 -16.623,24.356 -31.498,26.034 -14.874,1.679 -34.712,0.964 -45.962,-17.677 -10.554,-17.491 -0.642,-33.106 0,-36.963 0.644,-3.857 -1.927,-13.177 -10.927,-12.535 C -88.066,-19.285 -114.744,-9 -114.744,-9 l 1.929,-11.57 c 0,0 6.107,-1.286 20.891,-9.321 14.785,-8.035 37.284,-18.32 37.284,-18.32 0,0 6.428,-13.5 8.999,-16.071 2.572,-2.572 12.857,-0.965 31.498,4.5 18.643,5.464 31.499,20.248 30.856,25.07 z" /></g><g
           transform="translate(321.9941,359.2393)"
           id="g496"><path
             id="path498"
             style="fill:none;stroke:#233239;stroke-width:1;stroke-linecap:round;stroke-linejoin:round;stroke-miterlimit:10;stroke-dasharray:none;stroke-opacity:1"
             d="m 0,0 -5.143,-1.928 4.5,-14.142" /></g><g
           transform="translate(383.7051,353.4541)"
           id="g500"><path
             id="path502"
             style="fill:none;stroke:#233239;stroke-width:1;stroke-linecap:round;stroke-linejoin:round;stroke-miterlimit:10;stroke-dasharray:none;stroke-opacity:1"
             d="M 0,0 3.856,-8.035" /></g><g
           transform="translate(268.9609,344.4546)"
           id="g504"><path
             id="path506"
             style="fill:#ffffff;fill-opacity:1;fill-rule:nonzero;stroke:none"
             d="m 0,0 c 0,0 -9.963,6.75 -13.499,8.035 -3.535,1.286 0,-21.213 2.571,-26.677 2.572,-5.464 12.857,7.071 12.857,7.071 z" /></g><g
           transform="translate(268.9609,344.4546)"
           id="g508"><path
             id="path510"
             style="fill:none;stroke:#233239;stroke-width:1;stroke-linecap:round;stroke-linejoin:round;stroke-miterlimit:10;stroke-dasharray:none;stroke-opacity:1"
             d="m 0,0 c 0,0 -9.963,6.75 -13.499,8.035 -3.535,1.286 0,-21.213 2.571,-26.677 2.572,-5.464 12.857,7.071 12.857,7.071 z" /></g><g
           transform="translate(258.0332,325.8125)"
           id="g512"><path
             id="path514"
             style="fill:#ffffff;fill-opacity:1;fill-rule:nonzero;stroke:none"
             d="M 0,0 C 0.407,-0.866 1.01,-1.277 1.733,-1.36 4.811,10.72 -2.571,26.677 -2.571,26.677 -6.106,27.963 -2.571,5.464 0,0" /></g><g
           transform="translate(258.0332,325.8125)"
           id="g516"><path
             id="path518"
             style="fill:none;stroke:#233239;stroke-width:1;stroke-linecap:round;stroke-linejoin:round;stroke-miterlimit:10;stroke-dasharray:none;stroke-opacity:1"
             d="M 0,0 C 0.407,-0.866 1.01,-1.277 1.733,-1.36 4.811,10.72 -2.571,26.677 -2.571,26.677 -6.106,27.963 -2.571,5.464 0,0 Z" /></g><g
           transform="translate(349.8379,421.2397)"
           id="g520"><path
             id="path522"
             style="fill:#ffffff;fill-opacity:1;fill-rule:nonzero;stroke:none"
             d="M 0,0 C 0,0 -4.795,1.44 -6.233,0.379 -7.673,-0.682 -20.999,-9 -21.446,-12.974 c -0.447,-3.972 3.352,-13.701 3.316,-16.304 -0.035,-2.603 4.657,-4.386 6.063,-2.195 1.404,2.192 0.81,14.869 0.81,14.869 l 12.041,5.541 c 0,0 3.907,9.28 -0.784,11.063" /></g><g
           transform="translate(349.8379,421.2397)"
           id="g524"><path
             id="path526"
             style="fill:none;stroke:#233239;stroke-width:1;stroke-linecap:round;stroke-linejoin:round;stroke-miterlimit:10;stroke-dasharray:none;stroke-opacity:1"
             d="M 0,0 C 0,0 -4.795,1.44 -6.233,0.379 -7.673,-0.682 -20.999,-9 -21.446,-12.974 c -0.447,-3.972 3.352,-13.701 3.316,-16.304 -0.035,-2.603 4.657,-4.386 6.063,-2.195 1.404,2.192 0.81,14.869 0.81,14.869 l 12.041,5.541 c 0,0 3.907,9.28 -0.784,11.063 z" /></g><g
           transform="translate(359.6436,418.481)"
           id="g528"><path
             id="path530"
             style="fill:#ffffff;fill-opacity:1;fill-rule:nonzero;stroke:none"
             d="m 0,0 c 0,0 -2.687,5.619 -5.978,4.857 -3.29,-0.761 -11.801,-13.076 -13.929,-17.249 -2.128,-4.172 0.719,-10.713 2.442,-15.168 1.724,-4.454 3.61,-5.458 5.938,-3.533 2.328,1.925 2.01,12.518 2.01,12.518 l 8.631,12.717 c 0,0 3.05,-0.041 0.886,5.858" /></g><g
           transform="translate(359.6436,418.481)"
           id="g532"><path
             id="path534"
             style="fill:none;stroke:#233239;stroke-width:1;stroke-linecap:round;stroke-linejoin:round;stroke-miterlimit:10;stroke-dasharray:none;stroke-opacity:1"
             d="m 0,0 c 0,0 -2.687,5.619 -5.978,4.857 -3.29,-0.761 -11.801,-13.076 -13.929,-17.249 -2.128,-4.172 0.719,-10.713 2.442,-15.168 1.724,-4.454 3.61,-5.458 5.938,-3.533 2.328,1.925 2.01,12.518 2.01,12.518 l 8.631,12.717 c 0,0 3.05,-0.041 0.886,5.858 z" /></g><g
           transform="translate(367.8047,414.5229)"
           id="g536"><path
             id="path538"
             style="fill:#ffffff;fill-opacity:1;fill-rule:nonzero;stroke:none"
             d="m 0,0 c 0,0 -2.551,5.334 -5.675,4.611 -3.123,-0.722 -11.203,-12.414 -13.223,-16.375 -2.021,-3.961 0.682,-10.171 2.318,-14.4 1.637,-4.229 3.427,-5.181 5.637,-3.354 2.21,1.828 1.909,11.884 1.909,11.884 l 8.194,12.073 c 0,0 2.895,-0.04 0.84,5.561" /></g><g
           transform="translate(367.8047,414.5229)"
           id="g540"><path
             id="path542"
             style="fill:none;stroke:#233239;stroke-width:1;stroke-linecap:round;stroke-linejoin:round;stroke-miterlimit:10;stroke-dasharray:none;stroke-opacity:1"
             d="m 0,0 c 0,0 -2.551,5.334 -5.675,4.611 -3.123,-0.722 -11.203,-12.414 -13.223,-16.375 -2.021,-3.961 0.682,-10.171 2.318,-14.4 1.637,-4.229 3.427,-5.181 5.637,-3.354 2.21,1.828 1.909,11.884 1.909,11.884 l 8.194,12.073 c 0,0 2.895,-0.04 0.84,5.561 z" /></g><g
           transform="translate(373.7705,407.7212)"
           id="g544"><path
             id="path546"
             style="fill:#ffffff;fill-opacity:1;fill-rule:nonzero;stroke:none"
             d="m 0,0 c 0,0 -2.105,4.403 -4.685,3.807 -2.579,-0.597 -9.25,-10.249 -10.918,-13.519 -1.668,-3.27 0.563,-8.398 1.915,-11.889 1.35,-3.491 2.829,-4.278 4.653,-2.769 1.824,1.509 1.576,9.811 1.576,9.811 l 6.765,9.967 c 0,0 2.39,-0.032 0.694,4.592" /></g><g
           transform="translate(373.7705,407.7212)"
           id="g548"><path
             id="path550"
             style="fill:none;stroke:#233239;stroke-width:1;stroke-linecap:round;stroke-linejoin:round;stroke-miterlimit:10;stroke-dasharray:none;stroke-opacity:1"
             d="m 0,0 c 0,0 -2.105,4.403 -4.685,3.807 -2.579,-0.597 -9.25,-10.249 -10.918,-13.519 -1.668,-3.27 0.563,-8.398 1.915,-11.889 1.35,-3.491 2.829,-4.278 4.653,-2.769 1.824,1.509 1.576,9.811 1.576,9.811 l 6.765,9.967 c 0,0 2.39,-0.032 0.694,4.592 z" /></g><g
           transform="translate(247.4751,346.228)"
           id="g552"><path
             id="path554"
             style="fill:#ffffff;fill-opacity:1;fill-rule:nonzero;stroke:none"
             d="M 0,0 C 0,0 -10.862,0.652 -13.124,-3.375 -15.385,-7.402 -6.375,-5.25 0,0" /></g><g
           transform="translate(247.4751,346.228)"
           id="g556"><path
             id="path558"
             style="fill:none;stroke:#233239;stroke-width:1;stroke-linecap:round;stroke-linejoin:round;stroke-miterlimit:10;stroke-dasharray:none;stroke-opacity:1"
             d="M 0,0 C 0,0 -10.862,0.652 -13.124,-3.375 -15.385,-7.402 -6.375,-5.25 0,0 Z" /></g><g
           transform="translate(222.2114,325.0439)"
           id="g560"><path
             id="path562"
             style="fill:#ffffff;fill-opacity:1;fill-rule:nonzero;stroke:none"
             d="M 0,0 C 0,0 -10.474,-2.954 -11.286,-7.5 -12.099,-12.046 -4.295,-7.053 0,0" /></g><g
           transform="translate(222.2114,325.0439)"
           id="g564"><path
             id="path566"
             style="fill:none;stroke:#233239;stroke-width:1;stroke-linecap:round;stroke-linejoin:round;stroke-miterlimit:10;stroke-dasharray:none;stroke-opacity:1"
             d="M 0,0 C 0,0 -10.474,-2.954 -11.286,-7.5 -12.099,-12.046 -4.295,-7.053 0,0 Z" /></g><g
           transform="translate(241.3345,325.4189)"
           id="g568"><path
             id="path570"
             style="fill:#ffffff;fill-opacity:1;fill-rule:nonzero;stroke:none"
             d="M 0,0 C 0,0 -10.473,-2.954 -11.286,-7.5 -12.098,-12.046 -4.295,-7.053 0,0" /></g><g
           transform="translate(241.3345,325.4189)"
           id="g572"><path
             id="path574"
             style="fill:none;stroke:#233239;stroke-width:1;stroke-linecap:round;stroke-linejoin:round;stroke-miterlimit:10;stroke-dasharray:none;stroke-opacity:1"
             d="M 0,0 C 0,0 -10.473,-2.954 -11.286,-7.5 -12.098,-12.046 -4.295,-7.053 0,0 Z" /></g><g
           transform="translate(229.0845,340.3003)"
           id="g576"><path
             id="path578"
             style="fill:#ffffff;fill-opacity:1;fill-rule:nonzero;stroke:none"
             d="M 0,0 C 0,0 -10.859,-0.712 -12.599,-4.99 -14.339,-9.268 -5.668,-6.006 0,0" /></g><g
           transform="translate(229.0845,340.3003)"
           id="g580"><path
             id="path582"
             style="fill:none;stroke:#233239;stroke-width:1;stroke-linecap:round;stroke-linejoin:round;stroke-miterlimit:10;stroke-dasharray:none;stroke-opacity:1"
             d="M 0,0 C 0,0 -10.859,-0.712 -12.599,-4.99 -14.339,-9.268 -5.668,-6.006 0,0 Z" /></g><g
           transform="translate(239.9585,335.8003)"
           id="g584"><path
             id="path586"
             style="fill:#ffffff;fill-opacity:1;fill-rule:nonzero;stroke:none"
             d="M 0,0 C 0,0 -10.859,-0.711 -12.599,-4.99 -14.339,-9.268 -5.668,-6.005 0,0" /></g><g
           transform="translate(239.9585,335.8003)"
           id="g588"><path
             id="path590"
             style="fill:none;stroke:#233239;stroke-width:1;stroke-linecap:round;stroke-linejoin:round;stroke-miterlimit:10;stroke-dasharray:none;stroke-opacity:1"
             d="M 0,0 C 0,0 -10.859,-0.711 -12.599,-4.99 -14.339,-9.268 -5.668,-6.005 0,0 Z" /></g><g
           transform="translate(256.082,336.9253)"
           id="g592"><path
             id="path594"
             style="fill:#ffffff;fill-opacity:1;fill-rule:nonzero;stroke:none"
             d="M 0,0 C 0,0 -10.859,-0.711 -12.599,-4.99 -14.338,-9.268 -5.668,-6.005 0,0" /></g><g
           transform="translate(256.082,336.9253)"
           id="g596"><path
             id="path598"
             style="fill:none;stroke:#233239;stroke-width:1;stroke-linecap:round;stroke-linejoin:round;stroke-miterlimit:10;stroke-dasharray:none;stroke-opacity:1"
             d="M 0,0 C 0,0 -10.859,-0.711 -12.599,-4.99 -14.338,-9.268 -5.668,-6.005 0,0 Z" /></g><g
           transform="translate(210.3657,331.2622)"
           id="g600"><path
             id="path602"
             style="fill:#ffffff;fill-opacity:1;fill-rule:nonzero;stroke:none"
             d="M 0,0 C 0,0 -10.559,-2.634 -11.509,-7.153 -12.459,-11.673 -4.508,-6.919 0,0" /></g><g
           transform="translate(210.3657,331.2622)"
           id="g604"><path
             id="path606"
             style="fill:none;stroke:#233239;stroke-width:1;stroke-linecap:round;stroke-linejoin:round;stroke-miterlimit:10;stroke-dasharray:none;stroke-opacity:1"
             d="M 0,0 C 0,0 -10.559,-2.634 -11.509,-7.153 -12.459,-11.673 -4.508,-6.919 0,0 Z" /></g><g
           transform="translate(212.5361,167.3516)"
           id="g608"><path
             id="path610"
             style="fill:#75e6a4;fill-opacity:1;fill-rule:nonzero;stroke:none"
             d="m 0,0 c 0,0 -11.672,1.326 -13.528,-0.796 -1.857,-2.122 0.265,-16.977 0,-20.161 -0.266,-3.183 -3.183,-9.019 -0.531,-12.998 2.653,-3.979 18.304,-11.937 38.994,-11.671 20.691,0.265 34.219,10.08 37.403,15.65 3.183,5.571 -0.796,10.08 -0.796,11.407 0,1.326 1.062,11.406 -1.592,16.181 -2.652,4.775 -19.364,3.979 -19.364,3.979 z" /></g><g
           transform="translate(212.5361,167.3516)"
           id="g612"><path
             id="path614"
             style="fill:none;stroke:#233239;stroke-width:1;stroke-linecap:round;stroke-linejoin:round;stroke-miterlimit:10;stroke-dasharray:none;stroke-opacity:1"
             d="m 0,0 c 0,0 -11.672,1.326 -13.528,-0.796 -1.857,-2.122 0.265,-16.977 0,-20.161 -0.266,-3.183 -3.183,-9.019 -0.531,-12.998 2.653,-3.979 18.304,-11.937 38.994,-11.671 20.691,0.265 34.219,10.08 37.403,15.65 3.183,5.571 -0.796,10.08 -0.796,11.407 0,1.326 1.062,11.406 -1.592,16.181 -2.652,4.775 -19.364,3.979 -19.364,3.979 z" /></g><g
           transform="translate(210.5122,161.6338)"
           id="g616"><path
             id="path618"
             style="fill:none;stroke:#233239;stroke-width:1;stroke-linecap:round;stroke-linejoin:round;stroke-miterlimit:10;stroke-dasharray:none;stroke-opacity:1"
             d="M 0,0 C 0,0 -9.382,2.534 -7.791,3.064" /></g><g
           transform="translate(260.2842,161.25)"
           id="g620"><path
             id="path622"
             style="fill:none;stroke:#233239;stroke-width:1;stroke-linecap:round;stroke-linejoin:round;stroke-miterlimit:10;stroke-dasharray:none;stroke-opacity:1"
             d="m 0,0 c 0,0 8.754,2.122 8.754,3.184 0,1.06 -3.714,0.795 -3.714,0.795" /></g><g
           transform="translate(229.5708,139.3408)"
           id="g624"><path
             id="path626"
             style="fill:none;stroke:#233239;stroke-width:1;stroke-linecap:round;stroke-linejoin:round;stroke-miterlimit:10;stroke-dasharray:none;stroke-opacity:1"
             d="M 0,0 C 7.671,1.262 20.109,4.031 27.265,9.441" /></g><g
           transform="translate(222.8818,138.4365)"
           id="g628"><path
             id="path630"
             style="fill:none;stroke:#233239;stroke-width:1;stroke-linecap:round;stroke-linejoin:round;stroke-miterlimit:10;stroke-dasharray:none;stroke-opacity:1"
             d="M 0,0 C 0,0 1.374,0.127 3.609,0.437" /></g><g
           transform="translate(263.2021,147.4561)"
           id="g632"><path
             id="path634"
             style="fill:none;stroke:#233239;stroke-width:1;stroke-linecap:round;stroke-linejoin:round;stroke-miterlimit:10;stroke-dasharray:none;stroke-opacity:1"
             d="M 0,0 C 0,0 -12.998,-5.836 -17.507,-7.428" /></g><g
           transform="translate(209.6182,183.7979)"
           id="g636"><path
             id="path638"
             style="fill:#ffffff;fill-opacity:1;fill-rule:nonzero;stroke:none"
             d="m 0,0 -0.265,-20.956 c 0,0 -1.061,-2.122 18.304,-3.448 19.364,-1.327 32.627,1.856 32.627,1.856 L 49.605,-5.04 Z" /></g><g
           transform="translate(209.6182,183.7979)"
           id="g640"><path
             id="path642"
             style="fill:none;stroke:#233239;stroke-width:1;stroke-linecap:round;stroke-linejoin:round;stroke-miterlimit:10;stroke-dasharray:none;stroke-opacity:1"
             d="m 0,0 -0.265,-20.956 c 0,0 -1.061,-2.122 18.304,-3.448 19.364,-1.327 32.627,1.856 32.627,1.856 L 49.605,-5.04 Z" /></g><g
           transform="translate(276.2002,232.3418)"
           id="g644"><path
             id="path646"
             style="fill:#ffffff;fill-opacity:1;fill-rule:nonzero;stroke:none"
             d="M 0,0 C 0,0 1.592,6.101 5.306,4.774 9.02,3.448 11.142,-6.102 8.754,-12.468 6.366,-18.834 0.531,-25.731 0.531,-25.731 0.531,-25.731 0.266,-7.693 0,0" /></g><g
           transform="translate(276.2002,232.3418)"
           id="g648"><path
             id="path650"
             style="fill:none;stroke:#233239;stroke-width:1;stroke-linecap:round;stroke-linejoin:round;stroke-miterlimit:10;stroke-dasharray:none;stroke-opacity:1"
             d="M 0,0 C 0,0 1.592,6.101 5.306,4.774 9.02,3.448 11.142,-6.102 8.754,-12.468 6.366,-18.834 0.531,-25.731 0.531,-25.731 0.531,-25.731 0.266,-7.693 0,0 Z" /></g><g
           transform="translate(250.4697,275.0498)"
           id="g652"><path
             id="path654"
             style="fill:#ffffff;fill-opacity:1;fill-rule:nonzero;stroke:none"
             d="m 0,0 c 0,0 -7.693,-8.754 -20.426,-11.142 -12.733,-2.387 -16.977,1.592 -23.609,-1.856 -6.631,-3.449 -9.019,-10.611 -8.754,-16.446 0.266,-5.836 1.061,-14.06 -3.448,-17.774 l -4.51,-3.714 c 0,0 -2.122,8.489 -6.101,9.816 -3.979,1.326 -11.141,-3.184 -10.61,-12.734 0.53,-9.549 7.958,-18.834 11.141,-20.16 3.183,-1.326 8.488,-1.856 8.488,-1.856 0,0 11.672,-16.182 21.222,-23.079 9.549,-6.897 27.588,-12.733 36.607,-8.223 9.019,4.51 22.812,15.65 25.996,26.526 3.184,10.876 -0.266,25.466 -0.266,31.568 0,6.1 -0.269,17.16 -0.269,17.16 0,0 -14.036,7.368 -18.246,12.982 C 1.864,-11.798 0,0 0,0" /></g><g
           transform="translate(250.4697,275.0498)"
           id="g656"><path
             id="path658"
             style="fill:none;stroke:#233239;stroke-width:1;stroke-linecap:round;stroke-linejoin:round;stroke-miterlimit:10;stroke-dasharray:none;stroke-opacity:1"
             d="m 0,0 c 0,0 -7.693,-8.754 -20.426,-11.142 -12.733,-2.387 -16.977,1.592 -23.609,-1.856 -6.631,-3.449 -9.019,-10.611 -8.754,-16.446 0.266,-5.836 1.061,-14.06 -3.448,-17.774 l -4.51,-3.714 c 0,0 -2.122,8.489 -6.101,9.816 -3.979,1.326 -11.141,-3.184 -10.61,-12.734 0.53,-9.549 7.958,-18.834 11.141,-20.16 3.183,-1.326 8.488,-1.856 8.488,-1.856 0,0 11.672,-16.182 21.222,-23.079 9.549,-6.897 27.588,-12.733 36.607,-8.223 9.019,4.51 22.812,15.65 25.996,26.526 3.184,10.876 -0.266,25.466 -0.266,31.568 0,6.1 -0.269,17.16 -0.269,17.16 0,0 -14.036,7.368 -18.246,12.982 C 1.864,-11.798 0,0 0,0 Z" /></g><g
           transform="translate(240.6548,241.626)"
           id="g660"><path
             id="path662"
             style="fill:none;stroke:#233239;stroke-width:1;stroke-linecap:round;stroke-linejoin:round;stroke-miterlimit:10;stroke-dasharray:none;stroke-opacity:1"
             d="m 0,0 c 0,0 -1.061,-10.876 0,-15.386 1.061,-4.51 8.223,-11.406 6.897,-15.385 -1.327,-3.979 -6.101,-5.571 -9.55,-4.775 l -3.448,0.796" /></g><g
           transform="translate(222.3511,199.4482)"
           id="g664"><path
             id="path666"
             style="fill:none;stroke:#233239;stroke-width:1;stroke-linecap:round;stroke-linejoin:round;stroke-miterlimit:10;stroke-dasharray:none;stroke-opacity:1"
             d="M 0,0 C 0,0 7.428,-7.162 18.304,-5.836 29.179,-4.51 32.097,1.592 32.097,1.592" /></g><g
           transform="translate(225.269,228.6279)"
           id="g668"><path
             id="path670"
             style="fill:none;stroke:#233239;stroke-width:1;stroke-linecap:round;stroke-linejoin:round;stroke-miterlimit:10;stroke-dasharray:none;stroke-opacity:1"
             d="M 0,0 C 0,0 -8.488,-7.162 -17.773,-1.062" /></g><g
           transform="translate(264.7939,232.6064)"
           id="g672"><path
             id="path674"
             style="fill:none;stroke:#233239;stroke-width:1;stroke-linecap:round;stroke-linejoin:round;stroke-miterlimit:10;stroke-dasharray:none;stroke-opacity:1"
             d="M 0,0 C 0,0 -8.488,-7.162 -17.773,-1.061" /></g><g
           transform="translate(203.7827,238.1777)"
           id="g676"><path
             id="path678"
             style="fill:#233239;fill-opacity:1;fill-rule:nonzero;stroke:none"
             d="M 0,0 C 0,0 2.652,5.836 9.019,8.223 15.385,10.61 22.547,9.284 23.078,7.958 23.608,6.632 22.017,6.366 16.977,5.836 11.937,5.305 3.448,3.979 0,0" /></g><g
           transform="translate(203.7827,238.1777)"
           id="g680"><path
             id="path682"
             style="fill:none;stroke:#233239;stroke-width:1;stroke-linecap:round;stroke-linejoin:round;stroke-miterlimit:10;stroke-dasharray:none;stroke-opacity:1"
             d="M 0,0 C 0,0 2.652,5.836 9.019,8.223 15.385,10.61 22.547,9.284 23.078,7.958 23.608,6.632 22.017,6.366 16.977,5.836 11.937,5.305 3.448,3.979 0,0 Z" /></g><g
           transform="translate(267.3496,243.7842)"
           id="g684"><path
             id="path686"
             style="fill:#233239;fill-opacity:1;fill-rule:nonzero;stroke:none"
             d="M 0,0 C 0,0 -3.881,5.103 -10.618,6.018 -17.356,6.934 -24.045,4.053 -24.269,2.642 -24.492,1.23 -22.881,1.325 -17.849,1.926 -12.816,2.525 -4.245,3.115 0,0" /></g><g
           transform="translate(267.3496,243.7842)"
           id="g688"><path
             id="path690"
             style="fill:none;stroke:#233239;stroke-width:1;stroke-linecap:round;stroke-linejoin:round;stroke-miterlimit:10;stroke-dasharray:none;stroke-opacity:1"
             d="M 0,0 C 0,0 -3.881,5.103 -10.618,6.018 -17.356,6.934 -24.045,4.053 -24.269,2.642 -24.492,1.23 -22.881,1.325 -17.849,1.926 -12.816,2.525 -4.245,3.115 0,0 Z" /></g><g
           transform="translate(146.2427,195.3379)"
           id="g692"><path
             id="path694"
             style="fill:#233239;fill-opacity:1;fill-rule:nonzero;stroke:#233239;stroke-width:1;stroke-linecap:round;stroke-linejoin:round;stroke-miterlimit:10;stroke-dasharray:none;stroke-opacity:1"
             d="m 0,0 c 0,0 3.175,-3.811 -1.587,-9.208 -4.763,-5.397 -23.179,-13.653 -24.449,-29.528 -1.27,-15.876 5.08,-26.354 13.971,-34.609 8.89,-8.256 14.288,-6.985 9.208,-15.241 -5.08,-8.255 -8.891,-28.258 1.587,-39.054 10.478,-10.795 30.481,-12.065 39.689,-10.795 9.207,1.27 17.145,7.938 16.193,13.971 -0.953,6.032 -12.383,8.255 -9.843,15.875 2.54,7.62 17.146,19.686 11.748,36.196 -5.398,16.511 -9.525,19.369 -7.303,28.894 2.223,9.525 4.763,12.065 2.54,19.368" /></g></g></g><g
       transform="translate(448.5732,26.6582)"
       id="g696"><path
         id="path698"
         style="fill:none;stroke:#233239;stroke-width:1;stroke-linecap:round;stroke-linejoin:round;stroke-miterlimit:10;stroke-dasharray:none;stroke-opacity:1"
         d="M 0,0 H 18.979" /></g><g
       transform="translate(30.7549,26.6582)"
       id="g700"><path
         id="path702"
         style="fill:none;stroke:#233239;stroke-width:1;stroke-linecap:round;stroke-linejoin:round;stroke-miterlimit:10;stroke-dasharray:none;stroke-opacity:1"
         d="M 0,0 H 412.437" /></g></g></svg>