<svg xmlns="http://www.w3.org/2000/svg" xmlns:xlink="http://www.w3.org/1999/xlink" width="300" zoomAndPan="magnify" viewBox="0 0 224.87999 248.999984" height="332" preserveAspectRatio="xMidYMid meet" version="1.0"><defs><clipPath id="4eee55de35"><path d="M 7 237 L 211 237 L 211 248.933594 L 7 248.933594 Z M 7 237 " clip-rule="nonzero"/></clipPath><clipPath id="67712ee345"><path d="M 202 177 L 224.128906 177 L 224.128906 199 L 202 199 Z M 202 177 " clip-rule="nonzero"/></clipPath><clipPath id="f9087d9708"><path d="M 69 0.0664062 L 85 0.0664062 L 85 16 L 69 16 Z M 69 0.0664062 " clip-rule="nonzero"/></clipPath></defs><path fill="#febeb8" d="M 166.347656 37.464844 C 165.730469 39.199219 165.21875 40.964844 164.808594 42.757812 C 163.578125 48.175781 163.300781 53.640625 163.980469 59.15625 C 164.207031 60.976562 164.535156 62.773438 164.972656 64.554688 C 165.023438 64.773438 165.078125 64.992188 165.136719 65.214844 C 165.167969 65.335938 165.355469 65.277344 165.324219 65.15625 C 164.863281 63.382812 164.507812 61.589844 164.257812 59.773438 C 164.011719 57.96875 163.867188 56.152344 163.832031 54.328125 C 163.792969 52.503906 163.859375 50.683594 164.03125 48.867188 C 164.203125 47.035156 164.480469 45.21875 164.863281 43.421875 C 165.246094 41.636719 165.730469 39.878906 166.316406 38.152344 C 166.386719 37.941406 166.460938 37.726562 166.539062 37.515625 C 166.582031 37.394531 166.390625 37.347656 166.347656 37.464844 Z M 166.347656 37.464844 " fill-opacity="1" fill-rule="nonzero"/><path fill="#febeb8" d="M 165.792969 37.6875 C 165.796875 36.757812 165.628906 35.28125 164.6875 33.957031 C 164.09375 33.121094 163.894531 32.203125 164.09375 31.195312 C 164.265625 30.339844 164.742188 29.625 165.933594 30.046875 C 166.492188 30.246094 166.945312 30.582031 167.296875 31.058594 C 167.648438 31.53125 167.839844 32.0625 167.867188 32.652344 C 167.957031 34.324219 167.886719 36.945312 166.726562 38.082031 C 166.550781 38.25 166.351562 38.289062 166.125 38.195312 C 165.902344 38.097656 165.789062 37.929688 165.792969 37.6875 Z M 165.792969 37.6875 " fill-opacity="1" fill-rule="nonzero"/><path fill="#febeb8" d="M 165.433594 42.140625 C 166.332031 41.917969 167.726562 41.390625 168.777344 40.152344 C 169.441406 39.371094 170.28125 38.953125 171.308594 38.898438 C 172.179688 38.855469 172.988281 39.140625 172.878906 40.398438 C 172.820312 40.988281 172.605469 41.507812 172.234375 41.96875 C 171.859375 42.425781 171.390625 42.742188 170.824219 42.914062 C 169.222656 43.410156 166.664062 43.988281 165.277344 43.140625 C 165.070312 43.015625 164.984375 42.832031 165.023438 42.589844 C 165.058594 42.351562 165.195312 42.199219 165.433594 42.140625 Z M 165.433594 42.140625 " fill-opacity="1" fill-rule="nonzero"/><path fill="#febeb8" d="M 164.523438 41.976562 C 163.632812 41.722656 162.261719 41.140625 161.253906 39.863281 C 160.621094 39.058594 159.796875 38.605469 158.777344 38.511719 C 157.90625 38.4375 157.085938 38.691406 157.152344 39.949219 C 157.183594 40.539062 157.378906 41.070312 157.734375 41.542969 C 158.089844 42.015625 158.546875 42.347656 159.105469 42.542969 C 160.683594 43.101562 163.21875 43.773438 164.636719 42.984375 C 164.851562 42.863281 164.945312 42.683594 164.917969 42.441406 C 164.886719 42.199219 164.757812 42.046875 164.523438 41.976562 Z M 164.523438 41.976562 " fill-opacity="1" fill-rule="nonzero"/><path fill="#febeb8" d="M 164.550781 47.171875 C 165.445312 46.933594 166.832031 46.382812 167.863281 45.128906 C 168.515625 44.335938 169.351562 43.90625 170.375 43.835938 C 171.25 43.777344 172.0625 44.050781 171.96875 45.308594 C 171.921875 45.898438 171.714844 46.425781 171.347656 46.886719 C 170.980469 47.351562 170.519531 47.675781 169.957031 47.855469 C 168.363281 48.378906 165.8125 48.996094 164.414062 48.171875 C 164.203125 48.050781 164.113281 47.867188 164.148438 47.625 C 164.179688 47.382812 164.316406 47.234375 164.550781 47.171875 Z M 164.550781 47.171875 " fill-opacity="1" fill-rule="nonzero"/><path fill="#febeb8" d="M 163.625 47.0625 C 162.730469 46.820312 161.351562 46.261719 160.324219 45 C 159.679688 44.203125 158.847656 43.765625 157.824219 43.6875 C 156.953125 43.625 156.136719 43.890625 156.222656 45.152344 C 156.265625 45.742188 156.46875 46.269531 156.832031 46.734375 C 157.195312 47.203125 157.65625 47.527344 158.21875 47.714844 C 159.804688 48.246094 162.351562 48.878906 163.757812 48.066406 C 163.96875 47.945312 164.058594 47.765625 164.027344 47.523438 C 163.996094 47.277344 163.863281 47.125 163.625 47.0625 Z M 163.625 47.0625 " fill-opacity="1" fill-rule="nonzero"/><path fill="#febeb8" d="M 164.171875 52.429688 C 165.046875 52.121094 166.382812 51.460938 167.3125 50.128906 C 167.898438 49.289062 168.695312 48.789062 169.710938 48.636719 C 170.574219 48.511719 171.40625 48.71875 171.417969 49.980469 C 171.417969 50.570312 171.253906 51.113281 170.925781 51.605469 C 170.597656 52.097656 170.160156 52.457031 169.617188 52.683594 C 168.070312 53.332031 165.578125 54.152344 164.117188 53.445312 C 163.894531 53.339844 163.792969 53.164062 163.804688 52.917969 C 163.820312 52.675781 163.941406 52.511719 164.171875 52.429688 Z M 164.171875 52.429688 " fill-opacity="1" fill-rule="nonzero"/><path fill="#febeb8" d="M 163.171875 52.339844 C 162.261719 52.171875 160.839844 51.722656 159.714844 50.550781 C 159.007812 49.808594 158.144531 49.441406 157.117188 49.445312 C 156.242188 49.453125 155.453125 49.785156 155.640625 51.03125 C 155.730469 51.617188 155.972656 52.125 156.375 52.5625 C 156.773438 52.996094 157.261719 53.285156 157.835938 53.425781 C 159.460938 53.828125 162.046875 54.253906 163.382812 53.332031 C 163.585938 53.191406 163.660156 53.003906 163.609375 52.765625 C 163.558594 52.527344 163.414062 52.386719 163.171875 52.339844 Z M 163.171875 52.339844 " fill-opacity="1" fill-rule="nonzero"/><path fill="#febeb8" d="M 180.441406 54.722656 C 179.273438 55.175781 178.132812 55.691406 177.027344 56.277344 C 173.683594 58.042969 170.742188 60.324219 168.195312 63.117188 C 167.355469 64.039062 166.574219 65.003906 165.847656 66.019531 C 165.757812 66.144531 165.671875 66.269531 165.582031 66.394531 C 165.53125 66.464844 165.644531 66.535156 165.695312 66.46875 C 166.40625 65.441406 167.171875 64.464844 168 63.53125 C 168.824219 62.601562 169.699219 61.722656 170.621094 60.894531 C 172.484375 59.226562 174.515625 57.792969 176.710938 56.597656 C 177.800781 56.003906 178.917969 55.472656 180.070312 55.011719 C 180.214844 54.953125 180.355469 54.898438 180.5 54.84375 C 180.578125 54.8125 180.519531 54.695312 180.441406 54.722656 Z M 180.441406 54.722656 " fill-opacity="1" fill-rule="nonzero"/><path fill="#febeb8" d="M 180.082031 54.535156 C 180.5625 54.128906 181.25 53.386719 181.519531 52.3125 C 181.683594 51.636719 182.070312 51.125 182.679688 50.785156 C 183.199219 50.492188 183.777344 50.421875 184.089844 51.222656 C 184.230469 51.597656 184.257812 51.980469 184.171875 52.375 C 184.082031 52.765625 183.890625 53.097656 183.597656 53.375 C 182.777344 54.164062 181.390625 55.285156 180.289062 55.191406 C 180.125 55.175781 180.015625 55.089844 179.96875 54.933594 C 179.917969 54.773438 179.957031 54.640625 180.082031 54.535156 Z M 180.082031 54.535156 " fill-opacity="1" fill-rule="nonzero"/><path fill="#febeb8" d="M 177.621094 56.324219 C 178.136719 56.691406 179.027344 57.175781 180.132812 57.167969 C 180.828125 57.164062 181.417969 57.414062 181.898438 57.917969 C 182.308594 58.347656 182.519531 58.890625 181.820312 59.390625 C 181.492188 59.621094 181.128906 59.742188 180.726562 59.753906 C 180.324219 59.765625 179.953125 59.660156 179.613281 59.445312 C 178.648438 58.84375 177.214844 57.777344 177.035156 56.6875 C 177.011719 56.523438 177.066406 56.398438 177.207031 56.3125 C 177.347656 56.222656 177.488281 56.230469 177.621094 56.324219 Z M 177.621094 56.324219 " fill-opacity="1" fill-rule="nonzero"/><path fill="#febeb8" d="M 177.296875 55.824219 C 177.035156 55.25 176.726562 54.285156 176.941406 53.203125 C 177.078125 52.519531 176.941406 51.894531 176.539062 51.324219 C 176.191406 50.839844 175.699219 50.53125 175.078125 51.121094 C 174.789062 51.402344 174.597656 51.738281 174.511719 52.128906 C 174.425781 52.523438 174.457031 52.90625 174.605469 53.277344 C 175.015625 54.34375 175.792969 55.945312 176.828125 56.328125 C 176.984375 56.382812 177.117188 56.347656 177.230469 56.230469 C 177.339844 56.109375 177.363281 55.972656 177.296875 55.824219 Z M 177.296875 55.824219 " fill-opacity="1" fill-rule="nonzero"/><path fill="#febeb8" d="M 174.566406 58.097656 C 175.085938 58.453125 175.984375 58.925781 177.089844 58.902344 C 177.785156 58.886719 178.378906 59.125 178.871094 59.621094 C 179.285156 60.046875 179.503906 60.582031 178.8125 61.09375 C 178.488281 61.332031 178.125 61.457031 177.722656 61.476562 C 177.324219 61.492188 176.949219 61.394531 176.605469 61.1875 C 175.632812 60.597656 174.183594 59.554688 173.988281 58.46875 C 173.957031 58.308594 174.011719 58.179688 174.152344 58.089844 C 174.292969 58 174.429688 58.003906 174.566406 58.097656 Z M 174.566406 58.097656 " fill-opacity="1" fill-rule="nonzero"/><path fill="#febeb8" d="M 174.28125 57.574219 C 174.011719 57.003906 173.6875 56.042969 173.882812 54.957031 C 174.007812 54.269531 173.863281 53.648438 173.453125 53.085938 C 173.097656 52.609375 172.597656 52.308594 171.988281 52.910156 C 171.703125 53.191406 171.519531 53.53125 171.441406 53.925781 C 171.359375 54.320312 171.394531 54.703125 171.550781 55.074219 C 171.976562 56.128906 172.78125 57.722656 173.820312 58.085938 C 173.976562 58.140625 174.113281 58.105469 174.222656 57.980469 C 174.332031 57.859375 174.351562 57.722656 174.28125 57.574219 Z M 174.28125 57.574219 " fill-opacity="1" fill-rule="nonzero"/><path fill="#febeb8" d="M 171.75 60.234375 C 172.296875 60.550781 173.230469 60.945312 174.328125 60.835938 C 175.023438 60.761719 175.632812 60.953125 176.164062 61.410156 C 176.613281 61.796875 176.871094 62.320312 176.226562 62.882812 C 175.921875 63.144531 175.570312 63.300781 175.171875 63.347656 C 174.773438 63.398438 174.394531 63.332031 174.035156 63.152344 C 173.015625 62.644531 171.488281 61.722656 171.203125 60.652344 C 171.160156 60.492188 171.207031 60.363281 171.335938 60.261719 C 171.46875 60.160156 171.605469 60.152344 171.75 60.234375 Z M 171.75 60.234375 " fill-opacity="1" fill-rule="nonzero"/><path fill="#febeb8" d="M 171.417969 59.742188 C 171.105469 59.195312 170.703125 58.265625 170.8125 57.167969 C 170.882812 56.472656 170.6875 55.863281 170.230469 55.335938 C 169.839844 54.890625 169.320312 54.628906 168.757812 55.277344 C 168.496094 55.582031 168.339844 55.933594 168.292969 56.335938 C 168.246094 56.734375 168.3125 57.113281 168.492188 57.46875 C 169.007812 58.488281 169.933594 60.007812 171 60.289062 C 171.164062 60.332031 171.292969 60.285156 171.394531 60.15625 C 171.496094 60.023438 171.503906 59.886719 171.417969 59.742188 Z M 171.417969 59.742188 " fill-opacity="1" fill-rule="nonzero"/><path fill="#eef2f4" d="M 24.628906 170.777344 C 29.585938 161.261719 39.59375 154.703125 42.921875 144.507812 C 45.347656 137.066406 43.757812 128.886719 40.980469 121.574219 C 38.207031 114.257812 34.28125 107.398438 31.84375 99.960938 C 24.253906 76.789062 33.390625 49.175781 53.308594 35.089844 C 73.226562 21.003906 102.324219 21.578125 121.667969 36.441406 C 131.945312 44.335938 139.746094 55.804688 151.699219 60.816406 C 167.078125 67.265625 186.6875 61.804688 199.859375 72.027344 C 206.570312 77.234375 210.0625 85.511719 212.664062 93.589844 C 215.09375 101.125 216.992188 109.304688 214.667969 116.871094 C 210.347656 130.933594 193.519531 137.429688 186.875 150.554688 C 179.664062 164.785156 186.308594 182.554688 181.1875 197.664062 C 176.21875 212.332031 160.8125 221.457031 145.457031 223.535156 C 119.820312 227.007812 96.785156 213.28125 71.683594 213.300781 C 54.683594 213.3125 38.417969 218.308594 26.660156 201.179688 C 20.640625 192.414062 19.699219 180.242188 24.628906 170.777344 Z M 24.628906 170.777344 " fill-opacity="1" fill-rule="nonzero"/><g clip-path="url(#4eee55de35)"><path fill="#d4cfcb" d="M 210.796875 243.199219 C 210.796875 243.292969 210.757812 243.386719 210.675781 243.480469 C 210.59375 243.574219 210.46875 243.667969 210.304688 243.761719 C 210.144531 243.855469 209.9375 243.945312 209.695312 244.039062 C 209.449219 244.132812 209.164062 244.222656 208.839844 244.316406 C 208.515625 244.40625 208.152344 244.5 207.746094 244.589844 C 207.339844 244.679688 206.898438 244.769531 206.414062 244.859375 C 205.929688 244.949219 205.40625 245.039062 204.84375 245.125 C 204.285156 245.214844 203.683594 245.300781 203.046875 245.386719 C 202.410156 245.472656 201.734375 245.558594 201.023438 245.644531 C 200.308594 245.730469 199.5625 245.8125 198.773438 245.894531 C 197.988281 245.976562 197.167969 246.058594 196.3125 246.140625 C 195.457031 246.21875 194.566406 246.296875 193.640625 246.375 C 192.714844 246.453125 191.753906 246.53125 190.761719 246.605469 C 189.769531 246.679688 188.746094 246.753906 187.6875 246.828125 C 186.628906 246.898438 185.542969 246.96875 184.421875 247.039062 C 183.304688 247.109375 182.15625 247.175781 180.976562 247.242188 C 179.800781 247.308594 178.59375 247.371094 177.359375 247.4375 C 176.125 247.5 174.863281 247.558594 173.574219 247.617188 C 172.285156 247.679688 170.972656 247.734375 169.636719 247.792969 C 168.296875 247.847656 166.933594 247.902344 165.550781 247.953125 C 164.164062 248.003906 162.757812 248.054688 161.328125 248.101562 C 159.898438 248.152344 158.449219 248.199219 156.980469 248.242188 C 155.511719 248.285156 154.023438 248.328125 152.515625 248.367188 C 151.011719 248.40625 149.488281 248.445312 147.949219 248.480469 C 146.410156 248.515625 144.855469 248.550781 143.285156 248.582031 C 141.71875 248.613281 140.136719 248.644531 138.542969 248.671875 C 136.945312 248.699219 135.34375 248.722656 133.726562 248.746094 C 132.109375 248.769531 130.484375 248.789062 128.851562 248.804688 C 127.214844 248.824219 125.574219 248.839844 123.925781 248.855469 C 122.277344 248.867188 120.625 248.878906 118.96875 248.890625 C 117.308594 248.898438 115.648438 248.90625 113.984375 248.910156 C 112.320312 248.914062 110.65625 248.917969 108.988281 248.917969 C 107.320312 248.917969 105.65625 248.914062 103.992188 248.910156 C 102.328125 248.90625 100.667969 248.898438 99.007812 248.890625 C 97.351562 248.878906 95.699219 248.867188 94.050781 248.855469 C 92.402344 248.839844 90.761719 248.824219 89.125 248.804688 C 87.492188 248.789062 85.867188 248.769531 84.25 248.746094 C 82.632812 248.722656 81.027344 248.699219 79.433594 248.671875 C 77.839844 248.644531 76.257812 248.613281 74.691406 248.582031 C 73.121094 248.550781 71.566406 248.515625 70.027344 248.480469 C 68.488281 248.445312 66.964844 248.40625 65.460938 248.367188 C 63.953125 248.328125 62.464844 248.285156 60.996094 248.242188 C 59.527344 248.199219 58.078125 248.152344 56.648438 248.101562 C 55.21875 248.054688 53.8125 248.003906 52.425781 247.953125 C 51.042969 247.902344 49.679688 247.847656 48.339844 247.792969 C 47.003906 247.734375 45.691406 247.679688 44.402344 247.617188 C 43.113281 247.558594 41.851562 247.5 40.617188 247.4375 C 39.382812 247.371094 38.175781 247.308594 37 247.242188 C 35.820312 247.175781 34.671875 247.109375 33.554688 247.039062 C 32.433594 246.96875 31.347656 246.898438 30.289062 246.828125 C 29.230469 246.753906 28.207031 246.679688 27.214844 246.605469 C 26.222656 246.53125 25.261719 246.453125 24.335938 246.375 C 23.410156 246.296875 22.519531 246.21875 21.664062 246.140625 C 20.808594 246.058594 19.988281 245.976562 19.199219 245.894531 C 18.414062 245.8125 17.667969 245.730469 16.953125 245.644531 C 16.242188 245.558594 15.566406 245.472656 14.929688 245.386719 C 14.292969 245.300781 13.691406 245.214844 13.132812 245.125 C 12.570312 245.039062 12.046875 244.949219 11.5625 244.859375 C 11.078125 244.769531 10.636719 244.679688 10.230469 244.589844 C 9.824219 244.5 9.460938 244.40625 9.136719 244.316406 C 8.8125 244.222656 8.527344 244.132812 8.28125 244.039062 C 8.035156 243.945312 7.832031 243.855469 7.667969 243.761719 C 7.507812 243.667969 7.382812 243.574219 7.300781 243.480469 C 7.21875 243.386719 7.179688 243.292969 7.179688 243.199219 C 7.179688 243.109375 7.21875 243.015625 7.300781 242.921875 C 7.382812 242.828125 7.507812 242.734375 7.667969 242.640625 C 7.832031 242.546875 8.035156 242.453125 8.28125 242.363281 C 8.527344 242.269531 8.8125 242.175781 9.136719 242.085938 C 9.460938 241.996094 9.824219 241.902344 10.230469 241.8125 C 10.636719 241.722656 11.078125 241.632812 11.5625 241.542969 C 12.046875 241.453125 12.570312 241.363281 13.132812 241.277344 C 13.691406 241.1875 14.292969 241.101562 14.929688 241.015625 C 15.566406 240.925781 16.242188 240.84375 16.953125 240.757812 C 17.667969 240.671875 18.414062 240.589844 19.199219 240.507812 C 19.988281 240.425781 20.808594 240.34375 21.664062 240.261719 C 22.519531 240.183594 23.410156 240.101562 24.335938 240.027344 C 25.261719 239.949219 26.222656 239.871094 27.214844 239.796875 C 28.207031 239.722656 29.230469 239.648438 30.289062 239.574219 C 31.347656 239.503906 32.433594 239.433594 33.554688 239.363281 C 34.671875 239.292969 35.820312 239.226562 37 239.160156 C 38.175781 239.09375 39.382812 239.027344 40.617188 238.964844 C 41.851562 238.902344 43.113281 238.84375 44.402344 238.78125 C 45.691406 238.722656 47.003906 238.667969 48.339844 238.609375 C 49.679688 238.554688 51.042969 238.5 52.425781 238.449219 C 53.8125 238.398438 55.21875 238.347656 56.648438 238.296875 C 58.078125 238.25 59.527344 238.203125 60.996094 238.160156 C 62.464844 238.117188 63.953125 238.074219 65.460938 238.035156 C 66.964844 237.996094 68.488281 237.957031 70.027344 237.921875 C 71.566406 237.886719 73.121094 237.851562 74.691406 237.820312 C 76.257812 237.789062 77.839844 237.757812 79.433594 237.730469 C 81.027344 237.703125 82.632812 237.679688 84.25 237.65625 C 85.867188 237.632812 87.492188 237.613281 89.125 237.59375 C 90.761719 237.578125 92.402344 237.5625 94.050781 237.546875 C 95.699219 237.535156 97.351562 237.523438 99.007812 237.511719 C 100.667969 237.503906 102.328125 237.496094 103.992188 237.492188 C 105.65625 237.488281 107.320312 237.484375 108.988281 237.484375 C 110.65625 237.484375 112.320312 237.488281 113.984375 237.492188 C 115.648438 237.496094 117.308594 237.503906 118.96875 237.511719 C 120.625 237.523438 122.277344 237.535156 123.925781 237.546875 C 125.574219 237.5625 127.214844 237.578125 128.851562 237.59375 C 130.484375 237.613281 132.109375 237.632812 133.726562 237.65625 C 135.34375 237.679688 136.945312 237.703125 138.542969 237.730469 C 140.136719 237.757812 141.71875 237.789062 143.285156 237.820312 C 144.855469 237.851562 146.410156 237.886719 147.949219 237.921875 C 149.488281 237.957031 151.011719 237.996094 152.515625 238.035156 C 154.023438 238.074219 155.511719 238.117188 156.980469 238.160156 C 158.449219 238.203125 159.898438 238.25 161.328125 238.296875 C 162.757812 238.347656 164.164062 238.398438 165.550781 238.449219 C 166.933594 238.5 168.296875 238.554688 169.636719 238.609375 C 170.972656 238.667969 172.285156 238.722656 173.574219 238.78125 C 174.863281 238.84375 176.125 238.902344 177.359375 238.964844 C 178.59375 239.027344 179.800781 239.09375 180.976562 239.160156 C 182.15625 239.226562 183.304688 239.292969 184.421875 239.363281 C 185.542969 239.433594 186.628906 239.503906 187.6875 239.574219 C 188.746094 239.648438 189.769531 239.722656 190.761719 239.796875 C 191.753906 239.871094 192.714844 239.949219 193.640625 240.027344 C 194.566406 240.101562 195.457031 240.183594 196.3125 240.261719 C 197.167969 240.34375 197.988281 240.425781 198.773438 240.507812 C 199.5625 240.589844 200.308594 240.671875 201.023438 240.757812 C 201.734375 240.84375 202.410156 240.925781 203.046875 241.015625 C 203.683594 241.101562 204.285156 241.1875 204.84375 241.277344 C 205.40625 241.363281 205.929688 241.453125 206.414062 241.542969 C 206.898438 241.632812 207.339844 241.722656 207.746094 241.8125 C 208.152344 241.902344 208.515625 241.996094 208.839844 242.085938 C 209.164062 242.175781 209.449219 242.269531 209.695312 242.363281 C 209.9375 242.453125 210.144531 242.546875 210.304688 242.640625 C 210.46875 242.734375 210.59375 242.828125 210.675781 242.921875 C 210.757812 243.015625 210.796875 243.109375 210.796875 243.199219 Z M 210.796875 243.199219 " fill-opacity="1" fill-rule="nonzero"/></g><path fill="#c0c3c4" d="M 5.148438 127.335938 C 4.832031 127.335938 4.523438 127.367188 4.214844 127.429688 C 3.910156 127.488281 3.609375 127.578125 3.320312 127.699219 C 3.03125 127.820312 2.753906 127.964844 2.496094 128.140625 C 2.234375 128.3125 1.992188 128.511719 1.773438 128.734375 C 1.550781 128.953125 1.351562 129.195312 1.179688 129.457031 C 1.003906 129.714844 0.859375 129.992188 0.738281 130.28125 C 0.617188 130.570312 0.527344 130.867188 0.464844 131.175781 C 0.40625 131.480469 0.375 131.792969 0.375 132.105469 C 0.375 132.417969 0.40625 132.730469 0.464844 133.035156 C 0.527344 133.34375 0.617188 133.640625 0.738281 133.929688 C 0.859375 134.21875 1.003906 134.496094 1.179688 134.753906 C 1.351562 135.015625 1.550781 135.257812 1.773438 135.476562 C 1.992188 135.699219 2.234375 135.898438 2.496094 136.070312 C 2.757812 136.246094 3.03125 136.390625 3.320312 136.511719 C 3.609375 136.632812 3.910156 136.722656 4.214844 136.78125 C 4.523438 136.84375 4.832031 136.875 5.148438 136.875 C 5.460938 136.875 5.769531 136.84375 6.078125 136.78125 C 6.386719 136.722656 6.683594 136.628906 6.972656 136.511719 C 7.261719 136.390625 7.539062 136.242188 7.796875 136.070312 C 8.058594 135.894531 8.300781 135.699219 8.519531 135.476562 C 8.742188 135.253906 8.941406 135.015625 9.113281 134.753906 C 9.289062 134.492188 9.4375 134.21875 9.554688 133.929688 C 9.675781 133.640625 9.765625 133.34375 9.828125 133.035156 C 9.886719 132.726562 9.917969 132.417969 9.917969 132.105469 C 9.917969 131.792969 9.886719 131.480469 9.828125 131.175781 C 9.765625 130.867188 9.675781 130.570312 9.554688 130.28125 C 9.433594 129.992188 9.289062 129.714844 9.113281 129.457031 C 8.941406 129.195312 8.742188 128.953125 8.519531 128.734375 C 8.300781 128.511719 8.058594 128.3125 7.796875 128.140625 C 7.539062 127.964844 7.261719 127.820312 6.972656 127.699219 C 6.683594 127.578125 6.386719 127.488281 6.078125 127.429688 C 5.769531 127.367188 5.460938 127.335938 5.148438 127.335938 Z M 5.148438 136.574219 C 4.851562 136.574219 4.5625 136.546875 4.273438 136.488281 C 3.984375 136.433594 3.707031 136.347656 3.433594 136.234375 C 3.164062 136.121094 2.90625 135.984375 2.660156 135.820312 C 2.417969 135.660156 2.191406 135.472656 1.984375 135.265625 C 1.773438 135.058594 1.589844 134.832031 1.425781 134.589844 C 1.261719 134.34375 1.125 134.085938 1.011719 133.816406 C 0.902344 133.542969 0.816406 133.265625 0.757812 132.976562 C 0.699219 132.6875 0.671875 132.398438 0.671875 132.105469 C 0.671875 131.8125 0.699219 131.519531 0.757812 131.230469 C 0.816406 130.945312 0.902344 130.664062 1.011719 130.394531 C 1.125 130.121094 1.261719 129.863281 1.425781 129.621094 C 1.589844 129.375 1.773438 129.152344 1.984375 128.941406 C 2.191406 128.734375 2.417969 128.550781 2.660156 128.386719 C 2.90625 128.222656 3.164062 128.085938 3.433594 127.972656 C 3.707031 127.863281 3.984375 127.777344 4.273438 127.71875 C 4.5625 127.664062 4.851562 127.632812 5.148438 127.632812 C 5.441406 127.632812 5.730469 127.664062 6.019531 127.71875 C 6.308594 127.777344 6.585938 127.863281 6.859375 127.972656 C 7.128906 128.085938 7.386719 128.222656 7.632812 128.386719 C 7.875 128.550781 8.101562 128.734375 8.308594 128.941406 C 8.519531 129.152344 8.703125 129.375 8.867188 129.621094 C 9.03125 129.863281 9.167969 130.121094 9.28125 130.394531 C 9.390625 130.664062 9.476562 130.945312 9.535156 131.230469 C 9.59375 131.519531 9.621094 131.8125 9.621094 132.105469 C 9.621094 132.398438 9.59375 132.6875 9.535156 132.976562 C 9.476562 133.265625 9.390625 133.542969 9.28125 133.816406 C 9.167969 134.085938 9.03125 134.34375 8.867188 134.589844 C 8.703125 134.832031 8.519531 135.058594 8.308594 135.265625 C 8.101562 135.472656 7.875 135.660156 7.632812 135.820312 C 7.386719 135.984375 7.128906 136.125 6.859375 136.234375 C 6.585938 136.347656 6.308594 136.433594 6.019531 136.488281 C 5.730469 136.546875 5.441406 136.574219 5.148438 136.574219 Z M 5.148438 136.574219 " fill-opacity="1" fill-rule="nonzero"/><g clip-path="url(#67712ee345)"><path fill="#c0c3c4" d="M 213.523438 177.671875 C 207.667969 177.671875 202.917969 182.417969 202.917969 188.269531 C 202.917969 194.125 207.667969 198.867188 213.523438 198.867188 C 219.378906 198.867188 224.128906 194.121094 224.128906 188.269531 C 224.128906 182.417969 219.378906 177.671875 213.523438 177.671875 Z M 213.523438 198.203125 C 208.03125 198.203125 203.582031 193.757812 203.582031 188.269531 C 203.582031 182.785156 208.03125 178.335938 213.523438 178.335938 C 219.015625 178.335938 223.464844 182.785156 223.464844 188.269531 C 223.464844 193.757812 219.015625 198.203125 213.523438 198.203125 Z M 213.523438 198.203125 " fill-opacity="1" fill-rule="nonzero"/></g><g clip-path="url(#f9087d9708)"><path fill="#c0c3c4" d="M 76.726562 0.167969 C 76.242188 0.167969 75.757812 0.21875 75.28125 0.3125 C 74.800781 0.40625 74.335938 0.546875 73.886719 0.734375 C 73.4375 0.921875 73.007812 1.148438 72.605469 1.417969 C 72.199219 1.691406 71.824219 1.996094 71.480469 2.34375 C 71.132812 2.6875 70.828125 3.0625 70.554688 3.464844 C 70.285156 3.871094 70.054688 4.300781 69.871094 4.75 C 69.683594 5.199219 69.542969 5.664062 69.445312 6.140625 C 69.351562 6.617188 69.304688 7.101562 69.304688 7.589844 C 69.304688 8.074219 69.351562 8.558594 69.445312 9.035156 C 69.542969 9.511719 69.683594 9.976562 69.871094 10.425781 C 70.054688 10.878906 70.285156 11.304688 70.554688 11.710938 C 70.824219 12.113281 71.132812 12.488281 71.476562 12.832031 C 71.824219 13.179688 72.199219 13.484375 72.601562 13.757812 C 73.007812 14.027344 73.4375 14.253906 73.886719 14.441406 C 74.335938 14.628906 74.800781 14.769531 75.28125 14.863281 C 75.757812 14.957031 76.242188 15.007812 76.726562 15.007812 C 77.214844 15.007812 77.699219 14.957031 78.175781 14.863281 C 78.652344 14.769531 79.117188 14.628906 79.570312 14.441406 C 80.019531 14.253906 80.445312 14.027344 80.851562 13.757812 C 81.257812 13.484375 81.632812 13.179688 81.976562 12.832031 C 82.320312 12.488281 82.628906 12.113281 82.898438 11.710938 C 83.171875 11.304688 83.398438 10.875 83.585938 10.425781 C 83.773438 9.976562 83.914062 9.511719 84.007812 9.035156 C 84.101562 8.558594 84.152344 8.074219 84.152344 7.585938 C 84.152344 7.101562 84.101562 6.617188 84.007812 6.140625 C 83.914062 5.664062 83.773438 5.199219 83.585938 4.75 C 83.398438 4.300781 83.171875 3.871094 82.898438 3.464844 C 82.628906 3.0625 82.320312 2.6875 81.976562 2.34375 C 81.632812 1.996094 81.257812 1.691406 80.851562 1.421875 C 80.445312 1.148438 80.019531 0.921875 79.570312 0.734375 C 79.117188 0.546875 78.652344 0.40625 78.175781 0.3125 C 77.699219 0.21875 77.214844 0.167969 76.726562 0.167969 Z M 76.726562 14.542969 C 76.269531 14.542969 75.820312 14.496094 75.371094 14.410156 C 74.921875 14.320312 74.488281 14.1875 74.066406 14.011719 C 73.640625 13.839844 73.242188 13.625 72.859375 13.371094 C 72.480469 13.117188 72.128906 12.828125 71.804688 12.507812 C 71.484375 12.183594 71.195312 11.832031 70.941406 11.453125 C 70.6875 11.074219 70.472656 10.671875 70.296875 10.25 C 70.121094 9.828125 69.992188 9.394531 69.902344 8.945312 C 69.8125 8.496094 69.765625 8.046875 69.765625 7.589844 C 69.765625 7.132812 69.8125 6.679688 69.902344 6.230469 C 69.988281 5.785156 70.121094 5.347656 70.296875 4.925781 C 70.472656 4.503906 70.6875 4.105469 70.941406 3.726562 C 71.195312 3.34375 71.480469 2.992188 71.804688 2.671875 C 72.128906 2.347656 72.480469 2.058594 72.859375 1.804688 C 73.238281 1.550781 73.640625 1.335938 74.0625 1.164062 C 74.484375 0.988281 74.921875 0.855469 75.367188 0.765625 C 75.816406 0.679688 76.269531 0.632812 76.726562 0.632812 C 77.183594 0.632812 77.636719 0.675781 78.082031 0.765625 C 78.53125 0.855469 78.96875 0.988281 79.390625 1.164062 C 79.8125 1.335938 80.210938 1.550781 80.59375 1.804688 C 80.972656 2.058594 81.324219 2.347656 81.648438 2.667969 C 81.96875 2.992188 82.257812 3.34375 82.511719 3.722656 C 82.765625 4.101562 82.980469 4.503906 83.15625 4.925781 C 83.332031 5.347656 83.460938 5.78125 83.550781 6.230469 C 83.640625 6.679688 83.6875 7.132812 83.6875 7.585938 C 83.6875 8.042969 83.640625 8.496094 83.550781 8.945312 C 83.464844 9.390625 83.332031 9.828125 83.15625 10.25 C 82.980469 10.671875 82.765625 11.070312 82.511719 11.449219 C 82.257812 11.832031 81.972656 12.183594 81.648438 12.503906 C 81.324219 12.828125 80.972656 13.117188 80.59375 13.371094 C 80.214844 13.625 79.8125 13.835938 79.390625 14.011719 C 78.96875 14.1875 78.535156 14.320312 78.085938 14.410156 C 77.636719 14.496094 77.183594 14.542969 76.726562 14.542969 Z M 76.726562 14.542969 " fill-opacity="1" fill-rule="nonzero"/></g><path fill="#fb9fa4" d="M 150.15625 117.273438 C 150.15625 117.582031 150.136719 117.886719 150.101562 118.191406 C 150.066406 118.496094 150.015625 118.796875 149.945312 119.097656 C 149.875 119.394531 149.789062 119.691406 149.683594 119.980469 C 149.582031 120.265625 149.460938 120.550781 149.328125 120.824219 C 149.191406 121.101562 149.039062 121.367188 148.871094 121.625 C 148.707031 121.882812 148.527344 122.128906 148.332031 122.367188 C 148.136719 122.605469 147.929688 122.828125 147.707031 123.042969 C 147.488281 123.257812 147.253906 123.457031 147.011719 123.644531 C 146.769531 123.828125 146.515625 124 146.25 124.160156 C 145.988281 124.316406 145.714844 124.460938 145.4375 124.585938 C 145.15625 124.710938 144.871094 124.824219 144.578125 124.917969 C 144.285156 125.011719 143.988281 125.085938 143.6875 125.148438 C 143.386719 125.207031 143.082031 125.25 142.777344 125.273438 C 142.472656 125.300781 142.164062 125.308594 141.859375 125.296875 C 141.550781 125.289062 141.246094 125.261719 140.941406 125.214844 C 140.636719 125.171875 140.339844 125.109375 140.042969 125.027344 C 140.15625 125.332031 140.253906 125.640625 140.332031 125.957031 C 140.410156 126.269531 140.46875 126.585938 140.507812 126.910156 C 140.546875 127.230469 140.566406 127.554688 140.566406 127.878906 C 140.566406 128.203125 140.550781 128.523438 140.511719 128.847656 C 140.472656 129.167969 140.414062 129.488281 140.335938 129.800781 C 140.257812 130.117188 140.164062 130.425781 140.046875 130.726562 C 139.933594 131.03125 139.800781 131.328125 139.652344 131.613281 C 139.5 131.902344 139.332031 132.175781 139.148438 132.445312 C 138.964844 132.710938 138.765625 132.964844 138.550781 133.207031 C 138.335938 133.453125 138.109375 133.679688 137.867188 133.894531 C 137.621094 134.109375 137.367188 134.308594 137.101562 134.496094 C 136.835938 134.679688 136.558594 134.847656 136.269531 134.996094 C 135.984375 135.148438 135.6875 135.28125 135.386719 135.394531 C 135.082031 135.511719 134.773438 135.609375 134.457031 135.683594 C 134.144531 135.761719 133.824219 135.820312 133.503906 135.859375 C 133.183594 135.898438 132.859375 135.917969 132.535156 135.917969 L 128.699219 135.917969 C 128.824219 136.320312 128.886719 136.730469 128.886719 137.152344 C 128.886719 140.417969 125.039062 143.0625 120.292969 143.0625 C 116.757812 143.0625 113.722656 141.597656 112.402344 139.5 C 111.082031 141.597656 108.042969 143.0625 104.511719 143.0625 C 99.765625 143.0625 95.917969 140.417969 95.917969 137.152344 C 95.917969 136.839844 95.953125 136.53125 96.019531 136.226562 C 95.738281 136.613281 95.425781 136.972656 95.082031 137.304688 C 94.738281 137.636719 94.363281 137.9375 93.964844 138.203125 C 93.566406 138.464844 93.148438 138.695312 92.707031 138.882812 C 92.269531 139.074219 91.816406 139.222656 91.351562 139.332031 C 90.882812 139.441406 90.410156 139.511719 89.933594 139.535156 C 89.453125 139.558594 88.976562 139.542969 88.503906 139.480469 C 88.027344 139.421875 87.5625 139.320312 87.105469 139.175781 C 86.648438 139.03125 86.207031 138.851562 85.785156 138.628906 C 85.359375 138.40625 84.957031 138.148438 84.582031 137.851562 C 84.203125 137.558594 83.855469 137.234375 83.535156 136.878906 C 83.214844 136.523438 82.929688 136.140625 82.675781 135.734375 C 82.425781 135.324219 82.210938 134.898438 82.039062 134.453125 C 81.863281 134.007812 81.726562 133.550781 81.632812 133.082031 C 81.542969 132.613281 81.492188 132.136719 81.480469 131.660156 C 81.472656 131.179688 81.507812 130.707031 81.585938 130.234375 C 81.660156 129.761719 81.777344 129.296875 81.9375 128.847656 C 81.453125 129.046875 80.953125 129.195312 80.4375 129.296875 C 79.925781 129.398438 79.40625 129.445312 78.882812 129.445312 C 78.355469 129.445312 77.839844 129.394531 77.324219 129.289062 C 76.808594 129.1875 76.3125 129.035156 75.828125 128.835938 C 75.34375 128.636719 74.882812 128.390625 74.445312 128.101562 C 74.007812 127.8125 73.605469 127.480469 73.234375 127.113281 C 72.859375 126.742188 72.527344 126.34375 72.234375 125.910156 C 71.941406 125.472656 71.695312 125.015625 71.488281 124.535156 C 71.285156 124.050781 71.132812 123.554688 71.027344 123.039062 C 70.921875 122.527344 70.863281 122.007812 70.859375 121.484375 C 70.855469 120.960938 70.902344 120.441406 71 119.925781 C 71.097656 119.414062 71.242188 118.914062 71.4375 118.425781 C 71.632812 117.941406 71.875 117.476562 72.160156 117.039062 C 72.445312 116.597656 72.769531 116.191406 73.136719 115.816406 C 73.5 115.441406 73.898438 115.105469 74.332031 114.808594 C 74.761719 114.511719 75.21875 114.257812 75.699219 114.046875 C 75.207031 113.964844 74.726562 113.835938 74.261719 113.660156 C 73.792969 113.488281 73.347656 113.269531 72.917969 113.011719 C 72.492188 112.757812 72.089844 112.460938 71.71875 112.128906 C 71.347656 111.796875 71.007812 111.433594 70.703125 111.039062 C 70.398438 110.644531 70.132812 110.226562 69.90625 109.78125 C 69.679688 109.335938 69.496094 108.875 69.355469 108.398438 C 69.214844 107.917969 69.121094 107.433594 69.070312 106.9375 C 69.023438 106.441406 69.019531 105.945312 69.0625 105.445312 C 69.105469 104.949219 69.191406 104.460938 69.328125 103.980469 C 69.460938 103.5 69.636719 103.039062 69.859375 102.589844 C 70.078125 102.144531 70.339844 101.71875 70.636719 101.320312 C 70.9375 100.921875 71.269531 100.554688 71.636719 100.21875 C 72.007812 99.878906 72.402344 99.582031 72.824219 99.316406 C 73.25 99.054688 73.695312 98.832031 74.160156 98.652344 C 74.625 98.472656 75.101562 98.335938 75.59375 98.246094 C 76.082031 98.152344 76.578125 98.109375 77.074219 98.109375 C 77.136719 98.109375 77.195312 98.109375 77.253906 98.109375 C 76.523438 97.574219 75.902344 96.9375 75.390625 96.191406 C 74.878906 95.449219 74.5 94.644531 74.261719 93.773438 C 74.019531 92.902344 73.929688 92.015625 73.988281 91.117188 C 74.046875 90.214844 74.25 89.347656 74.601562 88.515625 C 74.953125 87.683594 75.429688 86.933594 76.035156 86.261719 C 76.636719 85.589844 77.335938 85.035156 78.128906 84.601562 C 78.917969 84.164062 79.761719 83.871094 80.652344 83.71875 C 81.542969 83.566406 82.433594 83.566406 83.324219 83.714844 C 83.390625 82.914062 83.574219 82.140625 83.871094 81.394531 C 84.171875 80.652344 84.570312 79.964844 85.074219 79.34375 C 85.578125 78.71875 86.164062 78.179688 86.828125 77.730469 C 87.496094 77.28125 88.210938 76.9375 88.980469 76.703125 C 89.746094 76.46875 90.53125 76.351562 91.335938 76.351562 C 92.136719 76.355469 92.921875 76.472656 93.691406 76.707031 C 94.457031 76.945312 95.175781 77.285156 95.839844 77.738281 C 96.503906 78.1875 97.085938 78.726562 97.589844 79.351562 C 97.828125 78.511719 98.191406 77.734375 98.679688 77.015625 C 99.171875 76.296875 99.761719 75.671875 100.457031 75.144531 C 101.148438 74.617188 101.90625 74.214844 102.734375 73.933594 C 103.558594 73.652344 104.40625 73.507812 105.277344 73.503906 C 106.148438 73.5 106.996094 73.632812 107.824219 73.902344 C 108.652344 74.175781 109.414062 74.570312 110.113281 75.089844 C 110.8125 75.609375 111.414062 76.222656 111.910156 76.9375 C 112.410156 77.652344 112.785156 78.425781 113.03125 79.261719 C 113.453125 78.480469 113.988281 77.792969 114.640625 77.191406 C 115.289062 76.589844 116.019531 76.109375 116.832031 75.75 C 117.640625 75.390625 118.488281 75.171875 119.371094 75.089844 C 120.253906 75.011719 121.125 75.074219 121.984375 75.285156 C 122.847656 75.492188 123.652344 75.832031 124.398438 76.308594 C 125.148438 76.785156 125.800781 77.367188 126.355469 78.054688 C 126.910156 78.746094 127.339844 79.507812 127.644531 80.339844 C 127.945312 81.171875 128.105469 82.03125 128.125 82.917969 C 128.921875 82.675781 129.734375 82.5625 130.566406 82.574219 C 131.394531 82.585938 132.207031 82.722656 132.992188 82.984375 C 133.78125 83.246094 134.511719 83.621094 135.183594 84.109375 C 135.855469 84.601562 136.4375 85.179688 136.929688 85.847656 C 137.421875 86.519531 137.800781 87.246094 138.066406 88.03125 C 138.332031 88.820312 138.472656 89.628906 138.488281 90.457031 C 138.503906 91.289062 138.390625 92.101562 138.152344 92.898438 C 137.914062 93.691406 137.5625 94.433594 137.09375 95.121094 C 137.976562 94.964844 138.859375 94.957031 139.746094 95.097656 C 140.632812 95.238281 141.46875 95.519531 142.261719 95.9375 C 143.050781 96.359375 143.753906 96.894531 144.363281 97.550781 C 144.976562 98.207031 145.464844 98.941406 145.828125 99.757812 C 146.195312 100.578125 146.414062 101.433594 146.492188 102.324219 C 146.570312 103.214844 146.503906 104.097656 146.285156 104.964844 C 146.070312 105.835938 145.71875 106.644531 145.230469 107.394531 C 144.742188 108.148438 144.144531 108.800781 143.441406 109.351562 C 143.90625 109.429688 144.363281 109.546875 144.808594 109.703125 C 145.253906 109.859375 145.679688 110.054688 146.089844 110.289062 C 146.5 110.519531 146.886719 110.785156 147.25 111.089844 C 147.617188 111.390625 147.949219 111.71875 148.253906 112.078125 C 148.558594 112.441406 148.832031 112.824219 149.070312 113.230469 C 149.304688 113.640625 149.503906 114.066406 149.667969 114.507812 C 149.828125 114.949219 149.953125 115.40625 150.035156 115.871094 C 150.117188 116.335938 150.15625 116.800781 150.15625 117.273438 Z M 150.15625 117.273438 " fill-opacity="1" fill-rule="nonzero"/><path fill="#e68b91" d="M 150.15625 117.273438 C 150.15625 117.582031 150.136719 117.886719 150.101562 118.191406 C 150.066406 118.496094 150.015625 118.796875 149.945312 119.097656 C 149.875 119.394531 149.789062 119.691406 149.683594 119.980469 C 149.582031 120.265625 149.460938 120.550781 149.328125 120.824219 C 149.191406 121.101562 149.039062 121.367188 148.871094 121.625 C 148.707031 121.882812 148.527344 122.128906 148.332031 122.367188 C 148.136719 122.605469 147.929688 122.828125 147.707031 123.042969 C 147.488281 123.257812 147.253906 123.457031 147.011719 123.644531 C 146.769531 123.828125 146.515625 124 146.25 124.160156 C 145.988281 124.316406 145.714844 124.460938 145.4375 124.585938 C 145.15625 124.710938 144.871094 124.824219 144.578125 124.917969 C 144.285156 125.011719 143.988281 125.085938 143.6875 125.148438 C 143.386719 125.207031 143.082031 125.25 142.777344 125.273438 C 142.472656 125.300781 142.164062 125.308594 141.859375 125.296875 C 141.550781 125.289062 141.246094 125.261719 140.941406 125.214844 C 140.636719 125.171875 140.339844 125.109375 140.042969 125.027344 C 140.15625 125.332031 140.253906 125.640625 140.332031 125.957031 C 140.410156 126.269531 140.46875 126.585938 140.507812 126.910156 C 140.546875 127.230469 140.566406 127.554688 140.566406 127.878906 C 140.566406 128.203125 140.550781 128.523438 140.511719 128.847656 C 140.472656 129.167969 140.414062 129.488281 140.335938 129.800781 C 140.257812 130.117188 140.164062 130.425781 140.046875 130.726562 C 139.933594 131.03125 139.800781 131.328125 139.652344 131.613281 C 139.5 131.902344 139.332031 132.175781 139.148438 132.445312 C 138.964844 132.710938 138.765625 132.964844 138.550781 133.207031 C 138.335938 133.453125 138.109375 133.679688 137.867188 133.894531 C 137.621094 134.109375 137.367188 134.308594 137.101562 134.496094 C 136.835938 134.679688 136.558594 134.847656 136.269531 134.996094 C 135.984375 135.148438 135.6875 135.28125 135.386719 135.394531 C 135.082031 135.511719 134.773438 135.609375 134.457031 135.683594 C 134.144531 135.761719 133.824219 135.820312 133.503906 135.859375 C 133.183594 135.898438 132.859375 135.917969 132.535156 135.917969 L 128.699219 135.917969 C 128.824219 136.320312 128.886719 136.730469 128.886719 137.152344 C 128.886719 140.417969 125.039062 143.0625 120.292969 143.0625 C 116.757812 143.0625 113.722656 141.597656 112.402344 139.5 C 111.082031 141.597656 108.042969 143.0625 104.511719 143.0625 C 99.765625 143.0625 95.917969 140.417969 95.917969 137.152344 C 95.917969 136.839844 95.953125 136.53125 96.019531 136.226562 C 95.558594 136.863281 95.015625 137.421875 94.390625 137.898438 C 93.761719 138.375 93.082031 138.753906 92.34375 139.03125 C 91.609375 139.308594 90.847656 139.472656 90.0625 139.527344 C 89.273438 139.582031 88.5 139.519531 87.730469 139.34375 C 86.960938 139.171875 86.238281 138.886719 85.550781 138.5 C 84.867188 138.113281 84.253906 137.632812 83.707031 137.066406 C 83.164062 136.496094 82.714844 135.859375 82.355469 135.160156 C 82 134.457031 81.75 133.71875 81.609375 132.945312 C 92.152344 134.535156 102.980469 134.242188 113.40625 132.019531 C 126.632812 129.199219 139.179688 123.28125 149.808594 114.925781 C 150.039062 115.691406 150.15625 116.472656 150.15625 117.273438 Z M 150.15625 117.273438 " fill-opacity="1" fill-rule="nonzero"/><path fill="#b06f73" d="M 106.230469 83.679688 C 107.621094 84.761719 108.84375 86.007812 109.90625 87.410156 C 110.957031 88.808594 111.828125 90.308594 112.519531 91.914062 C 113.214844 93.527344 113.714844 95.199219 114.015625 96.925781 C 114.324219 98.65625 114.417969 100.394531 114.304688 102.144531 C 114.195312 103.890625 113.859375 105.597656 113.300781 107.257812 C 113.234375 107.460938 113.160156 107.664062 113.082031 107.867188 C 113.019531 108.03125 113.285156 108.101562 113.347656 107.9375 C 113.964844 106.277344 114.359375 104.5625 114.527344 102.800781 C 114.691406 101.035156 114.648438 99.277344 114.386719 97.523438 C 114.132812 95.769531 113.675781 94.066406 113.019531 92.417969 C 112.367188 90.769531 111.53125 89.222656 110.507812 87.777344 C 109.488281 86.328125 108.296875 85.035156 106.9375 83.902344 C 106.769531 83.757812 106.597656 83.621094 106.421875 83.484375 C 106.285156 83.378906 106.089844 83.570312 106.226562 83.679688 Z M 106.230469 83.679688 " fill-opacity="1" fill-rule="nonzero"/><path fill="#ffe1e3" d="M 91.046875 91.679688 C 91.757812 91.941406 92.515625 92.179688 93.261719 92.050781 C 93.875 91.945312 94.53125 91.601562 95.074219 91.898438 C 95.660156 92.222656 95.652344 93.136719 95.222656 93.648438 C 94.792969 94.15625 94.101562 94.359375 93.449219 94.507812 C 91.917969 94.851562 90.3125 95.035156 88.796875 94.640625 C 87.589844 94.328125 86.15625 93.28125 87.042969 91.992188 C 87.945312 90.6875 89.890625 91.257812 91.046875 91.679688 Z M 91.046875 91.679688 " fill-opacity="1" fill-rule="nonzero"/><path fill="#ffe1e3" d="M 121.175781 85.796875 C 120.5 85.949219 119.789062 86.132812 119.167969 86.480469 C 118.65625 86.765625 118.15625 87.179688 117.621094 87.25 C 117.042969 87.328125 116.859375 86.902344 117.132812 86.5 C 117.402344 86.09375 117.960938 85.734375 118.5 85.414062 C 119.761719 84.664062 121.125 83.957031 122.527344 83.554688 C 123.640625 83.234375 125.109375 83.164062 124.601562 84.101562 C 124.082031 85.054688 122.269531 85.546875 121.175781 85.796875 Z M 121.175781 85.796875 " fill-opacity="1" fill-rule="nonzero"/><path fill="#ffe1e3" d="M 101.042969 100.070312 C 102.007812 100.464844 103.035156 100.847656 104.09375 100.84375 C 104.964844 100.84375 105.925781 100.605469 106.644531 101.011719 C 107.421875 101.445312 107.292969 102.386719 106.625 102.832031 C 105.957031 103.28125 104.96875 103.371094 104.035156 103.40625 C 101.855469 103.492188 99.582031 103.398438 97.511719 102.722656 C 95.867188 102.1875 93.996094 100.855469 95.40625 99.683594 C 96.835938 98.5 99.484375 99.433594 101.042969 100.070312 Z M 101.042969 100.070312 " fill-opacity="1" fill-rule="nonzero"/><path fill="#f9bb46" d="M 129.703125 127.996094 C 130.261719 128.554688 130.761719 129.164062 131.203125 129.820312 C 131.640625 130.476562 132.011719 131.171875 132.316406 131.902344 C 132.617188 132.632812 132.847656 133.386719 133 134.160156 C 133.15625 134.9375 133.230469 135.71875 133.230469 136.507812 C 133.230469 137.300781 133.15625 138.082031 133 138.859375 C 132.847656 139.632812 132.617188 140.386719 132.316406 141.117188 C 132.011719 141.847656 131.640625 142.539062 131.203125 143.199219 C 130.761719 143.855469 130.261719 144.464844 129.703125 145.023438 C 129.144531 145.582031 128.535156 146.082031 127.878906 146.519531 C 127.21875 146.957031 126.527344 147.328125 125.792969 147.632812 C 125.0625 147.933594 124.308594 148.164062 123.535156 148.316406 C 122.757812 148.472656 121.976562 148.546875 121.183594 148.546875 C 120.394531 148.546875 119.609375 148.472656 118.832031 148.316406 C 118.058594 148.164062 117.304688 147.933594 116.574219 147.632812 C 115.84375 147.328125 115.148438 146.957031 114.492188 146.519531 C 113.832031 146.082031 113.226562 145.582031 112.664062 145.023438 C 112.105469 144.464844 111.605469 143.855469 111.167969 143.199219 C 110.726562 142.539062 110.355469 141.847656 110.054688 141.117188 C 109.75 140.386719 109.523438 139.632812 109.367188 138.859375 C 109.214844 138.082031 109.136719 137.300781 109.136719 136.507812 C 109.136719 135.71875 109.214844 134.9375 109.367188 134.160156 C 109.523438 133.386719 109.75 132.632812 110.054688 131.902344 C 110.355469 131.171875 110.726562 130.476562 111.167969 129.820312 C 111.605469 129.164062 112.105469 128.554688 112.664062 127.996094 C 113.226562 127.4375 113.832031 126.9375 114.492188 126.5 C 115.148438 126.058594 115.84375 125.6875 116.574219 125.386719 C 117.304688 125.085938 118.058594 124.855469 118.832031 124.703125 C 119.609375 124.546875 120.394531 124.46875 121.183594 124.46875 C 121.976562 124.46875 122.757812 124.546875 123.535156 124.703125 C 124.308594 124.855469 125.0625 125.085938 125.792969 125.386719 C 126.527344 125.6875 127.21875 126.058594 127.878906 126.5 C 128.535156 126.9375 129.144531 127.4375 129.703125 127.996094 Z M 129.703125 127.996094 " fill-opacity="1" fill-rule="nonzero"/><path fill="#3a3f58" d="M 116.847656 134.582031 C 116.847656 134.902344 116.804688 135.210938 116.71875 135.503906 C 116.632812 135.800781 116.511719 136.058594 116.351562 136.285156 C 116.195312 136.511719 116.011719 136.6875 115.804688 136.808594 C 115.597656 136.929688 115.382812 136.992188 115.160156 136.992188 C 114.9375 136.992188 114.722656 136.929688 114.515625 136.808594 C 114.308594 136.6875 114.125 136.511719 113.96875 136.285156 C 113.808594 136.058594 113.6875 135.800781 113.601562 135.503906 C 113.515625 135.210938 113.472656 134.902344 113.472656 134.582031 C 113.472656 134.265625 113.515625 133.957031 113.601562 133.660156 C 113.6875 133.367188 113.808594 133.105469 113.96875 132.878906 C 114.125 132.65625 114.308594 132.480469 114.515625 132.359375 C 114.722656 132.238281 114.9375 132.175781 115.160156 132.175781 C 115.382812 132.175781 115.597656 132.238281 115.804688 132.359375 C 116.011719 132.480469 116.195312 132.65625 116.351562 132.878906 C 116.511719 133.105469 116.632812 133.367188 116.71875 133.660156 C 116.804688 133.957031 116.847656 134.265625 116.847656 134.582031 Z M 116.847656 134.582031 " fill-opacity="1" fill-rule="nonzero"/><path fill="#3a3f58" d="M 128.894531 134.582031 C 128.894531 134.902344 128.851562 135.210938 128.765625 135.503906 C 128.679688 135.800781 128.558594 136.058594 128.402344 136.285156 C 128.242188 136.511719 128.058594 136.6875 127.851562 136.808594 C 127.648438 136.929688 127.429688 136.992188 127.207031 136.992188 C 126.984375 136.992188 126.769531 136.929688 126.5625 136.808594 C 126.355469 136.6875 126.171875 136.511719 126.015625 136.285156 C 125.855469 136.058594 125.734375 135.800781 125.648438 135.503906 C 125.5625 135.210938 125.519531 134.902344 125.519531 134.582031 C 125.519531 134.265625 125.5625 133.957031 125.648438 133.660156 C 125.734375 133.367188 125.855469 133.105469 126.015625 132.878906 C 126.171875 132.65625 126.355469 132.480469 126.5625 132.359375 C 126.769531 132.238281 126.984375 132.175781 127.207031 132.175781 C 127.429688 132.175781 127.648438 132.238281 127.851562 132.359375 C 128.058594 132.480469 128.242188 132.65625 128.402344 132.878906 C 128.558594 133.105469 128.679688 133.367188 128.765625 133.660156 C 128.851562 133.957031 128.894531 134.265625 128.894531 134.582031 Z M 128.894531 134.582031 " fill-opacity="1" fill-rule="nonzero"/><path fill="#3a3f58" d="M 127.011719 141.636719 L 128.003906 139.921875 C 128.089844 139.769531 128.082031 139.625 127.972656 139.488281 C 127.867188 139.351562 127.730469 139.308594 127.5625 139.351562 C 123.605469 140.429688 119.335938 140.371094 114.789062 139.296875 C 114.621094 139.261719 114.488281 139.308594 114.386719 139.445312 C 114.285156 139.582031 114.277344 139.722656 114.363281 139.871094 L 115.386719 141.636719 C 117.96875 146.109375 124.429688 146.109375 127.011719 141.636719 Z M 127.011719 141.636719 " fill-opacity="1" fill-rule="nonzero"/><path fill="#fbfefc" d="M 112.585938 138.144531 C 112.585938 138.144531 110.097656 138.410156 109.226562 139.597656 C 108.359375 140.785156 108.609375 141.839844 109.433594 142.445312 C 110.257812 143.046875 111.34375 142.96875 112.214844 141.78125 C 113.082031 140.59375 112.585938 138.144531 112.585938 138.144531 Z M 112.585938 138.144531 " fill-opacity="1" fill-rule="nonzero"/><path fill="#fbfefc" d="M 128.289062 136.835938 C 128.289062 136.835938 128.117188 138.816406 128.914062 139.675781 C 129.710938 140.535156 130.574219 140.5 131.171875 139.949219 C 131.769531 139.394531 131.871094 138.535156 131.074219 137.675781 C 130.28125 136.816406 128.289062 136.835938 128.289062 136.835938 Z M 128.289062 136.835938 " fill-opacity="1" fill-rule="nonzero"/><path fill="#f07475" d="M 119.527344 68.332031 C 119.914062 68.71875 120.257812 69.140625 120.5625 69.59375 C 120.863281 70.046875 121.121094 70.523438 121.328125 71.03125 C 121.539062 71.535156 121.695312 72.054688 121.804688 72.589844 C 121.910156 73.125 121.960938 73.664062 121.960938 74.210938 C 121.960938 74.753906 121.910156 75.296875 121.804688 75.832031 C 121.695312 76.367188 121.539062 76.886719 121.328125 77.390625 C 121.121094 77.894531 120.863281 78.371094 120.5625 78.828125 C 120.257812 79.28125 119.914062 79.699219 119.527344 80.085938 C 119.140625 80.472656 118.722656 80.816406 118.265625 81.121094 C 117.8125 81.421875 117.332031 81.679688 116.828125 81.886719 C 116.324219 82.097656 115.804688 82.253906 115.269531 82.359375 C 114.734375 82.464844 114.191406 82.519531 113.648438 82.519531 C 113.101562 82.519531 112.558594 82.464844 112.023438 82.359375 C 111.488281 82.253906 110.96875 82.097656 110.464844 81.886719 C 109.960938 81.679688 109.480469 81.421875 109.027344 81.121094 C 108.574219 80.816406 108.152344 80.472656 107.765625 80.085938 C 107.378906 79.699219 107.035156 79.28125 106.734375 78.828125 C 106.429688 78.371094 106.171875 77.894531 105.964844 77.390625 C 105.753906 76.886719 105.597656 76.367188 105.492188 75.832031 C 105.382812 75.296875 105.332031 74.753906 105.332031 74.210938 C 105.332031 73.664062 105.382812 73.125 105.492188 72.589844 C 105.597656 72.054688 105.753906 71.535156 105.964844 71.03125 C 106.171875 70.523438 106.429688 70.046875 106.734375 69.59375 C 107.035156 69.140625 107.378906 68.71875 107.765625 68.332031 C 108.152344 67.949219 108.574219 67.601562 109.027344 67.300781 C 109.480469 66.996094 109.960938 66.742188 110.464844 66.53125 C 110.96875 66.324219 111.488281 66.164062 112.023438 66.058594 C 112.558594 65.953125 113.101562 65.898438 113.648438 65.898438 C 114.191406 65.898438 114.734375 65.953125 115.269531 66.058594 C 115.804688 66.164062 116.324219 66.324219 116.828125 66.53125 C 117.332031 66.742188 117.8125 66.996094 118.265625 67.300781 C 118.722656 67.601562 119.140625 67.949219 119.527344 68.332031 Z M 119.527344 68.332031 " fill-opacity="1" fill-rule="nonzero"/><path fill="#313e5f" d="M 111.023438 71.996094 C 110.402344 72.078125 109.113281 72.074219 108.0625 70.890625 C 108.042969 70.867188 108.019531 70.859375 107.988281 70.863281 C 107.957031 70.871094 107.9375 70.890625 107.929688 70.921875 C 107.753906 71.640625 107.171875 74.714844 111.078125 72.136719 C 111.109375 72.113281 111.121094 72.082031 111.105469 72.046875 C 111.09375 72.007812 111.066406 71.992188 111.023438 71.996094 Z M 111.023438 71.996094 " fill-opacity="1" fill-rule="nonzero"/><path fill="#313e5f" d="M 116.269531 71.996094 C 116.890625 72.078125 118.179688 72.074219 119.230469 70.890625 C 119.25 70.867188 119.277344 70.859375 119.304688 70.863281 C 119.335938 70.871094 119.355469 70.890625 119.363281 70.921875 C 119.542969 71.640625 120.121094 74.714844 116.214844 72.136719 C 116.183594 72.113281 116.171875 72.082031 116.1875 72.046875 C 116.203125 72.007812 116.230469 71.992188 116.269531 71.996094 Z M 116.269531 71.996094 " fill-opacity="1" fill-rule="nonzero"/><path fill="#3a3f58" d="M 111.367188 74.800781 L 109.804688 79.734375 C 109.75 79.90625 109.855469 80.09375 109.945312 79.996094 C 112.339844 77.488281 114.804688 77.417969 117.34375 80.015625 C 117.4375 80.109375 117.542969 79.921875 117.488281 79.753906 L 115.917969 74.800781 C 114.910156 71.605469 112.378906 71.605469 111.367188 74.800781 Z M 111.367188 74.800781 " fill-opacity="1" fill-rule="nonzero"/><path fill="#a1bfca" d="M 144.769531 93.273438 C 144.769531 93.710938 144.726562 94.140625 144.640625 94.570312 C 144.554688 95 144.429688 95.414062 144.261719 95.820312 C 144.09375 96.222656 143.890625 96.605469 143.644531 96.96875 C 143.402344 97.332031 143.125 97.667969 142.816406 97.976562 C 142.507812 98.289062 142.171875 98.5625 141.808594 98.804688 C 141.445312 99.046875 141.0625 99.253906 140.65625 99.421875 C 140.253906 99.589844 139.835938 99.714844 139.40625 99.800781 C 138.980469 99.886719 138.546875 99.925781 138.109375 99.925781 C 137.671875 99.925781 137.238281 99.886719 136.808594 99.800781 C 136.378906 99.714844 135.964844 99.589844 135.558594 99.421875 C 135.15625 99.253906 134.773438 99.046875 134.410156 98.804688 C 134.046875 98.5625 133.707031 98.289062 133.398438 97.976562 C 133.089844 97.667969 132.8125 97.332031 132.570312 96.96875 C 132.328125 96.605469 132.125 96.222656 131.957031 95.820312 C 131.789062 95.414062 131.664062 95 131.578125 94.570312 C 131.492188 94.140625 131.449219 93.710938 131.449219 93.273438 C 131.449219 92.835938 131.492188 92.402344 131.578125 91.972656 C 131.664062 91.546875 131.789062 91.128906 131.957031 90.726562 C 132.125 90.320312 132.328125 89.9375 132.570312 89.574219 C 132.8125 89.210938 133.089844 88.875 133.398438 88.566406 C 133.707031 88.257812 134.046875 87.980469 134.410156 87.738281 C 134.773438 87.496094 135.15625 87.292969 135.558594 87.125 C 135.964844 86.957031 136.378906 86.832031 136.808594 86.746094 C 137.238281 86.660156 137.671875 86.617188 138.109375 86.617188 C 138.546875 86.617188 138.980469 86.660156 139.40625 86.746094 C 139.835938 86.832031 140.253906 86.957031 140.65625 87.125 C 141.0625 87.292969 141.445312 87.496094 141.808594 87.738281 C 142.171875 87.980469 142.507812 88.257812 142.816406 88.566406 C 143.125 88.875 143.402344 89.210938 143.644531 89.574219 C 143.890625 89.9375 144.09375 90.320312 144.261719 90.726562 C 144.429688 91.128906 144.554688 91.546875 144.640625 91.972656 C 144.726562 92.402344 144.769531 92.835938 144.769531 93.273438 Z M 144.769531 93.273438 " fill-opacity="1" fill-rule="nonzero"/><path fill="#3a3f58" d="M 135.710938 92.207031 C 135.710938 92.382812 135.6875 92.554688 135.640625 92.714844 C 135.59375 92.878906 135.527344 93.023438 135.4375 93.148438 C 135.351562 93.273438 135.25 93.371094 135.136719 93.4375 C 135.019531 93.503906 134.902344 93.539062 134.777344 93.539062 C 134.65625 93.539062 134.535156 93.503906 134.421875 93.4375 C 134.308594 93.371094 134.207031 93.273438 134.121094 93.148438 C 134.03125 93.023438 133.964844 92.878906 133.917969 92.714844 C 133.871094 92.554688 133.847656 92.382812 133.847656 92.207031 C 133.847656 92.03125 133.871094 91.859375 133.917969 91.699219 C 133.964844 91.535156 134.03125 91.390625 134.121094 91.265625 C 134.207031 91.140625 134.308594 91.046875 134.421875 90.976562 C 134.535156 90.910156 134.65625 90.875 134.777344 90.875 C 134.902344 90.875 135.019531 90.910156 135.136719 90.976562 C 135.25 91.046875 135.351562 91.140625 135.4375 91.265625 C 135.527344 91.390625 135.59375 91.535156 135.640625 91.699219 C 135.6875 91.859375 135.710938 92.03125 135.710938 92.207031 Z M 135.710938 92.207031 " fill-opacity="1" fill-rule="nonzero"/><path fill="#3a3f58" d="M 142.371094 92.207031 C 142.371094 92.382812 142.347656 92.554688 142.300781 92.714844 C 142.253906 92.878906 142.1875 93.023438 142.097656 93.148438 C 142.011719 93.273438 141.910156 93.371094 141.796875 93.4375 C 141.679688 93.503906 141.5625 93.539062 141.4375 93.539062 C 141.316406 93.539062 141.195312 93.503906 141.082031 93.4375 C 140.96875 93.371094 140.867188 93.273438 140.78125 93.148438 C 140.691406 93.023438 140.625 92.878906 140.578125 92.714844 C 140.53125 92.554688 140.507812 92.382812 140.507812 92.207031 C 140.507812 92.03125 140.53125 91.859375 140.578125 91.699219 C 140.625 91.535156 140.691406 91.390625 140.78125 91.265625 C 140.867188 91.140625 140.96875 91.046875 141.082031 90.976562 C 141.195312 90.910156 141.316406 90.875 141.4375 90.875 C 141.5625 90.875 141.679688 90.910156 141.796875 90.976562 C 141.910156 91.046875 142.011719 91.140625 142.097656 91.265625 C 142.1875 91.390625 142.253906 91.535156 142.300781 91.699219 C 142.347656 91.859375 142.371094 92.03125 142.371094 92.207031 Z M 142.371094 92.207031 " fill-opacity="1" fill-rule="nonzero"/><path fill="#3a3f58" d="M 140.257812 97.230469 C 139.566406 96.949219 137.4375 96.339844 135.542969 98.441406 C 135.414062 98.585938 135.304688 98.160156 135.402344 97.902344 C 136.480469 95.097656 139.089844 89.488281 140.390625 96.761719 C 140.4375 97 140.359375 97.269531 140.257812 97.230469 Z M 140.257812 97.230469 " fill-opacity="1" fill-rule="nonzero"/><path fill="#3a3f58" d="M 133.390625 91.015625 C 133.542969 90.980469 133.691406 90.933594 133.835938 90.875 C 133.988281 90.816406 134.132812 90.746094 134.277344 90.664062 C 134.414062 90.585938 134.550781 90.492188 134.675781 90.390625 C 134.800781 90.296875 134.914062 90.191406 135.023438 90.074219 C 135.132812 89.957031 135.234375 89.832031 135.328125 89.699219 L 135.359375 89.648438 C 135.390625 89.597656 135.378906 89.558594 135.328125 89.53125 C 135.28125 89.503906 135.238281 89.511719 135.210938 89.5625 C 135.175781 89.613281 135.140625 89.664062 135.109375 89.707031 L 135.09375 89.726562 L 135.089844 89.734375 C 135.078125 89.746094 135.101562 89.714844 135.09375 89.730469 C 135.082031 89.742188 135.074219 89.753906 135.066406 89.765625 C 135.046875 89.789062 135.027344 89.8125 135.007812 89.832031 C 134.929688 89.925781 134.847656 90.011719 134.761719 90.089844 C 134.71875 90.132812 134.671875 90.171875 134.628906 90.210938 C 134.605469 90.230469 134.582031 90.25 134.558594 90.265625 L 134.539062 90.28125 C 134.535156 90.285156 134.527344 90.289062 134.546875 90.277344 L 134.539062 90.28125 L 134.5 90.308594 C 134.40625 90.382812 134.304688 90.449219 134.203125 90.507812 C 134.085938 90.574219 133.964844 90.636719 133.84375 90.6875 L 133.863281 90.679688 C 133.695312 90.75 133.523438 90.804688 133.34375 90.84375 C 133.289062 90.859375 133.269531 90.894531 133.285156 90.953125 C 133.300781 91.007812 133.335938 91.027344 133.390625 91.011719 Z M 133.390625 91.015625 " fill-opacity="1" fill-rule="nonzero"/><path fill="#3a3f58" d="M 142.742188 91.015625 C 142.589844 90.980469 142.441406 90.933594 142.296875 90.875 C 142.144531 90.816406 142 90.746094 141.855469 90.664062 C 141.714844 90.585938 141.582031 90.492188 141.457031 90.390625 C 141.332031 90.296875 141.21875 90.191406 141.109375 90.074219 C 141 89.957031 140.898438 89.832031 140.804688 89.699219 L 140.773438 89.648438 C 140.746094 89.597656 140.753906 89.558594 140.804688 89.53125 C 140.855469 89.503906 140.894531 89.511719 140.921875 89.5625 C 140.957031 89.613281 140.992188 89.664062 141.023438 89.707031 C 141.027344 89.714844 141.03125 89.71875 141.039062 89.726562 L 141.042969 89.734375 C 141.054688 89.746094 141.03125 89.714844 141.042969 89.730469 C 141.054688 89.742188 141.0625 89.753906 141.070312 89.765625 C 141.089844 89.789062 141.109375 89.8125 141.128906 89.832031 C 141.207031 89.925781 141.285156 90.011719 141.375 90.089844 C 141.417969 90.132812 141.460938 90.171875 141.507812 90.210938 C 141.53125 90.230469 141.554688 90.25 141.578125 90.265625 L 141.59375 90.28125 L 141.589844 90.277344 L 141.597656 90.28125 L 141.636719 90.308594 C 141.839844 90.460938 142.058594 90.589844 142.292969 90.6875 L 142.273438 90.679688 C 142.441406 90.75 142.613281 90.804688 142.789062 90.84375 C 142.847656 90.859375 142.867188 90.894531 142.851562 90.953125 C 142.835938 91.003906 142.800781 91.027344 142.746094 91.011719 Z M 142.742188 91.015625 " fill-opacity="1" fill-rule="nonzero"/><path fill="#f9bb46" d="M 90.316406 81.574219 C 90.316406 82.03125 90.273438 82.484375 90.183594 82.933594 C 90.09375 83.386719 89.960938 83.820312 89.785156 84.246094 C 89.609375 84.667969 89.394531 85.070312 89.140625 85.453125 C 88.886719 85.832031 88.597656 86.183594 88.273438 86.507812 C 87.949219 86.832031 87.59375 87.121094 87.214844 87.375 C 86.832031 87.632812 86.429688 87.847656 86.007812 88.023438 C 85.582031 88.199219 85.144531 88.328125 84.695312 88.417969 C 84.246094 88.507812 83.792969 88.554688 83.332031 88.554688 C 82.875 88.554688 82.421875 88.507812 81.972656 88.417969 C 81.523438 88.328125 81.085938 88.199219 80.660156 88.023438 C 80.238281 87.847656 79.835938 87.632812 79.453125 87.378906 C 79.074219 87.121094 78.71875 86.832031 78.394531 86.507812 C 78.070312 86.183594 77.78125 85.832031 77.527344 85.453125 C 77.273438 85.070312 77.058594 84.667969 76.882812 84.246094 C 76.707031 83.820312 76.574219 83.386719 76.484375 82.9375 C 76.394531 82.488281 76.351562 82.03125 76.351562 81.574219 C 76.351562 81.117188 76.394531 80.664062 76.484375 80.214844 C 76.574219 79.765625 76.707031 79.328125 76.882812 78.902344 C 77.058594 78.480469 77.273438 78.078125 77.527344 77.699219 C 77.78125 77.316406 78.070312 76.964844 78.394531 76.640625 C 78.71875 76.316406 79.074219 76.027344 79.453125 75.773438 C 79.835938 75.515625 80.238281 75.300781 80.660156 75.128906 C 81.085938 74.953125 81.519531 74.820312 81.972656 74.730469 C 82.421875 74.640625 82.875 74.597656 83.332031 74.597656 C 83.792969 74.59375 84.246094 74.640625 84.695312 74.730469 C 85.144531 74.816406 85.582031 74.949219 86.007812 75.125 C 86.429688 75.300781 86.832031 75.515625 87.214844 75.769531 C 87.59375 76.023438 87.949219 76.3125 88.273438 76.636719 C 88.597656 76.960938 88.886719 77.316406 89.140625 77.695312 C 89.394531 78.078125 89.609375 78.480469 89.785156 78.902344 C 89.960938 79.328125 90.09375 79.761719 90.183594 80.210938 C 90.273438 80.660156 90.316406 81.117188 90.316406 81.574219 Z M 90.316406 81.574219 " fill-opacity="1" fill-rule="nonzero"/><path fill="#a5c4cf" d="M 90.316406 81.574219 C 90.316406 82.296875 90.207031 83.003906 89.988281 83.691406 C 89.300781 83.308594 88.761719 82.6875 88.179688 82.144531 C 87.535156 81.535156 86.734375 80.984375 85.847656 81.03125 C 84.753906 81.09375 83.769531 82.066406 82.707031 81.816406 C 82.003906 81.65625 81.496094 81.066406 80.726562 81.179688 C 79.898438 81.296875 79.402344 81.957031 78.855469 82.503906 C 78.238281 83.113281 77.5 83.464844 76.636719 83.558594 C 76.496094 83.078125 76.40625 82.589844 76.367188 82.089844 C 76.332031 81.589844 76.351562 81.09375 76.421875 80.597656 C 76.492188 80.101562 76.613281 79.621094 76.789062 79.152344 C 76.960938 78.683594 77.183594 78.238281 77.453125 77.816406 C 77.722656 77.394531 78.035156 77.007812 78.390625 76.652344 C 78.742188 76.296875 79.128906 75.984375 79.550781 75.714844 C 79.972656 75.445312 80.417969 75.222656 80.886719 75.046875 C 81.355469 74.871094 81.835938 74.746094 82.332031 74.675781 C 82.828125 74.601562 83.324219 74.585938 83.824219 74.621094 C 84.324219 74.65625 84.8125 74.742188 85.292969 74.882812 C 85.773438 75.023438 86.234375 75.210938 86.675781 75.453125 C 87.113281 75.691406 87.523438 75.972656 87.902344 76.300781 C 88.28125 76.628906 88.621094 76.992188 88.921875 77.390625 C 89.222656 77.792969 89.476562 78.21875 89.683594 78.675781 C 89.894531 79.128906 90.050781 79.601562 90.15625 80.089844 C 90.265625 80.578125 90.316406 81.074219 90.320312 81.574219 Z M 90.316406 81.574219 " fill-opacity="1" fill-rule="nonzero"/><path fill="#3a3f58" d="M 80.820312 78.945312 C 80.820312 79.128906 80.796875 79.308594 80.746094 79.476562 C 80.695312 79.648438 80.625 79.800781 80.535156 79.929688 C 80.441406 80.0625 80.335938 80.164062 80.214844 80.234375 C 80.097656 80.304688 79.972656 80.339844 79.84375 80.339844 C 79.710938 80.339844 79.589844 80.304688 79.46875 80.234375 C 79.347656 80.164062 79.242188 80.0625 79.152344 79.929688 C 79.058594 79.800781 78.988281 79.648438 78.9375 79.476562 C 78.890625 79.308594 78.863281 79.128906 78.863281 78.945312 C 78.863281 78.757812 78.890625 78.582031 78.9375 78.410156 C 78.988281 78.238281 79.058594 78.089844 79.152344 77.957031 C 79.242188 77.828125 79.347656 77.726562 79.46875 77.65625 C 79.589844 77.585938 79.710938 77.546875 79.84375 77.546875 C 79.972656 77.546875 80.097656 77.585938 80.214844 77.65625 C 80.335938 77.726562 80.441406 77.828125 80.535156 77.957031 C 80.625 78.089844 80.695312 78.238281 80.746094 78.410156 C 80.796875 78.582031 80.820312 78.757812 80.820312 78.945312 Z M 80.820312 78.945312 " fill-opacity="1" fill-rule="nonzero"/><path fill="#3a3f58" d="M 87.804688 78.945312 C 87.804688 79.128906 87.777344 79.308594 87.730469 79.476562 C 87.679688 79.648438 87.609375 79.800781 87.515625 79.929688 C 87.425781 80.0625 87.320312 80.164062 87.199219 80.234375 C 87.078125 80.304688 86.957031 80.339844 86.824219 80.339844 C 86.695312 80.339844 86.570312 80.304688 86.453125 80.234375 C 86.332031 80.164062 86.226562 80.0625 86.132812 79.929688 C 86.042969 79.800781 85.972656 79.648438 85.921875 79.476562 C 85.871094 79.308594 85.847656 79.128906 85.847656 78.945312 C 85.847656 78.757812 85.871094 78.582031 85.921875 78.410156 C 85.972656 78.238281 86.042969 78.089844 86.132812 77.957031 C 86.226562 77.828125 86.332031 77.726562 86.453125 77.65625 C 86.570312 77.585938 86.695312 77.546875 86.824219 77.546875 C 86.957031 77.546875 87.078125 77.585938 87.199219 77.65625 C 87.320312 77.726562 87.425781 77.828125 87.515625 77.957031 C 87.609375 78.089844 87.679688 78.238281 87.730469 78.410156 C 87.777344 78.582031 87.804688 78.757812 87.804688 78.945312 Z M 87.804688 78.945312 " fill-opacity="1" fill-rule="nonzero"/><path fill="#3a3f58" d="M 81.949219 84.820312 L 81.714844 86.039062 C 81.675781 86.253906 81.738281 86.507812 81.816406 86.445312 C 82.757812 85.679688 83.769531 85.722656 84.847656 86.484375 C 84.929688 86.539062 84.988281 86.285156 84.949219 86.078125 L 84.707031 84.824219 C 84.097656 81.640625 82.5625 81.640625 81.949219 84.820312 Z M 81.949219 84.820312 " fill-opacity="1" fill-rule="nonzero"/><path fill="#a5c4cf" d="M 88.535156 82.976562 C 88.535156 82.976562 88.046875 83.589844 88.121094 84.039062 C 88.195312 84.492188 88.484375 84.671875 88.800781 84.621094 C 89.113281 84.570312 89.335938 84.3125 89.261719 83.859375 C 89.191406 83.402344 88.535156 82.976562 88.535156 82.976562 Z M 88.535156 82.976562 " fill-opacity="1" fill-rule="nonzero"/><path fill="#a5c4cf" d="M 88.507812 85.84375 C 88.507812 85.84375 87.925781 86.574219 88.011719 87.117188 C 88.101562 87.660156 88.445312 87.867188 88.824219 87.808594 C 89.199219 87.746094 89.464844 87.4375 89.378906 86.894531 C 89.289062 86.351562 88.507812 85.84375 88.507812 85.84375 Z M 88.507812 85.84375 " fill-opacity="1" fill-rule="nonzero"/><path fill="#a5c4cf" d="M 87.332031 85.441406 C 87.332031 85.441406 87.058594 85.78125 87.097656 86.035156 C 87.140625 86.289062 87.300781 86.390625 87.476562 86.359375 C 87.652344 86.332031 87.777344 86.1875 87.738281 85.933594 C 87.695312 85.679688 87.332031 85.441406 87.332031 85.441406 Z M 87.332031 85.441406 " fill-opacity="1" fill-rule="nonzero"/><path fill="#3a3f58" d="M 78.46875 77.734375 C 78.644531 77.679688 78.8125 77.613281 78.976562 77.53125 C 79.152344 77.449219 79.316406 77.355469 79.476562 77.246094 C 79.632812 77.140625 79.78125 77.019531 79.921875 76.890625 C 80.199219 76.636719 80.433594 76.347656 80.625 76.019531 L 80.65625 75.960938 C 80.6875 75.898438 80.671875 75.855469 80.609375 75.824219 C 80.550781 75.796875 80.503906 75.8125 80.472656 75.871094 C 80.441406 75.933594 80.402344 75.996094 80.367188 76.054688 L 80.351562 76.074219 C 80.351562 76.078125 80.347656 76.082031 80.34375 76.085938 C 80.335938 76.101562 80.359375 76.0625 80.34375 76.082031 L 80.316406 76.125 C 80.296875 76.152344 80.277344 76.183594 80.253906 76.210938 C 80.171875 76.324219 80.085938 76.429688 79.992188 76.535156 C 79.941406 76.585938 79.894531 76.636719 79.84375 76.6875 C 79.816406 76.710938 79.792969 76.734375 79.765625 76.757812 L 79.746094 76.777344 C 79.742188 76.78125 79.734375 76.789062 79.753906 76.769531 L 79.746094 76.777344 L 79.703125 76.816406 C 79.476562 77.011719 79.230469 77.175781 78.964844 77.316406 L 78.988281 77.300781 C 78.796875 77.398438 78.601562 77.480469 78.394531 77.542969 C 78.332031 77.566406 78.3125 77.609375 78.335938 77.671875 C 78.359375 77.734375 78.402344 77.757812 78.464844 77.734375 Z M 78.46875 77.734375 " fill-opacity="1" fill-rule="nonzero"/><path fill="#3a3f58" d="M 85.402344 76.085938 C 85.523438 76.222656 85.652344 76.351562 85.792969 76.472656 C 85.9375 76.597656 86.089844 76.710938 86.253906 76.8125 C 86.414062 76.914062 86.585938 77.003906 86.761719 77.078125 C 86.929688 77.152344 87.101562 77.214844 87.28125 77.265625 C 87.464844 77.316406 87.648438 77.351562 87.835938 77.375 L 87.90625 77.378906 C 87.972656 77.382812 88.007812 77.351562 88.011719 77.285156 C 88.011719 77.21875 87.980469 77.179688 87.914062 77.175781 C 87.84375 77.171875 87.773438 77.160156 87.703125 77.152344 L 87.679688 77.144531 L 87.667969 77.144531 C 87.648438 77.140625 87.691406 77.148438 87.671875 77.144531 L 87.621094 77.136719 L 87.519531 77.113281 C 87.386719 77.085938 87.25 77.046875 87.121094 77.003906 C 87.050781 76.980469 86.988281 76.953125 86.921875 76.925781 C 86.886719 76.914062 86.855469 76.902344 86.824219 76.886719 L 86.800781 76.875 C 86.792969 76.875 86.78125 76.867188 86.808594 76.878906 L 86.796875 76.875 L 86.746094 76.851562 C 86.476562 76.722656 86.222656 76.5625 85.992188 76.375 L 86.011719 76.390625 C 85.847656 76.253906 85.695312 76.109375 85.554688 75.945312 C 85.511719 75.894531 85.460938 75.894531 85.414062 75.941406 C 85.367188 75.988281 85.363281 76.035156 85.410156 76.085938 Z M 85.402344 76.085938 " fill-opacity="1" fill-rule="nonzero"/><path fill="#f9bb46" d="M 80.253906 104.667969 C 80.703125 105.117188 81.109375 105.609375 81.460938 106.140625 C 81.816406 106.671875 82.117188 107.230469 82.363281 107.820312 C 82.605469 108.410156 82.792969 109.019531 82.914062 109.648438 C 83.039062 110.273438 83.101562 110.90625 83.101562 111.542969 C 83.101562 112.183594 83.039062 112.816406 82.914062 113.441406 C 82.792969 114.066406 82.605469 114.675781 82.363281 115.265625 C 82.117188 115.855469 81.816406 116.417969 81.460938 116.949219 C 81.109375 117.480469 80.703125 117.96875 80.253906 118.421875 C 79.800781 118.875 79.308594 119.277344 78.777344 119.632812 C 78.246094 119.984375 77.683594 120.285156 77.09375 120.53125 C 76.503906 120.773438 75.894531 120.960938 75.269531 121.082031 C 74.640625 121.207031 74.007812 121.269531 73.371094 121.269531 C 72.730469 121.269531 72.097656 121.207031 71.472656 121.082031 C 70.84375 120.960938 70.234375 120.773438 69.644531 120.53125 C 69.054688 120.285156 68.492188 119.984375 67.960938 119.632812 C 67.429688 119.277344 66.9375 118.875 66.488281 118.421875 C 66.035156 117.96875 65.632812 117.480469 65.277344 116.949219 C 64.921875 116.417969 64.621094 115.855469 64.378906 115.265625 C 64.132812 114.675781 63.949219 114.066406 63.824219 113.441406 C 63.699219 112.816406 63.636719 112.183594 63.636719 111.542969 C 63.636719 110.90625 63.699219 110.273438 63.824219 109.648438 C 63.949219 109.019531 64.132812 108.410156 64.378906 107.820312 C 64.621094 107.230469 64.921875 106.671875 65.277344 106.140625 C 65.632812 105.609375 66.035156 105.117188 66.488281 104.667969 C 66.9375 104.214844 67.429688 103.8125 67.960938 103.457031 C 68.492188 103.101562 69.054688 102.800781 69.644531 102.558594 C 70.234375 102.3125 70.84375 102.128906 71.472656 102.003906 C 72.097656 101.878906 72.730469 101.816406 73.371094 101.816406 C 74.007812 101.816406 74.640625 101.878906 75.269531 102.003906 C 75.894531 102.128906 76.503906 102.3125 77.09375 102.558594 C 77.683594 102.800781 78.246094 103.101562 78.777344 103.457031 C 79.308594 103.8125 79.800781 104.214844 80.253906 104.667969 Z M 80.253906 104.667969 " fill-opacity="1" fill-rule="nonzero"/><path fill="#3a3f58" d="M 78.078125 115.6875 L 78.878906 114.300781 C 78.949219 114.179688 78.941406 114.0625 78.855469 113.953125 C 78.769531 113.839844 78.660156 113.804688 78.523438 113.839844 C 75.328125 114.710938 71.878906 114.664062 68.203125 113.796875 C 68.070312 113.765625 67.960938 113.804688 67.878906 113.917969 C 67.796875 114.027344 67.792969 114.140625 67.859375 114.261719 L 68.683594 115.6875 C 70.773438 119.300781 75.992188 119.300781 78.078125 115.6875 Z M 78.078125 115.6875 " fill-opacity="1" fill-rule="nonzero"/><path fill="#f75254" d="M 65.472656 101.582031 C 61.574219 100.417969 59.585938 107.0625 63.480469 108.230469 L 69.191406 109.9375 C 69.453125 110.015625 69.703125 109.992188 69.941406 109.863281 C 70.179688 109.734375 70.339844 109.539062 70.414062 109.28125 L 72.125 103.570312 C 73.363281 99.441406 66.710938 97.449219 65.472656 101.582031 Z M 65.472656 101.582031 " fill-opacity="1" fill-rule="nonzero"/><path fill="#f75254" d="M 80.921875 101.238281 C 84.691406 99.710938 87.300781 106.140625 83.527344 107.667969 L 78.003906 109.90625 C 77.753906 110.007812 77.503906 110.007812 77.253906 109.902344 C 77.003906 109.796875 76.828125 109.617188 76.726562 109.367188 L 74.484375 103.847656 C 72.863281 99.851562 79.300781 97.242188 80.921875 101.238281 Z M 80.921875 101.238281 " fill-opacity="1" fill-rule="nonzero"/><path fill="#de917a" d="M 30.46875 238.605469 L 30.238281 241.503906 L 26.84375 241.234375 L 27.074219 238.335938 Z M 30.46875 238.605469 " fill-opacity="1" fill-rule="nonzero"/><path fill="#383c47" d="M 28.726562 236.089844 C 27.289062 235.296875 26.273438 232.886719 25.246094 230.515625 C 24.855469 229.890625 23.890625 230.171875 23.898438 230.910156 L 23.992188 240.753906 C 23.996094 240.941406 24.0625 241.097656 24.195312 241.226562 C 24.332031 241.355469 24.492188 241.414062 24.675781 241.410156 L 28.574219 241.277344 C 28.75 241.269531 28.875 241.1875 28.953125 241.027344 C 29.03125 240.871094 29.019531 240.71875 28.917969 240.574219 C 28.347656 239.773438 27.710938 238.3125 28.738281 236.542969 C 28.824219 236.390625 28.820312 236.238281 28.726562 236.089844 Z M 28.726562 236.089844 " fill-opacity="1" fill-rule="nonzero"/><path fill="#de917a" d="M 186.519531 239.164062 L 186.617188 242.0625 L 183.226562 242.175781 L 183.125 239.277344 Z M 186.519531 239.164062 " fill-opacity="1" fill-rule="nonzero"/><path fill="#383c47" d="M 185.617188 237.9375 C 187.09375 237.21875 188.230469 234.863281 189.371094 232.546875 C 189.792969 231.941406 190.742188 232.269531 190.699219 233.007812 L 190.109375 242.835938 C 190.101562 243.019531 190.023438 243.171875 189.882812 243.296875 C 189.746094 243.417969 189.582031 243.46875 189.398438 243.453125 L 185.511719 243.128906 C 185.335938 243.113281 185.214844 243.023438 185.144531 242.859375 C 185.074219 242.699219 185.09375 242.546875 185.203125 242.410156 C 185.8125 241.636719 186.519531 240.210938 185.585938 238.390625 C 185.503906 238.234375 185.515625 238.082031 185.617188 237.9375 Z M 185.617188 237.9375 " fill-opacity="1" fill-rule="nonzero"/><path fill="#272c46" d="M 31.835938 235.527344 C 35.445312 235.210938 49.753906 233.96875 66.738281 232.71875 C 67.183594 232.683594 67.625 232.621094 68.0625 232.519531 C 71.78125 231.667969 90.375 227.386719 99.039062 224.824219 C 100.558594 224.375 102.109375 224.152344 103.695312 224.152344 L 117.945312 224.152344 C 120.035156 224.152344 122.050781 224.535156 123.992188 225.304688 C 129.429688 227.464844 141.769531 231.929688 151.761719 232.375 C 151.761719 232.375 171.605469 233.191406 183.0625 235.605469 C 183.242188 235.644531 183.414062 235.714844 183.570312 235.8125 C 183.726562 235.914062 183.859375 236.042969 183.96875 236.191406 C 184.078125 236.34375 184.15625 236.507812 184.207031 236.6875 C 184.253906 236.867188 184.269531 237.050781 184.25 237.234375 L 183.652344 243 C 183.632812 243.195312 183.578125 243.375 183.488281 243.546875 C 183.398438 243.714844 183.28125 243.863281 183.136719 243.988281 C 182.988281 244.117188 182.824219 244.210938 182.644531 244.273438 C 182.460938 244.335938 182.273438 244.363281 182.082031 244.355469 C 173.90625 243.972656 132.558594 241.886719 110.90625 237.664062 C 110.90625 237.664062 61.804688 243.082031 31.121094 242.113281 C 30.953125 242.109375 30.792969 242.070312 30.644531 241.996094 C 30.492188 241.921875 30.363281 241.816406 30.257812 241.6875 C 30.152344 241.554688 30.078125 241.410156 30.039062 241.246094 C 29.996094 241.082031 29.992188 240.917969 30.019531 240.753906 L 30.800781 236.472656 C 30.847656 236.21875 30.964844 236 31.160156 235.824219 C 31.351562 235.652344 31.578125 235.550781 31.835938 235.527344 Z M 31.835938 235.527344 " fill-opacity="1" fill-rule="nonzero"/><path fill="#21374e" d="M 99.75 193.78125 C 99.75 193.78125 92.390625 196.417969 92.265625 188.476562 C 92.265625 188.476562 86.285156 186.851562 90.8125 181.300781 C 90.8125 181.300781 85.515625 177.070312 92.398438 174.042969 C 92.398438 174.042969 89.921875 166.65625 97.183594 168.238281 C 97.183594 168.238281 98.339844 161.660156 103.253906 164.011719 C 103.253906 164.011719 105.007812 158.332031 110.433594 161.238281 C 110.433594 161.238281 114.40625 156.714844 116.371094 160.429688 C 116.371094 160.429688 121.5 158.210938 122.179688 163.890625 C 122.179688 163.890625 127.351562 163.976562 126.152344 167.5625 C 126.152344 167.5625 132.777344 169.828125 128.800781 173.796875 C 128.800781 173.796875 135.613281 175.964844 129.269531 181.8125 C 129.269531 181.8125 130.566406 188.410156 120.777344 188.769531 Z M 99.75 193.78125 " fill-opacity="1" fill-rule="nonzero"/><path fill="#de917a" d="M 147.972656 197.9375 C 147.972656 197.9375 151.03125 194.808594 154.84375 194.820312 C 154.84375 194.820312 156.972656 194.578125 158.523438 194.203125 C 159.144531 194.050781 159.746094 194.4375 159.605469 194.894531 C 159.136719 196.417969 157.214844 199.042969 149.601562 199.417969 Z M 147.972656 197.9375 " fill-opacity="1" fill-rule="nonzero"/><path fill="#de917a" d="M 72.574219 197.9375 C 72.574219 197.9375 69.515625 194.808594 65.703125 194.820312 C 65.703125 194.820312 63.574219 194.578125 62.023438 194.203125 C 61.402344 194.050781 60.800781 194.4375 60.941406 194.894531 C 61.410156 196.417969 63.332031 199.042969 70.945312 199.417969 Z M 72.574219 197.9375 " fill-opacity="1" fill-rule="nonzero"/><path fill="#cdbaa9" d="M 107.296875 185.484375 C 105.816406 185.539062 104.378906 185.824219 102.992188 186.347656 L 96.007812 188.960938 C 95.621094 189.109375 95.316406 189.355469 95.089844 189.699219 C 94.863281 190.046875 94.761719 190.425781 94.785156 190.839844 L 97.648438 225 C 97.691406 225.488281 97.9375 225.835938 98.390625 226.035156 C 104.882812 228.886719 113.839844 227.902344 123.441406 225.917969 C 123.71875 225.859375 123.953125 225.71875 124.136719 225.5 C 124.324219 225.28125 124.421875 225.03125 124.429688 224.746094 L 125.6875 189.921875 C 125.691406 189.707031 125.628906 189.515625 125.507812 189.339844 C 125.390625 189.164062 125.230469 189.039062 125.03125 188.96875 L 117.519531 186.164062 C 115.824219 185.527344 114.066406 185.242188 112.253906 185.308594 Z M 107.296875 185.484375 " fill-opacity="1" fill-rule="nonzero"/><path fill="#cdbaa9" d="M 125.3125 189.125 L 137.058594 199.355469 C 137.523438 199.757812 138.058594 199.996094 138.667969 200.066406 C 139.28125 200.136719 139.855469 200.027344 140.398438 199.738281 L 147.460938 195.988281 C 147.589844 195.917969 147.730469 195.894531 147.875 195.921875 C 148.019531 195.949219 148.144531 196.015625 148.242188 196.125 L 151.703125 199.96875 C 151.824219 200.101562 151.882812 200.261719 151.871094 200.441406 C 151.859375 200.621094 151.785156 200.773438 151.644531 200.890625 L 144.5 207.035156 C 144.035156 207.4375 143.535156 207.792969 143.007812 208.109375 C 142.476562 208.421875 141.921875 208.6875 141.347656 208.902344 C 140.769531 209.121094 140.179688 209.285156 139.574219 209.398438 C 138.96875 209.511719 138.359375 209.570312 137.742188 209.578125 C 137.125 209.582031 136.515625 209.535156 135.90625 209.433594 C 135.300781 209.328125 134.707031 209.175781 134.125 208.96875 C 133.546875 208.761719 132.988281 208.507812 132.453125 208.203125 C 131.917969 207.898438 131.414062 207.550781 130.9375 207.15625 L 121.867188 199.636719 Z M 125.3125 189.125 " fill-opacity="1" fill-rule="nonzero"/><path fill="#cdbaa9" d="M 95.351562 189.382812 L 85.023438 198.492188 C 84.660156 198.816406 84.253906 199.074219 83.8125 199.277344 C 83.367188 199.476562 82.902344 199.605469 82.421875 199.664062 C 81.9375 199.71875 81.457031 199.703125 80.980469 199.613281 C 80.5 199.527344 80.046875 199.367188 79.617188 199.140625 L 73.683594 195.988281 C 73.554688 195.917969 73.414062 195.894531 73.269531 195.921875 C 73.121094 195.949219 73 196.015625 72.898438 196.125 L 69.4375 199.96875 C 69.316406 200.101562 69.261719 200.261719 69.273438 200.441406 C 69.285156 200.625 69.359375 200.773438 69.496094 200.890625 L 75.484375 206.042969 C 76.03125 206.511719 76.617188 206.929688 77.238281 207.300781 C 77.859375 207.667969 78.507812 207.976562 79.179688 208.230469 C 79.855469 208.484375 80.550781 208.679688 81.257812 208.8125 C 81.96875 208.941406 82.683594 209.011719 83.40625 209.019531 C 84.125 209.027344 84.84375 208.96875 85.554688 208.847656 C 86.265625 208.730469 86.960938 208.550781 87.640625 208.308594 C 88.320312 208.066406 88.976562 207.765625 89.601562 207.410156 C 90.230469 207.054688 90.820312 206.644531 91.375 206.183594 L 99.277344 199.636719 Z M 95.351562 189.382812 " fill-opacity="1" fill-rule="nonzero"/><path fill="#9e8f82" d="M 96.785156 196.339844 C 96.722656 197.546875 96.4375 198.699219 95.929688 199.796875 C 95.851562 199.964844 95.882812 200.164062 96.054688 200.261719 C 96.203125 200.351562 96.445312 200.308594 96.523438 200.140625 C 97.082031 198.933594 97.398438 197.667969 97.472656 196.339844 C 97.492188 195.898438 96.8125 195.902344 96.785156 196.339844 Z M 96.785156 196.339844 " fill-opacity="1" fill-rule="nonzero"/><path fill="#9e8f82" d="M 124.179688 195.867188 C 124.242188 197.613281 124.609375 199.289062 125.28125 200.902344 C 125.355469 201.074219 125.507812 201.191406 125.703125 201.140625 C 125.867188 201.097656 126.015625 200.890625 125.945312 200.71875 C 125.289062 199.167969 124.929688 197.550781 124.867188 195.867188 C 124.847656 195.429688 124.164062 195.425781 124.179688 195.867188 Z M 124.179688 195.867188 " fill-opacity="1" fill-rule="nonzero"/><path fill="#c7826d" d="M 108.480469 181.425781 L 107.511719 184.660156 C 107.332031 185.261719 107.378906 185.847656 107.660156 186.410156 C 108.59375 188.238281 110.960938 191.820312 112.992188 186.230469 C 113.191406 185.671875 113.183594 185.113281 112.96875 184.554688 L 111.738281 181.425781 Z M 108.480469 181.425781 " fill-opacity="1" fill-rule="nonzero"/><path fill="#de917a" d="M 111.386719 168.691406 C 111.738281 168.726562 112.078125 168.808594 112.414062 168.933594 C 112.75 169.058594 113.070312 169.230469 113.378906 169.441406 C 113.683594 169.652344 113.972656 169.902344 114.238281 170.195312 C 114.503906 170.484375 114.742188 170.808594 114.957031 171.164062 C 115.171875 171.519531 115.359375 171.902344 115.515625 172.3125 C 115.671875 172.722656 115.792969 173.148438 115.882812 173.59375 C 115.976562 174.042969 116.03125 174.5 116.054688 174.964844 C 116.074219 175.429688 116.0625 175.898438 116.015625 176.367188 C 115.96875 176.835938 115.886719 177.296875 115.773438 177.75 C 115.65625 178.203125 115.511719 178.636719 115.332031 179.058594 C 115.152344 179.476562 114.949219 179.871094 114.714844 180.242188 C 114.476562 180.609375 114.21875 180.949219 113.9375 181.253906 C 113.65625 181.5625 113.355469 181.832031 113.039062 182.0625 C 112.71875 182.292969 112.386719 182.480469 112.046875 182.628906 C 111.703125 182.773438 111.355469 182.875 111 182.933594 C 110.644531 182.988281 110.292969 183 109.941406 182.964844 C 109.589844 182.929688 109.246094 182.847656 108.910156 182.722656 C 108.578125 182.59375 108.253906 182.425781 107.949219 182.214844 C 107.640625 182 107.355469 181.75 107.089844 181.460938 C 106.824219 181.171875 106.582031 180.847656 106.367188 180.492188 C 106.152344 180.132812 105.96875 179.75 105.8125 179.34375 C 105.65625 178.933594 105.53125 178.503906 105.441406 178.058594 C 105.351562 177.613281 105.296875 177.15625 105.273438 176.6875 C 105.25 176.222656 105.265625 175.753906 105.3125 175.285156 C 105.359375 174.816406 105.441406 174.359375 105.554688 173.90625 C 105.667969 173.453125 105.816406 173.015625 105.996094 172.597656 C 106.171875 172.175781 106.378906 171.78125 106.613281 171.414062 C 106.847656 171.042969 107.105469 170.703125 107.390625 170.398438 C 107.671875 170.09375 107.972656 169.824219 108.289062 169.59375 C 108.609375 169.363281 108.9375 169.171875 109.28125 169.027344 C 109.625 168.878906 109.972656 168.777344 110.328125 168.722656 C 110.679688 168.664062 111.035156 168.65625 111.386719 168.691406 Z M 111.386719 168.691406 " fill-opacity="1" fill-rule="nonzero"/><path fill="#de917a" d="M 116.628906 176.035156 C 116.5 176.878906 116.140625 177.519531 115.828125 177.464844 C 115.511719 177.414062 115.363281 176.6875 115.492188 175.847656 C 115.621094 175.003906 115.980469 174.363281 116.292969 174.414062 C 116.605469 174.46875 116.753906 175.195312 116.628906 176.035156 Z M 116.628906 176.035156 " fill-opacity="1" fill-rule="nonzero"/><path fill="#de917a" d="M 105.386719 173.308594 C 105.464844 173.3125 105.535156 173.355469 105.601562 173.4375 C 105.667969 173.519531 105.722656 173.632812 105.769531 173.78125 C 105.816406 173.929688 105.851562 174.097656 105.867188 174.289062 C 105.886719 174.476562 105.890625 174.675781 105.882812 174.878906 C 105.871094 175.085938 105.847656 175.28125 105.808594 175.46875 C 105.769531 175.65625 105.71875 175.820312 105.65625 175.960938 C 105.59375 176.101562 105.527344 176.210938 105.453125 176.285156 C 105.378906 176.359375 105.300781 176.394531 105.226562 176.390625 C 105.148438 176.386719 105.078125 176.34375 105.011719 176.261719 C 104.945312 176.179688 104.890625 176.066406 104.84375 175.917969 C 104.796875 175.773438 104.765625 175.601562 104.746094 175.414062 C 104.726562 175.222656 104.722656 175.023438 104.734375 174.820312 C 104.742188 174.617188 104.769531 174.417969 104.808594 174.230469 C 104.847656 174.042969 104.898438 173.878906 104.957031 173.738281 C 105.019531 173.597656 105.085938 173.488281 105.164062 173.414062 C 105.238281 173.339844 105.3125 173.304688 105.386719 173.308594 Z M 105.386719 173.308594 " fill-opacity="1" fill-rule="nonzero"/><path fill="#ffffff" d="M 110.476562 177.925781 C 109.703125 177.851562 108.960938 177.65625 108.25 177.339844 C 108.039062 177.242188 107.867188 177.898438 108.03125 178.175781 C 108.148438 178.378906 108.289062 178.566406 108.453125 178.738281 C 108.613281 178.90625 108.792969 179.054688 108.992188 179.183594 C 109.1875 179.3125 109.398438 179.414062 109.621094 179.492188 C 109.839844 179.570312 110.070312 179.621094 110.304688 179.644531 C 110.539062 179.667969 110.769531 179.664062 111.003906 179.632812 C 111.238281 179.601562 111.464844 179.542969 111.683594 179.457031 C 111.902344 179.371094 112.105469 179.261719 112.300781 179.125 C 112.492188 178.992188 112.667969 178.835938 112.824219 178.660156 C 113.039062 178.421875 113.003906 177.742188 112.777344 177.796875 C 112.015625 177.964844 111.25 178.007812 110.476562 177.925781 Z M 110.476562 177.925781 " fill-opacity="1" fill-rule="nonzero"/><path fill="#f55356" d="M 86.3125 160.582031 C 86.3125 161.246094 86.246094 161.902344 86.117188 162.550781 C 85.988281 163.199219 85.796875 163.832031 85.542969 164.441406 C 85.289062 165.054688 84.980469 165.636719 84.613281 166.1875 C 84.242188 166.738281 83.824219 167.246094 83.355469 167.714844 C 82.886719 168.183594 82.378906 168.601562 81.828125 168.96875 C 81.277344 169.335938 80.695312 169.648438 80.082031 169.898438 C 79.46875 170.152344 78.839844 170.34375 78.1875 170.472656 C 77.539062 170.601562 76.882812 170.667969 76.21875 170.667969 C 75.558594 170.667969 74.902344 170.601562 74.25 170.472656 C 73.601562 170.34375 72.96875 170.152344 72.359375 169.898438 C 71.746094 169.648438 71.164062 169.335938 70.613281 168.96875 C 70.0625 168.601562 69.550781 168.183594 69.085938 167.714844 C 68.617188 167.246094 68.195312 166.738281 67.828125 166.1875 C 67.460938 165.636719 67.148438 165.054688 66.898438 164.441406 C 66.644531 163.832031 66.453125 163.199219 66.320312 162.550781 C 66.191406 161.902344 66.128906 161.246094 66.128906 160.582031 C 66.128906 159.921875 66.191406 159.265625 66.320312 158.617188 C 66.453125 157.964844 66.644531 157.335938 66.898438 156.722656 C 67.148438 156.113281 67.460938 155.53125 67.828125 154.980469 C 68.195312 154.429688 68.617188 153.917969 69.085938 153.453125 C 69.550781 152.984375 70.0625 152.566406 70.613281 152.199219 C 71.164062 151.828125 71.746094 151.519531 72.359375 151.265625 C 72.96875 151.011719 73.601562 150.820312 74.25 150.691406 C 74.902344 150.5625 75.558594 150.496094 76.21875 150.496094 C 76.882812 150.496094 77.539062 150.5625 78.1875 150.691406 C 78.839844 150.820312 79.46875 151.011719 80.082031 151.265625 C 80.695312 151.519531 81.277344 151.828125 81.828125 152.199219 C 82.378906 152.566406 82.886719 152.984375 83.355469 153.453125 C 83.824219 153.917969 84.242188 154.429688 84.613281 154.980469 C 84.980469 155.53125 85.289062 156.113281 85.542969 156.722656 C 85.796875 157.335938 85.988281 157.964844 86.117188 158.617188 C 86.246094 159.265625 86.3125 159.921875 86.3125 160.582031 Z M 86.3125 160.582031 " fill-opacity="1" fill-rule="nonzero"/><path fill="#ffffff" d="M 78.046875 162.867188 L 72.652344 157.476562 C 72.511719 157.335938 72.402344 157.175781 72.324219 156.992188 C 72.25 156.808594 72.210938 156.617188 72.210938 156.417969 C 72.210938 156.21875 72.25 156.027344 72.324219 155.84375 C 72.402344 155.660156 72.507812 155.5 72.648438 155.359375 C 72.789062 155.21875 72.953125 155.109375 73.136719 155.035156 C 73.320312 154.957031 73.511719 154.917969 73.710938 154.917969 C 73.910156 154.921875 74.101562 154.957031 74.285156 155.035156 C 74.46875 155.109375 74.628906 155.21875 74.769531 155.359375 L 77.421875 158.011719 L 84.796875 145.453125 C 84.898438 145.28125 85.027344 145.136719 85.1875 145.019531 C 85.34375 144.898438 85.519531 144.8125 85.714844 144.765625 C 85.90625 144.714844 86.101562 144.703125 86.296875 144.730469 C 86.492188 144.757812 86.679688 144.824219 86.847656 144.921875 C 87.019531 145.023438 87.167969 145.152344 87.285156 145.3125 C 87.40625 145.46875 87.492188 145.644531 87.539062 145.839844 C 87.589844 146.03125 87.601562 146.226562 87.574219 146.421875 C 87.546875 146.617188 87.484375 146.800781 87.382812 146.972656 Z M 78.046875 162.867188 " fill-opacity="1" fill-rule="nonzero"/></svg>