<svg xmlns="http://www.w3.org/2000/svg" xmlns:xlink="http://www.w3.org/1999/xlink" width="54" zoomAndPan="magnify" viewBox="0 0 40.5 44.999999" height="60" preserveAspectRatio="xMidYMid meet" version="1.0"><defs><clipPath id="ca8e5c8273"><path d="M 11 15 L 35 15 L 35 44.726562 L 11 44.726562 Z M 11 15 " clip-rule="nonzero"/></clipPath><clipPath id="e7c8817406"><path d="M 19 35 L 35 35 L 35 44.726562 L 19 44.726562 Z M 19 35 " clip-rule="nonzero"/></clipPath><clipPath id="b8eeb8fbb9"><path d="M 31 36 L 35 36 L 35 44.726562 L 31 44.726562 Z M 31 36 " clip-rule="nonzero"/></clipPath><clipPath id="7e6b914c77"><path d="M 24 43 L 27 43 L 27 44.726562 L 24 44.726562 Z M 24 43 " clip-rule="nonzero"/></clipPath><clipPath id="ae709cee4e"><path d="M 13 35 L 18 35 L 18 44.726562 L 13 44.726562 Z M 13 35 " clip-rule="nonzero"/></clipPath><clipPath id="43a15fd135"><path d="M 11 25 L 21 25 L 21 44.726562 L 11 44.726562 Z M 11 25 " clip-rule="nonzero"/></clipPath><clipPath id="cceb94d781"><path d="M 13 34 L 17 34 L 17 44.726562 L 13 44.726562 Z M 13 34 " clip-rule="nonzero"/></clipPath><clipPath id="df8e227899"><path d="M 16 0.398438 L 26 0.398438 L 26 9 L 16 9 Z M 16 0.398438 " clip-rule="nonzero"/></clipPath></defs><g clip-path="url(#ca8e5c8273)"><path fill="#fed8b9" d="M 23.359375 39.789062 C 23.984375 38.691406 22 35.167969 20.816406 34.382812 C 20.59375 34.605469 20.347656 34.851562 20.148438 35.054688 C 18.027344 37.1875 17.539062 35.929688 17.382812 35.773438 C 17.226562 35.59375 17.136719 34.898438 16.980469 34.671875 C 16.847656 34.449219 16.066406 34.515625 15.929688 34.269531 C 15.796875 34.023438 15.929688 33.574219 15.929688 33.574219 C 15.929688 33.574219 15.394531 33.417969 15.148438 33.261719 C 14.90625 33.101562 14.792969 33.058594 14.816406 32.675781 C 14.835938 32.292969 14.613281 31.9375 14.191406 31.9375 C 13.746094 31.914062 13.140625 32.046875 12.941406 31.734375 C 12.761719 31.464844 13.121094 30.679688 13.121094 29.78125 C 13.121094 29.332031 13.121094 28.839844 12.984375 28.480469 C 12.917969 28.277344 12.761719 28.144531 12.652344 27.964844 C 11.3125 25.675781 11.199219 23.003906 12.117188 20.714844 C 12.761719 19.097656 13.921875 17.6875 15.53125 16.742188 C 19.410156 14.453125 24.410156 15.753906 26.6875 19.660156 C 27.734375 21.457031 28.023438 23.519531 27.667969 25.429688 C 27.847656 25.695312 27.777344 30.296875 27.957031 31.238281 C 28.382812 33.507812 32.84375 37.679688 33.15625 38.960938 C 33.46875 40.238281 34.539062 44.75 34.539062 44.75 L 19.277344 44.503906 C 19.277344 44.503906 20.460938 43.335938 21.574219 42.078125 C 22.3125 41.25 23.027344 40.394531 23.359375 39.789062 Z M 23.359375 39.789062 " fill-opacity="1" fill-rule="nonzero"/></g><path fill="#a45b3d" d="M 11.535156 32.632812 C 11.511719 32.632812 11.492188 32.632812 11.46875 32.609375 C 10.957031 32.339844 10.800781 31.890625 10.753906 31.554688 C 10.710938 31.195312 10.753906 30.769531 10.910156 30.453125 C 11.445312 29.398438 10.886719 28.34375 10.621094 27.917969 C 10.085938 27.066406 9.707031 26.214844 9.527344 25.339844 C 9.394531 24.640625 9.371094 23.945312 9.460938 23.273438 C 9.640625 22.128906 10.085938 21.433594 10.109375 21.386719 C 10.152344 21.320312 10.21875 21.320312 10.285156 21.367188 C 10.332031 21.410156 10.351562 21.476562 10.308594 21.546875 C 10.308594 21.546875 9.863281 22.242188 9.707031 23.339844 C 9.550781 24.351562 9.640625 25.964844 10.820312 27.808594 C 11.113281 28.253906 11.714844 29.421875 11.113281 30.589844 C 10.886719 31.015625 10.800781 32.003906 11.558594 32.40625 C 11.625 32.429688 11.648438 32.519531 11.601562 32.5625 C 11.625 32.609375 11.582031 32.632812 11.535156 32.632812 Z M 11.535156 32.632812 " fill-opacity="1" fill-rule="nonzero"/><path fill="#fcb695" d="M 24.320312 37.570312 C 23.984375 36.199219 23.203125 35.527344 23.046875 34.425781 C 22.890625 33.460938 23.226562 32.203125 23.472656 31.554688 C 23.515625 31.464844 23.5625 31.375 23.585938 31.285156 C 23.605469 31.261719 23.605469 31.238281 23.605469 31.21875 C 23.917969 30.207031 23.046875 28.773438 22.871094 28.882812 C 22.691406 28.972656 23.539062 30.050781 23.359375 30.882812 C 23.292969 31.105469 23.226562 31.328125 23.117188 31.554688 C 22.402344 32.117188 21.175781 33.191406 20.796875 33.191406 C 20.214844 33.214844 20.527344 29.152344 19.234375 27.894531 C 18.875 27.558594 18.074219 27.335938 17.605469 28.34375 C 17.203125 29.199219 17.382812 30.363281 16.867188 29.738281 C 16.355469 29.109375 15.328125 26.820312 14.949219 26.214844 C 13.65625 24.195312 11.132812 24.125 12.808594 20.714844 L 12.160156 20.714844 C 11.246094 23.003906 11.355469 25.675781 12.695312 27.964844 C 12.808594 28.144531 12.964844 28.277344 13.03125 28.480469 C 13.164062 28.839844 13.164062 29.355469 13.164062 29.78125 C 13.164062 30.679688 12.808594 31.464844 12.984375 31.734375 C 13.1875 32.046875 13.789062 31.914062 14.234375 31.9375 C 14.679688 31.957031 14.882812 32.316406 14.859375 32.675781 C 14.835938 33.058594 14.949219 33.101562 15.195312 33.261719 C 15.441406 33.417969 15.976562 33.574219 15.976562 33.574219 C 15.976562 33.574219 15.820312 34.046875 15.976562 34.269531 C 16.109375 34.515625 16.890625 34.449219 17.023438 34.671875 C 17.160156 34.898438 17.269531 35.59375 17.425781 35.773438 C 17.582031 35.953125 18.074219 37.210938 20.191406 35.054688 C 20.414062 34.832031 20.640625 34.605469 20.863281 34.382812 C 22.042969 35.167969 23.09375 38.152344 22.132812 40.394531 C 21.867188 41.023438 22.355469 41.25 21.644531 42.078125 C 22.691406 41.765625 23.984375 41.269531 24.277344 40.644531 C 24.746094 39.519531 24.65625 38.914062 24.320312 37.570312 Z M 24.320312 37.570312 " fill-opacity="1" fill-rule="nonzero"/><path fill="#5f1412" d="M 13.230469 27.335938 C 12.71875 27.222656 12.71875 27.089844 13.054688 26.863281 C 13.386719 26.640625 13.476562 26.125 13.988281 25.832031 C 14.503906 25.539062 15.460938 25.40625 15.460938 25.40625 C 15.460938 25.40625 15.6875 25.429688 15.375 25.5625 C 15.0625 25.695312 14.234375 25.988281 14.011719 26.324219 C 13.765625 26.640625 13.363281 27.378906 13.230469 27.335938 Z M 13.230469 27.335938 " fill-opacity="1" fill-rule="nonzero"/><path fill="#b6764e" d="M 30.144531 26.75 C 29.875 28.367188 28.382812 29.984375 27.890625 29.847656 C 27.691406 29.804688 27.398438 29.601562 27.042969 29.308594 C 26.015625 28.480469 24.65625 27 24.699219 26.929688 C 24.832031 26.730469 24.988281 26.460938 25.078125 26.144531 C 25.324219 25.40625 25.28125 24.417969 24.121094 23.609375 C 22.46875 22.464844 21.644531 24.574219 21.644531 24.574219 C 21.644531 24.574219 16.175781 23.902344 12.917969 21.636719 C 12.917969 21.636719 12.808594 21.589844 12.515625 21.746094 C 12.40625 21.816406 12.273438 21.90625 12.117188 22.0625 C 11.960938 22.195312 11.625 22.601562 11.582031 22.9375 C 11.402344 24.621094 13.988281 32.046875 13.054688 30.566406 C 11.222656 27.671875 9.082031 24.890625 9.996094 21.792969 C 10.351562 20.625 11.355469 19.347656 12.429688 18.246094 C 13.277344 17.371094 14.214844 16.632812 14.992188 16.203125 C 16.691406 15.261719 18.230469 14.542969 19.945312 14.523438 C 20.527344 14.523438 21.109375 14.589844 21.730469 14.769531 C 21.6875 14.410156 21.621094 13.488281 21.800781 12.613281 C 22.066406 11.378906 22.824219 10.167969 24.855469 10.480469 C 26.976562 10.796875 28.070312 11.625 28.738281 12.589844 C 29.09375 13.085938 29.320312 13.644531 29.519531 14.183594 C 30.03125 15.644531 27.890625 17.257812 27.019531 17.507812 C 28.359375 18.628906 29.542969 20.152344 30.078125 22.242188 C 30.167969 22.621094 30.253906 23.027344 30.300781 23.453125 C 30.390625 24.417969 30.367188 25.539062 30.144531 26.75 Z M 30.144531 26.75 " fill-opacity="1" fill-rule="nonzero"/><path fill="#d87939" d="M 14.371094 30.523438 C 14.769531 30.542969 15.0625 30.613281 15.238281 30.882812 C 15.394531 31.171875 15.394531 31.375 15.304688 31.53125 C 15.21875 31.6875 15.285156 31.375 15.105469 31.0625 C 14.925781 30.769531 14.167969 30.523438 14.371094 30.523438 Z M 14.371094 30.523438 " fill-opacity="1" fill-rule="nonzero"/><path fill="#fcb695" d="M 23.382812 26.75 C 23.027344 26.730469 22.355469 25.359375 22.355469 25.113281 C 22.378906 24.867188 22.960938 23.925781 23.585938 24.214844 C 24.230469 24.507812 24.453125 25.25 24.230469 25.808594 C 24.007812 26.414062 23.671875 26.773438 23.382812 26.75 Z M 23.382812 26.75 " fill-opacity="1" fill-rule="nonzero"/><path fill="#d87939" d="M 12.226562 26.28125 C 12.160156 26.550781 12.226562 26.976562 12.40625 27.109375 C 12.585938 27.246094 12.71875 27.402344 12.785156 27.335938 C 12.828125 27.269531 12.496094 27.066406 12.382812 26.863281 C 12.183594 26.527344 12.273438 26.054688 12.226562 26.28125 Z M 12.226562 26.28125 " fill-opacity="1" fill-rule="nonzero"/><path fill="#d87939" d="M 13.878906 27.378906 C 13.789062 27.605469 14.28125 28.390625 14.300781 28.324219 C 14.324219 28.277344 14.414062 28.144531 14.414062 28.144531 C 14.414062 28.144531 14.300781 28.144531 14.101562 27.828125 C 13.921875 27.539062 13.921875 27.3125 13.878906 27.378906 Z M 13.878906 27.378906 " fill-opacity="1" fill-rule="nonzero"/><path fill="#f08b69" d="M 13.878906 27.378906 C 14.035156 27.246094 15.753906 26.820312 15.6875 26.953125 C 15.597656 27.089844 14.882812 27.964844 14.816406 28.007812 C 14.75 28.054688 14.414062 28.300781 14.414062 28.300781 C 14.414062 28.300781 14.144531 28.144531 14.058594 28.007812 C 13.921875 27.785156 13.878906 27.378906 13.878906 27.378906 Z M 13.878906 27.378906 " fill-opacity="1" fill-rule="nonzero"/><path fill="#242422" d="M 15.6875 26.929688 C 15.6875 26.929688 15.550781 27.359375 15.394531 27.628906 C 15.21875 27.894531 14.058594 28.839844 13.988281 28.863281 C 13.921875 28.882812 14.257812 28.480469 14.324219 28.34375 C 14.390625 28.210938 14.4375 28.210938 14.480469 28.121094 C 14.523438 28.03125 15.039062 27.671875 15.328125 27.378906 C 15.617188 27.089844 15.6875 26.929688 15.6875 26.929688 Z M 15.6875 26.929688 " fill-opacity="1" fill-rule="nonzero"/><path fill="#a45b3d" d="M 19.34375 24.800781 C 18.875 24.800781 18.363281 24.753906 17.804688 24.640625 C 16.488281 24.351562 15.417969 23.945312 14.546875 23.339844 C 13.722656 22.800781 13.1875 22.195312 12.808594 21.726562 L 13.007812 21.566406 C 13.902344 22.691406 15.105469 23.789062 17.871094 24.394531 C 18.964844 24.640625 19.949219 24.550781 20.570312 24.441406 C 21.265625 24.328125 21.6875 24.148438 21.6875 24.148438 L 21.777344 24.375 C 21.753906 24.375 21.332031 24.550781 20.617188 24.6875 C 20.28125 24.730469 19.859375 24.800781 19.34375 24.800781 Z M 19.34375 24.800781 " fill-opacity="1" fill-rule="nonzero"/><path fill="#a45b3d" d="M 13.121094 29.78125 C 13.140625 30.34375 13.054688 30.769531 12.984375 31.105469 C 11.492188 28.277344 10.574219 24.621094 10.730469 23.746094 C 11.042969 21.90625 12.515625 21.746094 12.515625 21.746094 C 12.40625 21.816406 12.273438 21.90625 12.117188 22.0625 C 11.960938 22.195312 11.625 22.601562 11.582031 22.9375 C 11.402344 24.621094 11.734375 26.394531 12.652344 27.964844 C 12.761719 28.144531 12.917969 28.277344 12.984375 28.480469 C 13.121094 28.839844 13.121094 29.332031 13.121094 29.78125 Z M 13.121094 29.78125 " fill-opacity="1" fill-rule="nonzero"/><g clip-path="url(#e7c8817406)"><path fill="#a3c0de" d="M 34.5625 44.816406 L 19.054688 44.816406 L 22.511719 39.769531 C 22.511719 39.769531 25.214844 38.355469 26.839844 37.433594 C 28.625 36.445312 30.34375 35.078125 30.34375 35.078125 C 30.34375 35.078125 31.304688 36.042969 31.660156 36.445312 C 31.863281 36.691406 32.152344 37.007812 32.488281 37.457031 C 34.515625 40.171875 34.5625 44.816406 34.5625 44.816406 Z M 34.5625 44.816406 " fill-opacity="1" fill-rule="nonzero"/></g><g clip-path="url(#b8eeb8fbb9)"><path fill="#7ba4c9" d="M 32.152344 44.683594 C 32.152344 44.683594 33.023438 40.441406 31.640625 36.46875 C 31.839844 36.714844 32.128906 37.03125 32.464844 37.480469 C 34.539062 40.195312 34.585938 44.839844 34.585938 44.839844 L 32.128906 44.839844 C 32.128906 44.773438 32.152344 44.683594 32.152344 44.683594 Z M 32.152344 44.683594 " fill-opacity="1" fill-rule="nonzero"/></g><g clip-path="url(#7e6b914c77)"><path fill="#7ba4c9" d="M 25.769531 44.816406 L 24.5 44.816406 C 25.144531 44.078125 25.371094 43.558594 25.769531 43.335938 C 26.195312 43.113281 26.105469 44.054688 25.769531 44.816406 Z M 25.769531 44.816406 " fill-opacity="1" fill-rule="nonzero"/></g><g clip-path="url(#ae709cee4e)"><path fill="#fdcca8" d="M 13.921875 44.816406 C 13.921875 44.816406 14.371094 42.84375 14.613281 41.203125 C 15.195312 37.097656 15.128906 35.414062 15.128906 35.414062 L 17.9375 37.90625 L 15.640625 44.816406 Z M 13.921875 44.816406 " fill-opacity="1" fill-rule="nonzero"/></g><g clip-path="url(#43a15fd135)"><path fill="#fed8b9" d="M 20.148438 34.113281 C 20.148438 35.546875 19.097656 37.90625 19.011719 38.625 C 18.875 39.699219 18.675781 44.816406 18.675781 44.816406 L 14.769531 44.816406 C 14.769531 44.816406 15.6875 38.800781 15.640625 38.355469 C 15.460938 37.03125 14.480469 35.371094 13.878906 34.472656 C 13.65625 34.15625 13.5 33.910156 13.433594 33.84375 C 13.1875 33.527344 12.429688 31.667969 12.429688 31.464844 C 12.429688 31.261719 11.890625 29.128906 11.847656 28.882812 C 11.804688 28.636719 11.535156 27.3125 11.535156 27.132812 C 11.535156 26.953125 11.648438 27.019531 11.648438 27.019531 C 11.648438 27.019531 11.714844 26.886719 11.757812 26.886719 C 11.804688 26.886719 11.804688 26.886719 11.804688 26.886719 C 11.804688 26.886719 11.46875 25.898438 11.648438 25.742188 C 11.847656 25.609375 12.449219 26.144531 12.652344 26.460938 C 12.828125 26.773438 13.519531 28.433594 13.566406 28.503906 C 13.632812 28.570312 14.546875 30.140625 14.636719 30.183594 C 14.75 30.230469 14.101562 28.972656 14.035156 28.703125 C 13.96875 28.433594 13.007812 25.449219 13.386719 25.382812 C 13.765625 25.316406 14.414062 26.101562 14.703125 26.730469 C 14.992188 27.378906 15.171875 28.03125 15.238281 28.210938 C 15.304688 28.390625 15.886719 29.445312 16.132812 29.738281 C 16.378906 30.050781 17.648438 31.9375 17.871094 31.914062 C 18.09375 31.890625 18.027344 30.476562 17.917969 30.320312 C 17.804688 30.164062 17.582031 29.332031 17.738281 28.792969 C 17.917969 28.253906 18.164062 28.007812 18.273438 28.03125 C 18.519531 28.054688 18.765625 28.503906 18.921875 28.816406 C 19.078125 29.128906 19.480469 29.847656 19.523438 30.09375 C 19.636719 30.363281 20.148438 33.753906 20.148438 34.113281 Z M 20.148438 34.113281 " fill-opacity="1" fill-rule="nonzero"/></g><g clip-path="url(#cceb94d781)"><path fill="#fcb695" d="M 16.601562 39.566406 C 16.511719 41.429688 16.308594 44.816406 16.308594 44.816406 L 14.769531 44.816406 C 14.769531 44.816406 15.6875 38.800781 15.640625 38.355469 C 15.460938 37.03125 14.480469 35.371094 13.878906 34.472656 C 14.078125 33.910156 14.636719 35.101562 14.859375 35.414062 C 15.929688 36.984375 16.691406 37.679688 16.601562 39.566406 Z M 16.601562 39.566406 " fill-opacity="1" fill-rule="nonzero"/></g><path fill="#f08b69" d="M 14.636719 30.183594 C 14.636719 30.183594 15.550781 31.554688 15.285156 31.554688 C 15.015625 31.554688 14.636719 30.183594 14.636719 30.183594 Z M 14.636719 30.183594 " fill-opacity="1" fill-rule="nonzero"/><path fill="#f08b69" d="M 11.757812 26.863281 C 11.757812 26.863281 12.808594 29.535156 13.054688 29.984375 C 13.296875 30.453125 14.078125 32.09375 13.878906 31.914062 C 13.675781 31.734375 13.140625 30.589844 12.785156 29.984375 C 12.429688 29.378906 11.757812 26.863281 11.757812 26.863281 Z M 11.757812 26.863281 " fill-opacity="1" fill-rule="nonzero"/><path fill="#f08b69" d="M 13.054688 32.070312 C 13.1875 32.136719 12.292969 30.273438 12.203125 29.828125 C 12.117188 29.378906 11.535156 27.132812 11.535156 27.132812 C 11.535156 27.132812 12.003906 29.578125 12.203125 30.183594 C 12.40625 30.8125 12.828125 31.980469 13.054688 32.070312 Z M 13.054688 32.070312 " fill-opacity="1" fill-rule="nonzero"/><path fill="#a45b3d" d="M 26.261719 32.40625 C 26.441406 34.316406 27.578125 35.863281 27.621094 35.90625 C 27.601562 35.90625 26.417969 35.324219 25.816406 33.617188 C 24.988281 31.351562 25.90625 29.984375 24.945312 27.558594 C 24.746094 27.269531 24.632812 27.042969 24.699219 26.929688 C 24.832031 26.730469 24.988281 26.460938 25.078125 26.144531 C 25.324219 25.382812 25.28125 24.417969 24.121094 23.609375 C 22.46875 22.464844 21.644531 24.574219 21.644531 24.574219 C 21.644531 24.574219 16.175781 23.902344 12.917969 21.636719 C 12.964844 21.65625 19.703125 23.453125 20.707031 23.386719 C 21.710938 23.296875 23.40625 22.21875 24.542969 22.757812 C 25.679688 23.296875 25.75 24.328125 26.441406 25.71875 C 27.109375 27.109375 26.195312 31.777344 26.261719 32.40625 Z M 26.261719 32.40625 " fill-opacity="1" fill-rule="nonzero"/><path fill="#a45b3d" d="M 21.730469 14.878906 C 21.6875 14.878906 21.644531 14.859375 21.621094 14.8125 C 21.375 14.363281 20.640625 12.816406 21.109375 11.515625 C 21.351562 10.796875 21.976562 10.234375 22.804688 9.964844 C 23.382812 9.785156 24.03125 9.765625 24.675781 9.898438 C 25.414062 10.054688 26.148438 10.390625 26.886719 10.910156 C 26.929688 10.953125 26.953125 11.019531 26.910156 11.089844 C 26.863281 11.132812 26.796875 11.15625 26.730469 11.109375 C 24.945312 9.832031 23.539062 9.988281 22.871094 10.214844 C 22.113281 10.460938 21.554688 10.953125 21.332031 11.605469 C 20.90625 12.816406 21.621094 14.296875 21.84375 14.699219 C 21.867188 14.769531 21.84375 14.835938 21.800781 14.859375 C 21.753906 14.878906 21.730469 14.878906 21.730469 14.878906 Z M 21.730469 14.878906 " fill-opacity="1" fill-rule="nonzero"/><path fill="#a45b3d" d="M 30.054688 22.21875 C 29.007812 20.019531 26.285156 17.976562 24.589844 17.394531 C 22.890625 16.789062 21.820312 16.789062 21.398438 16.382812 C 21.019531 16.023438 21.242188 15.21875 19.902344 14.5 C 20.484375 14.5 21.0625 14.566406 21.6875 14.746094 C 21.644531 14.386719 21.574219 13.46875 21.753906 12.589844 C 22.691406 13.039062 24.855469 13.847656 27.242188 13.109375 C 27.847656 12.929688 28.335938 12.726562 28.714844 12.546875 C 29.074219 13.039062 29.296875 13.601562 29.496094 14.140625 C 30.011719 15.597656 27.867188 17.214844 26.996094 17.460938 C 28.359375 18.605469 29.542969 20.132812 30.054688 22.21875 Z M 30.054688 22.21875 " fill-opacity="1" fill-rule="nonzero"/><path fill="#a45b3d" d="M 27.421875 17.6875 C 27.265625 17.6875 27.109375 17.664062 26.953125 17.597656 C 26.886719 17.574219 26.863281 17.507812 26.886719 17.4375 C 26.910156 17.371094 26.976562 17.347656 27.042969 17.371094 C 27.554688 17.574219 28.292969 17.304688 28.9375 16.699219 C 29.765625 15.914062 30.410156 14.589844 30.011719 13.332031 C 29.742188 12.5 29.117188 11.875 28.160156 11.46875 C 27.421875 11.15625 26.773438 11.109375 26.753906 11.109375 C 26.6875 11.109375 26.640625 11.066406 26.640625 11 C 26.640625 11 26.574219 10.570312 26.238281 10.214844 C 25.792969 9.695312 25.125 9.496094 24.207031 9.585938 C 23.359375 9.675781 22.714844 10.035156 22.269531 10.660156 C 21.753906 11.402344 21.644531 12.414062 21.644531 13.128906 C 21.644531 13.960938 21.753906 14.613281 21.800781 14.722656 C 21.820312 14.789062 21.777344 14.859375 21.710938 14.878906 C 21.644531 14.902344 21.574219 14.859375 21.554688 14.789062 C 21.507812 14.65625 21.375 13.984375 21.398438 13.128906 C 21.398438 12.390625 21.53125 11.335938 22.066406 10.527344 C 22.535156 9.832031 23.25 9.425781 24.164062 9.335938 C 24.699219 9.292969 25.191406 9.335938 25.59375 9.496094 C 25.925781 9.628906 26.195312 9.808594 26.417969 10.054688 C 26.6875 10.371094 26.796875 10.707031 26.839844 10.863281 C 27.042969 10.886719 27.601562 10.976562 28.203125 11.222656 C 28.648438 11.402344 29.050781 11.648438 29.363281 11.941406 C 29.765625 12.300781 30.03125 12.726562 30.1875 13.242188 C 30.390625 13.871094 30.367188 14.542969 30.121094 15.238281 C 29.898438 15.84375 29.519531 16.40625 29.050781 16.855469 C 28.714844 17.167969 28.335938 17.417969 27.980469 17.550781 C 27.824219 17.640625 27.621094 17.6875 27.421875 17.6875 Z M 27.421875 17.6875 " fill-opacity="1" fill-rule="nonzero"/><path fill="#a45b3d" d="M 30.144531 26.75 C 29.875 28.367188 28.382812 29.984375 27.890625 29.847656 C 27.691406 29.804688 27.398438 29.601562 27.042969 29.308594 C 27.042969 29.308594 29.386719 28.570312 30.277344 23.410156 C 30.390625 24.417969 30.367188 25.539062 30.144531 26.75 Z M 30.144531 26.75 " fill-opacity="1" fill-rule="nonzero"/><path fill="#282a3d" d="M 30.925781 11.289062 C 30.925781 11.289062 30.902344 11.289062 30.902344 11.289062 C 30.523438 11.246094 30.097656 10.570312 29.542969 9.628906 C 29.40625 9.382812 29.273438 9.160156 29.164062 8.980469 C 29.074219 8.84375 29.007812 8.777344 28.984375 8.730469 C 28.984375 8.84375 29.027344 9.136719 29.429688 9.898438 C 29.71875 10.460938 30.03125 10.976562 30.03125 10.976562 C 30.054688 11.019531 30.054688 11.089844 29.988281 11.132812 C 29.941406 11.15625 29.875 11.15625 29.832031 11.089844 C 29.832031 11.089844 29.496094 10.550781 29.207031 9.988281 C 28.671875 8.933594 28.695312 8.664062 28.78125 8.550781 C 28.828125 8.507812 28.871094 8.484375 28.917969 8.484375 C 29.09375 8.484375 29.25 8.753906 29.699219 9.515625 C 29.898438 9.875 30.144531 10.257812 30.367188 10.570312 C 30.65625 10.976562 30.8125 11.066406 30.902344 11.089844 C 30.925781 11.089844 30.949219 11.089844 30.992188 11.042969 C 31.238281 10.773438 30.835938 10.078125 30.480469 9.449219 C 30.097656 8.777344 29.765625 8.214844 29.988281 7.902344 C 30.03125 7.835938 30.097656 7.789062 30.1875 7.789062 C 30.5 7.789062 30.945312 8.328125 31.640625 9.203125 C 31.882812 9.515625 32.128906 9.832031 32.332031 10.054688 C 32.574219 10.324219 32.6875 10.371094 32.710938 10.371094 C 32.710938 10.324219 32.6875 10.234375 32.507812 9.945312 C 32.351562 9.695312 32.128906 9.382812 31.882812 9.070312 C 31.503906 8.550781 31.101562 7.96875 30.8125 7.476562 C 30.480469 6.847656 30.390625 6.441406 30.589844 6.171875 C 30.679688 6.039062 30.8125 6.015625 30.878906 6.015625 C 31.082031 6.015625 31.304688 6.195312 31.59375 6.601562 C 31.839844 6.914062 32.109375 7.339844 32.351562 7.765625 C 32.621094 8.191406 32.867188 8.597656 33.089844 8.890625 C 33.402344 9.292969 33.511719 9.269531 33.535156 9.269531 C 33.558594 9.269531 33.558594 9.246094 33.582031 9.226562 C 33.601562 9.160156 33.582031 9 33.355469 8.574219 C 33.179688 8.261719 32.957031 7.925781 32.710938 7.566406 C 32.21875 6.824219 31.929688 6.398438 32.019531 6.171875 C 32.039062 6.105469 32.085938 6.082031 32.128906 6.0625 C 32.417969 5.949219 32.867188 6.511719 33.535156 7.40625 C 33.714844 7.65625 33.890625 7.878906 34.027344 8.035156 C 34.136719 8.171875 34.226562 8.238281 34.25 8.28125 C 34.25 8.015625 33.980469 7.476562 33.78125 7.027344 C 33.492188 6.398438 33.3125 6.0625 33.402344 5.882812 C 33.425781 5.835938 33.492188 5.792969 33.558594 5.769531 C 33.625 5.769531 33.667969 5.792969 33.667969 5.859375 C 33.667969 5.902344 33.648438 5.972656 33.582031 5.972656 C 33.582031 5.992188 33.582031 6.082031 33.667969 6.285156 C 33.734375 6.464844 33.847656 6.691406 33.960938 6.914062 C 34.226562 7.453125 34.496094 8.015625 34.449219 8.328125 C 34.429688 8.441406 34.359375 8.484375 34.316406 8.507812 C 34.136719 8.550781 33.914062 8.28125 33.335938 7.519531 C 33.089844 7.183594 32.820312 6.847656 32.597656 6.601562 C 32.332031 6.285156 32.195312 6.261719 32.175781 6.242188 C 32.175781 6.285156 32.195312 6.375 32.351562 6.644531 C 32.488281 6.871094 32.664062 7.136719 32.867188 7.429688 C 33.46875 8.328125 33.847656 8.933594 33.757812 9.246094 C 33.734375 9.335938 33.667969 9.382812 33.601562 9.425781 C 33.558594 9.449219 33.535156 9.449219 33.492188 9.449219 C 33.15625 9.449219 32.730469 8.820312 32.128906 7.835938 C 31.882812 7.429688 31.617188 7.003906 31.371094 6.691406 C 31.058594 6.285156 30.902344 6.195312 30.8125 6.195312 C 30.792969 6.195312 30.746094 6.195312 30.703125 6.261719 C 30.566406 6.441406 30.65625 6.800781 30.949219 7.316406 C 31.214844 7.8125 31.640625 8.394531 31.996094 8.890625 C 32.265625 9.246094 32.507812 9.585938 32.664062 9.855469 C 32.820312 10.125 32.957031 10.371094 32.777344 10.503906 C 32.597656 10.640625 32.351562 10.4375 32.152344 10.214844 C 31.929688 9.988281 31.683594 9.652344 31.414062 9.292969 C 31.148438 8.957031 30.878906 8.621094 30.65625 8.351562 C 30.34375 7.992188 30.210938 7.945312 30.144531 7.945312 C 30.121094 7.945312 30.121094 7.945312 30.097656 7.96875 C 29.941406 8.171875 30.300781 8.753906 30.589844 9.292969 C 31.015625 10.011719 31.4375 10.75 31.082031 11.132812 C 31.101562 11.246094 31.015625 11.289062 30.925781 11.289062 Z M 30.925781 11.289062 " fill-opacity="1" fill-rule="nonzero"/><path fill="#282a3d" d="M 3.4375 14.453125 C 3.4375 14.527344 3.410156 14.59375 3.359375 14.644531 C 3.304688 14.699219 3.242188 14.722656 3.167969 14.722656 C 3.09375 14.722656 3.03125 14.699219 2.980469 14.644531 C 2.925781 14.59375 2.902344 14.527344 2.902344 14.453125 C 2.902344 14.378906 2.925781 14.316406 2.980469 14.265625 C 3.03125 14.210938 3.09375 14.183594 3.167969 14.183594 C 3.242188 14.183594 3.304688 14.210938 3.359375 14.265625 C 3.410156 14.316406 3.4375 14.378906 3.4375 14.453125 Z M 3.4375 14.453125 " fill-opacity="1" fill-rule="nonzero"/><path fill="#282a3d" d="M 5.511719 14.5 C 5.511719 14.574219 5.484375 14.636719 5.433594 14.691406 C 5.378906 14.742188 5.316406 14.769531 5.242188 14.769531 C 5.167969 14.769531 5.105469 14.742188 5.054688 14.691406 C 5 14.636719 4.976562 14.574219 4.976562 14.5 C 4.976562 14.425781 5 14.363281 5.054688 14.308594 C 5.105469 14.257812 5.167969 14.230469 5.242188 14.230469 C 5.316406 14.230469 5.378906 14.257812 5.433594 14.308594 C 5.484375 14.363281 5.511719 14.425781 5.511719 14.5 Z M 5.511719 14.5 " fill-opacity="1" fill-rule="nonzero"/><path fill="#282a3d" d="M 7.832031 14.699219 C 7.832031 14.777344 7.804688 14.839844 7.753906 14.890625 C 7.699219 14.945312 7.636719 14.96875 7.5625 14.96875 C 7.488281 14.96875 7.425781 14.945312 7.375 14.890625 C 7.324219 14.839844 7.296875 14.777344 7.296875 14.699219 C 7.296875 14.625 7.324219 14.5625 7.375 14.511719 C 7.425781 14.457031 7.488281 14.433594 7.5625 14.433594 C 7.636719 14.433594 7.699219 14.457031 7.753906 14.511719 C 7.804688 14.5625 7.832031 14.625 7.832031 14.699219 Z M 7.832031 14.699219 " fill-opacity="1" fill-rule="nonzero"/><path fill="#282a3d" d="M 33.113281 17.796875 C 33.113281 17.871094 33.085938 17.9375 33.03125 17.988281 C 32.980469 18.039062 32.917969 18.066406 32.84375 18.066406 C 32.769531 18.066406 32.707031 18.039062 32.65625 17.988281 C 32.601562 17.9375 32.574219 17.871094 32.574219 17.796875 C 32.574219 17.722656 32.601562 17.660156 32.65625 17.609375 C 32.707031 17.554688 32.769531 17.527344 32.84375 17.527344 C 32.917969 17.527344 32.980469 17.554688 33.03125 17.609375 C 33.085938 17.660156 33.113281 17.722656 33.113281 17.796875 Z M 33.113281 17.796875 " fill-opacity="1" fill-rule="nonzero"/><path fill="#282a3d" d="M 34.5625 17.574219 C 34.5625 17.648438 34.535156 17.710938 34.484375 17.765625 C 34.429688 17.816406 34.367188 17.84375 34.292969 17.84375 C 34.21875 17.84375 34.15625 17.816406 34.105469 17.765625 C 34.050781 17.710938 34.027344 17.648438 34.027344 17.574219 C 34.027344 17.5 34.050781 17.4375 34.105469 17.382812 C 34.15625 17.332031 34.21875 17.304688 34.292969 17.304688 C 34.367188 17.304688 34.429688 17.332031 34.484375 17.382812 C 34.535156 17.4375 34.5625 17.5 34.5625 17.574219 Z M 34.5625 17.574219 " fill-opacity="1" fill-rule="nonzero"/><path fill="#282a3d" d="M 36.167969 17.304688 C 36.167969 17.378906 36.140625 17.441406 36.089844 17.496094 C 36.039062 17.546875 35.972656 17.574219 35.902344 17.574219 C 35.828125 17.574219 35.761719 17.546875 35.710938 17.496094 C 35.660156 17.441406 35.632812 17.378906 35.632812 17.304688 C 35.632812 17.230469 35.660156 17.167969 35.710938 17.113281 C 35.761719 17.0625 35.828125 17.035156 35.902344 17.035156 C 35.972656 17.035156 36.039062 17.0625 36.089844 17.113281 C 36.140625 17.167969 36.167969 17.230469 36.167969 17.304688 Z M 36.167969 17.304688 " fill-opacity="1" fill-rule="nonzero"/><path fill="#282a3d" d="M 19.722656 4.601562 C 19.722656 4.675781 19.699219 4.742188 19.644531 4.792969 C 19.59375 4.847656 19.53125 4.871094 19.457031 4.871094 C 19.382812 4.871094 19.320312 4.847656 19.265625 4.792969 C 19.214844 4.742188 19.1875 4.675781 19.1875 4.601562 C 19.1875 4.527344 19.214844 4.464844 19.265625 4.414062 C 19.320312 4.359375 19.382812 4.332031 19.457031 4.332031 C 19.53125 4.332031 19.59375 4.359375 19.644531 4.414062 C 19.699219 4.464844 19.722656 4.527344 19.722656 4.601562 Z M 19.722656 4.601562 " fill-opacity="1" fill-rule="nonzero"/><path fill="#282a3d" d="M 21.039062 3.972656 C 21.039062 4.046875 21.015625 4.113281 20.960938 4.164062 C 20.910156 4.21875 20.847656 4.242188 20.773438 4.242188 C 20.699219 4.242188 20.636719 4.21875 20.582031 4.164062 C 20.53125 4.113281 20.503906 4.046875 20.503906 3.972656 C 20.503906 3.898438 20.53125 3.835938 20.582031 3.785156 C 20.636719 3.730469 20.699219 3.703125 20.773438 3.703125 C 20.847656 3.703125 20.910156 3.730469 20.960938 3.785156 C 21.015625 3.835938 21.039062 3.898438 21.039062 3.972656 Z M 21.039062 3.972656 " fill-opacity="1" fill-rule="nonzero"/><path fill="#282a3d" d="M 22.511719 3.257812 C 22.511719 3.332031 22.488281 3.394531 22.433594 3.445312 C 22.382812 3.5 22.320312 3.527344 22.246094 3.527344 C 22.171875 3.527344 22.109375 3.5 22.054688 3.445312 C 22.003906 3.394531 21.976562 3.332031 21.976562 3.257812 C 21.976562 3.183594 22.003906 3.117188 22.054688 3.066406 C 22.109375 3.011719 22.171875 2.988281 22.246094 2.988281 C 22.320312 2.988281 22.382812 3.011719 22.433594 3.066406 C 22.488281 3.117188 22.511719 3.183594 22.511719 3.257812 Z M 22.511719 3.257812 " fill-opacity="1" fill-rule="nonzero"/><path fill="#282a3d" d="M 7.765625 17.058594 C 6.984375 17.058594 6.046875 16.765625 5.332031 16.519531 L 5.308594 16.519531 C 4.863281 16.382812 4.460938 16.429688 3.90625 16.496094 C 3.390625 16.5625 2.765625 16.652344 1.851562 16.632812 C 1.003906 16.609375 0.601562 16.203125 0.402344 15.867188 C 0 15.171875 0.222656 14.164062 0.46875 13.691406 C 0.691406 13.308594 1.472656 12.929688 2.5 12.679688 C 3.613281 12.414062 4.640625 12.414062 5.332031 12.679688 C 6.179688 12.996094 6.960938 13.109375 7.652344 13.199219 C 8.210938 13.265625 8.703125 13.332031 9.125 13.488281 C 9.59375 13.667969 9.929688 13.960938 10.152344 14.386719 C 10.308594 14.65625 10.507812 15.171875 10.644531 15.621094 C 10.710938 15.867188 10.777344 16.070312 10.800781 16.25 C 10.84375 16.472656 10.820312 16.609375 10.753906 16.675781 C 10.730469 16.699219 10.644531 16.765625 10.507812 16.699219 C 9.996094 16.429688 9.617188 16.5625 9.082031 16.765625 C 8.878906 16.832031 8.636719 16.921875 8.367188 17.011719 C 8.1875 17.035156 7.988281 17.058594 7.765625 17.058594 Z M 4.707031 16.203125 C 4.929688 16.203125 5.152344 16.226562 5.378906 16.316406 L 5.398438 16.316406 C 6.246094 16.585938 7.519531 17.011719 8.324219 16.765625 C 8.589844 16.699219 8.8125 16.609375 9.015625 16.519531 C 9.59375 16.292969 10.019531 16.136719 10.621094 16.472656 C 10.644531 16.382812 10.621094 16.136719 10.441406 15.621094 C 10.308594 15.195312 10.128906 14.722656 9.996094 14.476562 C 9.550781 13.644531 8.722656 13.535156 7.652344 13.398438 C 6.9375 13.308594 6.136719 13.199219 5.265625 12.882812 C 4.617188 12.636719 3.613281 12.636719 2.566406 12.90625 C 1.628906 13.128906 0.847656 13.511719 0.667969 13.804688 C 0.425781 14.230469 0.269531 15.148438 0.601562 15.757812 C 0.824219 16.160156 1.25 16.382812 1.875 16.40625 C 2.765625 16.429688 3.390625 16.339844 3.882812 16.273438 C 4.195312 16.25 4.441406 16.203125 4.707031 16.203125 Z M 4.707031 16.203125 " fill-opacity="1" fill-rule="nonzero"/><path fill="#282a3d" d="M 8.277344 12.007812 C 8.277344 12.007812 8.253906 12.007812 8.253906 12.007812 C 7.875 11.894531 7.898438 11.492188 7.898438 11.15625 C 7.898438 11 7.898438 10.863281 7.875 10.773438 C 7.855469 10.660156 7.765625 10.390625 7.5625 10.28125 C 7.453125 10.214844 7.320312 10.214844 7.183594 10.28125 C 7.007812 10.347656 6.917969 10.4375 6.894531 10.570312 C 6.871094 10.75 6.984375 10.953125 7.117188 11.019531 C 7.164062 11.042969 7.183594 11.109375 7.140625 11.179688 C 7.117188 11.222656 7.050781 11.246094 6.984375 11.199219 C 6.804688 11.089844 6.625 10.820312 6.671875 10.527344 C 6.695312 10.300781 6.851562 10.144531 7.09375 10.054688 C 7.296875 9.988281 7.496094 9.988281 7.652344 10.078125 C 7.921875 10.214844 8.03125 10.550781 8.078125 10.707031 C 8.097656 10.839844 8.097656 10.976562 8.097656 11.15625 C 8.078125 11.515625 8.097656 11.738281 8.300781 11.804688 C 8.367188 11.828125 8.390625 11.875 8.367188 11.941406 C 8.367188 11.964844 8.324219 12.007812 8.277344 12.007812 Z M 8.277344 12.007812 " fill-opacity="1" fill-rule="nonzero"/><path fill="#282a3d" d="M 8.878906 12.414062 C 8.878906 12.515625 8.820312 12.570312 8.703125 12.570312 C 8.582031 12.570312 8.523438 12.515625 8.523438 12.414062 C 8.523438 12.308594 8.582031 12.253906 8.703125 12.253906 C 8.820312 12.253906 8.878906 12.308594 8.878906 12.414062 Z M 8.878906 12.414062 " fill-opacity="1" fill-rule="nonzero"/><path fill="#282a3d" d="M 12.785156 7.675781 C 12.761719 7.675781 12.71875 7.65625 12.695312 7.632812 C 12.449219 7.339844 12.671875 7.003906 12.875 6.734375 C 12.964844 6.621094 13.03125 6.511719 13.074219 6.398438 C 13.121094 6.285156 13.1875 5.992188 13.074219 5.792969 C 13.007812 5.679688 12.917969 5.613281 12.761719 5.566406 C 12.585938 5.523438 12.449219 5.546875 12.382812 5.65625 C 12.273438 5.792969 12.273438 6.015625 12.316406 6.171875 C 12.339844 6.21875 12.316406 6.285156 12.273438 6.308594 C 12.226562 6.332031 12.160156 6.308594 12.136719 6.261719 C 12.046875 6.0625 12.046875 5.746094 12.226562 5.523438 C 12.359375 5.367188 12.585938 5.296875 12.828125 5.367188 C 13.054688 5.410156 13.207031 5.523438 13.277344 5.679688 C 13.433594 5.949219 13.34375 6.285156 13.296875 6.441406 C 13.253906 6.554688 13.164062 6.691406 13.074219 6.824219 C 12.875 7.117188 12.761719 7.316406 12.898438 7.476562 C 12.941406 7.519531 12.941406 7.585938 12.898438 7.632812 C 12.828125 7.675781 12.808594 7.675781 12.785156 7.675781 Z M 12.785156 7.675781 " fill-opacity="1" fill-rule="nonzero"/><path fill="#282a3d" d="M 12.960938 8.101562 C 13.058594 8.167969 13.082031 8.242188 13.023438 8.332031 C 12.96875 8.417969 12.890625 8.429688 12.789062 8.367188 C 12.691406 8.300781 12.667969 8.226562 12.722656 8.136719 C 12.78125 8.050781 12.859375 8.039062 12.960938 8.101562 Z M 12.960938 8.101562 " fill-opacity="1" fill-rule="nonzero"/><path fill="#282a3d" d="M 31.058594 4.332031 C 30.992188 4.332031 30.949219 4.289062 30.949219 4.222656 C 30.925781 3.773438 31.414062 3.59375 31.839844 3.4375 C 32.039062 3.367188 32.21875 3.300781 32.332031 3.234375 C 32.464844 3.144531 32.820312 2.875 32.84375 2.582031 C 32.867188 2.449219 32.800781 2.292969 32.6875 2.15625 C 32.53125 2 32.351562 1.933594 32.175781 1.976562 C 31.90625 2.042969 31.707031 2.292969 31.640625 2.492188 C 31.617188 2.5625 31.570312 2.582031 31.503906 2.5625 C 31.4375 2.539062 31.414062 2.492188 31.4375 2.425781 C 31.503906 2.179688 31.773438 1.84375 32.128906 1.773438 C 32.308594 1.730469 32.574219 1.730469 32.84375 2.023438 C 33.023438 2.203125 33.089844 2.402344 33.066406 2.605469 C 33.023438 2.988281 32.664062 3.277344 32.441406 3.414062 C 32.308594 3.503906 32.109375 3.570312 31.90625 3.636719 C 31.527344 3.773438 31.125 3.90625 31.148438 4.199219 C 31.171875 4.289062 31.125 4.332031 31.058594 4.332031 Z M 31.058594 4.332031 " fill-opacity="1" fill-rule="nonzero"/><path fill="#282a3d" d="M 30.835938 4.960938 C 30.835938 5.113281 30.761719 5.1875 30.613281 5.1875 C 30.464844 5.1875 30.390625 5.113281 30.390625 4.960938 C 30.390625 4.8125 30.464844 4.738281 30.613281 4.738281 C 30.761719 4.738281 30.835938 4.8125 30.835938 4.960938 Z M 30.835938 4.960938 " fill-opacity="1" fill-rule="nonzero"/><path fill="#282a3d" d="M 24.164062 8.378906 C 24.3125 8.40625 24.375 8.472656 24.355469 8.574219 C 24.335938 8.675781 24.253906 8.714844 24.105469 8.6875 C 23.960938 8.660156 23.898438 8.59375 23.917969 8.492188 C 23.9375 8.386719 24.019531 8.351562 24.164062 8.378906 Z M 24.164062 8.378906 " fill-opacity="1" fill-rule="nonzero"/><path fill="#282a3d" d="M 24.03125 8.125 C 24.007812 8.125 23.984375 8.125 23.964844 8.101562 C 23.875 8.015625 23.785156 7.855469 23.875 7.632812 C 23.917969 7.496094 24.03125 7.363281 24.121094 7.226562 C 24.207031 7.117188 24.277344 7.003906 24.320312 6.914062 C 24.363281 6.824219 24.433594 6.578125 24.320312 6.398438 C 24.253906 6.285156 24.140625 6.21875 23.964844 6.171875 C 23.761719 6.128906 23.605469 6.171875 23.515625 6.285156 C 23.429688 6.421875 23.429688 6.601562 23.496094 6.710938 C 23.515625 6.757812 23.496094 6.824219 23.449219 6.847656 C 23.40625 6.871094 23.339844 6.847656 23.316406 6.800781 C 23.226562 6.621094 23.203125 6.351562 23.359375 6.152344 C 23.449219 6.039062 23.628906 5.882812 24.03125 5.949219 C 24.277344 5.992188 24.453125 6.105469 24.542969 6.261719 C 24.675781 6.511719 24.609375 6.800781 24.542969 6.960938 C 24.5 7.070312 24.410156 7.207031 24.320312 7.316406 C 24.121094 7.585938 23.984375 7.765625 24.140625 7.902344 C 24.1875 7.945312 24.1875 8.015625 24.140625 8.058594 C 24.097656 8.125 24.074219 8.125 24.03125 8.125 Z M 24.03125 8.125 " fill-opacity="1" fill-rule="nonzero"/><path fill="#282a3d" d="M 32.28125 14.929688 C 32.316406 15.007812 32.324219 15.085938 32.304688 15.164062 C 32.28125 15.242188 32.238281 15.296875 32.171875 15.328125 C 32.105469 15.359375 32.035156 15.359375 31.960938 15.324219 C 31.886719 15.289062 31.832031 15.234375 31.796875 15.15625 C 31.757812 15.078125 31.753906 15 31.773438 14.921875 C 31.796875 14.84375 31.839844 14.789062 31.90625 14.757812 C 31.972656 14.726562 32.042969 14.726562 32.117188 14.761719 C 32.191406 14.792969 32.246094 14.851562 32.28125 14.929688 Z M 32.28125 14.929688 " fill-opacity="1" fill-rule="nonzero"/><path fill="#282a3d" d="M 32.777344 14.746094 C 32.753906 14.746094 32.753906 14.746094 32.730469 14.746094 C 32.6875 14.722656 32.664062 14.65625 32.6875 14.613281 C 32.777344 14.386719 32.976562 14.273438 33.269531 14.273438 C 33.492188 14.273438 33.757812 14.34375 34.027344 14.386719 C 34.25 14.433594 34.472656 14.5 34.652344 14.5 C 34.851562 14.5 35.320312 14.453125 35.519531 14.164062 C 35.632812 14.027344 35.65625 13.824219 35.609375 13.578125 C 35.542969 13.289062 35.363281 13.085938 35.121094 13.019531 C 34.828125 12.929688 34.496094 13.0625 34.339844 13.21875 C 34.292969 13.265625 34.226562 13.265625 34.183594 13.21875 C 34.136719 13.175781 34.136719 13.109375 34.183594 13.0625 C 34.382812 12.859375 34.785156 12.703125 35.1875 12.816406 C 35.5 12.90625 35.722656 13.152344 35.8125 13.535156 C 35.878906 13.847656 35.855469 14.09375 35.699219 14.296875 C 35.433594 14.632812 34.941406 14.699219 34.652344 14.699219 C 34.449219 14.699219 34.226562 14.65625 33.980469 14.589844 C 33.425781 14.453125 33.023438 14.386719 32.886719 14.679688 C 32.84375 14.722656 32.800781 14.746094 32.777344 14.746094 Z M 32.777344 14.746094 " fill-opacity="1" fill-rule="nonzero"/><path fill="#282a3d" d="M 22.785156 8.578125 C 22.914062 8.609375 22.96875 8.675781 22.941406 8.777344 C 22.917969 8.878906 22.839844 8.914062 22.710938 8.882812 C 22.578125 8.847656 22.527344 8.78125 22.554688 8.679688 C 22.578125 8.578125 22.65625 8.542969 22.785156 8.578125 Z M 22.785156 8.578125 " fill-opacity="1" fill-rule="nonzero"/><path fill="#282a3d" d="M 22.535156 8.125 C 22.402344 8.148438 21.574219 6.464844 21.867188 6.21875 C 22.335938 5.816406 22.714844 8.101562 22.535156 8.125 Z M 22.535156 8.125 " fill-opacity="1" fill-rule="nonzero"/><path fill="#282a3d" d="M 12.785156 15.578125 C 12.695312 15.578125 12.605469 15.554688 12.5625 15.507812 C 12.449219 15.417969 12.449219 15.238281 12.5625 14.992188 C 12.761719 14.589844 13.03125 14.34375 13.253906 14.140625 C 13.453125 13.960938 13.566406 13.871094 13.542969 13.757812 C 13.453125 13.78125 13.253906 13.9375 13.097656 14.050781 C 12.652344 14.363281 12.09375 14.746094 11.78125 14.433594 C 11.714844 14.363281 11.691406 14.296875 11.691406 14.207031 C 11.714844 13.9375 12.136719 13.667969 12.652344 13.355469 C 12.898438 13.199219 13.121094 13.039062 13.296875 12.90625 C 13.453125 12.769531 13.476562 12.703125 13.476562 12.660156 C 13.476562 12.660156 13.433594 12.636719 13.1875 12.769531 C 13.007812 12.882812 12.808594 13.019531 12.585938 13.199219 C 12.09375 13.558594 11.582031 13.9375 11.222656 13.9375 C 11.179688 13.9375 11.15625 13.9375 11.113281 13.914062 C 11 13.894531 10.910156 13.804688 10.867188 13.691406 C 10.777344 13.488281 11 13.308594 11.222656 13.152344 C 11.46875 12.996094 11.78125 12.816406 12.117188 12.636719 C 12.652344 12.367188 13.363281 11.984375 13.410156 11.761719 C 13.410156 11.738281 13.410156 11.738281 13.410156 11.714844 C 13.410156 11.714844 13.34375 11.648438 13.03125 11.804688 C 12.785156 11.917969 12.472656 12.144531 12.136719 12.34375 C 11.355469 12.859375 10.554688 13.378906 10.0625 13.242188 C 9.929688 13.199219 9.816406 13.128906 9.75 12.996094 C 9.683594 12.882812 9.683594 12.75 9.726562 12.636719 C 9.90625 12.210938 10.800781 11.917969 11.757812 11.605469 C 12.472656 11.359375 13.296875 11.089844 13.410156 10.839844 C 13.433594 10.820312 13.433594 10.773438 13.410156 10.75 C 13.386719 10.730469 13.386719 10.707031 13.34375 10.707031 C 13.097656 10.617188 12.359375 11 11.757812 11.289062 C 11.132812 11.605469 10.710938 11.804688 10.441406 11.804688 C 10.332031 11.804688 10.265625 11.785156 10.21875 11.695312 C 10.175781 11.605469 10.175781 11.535156 10.195312 11.492188 C 10.265625 11.3125 10.554688 11.179688 10.933594 11.042969 C 11.269531 10.910156 11.691406 10.75 11.757812 10.570312 C 11.78125 10.527344 11.78125 10.503906 11.757812 10.460938 C 11.734375 10.414062 11.714844 10.390625 11.691406 10.390625 C 11.511719 10.324219 11.066406 10.617188 10.730469 10.839844 C 10.308594 11.109375 10.039062 11.269531 9.882812 11.199219 C 9.839844 11.179688 9.773438 11.132812 9.773438 11.019531 C 9.726562 10.683594 10.0625 10.527344 10.417969 10.371094 C 10.730469 10.234375 11.089844 10.078125 11.222656 9.785156 C 11.246094 9.742188 11.3125 9.695312 11.355469 9.742188 C 11.402344 9.765625 11.445312 9.832031 11.402344 9.875 C 11.246094 10.257812 10.84375 10.4375 10.488281 10.570312 C 10.152344 10.730469 9.953125 10.820312 9.972656 10.976562 C 9.996094 10.976562 10.039062 10.976562 10.195312 10.910156 C 10.332031 10.839844 10.464844 10.75 10.621094 10.640625 C 11.042969 10.371094 11.46875 10.101562 11.757812 10.167969 C 11.847656 10.191406 11.914062 10.257812 11.960938 10.347656 C 12.003906 10.4375 12.003906 10.550781 11.960938 10.640625 C 11.847656 10.910156 11.425781 11.066406 11 11.246094 C 10.84375 11.3125 10.6875 11.378906 10.574219 11.425781 C 10.417969 11.515625 10.398438 11.558594 10.398438 11.558594 C 10.398438 11.558594 10.398438 11.558594 10.398438 11.582031 C 10.398438 11.582031 10.464844 11.625 10.777344 11.515625 C 11.023438 11.425781 11.335938 11.269531 11.667969 11.089844 C 12.40625 10.730469 13.074219 10.371094 13.410156 10.480469 C 13.5 10.503906 13.566406 10.570312 13.589844 10.640625 C 13.632812 10.730469 13.632812 10.820312 13.589844 10.910156 C 13.433594 11.246094 12.671875 11.492188 11.804688 11.785156 C 11.355469 11.917969 10.910156 12.074219 10.554688 12.234375 C 10.175781 12.390625 9.972656 12.546875 9.90625 12.703125 C 9.882812 12.769531 9.882812 12.816406 9.929688 12.882812 C 9.972656 12.949219 10.019531 12.996094 10.109375 13.019531 C 10.507812 13.128906 11.335938 12.570312 12.003906 12.144531 C 12.339844 11.917969 12.652344 11.714844 12.917969 11.582031 C 13.054688 11.515625 13.410156 11.335938 13.566406 11.558594 C 13.609375 11.625 13.632812 11.695312 13.609375 11.761719 C 13.542969 12.054688 13.03125 12.324219 12.203125 12.769531 C 11.890625 12.929688 11.582031 13.109375 11.355469 13.242188 C 11.042969 13.445312 11.042969 13.535156 11.042969 13.535156 C 11.066406 13.578125 11.113281 13.625 11.15625 13.625 C 11.425781 13.691406 11.980469 13.265625 12.449219 12.929688 C 12.964844 12.546875 13.296875 12.324219 13.519531 12.367188 C 13.589844 12.390625 13.632812 12.414062 13.675781 12.480469 C 13.8125 12.703125 13.542969 12.929688 13.453125 12.996094 C 13.277344 13.152344 13.03125 13.308594 12.785156 13.46875 C 12.429688 13.691406 11.960938 14.003906 11.9375 14.164062 C 11.9375 14.183594 11.9375 14.183594 11.960938 14.207031 C 12.136719 14.410156 12.628906 14.050781 12.984375 13.804688 C 13.320312 13.558594 13.5 13.445312 13.65625 13.488281 C 13.699219 13.511719 13.746094 13.558594 13.765625 13.625 C 13.832031 13.871094 13.632812 14.050781 13.410156 14.253906 C 13.207031 14.433594 12.941406 14.65625 12.761719 15.039062 C 12.671875 15.21875 12.695312 15.285156 12.695312 15.285156 C 12.71875 15.308594 12.828125 15.328125 13.074219 15.238281 C 13.253906 15.171875 13.433594 15.082031 13.5 15.058594 C 13.542969 15.015625 13.609375 15.039062 13.65625 15.082031 C 13.699219 15.128906 13.675781 15.195312 13.632812 15.238281 C 13.542969 15.351562 13.097656 15.578125 12.785156 15.578125 Z M 12.785156 15.578125 " fill-opacity="1" fill-rule="nonzero"/><path fill="#282a3d" d="M 35.832031 19.414062 C 35.542969 19.414062 35.253906 19.390625 34.941406 19.367188 C 34.003906 19.277344 33.089844 19.078125 32.6875 18.851562 C 31.90625 18.425781 30.746094 19.011719 30.523438 19.121094 L 30.480469 19.03125 L 30.523438 19.121094 C 30.390625 19.1875 30.277344 19.144531 30.234375 19.121094 C 30.097656 19.03125 30.054688 18.785156 30.097656 18.472656 C 30.144531 18.15625 30.277344 17.796875 30.480469 17.527344 C 30.722656 17.167969 31.015625 16.921875 31.371094 16.8125 C 31.640625 16.722656 31.972656 16.722656 32.332031 16.742188 C 32.933594 16.742188 33.601562 16.765625 34.160156 16.382812 C 34.671875 16.023438 35.433594 15.710938 36.101562 15.578125 C 36.703125 15.441406 37.53125 15.375 38.019531 15.824219 C 38.421875 16.183594 38.621094 16.832031 38.535156 17.507812 C 38.421875 18.269531 37.996094 18.898438 37.375 19.1875 C 37.039062 19.347656 36.503906 19.414062 35.832031 19.414062 Z M 31.996094 18.492188 C 32.265625 18.492188 32.53125 18.539062 32.777344 18.671875 C 33.511719 19.078125 36.28125 19.480469 37.285156 18.988281 C 37.839844 18.71875 38.222656 18.132812 38.332031 17.460938 C 38.421875 16.855469 38.242188 16.273438 37.886719 15.957031 C 37.550781 15.667969 36.949219 15.597656 36.144531 15.777344 C 35.5 15.914062 34.761719 16.226562 34.273438 16.5625 C 33.667969 16.988281 32.957031 16.96875 32.332031 16.96875 C 31.996094 16.96875 31.660156 16.96875 31.4375 17.035156 C 30.792969 17.238281 30.410156 17.953125 30.324219 18.515625 C 30.277344 18.785156 30.324219 18.941406 30.367188 18.964844 C 30.390625 18.964844 30.410156 18.964844 30.433594 18.941406 C 30.589844 18.851562 31.28125 18.492188 31.996094 18.492188 Z M 31.996094 18.492188 " fill-opacity="1" fill-rule="nonzero"/><path fill="#282a3d" d="M 30.96875 13.824219 C 30.925781 13.824219 30.878906 13.78125 30.859375 13.734375 C 30.792969 13.289062 30.925781 12.996094 31.214844 12.792969 C 31.484375 12.636719 31.816406 12.570312 32.195312 12.5 C 32.285156 12.480469 32.398438 12.480469 32.488281 12.457031 C 32.464844 12.433594 32.464844 12.433594 32.441406 12.414062 C 32.175781 12.097656 32.152344 11.695312 32.375 11.335938 C 32.53125 11.089844 32.800781 10.953125 33.113281 11 C 33.445312 11.042969 33.734375 11.246094 33.824219 11.515625 C 33.871094 11.648438 33.890625 11.941406 33.558594 12.253906 C 33.402344 12.414062 33.199219 12.5 33 12.570312 C 33.222656 12.636719 33.492188 12.660156 33.757812 12.546875 C 34.339844 12.324219 34.429688 11.558594 34.539062 10.75 C 34.585938 10.4375 34.628906 10.125 34.695312 9.832031 C 34.808594 9.335938 35.140625 8.890625 35.632812 8.550781 C 36.011719 8.28125 36.480469 8.082031 36.90625 8.015625 C 37.574219 7.902344 38.222656 7.476562 38.355469 7.070312 C 38.378906 7.003906 38.445312 6.980469 38.488281 7.003906 C 38.554688 7.027344 38.578125 7.09375 38.554688 7.136719 C 38.488281 7.386719 38.265625 7.609375 37.953125 7.8125 C 37.664062 8.015625 37.304688 8.148438 36.949219 8.214844 C 36.257812 8.351562 35.164062 8.890625 34.917969 9.875 C 34.851562 10.167969 34.808594 10.480469 34.761719 10.773438 C 34.71875 11.199219 34.652344 11.605469 34.539062 11.941406 C 34.40625 12.34375 34.183594 12.589844 33.847656 12.726562 C 33.46875 12.882812 33.023438 12.839844 32.710938 12.636719 C 32.554688 12.679688 32.398438 12.703125 32.21875 12.726562 C 31.863281 12.792969 31.527344 12.839844 31.304688 12.972656 C 31.082031 13.128906 30.992188 13.355469 31.035156 13.714844 C 31.082031 13.78125 31.035156 13.824219 30.96875 13.824219 Z M 33.042969 11.199219 C 32.910156 11.199219 32.710938 11.246094 32.574219 11.445312 C 32.332031 11.851562 32.507812 12.144531 32.621094 12.277344 C 32.664062 12.324219 32.710938 12.367188 32.753906 12.414062 C 33.023438 12.34375 33.269531 12.253906 33.445312 12.074219 C 33.582031 11.964844 33.714844 11.761719 33.648438 11.582031 C 33.582031 11.402344 33.355469 11.246094 33.113281 11.222656 C 33.113281 11.199219 33.089844 11.199219 33.042969 11.199219 Z M 33.042969 11.199219 " fill-opacity="1" fill-rule="nonzero"/><path fill="#282a3d" d="M 19.613281 13.46875 C 19.324219 13.46875 19.03125 13.242188 18.785156 13.039062 C 18.585938 13.152344 18.386719 13.199219 18.140625 13.175781 C 17.917969 13.152344 17.714844 13.085938 17.558594 12.972656 C 17.558594 13.0625 17.582031 13.175781 17.605469 13.308594 C 17.625 13.378906 17.582031 13.421875 17.515625 13.445312 C 17.449219 13.46875 17.402344 13.421875 17.382812 13.355469 C 17.335938 13.152344 17.3125 12.972656 17.3125 12.816406 C 17.160156 12.679688 17.046875 12.5 16.980469 12.300781 C 16.824219 11.828125 17.003906 11.335938 17.449219 10.953125 C 17.515625 10.910156 17.558594 10.863281 17.625 10.820312 C 17.605469 10.503906 17.695312 10.257812 17.894531 10.125 C 18.117188 9.964844 18.339844 9.921875 18.542969 10.035156 C 18.71875 10.125 18.855469 10.28125 19.011719 10.460938 C 19.1875 10.660156 19.367188 10.863281 19.589844 10.976562 C 19.613281 10.660156 19.589844 10.347656 19.566406 10.101562 C 19.566406 10.035156 19.566406 9.964844 19.546875 9.921875 C 19.523438 9.742188 19.589844 9.605469 19.722656 9.539062 C 19.878906 9.449219 20.082031 9.496094 20.257812 9.652344 C 20.550781 9.875 20.773438 10.390625 20.59375 11.132812 C 20.570312 11.222656 20.527344 11.289062 20.4375 11.335938 C 20.28125 11.425781 20.058594 11.359375 19.769531 11.269531 C 19.722656 11.558594 19.636719 11.804688 19.457031 11.984375 C 19.300781 12.144531 19.078125 12.210938 18.808594 12.1875 C 18.628906 12.164062 18.453125 12.164062 18.320312 12.164062 C 18.429688 12.34375 18.542969 12.5 18.675781 12.660156 C 18.71875 12.703125 18.742188 12.75 18.785156 12.769531 C 19.03125 12.589844 19.253906 12.34375 19.457031 12.121094 C 19.679688 11.875 19.859375 11.671875 20.035156 11.605469 C 20.125 11.582031 20.238281 11.605469 20.304688 11.695312 C 20.484375 11.917969 20.503906 12.480469 20.304688 12.90625 C 20.214844 13.242188 19.949219 13.445312 19.613281 13.46875 Z M 18.988281 12.90625 C 19.234375 13.128906 19.433594 13.242188 19.613281 13.242188 C 19.902344 13.242188 20.058594 12.996094 20.148438 12.816406 C 20.328125 12.433594 20.28125 11.941406 20.171875 11.828125 C 20.148438 11.804688 20.148438 11.804688 20.125 11.804688 C 19.992188 11.851562 19.835938 12.03125 19.636719 12.253906 C 19.457031 12.480469 19.234375 12.726562 18.988281 12.90625 Z M 17.582031 12.703125 C 17.761719 12.839844 17.960938 12.929688 18.183594 12.949219 C 18.339844 12.972656 18.496094 12.929688 18.652344 12.859375 C 18.628906 12.839844 18.609375 12.792969 18.585938 12.769531 C 18.429688 12.589844 18.273438 12.367188 18.164062 12.164062 C 17.960938 12.1875 17.828125 12.253906 17.738281 12.367188 C 17.625 12.433594 17.582031 12.546875 17.582031 12.703125 Z M 17.671875 11.019531 C 17.648438 11.042969 17.625 11.042969 17.605469 11.066406 C 17.226562 11.402344 17.089844 11.804688 17.203125 12.1875 C 17.246094 12.300781 17.292969 12.414062 17.382812 12.5 C 17.402344 12.390625 17.46875 12.277344 17.539062 12.1875 C 17.648438 12.054688 17.804688 11.984375 18.007812 11.941406 C 17.894531 11.738281 17.828125 11.558594 17.761719 11.359375 C 17.714844 11.246094 17.695312 11.132812 17.671875 11.019531 Z M 18.429688 11.917969 C 18.5625 11.917969 18.71875 11.917969 18.875 11.941406 C 19.078125 11.964844 19.234375 11.917969 19.34375 11.804688 C 19.480469 11.671875 19.566406 11.425781 19.589844 11.179688 C 19.566406 11.179688 19.566406 11.179688 19.546875 11.15625 C 19.523438 11.15625 19.523438 11.15625 19.5 11.132812 C 18.964844 10.929688 18.339844 10.707031 17.851562 10.910156 C 17.871094 11.019531 17.894531 11.15625 17.9375 11.3125 C 18.007812 11.515625 18.09375 11.714844 18.207031 11.941406 C 18.296875 11.917969 18.363281 11.917969 18.429688 11.917969 Z M 20.015625 11.089844 C 20.171875 11.132812 20.304688 11.15625 20.371094 11.132812 C 20.394531 11.132812 20.414062 11.109375 20.414062 11.066406 C 20.59375 10.414062 20.394531 9.988281 20.171875 9.808594 C 20.035156 9.695312 19.925781 9.695312 19.859375 9.71875 C 19.792969 9.742188 19.792969 9.832031 19.792969 9.898438 C 19.792969 9.945312 19.792969 10.011719 19.8125 10.078125 C 19.835938 10.347656 19.859375 10.707031 19.835938 11.042969 C 19.859375 11.042969 19.878906 11.042969 19.925781 11.042969 C 19.96875 11.019531 19.992188 11.042969 20.015625 11.089844 Z M 18.296875 10.617188 C 18.542969 10.617188 18.785156 10.660156 19.03125 10.730469 C 18.988281 10.660156 18.921875 10.617188 18.875 10.550781 C 18.5625 10.191406 18.386719 10.011719 18.027344 10.257812 C 17.917969 10.347656 17.851562 10.480469 17.851562 10.683594 C 18.007812 10.640625 18.140625 10.617188 18.296875 10.617188 Z M 18.296875 10.617188 " fill-opacity="1" fill-rule="nonzero"/><path fill="#282a3d" d="M 16.175781 14.589844 C 16.152344 14.589844 16.132812 14.589844 16.109375 14.566406 C 15.082031 13.714844 15.417969 13.175781 15.773438 12.589844 C 16.066406 12.121094 16.355469 11.625 16.085938 10.863281 C 15.976562 10.527344 15.796875 10.257812 15.597656 10.035156 C 15.285156 10.257812 14.925781 10.414062 14.59375 10.4375 C 14.125 10.480469 13.789062 10.28125 13.589844 9.898438 C 13.453125 9.605469 13.519531 9.425781 13.589844 9.335938 C 13.722656 9.160156 14.011719 9.070312 14.390625 9.136719 C 14.792969 9.203125 15.238281 9.40625 15.597656 9.742188 C 15.820312 9.539062 15.996094 9.292969 16.066406 9.046875 C 16.242188 8.394531 16.019531 8.171875 15.351562 7.566406 C 15.105469 7.339844 14.816406 7.070312 14.480469 6.710938 C 13.566406 5.746094 14.035156 4.960938 14.300781 4.492188 C 14.390625 4.332031 14.480469 4.175781 14.457031 4.109375 C 14.4375 4.0625 14.4375 3.996094 14.503906 3.953125 C 14.546875 3.929688 14.613281 3.929688 14.660156 3.996094 C 14.75 4.152344 14.636719 4.355469 14.503906 4.582031 C 14.234375 5.050781 13.855469 5.703125 14.636719 6.554688 C 14.972656 6.914062 15.261719 7.183594 15.484375 7.386719 C 16.152344 7.992188 16.464844 8.304688 16.242188 9.089844 C 16.152344 9.359375 15.976562 9.628906 15.707031 9.875 C 15.929688 10.125 16.109375 10.414062 16.222656 10.773438 C 16.511719 11.625 16.175781 12.210938 15.886719 12.679688 C 15.707031 12.972656 15.574219 13.199219 15.574219 13.46875 C 15.574219 13.757812 15.773438 14.050781 16.175781 14.386719 C 16.222656 14.433594 16.222656 14.5 16.199219 14.542969 C 16.222656 14.566406 16.199219 14.589844 16.175781 14.589844 Z M 14.144531 9.335938 C 13.96875 9.335938 13.8125 9.382812 13.746094 9.472656 C 13.675781 9.5625 13.722656 9.71875 13.765625 9.808594 C 13.945312 10.191406 14.300781 10.257812 14.546875 10.234375 C 14.835938 10.214844 15.148438 10.078125 15.417969 9.898438 C 15.082031 9.585938 14.679688 9.40625 14.347656 9.359375 C 14.28125 9.335938 14.214844 9.335938 14.144531 9.335938 Z M 14.144531 9.335938 " fill-opacity="1" fill-rule="nonzero"/><path fill="#282a3d" d="M 25.972656 9 C 25.925781 9 25.882812 8.980469 25.882812 8.933594 C 25.769531 8.621094 25.835938 8.191406 26.105469 7.765625 C 26.21875 7.585938 26.351562 7.40625 26.507812 7.273438 C 26.171875 6.9375 25.925781 6.511719 25.972656 6.0625 C 26.015625 5.476562 26.351562 5.386719 26.730469 5.296875 C 27.019531 5.230469 27.378906 5.117188 27.757812 4.761719 C 27.777344 4.738281 27.800781 4.714844 27.824219 4.691406 C 27.710938 4.648438 27.601562 4.582031 27.511719 4.511719 C 27.066406 4.222656 26.640625 3.792969 26.730469 3.503906 C 26.773438 3.390625 26.863281 3.324219 27.019531 3.300781 C 27.378906 3.277344 27.957031 3.59375 28.160156 4.019531 C 28.226562 4.152344 28.246094 4.355469 28.160156 4.582031 C 28.46875 4.691406 28.828125 4.714844 29.117188 4.46875 C 29.320312 4.265625 29.25 4.175781 29.007812 3.882812 C 28.804688 3.636719 28.515625 3.277344 28.605469 2.738281 C 28.671875 2.292969 28.9375 1.953125 29.339844 1.730469 C 29.628906 1.574219 29.921875 1.527344 29.921875 1.527344 C 29.988281 1.527344 30.03125 1.574219 30.03125 1.617188 C 30.03125 1.683594 29.988281 1.730469 29.941406 1.730469 C 29.941406 1.730469 29.699219 1.753906 29.429688 1.910156 C 29.09375 2.113281 28.871094 2.382812 28.828125 2.761719 C 28.761719 3.210938 28.984375 3.480469 29.183594 3.75 C 29.296875 3.882812 29.40625 4.019531 29.453125 4.152344 C 29.496094 4.332031 29.453125 4.492188 29.273438 4.625 C 29.050781 4.828125 28.761719 4.917969 28.425781 4.847656 C 28.292969 4.828125 28.179688 4.804688 28.070312 4.761719 C 28.023438 4.804688 28.003906 4.847656 27.933594 4.894531 C 27.511719 5.296875 27.132812 5.410156 26.796875 5.476562 C 26.441406 5.566406 26.238281 5.636719 26.195312 6.0625 C 26.171875 6.332031 26.261719 6.621094 26.484375 6.914062 C 26.550781 6.980469 26.617188 7.046875 26.6875 7.136719 C 26.820312 7.046875 26.953125 6.960938 27.085938 6.914062 C 27.578125 6.734375 28.113281 6.980469 28.292969 7.339844 C 28.425781 7.585938 28.359375 7.835938 28.136719 7.992188 C 27.933594 8.125 27.464844 7.96875 27.132812 7.765625 C 26.976562 7.675781 26.820312 7.566406 26.664062 7.453125 C 26.53125 7.585938 26.394531 7.746094 26.304688 7.925781 C 26.082031 8.28125 26.015625 8.640625 26.105469 8.890625 C 26.128906 8.933594 26.105469 9 26.039062 9.023438 C 25.992188 9 25.972656 9 25.972656 9 Z M 26.796875 7.296875 C 26.929688 7.40625 27.066406 7.496094 27.199219 7.566406 C 27.621094 7.8125 27.914062 7.835938 27.957031 7.8125 C 28.136719 7.675781 28.089844 7.542969 28.046875 7.429688 C 27.914062 7.160156 27.488281 6.960938 27.109375 7.117188 C 27.019531 7.160156 26.910156 7.226562 26.796875 7.296875 Z M 27.019531 3.546875 C 27.019531 3.546875 26.996094 3.546875 26.996094 3.546875 C 26.976562 3.546875 26.910156 3.546875 26.910156 3.59375 C 26.910156 3.636719 26.910156 3.726562 27.066406 3.90625 C 27.199219 4.0625 27.398438 4.222656 27.601562 4.355469 C 27.667969 4.402344 27.777344 4.46875 27.914062 4.535156 C 27.980469 4.402344 27.980469 4.265625 27.914062 4.132812 C 27.777344 3.773438 27.289062 3.546875 27.019531 3.546875 Z M 27.019531 3.546875 " fill-opacity="1" fill-rule="nonzero"/><path fill="#282a3d" d="M 35.519531 26.011719 C 35.03125 26.011719 34.628906 25.832031 34.429688 25.472656 C 34.359375 25.359375 34.316406 25.25 34.292969 25.113281 C 34.027344 25.269531 33.78125 25.339844 33.558594 25.339844 C 32.621094 25.316406 32.019531 25.136719 31.617188 24.777344 C 31.257812 24.464844 31.101562 24.015625 31.101562 23.339844 C 31.101562 23.183594 31.214844 23.027344 31.4375 22.847656 C 31.550781 22.757812 31.707031 22.644531 31.882812 22.53125 C 31.882812 22.53125 31.882812 22.511719 31.882812 22.511719 L 31.882812 22.441406 C 31.882812 22.421875 31.882812 22.398438 31.90625 22.375 C 31.503906 22.085938 31.238281 21.746094 31.148438 21.410156 C 31.082031 21.1875 31.082031 20.761719 31.660156 20.535156 C 32.800781 20.085938 33.511719 20.3125 34.117188 20.828125 C 34.226562 20.738281 34.359375 20.648438 34.515625 20.601562 C 34.785156 20.511719 34.964844 20.535156 35.097656 20.648438 C 35.207031 20.761719 35.253906 20.941406 35.230469 21.210938 C 35.589844 21.074219 35.96875 20.960938 36.300781 21.007812 C 36.726562 21.050781 37.0625 21.296875 37.304688 21.792969 C 37.417969 21.746094 37.507812 21.726562 37.617188 21.703125 C 37.773438 21.703125 37.929688 21.769531 38.066406 21.90625 C 38.265625 22.128906 38.332031 22.308594 38.265625 22.464844 C 38.132812 22.800781 37.460938 22.890625 36.390625 22.9375 C 36.300781 23.050781 36.214844 23.160156 36.101562 23.273438 C 36.234375 23.410156 36.371094 23.542969 36.523438 23.675781 C 37.171875 24.261719 37.195312 24.730469 37.105469 25.046875 C 36.949219 25.585938 36.300781 25.921875 35.746094 25.988281 C 35.699219 25.988281 35.609375 26.011719 35.519531 26.011719 Z M 34.496094 24.980469 C 34.515625 25.136719 34.539062 25.25 34.605469 25.359375 C 34.808594 25.675781 35.230469 25.832031 35.746094 25.765625 C 36.324219 25.695312 36.792969 25.359375 36.925781 24.980469 C 37.039062 24.621094 36.859375 24.238281 36.414062 23.835938 C 36.28125 23.699219 36.125 23.566406 36.011719 23.429688 C 35.632812 23.878906 35.253906 24.328125 34.875 24.6875 C 34.742188 24.800781 34.605469 24.910156 34.496094 24.980469 Z M 31.90625 22.78125 C 31.484375 23.050781 31.304688 23.230469 31.304688 23.339844 C 31.304688 23.945312 31.4375 24.351562 31.75 24.621094 C 32.109375 24.933594 32.6875 25.089844 33.558594 25.113281 C 33.78125 25.113281 34.027344 25.023438 34.273438 24.867188 C 34.25 24.351562 34.40625 23.699219 34.605469 23.027344 C 34.496094 23.027344 34.382812 23.050781 34.273438 23.070312 C 34.117188 23.09375 33.9375 23.09375 33.78125 23.09375 C 33.78125 23.722656 33.78125 24.238281 33.511719 24.484375 C 33.425781 24.574219 33.289062 24.621094 33.15625 24.621094 C 32.644531 24.597656 32.285156 24.351562 32.085938 23.878906 C 31.972656 23.542969 31.929688 23.160156 31.90625 22.78125 Z M 34.828125 23.027344 C 34.652344 23.632812 34.496094 24.261719 34.496094 24.730469 C 34.964844 24.375 35.410156 23.8125 35.855469 23.296875 C 35.765625 23.183594 35.675781 23.09375 35.589844 22.980469 C 35.320312 22.980469 35.074219 23.003906 34.828125 23.027344 Z M 32.128906 22.667969 C 32.152344 23.050781 32.175781 23.476562 32.308594 23.789062 C 32.464844 24.195312 32.730469 24.375 33.179688 24.394531 C 33.269531 24.394531 33.335938 24.375 33.378906 24.328125 C 33.558594 24.148438 33.558594 23.632812 33.582031 23.09375 C 33.582031 23.09375 33.582031 23.070312 33.582031 23.070312 C 33.15625 23.003906 32.710938 22.871094 32.285156 22.644531 C 32.265625 22.644531 32.265625 22.621094 32.242188 22.621094 C 32.195312 22.621094 32.152344 22.644531 32.128906 22.667969 Z M 35.855469 22.960938 C 35.902344 23.003906 35.945312 23.070312 35.988281 23.117188 C 36.035156 23.070312 36.078125 23.003906 36.125 22.960938 C 36.058594 22.960938 35.96875 22.960938 35.902344 22.960938 C 35.878906 22.960938 35.878906 22.960938 35.855469 22.960938 Z M 33.78125 22.871094 C 33.9375 22.871094 34.09375 22.871094 34.25 22.847656 C 34.382812 22.824219 34.515625 22.824219 34.671875 22.800781 C 34.695312 22.757812 34.695312 22.691406 34.71875 22.644531 C 34.785156 22.441406 34.828125 22.242188 34.898438 22.039062 C 34.808594 21.90625 34.695312 21.769531 34.605469 21.65625 C 34.359375 21.726562 34.117188 21.816406 33.871094 21.90625 C 33.804688 22.21875 33.78125 22.53125 33.78125 22.871094 Z M 32.464844 22.488281 C 32.820312 22.667969 33.199219 22.800781 33.558594 22.847656 C 33.558594 22.554688 33.582031 22.265625 33.601562 21.996094 C 33.199219 22.152344 32.820312 22.308594 32.464844 22.488281 Z M 35.03125 22.265625 C 34.984375 22.398438 34.941406 22.554688 34.898438 22.710938 C 34.898438 22.734375 34.875 22.757812 34.875 22.800781 C 35.054688 22.78125 35.230469 22.78125 35.410156 22.78125 C 35.277344 22.601562 35.164062 22.421875 35.03125 22.265625 Z M 35.121094 21.996094 C 35.140625 22.015625 35.140625 22.039062 35.164062 22.0625 C 35.34375 22.285156 35.5 22.53125 35.699219 22.757812 C 35.765625 22.757812 35.832031 22.757812 35.902344 22.757812 C 36.035156 22.757812 36.191406 22.734375 36.324219 22.734375 C 36.636719 22.375 36.90625 22.085938 37.171875 21.90625 C 36.703125 20.984375 36.011719 21.1875 35.230469 21.457031 C 35.207031 21.613281 35.164062 21.792969 35.121094 21.996094 Z M 37.328125 22.039062 C 37.105469 22.175781 36.859375 22.421875 36.59375 22.710938 C 36.882812 22.691406 37.148438 22.667969 37.375 22.644531 C 37.886719 22.578125 38.042969 22.464844 38.066406 22.375 C 38.109375 22.285156 37.996094 22.152344 37.910156 22.039062 C 37.820312 21.949219 37.730469 21.90625 37.640625 21.90625 C 37.550781 21.90625 37.460938 21.949219 37.351562 21.996094 C 37.351562 22.015625 37.351562 22.015625 37.328125 22.039062 C 37.351562 22.039062 37.351562 22.039062 37.328125 22.039062 Z M 32.777344 20.511719 C 32.464844 20.511719 32.128906 20.582031 31.75 20.738281 C 31.414062 20.871094 31.28125 21.074219 31.347656 21.367188 C 31.4375 21.679688 31.773438 22.0625 32.21875 22.351562 C 32.621094 22.152344 33.113281 21.925781 33.625 21.746094 C 33.691406 21.476562 33.78125 21.210938 33.9375 21.007812 C 33.824219 20.917969 33.714844 20.828125 33.601562 20.761719 C 33.378906 20.601562 33.089844 20.511719 32.777344 20.511719 Z M 34.808594 21.589844 C 34.851562 21.65625 34.898438 21.703125 34.941406 21.769531 C 34.964844 21.679688 34.984375 21.589844 34.984375 21.523438 C 34.941406 21.546875 34.875 21.566406 34.808594 21.589844 Z M 34.136719 21.164062 C 34.027344 21.296875 33.960938 21.476562 33.890625 21.679688 C 34.070312 21.613281 34.25 21.566406 34.429688 21.5 C 34.339844 21.367188 34.25 21.253906 34.136719 21.164062 Z M 34.292969 21.007812 C 34.429688 21.140625 34.539062 21.277344 34.671875 21.433594 C 34.808594 21.386719 34.917969 21.34375 35.054688 21.296875 C 35.074219 21.074219 35.074219 20.894531 34.984375 20.828125 C 34.917969 20.761719 34.742188 20.78125 34.628906 20.828125 C 34.496094 20.871094 34.382812 20.917969 34.292969 21.007812 Z M 34.292969 21.007812 " fill-opacity="1" fill-rule="nonzero"/><path fill="#282a3d" d="M 5.421875 25.988281 C 5.132812 25.988281 4.839844 25.875 4.53125 25.652344 C 4.148438 25.382812 3.769531 24.933594 3.480469 24.417969 C 3.300781 24.105469 3.167969 23.789062 3.078125 23.476562 C 2.902344 23.410156 2.746094 23.296875 2.589844 23.140625 C 2.140625 22.691406 2.074219 22.195312 2.140625 21.679688 C 1.898438 21.457031 1.695312 21.230469 1.5625 21.007812 C 1.40625 20.738281 1.382812 20.46875 1.449219 20.222656 C 1.605469 19.683594 2.164062 18.988281 2.902344 18.359375 C 3.660156 17.730469 4.417969 17.328125 4.976562 17.304688 C 5.355469 17.28125 5.621094 17.4375 5.757812 17.777344 C 5.867188 18.042969 5.980469 18.402344 6.089844 18.832031 C 6.582031 18.71875 7.183594 18.605469 7.476562 18.695312 C 7.988281 18.875 8.121094 19.324219 8.144531 19.480469 C 8.636719 19.277344 9.191406 19.347656 9.839844 19.707031 C 9.882812 19.726562 9.90625 19.796875 9.882812 19.863281 C 9.863281 19.90625 9.796875 19.929688 9.726562 19.90625 C 9.058594 19.527344 8.523438 19.480469 8.03125 19.796875 C 7.988281 19.839844 7.921875 19.863281 7.875 19.90625 C 8.03125 20.175781 8.121094 20.535156 8.144531 21.074219 C 8.144531 21.164062 8.144531 21.253906 8.144531 21.34375 C 8.480469 21.589844 8.679688 21.90625 8.65625 22.195312 C 8.636719 22.871094 8.433594 23.363281 8.054688 23.65625 C 7.921875 23.746094 7.785156 23.8125 7.628906 23.855469 C 7.609375 23.925781 7.5625 23.992188 7.542969 24.058594 C 7.09375 25.023438 6.449219 25.695312 5.734375 25.964844 C 5.644531 25.964844 5.535156 25.988281 5.421875 25.988281 Z M 3.324219 23.542969 C 3.414062 23.789062 3.523438 24.058594 3.660156 24.304688 C 4.148438 25.203125 5.019531 25.964844 5.691406 25.71875 C 6.359375 25.472656 6.9375 24.84375 7.363281 23.925781 C 7.363281 23.902344 7.386719 23.878906 7.386719 23.878906 C 7.09375 23.925781 6.761719 23.878906 6.359375 23.765625 C 6.226562 24.171875 6.023438 24.507812 5.691406 24.6875 C 5.601562 24.730469 5.488281 24.730469 5.355469 24.640625 C 5.109375 24.484375 4.753906 24.035156 4.394531 23.429688 C 4.171875 23.519531 3.972656 23.566406 3.769531 23.566406 C 3.613281 23.585938 3.480469 23.566406 3.324219 23.542969 Z M 4.597656 23.339844 C 4.929688 23.902344 5.242188 24.304688 5.464844 24.464844 C 5.535156 24.507812 5.578125 24.507812 5.601562 24.507812 C 5.847656 24.375 6.046875 24.105469 6.160156 23.722656 C 5.800781 23.609375 5.332031 23.453125 4.820312 23.230469 C 4.773438 23.273438 4.6875 23.320312 4.597656 23.339844 Z M 6.449219 23.566406 C 6.871094 23.675781 7.207031 23.699219 7.519531 23.65625 C 7.785156 22.960938 7.941406 22.195312 7.964844 21.457031 C 7.875 21.386719 7.785156 21.34375 7.675781 21.296875 C 7.476562 21.1875 7.230469 21.097656 6.984375 21.03125 C 6.960938 21.074219 6.9375 21.097656 6.917969 21.140625 C 6.804688 21.320312 6.695312 21.476562 6.558594 21.65625 C 6.605469 22.265625 6.582031 22.980469 6.449219 23.566406 Z M 8.167969 21.589844 C 8.144531 22.265625 7.988281 22.9375 7.765625 23.566406 C 7.832031 23.542969 7.898438 23.496094 7.941406 23.453125 C 8.367188 23.140625 8.457031 22.578125 8.480469 22.175781 C 8.480469 21.972656 8.367188 21.769531 8.167969 21.589844 Z M 5.085938 23.09375 C 5.511719 23.273438 5.914062 23.410156 6.246094 23.496094 C 6.269531 23.453125 6.269531 23.410156 6.269531 23.363281 C 6.359375 22.960938 6.382812 22.464844 6.359375 21.90625 C 6.359375 21.90625 6.335938 21.925781 6.335938 21.925781 C 5.957031 22.398438 5.511719 22.800781 5.085938 23.09375 Z M 3.257812 23.296875 C 3.414062 23.339844 3.59375 23.363281 3.769531 23.339844 C 3.949219 23.339844 4.128906 23.296875 4.304688 23.230469 C 4.238281 23.117188 4.171875 23.003906 4.128906 22.890625 C 3.992188 22.824219 3.835938 22.757812 3.703125 22.691406 C 3.546875 22.601562 3.390625 22.511719 3.214844 22.421875 C 3.191406 22.511719 3.191406 22.621094 3.191406 22.734375 C 3.191406 22.914062 3.214844 23.09375 3.257812 23.296875 Z M 2.34375 21.835938 C 2.296875 22.242188 2.386719 22.644531 2.746094 22.980469 C 2.832031 23.070312 2.921875 23.140625 3.011719 23.183594 C 2.988281 23.027344 2.96875 22.871094 2.96875 22.710938 C 2.96875 22.554688 2.96875 22.421875 2.988281 22.285156 C 2.765625 22.152344 2.542969 22.015625 2.34375 21.835938 Z M 4.441406 23.050781 C 4.460938 23.09375 4.484375 23.117188 4.507812 23.160156 C 4.53125 23.140625 4.574219 23.140625 4.597656 23.117188 C 4.550781 23.09375 4.484375 23.070312 4.441406 23.050781 Z M 4.261719 22.734375 C 4.460938 22.824219 4.640625 22.914062 4.820312 22.980469 C 5.289062 22.710938 5.757812 22.285156 6.160156 21.769531 C 6.226562 21.703125 6.269531 21.613281 6.335938 21.546875 C 6.335938 21.5 6.335938 21.433594 6.3125 21.386719 C 6.292969 21.210938 6.269531 21.03125 6.246094 20.851562 C 5.332031 20.738281 4.375 20.894531 3.703125 21.410156 C 3.835938 21.792969 3.992188 22.21875 4.21875 22.644531 C 4.238281 22.691406 4.261719 22.710938 4.261719 22.734375 Z M 3.234375 22.195312 C 3.414062 22.285156 3.59375 22.398438 3.769531 22.488281 C 3.835938 22.511719 3.882812 22.554688 3.949219 22.578125 C 3.792969 22.242188 3.660156 21.90625 3.546875 21.589844 C 3.414062 21.769531 3.300781 21.972656 3.234375 22.195312 Z M 2.386719 21.613281 C 2.566406 21.769531 2.789062 21.925781 3.058594 22.085938 C 3.144531 21.816406 3.28125 21.566406 3.480469 21.367188 C 3.347656 20.960938 3.300781 20.601562 3.300781 20.332031 C 3.324219 20.019531 3.414062 19.816406 3.613281 19.707031 C 4.0625 19.457031 4.753906 19.210938 5.445312 18.988281 C 5.355469 18.964844 5.289062 18.921875 5.199219 18.875 C 4.484375 18.5625 3.972656 18.472656 3.660156 18.628906 C 3.300781 18.808594 3.144531 19.257812 2.988281 19.816406 C 2.921875 20.066406 2.832031 20.3125 2.722656 20.582031 C 2.589844 20.917969 2.453125 21.277344 2.386719 21.613281 Z M 5.019531 17.507812 C 4.996094 17.507812 4.996094 17.507812 4.976562 17.507812 C 4.484375 17.527344 3.75 17.910156 3.035156 18.515625 C 2.34375 19.097656 1.808594 19.773438 1.652344 20.265625 C 1.585938 20.46875 1.628906 20.671875 1.742188 20.894531 C 1.828125 21.074219 1.984375 21.253906 2.1875 21.433594 C 2.253906 21.121094 2.386719 20.804688 2.5 20.492188 C 2.589844 20.242188 2.699219 19.996094 2.746094 19.75 C 2.921875 19.121094 3.078125 18.628906 3.523438 18.425781 C 3.925781 18.246094 4.460938 18.3125 5.242188 18.671875 C 5.421875 18.761719 5.578125 18.832031 5.734375 18.875 C 5.777344 18.875 5.800781 18.851562 5.847656 18.851562 C 5.734375 18.425781 5.621094 18.089844 5.511719 17.820312 C 5.464844 17.617188 5.289062 17.507812 5.019531 17.507812 Z M 6.492188 20.894531 C 6.515625 21.03125 6.515625 21.164062 6.539062 21.296875 C 6.605469 21.210938 6.671875 21.097656 6.738281 21.007812 C 6.761719 20.984375 6.761719 20.984375 6.761719 20.960938 C 6.671875 20.917969 6.582031 20.917969 6.492188 20.894531 Z M 5.757812 19.121094 C 5.019531 19.324219 4.21875 19.617188 3.703125 19.886719 C 3.59375 19.953125 3.523438 20.085938 3.503906 20.3125 C 3.503906 20.535156 3.546875 20.851562 3.636719 21.1875 C 4.285156 20.691406 5.109375 20.582031 5.667969 20.582031 C 5.847656 20.582031 6.023438 20.582031 6.226562 20.601562 C 6.160156 20.085938 6.046875 19.59375 5.957031 19.144531 C 5.890625 19.167969 5.824219 19.144531 5.757812 19.121094 Z M 7.09375 20.828125 C 7.320312 20.894531 7.542969 20.984375 7.742188 21.074219 C 7.808594 21.121094 7.875 21.140625 7.941406 21.1875 C 7.941406 21.140625 7.941406 21.121094 7.941406 21.074219 C 7.921875 20.582031 7.855469 20.265625 7.71875 20.042969 C 7.496094 20.242188 7.296875 20.511719 7.09375 20.828125 Z M 6.449219 20.671875 C 6.582031 20.691406 6.738281 20.714844 6.871094 20.761719 C 7.09375 20.421875 7.339844 20.109375 7.585938 19.863281 C 7.363281 19.617188 7.007812 19.503906 6.515625 19.367188 C 6.402344 19.347656 6.292969 19.300781 6.179688 19.277344 C 6.292969 19.707031 6.382812 20.175781 6.449219 20.671875 Z M 6.136719 19.03125 C 6.292969 19.078125 6.449219 19.121094 6.582031 19.167969 C 7.09375 19.300781 7.496094 19.414062 7.765625 19.726562 C 7.832031 19.683594 7.875 19.636719 7.941406 19.617188 C 7.941406 19.617188 7.964844 19.617188 7.964844 19.59375 C 7.964844 19.59375 7.964844 19.570312 7.964844 19.570312 C 7.964844 19.546875 7.898438 19.078125 7.429688 18.921875 C 7.207031 18.832031 6.714844 18.875 6.136719 19.03125 Z M 6.136719 19.03125 " fill-opacity="1" fill-rule="nonzero"/><g clip-path="url(#df8e227899)"><path fill="#282a3d" d="M 18.09375 8.417969 C 18.074219 8.417969 18.050781 8.417969 18.027344 8.394531 C 17.738281 8.148438 17.605469 7.789062 17.46875 7.40625 C 17.3125 6.9375 17.113281 6.421875 16.601562 5.992188 C 16.152344 5.636719 15.996094 5.074219 16.199219 4.511719 C 16.378906 3.996094 16.824219 3.617188 17.246094 3.617188 C 17.246094 3.617188 17.246094 3.617188 17.269531 3.617188 C 17.269531 3.617188 17.292969 3.617188 17.292969 3.617188 C 17.9375 3.617188 18.429688 3.234375 18.941406 2.808594 C 19.480469 2.382812 20.035156 1.933594 20.839844 1.863281 C 21.464844 1.820312 21.820312 1.484375 22.199219 1.148438 C 22.625 0.765625 23.027344 0.40625 23.742188 0.5625 C 24.320312 0.699219 24.722656 1.058594 24.921875 1.617188 C 25.078125 2.113281 25.078125 2.671875 25.058594 3.167969 C 25.035156 3.683594 24.832031 4.085938 24.453125 4.378906 C 24.097656 4.648438 23.539062 4.847656 22.78125 4.960938 C 21.730469 5.117188 21.195312 5.589844 20.707031 6.015625 C 20.28125 6.375 19.878906 6.734375 19.210938 6.847656 C 18.320312 7.003906 18.230469 8.304688 18.230469 8.304688 C 18.230469 8.351562 18.207031 8.371094 18.164062 8.394531 C 18.140625 8.417969 18.117188 8.417969 18.09375 8.417969 Z M 17.246094 3.816406 C 16.933594 3.816406 16.554688 4.132812 16.398438 4.582031 C 16.308594 4.804688 16.175781 5.386719 16.734375 5.835938 C 17.292969 6.285156 17.492188 6.847656 17.671875 7.339844 C 17.78125 7.632812 17.871094 7.878906 18.007812 8.082031 C 18.027344 7.945312 18.074219 7.746094 18.164062 7.566406 C 18.363281 7.046875 18.71875 6.734375 19.144531 6.644531 C 19.746094 6.53125 20.101562 6.21875 20.527344 5.859375 C 21.039062 5.410156 21.597656 4.917969 22.714844 4.761719 C 23.429688 4.648438 23.941406 4.46875 24.277344 4.222656 C 24.609375 3.972656 24.765625 3.636719 24.789062 3.167969 C 24.855469 2.066406 24.765625 1.035156 23.652344 0.789062 C 23.046875 0.652344 22.691406 0.96875 22.3125 1.328125 C 21.933594 1.664062 21.53125 2.023438 20.839844 2.089844 C 20.101562 2.15625 19.566406 2.582031 19.054688 2.988281 C 18.519531 3.414062 18.007812 3.839844 17.269531 3.839844 C 17.292969 3.816406 17.269531 3.816406 17.246094 3.816406 Z M 17.246094 3.816406 " fill-opacity="1" fill-rule="nonzero"/></g><path fill="#282a3d" d="M 5.242188 11.804688 C 5.199219 11.804688 5.152344 11.785156 5.132812 11.738281 L 4.773438 10.570312 C 4.753906 10.503906 4.796875 10.460938 4.839844 10.4375 C 4.910156 10.414062 4.953125 10.460938 4.976562 10.503906 L 5.332031 11.671875 C 5.355469 11.738281 5.308594 11.785156 5.265625 11.804688 C 5.265625 11.804688 5.242188 11.804688 5.242188 11.804688 Z M 5.242188 11.804688 " fill-opacity="1" fill-rule="nonzero"/><path fill="#282a3d" d="M 5.757812 11.445312 C 5.757812 11.445312 5.734375 11.445312 5.734375 11.445312 L 4.195312 11.042969 C 4.128906 11.019531 4.105469 10.976562 4.128906 10.910156 C 4.148438 10.839844 4.195312 10.820312 4.261719 10.839844 L 5.777344 11.222656 C 5.847656 11.246094 5.867188 11.289062 5.847656 11.359375 C 5.847656 11.402344 5.800781 11.445312 5.757812 11.445312 Z M 5.757812 11.445312 " fill-opacity="1" fill-rule="nonzero"/><path fill="#282a3d" d="M 4.484375 11.714844 C 4.460938 11.714844 4.417969 11.714844 4.417969 11.695312 C 4.375 11.648438 4.375 11.582031 4.417969 11.535156 L 5.535156 10.460938 C 5.578125 10.414062 5.644531 10.414062 5.691406 10.460938 C 5.734375 10.503906 5.734375 10.570312 5.691406 10.617188 L 4.574219 11.695312 C 4.53125 11.714844 4.507812 11.714844 4.484375 11.714844 Z M 4.484375 11.714844 " fill-opacity="1" fill-rule="nonzero"/><path fill="#282a3d" d="M 20.328125 8.890625 C 20.257812 8.890625 20.214844 8.820312 20.214844 8.777344 L 20.371094 7.585938 C 20.371094 7.519531 20.4375 7.496094 20.484375 7.496094 C 20.550781 7.496094 20.570312 7.566406 20.570312 7.609375 L 20.414062 8.800781 C 20.4375 8.867188 20.394531 8.890625 20.328125 8.890625 Z M 20.328125 8.890625 " fill-opacity="1" fill-rule="nonzero"/><path fill="#282a3d" d="M 20.90625 8.730469 C 20.882812 8.730469 20.863281 8.730469 20.839844 8.710938 L 19.722656 7.835938 C 19.679688 7.789062 19.679688 7.722656 19.703125 7.675781 C 19.746094 7.632812 19.8125 7.632812 19.859375 7.65625 L 20.972656 8.53125 C 21.019531 8.574219 21.019531 8.640625 20.996094 8.6875 C 20.953125 8.710938 20.929688 8.730469 20.90625 8.730469 Z M 20.90625 8.730469 " fill-opacity="1" fill-rule="nonzero"/><path fill="#282a3d" d="M 19.746094 8.574219 C 19.703125 8.574219 19.65625 8.550781 19.65625 8.507812 C 19.636719 8.460938 19.65625 8.394531 19.703125 8.371094 L 20.996094 7.746094 C 21.039062 7.722656 21.109375 7.746094 21.128906 7.789062 C 21.152344 7.835938 21.128906 7.902344 21.085938 7.925781 L 19.792969 8.550781 C 19.769531 8.550781 19.769531 8.574219 19.746094 8.574219 Z M 19.746094 8.574219 " fill-opacity="1" fill-rule="nonzero"/><path fill="#282a3d" d="M 36.214844 11.875 C 36.191406 11.875 36.191406 11.875 36.214844 11.875 C 36.144531 11.875 36.101562 11.804688 36.101562 11.761719 L 36.257812 10.570312 C 36.257812 10.503906 36.324219 10.480469 36.371094 10.480469 C 36.4375 10.480469 36.457031 10.550781 36.457031 10.59375 L 36.300781 11.785156 C 36.300781 11.828125 36.257812 11.875 36.214844 11.875 Z M 36.214844 11.875 " fill-opacity="1" fill-rule="nonzero"/><path fill="#282a3d" d="M 36.769531 11.714844 C 36.75 11.714844 36.726562 11.714844 36.703125 11.695312 L 35.65625 10.839844 C 35.609375 10.796875 35.609375 10.730469 35.632812 10.683594 C 35.675781 10.640625 35.746094 10.640625 35.789062 10.660156 L 36.835938 11.515625 C 36.882812 11.558594 36.882812 11.625 36.859375 11.671875 C 36.835938 11.695312 36.792969 11.714844 36.769531 11.714844 Z M 36.769531 11.714844 " fill-opacity="1" fill-rule="nonzero"/><path fill="#282a3d" d="M 35.609375 11.535156 C 35.566406 11.535156 35.519531 11.515625 35.519531 11.46875 C 35.5 11.425781 35.519531 11.359375 35.566406 11.335938 L 36.859375 10.707031 C 36.90625 10.683594 36.972656 10.707031 36.992188 10.75 C 37.015625 10.796875 36.992188 10.863281 36.949219 10.886719 L 35.65625 11.515625 C 35.632812 11.535156 35.632812 11.535156 35.609375 11.535156 Z M 35.609375 11.535156 " fill-opacity="1" fill-rule="nonzero"/><path fill="#282a3d" d="M 10.441406 19.03125 C 10.0625 18.964844 9.929688 18.898438 9.90625 18.785156 C 9.882812 18.671875 10.019531 18.582031 10.152344 18.515625 C 10.285156 18.449219 10.441406 18.359375 10.53125 18.222656 C 10.464844 18.222656 10.332031 18.222656 10.265625 18.222656 C 9.953125 18.246094 9.503906 18.246094 9.484375 17.933594 C 9.484375 17.867188 9.503906 17.796875 9.550781 17.753906 C 9.683594 17.597656 10.019531 17.550781 10.464844 17.527344 C 10.910156 17.484375 11.445312 17.4375 11.734375 17.238281 C 11.890625 17.125 11.9375 17.058594 11.9375 17.011719 C 11.914062 16.945312 11.714844 16.855469 11.535156 16.832031 C 11.46875 16.832031 11.445312 16.765625 11.445312 16.699219 C 11.445312 16.632812 11.511719 16.609375 11.582031 16.609375 C 11.667969 16.632812 12.09375 16.699219 12.136719 16.96875 C 12.183594 17.191406 11.9375 17.347656 11.847656 17.417969 C 11.492188 17.640625 10.957031 17.6875 10.464844 17.730469 C 10.128906 17.753906 9.773438 17.796875 9.683594 17.886719 C 9.683594 17.886719 9.683594 17.910156 9.683594 17.910156 C 9.707031 18.042969 10.019531 18.023438 10.242188 18.023438 C 10.488281 18.023438 10.664062 18 10.730469 18.132812 C 10.777344 18.203125 10.753906 18.269531 10.6875 18.359375 C 10.574219 18.515625 10.398438 18.628906 10.242188 18.71875 C 10.21875 18.742188 10.175781 18.761719 10.152344 18.785156 C 10.195312 18.808594 10.285156 18.832031 10.441406 18.851562 C 10.507812 18.851562 10.53125 18.921875 10.53125 18.988281 C 10.554688 19.011719 10.507812 19.03125 10.441406 19.03125 Z M 10.441406 19.03125 " fill-opacity="1" fill-rule="nonzero"/><path fill="#282a3d" d="M 37.6875 14.859375 C 37.617188 14.859375 37.550781 14.835938 37.507812 14.789062 C 37.261719 14.566406 37.507812 14.207031 37.707031 13.9375 C 37.773438 13.847656 37.839844 13.734375 37.863281 13.691406 C 37.863281 13.691406 37.863281 13.691406 37.839844 13.691406 C 37.6875 13.691406 37.53125 13.757812 37.394531 13.824219 C 37.238281 13.894531 37.105469 13.960938 37.015625 13.871094 C 36.925781 13.78125 36.949219 13.644531 37.105469 13.289062 C 37.128906 13.242188 37.195312 13.199219 37.238281 13.21875 C 37.285156 13.242188 37.328125 13.308594 37.304688 13.355469 C 37.238281 13.511719 37.21875 13.625 37.195312 13.667969 C 37.238281 13.644531 37.285156 13.625 37.304688 13.625 C 37.460938 13.558594 37.664062 13.46875 37.863281 13.46875 C 37.976562 13.46875 38.042969 13.511719 38.066406 13.578125 C 38.132812 13.714844 38.019531 13.847656 37.863281 14.050781 C 37.6875 14.296875 37.53125 14.523438 37.640625 14.613281 C 37.664062 14.632812 37.664062 14.632812 37.6875 14.632812 C 37.796875 14.632812 38.042969 14.34375 38.242188 14.074219 C 38.554688 13.691406 38.890625 13.242188 39.292969 13.109375 C 39.539062 13.019531 39.714844 13.019531 39.828125 13.152344 C 40.007812 13.355469 39.851562 13.78125 39.804688 13.847656 C 39.78125 13.894531 39.714844 13.9375 39.671875 13.894531 C 39.625 13.871094 39.582031 13.804688 39.625 13.757812 C 39.695312 13.601562 39.738281 13.355469 39.671875 13.289062 C 39.625 13.242188 39.515625 13.242188 39.359375 13.308594 C 39.023438 13.445312 38.691406 13.847656 38.398438 14.207031 C 38.152344 14.566406 37.929688 14.835938 37.6875 14.859375 C 37.707031 14.859375 37.707031 14.859375 37.6875 14.859375 Z M 37.195312 13.714844 Z M 37.195312 13.714844 " fill-opacity="1" fill-rule="nonzero"/><path fill="#282a3d" d="M 8.96875 9.585938 C 8.746094 9.585938 8.546875 9.496094 8.34375 9.335938 C 8.253906 9.246094 8.144531 9.160156 8.078125 9.070312 C 7.941406 9.070312 7.832031 9.070312 7.699219 9.023438 C 7.140625 8.890625 6.828125 8.460938 6.828125 7.855469 C 6.828125 7.65625 6.984375 7.429688 7.207031 7.226562 C 7.117188 6.691406 7.164062 6.171875 7.339844 5.816406 C 7.40625 5.703125 7.5625 5.546875 7.921875 5.566406 C 8.011719 5.566406 8.078125 5.566406 8.1875 5.589844 C 8.210938 5.457031 8.253906 5.320312 8.324219 5.207031 C 8.457031 4.9375 8.65625 4.894531 8.769531 4.894531 C 8.859375 4.894531 8.992188 4.9375 9.082031 5.097656 C 9.191406 5.277344 9.238281 5.566406 9.257812 5.925781 C 9.550781 5.816406 9.863281 5.726562 10.128906 5.679688 C 10.777344 5.589844 10.976562 5.859375 11.042969 6.105469 C 11.113281 6.398438 11.089844 6.757812 11 7.160156 C 11.222656 7.429688 11.335938 7.722656 11.289062 7.992188 C 11.199219 8.394531 10.957031 8.664062 10.554688 8.753906 C 10.441406 8.777344 10.332031 8.800781 10.195312 8.800781 C 10.019531 9.046875 9.796875 9.246094 9.570312 9.382812 C 9.371094 9.515625 9.171875 9.585938 8.96875 9.585938 Z M 8.34375 9.023438 C 8.390625 9.070312 8.457031 9.113281 8.5 9.160156 C 8.792969 9.40625 9.101562 9.425781 9.460938 9.203125 C 9.640625 9.089844 9.796875 8.957031 9.953125 8.753906 C 9.796875 8.730469 9.640625 8.6875 9.484375 8.621094 C 9.304688 8.550781 9.125 8.460938 8.96875 8.351562 C 8.925781 8.484375 8.902344 8.574219 8.859375 8.640625 C 8.792969 8.84375 8.589844 8.980469 8.34375 9.023438 Z M 7.273438 7.476562 C 7.117188 7.632812 7.050781 7.765625 7.050781 7.855469 C 7.050781 8.53125 7.496094 8.753906 7.742188 8.800781 C 7.785156 8.820312 7.832031 8.820312 7.898438 8.820312 C 7.585938 8.417969 7.386719 7.945312 7.273438 7.476562 Z M 7.453125 7.296875 C 7.476562 7.363281 7.476562 7.40625 7.496094 7.476562 C 7.628906 7.992188 7.855469 8.460938 8.167969 8.84375 C 8.410156 8.820312 8.636719 8.710938 8.679688 8.597656 C 8.703125 8.53125 8.746094 8.417969 8.792969 8.261719 C 8.722656 8.191406 8.65625 8.125 8.613281 8.058594 C 8.410156 7.789062 8.253906 7.316406 8.1875 6.757812 C 8.1875 6.757812 8.167969 6.757812 8.167969 6.78125 C 7.855469 6.960938 7.628906 7.136719 7.453125 7.296875 Z M 9.035156 8.148438 C 9.328125 8.371094 9.75 8.53125 10.109375 8.550781 C 10.398438 8.148438 10.621094 7.675781 10.753906 7.207031 C 10.664062 7.09375 10.53125 6.980469 10.398438 6.871094 C 10.085938 6.601562 9.683594 6.351562 9.257812 6.171875 C 9.257812 6.847656 9.148438 7.632812 9.035156 8.148438 Z M 10.910156 7.40625 C 10.777344 7.8125 10.597656 8.214844 10.351562 8.550781 C 10.398438 8.550781 10.441406 8.53125 10.488281 8.53125 C 10.800781 8.460938 10.976562 8.261719 11.042969 7.945312 C 11.113281 7.789062 11.042969 7.609375 10.910156 7.40625 Z M 8.390625 6.621094 C 8.433594 7.136719 8.566406 7.65625 8.792969 7.902344 C 8.8125 7.925781 8.835938 7.96875 8.859375 7.992188 C 8.925781 7.699219 8.96875 7.339844 9.015625 6.960938 C 9.035156 6.691406 9.058594 6.464844 9.058594 6.242188 C 8.835938 6.351562 8.613281 6.488281 8.390625 6.621094 Z M 7.921875 5.792969 C 7.742188 5.792969 7.609375 5.835938 7.5625 5.925781 C 7.40625 6.195312 7.363281 6.601562 7.429688 7.046875 C 7.675781 6.847656 7.941406 6.667969 8.054688 6.578125 C 8.097656 6.554688 8.121094 6.53125 8.167969 6.511719 C 8.144531 6.261719 8.167969 6.015625 8.1875 5.816406 C 8.078125 5.792969 7.988281 5.792969 7.921875 5.792969 Z M 9.527344 6.0625 C 10.019531 6.308594 10.488281 6.621094 10.820312 6.960938 C 10.886719 6.667969 10.886719 6.375 10.84375 6.152344 C 10.777344 5.925781 10.554688 5.835938 10.175781 5.882812 C 9.972656 5.925781 9.75 5.972656 9.527344 6.0625 Z M 8.390625 5.835938 C 8.367188 5.992188 8.367188 6.171875 8.367188 6.375 C 8.566406 6.261719 8.769531 6.152344 8.992188 6.039062 C 8.925781 6.015625 8.835938 5.972656 8.769531 5.949219 C 8.636719 5.925781 8.5 5.882812 8.390625 5.835938 Z M 8.410156 5.636719 C 8.546875 5.65625 8.679688 5.703125 8.835938 5.769531 C 8.902344 5.792969 8.96875 5.816406 9.035156 5.859375 C 9.015625 5.566406 8.96875 5.367188 8.902344 5.230469 C 8.859375 5.140625 8.792969 5.117188 8.769531 5.117188 C 8.722656 5.117188 8.613281 5.117188 8.5 5.320312 C 8.480469 5.410156 8.433594 5.523438 8.410156 5.636719 Z M 8.410156 5.636719 " fill-opacity="1" fill-rule="nonzero"/></svg>