<svg xmlns="http://www.w3.org/2000/svg" xmlns:xlink="http://www.w3.org/1999/xlink" width="54" zoomAndPan="magnify" viewBox="0 0 40.5 30.75" height="41" preserveAspectRatio="xMidYMid meet" version="1.0"><defs><clipPath id="f45575dd35"><path d="M 2 9 L 24 9 L 24 30.4375 L 2 30.4375 Z M 2 9 " clip-rule="nonzero"/></clipPath><clipPath id="dc66326593"><path d="M 20 28 L 31 28 L 31 30.4375 L 20 30.4375 Z M 20 28 " clip-rule="nonzero"/></clipPath><clipPath id="6f05fc0a7d"><path d="M 21 29 L 30 29 L 30 30.4375 L 21 30.4375 Z M 21 29 " clip-rule="nonzero"/></clipPath><clipPath id="ad0c492943"><path d="M 22 29 L 24 29 L 24 30.4375 L 22 30.4375 Z M 22 29 " clip-rule="nonzero"/></clipPath><clipPath id="f5df69699c"><path d="M 14 28 L 19 28 L 19 30.4375 L 14 30.4375 Z M 14 28 " clip-rule="nonzero"/></clipPath><clipPath id="ce57e7e0bf"><path d="M 9 29 L 18 29 L 18 30.4375 L 9 30.4375 Z M 9 29 " clip-rule="nonzero"/></clipPath><clipPath id="593b1f04f2"><path d="M 9 17 L 17 17 L 17 30.4375 L 9 30.4375 Z M 9 17 " clip-rule="nonzero"/></clipPath><clipPath id="15ee92e51c"><path d="M 8 15 L 12 15 L 12 30.4375 L 8 30.4375 Z M 8 15 " clip-rule="nonzero"/></clipPath><clipPath id="6f3be10798"><path d="M 13 15 L 19 15 L 19 30.4375 L 13 30.4375 Z M 13 15 " clip-rule="nonzero"/></clipPath><clipPath id="3da0a7bce5"><path d="M 7 28 L 11 28 L 11 30.4375 L 7 30.4375 Z M 7 28 " clip-rule="nonzero"/></clipPath><clipPath id="2eb55e5181"><path d="M 11 0.0625 L 18 0.0625 L 18 6 L 11 6 Z M 11 0.0625 " clip-rule="nonzero"/></clipPath><clipPath id="733902c3fb"><path d="M 12 0.0625 L 18 0.0625 L 18 8 L 12 8 Z M 12 0.0625 " clip-rule="nonzero"/></clipPath></defs><g clip-path="url(#f45575dd35)"><path fill="#f9e4d9" d="M 23.1875 20.53125 C 23.1875 21.226562 23.121094 21.910156 22.988281 22.589844 C 22.851562 23.265625 22.652344 23.925781 22.390625 24.566406 C 22.125 25.203125 21.800781 25.8125 21.417969 26.386719 C 21.035156 26.960938 20.601562 27.492188 20.113281 27.984375 C 19.625 28.472656 19.097656 28.910156 18.523438 29.292969 C 17.949219 29.675781 17.34375 30.003906 16.707031 30.265625 C 16.070312 30.53125 15.414062 30.730469 14.738281 30.867188 C 14.0625 31 13.378906 31.070312 12.691406 31.070312 C 12.003906 31.070312 11.320312 31 10.644531 30.867188 C 9.96875 30.730469 9.3125 30.53125 8.675781 30.265625 C 8.039062 30.003906 7.433594 29.675781 6.859375 29.292969 C 6.285156 28.910156 5.757812 28.472656 5.269531 27.984375 C 4.78125 27.492188 4.347656 26.960938 3.964844 26.386719 C 3.582031 25.8125 3.257812 25.203125 2.992188 24.566406 C 2.730469 23.925781 2.53125 23.265625 2.394531 22.589844 C 2.261719 21.910156 2.195312 21.226562 2.195312 20.53125 C 2.195312 19.839844 2.261719 19.15625 2.394531 18.476562 C 2.53125 17.800781 2.730469 17.140625 2.992188 16.5 C 3.257812 15.863281 3.582031 15.253906 3.964844 14.679688 C 4.347656 14.105469 4.78125 13.570312 5.269531 13.082031 C 5.757812 12.59375 6.285156 12.15625 6.859375 11.773438 C 7.433594 11.386719 8.039062 11.0625 8.675781 10.796875 C 9.3125 10.535156 9.96875 10.335938 10.644531 10.199219 C 11.320312 10.0625 12.003906 9.996094 12.691406 9.996094 C 13.378906 9.996094 14.0625 10.0625 14.738281 10.199219 C 15.414062 10.335938 16.070312 10.535156 16.707031 10.796875 C 17.34375 11.0625 17.949219 11.386719 18.523438 11.773438 C 19.097656 12.15625 19.625 12.59375 20.113281 13.082031 C 20.601562 13.570312 21.035156 14.105469 21.417969 14.679688 C 21.800781 15.253906 22.125 15.863281 22.390625 16.5 C 22.652344 17.140625 22.851562 17.800781 22.988281 18.476562 C 23.121094 19.15625 23.1875 19.839844 23.1875 20.53125 Z M 23.1875 20.53125 " fill-opacity="1" fill-rule="nonzero"/></g><path fill="#f9e4d9" d="M 4.9375 19.324219 C 4.085938 19.324219 3.390625 20.015625 3.386719 20.871094 C 3.386719 21.726562 4.078125 22.425781 4.929688 22.429688 C 5.78125 22.429688 6.476562 21.738281 6.480469 20.882812 C 6.480469 20.027344 5.789062 19.328125 4.9375 19.324219 Z M 6.042969 20.027344 C 5.890625 20.136719 5.726562 20.222656 5.558594 20.285156 C 5.441406 19.921875 5.246094 19.644531 5.117188 19.488281 C 5.492188 19.535156 5.824219 19.738281 6.042969 20.027344 Z M 5.457031 21.289062 C 5.105469 21.1875 4.753906 21.1875 4.40625 21.289062 C 4.328125 20.984375 4.34375 20.707031 4.402344 20.460938 C 4.582031 20.515625 4.761719 20.542969 4.941406 20.542969 C 5.117188 20.546875 5.292969 20.519531 5.46875 20.46875 C 5.523438 20.710938 5.535156 20.988281 5.457031 21.289062 Z M 5.429688 20.324219 C 5.101562 20.421875 4.769531 20.417969 4.441406 20.316406 C 4.578125 19.90625 4.828125 19.613281 4.9375 19.503906 C 5.042969 19.613281 5.296875 19.910156 5.429688 20.324219 Z M 4.757812 19.484375 C 4.628906 19.640625 4.429688 19.914062 4.3125 20.273438 C 4.152344 20.210938 3.988281 20.125 3.832031 20.011719 C 4.054688 19.726562 4.382812 19.53125 4.757812 19.484375 Z M 3.535156 20.871094 C 3.535156 20.601562 3.613281 20.347656 3.746094 20.132812 C 3.917969 20.253906 4.09375 20.347656 4.269531 20.414062 C 4.203125 20.683594 4.183594 20.996094 4.269531 21.335938 C 4.09375 21.402344 3.917969 21.492188 3.742188 21.613281 C 3.609375 21.398438 3.53125 21.144531 3.535156 20.871094 Z M 3.828125 21.734375 C 3.988281 21.625 4.148438 21.539062 4.3125 21.476562 C 4.394531 21.730469 4.535156 21.996094 4.757812 22.269531 C 4.378906 22.222656 4.046875 22.023438 3.828125 21.734375 Z M 4.449219 21.429688 C 4.769531 21.335938 5.09375 21.335938 5.414062 21.429688 C 5.328125 21.6875 5.175781 21.960938 4.929688 22.242188 C 4.6875 21.960938 4.535156 21.6875 4.449219 21.429688 Z M 5.097656 22.269531 C 5.324219 21.996094 5.46875 21.730469 5.554688 21.472656 C 5.71875 21.535156 5.886719 21.625 6.039062 21.730469 C 5.816406 22.023438 5.480469 22.226562 5.097656 22.269531 Z M 5.59375 21.332031 C 5.679688 21 5.664062 20.695312 5.597656 20.425781 C 5.78125 20.359375 5.957031 20.265625 6.125 20.152344 C 6.257812 20.363281 6.332031 20.613281 6.332031 20.882812 C 6.332031 21.148438 6.253906 21.398438 6.125 21.613281 C 5.953125 21.496094 5.777344 21.402344 5.59375 21.332031 Z M 5.59375 21.332031 " fill-opacity="1" fill-rule="nonzero"/><path fill="#f9e4d9" d="M 37.941406 11.714844 C 37.941406 12.40625 37.871094 13.089844 37.738281 13.769531 C 37.605469 14.445312 37.40625 15.105469 37.140625 15.746094 C 36.878906 16.382812 36.554688 16.992188 36.171875 17.566406 C 35.789062 18.140625 35.351562 18.675781 34.867188 19.164062 C 34.378906 19.652344 33.847656 20.089844 33.273438 20.472656 C 32.703125 20.859375 32.097656 21.183594 31.460938 21.445312 C 30.824219 21.710938 30.167969 21.910156 29.492188 22.046875 C 28.816406 22.183594 28.132812 22.25 27.441406 22.25 C 26.753906 22.25 26.070312 22.183594 25.394531 22.046875 C 24.71875 21.910156 24.0625 21.710938 23.425781 21.445312 C 22.789062 21.183594 22.183594 20.859375 21.609375 20.472656 C 21.039062 20.089844 20.507812 19.652344 20.019531 19.164062 C 19.535156 18.675781 19.097656 18.140625 18.714844 17.566406 C 18.332031 16.992188 18.007812 16.382812 17.746094 15.746094 C 17.480469 15.105469 17.28125 14.445312 17.148438 13.769531 C 17.011719 13.089844 16.945312 12.40625 16.945312 11.714844 C 16.945312 11.019531 17.011719 10.335938 17.148438 9.65625 C 17.28125 8.980469 17.480469 8.320312 17.746094 7.679688 C 18.007812 7.042969 18.332031 6.433594 18.714844 5.859375 C 19.097656 5.285156 19.535156 4.753906 20.019531 4.261719 C 20.507812 3.773438 21.039062 3.335938 21.609375 2.953125 C 22.183594 2.566406 22.789062 2.242188 23.425781 1.980469 C 24.0625 1.714844 24.71875 1.515625 25.394531 1.378906 C 26.070312 1.246094 26.753906 1.175781 27.441406 1.175781 C 28.132812 1.175781 28.816406 1.246094 29.492188 1.378906 C 30.167969 1.515625 30.824219 1.714844 31.460938 1.980469 C 32.097656 2.242188 32.703125 2.566406 33.273438 2.953125 C 33.847656 3.335938 34.378906 3.773438 34.867188 4.261719 C 35.351562 4.753906 35.789062 5.285156 36.171875 5.859375 C 36.554688 6.433594 36.878906 7.042969 37.140625 7.679688 C 37.40625 8.320312 37.605469 8.980469 37.738281 9.65625 C 37.871094 10.335938 37.941406 11.019531 37.941406 11.714844 Z M 37.941406 11.714844 " fill-opacity="1" fill-rule="nonzero"/><path fill="#ffffff" d="M 37.714844 16.605469 L 30.625 16.605469 C 30.441406 16.605469 30.296875 16.460938 30.296875 16.28125 L 30.296875 7.25 C 30.296875 7.070312 30.441406 6.925781 30.625 6.925781 L 37.714844 6.925781 C 37.894531 6.925781 38.039062 7.070312 38.039062 7.25 L 38.039062 16.277344 C 38.039062 16.460938 37.894531 16.605469 37.714844 16.605469 Z M 37.714844 16.605469 " fill-opacity="1" fill-rule="nonzero"/><path fill="#403728" d="M 37.714844 16.636719 L 30.625 16.636719 C 30.429688 16.636719 30.269531 16.476562 30.269531 16.28125 L 30.269531 7.25 C 30.269531 7.054688 30.429688 6.894531 30.625 6.894531 L 37.714844 6.894531 C 37.910156 6.894531 38.070312 7.054688 38.070312 7.25 L 38.070312 16.277344 C 38.070312 16.476562 37.910156 16.636719 37.714844 16.636719 Z M 30.621094 6.953125 C 30.457031 6.953125 30.324219 7.085938 30.324219 7.253906 L 30.324219 16.28125 C 30.324219 16.445312 30.457031 16.578125 30.621094 16.578125 L 37.714844 16.578125 C 37.878906 16.578125 38.011719 16.445312 38.011719 16.28125 L 38.011719 7.25 C 38.011719 7.085938 37.878906 6.953125 37.714844 6.953125 Z M 30.621094 6.953125 " fill-opacity="1" fill-rule="nonzero"/><path fill="#f9e4d9" d="M 30.917969 7.703125 L 37.417969 7.703125 L 37.417969 13.019531 L 30.917969 13.019531 Z M 30.917969 7.703125 " fill-opacity="1" fill-rule="nonzero"/><path fill="#f9e4d9" d="M 30.945312 13.472656 L 31.410156 13.472656 L 31.410156 13.9375 L 30.945312 13.9375 Z M 30.945312 13.472656 " fill-opacity="1" fill-rule="nonzero"/><path fill="#f9e4d9" d="M 32.476562 13.472656 L 32.941406 13.472656 L 32.941406 13.9375 L 32.476562 13.9375 Z M 32.476562 13.472656 " fill-opacity="1" fill-rule="nonzero"/><path fill="#f9e4d9" d="M 31.710938 13.472656 L 32.175781 13.472656 L 32.175781 13.9375 L 31.710938 13.9375 Z M 31.710938 13.472656 " fill-opacity="1" fill-rule="nonzero"/><path fill="#f9e4d9" d="M 31.054688 14.574219 L 37.28125 14.574219 L 37.28125 14.746094 L 31.054688 14.746094 Z M 31.054688 14.574219 " fill-opacity="1" fill-rule="nonzero"/><path fill="#f9e4d9" d="M 31.054688 15.148438 L 37.28125 15.148438 L 37.28125 15.316406 L 31.054688 15.316406 Z M 31.054688 15.148438 " fill-opacity="1" fill-rule="nonzero"/><path fill="#403728" d="M 32.417969 10.0625 C 32.527344 10.523438 32.644531 11.589844 32.722656 12.003906 C 32.726562 12.035156 32.734375 12.066406 32.738281 12.09375 C 32.738281 12.097656 32.742188 12.105469 32.742188 12.109375 C 32.804688 12.40625 32.871094 12.523438 32.945312 12.578125 C 33.046875 12.644531 33.164062 12.605469 33.324219 12.6875 C 33.371094 12.714844 33.425781 12.753906 33.484375 12.8125 C 33.53125 12.859375 33.582031 12.921875 33.636719 13 C 33.640625 13.007812 33.644531 13.011719 33.648438 13.015625 L 34 13.015625 C 34.035156 12.925781 34.058594 12.800781 34.078125 12.667969 C 34.082031 12.625 34.085938 12.578125 34.089844 12.535156 C 34.121094 12.21875 34.117188 11.898438 34.117188 11.898438 L 34.082031 11.671875 L 34.078125 11.644531 L 34.0625 11.53125 L 33.988281 11.03125 L 33.871094 10.230469 C 33.871094 10.230469 33.851562 10.167969 33.816406 10.082031 C 33.746094 9.875 33.621094 9.519531 33.605469 9.503906 C 33.601562 9.5 33.53125 9.46875 33.429688 9.425781 C 33.265625 9.359375 33.019531 9.261719 32.84375 9.191406 C 32.726562 9.144531 32.640625 9.109375 32.632812 9.109375 C 32.632812 9.109375 32.304688 9.574219 32.417969 10.0625 Z M 32.417969 10.0625 " fill-opacity="1" fill-rule="nonzero"/><path fill="#403728" d="M 34.742188 9.519531 C 34.742188 9.519531 35.203125 9.53125 35.191406 10.429688 C 35.175781 11.609375 35.984375 10.878906 36.378906 11.625 C 36.753906 12.332031 36.15625 13.28125 34.894531 12.621094 C 33.890625 12.09375 33.414062 9.355469 33.414062 9.355469 Z M 34.742188 9.519531 " fill-opacity="1" fill-rule="nonzero"/><path fill="#403728" d="M 35.019531 11.480469 C 35.019531 11.480469 35.007812 11.398438 34.933594 11.285156 C 34.859375 11.164062 34.851562 11.070312 34.851562 11.066406 L 34.875 11.066406 C 34.875 11.066406 34.882812 11.15625 34.957031 11.269531 C 35.03125 11.390625 35.042969 11.476562 35.042969 11.480469 Z M 35.019531 11.480469 " fill-opacity="1" fill-rule="nonzero"/><path fill="#403728" d="M 34.945312 11.609375 C 34.875 11.386719 34.824219 11.3125 34.785156 11.257812 C 34.75 11.207031 34.722656 11.167969 34.699219 11.03125 C 34.648438 10.761719 34.519531 10.570312 34.519531 10.566406 L 34.539062 10.550781 C 34.539062 10.554688 34.671875 10.75 34.722656 11.027344 C 34.746094 11.15625 34.773438 11.191406 34.808594 11.242188 C 34.84375 11.296875 34.898438 11.375 34.96875 11.597656 Z M 34.945312 11.609375 " fill-opacity="1" fill-rule="nonzero"/><path fill="#d28f86" d="M 33.289062 11.898438 C 33.289062 11.898438 33.335938 12.65625 33.320312 12.789062 C 33.304688 12.917969 34.40625 12.59375 34.601562 12.464844 C 34.796875 12.335938 34.636719 12.230469 34.636719 12.230469 C 34.636719 12.230469 34.246094 11.289062 34.234375 10.941406 C 34.222656 10.59375 33.289062 11.898438 33.289062 11.898438 Z M 33.289062 11.898438 " fill-opacity="1" fill-rule="nonzero"/><path fill="#d28f86" d="M 33.492188 11.960938 C 33.949219 11.972656 34.28125 11.457031 34.40625 10.980469 C 34.527344 10.5 34.539062 8.832031 33.53125 8.875 C 32.523438 8.917969 32.554688 10.011719 32.589844 10.5 C 32.628906 10.992188 32.871094 11.941406 33.492188 11.960938 Z M 33.492188 11.960938 " fill-opacity="1" fill-rule="nonzero"/><path fill="#403728" d="M 33.6875 10.542969 C 33.703125 10.605469 33.6875 10.644531 33.644531 10.65625 C 33.601562 10.664062 33.570312 10.636719 33.554688 10.574219 C 33.539062 10.507812 33.554688 10.46875 33.597656 10.460938 C 33.644531 10.449219 33.671875 10.476562 33.6875 10.542969 Z M 33.6875 10.542969 " fill-opacity="1" fill-rule="nonzero"/><path fill="#403728" d="M 33.007812 10.628906 C 33.023438 10.695312 33.011719 10.734375 32.964844 10.746094 C 32.917969 10.757812 32.886719 10.730469 32.867188 10.664062 C 32.851562 10.59375 32.867188 10.554688 32.914062 10.542969 C 32.960938 10.53125 32.992188 10.5625 33.007812 10.628906 Z M 33.007812 10.628906 " fill-opacity="1" fill-rule="nonzero"/><path fill="#403728" d="M 33.40625 10.292969 C 33.40625 10.292969 33.632812 10.140625 33.851562 10.234375 Z M 33.40625 10.292969 " fill-opacity="1" fill-rule="nonzero"/><path fill="#403728" d="M 32.648438 10.410156 C 32.648438 10.410156 32.84375 10.273438 33.03125 10.347656 Z M 32.648438 10.410156 " fill-opacity="1" fill-rule="nonzero"/><path fill="#403728" d="M 33.507812 11.972656 C 33.503906 11.972656 33.496094 11.972656 33.492188 11.972656 C 33.417969 11.972656 33.347656 11.957031 33.28125 11.929688 L 33.292969 11.90625 C 33.355469 11.929688 33.421875 11.945312 33.492188 11.949219 C 33.496094 11.949219 33.503906 11.949219 33.507812 11.949219 C 33.707031 11.949219 33.917969 11.835938 34.105469 11.632812 L 34.121094 11.652344 C 33.929688 11.859375 33.714844 11.972656 33.507812 11.972656 Z M 33.507812 11.972656 " fill-opacity="1" fill-rule="nonzero"/><path fill="#403728" d="M 33.285156 11.078125 C 33.257812 11.078125 33.234375 11.066406 33.214844 11.042969 C 33.199219 11.023438 33.191406 10.996094 33.199219 10.96875 L 33.21875 10.859375 L 33.242188 10.863281 L 33.222656 10.972656 C 33.21875 10.992188 33.222656 11.011719 33.234375 11.027344 C 33.246094 11.042969 33.265625 11.050781 33.285156 11.050781 L 33.308594 11.050781 L 33.308594 11.078125 Z M 33.285156 11.078125 " fill-opacity="1" fill-rule="nonzero"/><path fill="#f9e4d9" d="M 33.257812 11.375 C 33.257812 11.375 33.332031 11.378906 33.398438 11.371094 C 33.46875 11.363281 33.523438 11.332031 33.523438 11.332031 C 33.523438 11.332031 33.5 11.4375 33.402344 11.449219 C 33.300781 11.460938 33.257812 11.375 33.257812 11.375 Z M 33.257812 11.375 " fill-opacity="1" fill-rule="nonzero"/><path fill="#403728" d="M 34.296875 10.554688 C 34.234375 10.464844 34.234375 10.148438 33.890625 10.097656 C 33.261719 10 33.199219 9.632812 33.199219 9.632812 C 33.199219 9.632812 32.800781 9.625 32.574219 10.226562 C 32.574219 10.226562 32.1875 8.859375 33.160156 8.871094 C 33.160156 8.871094 33.503906 8.605469 34.070312 8.683594 C 35.097656 8.820312 34.90625 10.175781 34.570312 10.503906 C 34.515625 10.554688 34.296875 10.554688 34.296875 10.554688 Z M 34.296875 10.554688 " fill-opacity="1" fill-rule="nonzero"/><path fill="#d28f86" d="M 34.371094 10.554688 C 34.371094 10.554688 34.671875 10.4375 34.703125 10.703125 C 34.730469 10.964844 34.328125 11.214844 34.328125 11.214844 Z M 34.371094 10.554688 " fill-opacity="1" fill-rule="nonzero"/><path fill="#403728" d="M 34.46875 10.699219 C 34.46875 10.699219 34.652344 10.714844 34.472656 10.9375 Z M 34.46875 10.699219 " fill-opacity="1" fill-rule="nonzero"/><path fill="#d54f56" d="M 32.640625 13.019531 C 32.636719 12.867188 32.632812 12.777344 32.632812 12.777344 L 32.242188 12.15625 C 32.242188 12.15625 31.929688 12.34375 31.746094 12.9375 C 31.738281 12.964844 31.726562 12.988281 31.71875 13.019531 Z M 32.640625 13.019531 " fill-opacity="1" fill-rule="nonzero"/><path fill="#d28f86" d="M 32.085938 13.019531 L 36.253906 13.019531 C 36.226562 12.886719 36.1875 12.785156 36.140625 12.71875 C 36.128906 12.699219 36.113281 12.683594 36.097656 12.667969 C 36.089844 12.660156 36.078125 12.652344 36.070312 12.648438 C 36.046875 12.632812 36.019531 12.617188 35.988281 12.601562 C 35.902344 12.558594 35.800781 12.519531 35.6875 12.480469 C 35.472656 12.410156 35.222656 12.34375 35.015625 12.296875 C 34.851562 12.257812 34.707031 12.226562 34.628906 12.210938 C 34.585938 12.203125 34.5625 12.199219 34.5625 12.199219 C 34.5625 12.199219 34.535156 12.222656 34.488281 12.261719 C 34.402344 12.328125 34.257812 12.441406 34.089844 12.535156 C 33.945312 12.621094 33.785156 12.6875 33.640625 12.703125 C 33.242188 12.738281 33.328125 12.054688 33.328125 12.054688 L 33.296875 12.058594 L 32.980469 12.085938 L 32.742188 12.109375 L 32.242188 12.152344 C 32.21875 12.433594 32.167969 12.699219 32.085938 13.019531 Z M 32.085938 13.019531 " fill-opacity="1" fill-rule="nonzero"/><path fill="#d54f56" d="M 34.382812 13.019531 L 36.292969 13.019531 C 36.265625 12.855469 36.214844 12.753906 36.167969 12.71875 C 36.164062 12.714844 36.160156 12.710938 36.15625 12.710938 C 36.136719 12.695312 36.117188 12.683594 36.097656 12.667969 C 36.0625 12.644531 36.023438 12.621094 35.988281 12.601562 C 35.890625 12.546875 35.796875 12.503906 35.699219 12.46875 C 35.34375 12.332031 35.015625 12.296875 35.015625 12.296875 C 34.9375 12.351562 34.855469 12.441406 34.773438 12.542969 C 34.644531 12.695312 34.507812 12.878906 34.382812 13.019531 Z M 34.382812 13.019531 " fill-opacity="1" fill-rule="nonzero"/><path fill="#d54f56" d="M 32.945312 12.578125 C 32.949219 12.417969 32.960938 12.253906 32.980469 12.085938 C 32.980469 12.085938 32.871094 12.085938 32.738281 12.09375 C 32.546875 12.101562 32.300781 12.117188 32.242188 12.152344 C 32.140625 12.453125 32.046875 12.71875 31.953125 13.015625 L 32.96875 13.015625 C 32.953125 12.882812 32.945312 12.734375 32.945312 12.578125 Z M 32.945312 12.578125 " fill-opacity="1" fill-rule="nonzero"/><path fill="#403728" d="M 32.074219 13.023438 L 32.023438 13.011719 L 32.03125 12.976562 C 32.035156 12.960938 32.039062 12.941406 32.042969 12.925781 L 32.089844 12.9375 C 32.085938 12.953125 32.085938 12.972656 32.078125 12.988281 Z M 32.074219 13.023438 " fill-opacity="1" fill-rule="nonzero"/><path fill="#d54f56" d="M 35.546875 12.953125 L 35.53125 13.015625 L 36.375 13.015625 C 36.320312 12.882812 36.242188 12.785156 36.160156 12.707031 C 35.96875 12.523438 35.746094 12.476562 35.703125 12.464844 C 35.703125 12.464844 35.699219 12.464844 35.699219 12.464844 C 35.695312 12.464844 35.695312 12.464844 35.695312 12.464844 L 35.6875 12.480469 L 35.582031 12.839844 Z M 35.546875 12.953125 " fill-opacity="1" fill-rule="nonzero"/><path fill="#403728" d="M 27.972656 10.320312 C 27.972656 10.320312 28.726562 11.382812 28.464844 12.5 C 28.222656 13.546875 27.949219 15.984375 27.773438 16.9375 C 27.332031 19.339844 26.84375 17.519531 25.679688 19.214844 C 24.511719 20.910156 24.585938 16.695312 24.585938 16.695312 L 25.148438 12.882812 C 25.148438 12.882812 25.707031 11.265625 25.75 11.226562 C 25.789062 11.183594 27.972656 10.320312 27.972656 10.320312 Z M 27.972656 10.320312 " fill-opacity="1" fill-rule="nonzero"/><path fill="#403728" d="M 23.15625 11.253906 C 23.15625 11.253906 22.101562 11.285156 22.128906 13.335938 C 22.164062 16.03125 20.320312 14.359375 19.410156 16.070312 C 18.554688 17.6875 19.925781 19.855469 22.804688 18.34375 C 25.097656 17.136719 26.1875 10.878906 26.1875 10.878906 Z M 23.15625 11.253906 " fill-opacity="1" fill-rule="nonzero"/><path fill="#d28f86" d="M 26.476562 16.695312 C 26.476562 16.695312 26.367188 18.421875 26.40625 18.726562 C 26.441406 19.03125 23.917969 18.28125 23.476562 17.984375 C 23.03125 17.691406 23.394531 17.449219 23.394531 17.449219 C 23.394531 17.449219 24.28125 15.304688 24.3125 14.507812 C 24.34375 13.714844 26.476562 16.695312 26.476562 16.695312 Z M 26.476562 16.695312 " fill-opacity="1" fill-rule="nonzero"/><path fill="#d28f86" d="M 26.011719 16.835938 C 24.96875 16.867188 24.207031 15.683594 23.921875 14.59375 C 23.636719 13.503906 23.621094 9.683594 25.921875 9.785156 C 28.226562 9.882812 28.15625 12.378906 28.070312 13.5 C 27.988281 14.621094 27.429688 16.789062 26.011719 16.835938 Z M 26.011719 16.835938 " fill-opacity="1" fill-rule="nonzero"/><path fill="#403728" d="M 25.769531 13.410156 C 25.871094 13.433594 25.902344 13.519531 25.867188 13.667969 C 25.832031 13.816406 25.765625 13.878906 25.664062 13.855469 C 25.5625 13.832031 25.527344 13.746094 25.566406 13.597656 C 25.601562 13.449219 25.667969 13.386719 25.769531 13.410156 Z M 25.769531 13.410156 " fill-opacity="1" fill-rule="nonzero"/><path fill="#403728" d="M 27.335938 13.601562 C 27.441406 13.628906 27.476562 13.71875 27.4375 13.871094 C 27.402344 14.027344 27.328125 14.09375 27.222656 14.066406 C 27.117188 14.042969 27.082031 13.953125 27.121094 13.796875 C 27.15625 13.640625 27.226562 13.574219 27.335938 13.601562 Z M 27.335938 13.601562 " fill-opacity="1" fill-rule="nonzero"/><path fill="#403728" d="M 26.207031 13.023438 C 26.207031 13.023438 25.691406 12.679688 25.195312 12.890625 Z M 26.207031 13.023438 " fill-opacity="1" fill-rule="nonzero"/><path fill="#403728" d="M 27.9375 13.292969 C 27.9375 13.292969 27.5 12.980469 27.066406 13.148438 Z M 27.9375 13.292969 " fill-opacity="1" fill-rule="nonzero"/><path fill="#403728" d="M 25.976562 16.863281 C 25.507812 16.863281 25.011719 16.601562 24.570312 16.128906 L 24.613281 16.089844 C 25.042969 16.550781 25.523438 16.804688 25.976562 16.804688 C 25.988281 16.804688 26 16.804688 26.011719 16.804688 C 26.171875 16.800781 26.324219 16.765625 26.46875 16.707031 L 26.492188 16.761719 C 26.339844 16.824219 26.179688 16.859375 26.011719 16.863281 C 26 16.863281 25.988281 16.863281 25.976562 16.863281 Z M 25.976562 16.863281 " fill-opacity="1" fill-rule="nonzero"/><path fill="#403728" d="M 26.484375 14.8125 L 26.429688 14.8125 L 26.433594 14.757812 L 26.484375 14.757812 C 26.53125 14.757812 26.570312 14.738281 26.597656 14.703125 C 26.628906 14.667969 26.640625 14.625 26.628906 14.582031 L 26.582031 14.332031 L 26.636719 14.320312 L 26.6875 14.570312 C 26.699219 14.628906 26.683594 14.691406 26.644531 14.742188 C 26.605469 14.785156 26.546875 14.8125 26.484375 14.8125 Z M 26.484375 14.8125 " fill-opacity="1" fill-rule="nonzero"/><path fill="#f9e4d9" d="M 26.546875 15.5 C 26.546875 15.5 26.375 15.511719 26.222656 15.488281 C 26.066406 15.46875 25.945312 15.402344 25.945312 15.402344 C 25.945312 15.402344 25.996094 15.644531 26.214844 15.667969 C 26.445312 15.691406 26.546875 15.5 26.546875 15.5 Z M 26.546875 15.5 " fill-opacity="1" fill-rule="nonzero"/><path fill="#403728" d="M 24.167969 13.625 C 24.3125 13.417969 24.3125 12.695312 25.105469 12.574219 C 26.542969 12.351562 26.679688 11.515625 26.679688 11.515625 C 26.679688 11.515625 27.59375 11.496094 28.109375 12.875 C 28.109375 12.875 29 9.75 26.773438 9.773438 C 26.773438 9.773438 25.980469 9.167969 24.6875 9.34375 C 22.34375 9.660156 22.777344 12.753906 23.546875 13.503906 C 23.671875 13.625 24.167969 13.625 24.167969 13.625 Z M 24.167969 13.625 " fill-opacity="1" fill-rule="nonzero"/><path fill="#d28f86" d="M 24.003906 13.621094 C 24.003906 13.621094 23.308594 13.355469 23.242188 13.957031 C 23.179688 14.558594 24.097656 15.125 24.097656 15.125 Z M 24.003906 13.621094 " fill-opacity="1" fill-rule="nonzero"/><path fill="#403728" d="M 23.90625 13.960938 C 23.90625 13.960938 23.21875 13.71875 23.765625 14.496094 Z M 23.90625 13.960938 " fill-opacity="1" fill-rule="nonzero"/><path fill="#403728" d="M 32.738281 28.328125 C 32.738281 28.328125 33.261719 28.617188 33.046875 26.121094 C 32.875 24.136719 32.714844 23.636719 32.714844 23.636719 L 31.128906 25.535156 L 31.453125 26.980469 L 32.046875 27.75 Z M 32.738281 28.328125 " fill-opacity="1" fill-rule="nonzero"/><path fill="#d28f86" d="M 31.492188 22.554688 L 33.019531 20.546875 L 34.078125 21.785156 C 34.078125 21.785156 32.378906 26.375 31.363281 26.636719 C 30.347656 26.898438 30.269531 24.414062 30.269531 24.414062 Z M 31.492188 22.554688 " fill-opacity="1" fill-rule="nonzero"/><path fill="#d54f56" d="M 28.867188 17.277344 C 28.867188 17.277344 29.582031 17.707031 30.007812 19.066406 C 30.4375 20.425781 31.261719 22.636719 31.261719 22.636719 L 31.492188 22.554688 C 31.492188 22.554688 30.808594 23.449219 31.351562 25.089844 C 31.894531 26.726562 31.179688 26.847656 32.738281 28.328125 C 32.738281 28.328125 31.769531 27.652344 30.96875 27.574219 C 29.53125 27.433594 28.824219 27.164062 28.269531 25.847656 C 27.714844 24.527344 27.980469 18.699219 27.980469 18.699219 Z M 28.867188 17.277344 " fill-opacity="1" fill-rule="nonzero"/><path fill="#d28f86" d="M 23.566406 17.382812 C 23.566406 17.382812 20.941406 17.875 20.117188 18.40625 C 19.628906 18.71875 19.273438 20.511719 20.226562 22.996094 C 21.179688 25.484375 21.632812 26.371094 21.679688 28.9375 C 21.691406 29.621094 30.070312 30.890625 29.777344 28.929688 C 29.605469 27.78125 29.503906 27.417969 29.675781 25.507812 C 29.84375 23.59375 30.070312 22.390625 29.648438 20.835938 C 29.222656 19.285156 28.949219 18.320312 28.867188 17.277344 L 26.386719 17.054688 C 26.386719 17.054688 26.578125 18.617188 25.667969 18.53125 C 24.757812 18.449219 23.566406 17.382812 23.566406 17.382812 Z M 23.566406 17.382812 " fill-opacity="1" fill-rule="nonzero"/><path fill="#d54f56" d="M 29.894531 29.0625 C 29.894531 29.0625 28.101562 29.488281 25.738281 29.351562 C 23.371094 29.210938 21.695312 29.023438 21.679688 28.9375 C 21.433594 27.308594 20.753906 24.585938 20.410156 23.492188 C 19.152344 20.589844 19.554688 18.816406 19.890625 18.566406 C 20.589844 18.046875 21.484375 17.796875 22.03125 17.683594 C 22.332031 17.621094 22.527344 17.601562 22.527344 17.601562 C 23.011719 17.949219 23.609375 18.90625 24.136719 19.417969 C 26.921875 22.429688 27.496094 19.855469 27.179688 17.125 C 27.179688 17.125 27.289062 17.125 27.453125 17.128906 C 27.886719 17.140625 28.699219 17.179688 28.867188 17.28125 C 29.183594 18.222656 29.484375 19.003906 29.757812 20.0625 C 30.433594 22.691406 29.675781 25.507812 29.894531 29.0625 Z M 29.894531 29.0625 " fill-opacity="1" fill-rule="nonzero"/><path fill="#403728" d="M 29.921875 23.660156 L 29.9375 23.585938 C 30.191406 22.238281 29.769531 20.921875 29.519531 20.136719 L 29.515625 20.121094 C 29.429688 19.851562 29.339844 19.492188 29.246094 19.0625 L 29.296875 19.050781 C 29.386719 19.480469 29.480469 19.835938 29.566406 20.105469 L 29.570312 20.121094 C 29.816406 20.898438 30.226562 22.1875 30 23.519531 C 30.15625 23.378906 30.632812 22.972656 31.25 22.613281 L 31.273438 22.65625 C 30.527344 23.089844 29.984375 23.601562 29.980469 23.609375 Z M 29.921875 23.660156 " fill-opacity="1" fill-rule="nonzero"/><g clip-path="url(#dc66326593)"><path fill="#403728" d="M 30.242188 31.179688 L 20.671875 31.179688 C 20.675781 31.171875 20.675781 31.164062 20.679688 31.15625 C 21.0625 29.789062 21.660156 28.964844 21.679688 28.9375 C 21.679688 28.9375 27.761719 29.65625 29.78125 28.929688 C 29.78125 28.929688 29.796875 28.980469 29.824219 29.078125 C 29.90625 29.375 30.09375 30.097656 30.238281 31.15625 C 30.242188 31.164062 30.242188 31.171875 30.242188 31.179688 Z M 30.242188 31.179688 " fill-opacity="1" fill-rule="nonzero"/></g><g clip-path="url(#6f05fc0a7d)"><path fill="#f9e4d9" d="M 26.109375 30.054688 C 24.875 30.054688 23.355469 29.957031 21.589844 29.664062 L 21.609375 29.554688 C 26.683594 30.402344 29.734375 29.605469 29.761719 29.597656 L 29.789062 29.703125 C 29.769531 29.710938 28.449219 30.054688 26.109375 30.054688 Z M 26.109375 30.054688 " fill-opacity="1" fill-rule="nonzero"/></g><g clip-path="url(#ad0c492943)"><path fill="#f9e4d9" d="M 22.527344 31.074219 L 22.460938 30.988281 C 23.09375 30.519531 23.304688 29.996094 23.355469 29.84375 L 23.359375 29.832031 L 23.371094 29.816406 L 23.410156 29.855469 L 23.460938 29.875 C 23.40625 30.035156 23.179688 30.589844 22.527344 31.074219 Z M 22.527344 31.074219 " fill-opacity="1" fill-rule="nonzero"/></g><path fill="#403728" d="M 24.699219 27.542969 C 24.699219 27.542969 25.136719 27.464844 24.789062 25.914062 C 24.441406 24.367188 22.679688 26.972656 22.679688 26.972656 L 23.824219 27.863281 Z M 24.699219 27.542969 " fill-opacity="1" fill-rule="nonzero"/><path fill="#d28f86" d="M 23.339844 24.171875 L 26.910156 22.164062 L 27.609375 23.390625 L 23.101562 27.492188 L 22.316406 25.917969 Z M 23.339844 24.171875 " fill-opacity="1" fill-rule="nonzero"/><path fill="#d54f56" d="M 20.980469 17.988281 C 20.980469 17.988281 19.042969 18.269531 19.222656 20.683594 C 19.425781 23.359375 20.199219 28.351562 22.03125 28.6875 C 23.863281 29.023438 23.554688 28.136719 24.699219 27.539062 C 24.699219 27.539062 23.101562 26.082031 23.339844 24.171875 L 22.53125 24.554688 L 21.316406 19.105469 Z M 20.980469 17.988281 " fill-opacity="1" fill-rule="nonzero"/><path fill="#d28f86" d="M 35.679688 21.566406 C 35.703125 21.554688 35.726562 21.542969 35.746094 21.527344 C 36.226562 21.246094 36.011719 21.070312 36.011719 21.070312 C 36.34375 20.925781 36.15625 20.554688 36.15625 20.554688 C 36.363281 20.40625 36.171875 20.003906 36.171875 20.003906 C 36.171875 20.003906 36.367188 19.863281 36.332031 19.675781 C 36.304688 19.523438 36.117188 19.457031 36.042969 19.4375 C 36.027344 19.433594 36.019531 19.429688 36.019531 19.429688 C 36.019531 19.429688 35.410156 19.523438 35.261719 19.570312 C 35.109375 19.621094 34.539062 19.703125 34.507812 19.726562 C 34.472656 19.746094 34.1875 20.363281 34.1875 20.363281 L 33.378906 21.691406 L 33.777344 22.105469 C 33.777344 22.105469 34.390625 21.9375 34.679688 21.816406 C 34.953125 21.699219 35.242188 21.800781 35.679688 21.566406 Z M 35.679688 21.566406 " fill-opacity="1" fill-rule="nonzero"/><path fill="#d28f86" d="M 33.019531 20.546875 C 33.019531 20.546875 33.90625 19.535156 34.136719 19.441406 C 34.367188 19.347656 34.960938 19.222656 35.203125 19.136719 C 35.441406 19.054688 35.871094 19.152344 36.082031 19.050781 C 36.082031 19.050781 36.242188 19.410156 35.746094 19.648438 C 35.253906 19.886719 34.863281 19.996094 34.863281 19.996094 C 34.863281 19.996094 34.878906 20.609375 34.410156 21.050781 C 33.941406 21.488281 33.378906 21.691406 33.378906 21.691406 Z M 33.019531 20.546875 " fill-opacity="1" fill-rule="nonzero"/><path fill="#403728" d="M 34.429688 21.070312 L 34.394531 21.03125 C 34.847656 20.605469 34.835938 20.003906 34.835938 19.996094 L 34.835938 19.976562 L 34.855469 19.972656 C 34.859375 19.96875 35.25 19.859375 35.734375 19.625 C 36.199219 19.398438 36.0625 19.074219 36.058594 19.0625 L 36.105469 19.039062 C 36.105469 19.042969 36.269531 19.425781 35.757812 19.671875 C 35.328125 19.878906 34.972656 19.988281 34.886719 20.015625 C 34.886719 20.128906 34.851562 20.671875 34.429688 21.070312 Z M 34.429688 21.070312 " fill-opacity="1" fill-rule="nonzero"/><path fill="#403728" d="M 35.40625 22.058594 L 36.714844 18.191406 C 36.742188 18.105469 36.710938 18.019531 36.644531 17.972656 L 36.648438 17.96875 L 36.390625 17.8125 C 36.390625 17.8125 36.355469 17.859375 36.328125 17.902344 L 35.433594 17.730469 C 35.339844 17.714844 35.253906 17.769531 35.222656 17.855469 L 33.882812 21.59375 C 33.875 21.617188 33.871094 21.644531 33.871094 21.667969 L 33.679688 21.65625 L 33.964844 21.828125 L 33.96875 21.824219 C 33.984375 21.832031 33.996094 21.839844 34.011719 21.847656 L 35.171875 22.179688 C 35.269531 22.210938 35.375 22.15625 35.40625 22.058594 Z M 35.40625 22.058594 " fill-opacity="1" fill-rule="nonzero"/><path fill="#403728" d="M 36.46875 18.023438 L 35.152344 21.925781 C 35.121094 22.015625 35.023438 22.0625 34.933594 22.039062 L 33.742188 21.695312 C 33.644531 21.664062 33.589844 21.558594 33.625 21.460938 L 34.976562 17.695312 C 35.003906 17.617188 35.082031 17.566406 35.167969 17.578125 L 36.328125 17.789062 C 36.4375 17.804688 36.503906 17.917969 36.46875 18.023438 Z M 36.46875 18.023438 " fill-opacity="1" fill-rule="nonzero"/><path fill="#f9e4d9" d="M 36.375 18.070312 L 35.113281 21.800781 L 33.734375 21.402344 L 35.015625 17.832031 Z M 36.375 18.070312 " fill-opacity="1" fill-rule="nonzero"/><path fill="#d28f86" d="M 36.332031 19.675781 C 36.332031 19.671875 36.328125 19.664062 36.328125 19.65625 C 36.324219 19.652344 36.324219 19.644531 36.320312 19.640625 C 36.320312 19.632812 36.316406 19.625 36.3125 19.621094 C 36.308594 19.613281 36.304688 19.605469 36.300781 19.597656 C 36.296875 19.59375 36.292969 19.585938 36.289062 19.582031 C 36.277344 19.570312 36.269531 19.558594 36.257812 19.550781 C 36.257812 19.546875 36.257812 19.546875 36.257812 19.546875 C 36.25 19.539062 36.242188 19.535156 36.234375 19.53125 C 36.214844 19.515625 36.191406 19.503906 36.171875 19.492188 C 36.164062 19.484375 36.152344 19.480469 36.144531 19.476562 C 36.113281 19.464844 36.085938 19.453125 36.066406 19.445312 C 36.0625 19.445312 36.058594 19.441406 36.054688 19.441406 C 36.050781 19.441406 36.046875 19.441406 36.046875 19.441406 C 36.042969 19.441406 36.03125 19.441406 36.023438 19.441406 C 36.015625 19.4375 36.007812 19.4375 36 19.433594 C 36 19.433594 35.996094 19.433594 35.992188 19.433594 C 35.988281 19.433594 35.988281 19.429688 35.988281 19.429688 C 35.984375 19.433594 35.953125 19.433594 35.910156 19.445312 C 35.90625 19.449219 35.902344 19.449219 35.898438 19.449219 C 35.898438 19.449219 35.898438 19.453125 35.894531 19.453125 C 35.851562 19.46875 35.800781 19.5 35.765625 19.558594 C 35.746094 19.589844 35.734375 19.621094 35.730469 19.65625 C 35.730469 19.683594 35.730469 19.714844 35.738281 19.75 C 35.746094 19.773438 35.761719 19.796875 35.785156 19.820312 C 35.796875 19.835938 35.816406 19.851562 35.839844 19.871094 C 35.816406 19.871094 35.792969 19.871094 35.765625 19.871094 C 35.601562 19.875 35.417969 19.890625 35.332031 19.941406 C 35.265625 19.980469 35.222656 20.039062 35.203125 20.117188 C 35.183594 20.203125 35.199219 20.300781 35.246094 20.375 C 35.25 20.382812 35.261719 20.394531 35.285156 20.410156 C 35.304688 20.421875 35.335938 20.433594 35.378906 20.449219 C 35.28125 20.496094 35.164062 20.585938 35.132812 20.753906 C 35.101562 20.9375 35.179688 21.027344 35.238281 21.070312 C 35.171875 21.144531 35.148438 21.234375 35.179688 21.320312 C 35.191406 21.355469 35.214844 21.386719 35.246094 21.410156 C 35.257812 21.421875 35.269531 21.429688 35.285156 21.4375 C 35.292969 21.441406 35.300781 21.449219 35.308594 21.453125 C 35.363281 21.480469 35.429688 21.5 35.492188 21.519531 C 35.523438 21.53125 35.550781 21.539062 35.578125 21.550781 C 35.609375 21.5625 35.632812 21.574219 35.648438 21.585938 C 35.648438 21.585938 35.652344 21.589844 35.652344 21.589844 L 35.675781 21.570312 L 35.679688 21.566406 C 35.703125 21.554688 35.722656 21.542969 35.746094 21.527344 C 36.222656 21.246094 36.007812 21.070312 36.007812 21.070312 C 36.21875 20.976562 36.222656 20.796875 36.195312 20.675781 C 36.195312 20.667969 36.191406 20.664062 36.191406 20.65625 C 36.1875 20.652344 36.1875 20.644531 36.1875 20.640625 C 36.183594 20.632812 36.183594 20.628906 36.179688 20.625 C 36.179688 20.613281 36.175781 20.605469 36.171875 20.597656 C 36.171875 20.589844 36.167969 20.589844 36.167969 20.585938 C 36.164062 20.578125 36.160156 20.574219 36.160156 20.566406 C 36.15625 20.5625 36.15625 20.5625 36.15625 20.558594 L 36.15625 20.554688 C 36.15625 20.554688 36.15625 20.554688 36.160156 20.554688 C 36.160156 20.550781 36.160156 20.550781 36.164062 20.550781 C 36.167969 20.546875 36.167969 20.542969 36.171875 20.539062 C 36.175781 20.539062 36.179688 20.539062 36.179688 20.535156 C 36.1875 20.527344 36.191406 20.519531 36.199219 20.515625 C 36.199219 20.511719 36.203125 20.507812 36.203125 20.503906 C 36.207031 20.5 36.210938 20.496094 36.214844 20.492188 C 36.21875 20.484375 36.222656 20.476562 36.226562 20.46875 C 36.226562 20.464844 36.230469 20.457031 36.230469 20.453125 C 36.234375 20.445312 36.234375 20.441406 36.238281 20.4375 C 36.238281 20.421875 36.242188 20.410156 36.246094 20.398438 C 36.246094 20.386719 36.246094 20.378906 36.246094 20.367188 C 36.25 20.359375 36.25 20.347656 36.25 20.339844 L 36.25 20.328125 C 36.25 20.316406 36.246094 20.304688 36.246094 20.292969 L 36.246094 20.289062 C 36.246094 20.273438 36.242188 20.261719 36.242188 20.246094 C 36.238281 20.238281 36.238281 20.226562 36.238281 20.21875 C 36.234375 20.199219 36.226562 20.179688 36.222656 20.164062 C 36.222656 20.152344 36.21875 20.144531 36.214844 20.136719 C 36.210938 20.117188 36.203125 20.097656 36.195312 20.082031 C 36.195312 20.074219 36.191406 20.066406 36.191406 20.0625 C 36.179688 20.03125 36.167969 20.015625 36.167969 20.011719 L 36.167969 20.007812 L 36.171875 20.007812 C 36.175781 20.003906 36.191406 19.988281 36.214844 19.964844 C 36.222656 19.960938 36.230469 19.953125 36.234375 19.945312 C 36.242188 19.9375 36.246094 19.933594 36.25 19.925781 C 36.257812 19.917969 36.265625 19.910156 36.269531 19.902344 C 36.277344 19.890625 36.28125 19.882812 36.289062 19.871094 C 36.296875 19.859375 36.300781 19.851562 36.308594 19.835938 C 36.3125 19.832031 36.3125 19.820312 36.316406 19.816406 C 36.316406 19.8125 36.316406 19.8125 36.316406 19.808594 C 36.320312 19.800781 36.324219 19.792969 36.324219 19.785156 C 36.324219 19.785156 36.324219 19.78125 36.328125 19.777344 C 36.328125 19.773438 36.328125 19.765625 36.328125 19.761719 C 36.332031 19.757812 36.332031 19.753906 36.332031 19.75 C 36.332031 19.742188 36.332031 19.734375 36.332031 19.726562 C 36.335938 19.707031 36.335938 19.691406 36.332031 19.675781 Z M 36.332031 19.675781 " fill-opacity="1" fill-rule="nonzero"/><path fill="#403728" d="M 36.007812 21.09375 L 35.316406 21.09375 C 35.308594 21.09375 35.296875 21.089844 35.285156 21.082031 L 35.304688 21.035156 C 35.3125 21.039062 35.320312 21.042969 35.320312 21.042969 L 36.007812 21.042969 Z M 36.007812 21.09375 " fill-opacity="1" fill-rule="nonzero"/><path fill="#403728" d="M 36.152344 20.582031 C 36.148438 20.582031 35.75 20.53125 35.488281 20.46875 L 35.503906 20.417969 C 35.761719 20.480469 36.15625 20.53125 36.160156 20.53125 Z M 36.152344 20.582031 " fill-opacity="1" fill-rule="nonzero"/><path fill="#403728" d="M 36.152344 20.582031 C 36.148438 20.582031 35.75 20.53125 35.488281 20.46875 L 35.503906 20.417969 C 35.761719 20.480469 36.15625 20.53125 36.160156 20.53125 Z M 36.152344 20.582031 " fill-opacity="1" fill-rule="nonzero"/><path fill="#403728" d="M 36.164062 20.03125 C 36.152344 20.027344 35.933594 19.945312 35.828125 19.886719 L 35.855469 19.839844 C 35.953125 19.898438 36.179688 19.980469 36.179688 19.980469 Z M 36.164062 20.03125 " fill-opacity="1" fill-rule="nonzero"/><path fill="#d28f86" d="M 28.359375 23.195312 L 29.484375 23.21875 L 29.464844 22.722656 L 28.230469 22.632812 L 28.246094 23.101562 Z M 28.359375 23.195312 " fill-opacity="1" fill-rule="nonzero"/><path fill="#d28f86" d="M 26.855469 22.195312 C 26.855469 22.195312 27.648438 21.644531 27.933594 21.5625 C 28.21875 21.480469 28.792969 21.167969 29.085938 21.046875 C 29.414062 20.910156 30.316406 20.640625 30.316406 20.691406 C 30.316406 20.742188 30.414062 20.96875 29.988281 21.179688 C 29.5625 21.390625 29.054688 21.730469 29.054688 21.730469 C 29.054688 21.730469 29.476562 21.90625 29.527344 21.980469 C 29.578125 22.058594 29.679688 23.300781 29.621094 23.355469 C 29.5625 23.410156 29.335938 23.152344 29.3125 22.941406 C 29.3125 22.941406 29.226562 22.964844 28.949219 22.703125 C 28.675781 22.441406 28.386719 22.414062 28.386719 22.414062 L 28.371094 22.605469 L 28.359375 23.191406 C 28.359375 23.191406 27.8125 23.378906 27.609375 23.386719 C 27.40625 23.394531 27.171875 23.414062 27.171875 23.414062 Z M 26.855469 22.195312 " fill-opacity="1" fill-rule="nonzero"/><path fill="#403728" d="M 29.308594 22.96875 C 29.273438 22.96875 29.167969 22.945312 28.933594 22.722656 L 28.96875 22.683594 C 29.222656 22.921875 29.308594 22.917969 29.308594 22.917969 L 29.320312 22.96875 C 29.316406 22.96875 29.3125 22.96875 29.308594 22.96875 Z M 29.308594 22.96875 " fill-opacity="1" fill-rule="nonzero"/><path fill="#403728" d="M 29.375 22.984375 C 29.339844 22.984375 29.308594 22.96875 29.300781 22.964844 L 29.324219 22.921875 C 29.339844 22.929688 29.382812 22.941406 29.398438 22.925781 C 29.40625 22.921875 29.421875 22.898438 29.402344 22.820312 C 29.347656 22.617188 29.136719 22.285156 29 22.195312 C 28.871094 22.109375 28.398438 22.046875 28.394531 22.046875 L 28.402344 21.996094 C 28.421875 21.996094 28.890625 22.0625 29.027344 22.152344 C 29.171875 22.25 29.390625 22.59375 29.449219 22.804688 C 29.46875 22.886719 29.464844 22.9375 29.429688 22.964844 C 29.414062 22.980469 29.394531 22.984375 29.375 22.984375 Z M 29.375 22.984375 " fill-opacity="1" fill-rule="nonzero"/><path fill="#403728" d="M 28.667969 21.699219 L 28.675781 21.652344 L 29.0625 21.710938 L 29.054688 21.757812 Z M 28.667969 21.699219 " fill-opacity="1" fill-rule="nonzero"/><path fill="#403728" d="M 22.511719 24.589844 L 22.507812 24.558594 C 22.5 24.527344 21.871094 21.472656 21.667969 20.84375 L 21.714844 20.828125 C 21.90625 21.425781 22.484375 24.191406 22.550781 24.519531 L 23.332031 24.148438 L 23.351562 24.195312 Z M 22.511719 24.589844 " fill-opacity="1" fill-rule="nonzero"/><path fill="#403728" d="M 21.558594 25.238281 L 21.515625 25.210938 C 21.878906 24.671875 22.519531 24.53125 22.527344 24.53125 L 22.539062 24.578125 C 22.53125 24.582031 21.90625 24.71875 21.558594 25.238281 Z M 21.558594 25.238281 " fill-opacity="1" fill-rule="nonzero"/><path fill="#403728" d="M 29.851562 27.117188 L 29.800781 27.113281 L 29.8125 26.695312 C 29.820312 26.210938 29.832031 25.714844 29.839844 25.050781 C 29.851562 24.207031 29.933594 23.589844 29.933594 23.585938 L 29.984375 23.589844 C 29.984375 23.597656 29.902344 24.210938 29.890625 25.050781 C 29.878906 25.714844 29.871094 26.210938 29.859375 26.695312 Z M 29.851562 27.117188 " fill-opacity="1" fill-rule="nonzero"/><path fill="#d28f86" d="M 8.5 16.824219 C 8.5 16.824219 8 16.972656 7.859375 18.527344 C 7.722656 20.085938 7.464844 23.058594 7.464844 23.058594 C 7.464844 23.058594 7.074219 24.667969 7.140625 26.21875 C 7.210938 27.769531 7.648438 28.683594 7.648438 28.683594 L 8.765625 28.351562 C 8.765625 28.351562 8.65625 26.636719 8.925781 25.703125 C 9.199219 24.765625 9.390625 24.183594 9.445312 22.929688 C 9.5 21.675781 9.082031 18.375 9.082031 18.375 Z M 8.5 16.824219 " fill-opacity="1" fill-rule="nonzero"/><path fill="#d54f56" d="M 8.691406 16.609375 C 8.691406 16.609375 7.871094 17.082031 7.710938 18.5625 C 7.550781 20.046875 7.347656 21.347656 7.347656 21.347656 C 7.347656 21.347656 8.394531 21.921875 9.160156 21.679688 C 9.925781 21.4375 9.292969 18.902344 9.292969 18.902344 L 8.808594 16.71875 Z M 8.691406 16.609375 " fill-opacity="1" fill-rule="nonzero"/><g clip-path="url(#f5df69699c)"><path fill="#403728" d="M 18.210938 31.15625 C 18.195312 31.164062 18.179688 31.171875 18.160156 31.179688 L 14.644531 31.179688 C 14.636719 31.171875 14.628906 31.164062 14.621094 31.15625 C 14.554688 31.082031 14.515625 31 14.492188 30.914062 C 14.460938 30.777344 14.476562 30.628906 14.527344 30.472656 C 14.59375 30.257812 14.730469 30.03125 14.882812 29.824219 C 14.914062 29.78125 14.949219 29.738281 14.980469 29.695312 C 15.308594 29.285156 15.671875 28.96875 15.671875 28.96875 C 15.671875 28.96875 15.785156 28.949219 15.960938 28.917969 C 16.554688 28.816406 17.871094 28.601562 17.996094 28.683594 C 18.066406 28.730469 18.253906 29.027344 18.449219 29.34375 C 18.65625 29.6875 18.863281 30.058594 18.929688 30.171875 C 18.9375 30.1875 18.941406 30.199219 18.945312 30.203125 C 18.945312 30.203125 18.945312 30.207031 18.949219 30.207031 C 18.945312 30.207031 18.96875 30.761719 18.210938 31.15625 Z M 18.210938 31.15625 " fill-opacity="1" fill-rule="nonzero"/></g><g clip-path="url(#ce57e7e0bf)"><path fill="#403728" d="M 17.738281 31.179688 L 9.015625 31.179688 L 9.015625 31.171875 L 9.019531 31.15625 L 9.15625 30.457031 L 9.339844 29.535156 L 9.722656 29.542969 L 10.664062 29.570312 L 10.8125 29.578125 L 14.078125 29.667969 L 14.582031 29.683594 L 14.832031 29.691406 L 14.980469 29.695312 L 15.851562 29.71875 L 17.304688 29.761719 C 17.304688 29.761719 17.335938 29.828125 17.382812 29.960938 C 17.398438 30.011719 17.421875 30.070312 17.445312 30.140625 C 17.523438 30.378906 17.628906 30.722656 17.730469 31.15625 Z M 17.738281 31.179688 " fill-opacity="1" fill-rule="nonzero"/></g><path fill="#d28f86" d="M 10.285156 18.214844 C 10.261719 18.894531 14.085938 19.164062 14.75 15.757812 C 14.746094 15.710938 14.058594 12.195312 14.058594 12.152344 C 14.054688 12.152344 12.421875 12.042969 12.421875 12.042969 C 11.539062 12.414062 12.714844 13.023438 11.832031 13.394531 C 11.828125 13.398438 11.277344 15.128906 11.277344 15.128906 C 11.277344 15.128906 11.277344 15.136719 11.277344 15.148438 C 11.277344 15.210938 11.269531 15.402344 11.226562 15.585938 C 11.222656 15.589844 11.222656 15.597656 11.222656 15.601562 C 11.195312 15.71875 11.152344 15.824219 11.082031 15.894531 C 11.042969 15.933594 11.003906 15.972656 10.964844 16.003906 C 10.75 16.191406 10.289062 18.121094 10.285156 18.214844 Z M 10.285156 18.214844 " fill-opacity="1" fill-rule="nonzero"/><g clip-path="url(#593b1f04f2)"><path fill="#ffffff" d="M 10.726562 17.398438 C 10.726562 17.398438 11.691406 18.070312 14.414062 17.152344 C 16.550781 16.433594 14.621094 23.476562 14.621094 23.476562 L 16.148438 29.683594 C 16.148438 29.683594 13.566406 30.003906 12.125 30.019531 C 10.6875 30.03125 9.542969 29.464844 9.542969 29.464844 L 10.25 20.894531 Z M 10.726562 17.398438 " fill-opacity="1" fill-rule="nonzero"/></g><path fill="#403728" d="M 10.964844 16.003906 C 11.042969 16.03125 11.140625 16.058594 11.25 16.09375 C 12.761719 16.535156 13.527344 15.0625 13.566406 14.984375 C 13.164062 15.484375 12.660156 15.847656 12.171875 15.882812 C 11.777344 15.910156 11.46875 15.804688 11.222656 15.601562 C 11.191406 15.714844 11.148438 15.824219 11.082031 15.894531 C 11.042969 15.933594 11.003906 15.96875 10.964844 16.003906 Z M 10.964844 16.003906 " fill-opacity="1" fill-rule="nonzero"/><path fill="#d28f86" d="M 10.226562 13.402344 C 10.46875 14.722656 10.9375 16.054688 12.207031 15.910156 C 13.09375 15.8125 13.996094 14.621094 14.230469 13.503906 C 14.355469 12.925781 14.464844 12.421875 14.480469 12.042969 C 14.492188 11.738281 14.484375 11.550781 14.484375 11.550781 L 14.292969 10.882812 L 14.183594 10.496094 C 14.183594 10.496094 13.910156 10.253906 13.605469 9.980469 C 13.222656 9.640625 12.59375 10.082031 12.585938 10.0625 C 12.570312 10.027344 10.808594 9.703125 10.222656 10.390625 C 10.21875 10.394531 10.21875 10.394531 10.21875 10.394531 C 10.164062 10.457031 10.125 10.523438 10.097656 10.589844 C 10.074219 10.644531 10.0625 10.699219 10.058594 10.757812 C 10.054688 10.867188 10.050781 11.03125 10.050781 11.238281 C 10.050781 11.324219 10.050781 11.421875 10.054688 11.523438 C 10.058594 11.691406 10.0625 11.878906 10.074219 12.074219 C 10.097656 12.488281 10.144531 12.949219 10.226562 13.402344 Z M 10.226562 13.402344 " fill-opacity="1" fill-rule="nonzero"/><path fill="#403728" d="M 14.347656 13.40625 C 14.34375 13.46875 15.894531 11.027344 15.335938 9.835938 C 14.78125 8.644531 13.855469 8.949219 13.855469 8.949219 C 13.855469 8.949219 12.914062 6.523438 10.765625 8.460938 C 10.765625 8.460938 9.476562 8.800781 9.324219 9.882812 C 9.167969 10.964844 10.050781 11.523438 10.050781 11.523438 C 10.050781 11.523438 10.039062 10.621094 10.632812 10.601562 C 11.0625 10.589844 10.792969 11.042969 11.9375 10.796875 C 12.648438 10.644531 12.84375 10.15625 13.253906 10.386719 C 13.664062 10.617188 13.328125 10.8125 13.640625 12.035156 C 13.832031 12.785156 14.371094 12.816406 14.347656 13.40625 Z M 14.347656 13.40625 " fill-opacity="1" fill-rule="nonzero"/><path fill="#ffffff" d="M 12.332031 14.558594 L 11.367188 14.707031 C 11.367188 14.707031 11.890625 15.378906 12.332031 14.558594 Z M 12.332031 14.558594 " fill-opacity="1" fill-rule="nonzero"/><path fill="#d28f86" d="M 14.113281 12.277344 C 14.113281 12.277344 14.886719 11.769531 14.863281 12.550781 C 14.839844 13.332031 14.101562 13.671875 14.101562 13.671875 Z M 14.113281 12.277344 " fill-opacity="1" fill-rule="nonzero"/><path fill="#403728" d="M 14.304688 12.53125 C 14.304688 12.53125 14.910156 12.34375 14.300781 13.183594 Z M 14.304688 12.53125 " fill-opacity="1" fill-rule="nonzero"/><path fill="#403728" d="M 11.050781 13.054688 C 11.085938 13.191406 11.0625 13.269531 10.984375 13.289062 C 10.902344 13.308594 10.847656 13.25 10.8125 13.113281 C 10.78125 12.972656 10.804688 12.894531 10.882812 12.875 C 10.960938 12.855469 11.019531 12.917969 11.050781 13.054688 Z M 11.050781 13.054688 " fill-opacity="1" fill-rule="nonzero"/><path fill="#403728" d="M 12.5 12.878906 C 12.53125 13.015625 12.507812 13.097656 12.429688 13.113281 C 12.347656 13.132812 12.292969 13.074219 12.261719 12.9375 C 12.226562 12.800781 12.25 12.722656 12.328125 12.703125 C 12.410156 12.683594 12.464844 12.742188 12.5 12.878906 Z M 12.5 12.878906 " fill-opacity="1" fill-rule="nonzero"/><path fill="#403728" d="M 10.96875 12.257812 C 10.96875 12.257812 10.605469 12 10.304688 12.171875 Z M 10.96875 12.257812 " fill-opacity="1" fill-rule="nonzero"/><path fill="#403728" d="M 12.792969 11.890625 C 12.765625 11.886719 12.308594 11.816406 12.042969 12.117188 Z M 12.792969 11.890625 " fill-opacity="1" fill-rule="nonzero"/><path fill="#403728" d="M 11.625 13.992188 C 11.527344 13.992188 11.484375 13.945312 11.464844 13.910156 C 11.417969 13.8125 11.480469 13.664062 11.570312 13.601562 L 11.597656 13.640625 C 11.519531 13.695312 11.472656 13.820312 11.507812 13.890625 C 11.539062 13.957031 11.636719 13.964844 11.785156 13.917969 L 11.796875 13.960938 C 11.726562 13.984375 11.671875 13.992188 11.625 13.992188 Z M 11.625 13.992188 " fill-opacity="1" fill-rule="nonzero"/><g clip-path="url(#15ee92e51c)"><path fill="#d54f56" d="M 11.265625 26.007812 C 11.15625 27.285156 10.953125 28.75 10.789062 29.742188 C 10.769531 29.855469 10.75 29.960938 10.734375 30.058594 C 10.640625 30.570312 10.566406 30.894531 10.53125 30.910156 C 10.496094 30.921875 10.261719 30.976562 9.949219 31.035156 C 9.636719 31.089844 9.25 31.152344 8.914062 31.179688 L 8.382812 31.179688 C 8.273438 31.164062 8.199219 31.132812 8.171875 31.082031 C 8.125 30.980469 8.15625 30.734375 8.222656 30.417969 L 8.222656 30.414062 C 8.351562 29.808594 8.621094 28.945312 8.777344 28.332031 C 8.789062 28.273438 8.804688 28.214844 8.816406 28.160156 C 9.027344 27.257812 8.855469 27.105469 8.9375 26.582031 C 9.023438 26.058594 8.941406 25.445312 8.835938 24.480469 C 8.734375 23.515625 8.53125 21.234375 8.742188 19.34375 C 8.832031 18.554688 8.113281 16.976562 8.6875 16.609375 C 9.273438 16.234375 11.160156 15.71875 11.1875 15.710938 C 11.175781 15.757812 10.582031 17.617188 10.910156 19.460938 C 11.246094 21.332031 11.453125 23.847656 11.265625 26.007812 Z M 11.265625 26.007812 " fill-opacity="1" fill-rule="nonzero"/></g><path fill="#403728" d="M 8.683594 20.953125 C 8.59375 20.488281 8.636719 20.132812 8.671875 19.820312 C 8.707031 19.527344 8.734375 19.277344 8.660156 18.996094 L 8.707031 18.980469 C 8.785156 19.273438 8.753906 19.539062 8.722656 19.824219 C 8.6875 20.132812 8.644531 20.484375 8.734375 20.941406 Z M 8.683594 20.953125 " fill-opacity="1" fill-rule="nonzero"/><g clip-path="url(#6f3be10798)"><path fill="#d54f56" d="M 14.667969 15.242188 C 14.667969 15.242188 14.648438 15.515625 14.226562 16.699219 C 14.015625 17.296875 13.507812 17.867188 13.390625 18.191406 C 12.984375 19.304688 13.113281 22.605469 13.46875 24.976562 C 13.710938 26.59375 13.710938 28.457031 13.816406 28.914062 C 13.953125 29.480469 14.300781 30.230469 14.730469 30.746094 C 14.730469 30.746094 18.746094 29.640625 18.945312 30.207031 C 18.945312 30.207031 18.996094 30.042969 18.933594 29.625 C 18.894531 29.347656 18.65625 29.039062 18.476562 28.507812 C 18.148438 27.554688 18.113281 27.042969 18.300781 26.757812 C 18.492188 26.46875 17.773438 25.617188 17.65625 25.003906 C 17.542969 24.394531 18.554688 20.460938 18.667969 19.3125 C 18.785156 18.167969 18.292969 17.144531 18.292969 17.144531 Z M 14.667969 15.242188 " fill-opacity="1" fill-rule="nonzero"/></g><path fill="#d28f86" d="M 18.320312 17.191406 C 18.320312 17.191406 19.714844 18.074219 19.242188 21.742188 C 18.800781 25.191406 18.785156 27.253906 17.683594 27.375 C 16.582031 27.5 10.886719 24.066406 10.886719 24.066406 L 11.277344 22.777344 L 16.046875 24.222656 C 16.046875 24.222656 16.421875 20.484375 16.828125 19.332031 C 17.234375 18.179688 18.320312 17.191406 18.320312 17.191406 Z M 18.320312 17.191406 " fill-opacity="1" fill-rule="nonzero"/><g clip-path="url(#3da0a7bce5)"><path fill="#d28f86" d="M 10.730469 30.058594 C 10.632812 30.050781 10.476562 29.957031 10.320312 29.800781 C 10.289062 29.769531 10.257812 29.746094 10.226562 29.726562 C 10.132812 29.664062 10.039062 29.640625 9.960938 29.636719 C 9.804688 29.628906 9.691406 29.691406 9.691406 29.691406 L 9.882812 30.6875 L 9.949219 31.035156 L 9.972656 31.15625 L 9.976562 31.179688 L 9.972656 31.183594 L 8.589844 31.183594 C 8.585938 31.175781 8.582031 31.167969 8.578125 31.15625 C 8.46875 30.933594 8.34375 30.679688 8.222656 30.417969 C 8.160156 30.285156 8.097656 30.152344 8.039062 30.019531 C 8.03125 30.003906 8.023438 29.988281 8.015625 29.96875 C 7.753906 29.375 7.675781 28.929688 7.652344 28.683594 C 7.640625 28.550781 7.644531 28.480469 7.644531 28.480469 L 8.726562 28.285156 C 8.726562 28.285156 8.734375 28.304688 8.765625 28.328125 C 8.769531 28.328125 8.769531 28.332031 8.773438 28.335938 C 8.816406 28.367188 8.890625 28.410156 9.007812 28.4375 C 9.136719 28.46875 9.382812 28.492188 9.613281 28.578125 C 9.78125 28.636719 9.941406 28.730469 10.046875 28.882812 C 10.214844 29.125 10.488281 29.359375 10.664062 29.574219 C 10.714844 29.632812 10.753906 29.6875 10.785156 29.742188 C 10.8125 29.789062 10.832031 29.835938 10.839844 29.878906 C 10.839844 29.882812 10.839844 29.886719 10.839844 29.886719 C 10.863281 30.011719 10.816406 30.066406 10.730469 30.058594 Z M 10.730469 30.058594 " fill-opacity="1" fill-rule="nonzero"/></g><path fill="#f9e4d9" d="M 7.597656 21.222656 C 7.933594 21.789062 8.988281 23.574219 9.203125 23.9375 C 9.226562 23.980469 9.273438 24 9.316406 23.996094 L 10.652344 23.855469 C 10.738281 23.847656 10.785156 23.753906 10.746094 23.679688 L 9.296875 21.0625 C 9.273438 21.023438 9.230469 21 9.1875 21 L 7.699219 21.042969 C 7.605469 21.046875 7.550781 21.144531 7.597656 21.222656 Z M 7.597656 21.222656 " fill-opacity="1" fill-rule="nonzero"/><path fill="#403728" d="M 7.519531 21.257812 C 7.835938 21.792969 8.949219 23.675781 9.152344 24.015625 C 9.171875 24.050781 9.207031 24.066406 9.246094 24.0625 L 10.628906 23.917969 C 10.699219 23.910156 10.738281 23.835938 10.703125 23.773438 L 9.230469 21.117188 C 9.214844 21.082031 9.179688 21.0625 9.144531 21.066406 L 7.601562 21.109375 C 7.527344 21.109375 7.484375 21.191406 7.519531 21.257812 Z M 7.519531 21.257812 " fill-opacity="1" fill-rule="nonzero"/><path fill="#f9e4d9" d="M 9.144531 21.265625 C 9.164062 21.304688 9.160156 21.332031 9.128906 21.347656 C 9.097656 21.363281 9.070312 21.351562 9.050781 21.3125 C 9.035156 21.273438 9.039062 21.246094 9.070312 21.230469 C 9.101562 21.214844 9.128906 21.226562 9.144531 21.265625 Z M 9.144531 21.265625 " fill-opacity="1" fill-rule="nonzero"/><path fill="#d28f86" d="M 11.84375 22.964844 C 11.84375 22.964844 11.34375 22.488281 10.988281 22.371094 C 10.628906 22.253906 9.914062 22.203125 9.914062 22.203125 L 10.0625 22.429688 C 10.0625 22.429688 9.53125 22.464844 9.265625 22.429688 C 9 22.398438 8.574219 22.3125 8.570312 22.46875 C 8.566406 22.621094 8.929688 22.714844 9.226562 22.761719 C 9.527344 22.804688 10.113281 22.976562 10.113281 22.976562 C 10.113281 22.976562 9.746094 23.136719 9.273438 23.117188 C 8.800781 23.09375 8.113281 23.03125 8.078125 23.089844 C 8.046875 23.148438 8.152344 23.359375 8.363281 23.417969 C 8.363281 23.417969 8.359375 23.664062 8.617188 23.699219 C 8.617188 23.699219 8.765625 23.898438 8.945312 23.90625 C 8.945312 23.90625 8.980469 24.121094 9.476562 24.191406 C 9.972656 24.265625 11.148438 24.183594 11.304688 24.226562 C 11.457031 24.265625 11.84375 22.964844 11.84375 22.964844 Z M 11.84375 22.964844 " fill-opacity="1" fill-rule="nonzero"/><path fill="#403728" d="M 9.367188 23.488281 C 8.871094 23.488281 8.367188 23.425781 8.363281 23.425781 L 8.363281 23.40625 C 8.371094 23.40625 9.113281 23.5 9.683594 23.460938 L 9.6875 23.476562 C 9.585938 23.488281 9.476562 23.488281 9.367188 23.488281 Z M 9.367188 23.488281 " fill-opacity="1" fill-rule="nonzero"/><path fill="#403728" d="M 9.65625 23.734375 C 9.171875 23.734375 8.621094 23.707031 8.617188 23.707031 L 8.617188 23.691406 C 8.625 23.691406 9.25 23.71875 9.757812 23.714844 L 9.757812 23.734375 C 9.722656 23.734375 9.6875 23.734375 9.65625 23.734375 Z M 9.65625 23.734375 " fill-opacity="1" fill-rule="nonzero"/><path fill="#403728" d="M 9.753906 23.957031 C 9.375 23.957031 8.949219 23.914062 8.945312 23.914062 L 8.945312 23.894531 C 8.953125 23.894531 9.449219 23.945312 9.847656 23.9375 L 9.847656 23.953125 C 9.816406 23.957031 9.785156 23.957031 9.753906 23.957031 Z M 9.753906 23.957031 " fill-opacity="1" fill-rule="nonzero"/><path fill="#d54f56" d="M 19.28125 22.472656 C 19.28125 22.472656 16.246094 22.132812 16.179688 22.054688 C 16.113281 21.972656 16.410156 20.058594 16.730469 19.035156 C 17.054688 18.011719 18.292969 17.144531 18.292969 17.144531 C 18.292969 17.144531 19.308594 17.78125 19.390625 19.617188 C 19.46875 21.449219 19.28125 22.472656 19.28125 22.472656 Z M 19.28125 22.472656 " fill-opacity="1" fill-rule="nonzero"/><path fill="#403728" d="M 13.667969 19.667969 C 13.664062 19.648438 13.617188 19.214844 13.777344 18.894531 C 13.921875 18.605469 14.378906 18.125 14.476562 18.027344 L 14.011719 17.566406 L 14.078125 17.566406 C 14.089844 17.566406 15.367188 17.589844 15.589844 17.550781 C 15.589844 17.550781 15.597656 17.550781 15.605469 17.535156 C 15.730469 17.359375 15.546875 16.179688 15.46875 15.742188 L 15.515625 15.734375 C 15.527344 15.796875 15.808594 17.335938 15.648438 17.566406 C 15.632812 17.585938 15.617188 17.597656 15.597656 17.601562 C 15.394531 17.636719 14.402344 17.621094 14.136719 17.617188 L 14.546875 18.027344 L 14.53125 18.042969 C 14.523438 18.050781 13.976562 18.605469 13.820312 18.914062 C 13.667969 19.222656 13.714844 19.65625 13.714844 19.664062 Z M 13.667969 19.667969 " fill-opacity="1" fill-rule="nonzero"/><path fill="#403728" d="M 10.785156 19.394531 C 10.734375 18.957031 10.472656 18.734375 10.316406 18.601562 C 10.246094 18.542969 10.203125 18.5 10.195312 18.460938 C 10.179688 18.371094 10.3125 18.128906 10.378906 18.011719 L 9.304688 18.410156 L 9.371094 18.335938 C 9.375 18.332031 9.589844 18.085938 9.863281 17.484375 C 10.136719 16.882812 10.34375 16.074219 10.347656 16.066406 L 10.394531 16.078125 C 10.394531 16.085938 10.183594 16.902344 9.910156 17.507812 C 9.714844 17.9375 9.550781 18.183594 9.464844 18.296875 L 10.5 17.914062 L 10.460938 17.976562 C 10.371094 18.121094 10.230469 18.378906 10.242188 18.453125 C 10.246094 18.476562 10.296875 18.515625 10.351562 18.5625 C 10.511719 18.699219 10.78125 18.929688 10.835938 19.390625 Z M 10.785156 19.394531 " fill-opacity="1" fill-rule="nonzero"/><path fill="#403728" d="M 13.71875 20.679688 C 13.71875 20.785156 13.667969 20.835938 13.5625 20.835938 C 13.457031 20.835938 13.40625 20.785156 13.40625 20.679688 C 13.40625 20.574219 13.457031 20.523438 13.5625 20.523438 C 13.667969 20.523438 13.71875 20.574219 13.71875 20.679688 Z M 13.71875 20.679688 " fill-opacity="1" fill-rule="nonzero"/><path fill="#403728" d="M 14.257812 26.648438 C 14.257812 26.753906 14.207031 26.808594 14.101562 26.808594 C 13.996094 26.808594 13.941406 26.753906 13.941406 26.648438 C 13.941406 26.542969 13.996094 26.492188 14.101562 26.492188 C 14.207031 26.492188 14.257812 26.542969 14.257812 26.648438 Z M 14.257812 26.648438 " fill-opacity="1" fill-rule="nonzero"/><path fill="#403728" d="M 14.351562 28.257812 C 14.351562 28.363281 14.300781 28.414062 14.195312 28.414062 C 14.089844 28.414062 14.039062 28.363281 14.039062 28.257812 C 14.039062 28.152344 14.089844 28.101562 14.195312 28.101562 C 14.300781 28.101562 14.351562 28.152344 14.351562 28.257812 Z M 14.351562 28.257812 " fill-opacity="1" fill-rule="nonzero"/><path fill="#403728" d="M 14.863281 29.78125 C 14.863281 29.886719 14.8125 29.9375 14.707031 29.9375 C 14.601562 29.9375 14.550781 29.886719 14.550781 29.78125 C 14.550781 29.675781 14.601562 29.625 14.707031 29.625 C 14.8125 29.625 14.863281 29.675781 14.863281 29.78125 Z M 14.863281 29.78125 " fill-opacity="1" fill-rule="nonzero"/><path fill="#403728" d="M 13.816406 22.363281 C 13.816406 22.46875 13.761719 22.523438 13.65625 22.523438 C 13.550781 22.523438 13.5 22.46875 13.5 22.363281 C 13.5 22.257812 13.550781 22.207031 13.65625 22.207031 C 13.761719 22.207031 13.816406 22.257812 13.816406 22.363281 Z M 13.816406 22.363281 " fill-opacity="1" fill-rule="nonzero"/><path fill="#403728" d="M 16.304688 22.066406 L 16.253906 22.0625 L 16.527344 19.878906 L 16.574219 19.882812 Z M 16.304688 22.066406 " fill-opacity="1" fill-rule="nonzero"/><path fill="#403728" d="M 17.757812 25.363281 C 17.226562 24.394531 16.054688 24.25 16.042969 24.25 L 16.050781 24.199219 C 16.0625 24.199219 17.257812 24.347656 17.800781 25.335938 Z M 17.757812 25.363281 " fill-opacity="1" fill-rule="nonzero"/><path fill="#403728" d="M 7.359375 6.183594 C 7.144531 5.871094 6.789062 5.667969 6.382812 5.667969 L 1.867188 5.667969 C 0.847656 5.667969 0.0234375 6.496094 0.0234375 7.519531 C 0.0234375 8.058594 0.25 8.546875 0.617188 8.882812 C 0.949219 9.1875 1.386719 9.371094 1.867188 9.371094 L 5.957031 9.371094 L 7.566406 10.390625 L 7.566406 6.855469 C 7.566406 6.605469 7.492188 6.371094 7.359375 6.183594 Z M 7.359375 6.183594 " fill-opacity="1" fill-rule="nonzero"/><path fill="#ffffff" d="M 7.359375 6.183594 C 7.152344 6.007812 6.886719 5.902344 6.597656 5.902344 L 2.082031 5.902344 C 1.0625 5.902344 0.238281 6.730469 0.238281 7.753906 C 0.238281 8.179688 0.378906 8.570312 0.617188 8.882812 C 0.957031 9.324219 1.484375 9.605469 2.082031 9.605469 L 6.171875 9.605469 L 7.78125 10.625 L 7.78125 7.089844 C 7.78125 6.726562 7.617188 6.398438 7.359375 6.183594 Z M 7.359375 6.183594 " fill-opacity="1" fill-rule="nonzero"/><path fill="#403728" d="M 7.808594 10.667969 L 6.164062 9.632812 L 2.082031 9.632812 C 1.496094 9.632812 0.957031 9.363281 0.597656 8.898438 C 0.34375 8.566406 0.210938 8.171875 0.210938 7.753906 C 0.210938 6.71875 1.050781 5.875 2.082031 5.875 L 6.597656 5.875 C 6.882812 5.875 7.160156 5.976562 7.375 6.160156 C 7.652344 6.390625 7.808594 6.730469 7.808594 7.089844 Z M 2.082031 5.925781 C 1.078125 5.925781 0.261719 6.746094 0.261719 7.753906 C 0.261719 8.164062 0.390625 8.546875 0.636719 8.867188 C 0.984375 9.320312 1.511719 9.582031 2.082031 9.582031 L 6.179688 9.582031 L 7.757812 10.578125 L 7.757812 7.089844 C 7.757812 6.746094 7.605469 6.421875 7.34375 6.199219 C 7.136719 6.023438 6.871094 5.925781 6.597656 5.925781 Z M 2.082031 5.925781 " fill-opacity="1" fill-rule="nonzero"/><path fill="#403728" d="M 6.496094 8.050781 C 6.496094 8.136719 6.464844 8.210938 6.40625 8.269531 C 6.34375 8.328125 6.273438 8.359375 6.1875 8.359375 C 6.101562 8.359375 6.03125 8.328125 5.972656 8.269531 C 5.910156 8.210938 5.882812 8.136719 5.882812 8.050781 C 5.882812 7.96875 5.910156 7.894531 5.972656 7.835938 C 6.03125 7.773438 6.101562 7.746094 6.1875 7.746094 C 6.273438 7.746094 6.34375 7.773438 6.40625 7.835938 C 6.464844 7.894531 6.496094 7.96875 6.496094 8.050781 Z M 6.496094 8.050781 " fill-opacity="1" fill-rule="nonzero"/><path fill="#403728" d="M 4.777344 8.050781 C 4.777344 8.136719 4.75 8.210938 4.6875 8.269531 C 4.628906 8.328125 4.558594 8.359375 4.472656 8.359375 C 4.386719 8.359375 4.316406 8.328125 4.253906 8.269531 C 4.195312 8.210938 4.167969 8.136719 4.167969 8.050781 C 4.167969 7.96875 4.195312 7.894531 4.253906 7.835938 C 4.316406 7.773438 4.386719 7.746094 4.472656 7.746094 C 4.558594 7.746094 4.628906 7.773438 4.6875 7.835938 C 4.75 7.894531 4.777344 7.96875 4.777344 8.050781 Z M 4.777344 8.050781 " fill-opacity="1" fill-rule="nonzero"/><path fill="#403728" d="M 3.0625 8.050781 C 3.0625 8.136719 3.035156 8.210938 2.976562 8.269531 C 2.914062 8.328125 2.84375 8.359375 2.757812 8.359375 C 2.671875 8.359375 2.601562 8.328125 2.542969 8.269531 C 2.480469 8.210938 2.453125 8.136719 2.453125 8.050781 C 2.453125 7.96875 2.480469 7.894531 2.542969 7.835938 C 2.601562 7.773438 2.671875 7.746094 2.757812 7.746094 C 2.84375 7.746094 2.914062 7.773438 2.976562 7.835938 C 3.035156 7.894531 3.0625 7.96875 3.0625 8.050781 Z M 3.0625 8.050781 " fill-opacity="1" fill-rule="nonzero"/><g clip-path="url(#2eb55e5181)"><path fill="#403728" d="M 17.453125 2.824219 C 17.453125 3.191406 17.382812 3.542969 17.246094 3.878906 C 17.105469 4.21875 16.90625 4.515625 16.652344 4.773438 C 16.394531 5.035156 16.097656 5.234375 15.761719 5.375 C 15.425781 5.515625 15.078125 5.582031 14.714844 5.582031 C 14.351562 5.582031 14 5.515625 13.664062 5.375 C 13.328125 5.234375 13.03125 5.035156 12.773438 4.773438 C 12.519531 4.515625 12.320312 4.21875 12.179688 3.878906 C 12.042969 3.542969 11.972656 3.191406 11.972656 2.824219 C 11.972656 2.457031 12.042969 2.105469 12.179688 1.769531 C 12.320312 1.429688 12.519531 1.132812 12.773438 0.871094 C 13.03125 0.613281 13.328125 0.414062 13.664062 0.273438 C 14 0.132812 14.351562 0.0625 14.714844 0.0625 C 15.078125 0.0625 15.425781 0.132812 15.761719 0.273438 C 16.097656 0.414062 16.394531 0.613281 16.652344 0.871094 C 16.90625 1.132812 17.105469 1.429688 17.246094 1.769531 C 17.382812 2.105469 17.453125 2.457031 17.453125 2.824219 Z M 17.453125 2.824219 " fill-opacity="1" fill-rule="nonzero"/></g><g clip-path="url(#733902c3fb)"><path fill="#d54f56" d="M 15.054688 0.394531 C 13.542969 0.394531 12.316406 1.628906 12.316406 3.152344 C 12.316406 4.246094 12.945312 5.191406 13.863281 5.640625 L 13.949219 7.019531 L 14.835938 5.902344 C 14.910156 5.910156 14.984375 5.914062 15.054688 5.914062 C 16.570312 5.914062 17.796875 4.679688 17.796875 3.152344 C 17.796875 1.628906 16.570312 0.394531 15.054688 0.394531 Z M 15.054688 0.394531 " fill-opacity="1" fill-rule="nonzero"/></g><path fill="#ffffff" d="M 15.011719 4.269531 L 13.953125 3.316406 C 13.65625 3.050781 13.628906 2.585938 13.894531 2.285156 C 14.164062 1.980469 14.621094 1.957031 14.921875 2.226562 L 15.050781 2.339844 L 15.210938 2.207031 C 15.519531 1.949219 15.976562 1.992188 16.234375 2.304688 C 16.488281 2.617188 16.445312 3.078125 16.136719 3.335938 Z M 15.011719 4.269531 " fill-opacity="1" fill-rule="nonzero"/><path fill="#f9e4d9" d="M 9.371094 2.488281 C 9.34375 2.488281 9.3125 2.480469 9.289062 2.460938 C 8.828125 2.097656 8.273438 1.910156 7.6875 1.910156 C 7.101562 1.910156 6.546875 2.101562 6.085938 2.460938 C 6.027344 2.507812 5.941406 2.496094 5.894531 2.4375 C 5.851562 2.378906 5.859375 2.292969 5.917969 2.246094 C 6.425781 1.847656 7.039062 1.636719 7.6875 1.636719 C 8.335938 1.636719 8.945312 1.847656 9.457031 2.246094 C 9.515625 2.292969 9.523438 2.378906 9.480469 2.4375 C 9.453125 2.472656 9.414062 2.488281 9.371094 2.488281 Z M 9.371094 2.488281 " fill-opacity="1" fill-rule="nonzero"/><path fill="#f9e4d9" d="M 8.976562 3.019531 C 8.945312 3.019531 8.917969 3.007812 8.894531 2.988281 C 8.546875 2.714844 8.128906 2.570312 7.6875 2.570312 C 7.246094 2.570312 6.828125 2.714844 6.484375 2.988281 C 6.425781 3.035156 6.339844 3.027344 6.292969 2.96875 C 6.246094 2.910156 6.257812 2.824219 6.316406 2.777344 C 6.710938 2.464844 7.183594 2.300781 7.6875 2.300781 C 8.195312 2.300781 8.667969 2.464844 9.0625 2.777344 C 9.121094 2.824219 9.128906 2.910156 9.085938 2.96875 C 9.054688 3 9.015625 3.019531 8.976562 3.019531 Z M 8.976562 3.019531 " fill-opacity="1" fill-rule="nonzero"/><path fill="#f9e4d9" d="M 6.820312 3.582031 C 6.78125 3.582031 6.742188 3.566406 6.714844 3.53125 C 6.667969 3.476562 6.675781 3.390625 6.734375 3.34375 C 7.003906 3.125 7.339844 3.003906 7.6875 3.003906 C 8.035156 3.003906 8.371094 3.125 8.640625 3.34375 C 8.699219 3.390625 8.707031 3.476562 8.660156 3.53125 C 8.613281 3.589844 8.527344 3.597656 8.472656 3.550781 C 8.25 3.375 7.972656 3.273438 7.6875 3.273438 C 7.402344 3.273438 7.125 3.375 6.902344 3.550781 C 6.878906 3.574219 6.847656 3.582031 6.820312 3.582031 Z M 6.820312 3.582031 " fill-opacity="1" fill-rule="nonzero"/><path fill="#f9e4d9" d="M 8.035156 3.984375 C 8.035156 4.082031 8 4.164062 7.933594 4.230469 C 7.867188 4.300781 7.785156 4.335938 7.6875 4.335938 C 7.589844 4.335938 7.507812 4.300781 7.441406 4.230469 C 7.375 4.164062 7.339844 4.082031 7.339844 3.984375 C 7.339844 3.890625 7.375 3.808594 7.441406 3.738281 C 7.507812 3.671875 7.589844 3.636719 7.6875 3.636719 C 7.785156 3.636719 7.867188 3.671875 7.933594 3.738281 C 8 3.808594 8.035156 3.890625 8.035156 3.984375 Z M 8.035156 3.984375 " fill-opacity="1" fill-rule="nonzero"/><path fill="#ffffff" d="M 6.753906 17.585938 L 6.058594 16.699219 C 6.335938 16.398438 6.507812 15.992188 6.507812 15.546875 C 6.507812 14.601562 5.746094 13.839844 4.808594 13.839844 C 3.867188 13.839844 3.105469 14.601562 3.105469 15.546875 C 3.105469 16.488281 3.867188 17.253906 4.808594 17.253906 C 5.027344 17.253906 5.238281 17.210938 5.433594 17.132812 Z M 6.753906 17.585938 " fill-opacity="1" fill-rule="nonzero"/><path fill="#403728" d="M 6.816406 17.632812 L 5.433594 17.160156 C 5.230469 17.238281 5.019531 17.277344 4.804688 17.277344 C 3.855469 17.277344 3.082031 16.5 3.082031 15.546875 C 3.082031 14.59375 3.855469 13.816406 4.804688 13.816406 C 5.757812 13.816406 6.53125 14.59375 6.53125 15.546875 C 6.53125 15.972656 6.371094 16.382812 6.085938 16.703125 Z M 5.429688 17.109375 L 5.4375 17.113281 L 6.6875 17.539062 L 6.027344 16.699219 L 6.042969 16.683594 C 6.328125 16.371094 6.484375 15.96875 6.484375 15.546875 C 6.484375 14.617188 5.730469 13.859375 4.804688 13.859375 C 3.878906 13.859375 3.125 14.617188 3.125 15.546875 C 3.125 16.476562 3.878906 17.230469 4.804688 17.230469 C 5.015625 17.230469 5.222656 17.191406 5.421875 17.113281 Z M 5.429688 17.109375 " fill-opacity="1" fill-rule="nonzero"/><path fill="#403728" d="M 5.539062 15.546875 L 4.347656 14.855469 L 4.347656 16.238281 Z M 5.539062 15.546875 " fill-opacity="1" fill-rule="nonzero"/><path fill="#403728" d="M 25.726562 1.777344 L 21.59375 1.777344 C 21.417969 1.777344 21.273438 1.921875 21.273438 2.101562 L 21.273438 4.214844 C 21.273438 4.394531 21.417969 4.539062 21.59375 4.539062 L 23.015625 4.539062 L 24.375 5.847656 L 24.457031 4.539062 L 25.726562 4.539062 C 25.90625 4.539062 26.046875 4.394531 26.046875 4.214844 L 26.046875 2.101562 C 26.046875 1.921875 25.90625 1.777344 25.726562 1.777344 Z M 25.726562 1.777344 " fill-opacity="1" fill-rule="nonzero"/><path fill="#ffffff" d="M 25.980469 2.019531 L 21.84375 2.019531 C 21.667969 2.019531 21.523438 2.164062 21.523438 2.34375 L 21.523438 4.460938 C 21.523438 4.636719 21.667969 4.78125 21.84375 4.78125 L 23.265625 4.78125 L 24.628906 6.089844 L 24.710938 4.78125 L 25.980469 4.78125 C 26.15625 4.78125 26.300781 4.636719 26.300781 4.460938 L 26.300781 2.34375 C 26.300781 2.164062 26.15625 2.019531 25.980469 2.019531 Z M 25.980469 2.019531 " fill-opacity="1" fill-rule="nonzero"/><path fill="#403728" d="M 24.648438 6.144531 L 23.257812 4.804688 L 21.84375 4.804688 C 21.65625 4.804688 21.5 4.648438 21.5 4.460938 L 21.5 2.34375 C 21.5 2.152344 21.65625 1.996094 21.84375 1.996094 L 25.980469 1.996094 C 26.171875 1.996094 26.324219 2.152344 26.324219 2.34375 L 26.324219 4.460938 C 26.324219 4.648438 26.171875 4.804688 25.980469 4.804688 L 24.734375 4.804688 Z M 21.84375 2.046875 C 21.683594 2.046875 21.550781 2.179688 21.550781 2.34375 L 21.550781 4.460938 C 21.550781 4.621094 21.683594 4.753906 21.84375 4.753906 L 23.277344 4.753906 L 23.285156 4.761719 L 24.605469 6.035156 L 24.6875 4.753906 L 25.980469 4.753906 C 26.144531 4.753906 26.277344 4.621094 26.277344 4.460938 L 26.277344 2.34375 C 26.277344 2.179688 26.144531 2.046875 25.980469 2.046875 Z M 21.84375 2.046875 " fill-opacity="1" fill-rule="nonzero"/><path fill="#d54f56" d="M 22.882812 3.957031 L 22.355469 3.484375 C 22.203125 3.347656 22.191406 3.117188 22.324219 2.96875 C 22.457031 2.816406 22.6875 2.804688 22.835938 2.9375 L 22.902344 2.996094 L 22.984375 2.929688 C 23.136719 2.800781 23.367188 2.824219 23.496094 2.980469 C 23.621094 3.132812 23.601562 3.363281 23.445312 3.492188 Z M 22.882812 3.957031 " fill-opacity="1" fill-rule="nonzero"/><path fill="#403728" d="M 24.054688 3.132812 L 23.949219 3.132812 L 23.949219 2.996094 L 24.207031 2.996094 L 24.207031 3.777344 L 24.054688 3.777344 Z M 24.054688 3.132812 " fill-opacity="1" fill-rule="nonzero"/><path fill="#403728" d="M 24.347656 3.65625 C 24.527344 3.503906 24.710938 3.367188 24.710938 3.222656 C 24.710938 3.152344 24.679688 3.105469 24.605469 3.105469 C 24.535156 3.105469 24.492188 3.15625 24.492188 3.242188 L 24.347656 3.242188 C 24.351562 3.0625 24.46875 2.976562 24.609375 2.976562 C 24.777344 2.976562 24.859375 3.078125 24.859375 3.214844 C 24.859375 3.394531 24.6875 3.539062 24.5625 3.644531 L 24.878906 3.644531 L 24.878906 3.765625 L 24.347656 3.765625 Z M 24.347656 3.65625 " fill-opacity="1" fill-rule="nonzero"/><path fill="#403728" d="M 24.964844 3.65625 C 25.140625 3.503906 25.324219 3.367188 25.324219 3.222656 C 25.324219 3.152344 25.292969 3.105469 25.21875 3.105469 C 25.148438 3.105469 25.109375 3.15625 25.109375 3.242188 L 24.960938 3.242188 C 24.96875 3.0625 25.082031 2.976562 25.222656 2.976562 C 25.390625 2.976562 25.476562 3.078125 25.476562 3.214844 C 25.476562 3.394531 25.300781 3.539062 25.175781 3.644531 L 25.492188 3.644531 L 25.492188 3.765625 L 24.964844 3.765625 Z M 24.964844 3.65625 " fill-opacity="1" fill-rule="nonzero"/><path fill="#ffffff" d="M 38.261719 25.097656 C 38.261719 25.28125 38.226562 25.460938 38.15625 25.628906 C 38.085938 25.800781 37.988281 25.949219 37.859375 26.078125 C 37.726562 26.210938 37.578125 26.308594 37.410156 26.378906 C 37.238281 26.449219 37.0625 26.484375 36.878906 26.484375 C 36.699219 26.484375 36.519531 26.449219 36.351562 26.378906 C 36.183594 26.308594 36.03125 26.210938 35.902344 26.078125 C 35.773438 25.949219 35.675781 25.800781 35.605469 25.628906 C 35.535156 25.460938 35.5 25.28125 35.5 25.097656 C 35.5 24.914062 35.535156 24.738281 35.605469 24.566406 C 35.675781 24.398438 35.773438 24.246094 35.902344 24.117188 C 36.03125 23.988281 36.183594 23.886719 36.351562 23.816406 C 36.519531 23.746094 36.699219 23.710938 36.878906 23.710938 C 37.0625 23.710938 37.238281 23.746094 37.410156 23.816406 C 37.578125 23.886719 37.726562 23.988281 37.859375 24.117188 C 37.988281 24.246094 38.085938 24.398438 38.15625 24.566406 C 38.226562 24.738281 38.261719 24.914062 38.261719 25.097656 Z M 38.261719 25.097656 " fill-opacity="1" fill-rule="nonzero"/><path fill="#403728" d="M 37.214844 24.820312 C 37.214844 24.914062 37.183594 24.992188 37.117188 25.058594 C 37.050781 25.121094 36.972656 25.15625 36.878906 25.15625 C 36.789062 25.15625 36.710938 25.121094 36.644531 25.058594 C 36.578125 24.992188 36.546875 24.914062 36.546875 24.820312 C 36.546875 24.726562 36.578125 24.648438 36.644531 24.582031 C 36.710938 24.515625 36.789062 24.484375 36.878906 24.484375 C 36.972656 24.484375 37.050781 24.515625 37.117188 24.582031 C 37.183594 24.648438 37.214844 24.726562 37.214844 24.820312 Z M 37.214844 24.820312 " fill-opacity="1" fill-rule="nonzero"/><path fill="#403728" d="M 37.40625 25.714844 L 36.351562 25.714844 L 36.351562 25.59375 C 36.351562 25.378906 36.527344 25.207031 36.738281 25.207031 L 37.019531 25.207031 C 37.234375 25.207031 37.40625 25.378906 37.40625 25.59375 Z M 37.40625 25.714844 " fill-opacity="1" fill-rule="nonzero"/><path fill="#ffffff" d="M 26.421875 21.023438 C 24.882812 21.316406 23.199219 18.320312 22.035156 17.683594 C 22.332031 17.621094 22.527344 17.601562 22.527344 17.601562 C 23.015625 17.949219 23.613281 18.90625 24.136719 19.417969 C 26.921875 22.429688 27.496094 19.855469 27.179688 17.125 C 27.179688 17.125 27.292969 17.125 27.453125 17.128906 C 27.550781 17.820312 27.871094 20.753906 26.421875 21.023438 Z M 26.421875 21.023438 " fill-opacity="1" fill-rule="nonzero"/><path fill="#403728" d="M 19.894531 9.34375 C 19.894531 9.542969 19.855469 9.734375 19.78125 9.917969 C 19.707031 10.101562 19.597656 10.265625 19.457031 10.40625 C 19.316406 10.546875 19.152344 10.65625 18.96875 10.730469 C 18.785156 10.808594 18.597656 10.84375 18.398438 10.84375 C 18.199219 10.84375 18.007812 10.808594 17.824219 10.730469 C 17.640625 10.65625 17.480469 10.546875 17.339844 10.40625 C 17.199219 10.265625 17.089844 10.101562 17.011719 9.917969 C 16.9375 9.734375 16.898438 9.542969 16.898438 9.34375 C 16.898438 9.144531 16.9375 8.949219 17.011719 8.765625 C 17.089844 8.582031 17.199219 8.417969 17.339844 8.277344 C 17.480469 8.136719 17.640625 8.027344 17.824219 7.953125 C 18.007812 7.875 18.199219 7.839844 18.398438 7.839844 C 18.597656 7.839844 18.785156 7.875 18.96875 7.953125 C 19.152344 8.027344 19.316406 8.136719 19.457031 8.277344 C 19.597656 8.417969 19.707031 8.582031 19.78125 8.765625 C 19.855469 8.949219 19.894531 9.144531 19.894531 9.34375 Z M 19.894531 9.34375 " fill-opacity="1" fill-rule="nonzero"/><path fill="#f9e4d9" d="M 19.554688 10.792969 C 19.929688 10.519531 20.175781 10.078125 20.175781 9.574219 C 20.175781 8.742188 19.503906 8.070312 18.675781 8.070312 C 17.847656 8.070312 17.179688 8.742188 17.179688 9.574219 C 17.179688 10.40625 17.847656 11.078125 18.675781 11.078125 C 18.777344 11.078125 18.875 11.066406 18.972656 11.050781 L 19.910156 11.714844 Z M 19.554688 10.792969 " fill-opacity="1" fill-rule="nonzero"/><path fill="#403728" d="M 19.980469 11.804688 L 18.964844 11.085938 C 18.867188 11.101562 18.773438 11.113281 18.675781 11.113281 C 17.832031 11.113281 17.144531 10.421875 17.144531 9.574219 C 17.144531 8.726562 17.832031 8.039062 18.675781 8.039062 C 19.519531 8.039062 20.207031 8.726562 20.207031 9.574219 C 20.207031 10.058594 19.976562 10.515625 19.59375 10.804688 Z M 18.980469 11.011719 L 19.835938 11.621094 L 19.511719 10.78125 L 19.53125 10.765625 C 19.914062 10.488281 20.140625 10.042969 20.140625 9.574219 C 20.140625 8.765625 19.484375 8.105469 18.675781 8.105469 C 17.871094 8.105469 17.214844 8.765625 17.214844 9.574219 C 17.214844 10.382812 17.871094 11.042969 18.675781 11.042969 C 18.773438 11.042969 18.871094 11.03125 18.964844 11.015625 Z M 18.980469 11.011719 " fill-opacity="1" fill-rule="nonzero"/><path fill="#d54f56" d="M 18.300781 9.386719 C 18.300781 9.386719 18.5625 9.355469 18.507812 8.953125 C 18.507812 8.953125 18.679688 8.917969 18.703125 9.0625 C 18.726562 9.203125 18.722656 9.335938 18.722656 9.335938 L 19.136719 9.292969 C 19.226562 9.285156 19.304688 9.347656 19.316406 9.4375 C 19.351562 9.65625 19.382812 10.042969 19.210938 10.105469 C 18.96875 10.191406 18.757812 10.179688 18.707031 10.167969 C 18.660156 10.152344 18.464844 10.140625 18.371094 10.152344 Z M 18.300781 9.386719 " fill-opacity="1" fill-rule="nonzero"/><path fill="#403728" d="M 18.351562 10.171875 L 18.125 10.195312 C 18.101562 10.195312 18.085938 10.179688 18.082031 10.160156 L 18.011719 9.425781 C 18.007812 9.402344 18.023438 9.382812 18.046875 9.382812 L 18.273438 9.359375 C 18.292969 9.359375 18.3125 9.375 18.316406 9.394531 L 18.386719 10.128906 C 18.386719 10.152344 18.371094 10.171875 18.351562 10.171875 Z M 18.351562 10.171875 " fill-opacity="1" fill-rule="nonzero"/><path fill="#ffffff" d="M 38.3125 14.394531 C 38.261719 14.394531 38.210938 14.394531 38.160156 14.398438 L 37.339844 13.417969 L 37.421875 14.648438 C 36.953125 14.945312 36.640625 15.472656 36.640625 16.070312 C 36.640625 16.996094 37.390625 17.75 38.3125 17.75 C 39.238281 17.75 39.984375 16.996094 39.984375 16.070312 C 39.984375 15.144531 39.238281 14.394531 38.3125 14.394531 Z M 38.3125 14.394531 " fill-opacity="1" fill-rule="nonzero"/><path fill="#d54f56" d="M 38.160156 14.546875 C 38.109375 14.546875 38.058594 14.546875 38.011719 14.550781 L 37.1875 13.570312 L 37.269531 14.800781 C 36.800781 15.097656 36.488281 15.625 36.488281 16.222656 C 36.488281 17.148438 37.238281 17.902344 38.160156 17.902344 C 39.085938 17.902344 39.832031 17.148438 39.832031 16.222656 C 39.832031 15.296875 39.082031 14.546875 38.160156 14.546875 Z M 38.160156 14.546875 " fill-opacity="1" fill-rule="nonzero"/><path fill="#ffffff" d="M 38.519531 16.074219 L 38.785156 16.074219 L 38.785156 15.871094 L 38.546875 15.871094 L 38.582031 15.578125 L 38.375 15.578125 L 38.339844 15.871094 L 38.070312 15.871094 L 38.105469 15.578125 L 37.902344 15.578125 L 37.863281 15.871094 L 37.597656 15.871094 L 37.597656 16.074219 L 37.839844 16.074219 L 37.800781 16.371094 L 37.539062 16.371094 L 37.539062 16.574219 L 37.777344 16.574219 L 37.773438 16.601562 L 37.742188 16.867188 L 37.945312 16.867188 L 37.984375 16.574219 L 38.253906 16.574219 L 38.214844 16.867188 L 38.421875 16.867188 L 38.460938 16.574219 L 38.722656 16.574219 L 38.722656 16.371094 L 38.484375 16.371094 Z M 38.277344 16.371094 L 38.007812 16.371094 L 38.039062 16.105469 L 38.042969 16.074219 L 38.3125 16.074219 Z M 38.277344 16.371094 " fill-opacity="1" fill-rule="nonzero"/><path fill="#403728" d="M 33.292969 3.625 L 29.667969 3.625 C 29.417969 3.625 29.214844 3.828125 29.214844 4.078125 L 29.214844 9.253906 L 30.363281 8.167969 L 33.292969 8.167969 C 33.542969 8.167969 33.742188 7.964844 33.742188 7.714844 L 33.742188 4.074219 C 33.742188 3.828125 33.542969 3.625 33.292969 3.625 Z M 33.292969 3.625 " fill-opacity="1" fill-rule="nonzero"/><path fill="#d54f56" d="M 32.863281 4.007812 L 29.238281 4.007812 C 28.988281 4.007812 28.785156 4.210938 28.785156 4.460938 L 28.785156 9.640625 L 29.933594 8.554688 L 32.863281 8.554688 C 33.113281 8.554688 33.3125 8.351562 33.3125 8.101562 L 33.3125 4.460938 C 33.3125 4.210938 33.113281 4.007812 32.863281 4.007812 Z M 32.863281 4.007812 " fill-opacity="1" fill-rule="nonzero"/><path fill="#ffffff" d="M 32.238281 6.359375 C 32.238281 6.515625 32.207031 6.667969 32.148438 6.8125 C 32.085938 6.960938 32 7.089844 31.890625 7.199219 C 31.777344 7.3125 31.648438 7.398438 31.503906 7.460938 C 31.359375 7.519531 31.207031 7.550781 31.050781 7.550781 C 30.890625 7.550781 30.742188 7.519531 30.59375 7.460938 C 30.449219 7.398438 30.320312 7.3125 30.210938 7.199219 C 30.097656 7.089844 30.011719 6.960938 29.953125 6.8125 C 29.894531 6.667969 29.863281 6.515625 29.863281 6.359375 C 29.863281 6.199219 29.894531 6.046875 29.953125 5.902344 C 30.011719 5.757812 30.097656 5.628906 30.210938 5.515625 C 30.320312 5.402344 30.449219 5.316406 30.59375 5.257812 C 30.742188 5.195312 30.890625 5.167969 31.050781 5.167969 C 31.207031 5.167969 31.359375 5.195312 31.503906 5.257812 C 31.648438 5.316406 31.777344 5.402344 31.890625 5.515625 C 32 5.628906 32.085938 5.757812 32.148438 5.902344 C 32.207031 6.046875 32.238281 6.199219 32.238281 6.359375 Z M 32.238281 6.359375 " fill-opacity="1" fill-rule="nonzero"/><path fill="#403728" d="M 31.71875 6.195312 C 31.71875 6.292969 31.671875 6.339844 31.574219 6.339844 C 31.480469 6.339844 31.429688 6.292969 31.429688 6.195312 C 31.429688 6.097656 31.480469 6.050781 31.574219 6.050781 C 31.671875 6.050781 31.71875 6.097656 31.71875 6.195312 Z M 31.71875 6.195312 " fill-opacity="1" fill-rule="nonzero"/><path fill="#403728" d="M 30.667969 6.195312 C 30.667969 6.292969 30.621094 6.339844 30.523438 6.339844 C 30.429688 6.339844 30.378906 6.292969 30.378906 6.195312 C 30.378906 6.097656 30.429688 6.050781 30.523438 6.050781 C 30.621094 6.050781 30.667969 6.097656 30.667969 6.195312 Z M 30.667969 6.195312 " fill-opacity="1" fill-rule="nonzero"/><path fill="#403728" d="M 31.050781 7.019531 C 30.90625 7.019531 30.769531 6.941406 30.695312 6.8125 C 30.6875 6.796875 30.691406 6.769531 30.710938 6.761719 C 30.730469 6.75 30.753906 6.753906 30.765625 6.773438 C 30.824219 6.878906 30.933594 6.941406 31.050781 6.941406 C 31.167969 6.941406 31.277344 6.875 31.335938 6.773438 C 31.347656 6.753906 31.371094 6.75 31.390625 6.761719 C 31.410156 6.769531 31.414062 6.796875 31.402344 6.8125 C 31.332031 6.941406 31.195312 7.019531 31.050781 7.019531 Z M 31.050781 7.019531 " fill-opacity="1" fill-rule="nonzero"/><path fill="#ffffff" d="M 22.535156 8.363281 C 22.535156 8.464844 22.5 8.550781 22.429688 8.621094 C 22.359375 8.691406 22.273438 8.726562 22.175781 8.726562 C 22.074219 8.726562 21.988281 8.691406 21.917969 8.621094 C 21.847656 8.550781 21.8125 8.464844 21.8125 8.363281 C 21.8125 8.261719 21.847656 8.179688 21.917969 8.105469 C 21.988281 8.035156 22.074219 8 22.175781 8 C 22.273438 8 22.359375 8.035156 22.429688 8.105469 C 22.5 8.179688 22.535156 8.261719 22.535156 8.363281 Z M 22.535156 8.363281 " fill-opacity="1" fill-rule="nonzero"/><path fill="#ffffff" d="M 37.339844 4.75 C 37.339844 4.847656 37.300781 4.933594 37.230469 5.003906 C 37.160156 5.074219 37.078125 5.109375 36.976562 5.109375 C 36.878906 5.109375 36.792969 5.074219 36.722656 5.003906 C 36.652344 4.933594 36.617188 4.847656 36.617188 4.75 C 36.617188 4.648438 36.652344 4.5625 36.722656 4.492188 C 36.792969 4.421875 36.878906 4.386719 36.976562 4.386719 C 37.078125 4.386719 37.160156 4.421875 37.230469 4.492188 C 37.300781 4.5625 37.339844 4.648438 37.339844 4.75 Z M 37.339844 4.75 " fill-opacity="1" fill-rule="nonzero"/><path fill="#ffffff" d="M 6.136719 25.199219 C 6.136719 25.300781 6.101562 25.386719 6.03125 25.457031 C 5.960938 25.527344 5.875 25.5625 5.773438 25.5625 C 5.675781 25.5625 5.589844 25.527344 5.519531 25.457031 C 5.449219 25.386719 5.414062 25.300781 5.414062 25.199219 C 5.414062 25.101562 5.449219 25.015625 5.519531 24.945312 C 5.589844 24.875 5.675781 24.835938 5.773438 24.835938 C 5.875 24.835938 5.960938 24.875 6.03125 24.945312 C 6.101562 25.015625 6.136719 25.101562 6.136719 25.199219 Z M 6.136719 25.199219 " fill-opacity="1" fill-rule="nonzero"/><path fill="#ffffff" d="M 12.433594 6.257812 C 12.433594 6.355469 12.398438 6.441406 12.328125 6.511719 C 12.257812 6.582031 12.171875 6.617188 12.074219 6.617188 C 11.972656 6.617188 11.886719 6.582031 11.816406 6.511719 C 11.746094 6.441406 11.710938 6.355469 11.710938 6.257812 C 11.710938 6.15625 11.746094 6.070312 11.816406 6 C 11.886719 5.929688 11.972656 5.894531 12.074219 5.894531 C 12.171875 5.894531 12.257812 5.929688 12.328125 6 C 12.398438 6.070312 12.433594 6.15625 12.433594 6.257812 Z M 12.433594 6.257812 " fill-opacity="1" fill-rule="nonzero"/><path fill="#d54f56" d="M 19.777344 2.511719 C 19.777344 2.613281 19.742188 2.699219 19.671875 2.769531 C 19.601562 2.839844 19.515625 2.875 19.417969 2.875 C 19.316406 2.875 19.230469 2.839844 19.160156 2.769531 C 19.089844 2.699219 19.054688 2.613281 19.054688 2.511719 C 19.054688 2.414062 19.089844 2.328125 19.160156 2.257812 C 19.230469 2.1875 19.316406 2.152344 19.417969 2.152344 C 19.515625 2.152344 19.601562 2.1875 19.671875 2.257812 C 19.742188 2.328125 19.777344 2.414062 19.777344 2.511719 Z M 19.777344 2.511719 " fill-opacity="1" fill-rule="nonzero"/><path fill="#d54f56" d="M 4.03125 11.875 C 4.03125 11.996094 3.972656 12.058594 3.851562 12.058594 C 3.730469 12.058594 3.671875 11.996094 3.671875 11.875 C 3.671875 11.753906 3.730469 11.691406 3.851562 11.691406 C 3.972656 11.691406 4.03125 11.753906 4.03125 11.875 Z M 4.03125 11.875 " fill-opacity="1" fill-rule="nonzero"/><path fill="#d54f56" d="M 31.972656 18.382812 C 31.972656 18.503906 31.914062 18.566406 31.792969 18.566406 C 31.671875 18.566406 31.609375 18.503906 31.609375 18.382812 C 31.609375 18.261719 31.671875 18.199219 31.792969 18.199219 C 31.914062 18.199219 31.972656 18.261719 31.972656 18.382812 Z M 31.972656 18.382812 " fill-opacity="1" fill-rule="nonzero"/><path fill="#403728" d="M 38.902344 21.257812 C 38.902344 21.339844 38.871094 21.414062 38.8125 21.472656 C 38.75 21.535156 38.679688 21.5625 38.59375 21.5625 C 38.511719 21.5625 38.4375 21.535156 38.378906 21.472656 C 38.320312 21.414062 38.289062 21.339844 38.289062 21.257812 C 38.289062 21.171875 38.320312 21.101562 38.378906 21.039062 C 38.4375 20.980469 38.511719 20.949219 38.59375 20.949219 C 38.679688 20.949219 38.75 20.980469 38.8125 21.039062 C 38.871094 21.101562 38.902344 21.171875 38.902344 21.257812 Z M 38.902344 21.257812 " fill-opacity="1" fill-rule="nonzero"/><path fill="#403728" d="M 23.59375 7.714844 C 23.59375 7.835938 23.53125 7.898438 23.414062 7.898438 C 23.292969 7.898438 23.230469 7.835938 23.230469 7.714844 C 23.230469 7.59375 23.292969 7.53125 23.414062 7.53125 C 23.53125 7.53125 23.59375 7.59375 23.59375 7.714844 Z M 23.59375 7.714844 " fill-opacity="1" fill-rule="nonzero"/></svg>