<svg xmlns="http://www.w3.org/2000/svg" xmlns:xlink="http://www.w3.org/1999/xlink" width="146" zoomAndPan="magnify" viewBox="0 0 109.5 92.249997" height="123" preserveAspectRatio="xMidYMid meet" version="1.0"><defs><clipPath id="1213b92bc4"><path d="M 24 89 L 88 89 L 88 91.507812 L 24 91.507812 Z M 24 89 " clip-rule="nonzero"/></clipPath><clipPath id="6f2ca9a8b7"><path d="M 53 0.128906 L 58 0.128906 L 58 5 L 53 5 Z M 53 0.128906 " clip-rule="nonzero"/></clipPath><clipPath id="9818eb87a9"><path d="M 102 74 L 108.808594 74 L 108.808594 81 L 102 81 Z M 102 74 " clip-rule="nonzero"/></clipPath><clipPath id="2611115bb0"><path d="M 0.195312 39 L 10 39 L 10 49 L 0.195312 49 Z M 0.195312 39 " clip-rule="nonzero"/></clipPath></defs><path fill="#acaeb0" d="M 6.585938 13.8125 C 6.585938 13.8125 6.867188 17.304688 8.34375 18.011719 C 8.34375 18.011719 8.285156 16.125 6.585938 13.8125 Z M 6.585938 13.8125 " fill-opacity="1" fill-rule="nonzero"/><path fill="#acaeb0" d="M 4.394531 20.433594 C 4.394531 20.433594 6.660156 17.765625 8.269531 18.0625 C 8.269531 18.0625 7.121094 19.558594 4.394531 20.433594 Z M 4.394531 20.433594 " fill-opacity="1" fill-rule="nonzero"/><path fill="#acaeb0" d="M 8.058594 14.289062 C 8.058594 14.289062 8.335938 17.785156 9.8125 18.488281 C 9.8125 18.488281 9.757812 16.601562 8.058594 14.289062 Z M 8.058594 14.289062 " fill-opacity="1" fill-rule="nonzero"/><path fill="#acaeb0" d="M 5.863281 20.910156 C 5.863281 20.910156 8.128906 18.246094 9.742188 18.539062 C 9.742188 18.539062 8.589844 20.035156 5.863281 20.910156 Z M 5.863281 20.910156 " fill-opacity="1" fill-rule="nonzero"/><path fill="#acaeb0" d="M 9.527344 14.765625 C 9.527344 14.765625 9.804688 18.261719 11.285156 18.96875 C 11.285156 18.96875 11.226562 17.078125 9.527344 14.765625 Z M 9.527344 14.765625 " fill-opacity="1" fill-rule="nonzero"/><path fill="#acaeb0" d="M 7.332031 21.386719 C 7.332031 21.386719 9.601562 18.722656 11.210938 19.015625 C 11.210938 19.015625 10.0625 20.511719 7.332031 21.386719 Z M 7.332031 21.386719 " fill-opacity="1" fill-rule="nonzero"/><path fill="#acaeb0" d="M 10.996094 15.246094 C 10.996094 15.246094 11.277344 18.738281 12.753906 19.445312 C 12.753906 19.445312 12.695312 17.554688 10.996094 15.246094 Z M 10.996094 15.246094 " fill-opacity="1" fill-rule="nonzero"/><path fill="#acaeb0" d="M 8.804688 21.863281 C 8.804688 21.863281 11.070312 19.199219 12.679688 19.492188 C 12.679688 19.492188 11.53125 20.992188 8.804688 21.863281 Z M 8.804688 21.863281 " fill-opacity="1" fill-rule="nonzero"/><path fill="#acaeb0" d="M 12.46875 15.722656 C 12.46875 15.722656 12.746094 19.214844 14.222656 19.921875 C 14.222656 19.921875 14.167969 18.035156 12.46875 15.722656 Z M 12.46875 15.722656 " fill-opacity="1" fill-rule="nonzero"/><path fill="#acaeb0" d="M 10.273438 22.34375 C 10.273438 22.34375 12.539062 19.675781 14.148438 19.972656 C 14.148438 19.972656 13 21.464844 10.273438 22.34375 Z M 10.273438 22.34375 " fill-opacity="1" fill-rule="nonzero"/><path fill="#acaeb0" d="M 13.9375 16.199219 C 13.9375 16.199219 14.214844 19.691406 15.695312 20.398438 C 15.695312 20.398438 15.636719 18.511719 13.9375 16.199219 Z M 13.9375 16.199219 " fill-opacity="1" fill-rule="nonzero"/><path fill="#acaeb0" d="M 11.742188 22.820312 C 11.742188 22.820312 14.007812 20.152344 15.621094 20.449219 C 15.621094 20.449219 14.472656 21.945312 11.742188 22.820312 Z M 11.742188 22.820312 " fill-opacity="1" fill-rule="nonzero"/><path fill="#acaeb0" d="M 20.179688 19.6875 C 20.175781 19.699219 20.167969 19.710938 20.15625 19.71875 C 19.679688 20.054688 19.15625 20.296875 18.59375 20.449219 C 18.125 20.574219 17.652344 20.640625 17.167969 20.648438 C 16.328125 20.660156 15.75 20.5 15.726562 20.492188 L 15.722656 20.492188 L 7.667969 17.875 C 7.628906 17.863281 7.617188 17.839844 7.628906 17.804688 C 7.640625 17.765625 7.664062 17.753906 7.703125 17.765625 L 15.761719 20.382812 C 15.785156 20.386719 16.363281 20.546875 17.171875 20.535156 C 17.929688 20.523438 19.050781 20.355469 20.09375 19.625 C 20.113281 19.609375 20.136719 19.609375 20.160156 19.625 C 20.179688 19.640625 20.1875 19.664062 20.179688 19.6875 Z M 20.179688 19.6875 " fill-opacity="1" fill-rule="nonzero"/><path fill="#acaeb0" d="M 3.757812 16.164062 C 3.757812 16.164062 6.414062 18.4375 7.960938 17.890625 C 7.960938 17.890625 6.589844 16.597656 3.757812 16.164062 Z M 3.757812 16.164062 " fill-opacity="1" fill-rule="nonzero"/><path fill="#acaeb0" d="M 13.3125 7.976562 C 13.3125 7.976562 12.4375 10.480469 13.242188 11.425781 C 13.242188 11.425781 13.78125 10.101562 13.3125 7.976562 Z M 13.3125 7.976562 " fill-opacity="1" fill-rule="nonzero"/><path fill="#acaeb0" d="M 9.769531 11.882812 C 9.769531 11.882812 12.152344 10.734375 13.179688 11.433594 C 13.179688 11.433594 11.925781 12.117188 9.769531 11.882812 Z M 9.769531 11.882812 " fill-opacity="1" fill-rule="nonzero"/><path fill="#acaeb0" d="M 14.183594 8.757812 C 14.183594 8.757812 13.308594 11.261719 14.117188 12.207031 C 14.117188 12.207031 14.652344 10.882812 14.183594 8.757812 Z M 14.183594 8.757812 " fill-opacity="1" fill-rule="nonzero"/><path fill="#acaeb0" d="M 10.640625 12.664062 C 10.640625 12.664062 13.023438 11.515625 14.050781 12.21875 C 14.050781 12.21875 12.796875 12.898438 10.640625 12.664062 Z M 10.640625 12.664062 " fill-opacity="1" fill-rule="nonzero"/><path fill="#acaeb0" d="M 15.054688 9.542969 C 15.054688 9.542969 14.179688 12.046875 14.988281 12.992188 C 14.988281 12.988281 15.523438 11.664062 15.054688 9.542969 Z M 15.054688 9.542969 " fill-opacity="1" fill-rule="nonzero"/><path fill="#acaeb0" d="M 11.511719 13.449219 C 11.511719 13.449219 13.894531 12.300781 14.921875 13 C 14.921875 13 13.667969 13.683594 11.511719 13.449219 Z M 11.511719 13.449219 " fill-opacity="1" fill-rule="nonzero"/><path fill="#acaeb0" d="M 15.925781 10.324219 C 15.925781 10.324219 15.050781 12.828125 15.859375 13.773438 C 15.859375 13.773438 16.394531 12.449219 15.925781 10.324219 Z M 15.925781 10.324219 " fill-opacity="1" fill-rule="nonzero"/><path fill="#acaeb0" d="M 12.382812 14.230469 C 12.382812 14.230469 14.769531 13.082031 15.792969 13.78125 C 15.792969 13.785156 14.539062 14.464844 12.382812 14.230469 Z M 12.382812 14.230469 " fill-opacity="1" fill-rule="nonzero"/><path fill="#acaeb0" d="M 16.796875 11.105469 C 16.796875 11.105469 15.921875 13.609375 16.730469 14.554688 C 16.730469 14.554688 17.265625 13.230469 16.796875 11.105469 Z M 16.796875 11.105469 " fill-opacity="1" fill-rule="nonzero"/><path fill="#acaeb0" d="M 13.253906 15.015625 C 13.253906 15.015625 15.640625 13.867188 16.664062 14.566406 C 16.664062 14.566406 15.410156 15.246094 13.253906 15.015625 Z M 13.253906 15.015625 " fill-opacity="1" fill-rule="nonzero"/><path fill="#acaeb0" d="M 17.667969 11.890625 C 17.667969 11.890625 16.792969 14.394531 17.601562 15.335938 C 17.601562 15.335938 18.136719 14.011719 17.667969 11.890625 Z M 17.667969 11.890625 " fill-opacity="1" fill-rule="nonzero"/><path fill="#acaeb0" d="M 14.125 15.796875 C 14.125 15.796875 16.511719 14.648438 17.535156 15.347656 C 17.535156 15.347656 16.28125 16.03125 14.125 15.796875 Z M 14.125 15.796875 " fill-opacity="1" fill-rule="nonzero"/><path fill="#acaeb0" d="M 20.921875 16.226562 C 20.914062 16.234375 20.90625 16.238281 20.898438 16.242188 C 20.464844 16.324219 20.03125 16.335938 19.59375 16.265625 C 19.230469 16.210938 18.882812 16.109375 18.546875 15.964844 C 17.960938 15.714844 17.609375 15.425781 17.597656 15.414062 L 17.59375 15.414062 L 12.816406 11.121094 C 12.796875 11.101562 12.796875 11.082031 12.8125 11.058594 C 12.832031 11.039062 12.855469 11.035156 12.875 11.054688 L 17.652344 15.347656 C 17.667969 15.359375 18.019531 15.644531 18.582031 15.886719 C 19.109375 16.113281 19.9375 16.339844 20.882812 16.15625 C 20.902344 16.152344 20.917969 16.15625 20.925781 16.175781 C 20.9375 16.195312 20.9375 16.210938 20.921875 16.226562 Z M 20.921875 16.226562 " fill-opacity="1" fill-rule="nonzero"/><path fill="#acaeb0" d="M 10.632812 8.734375 C 10.632812 8.734375 11.78125 11.125 13.015625 11.21875 C 13.015625 11.21875 12.460938 9.902344 10.632812 8.734375 Z M 10.632812 8.734375 " fill-opacity="1" fill-rule="nonzero"/><path fill="#eef1f3" d="M 17.445312 78.492188 C 13.679688 72.648438 13.640625 64.609375 17.34375 58.730469 C 18.601562 56.734375 20.253906 54.953125 21.039062 52.730469 C 22.613281 48.261719 20.3125 43.484375 18.621094 39.0625 C 16.933594 34.652344 15.808594 29.949219 16.089844 25.238281 C 16.367188 20.523438 18.152344 15.789062 21.589844 12.558594 C 25.023438 9.332031 30.210938 7.851562 34.648438 9.425781 C 38.6875 10.859375 41.679688 14.507812 45.769531 15.792969 C 49.039062 16.816406 52.625 16.179688 55.800781 14.894531 C 58.972656 13.605469 61.855469 11.699219 64.863281 10.0625 C 72.8125 5.746094 81.765625 3.3125 90.796875 3.011719 C 94.289062 2.898438 98.429688 3.472656 100.070312 6.566406 C 101.265625 8.8125 100.644531 11.601562 99.554688 13.898438 C 98.464844 16.195312 96.933594 18.300781 96.25 20.75 C 94.617188 26.609375 98.148438 32.484375 100.535156 38.078125 C 104.390625 47.132812 105.359375 57.601562 102.144531 66.902344 C 98.933594 76.207031 91.273438 84.097656 81.765625 86.558594 C 77.046875 87.777344 71.765625 87.59375 67.613281 85.03125 C 64.371094 83.027344 62.027344 79.734375 58.652344 77.960938 C 52.355469 74.660156 44.609375 77.425781 39.226562 81.28125 C 37.253906 82.691406 35.75 85.011719 33.589844 86.117188 C 31.128906 87.382812 28.015625 86.355469 25.644531 85.335938 C 22.332031 83.90625 19.40625 81.539062 17.445312 78.492188 Z M 17.445312 78.492188 " fill-opacity="1" fill-rule="nonzero"/><g clip-path="url(#1213b92bc4)"><path fill="#e4e4e6" d="M 87.902344 90.644531 C 87.902344 90.675781 87.851562 90.710938 87.75 90.742188 C 87.648438 90.773438 87.5 90.804688 87.296875 90.835938 C 87.09375 90.871094 86.84375 90.902344 86.542969 90.933594 C 86.242188 90.960938 85.894531 90.992188 85.5 91.023438 C 85.101562 91.054688 84.660156 91.082031 84.171875 91.109375 C 83.6875 91.140625 83.15625 91.167969 82.578125 91.195312 C 82.003906 91.21875 81.390625 91.246094 80.734375 91.273438 C 80.078125 91.296875 79.382812 91.320312 78.652344 91.34375 C 77.921875 91.367188 77.15625 91.386719 76.355469 91.410156 C 75.554688 91.429688 74.726562 91.449219 73.863281 91.464844 C 73.003906 91.484375 72.117188 91.5 71.207031 91.515625 C 70.292969 91.53125 69.359375 91.546875 68.402344 91.558594 C 67.449219 91.570312 66.476562 91.582031 65.484375 91.589844 C 64.496094 91.597656 63.492188 91.609375 62.476562 91.613281 C 61.464844 91.621094 60.441406 91.625 59.410156 91.628906 C 58.382812 91.632812 57.351562 91.632812 56.316406 91.632812 C 55.28125 91.632812 54.25 91.632812 53.21875 91.628906 C 52.191406 91.625 51.167969 91.621094 50.152344 91.613281 C 49.136719 91.609375 48.136719 91.597656 47.144531 91.589844 C 46.15625 91.582031 45.183594 91.570312 44.226562 91.558594 C 43.273438 91.546875 42.335938 91.53125 41.425781 91.515625 C 40.511719 91.5 39.625 91.484375 38.765625 91.464844 C 37.90625 91.449219 37.074219 91.429688 36.277344 91.410156 C 35.476562 91.386719 34.710938 91.367188 33.980469 91.34375 C 33.246094 91.320312 32.554688 91.296875 31.898438 91.273438 C 31.242188 91.246094 30.625 91.21875 30.050781 91.195312 C 29.476562 91.167969 28.945312 91.140625 28.457031 91.109375 C 27.96875 91.082031 27.527344 91.054688 27.132812 91.023438 C 26.734375 90.992188 26.386719 90.960938 26.085938 90.933594 C 25.789062 90.902344 25.535156 90.871094 25.335938 90.835938 C 25.132812 90.804688 24.980469 90.773438 24.878906 90.742188 C 24.777344 90.710938 24.726562 90.675781 24.726562 90.644531 C 24.726562 90.613281 24.777344 90.582031 24.878906 90.546875 C 24.980469 90.515625 25.132812 90.484375 25.335938 90.453125 C 25.535156 90.421875 25.789062 90.390625 26.085938 90.359375 C 26.386719 90.328125 26.734375 90.296875 27.132812 90.265625 C 27.527344 90.238281 27.96875 90.207031 28.457031 90.179688 C 28.945312 90.152344 29.476562 90.125 30.050781 90.097656 C 30.625 90.070312 31.242188 90.042969 31.898438 90.019531 C 32.554688 89.992188 33.246094 89.96875 33.980469 89.945312 C 34.710938 89.921875 35.476562 89.902344 36.277344 89.882812 C 37.074219 89.859375 37.90625 89.839844 38.765625 89.824219 C 39.625 89.804688 40.511719 89.789062 41.425781 89.773438 C 42.335938 89.757812 43.273438 89.746094 44.226562 89.734375 C 45.183594 89.71875 46.15625 89.710938 47.144531 89.699219 C 48.136719 89.691406 49.136719 89.683594 50.152344 89.675781 C 51.167969 89.671875 52.191406 89.664062 53.21875 89.660156 C 54.25 89.660156 55.28125 89.65625 56.316406 89.65625 C 57.351562 89.65625 58.382812 89.660156 59.410156 89.660156 C 60.441406 89.664062 61.464844 89.671875 62.476562 89.675781 C 63.492188 89.683594 64.496094 89.691406 65.484375 89.699219 C 66.476562 89.710938 67.449219 89.71875 68.402344 89.734375 C 69.359375 89.746094 70.292969 89.757812 71.207031 89.773438 C 72.117188 89.789062 73.003906 89.804688 73.863281 89.824219 C 74.726562 89.839844 75.554688 89.859375 76.355469 89.882812 C 77.15625 89.902344 77.921875 89.921875 78.652344 89.945312 C 79.382812 89.96875 80.078125 89.992188 80.734375 90.019531 C 81.390625 90.042969 82.003906 90.070312 82.578125 90.097656 C 83.15625 90.125 83.6875 90.152344 84.171875 90.179688 C 84.660156 90.207031 85.101562 90.238281 85.5 90.265625 C 85.894531 90.296875 86.242188 90.328125 86.542969 90.359375 C 86.84375 90.390625 87.09375 90.421875 87.296875 90.453125 C 87.5 90.484375 87.648438 90.515625 87.75 90.546875 C 87.851562 90.582031 87.902344 90.613281 87.902344 90.644531 Z M 87.902344 90.644531 " fill-opacity="1" fill-rule="nonzero"/></g><path fill="#ca8f7a" d="M 63.808594 65.882812 C 63.898438 65.914062 63.980469 65.902344 64.058594 65.851562 C 64.085938 65.835938 64.113281 65.824219 64.140625 65.8125 C 64.386719 65.691406 64.695312 65.921875 64.886719 65.921875 C 65.191406 65.925781 65.648438 65.824219 65.757812 65.796875 C 65.773438 65.792969 65.789062 65.789062 65.804688 65.78125 C 66.152344 65.636719 66.15625 65.730469 66.078125 65.859375 C 65.976562 66.019531 65.835938 66.121094 65.652344 66.167969 C 65.484375 66.214844 65.339844 66.296875 65.210938 66.414062 C 65.707031 66.695312 66.160156 66.867188 66.578125 66.953125 C 66.648438 66.96875 66.714844 66.992188 66.777344 67.03125 C 67.019531 67.179688 66.863281 67.300781 66.863281 67.300781 C 67.21875 67.636719 66.679688 67.757812 66.679688 67.757812 C 66.90625 68.019531 66.335938 67.898438 66.335938 67.898438 C 66.859375 68.570312 63.5 66.988281 63.5 66.988281 C 62.542969 66.910156 61.402344 66.59375 60.429688 66.265625 L 60.90625 64.757812 C 61.984375 65.246094 63.347656 65.722656 63.808594 65.882812 Z M 63.808594 65.882812 " fill-opacity="1" fill-rule="nonzero"/><path fill="#ca8f7a" d="M 50.78125 56.640625 C 50.71875 56.570312 50.695312 56.488281 50.714844 56.398438 C 50.71875 56.367188 50.722656 56.335938 50.722656 56.304688 C 50.746094 56.03125 50.414062 55.832031 50.34375 55.652344 C 50.226562 55.367188 50.152344 54.902344 50.132812 54.792969 C 50.132812 54.777344 50.128906 54.761719 50.128906 54.746094 C 50.136719 54.367188 50.046875 54.394531 49.957031 54.519531 C 49.847656 54.671875 49.804688 54.84375 49.832031 55.03125 C 49.847656 55.203125 49.828125 55.371094 49.765625 55.53125 C 49.324219 55.171875 48.992188 54.816406 48.761719 54.460938 C 48.71875 54.398438 48.671875 54.34375 48.613281 54.300781 C 48.386719 54.132812 48.332031 54.320312 48.332031 54.320312 C 47.890625 54.117188 47.980469 54.664062 47.980469 54.664062 C 47.648438 54.550781 47.972656 55.035156 47.972656 55.035156 C 47.15625 54.796875 49.871094 57.339844 49.871094 57.339844 C 50.296875 58.199219 51.015625 59.144531 51.679688 59.929688 L 52.894531 58.921875 C 52.046875 58.101562 51.097656 57.011719 50.78125 56.640625 Z M 50.78125 56.640625 " fill-opacity="1" fill-rule="nonzero"/><path fill="#ca8f7a" d="M 53.4375 81.375 L 53.109375 80.644531 L 53.960938 80.257812 L 54.292969 80.992188 Z M 53.4375 81.375 " fill-opacity="1" fill-rule="nonzero"/><path fill="#3c3e48" d="M 53.804688 81.601562 C 53.503906 81.941406 53.460938 82.664062 53.410156 83.375 C 53.367188 83.574219 53.089844 83.589844 53.027344 83.398438 L 52.144531 80.820312 C 52.105469 80.703125 52.144531 80.625 52.261719 80.585938 L 53.285156 80.261719 C 53.332031 80.246094 53.375 80.257812 53.410156 80.289062 C 53.441406 80.324219 53.453125 80.367188 53.441406 80.414062 C 53.367188 80.675781 53.335938 81.113281 53.765625 81.480469 C 53.800781 81.511719 53.8125 81.550781 53.804688 81.601562 Z M 53.804688 81.601562 " fill-opacity="1" fill-rule="nonzero"/><path fill="#ca8f7a" d="M 54.398438 89.039062 L 53.6875 88.667969 L 54.125 87.835938 L 54.832031 88.210938 Z M 54.398438 89.039062 " fill-opacity="1" fill-rule="nonzero"/><path fill="#3c3e48" d="M 54.804688 88.992188 C 54.777344 89.445312 55.1875 90.039062 55.585938 90.632812 C 55.675781 90.816406 55.464844 91 55.296875 90.890625 L 53.019531 89.402344 C 52.914062 89.332031 52.898438 89.246094 52.96875 89.144531 L 53.578125 88.257812 C 53.605469 88.214844 53.644531 88.199219 53.691406 88.203125 C 53.738281 88.210938 53.773438 88.234375 53.792969 88.28125 C 53.894531 88.53125 54.140625 88.898438 54.703125 88.921875 C 54.75 88.925781 54.785156 88.949219 54.804688 88.992188 Z M 54.804688 88.992188 " fill-opacity="1" fill-rule="nonzero"/><path fill="#9ab0bc" d="M 64.152344 79.601562 C 63.683594 70.363281 61.082031 69.550781 61.082031 69.550781 L 58.351562 70.085938 C 58.230469 73.183594 60.546875 78.011719 60.546875 78.011719 C 58.257812 77.859375 54.835938 79.363281 53.902344 79.800781 C 53.738281 79.878906 53.683594 80 53.734375 80.175781 L 54.121094 81.523438 C 54.167969 81.683594 54.277344 81.761719 54.445312 81.75 C 60.722656 81.351562 62.953125 80.695312 63.742188 80.304688 C 64.03125 80.160156 64.171875 79.925781 64.152344 79.601562 Z M 64.152344 79.601562 " fill-opacity="1" fill-rule="nonzero"/><path fill="#a0b8c4" d="M 62.078125 69.847656 L 56.433594 71.160156 C 56.433594 71.160156 54.773438 73.246094 56.078125 77.117188 C 56.078125 77.117188 56.789062 79.558594 56.078125 81.527344 C 56.078125 81.527344 53.90625 84.164062 53.710938 87.695312 C 53.703125 87.832031 53.761719 87.929688 53.882812 87.992188 L 54.675781 88.390625 C 54.820312 88.460938 54.945312 88.4375 55.050781 88.316406 C 55.753906 87.523438 58.570312 84.28125 59.753906 81.898438 C 59.796875 81.808594 59.824219 81.71875 59.828125 81.621094 C 59.902344 80.621094 60.316406 74.707031 59.9375 73.78125 C 59.941406 73.78125 62.375 72.230469 62.078125 69.847656 Z M 62.078125 69.847656 " fill-opacity="1" fill-rule="nonzero"/><path fill="#d95357" d="M 62.359375 70.929688 C 61.816406 70.847656 59.597656 70.605469 57.941406 71.851562 C 57.941406 71.851562 57.019531 72.570312 55.707031 72.554688 C 55.664062 72.550781 55.636719 72.53125 55.625 72.496094 C 55.519531 72.191406 55.0625 70.742188 55.472656 69.496094 C 55.621094 69.046875 55.667969 68.585938 55.613281 68.117188 C 55.480469 66.992188 55.113281 65.066406 54.09375 63.757812 C 53.902344 63.515625 53.722656 63.265625 53.542969 63.011719 L 50.894531 59.285156 C 50.835938 59.207031 50.816406 59.121094 50.828125 59.023438 C 50.839844 58.929688 50.882812 58.847656 50.953125 58.785156 L 51.8125 58.054688 C 51.964844 57.921875 52.121094 57.917969 52.28125 58.042969 L 55.269531 60.390625 C 55.378906 60.476562 55.503906 60.515625 55.644531 60.503906 C 55.867188 60.492188 56.261719 60.472656 56.742188 60.484375 C 57.578125 60.503906 58.679688 60.617188 59.65625 60.984375 C 60.722656 61.386719 61.640625 62.097656 61.894531 63.332031 C 61.925781 63.5 61.941406 63.667969 61.9375 63.839844 C 61.925781 64.628906 61.894531 67.699219 62.101562 68.976562 L 62.460938 70.824219 C 62.476562 70.910156 62.441406 70.941406 62.359375 70.929688 Z M 62.359375 70.929688 " fill-opacity="1" fill-rule="nonzero"/><path fill="#c08874" d="M 59.082031 61.050781 L 57.414062 60.984375 C 57.628906 60.484375 57.734375 59.964844 57.738281 59.421875 L 58.878906 59.464844 C 58.828125 60.152344 58.890625 60.6875 59.082031 61.050781 Z M 59.082031 61.050781 " fill-opacity="1" fill-rule="nonzero"/><path fill="#2a2a3b" d="M 57.085938 56.457031 C 57.464844 56.390625 57.796875 56.167969 58.144531 56.003906 C 58.492188 55.835938 58.910156 55.726562 59.257812 55.894531 C 59.5625 56.039062 59.746094 56.371094 59.800781 56.707031 C 59.878906 57.1875 59.835938 58.128906 59.425781 58.472656 C 59.089844 58.753906 58.402344 58.773438 57.976562 58.761719 C 57.175781 58.734375 56.578125 58.117188 56.210938 57.4375 C 55.800781 56.671875 56.519531 56.554688 57.085938 56.457031 Z M 57.085938 56.457031 " fill-opacity="1" fill-rule="nonzero"/><path fill="#ca8f7a" d="M 59.4375 58.886719 C 59.421875 58.949219 59.40625 59.011719 59.386719 59.070312 C 59.367188 59.125 59.351562 59.179688 59.328125 59.234375 C 59.261719 59.410156 59.179688 59.578125 59.082031 59.738281 C 58.902344 60.027344 58.652344 60.417969 58.265625 60.382812 C 57.875 60.347656 57.472656 60.007812 57.253906 59.699219 C 57.160156 59.5625 57.082031 59.414062 57.019531 59.257812 C 56.996094 59.199219 56.976562 59.140625 56.960938 59.085938 C 56.941406 59.019531 56.921875 58.957031 56.90625 58.894531 C 56.875 58.753906 56.851562 58.617188 56.839844 58.476562 C 56.792969 58.039062 56.832031 57.570312 57.085938 57.210938 C 57.339844 56.855469 57.855469 56.660156 58.234375 56.878906 C 58.375 56.960938 58.5 57.097656 58.667969 57.101562 C 58.851562 57.101562 59.023438 56.925781 59.195312 56.988281 C 59.3125 57.027344 59.367188 57.15625 59.402344 57.269531 C 59.570312 57.792969 59.574219 58.359375 59.4375 58.886719 Z M 59.4375 58.886719 " fill-opacity="1" fill-rule="nonzero"/><path fill="#ca8f7a" d="M 57.042969 58.441406 C 57.074219 58.542969 57.078125 58.636719 57.058594 58.722656 C 57.039062 58.808594 57 58.859375 56.941406 58.878906 C 56.882812 58.894531 56.820312 58.875 56.757812 58.816406 C 56.691406 58.757812 56.644531 58.675781 56.613281 58.570312 C 56.582031 58.46875 56.578125 58.375 56.597656 58.289062 C 56.613281 58.203125 56.65625 58.152344 56.714844 58.132812 C 56.773438 58.117188 56.835938 58.136719 56.898438 58.195312 C 56.960938 58.257812 57.011719 58.335938 57.042969 58.441406 Z M 57.042969 58.441406 " fill-opacity="1" fill-rule="nonzero"/><path fill="#ca8f7a" d="M 59.761719 58.5625 C 59.710938 58.769531 59.570312 58.917969 59.453125 58.886719 C 59.332031 58.859375 59.277344 58.664062 59.328125 58.457031 C 59.375 58.246094 59.515625 58.101562 59.636719 58.132812 C 59.753906 58.160156 59.8125 58.351562 59.761719 58.5625 Z M 59.761719 58.5625 " fill-opacity="1" fill-rule="nonzero"/><path fill="#2a2a3b" d="M 59.386719 59.070312 C 59.40625 59.011719 59.421875 58.949219 59.4375 58.886719 C 59.3125 58.929688 59.203125 59 59.113281 59.101562 C 59.101562 59.097656 59.089844 59.09375 59.078125 59.085938 C 58.339844 58.722656 57.625 58.960938 57.328125 59.09375 C 57.308594 59.101562 57.289062 59.097656 57.273438 59.082031 C 57.167969 58.984375 57.046875 58.921875 56.90625 58.894531 C 56.921875 58.957031 56.941406 59.019531 56.960938 59.085938 C 56.96875 59.113281 56.976562 59.140625 56.988281 59.167969 C 56.992188 59.179688 56.996094 59.191406 57 59.203125 C 57.007812 59.21875 57.011719 59.234375 57.019531 59.25 L 57.019531 59.257812 C 57.082031 59.414062 57.160156 59.5625 57.253906 59.699219 C 57.472656 60.007812 57.875 60.347656 58.265625 60.382812 C 58.652344 60.417969 58.902344 60.027344 59.082031 59.738281 C 59.179688 59.578125 59.261719 59.410156 59.328125 59.234375 C 59.332031 59.222656 59.335938 59.210938 59.339844 59.199219 C 59.34375 59.1875 59.351562 59.171875 59.355469 59.15625 C 59.367188 59.128906 59.375 59.101562 59.386719 59.070312 Z M 59.386719 59.070312 " fill-opacity="1" fill-rule="nonzero"/><path fill="#c08874" d="M 59.65625 60.984375 C 59.65625 61.015625 59.652344 61.042969 59.644531 61.070312 C 59.550781 61.46875 58.828125 61.636719 58.03125 61.445312 C 57.296875 61.273438 56.753906 60.859375 56.742188 60.484375 C 57.574219 60.503906 58.679688 60.617188 59.65625 60.984375 Z M 59.65625 60.984375 " fill-opacity="1" fill-rule="nonzero"/><g clip-path="url(#6f2ca9a8b7)"><path fill="#c3c6c7" d="M 55.445312 0.128906 C 55.125 0.128906 54.820312 0.1875 54.523438 0.3125 C 54.226562 0.433594 53.964844 0.609375 53.742188 0.835938 C 53.515625 1.0625 53.339844 1.324219 53.21875 1.621094 C 53.09375 1.917969 53.035156 2.226562 53.035156 2.546875 C 53.035156 2.867188 53.09375 3.175781 53.21875 3.472656 C 53.339844 3.769531 53.515625 4.03125 53.742188 4.257812 C 53.964844 4.484375 54.226562 4.660156 54.523438 4.78125 C 54.820312 4.90625 55.125 4.964844 55.445312 4.964844 C 55.765625 4.964844 56.074219 4.90625 56.371094 4.78125 C 56.664062 4.660156 56.925781 4.484375 57.152344 4.257812 C 57.378906 4.03125 57.550781 3.769531 57.675781 3.472656 C 57.796875 3.175781 57.859375 2.867188 57.859375 2.546875 C 57.859375 2.226562 57.796875 1.917969 57.675781 1.621094 C 57.550781 1.324219 57.378906 1.0625 57.152344 0.835938 C 56.925781 0.609375 56.664062 0.433594 56.371094 0.3125 C 56.074219 0.1875 55.765625 0.128906 55.445312 0.128906 Z M 55.445312 4.816406 C 55.144531 4.816406 54.859375 4.757812 54.582031 4.644531 C 54.304688 4.527344 54.058594 4.363281 53.847656 4.152344 C 53.632812 3.941406 53.472656 3.695312 53.355469 3.417969 C 53.242188 3.136719 53.183594 2.847656 53.183594 2.546875 C 53.183594 2.246094 53.242188 1.957031 53.355469 1.679688 C 53.472656 1.402344 53.632812 1.15625 53.847656 0.941406 C 54.058594 0.730469 54.304688 0.566406 54.582031 0.453125 C 54.859375 0.335938 55.144531 0.277344 55.445312 0.277344 C 55.746094 0.277344 56.035156 0.335938 56.3125 0.453125 C 56.589844 0.566406 56.832031 0.730469 57.046875 0.941406 C 57.257812 1.15625 57.421875 1.402344 57.535156 1.679688 C 57.652344 1.957031 57.707031 2.246094 57.707031 2.546875 C 57.707031 2.847656 57.652344 3.136719 57.535156 3.417969 C 57.421875 3.695312 57.257812 3.941406 57.046875 4.152344 C 56.832031 4.363281 56.589844 4.527344 56.3125 4.644531 C 56.035156 4.757812 55.746094 4.816406 55.445312 4.816406 Z M 55.445312 4.816406 " fill-opacity="1" fill-rule="nonzero"/></g><g clip-path="url(#9818eb87a9)"><path fill="#c3c6c7" d="M 105.894531 74.992188 C 105.507812 74.992188 105.136719 75.066406 104.78125 75.214844 C 104.425781 75.359375 104.113281 75.570312 103.839844 75.84375 C 103.566406 76.117188 103.359375 76.433594 103.210938 76.789062 C 103.0625 77.144531 102.988281 77.519531 102.988281 77.902344 C 102.988281 78.289062 103.0625 78.660156 103.210938 79.019531 C 103.359375 79.375 103.566406 79.691406 103.839844 79.964844 C 104.113281 80.238281 104.425781 80.445312 104.78125 80.59375 C 105.136719 80.742188 105.507812 80.816406 105.894531 80.816406 C 106.277344 80.816406 106.648438 80.742188 107.003906 80.59375 C 107.359375 80.445312 107.675781 80.238281 107.945312 79.964844 C 108.21875 79.691406 108.429688 79.375 108.574219 79.019531 C 108.722656 78.660156 108.796875 78.289062 108.796875 77.902344 C 108.796875 77.519531 108.722656 77.144531 108.574219 76.789062 C 108.429688 76.433594 108.21875 76.117188 107.945312 75.84375 C 107.675781 75.570312 107.359375 75.359375 107.003906 75.214844 C 106.648438 75.066406 106.277344 74.992188 105.894531 74.992188 Z M 105.894531 80.632812 C 105.53125 80.632812 105.183594 80.566406 104.851562 80.425781 C 104.519531 80.289062 104.222656 80.089844 103.96875 79.835938 C 103.714844 79.578125 103.515625 79.285156 103.378906 78.949219 C 103.238281 78.613281 103.171875 78.265625 103.171875 77.902344 C 103.171875 77.542969 103.238281 77.195312 103.378906 76.859375 C 103.515625 76.523438 103.714844 76.230469 103.96875 75.972656 C 104.222656 75.71875 104.519531 75.519531 104.851562 75.382812 C 105.183594 75.242188 105.53125 75.171875 105.894531 75.171875 C 106.253906 75.171875 106.601562 75.242188 106.933594 75.382812 C 107.269531 75.519531 107.5625 75.71875 107.816406 75.972656 C 108.074219 76.230469 108.269531 76.523438 108.40625 76.859375 C 108.546875 77.195312 108.617188 77.542969 108.617188 77.902344 C 108.617188 78.265625 108.546875 78.613281 108.410156 78.949219 C 108.269531 79.285156 108.074219 79.578125 107.816406 79.835938 C 107.5625 80.089844 107.269531 80.289062 106.933594 80.425781 C 106.601562 80.566406 106.253906 80.632812 105.894531 80.632812 Z M 105.894531 80.632812 " fill-opacity="1" fill-rule="nonzero"/></g><g clip-path="url(#2611115bb0)"><path fill="#c3c6c7" d="M 4.691406 39.679688 C 2.214844 39.679688 0.207031 41.691406 0.207031 44.175781 C 0.207031 46.660156 2.214844 48.671875 4.691406 48.671875 C 7.164062 48.671875 9.171875 46.660156 9.171875 44.175781 C 9.171875 41.695312 7.164062 39.679688 4.691406 39.679688 Z M 4.691406 48.390625 C 2.367188 48.390625 0.488281 46.503906 0.488281 44.175781 C 0.488281 41.847656 2.367188 39.960938 4.691406 39.960938 C 7.011719 39.960938 8.890625 41.847656 8.890625 44.175781 C 8.890625 46.507812 7.011719 48.390625 4.691406 48.390625 Z M 4.691406 48.390625 " fill-opacity="1" fill-rule="nonzero"/></g><path fill="#ca8f7a" d="M 47.832031 53.585938 L 46.304688 53.714844 C 46.15625 53.722656 46.035156 53.785156 45.933594 53.890625 C 45.828125 53.996094 45.777344 54.121094 45.769531 54.269531 C 45.757812 54.613281 45.691406 54.972656 45.664062 55.023438 C 45.011719 56.308594 44.59375 57.84375 44.457031 58.367188 C 44.425781 58.488281 44.371094 58.601562 44.292969 58.699219 C 43.535156 59.667969 42.414062 61.34375 42.414062 61.34375 L 43.804688 62.476562 C 44.804688 61.605469 45.757812 59.273438 45.757812 59.273438 C 46.023438 58.675781 46.261719 55.832031 46.644531 54.523438 C 46.710938 54.300781 47.5625 53.875 47.867188 53.707031 C 47.902344 53.691406 47.914062 53.667969 47.902344 53.632812 C 47.890625 53.59375 47.867188 53.582031 47.832031 53.585938 Z M 47.832031 53.585938 " fill-opacity="1" fill-rule="nonzero"/><path fill="#32364c" d="M 40.730469 57.75 C 40.273438 57.632812 39.808594 57.851562 39.421875 58.117188 C 39.039062 58.386719 38.6875 58.71875 38.25 58.878906 C 37.882812 59.015625 37.425781 59.054688 37.222656 59.402344 C 36.921875 59.917969 37.453125 60.601562 37.3125 61.191406 C 37.15625 61.84375 36.273438 62.050781 36.105469 62.703125 C 35.867188 63.625 37.257812 64.359375 37.117188 65.304688 C 37.066406 65.648438 36.820312 65.914062 36.695312 66.230469 C 36.46875 66.8125 36.671875 67.515625 37.070312 68.003906 C 37.464844 68.492188 38.023438 68.804688 38.578125 69.070312 C 39.28125 69.402344 40.113281 69.671875 40.777344 69.300781 C 41.550781 68.875 41.722656 67.804688 41.726562 66.882812 C 41.726562 65.371094 41.511719 63.890625 41.082031 62.441406 C 40.914062 61.882812 40.714844 61.289062 40.878906 60.738281 C 40.980469 60.382812 41.222656 60.097656 41.386719 59.769531 C 41.691406 59.15625 41.492188 57.941406 40.730469 57.75 Z M 40.730469 57.75 " fill-opacity="1" fill-rule="nonzero"/><path fill="#ca8f7a" d="M 37.601562 75.984375 C 37.601562 76.023438 37.484375 76.394531 37.40625 76.628906 C 37.363281 76.761719 37.277344 76.808594 37.144531 76.765625 C 36.386719 76.53125 33.613281 75.632812 31.261719 74.390625 L 30.738281 75.035156 C 30.738281 75.035156 34.097656 78.433594 37.242188 79.679688 C 37.738281 79.871094 38.199219 79.8125 38.625 79.5 C 39.3125 79 40.203125 78.230469 40.371094 77.027344 Z M 37.601562 75.984375 " fill-opacity="1" fill-rule="nonzero"/><path fill="#ca8f7a" d="M 44.523438 76.746094 L 41.335938 77.089844 C 41.335938 77.089844 40.96875 78.285156 41.285156 80.082031 C 41.316406 80.238281 41.308594 80.394531 41.265625 80.550781 C 41.054688 81.3125 40.488281 84.117188 41.394531 90.230469 L 42.136719 90.230469 C 42.136719 90.230469 43.285156 82.21875 43.699219 80.449219 C 43.730469 80.316406 43.773438 80.1875 43.828125 80.066406 C 44.039062 79.605469 44.660156 78.105469 44.523438 76.746094 Z M 44.523438 76.746094 " fill-opacity="1" fill-rule="nonzero"/><path fill="#d95152" d="M 45.085938 67.953125 L 40.011719 68.394531 C 40.011719 68.394531 37.105469 71.1875 37.042969 75.765625 C 37.039062 75.871094 37.078125 75.960938 37.15625 76.027344 C 37.5625 76.390625 39.003906 77.535156 40.945312 77.609375 C 41.0625 77.613281 41.179688 77.605469 41.296875 77.585938 C 41.894531 77.488281 44.007812 77.167969 45.203125 77.339844 C 45.300781 77.351562 45.386719 77.328125 45.460938 77.269531 C 45.539062 77.210938 45.582031 77.132812 45.59375 77.035156 C 45.75 75.589844 46.222656 70.300781 45.085938 67.953125 Z M 45.085938 67.953125 " fill-opacity="1" fill-rule="nonzero"/><path fill="#ca8f7a" d="M 39.144531 62.277344 C 39.144531 62.277344 37.960938 63.769531 36.917969 64.410156 C 36.808594 64.476562 36.691406 64.515625 36.566406 64.53125 C 36.03125 64.605469 34.464844 64.847656 33.121094 65.347656 C 33.03125 65.382812 32.945312 65.375 32.863281 65.332031 C 32.363281 65.0625 30.578125 64.132812 31.644531 65.054688 C 31.644531 65.054688 30.816406 65.398438 31.171875 65.546875 C 31.171875 65.546875 30.996094 65.746094 31.230469 65.773438 C 31.230469 65.773438 31.023438 66.078125 31.371094 66.097656 C 31.371094 66.097656 31.398438 66.347656 31.726562 66.226562 C 31.769531 66.210938 35.726562 66.191406 37.027344 65.992188 C 37.203125 65.964844 37.363281 65.902344 37.507812 65.800781 C 38 65.457031 39.324219 64.511719 40.109375 63.792969 Z M 39.144531 62.277344 " fill-opacity="1" fill-rule="nonzero"/><path fill="#3c3e48" d="M 42.328125 89.785156 C 42.515625 90.125 43.078125 90.363281 43.632812 90.605469 C 43.707031 90.652344 43.730469 90.714844 43.707031 90.800781 C 43.683594 90.882812 43.628906 90.921875 43.542969 90.921875 L 41.234375 90.898438 C 41.128906 90.894531 41.078125 90.84375 41.082031 90.734375 L 41.113281 89.820312 C 41.117188 89.78125 41.136719 89.75 41.171875 89.730469 C 41.210938 89.714844 41.246094 89.714844 41.277344 89.742188 C 41.464844 89.875 41.808594 90.023438 42.222656 89.785156 C 42.257812 89.761719 42.292969 89.765625 42.328125 89.785156 Z M 42.328125 89.785156 " fill-opacity="1" fill-rule="nonzero"/><path fill="#3c3e48" d="M 30.949219 75.433594 C 30.566406 75.394531 30.050781 75.726562 29.535156 76.046875 C 29.457031 76.082031 29.390625 76.066406 29.335938 75.996094 C 29.28125 75.929688 29.277344 75.863281 29.328125 75.789062 L 30.65625 73.898438 C 30.71875 73.8125 30.789062 73.800781 30.875 73.863281 L 31.609375 74.40625 C 31.640625 74.433594 31.65625 74.464844 31.648438 74.507812 C 31.644531 74.546875 31.621094 74.574219 31.582031 74.589844 C 31.363281 74.667969 31.046875 74.867188 31.011719 75.347656 C 31.007812 75.386719 30.988281 75.414062 30.949219 75.433594 Z M 30.949219 75.433594 " fill-opacity="1" fill-rule="nonzero"/><path fill="#e1b13d" d="M 44.511719 65.015625 C 44.484375 64.9375 44.492188 64.863281 44.546875 64.800781 C 45.726562 63.363281 43.308594 61.410156 42.792969 61.019531 C 42.730469 60.972656 42.660156 60.949219 42.582031 60.957031 C 40.304688 61.101562 39.414062 61.929688 39.125 62.300781 C 39.042969 62.40625 39.03125 62.519531 39.09375 62.640625 C 40.375 65.171875 39.835938 67.886719 39.699219 68.464844 C 39.679688 68.539062 39.707031 68.585938 39.785156 68.605469 C 43.46875 69.554688 45.011719 68.347656 45.269531 68.113281 C 45.292969 68.085938 45.308594 68.058594 45.304688 68.023438 C 45.285156 67.054688 44.691406 65.46875 44.511719 65.015625 Z M 44.511719 65.015625 " fill-opacity="1" fill-rule="nonzero"/><path fill="#be8774" d="M 41.433594 60.441406 C 41.433594 60.441406 41.523438 60.835938 41.851562 61.035156 C 41.851562 61.035156 42.5 62.359375 40.449219 61.394531 C 40.449219 61.394531 40.234375 59.167969 40.40625 59.769531 C 40.421875 59.828125 41.433594 60.441406 41.433594 60.441406 Z M 41.433594 60.441406 " fill-opacity="1" fill-rule="nonzero"/><path fill="#ca8f7a" d="M 41.78125 60.695312 C 41.921875 60.371094 41.949219 59.804688 41.511719 58.824219 C 41.46875 58.726562 41.398438 58.652344 41.300781 58.605469 C 41.1875 58.550781 41.011719 58.511719 40.78125 58.582031 C 40.742188 58.59375 40.707031 58.601562 40.667969 58.609375 C 40.632812 58.613281 40.597656 58.621094 40.5625 58.632812 C 40.257812 58.742188 40.105469 58.957031 40.105469 59.277344 C 40.105469 59.46875 40.113281 59.726562 40.171875 59.847656 C 40.171875 59.847656 39.527344 59.78125 40.074219 60.316406 C 40.074219 60.316406 40.46875 60.84375 40.988281 61.03125 C 41.144531 61.089844 41.300781 61.085938 41.453125 61.019531 C 41.605469 60.957031 41.714844 60.847656 41.78125 60.695312 Z M 41.78125 60.695312 " fill-opacity="1" fill-rule="nonzero"/><path fill="#303548" d="M 71.980469 49.140625 C 71.980469 49.140625 71.753906 46.46875 74.152344 48.382812 C 74.152344 48.382812 76.296875 48.734375 76.121094 51.863281 C 76.121094 51.863281 76.910156 52.457031 76.550781 53.488281 C 76.550781 53.488281 76.882812 57.269531 74.203125 56.054688 C 74.203125 56.054688 72.804688 55.808594 72.808594 53.972656 Z M 71.980469 49.140625 " fill-opacity="1" fill-rule="nonzero"/><path fill="#e5c8b0" d="M 66.660156 45.230469 C 66.671875 45.253906 66.679688 45.277344 66.6875 45.300781 C 66.894531 46.425781 67.136719 47.476562 67.433594 48.367188 L 68.53125 47.742188 C 68.101562 46.929688 67.769531 46.035156 67.511719 45.089844 C 67.464844 44.863281 67.5 44.863281 67.511719 44.695312 C 67.511719 44.695312 67.566406 44.195312 67.625 43.957031 C 67.640625 43.898438 67.667969 43.847656 67.714844 43.804688 C 67.78125 43.738281 67.871094 43.628906 67.753906 43.601562 C 67.707031 43.59375 67.664062 43.601562 67.625 43.632812 C 67.429688 43.773438 67.308594 43.964844 67.257812 44.203125 C 67.257812 44.203125 67.035156 43.058594 66.929688 42.859375 C 66.929688 42.859375 66.785156 42.570312 66.722656 42.742188 C 66.699219 42.800781 66.960938 43.769531 66.9375 44.039062 C 66.9375 44.039062 66.679688 43.210938 66.539062 42.988281 C 66.519531 42.960938 66.496094 42.945312 66.464844 42.941406 C 66.433594 42.9375 66.398438 42.949219 66.398438 43.011719 C 66.398438 43.039062 66.402344 43.0625 66.414062 43.085938 C 66.464844 43.207031 66.679688 43.742188 66.667969 44.121094 C 66.667969 44.121094 66.355469 43.585938 66.285156 43.332031 C 66.277344 43.292969 66.253906 43.265625 66.214844 43.253906 C 66.183594 43.242188 66.148438 43.246094 66.132812 43.300781 C 66.128906 43.324219 66.128906 43.347656 66.136719 43.371094 C 66.171875 43.496094 66.320312 44 66.453125 44.246094 C 66.453125 44.246094 66.179688 43.929688 66.089844 43.71875 C 66.070312 43.671875 66.039062 43.648438 65.988281 43.644531 C 65.941406 43.640625 65.914062 43.660156 65.90625 43.710938 C 65.898438 43.753906 65.90625 43.792969 65.929688 43.828125 C 66.027344 43.988281 66.382812 44.570312 66.425781 44.734375 C 66.425781 44.730469 66.539062 45.007812 66.660156 45.230469 Z M 66.660156 45.230469 " fill-opacity="1" fill-rule="nonzero"/><path fill="#e5c8b0" d="M 80.59375 55.191406 C 80.566406 55.1875 80.542969 55.1875 80.519531 55.195312 C 79.40625 55.453125 78.351562 55.648438 77.417969 55.730469 L 77.550781 54.472656 C 78.46875 54.542969 79.414062 54.488281 80.386719 54.351562 C 80.609375 54.300781 80.597656 54.273438 80.746094 54.191406 C 80.746094 54.191406 81.179688 53.945312 81.375 53.796875 C 81.421875 53.757812 81.457031 53.710938 81.480469 53.652344 C 81.511719 53.566406 81.578125 53.441406 81.644531 53.535156 C 81.675781 53.574219 81.683594 53.617188 81.671875 53.664062 C 81.617188 53.902344 81.492188 54.089844 81.296875 54.230469 C 81.296875 54.230469 82.429688 53.980469 82.65625 53.996094 C 82.65625 53.996094 82.976562 54.015625 82.847656 54.136719 C 82.800781 54.183594 81.8125 54.332031 81.574219 54.457031 C 81.574219 54.457031 82.429688 54.367188 82.691406 54.40625 C 82.726562 54.414062 82.75 54.429688 82.765625 54.457031 C 82.78125 54.484375 82.785156 54.519531 82.726562 54.546875 C 82.703125 54.554688 82.679688 54.5625 82.65625 54.5625 C 82.523438 54.5625 81.945312 54.578125 81.605469 54.738281 C 81.605469 54.738281 82.222656 54.816406 82.480469 54.777344 C 82.519531 54.769531 82.554688 54.78125 82.582031 54.8125 C 82.601562 54.835938 82.613281 54.871094 82.566406 54.90625 C 82.546875 54.917969 82.527344 54.925781 82.503906 54.929688 C 82.375 54.945312 81.855469 55.011719 81.578125 54.988281 C 81.578125 54.988281 81.976562 55.113281 82.203125 55.113281 C 82.253906 55.109375 82.289062 55.132812 82.3125 55.175781 C 82.335938 55.21875 82.328125 55.25 82.285156 55.277344 C 82.25 55.300781 82.210938 55.3125 82.167969 55.304688 C 81.984375 55.277344 81.308594 55.183594 81.144531 55.207031 C 81.144531 55.207031 80.84375 55.210938 80.59375 55.191406 Z M 80.59375 55.191406 " fill-opacity="1" fill-rule="nonzero"/><path fill="#e5c8b0" d="M 74.402344 67.132812 C 74.445312 67.304688 74.503906 67.46875 74.582031 67.628906 C 74.984375 68.484375 75.773438 69.09375 76.695312 69.292969 L 84.925781 71.070312 L 85.289062 70.019531 C 85.289062 70.019531 81.011719 67.058594 78.476562 67.03125 C 78.011719 67.023438 77.5625 66.851562 77.234375 66.519531 C 76.945312 66.222656 76.769531 65.863281 76.71875 65.449219 Z M 74.402344 67.132812 " fill-opacity="1" fill-rule="nonzero"/><path fill="#3c3e48" d="M 84.527344 69.285156 C 84.46875 69.261719 84.417969 69.273438 84.371094 69.3125 C 84.324219 69.351562 84.304688 69.402344 84.316406 69.460938 C 84.386719 69.800781 84.382812 70.363281 83.804688 70.789062 C 83.753906 70.824219 83.734375 70.875 83.742188 70.9375 C 84.09375 71.398438 84.078125 72.316406 84.070312 73.226562 C 84.109375 73.484375 84.457031 73.53125 84.558594 73.292969 L 85.921875 70.101562 C 85.949219 70.042969 85.949219 69.984375 85.925781 69.921875 C 85.898438 69.863281 85.855469 69.820312 85.796875 69.796875 Z M 84.527344 69.285156 " fill-opacity="1" fill-rule="nonzero"/><path fill="#e5c8b0" d="M 71.964844 68.707031 C 71.949219 68.882812 71.953125 69.058594 71.972656 69.230469 C 72.074219 70.171875 72.617188 71.007812 73.421875 71.503906 L 80.605469 75.902344 L 81.292969 75.035156 C 81.292969 75.035156 78.230469 70.820312 75.847656 69.957031 C 75.410156 69.796875 75.042969 69.488281 74.84375 69.0625 C 74.664062 68.6875 74.621094 68.292969 74.707031 67.882812 Z M 71.964844 68.707031 " fill-opacity="1" fill-rule="nonzero"/><path fill="#8caabb" d="M 76.546875 62.359375 C 76.546875 62.359375 74.324219 60.171875 73.449219 57.917969 L 68.660156 59.09375 C 68.660156 59.09375 68 64.890625 70.953125 69.417969 C 71.050781 69.570312 71.191406 69.640625 71.371094 69.636719 C 72.136719 69.605469 74.328125 69.433594 75.367188 68.429688 C 75.402344 68.394531 75.433594 68.359375 75.46875 68.320312 C 75.71875 68.042969 76.996094 66.664062 77.917969 66.554688 C 78.046875 66.539062 78.121094 66.464844 78.136719 66.335938 C 78.226562 65.710938 78.300781 63.867188 76.546875 62.359375 Z M 76.546875 62.359375 " fill-opacity="1" fill-rule="nonzero"/><path fill="#3c3e48" d="M 80.816406 74.089844 C 80.769531 74.046875 80.71875 74.039062 80.660156 74.0625 C 80.601562 74.082031 80.570312 74.125 80.558594 74.1875 C 80.515625 74.53125 80.328125 75.058594 79.640625 75.269531 C 79.582031 75.285156 79.546875 75.328125 79.535156 75.386719 C 79.710938 75.9375 79.394531 76.804688 79.089844 77.660156 C 79.042969 77.914062 79.355469 78.074219 79.53125 77.882812 L 81.867188 75.324219 C 81.910156 75.273438 81.929688 75.21875 81.925781 75.152344 C 81.925781 75.085938 81.898438 75.035156 81.847656 74.992188 Z M 80.816406 74.089844 " fill-opacity="1" fill-rule="nonzero"/><path fill="#dd9445" d="M 77.914062 54.242188 C 76.054688 53.757812 74.703125 52.886719 73.898438 52.238281 C 73.152344 51.640625 72.320312 51.203125 71.410156 50.925781 L 71.03125 50.808594 C 70.792969 50.738281 70.589844 50.609375 70.421875 50.425781 C 69.28125 49.164062 68.722656 47.855469 68.550781 47.394531 C 68.507812 47.28125 68.429688 47.25 68.320312 47.300781 L 67.292969 47.753906 C 67.214844 47.789062 67.183594 47.847656 67.191406 47.933594 C 67.410156 49.800781 68.359375 52.121094 68.359375 52.121094 C 67.222656 54.730469 67.941406 58.300781 68.1875 59.335938 C 68.207031 59.414062 68.25 59.476562 68.320312 59.519531 C 68.386719 59.566406 68.460938 59.578125 68.542969 59.5625 C 69.503906 59.371094 70.382812 59.484375 70.597656 59.515625 C 70.640625 59.523438 70.679688 59.53125 70.722656 59.535156 C 71.847656 59.648438 73.226562 58.832031 73.722656 58.503906 C 73.851562 58.417969 73.890625 58.304688 73.847656 58.160156 C 73.183594 55.972656 73.726562 54.714844 73.726562 54.714844 C 74.886719 55.726562 76.980469 55.902344 77.550781 55.933594 C 77.644531 55.9375 77.707031 55.894531 77.726562 55.800781 L 78.042969 54.445312 C 78.066406 54.335938 78.023438 54.269531 77.914062 54.242188 Z M 77.914062 54.242188 " fill-opacity="1" fill-rule="nonzero"/><path fill="#d2b8a2" d="M 72.015625 50.277344 L 71.570312 51.109375 C 71.5625 51.121094 71.5625 51.132812 71.566406 51.144531 C 71.679688 51.578125 71.996094 51.703125 72.386719 51.457031 C 72.394531 51.449219 72.402344 51.441406 72.40625 51.429688 L 72.679688 50.472656 Z M 72.015625 50.277344 " fill-opacity="1" fill-rule="nonzero"/><path fill="#e5c8b0" d="M 72.769531 49.90625 C 72.769531 49.90625 73.277344 49.507812 73.167969 50.027344 C 73.140625 50.152344 73.078125 50.261719 72.980469 50.347656 C 72.734375 50.578125 72.164062 51.007812 71.574219 50.8125 C 71.417969 50.757812 71.347656 50.652344 71.363281 50.488281 C 71.378906 50.339844 71.429688 50.125 71.566406 49.847656 C 71.566406 49.847656 71.859375 49.203125 72.015625 48.789062 C 72.0625 48.664062 72.152344 48.609375 72.28125 48.625 C 72.425781 48.644531 72.582031 48.796875 72.550781 49.363281 C 72.550781 49.363281 72.476562 49.824219 72.769531 49.90625 Z M 72.769531 49.90625 " fill-opacity="1" fill-rule="nonzero"/><path fill="#d88185" d="M 41.421875 22.839844 C 44.242188 22.0625 47.296875 23.503906 49.253906 25.683594 C 51.210938 27.863281 52.292969 30.671875 53.335938 33.414062 C 54.445312 30.820312 55.582031 28.179688 57.414062 26.039062 C 59.246094 23.898438 61.917969 22.292969 64.730469 22.441406 C 69.507812 22.691406 72.769531 28.054688 72.328125 32.835938 C 71.882812 37.617188 68.769531 41.710938 65.386719 45.113281 C 62.007812 48.515625 58.191406 51.582031 55.671875 55.664062 C 55.125 56.550781 54.480469 57.59375 53.441406 57.679688 C 52.910156 57.726562 52.394531 57.492188 51.914062 57.253906 C 45.0625 53.855469 39.609375 47.875 36.597656 40.859375 C 34.203125 35.285156 33.773438 24.945312 41.421875 22.839844 Z M 41.421875 22.839844 " fill-opacity="1" fill-rule="nonzero"/><path fill="#d88185" d="M 28.449219 18.523438 C 28.914062 18.488281 29.347656 18.808594 29.589844 19.210938 C 29.828125 19.609375 29.914062 20.082031 29.992188 20.542969 C 30.246094 20.171875 30.503906 19.792969 30.855469 19.515625 C 31.207031 19.234375 31.675781 19.066406 32.109375 19.175781 C 32.851562 19.359375 33.195312 20.300781 32.980469 21.035156 C 32.765625 21.769531 32.15625 22.316406 31.523438 22.742188 C 30.890625 23.171875 30.199219 23.535156 29.679688 24.097656 C 29.566406 24.21875 29.433594 24.363281 29.269531 24.34375 C 29.1875 24.335938 29.113281 24.28125 29.042969 24.230469 C 28.074219 23.488281 27.40625 22.386719 27.144531 21.195312 C 26.941406 20.25 27.1875 18.621094 28.449219 18.523438 Z M 28.449219 18.523438 " fill-opacity="1" fill-rule="nonzero"/><path fill="#d88185" d="M 81.691406 34.753906 C 82.316406 34.449219 83.089844 34.65625 83.640625 35.078125 C 84.191406 35.5 84.5625 36.109375 84.925781 36.703125 C 85.070312 36.050781 85.222656 35.386719 85.558594 34.808594 C 85.894531 34.230469 86.445312 33.738281 87.109375 33.652344 C 88.234375 33.503906 89.222656 34.613281 89.328125 35.746094 C 89.429688 36.878906 88.878906 37.96875 88.238281 38.90625 C 87.597656 39.847656 86.839844 40.726562 86.425781 41.789062 C 86.339844 42.019531 86.234375 42.289062 85.996094 42.355469 C 85.871094 42.386719 85.742188 42.355469 85.621094 42.320312 C 83.878906 41.824219 82.347656 40.667969 81.34375 39.164062 C 80.546875 37.96875 80 35.574219 81.691406 34.753906 Z M 81.691406 34.753906 " fill-opacity="1" fill-rule="nonzero"/></svg>