<svg xmlns="http://www.w3.org/2000/svg" xmlns:xlink="http://www.w3.org/1999/xlink" width="113" zoomAndPan="magnify" viewBox="0 0 84.75 84.749999" height="113" preserveAspectRatio="xMidYMid meet" version="1.0"><defs><clipPath id="7eaa150b42"><path d="M 28 25 L 84.5 25 L 84.5 84.5 L 28 84.5 Z M 28 25 " clip-rule="nonzero"/></clipPath><clipPath id="d36ee63c58"><path d="M 4 0.0234375 L 9 0.0234375 L 9 5 L 4 5 Z M 4 0.0234375 " clip-rule="nonzero"/></clipPath><clipPath id="0a1beecf7c"><path d="M 10 0.0234375 L 15 0.0234375 L 15 4 L 10 4 Z M 10 0.0234375 " clip-rule="nonzero"/></clipPath><clipPath id="96fb6d29b4"><path d="M 25 77 L 34 77 L 34 84.5 L 25 84.5 Z M 25 77 " clip-rule="nonzero"/></clipPath></defs><g clip-path="url(#7eaa150b42)"><path fill="#ffccba" d="M 54.078125 28.195312 C 67.597656 28.195312 78.558594 26.796875 78.558594 25.074219 C 79.574219 27.34375 78.488281 30.804688 77.820312 32.8125 C 77.496094 33.789062 77.6875 34.78125 78.261719 35.632812 L 83.847656 43.90625 C 84.421875 44.757812 84.464844 45.863281 83.957031 46.757812 C 83.660156 47.277344 83.203125 47.691406 82.632812 47.871094 C 79.9375 48.722656 77.886719 48.410156 77.59375 53.472656 C 77.058594 62.757812 73.886719 64.417969 63.984375 62.449219 C 63.859375 62.425781 63.742188 62.519531 63.742188 62.644531 L 63.742188 84.503906 L 34.535156 84.503906 C 36.199219 79.898438 38.542969 68.246094 37.542969 60.035156 C 37.324219 52.503906 25.300781 43.46875 29.59375 25.074219 C 29.59375 26.796875 40.554688 28.195312 54.078125 28.195312 Z M 54.078125 28.195312 " fill-opacity="1" fill-rule="nonzero"/></g><path fill="#3a3683" d="M 78.558594 25.074219 C 78.558594 26.796875 67.597656 28.195312 54.078125 28.195312 C 40.554688 28.195312 29.59375 26.796875 29.59375 25.074219 C 29.59375 23.351562 40.554688 21.953125 54.078125 21.953125 C 67.597656 21.953125 78.558594 23.351562 78.558594 25.074219 Z M 78.558594 25.074219 " fill-opacity="1" fill-rule="nonzero"/><path fill="#fe8d00" d="M 9.746094 14.796875 C 12.785156 14.796875 15.25 12.324219 15.25 9.277344 C 15.25 6.230469 12.785156 3.761719 9.746094 3.761719 C 6.703125 3.761719 4.242188 6.230469 4.242188 9.277344 C 4.242188 12.324219 6.703125 14.796875 9.746094 14.796875 Z M 9.746094 13.292969 C 11.957031 13.292969 13.746094 11.496094 13.746094 9.277344 C 13.746094 7.0625 11.957031 5.265625 9.746094 5.265625 C 7.535156 5.265625 5.742188 7.0625 5.742188 9.277344 C 5.742188 11.496094 7.535156 13.292969 9.746094 13.292969 Z M 9.746094 13.292969 " fill-opacity="1" fill-rule="evenodd"/><path fill="#fe8d00" d="M 9.746094 16.550781 C 13.753906 16.550781 17 13.296875 17 9.277344 C 17 5.261719 13.753906 2.007812 9.746094 2.007812 C 5.738281 2.007812 2.488281 5.261719 2.488281 9.277344 C 2.488281 13.296875 5.738281 16.550781 9.746094 16.550781 Z M 9.746094 15.296875 C 13.0625 15.296875 15.75 12.601562 15.75 9.277344 C 15.75 5.957031 13.0625 3.261719 9.746094 3.261719 C 6.429688 3.261719 3.742188 5.957031 3.742188 9.277344 C 3.742188 12.601562 6.429688 15.296875 9.746094 15.296875 Z M 9.746094 15.296875 " fill-opacity="1" fill-rule="evenodd"/><path fill="#fe8d00" d="M 17.730469 4.296875 L 15.125 4.890625 L 16.625 8.023438 L 18.859375 6.375 C 18.941406 6.316406 18.964844 6.203125 18.914062 6.117188 L 17.949219 4.394531 C 17.90625 4.316406 17.816406 4.277344 17.730469 4.296875 Z M 17.730469 4.296875 " fill-opacity="1" fill-rule="nonzero"/><path fill="#fe8d00" d="M 1.257812 5.050781 L 3.867188 5.644531 L 2.707031 8.863281 L 0.140625 7.125 C 0.0546875 7.066406 0.0273438 6.953125 0.078125 6.863281 L 1.042969 5.144531 C 1.085938 5.070312 1.171875 5.03125 1.257812 5.050781 Z M 1.257812 5.050781 " fill-opacity="1" fill-rule="nonzero"/><g clip-path="url(#d36ee63c58)"><path fill="#fe8d00" d="M 6.675781 0.511719 L 8.460938 2.503906 L 5.433594 4.195312 L 4.554688 1.554688 C 4.523438 1.460938 4.570312 1.355469 4.660156 1.3125 L 6.441406 0.464844 C 6.519531 0.425781 6.617188 0.445312 6.675781 0.511719 Z M 6.675781 0.511719 " fill-opacity="1" fill-rule="nonzero"/></g><g clip-path="url(#0a1beecf7c)"><path fill="#fe8d00" d="M 14.167969 1.035156 L 13.871094 3.699219 L 10.59375 2.550781 L 11.984375 0.140625 C 12.035156 0.0546875 12.140625 0.0195312 12.230469 0.0585938 L 14.050781 0.828125 C 14.128906 0.863281 14.179688 0.945312 14.167969 1.035156 Z M 14.167969 1.035156 " fill-opacity="1" fill-rule="nonzero"/></g><path fill="#fe8d00" d="M 19.132812 11.222656 L 16.746094 10.011719 L 15.5 13.292969 L 18.671875 13.539062 C 18.773438 13.546875 18.867188 13.480469 18.882812 13.378906 L 19.234375 11.4375 C 19.25 11.347656 19.207031 11.261719 19.132812 11.222656 Z M 19.132812 11.222656 " fill-opacity="1" fill-rule="nonzero"/><path fill="#fe8d00" d="M 0.957031 12.242188 L 2.875 10.371094 L 5.039062 13.132812 L 2.082031 14.316406 C 1.988281 14.355469 1.882812 14.316406 1.835938 14.226562 L 0.921875 12.476562 C 0.878906 12.398438 0.894531 12.300781 0.957031 12.242188 Z M 0.957031 12.242188 " fill-opacity="1" fill-rule="nonzero"/><path fill="#fe8d00" d="M 15 17.183594 L 14.332031 14.589844 L 11.054688 15.8125 L 12.960938 18.371094 C 13.019531 18.449219 13.132812 18.472656 13.21875 18.421875 L 14.910156 17.402344 C 14.984375 17.359375 15.019531 17.269531 15 17.183594 Z M 15 17.183594 " fill-opacity="1" fill-rule="nonzero"/><path fill="#fe8d00" d="M 5.621094 17.734375 L 5.601562 15.054688 L 9.085938 15.394531 L 7.894531 18.355469 C 7.855469 18.449219 7.753906 18.5 7.65625 18.472656 L 5.761719 17.921875 C 5.679688 17.898438 5.621094 17.824219 5.621094 17.734375 Z M 5.621094 17.734375 " fill-opacity="1" fill-rule="nonzero"/><path fill="#fa5879" d="M 66.578125 24.339844 C 70.695312 24.339844 74.03125 20.996094 74.03125 16.871094 C 74.03125 12.746094 70.695312 9.402344 66.578125 9.402344 C 62.464844 9.402344 59.128906 12.746094 59.128906 16.871094 C 59.128906 20.996094 62.464844 24.339844 66.578125 24.339844 Z M 66.648438 21.757812 C 69.160156 21.757812 71.195312 19.714844 71.195312 17.195312 C 71.195312 14.679688 69.160156 12.636719 66.648438 12.636719 C 64.132812 12.636719 62.097656 14.679688 62.097656 17.195312 C 62.097656 19.714844 64.132812 21.757812 66.648438 21.757812 Z M 66.648438 21.757812 " fill-opacity="1" fill-rule="evenodd"/><path fill="#fa5879" d="M 74.785156 11.753906 L 72.105469 12.363281 L 73.644531 15.585938 L 75.945312 13.886719 C 76.027344 13.824219 76.050781 13.714844 76 13.628906 L 75.003906 11.851562 C 74.960938 11.773438 74.871094 11.734375 74.785156 11.753906 Z M 74.785156 11.753906 " fill-opacity="1" fill-rule="nonzero"/><path fill="#fa5879" d="M 57.859375 12.527344 L 60.542969 13.136719 L 59.351562 16.445312 L 56.710938 14.65625 C 56.625 14.597656 56.597656 14.484375 56.648438 14.394531 L 57.644531 12.621094 C 57.6875 12.546875 57.773438 12.507812 57.859375 12.527344 Z M 57.859375 12.527344 " fill-opacity="1" fill-rule="nonzero"/><path fill="#fa5879" d="M 63.421875 7.863281 L 65.261719 9.914062 L 62.148438 11.652344 L 61.25 8.933594 C 61.21875 8.839844 61.261719 8.734375 61.351562 8.691406 L 63.191406 7.816406 C 63.269531 7.78125 63.363281 7.800781 63.421875 7.863281 Z M 63.421875 7.863281 " fill-opacity="1" fill-rule="nonzero"/><path fill="#fa5879" d="M 71.125 8.398438 L 70.816406 11.140625 L 67.453125 9.960938 L 68.882812 7.484375 C 68.929688 7.394531 69.039062 7.359375 69.128906 7.398438 L 71.003906 8.195312 C 71.085938 8.230469 71.132812 8.3125 71.125 8.398438 Z M 71.125 8.398438 " fill-opacity="1" fill-rule="nonzero"/><path fill="#fa5879" d="M 76.222656 18.871094 L 73.769531 17.625 L 72.488281 20.992188 L 75.753906 21.25 C 75.855469 21.257812 75.945312 21.1875 75.964844 21.085938 L 76.328125 19.082031 C 76.34375 18.996094 76.300781 18.910156 76.222656 18.871094 Z M 76.222656 18.871094 " fill-opacity="1" fill-rule="nonzero"/><path fill="#fa5879" d="M 57.550781 19.917969 L 59.523438 17.996094 L 61.746094 20.828125 L 58.707031 22.046875 C 58.609375 22.085938 58.503906 22.046875 58.457031 21.957031 L 57.515625 20.152344 C 57.472656 20.074219 57.488281 19.976562 57.550781 19.917969 Z M 57.550781 19.917969 " fill-opacity="1" fill-rule="nonzero"/><path fill="#fa5879" d="M 71.976562 24.996094 L 71.292969 22.324219 L 67.921875 23.582031 L 69.886719 26.210938 C 69.945312 26.292969 70.058594 26.316406 70.144531 26.261719 L 71.886719 25.214844 C 71.960938 25.167969 72 25.078125 71.976562 24.996094 Z M 71.976562 24.996094 " fill-opacity="1" fill-rule="nonzero"/><path fill="#fa5879" d="M 62.34375 25.558594 L 62.324219 22.804688 L 65.902344 23.152344 L 64.675781 26.199219 C 64.640625 26.292969 64.535156 26.34375 64.4375 26.316406 L 62.484375 25.75 C 62.402344 25.722656 62.34375 25.648438 62.34375 25.558594 Z M 62.34375 25.558594 " fill-opacity="1" fill-rule="nonzero"/><path fill="#8a86d3" d="M 11.660156 44.078125 C 13.933594 46.257812 14.03125 48.242188 8.890625 51.710938 C 6.910156 50.621094 9.480469 42.988281 11.660156 44.078125 Z M 11.660156 44.078125 " fill-opacity="1" fill-rule="nonzero"/><path fill="#8c1a00" d="M 6.632812 51.214844 C 6.382812 49.6875 6.367188 46.042969 8.304688 43.710938 C 8.917969 43.765625 10.578125 43.175781 11.3125 43.710938 C 11.328125 43.875 11.351562 44.074219 11.371094 44.292969 L 13.152344 45.378906 C 13.472656 46.429688 13.878906 48.449219 12.054688 49.925781 L 10.566406 48.546875 C 8.640625 50.484375 7.148438 51.132812 6.632812 51.214844 Z M 6.632812 51.214844 " fill-opacity="1" fill-rule="nonzero"/><path fill="#8a86d3" d="M 23.527344 76.789062 C 24.8125 78.078125 30.144531 77.386719 31.929688 76.789062 C 32.480469 75.125 23.527344 75.898438 23.527344 76.789062 Z M 23.527344 76.789062 " fill-opacity="1" fill-rule="nonzero"/><path fill="#f7aa8c" d="M 29.757812 77.667969 C 28.515625 77.203125 26.511719 77.289062 25.503906 77.484375 L 25.503906 75.699219 L 29.558594 75.007812 Z M 29.757812 77.667969 " fill-opacity="1" fill-rule="nonzero"/><g clip-path="url(#96fb6d29b4)"><path fill="#8c1a00" d="M 25.503906 81.121094 L 25.503906 77.484375 C 26.511719 77.289062 28.515625 77.203125 29.757812 77.667969 C 29.757812 78.863281 30.082031 79.292969 30.082031 79.566406 C 30.335938 79.929688 31.464844 81.5625 33.019531 84.523438 L 30.082031 84.523438 Z M 25.503906 81.121094 " fill-opacity="1" fill-rule="nonzero"/></g><path fill="#3a3683" d="M 23.527344 73.421875 C 23.050781 72.390625 23.328125 71.40625 23.527344 71.042969 C 23.527344 70.621094 23.972656 62.90625 23.601562 55.292969 C 22.800781 57.476562 22.414062 58.734375 20.164062 58.847656 C 16.304688 59.046875 12.84375 55.28125 8.890625 51.710938 C 14.03125 48.242188 13.933594 46.257812 11.65625 44.078125 C 12.136719 44.507812 13.214844 44.527344 14.230469 45.269531 C 15.246094 46.011719 16.3125 47.308594 17.296875 48.242188 C 17.113281 48.011719 16.875 47.449219 17.664062 46.855469 C 18.085938 46.535156 17.394531 45.566406 18.085938 44.972656 C 19.097656 40.503906 19.097656 38.15625 20.261719 35.101562 C 22.117188 36.207031 28.453125 35.460938 34.273438 36.644531 C 34.273438 53.414062 32.382812 69.34375 31.941406 76.558594 C 31.960938 76.628906 31.957031 76.707031 31.929688 76.789062 C 31.933594 76.714844 31.9375 76.636719 31.941406 76.558594 C 31.609375 75.203125 23.527344 75.941406 23.527344 76.789062 C 22.242188 75.5 23.527344 73.816406 23.527344 73.421875 Z M 23.527344 73.421875 " fill-opacity="1" fill-rule="nonzero"/><path fill="#8a86d3" d="M 18.722656 49.691406 C 18.097656 49.0625 17.460938 48.445312 17.265625 48.28125 L 17.328125 48.203125 C 17.527344 48.371094 18.167969 48.992188 18.792969 49.621094 C 19.421875 50.246094 20.042969 50.882812 20.203125 51.085938 L 20.125 51.148438 C 19.96875 50.953125 19.351562 50.320312 18.722656 49.691406 Z M 18.722656 49.691406 " fill-opacity="1" fill-rule="evenodd"/><path fill="#8a86d3" d="M 22.886719 39.449219 C 22.953125 39 23.019531 38.5625 23.082031 38.125 L 23.179688 38.136719 C 23.117188 38.574219 23.050781 39.015625 22.984375 39.464844 C 22.496094 42.671875 21.949219 46.265625 23.277344 51.996094 L 23.277344 52.007812 C 23.296875 52.417969 23.371094 52.945312 23.449219 53.496094 C 23.453125 53.523438 23.457031 53.550781 23.460938 53.578125 C 23.542969 54.160156 23.625 54.765625 23.652344 55.289062 L 23.554688 55.292969 C 23.527344 54.773438 23.445312 54.171875 23.363281 53.589844 C 23.359375 53.5625 23.355469 53.535156 23.351562 53.507812 C 23.273438 52.960938 23.199219 52.429688 23.179688 52.015625 C 21.847656 46.269531 22.398438 42.65625 22.886719 39.449219 Z M 22.886719 39.449219 " fill-opacity="1" fill-rule="evenodd"/><path fill="#8a86d3" d="M 23.351562 53.507812 C 23.273438 52.957031 23.199219 52.425781 23.179688 52.011719 L 23.277344 52.007812 C 23.296875 52.417969 23.371094 52.945312 23.449219 53.496094 C 23.453125 53.523438 23.457031 53.550781 23.460938 53.578125 C 23.542969 54.160156 23.625 54.765625 23.652344 55.289062 L 23.554688 55.292969 C 23.527344 54.773438 23.445312 54.171875 23.363281 53.589844 C 23.359375 53.5625 23.355469 53.535156 23.351562 53.507812 Z M 23.351562 53.507812 " fill-opacity="1" fill-rule="evenodd"/><path fill="#3a3683" d="M 42.691406 15.777344 C 42.585938 16.125 44.484375 17.015625 46.933594 17.757812 C 49.378906 18.503906 51.449219 18.824219 51.554688 18.472656 C 51.664062 18.121094 49.765625 17.234375 47.316406 16.488281 C 44.867188 15.746094 42.796875 15.425781 42.691406 15.777344 Z M 42.691406 15.777344 " fill-opacity="1" fill-rule="nonzero"/><path fill="#8a86d3" d="M 46.933594 17.757812 C 44.484375 17.015625 42.585938 16.125 42.691406 15.777344 L 40.730469 22.257812 C 40.695312 22.367188 40.738281 22.480469 40.832031 22.542969 C 43.375 24.1875 46.324219 25.082031 49.351562 25.132812 C 49.460938 25.136719 49.5625 25.0625 49.59375 24.957031 L 51.558594 18.472656 C 51.449219 18.824219 49.378906 18.503906 46.933594 17.757812 Z M 46.933594 17.757812 " fill-opacity="1" fill-rule="nonzero"/><path fill="#3a3683" d="M 42.09375 17.652344 C 42.050781 17.6875 42.042969 17.75 42.078125 17.792969 C 42.933594 18.863281 44.460938 19.753906 46.050781 20.464844 C 47.648438 21.171875 49.316406 21.707031 50.472656 22.058594 L 50.527344 21.867188 C 49.378906 21.519531 47.714844 20.988281 46.132812 20.28125 C 44.546875 19.574219 43.054688 18.699219 42.230469 17.667969 C 42.195312 17.625 42.132812 17.617188 42.09375 17.652344 Z M 41.421875 19.878906 C 41.378906 19.914062 41.378906 19.976562 41.414062 20.019531 C 42.269531 20.96875 43.847656 21.875 45.460938 22.621094 C 47.078125 23.367188 48.75 23.960938 49.796875 24.277344 L 49.855469 24.089844 C 48.8125 23.773438 47.152344 23.183594 45.542969 22.4375 C 43.929688 21.695312 42.386719 20.800781 41.5625 19.886719 C 41.523438 19.84375 41.460938 19.839844 41.421875 19.878906 Z M 41.421875 19.878906 " fill-opacity="1" fill-rule="evenodd"/><path fill="#f7aa8c" d="M 51.539062 2.191406 C 55.25 3.320312 57.34375 7.246094 56.21875 10.964844 C 55.632812 12.90625 54.28125 14.40625 52.597656 15.238281 C 51.816406 15.699219 50.351562 16.996094 49.792969 17.667969 C 49.652344 17.835938 49.40625 17.945312 49.199219 17.878906 L 44.859375 16.5625 C 44.738281 16.523438 44.644531 16.429688 44.601562 16.308594 L 44.59375 16.292969 C 44.296875 15.421875 43.730469 13.773438 43.515625 12.902344 C 43.441406 12.605469 43.34375 12.3125 43.207031 12.039062 C 42.445312 10.492188 42.246094 8.660156 42.785156 6.878906 C 43.910156 3.160156 47.832031 1.0625 51.539062 2.191406 Z M 51.539062 2.191406 " fill-opacity="1" fill-rule="nonzero"/><path fill="#8c1a00" d="M 47.527344 7.644531 C 47.558594 7.648438 47.601562 7.664062 47.640625 7.738281 C 47.722656 7.898438 47.773438 8.191406 47.75 8.675781 C 47.730469 9.128906 47.648438 9.738281 47.480469 10.539062 C 46.773438 9.953125 46.820312 8.972656 47.019531 8.222656 C 47.070312 8.027344 47.210938 7.824219 47.351562 7.714844 C 47.425781 7.664062 47.484375 7.640625 47.527344 7.644531 Z M 47.433594 10.753906 C 46.542969 10.097656 46.621094 8.953125 46.828125 8.171875 C 46.890625 7.9375 47.054688 7.691406 47.234375 7.558594 C 47.324219 7.492188 47.429688 7.441406 47.539062 7.445312 C 47.65625 7.453125 47.753906 7.527344 47.816406 7.648438 C 47.921875 7.855469 47.96875 8.191406 47.949219 8.683594 C 47.925781 9.167969 47.835938 9.816406 47.65625 10.664062 C 47.71875 10.699219 47.8125 10.742188 47.925781 10.789062 C 47.945312 10.796875 47.964844 10.808594 47.988281 10.816406 C 48.753906 11.132812 49.53125 11.453125 50.335938 11.476562 C 50.628906 10.835938 50.890625 10.375 51.121094 10.054688 C 51.355469 9.730469 51.5625 9.539062 51.753906 9.460938 C 51.882812 9.410156 52.003906 9.421875 52.101562 9.492188 C 52.195312 9.554688 52.25 9.664062 52.28125 9.773438 C 52.34375 9.996094 52.324219 10.292969 52.21875 10.515625 C 51.9375 11.089844 51.386719 11.65625 50.460938 11.675781 C 49.902344 12.910156 49.207031 14.804688 48.351562 17.625 L 48.164062 17.566406 C 49 14.800781 49.6875 12.917969 50.246094 11.671875 C 49.4375 11.628906 48.65625 11.308594 47.925781 11.003906 C 47.902344 10.992188 47.875 10.984375 47.851562 10.972656 C 47.761719 10.9375 47.679688 10.898438 47.609375 10.863281 C 47.296875 12.273438 46.738281 14.21875 45.832031 16.859375 L 45.644531 16.796875 C 46.5625 14.113281 47.121094 12.160156 47.433594 10.753906 Z M 50.554688 11.472656 C 50.832031 10.886719 51.070312 10.464844 51.28125 10.171875 C 51.507812 9.855469 51.691406 9.699219 51.828125 9.644531 C 51.902344 9.613281 51.953125 9.628906 51.988281 9.652344 C 52.027344 9.679688 52.066406 9.742188 52.089844 9.828125 C 52.140625 10.007812 52.125 10.253906 52.039062 10.429688 C 51.792969 10.933594 51.328125 11.417969 50.554688 11.472656 Z M 50.554688 11.472656 " fill-opacity="1" fill-rule="evenodd"/><path fill="#f7aa8c" d="M 27.246094 12.460938 C 27.457031 13.089844 27.84375 14.09375 28.054688 14.625 C 28.210938 15.210938 28.628906 16.492188 27.96875 18.160156 C 29.324219 19.289062 31.070312 18.882812 31.773438 18.542969 C 31.589844 17.015625 31.613281 16.140625 31.691406 15.601562 L 32.367188 15.546875 C 32.769531 15.546875 33.136719 14.226562 33.21875 14.03125 C 33.300781 13.835938 33.484375 13.929688 33.515625 13.726562 C 33.554688 13.472656 33.128906 12.882812 33.21875 12.636719 C 33.277344 12.472656 33.261719 11.902344 33.285156 11.546875 L 33.273438 11.445312 C 33.285156 10.773438 32.894531 10.285156 32.664062 10.101562 C 32.601562 10.21875 32.359375 10.597656 31.953125 10.972656 C 31.476562 11.414062 30.78125 11.859375 29.894531 11.894531 C 29.78125 11.898438 29.734375 11.664062 29.8125 11.578125 C 30.132812 11.234375 30.246094 10.664062 30.292969 10.246094 C 29.382812 10.664062 27.671875 11.617188 27.246094 12.460938 Z M 27.246094 12.460938 " fill-opacity="1" fill-rule="nonzero"/><path fill="#8c1a00" d="M 31.933594 11.347656 L 31.574219 12.738281 C 31.503906 12.292969 31.292969 11.476562 31 11.761719 C 30.632812 12.121094 30.605469 13.261719 31.117188 13.96875 C 29.941406 15.199219 28.691406 15.140625 28.054688 14.625 C 27.84375 14.09375 27.457031 13.089844 27.246094 12.460938 C 25.875 8.375 31 7.285156 33.019531 8.871094 C 34.601562 9.414062 33.949219 10.726562 33.515625 11.148438 C 33.460938 11.347656 33.179688 11.546875 33.121094 11.148438 C 33.039062 10.621094 33.023438 10.414062 32.824219 10.257812 C 32.761719 10.378906 32.425781 10.953125 31.933594 11.347656 Z M 31.933594 11.347656 " fill-opacity="1" fill-rule="nonzero"/><path fill="#8a86d3" d="M 33.269531 42.003906 C 33.136719 46.640625 32.984375 52.035156 32.777344 57.277344 C 32.539062 63.253906 32.226562 69.039062 31.789062 73.261719 C 31.917969 73.367188 32.042969 73.480469 32.15625 73.605469 C 32.144531 73.746094 32.132812 73.890625 32.125 74.027344 C 32.011719 73.878906 31.886719 73.742188 31.75 73.621094 C 31.652344 74.539062 31.546875 75.378906 31.433594 76.125 C 31.347656 76.089844 31.25 76.058594 31.148438 76.03125 C 31.261719 75.25 31.371094 74.367188 31.472656 73.398438 C 30.613281 72.785156 29.414062 72.585938 28.136719 72.628906 C 26.429688 72.683594 24.636719 73.171875 23.476562 73.621094 C 23.507812 73.539062 23.527344 73.46875 23.527344 73.421875 C 23.507812 73.382812 23.492188 73.34375 23.476562 73.304688 C 24.660156 72.859375 26.429688 72.386719 28.128906 72.328125 C 29.359375 72.289062 30.582031 72.46875 31.507812 73.0625 C 31.9375 68.871094 32.242188 63.167969 32.480469 57.265625 C 32.6875 52.027344 32.839844 46.632812 32.972656 42 L 32.972656 41.996094 C 33.027344 39.972656 33.082031 38.09375 33.132812 36.4375 C 33.234375 36.453125 33.332031 36.46875 33.429688 36.484375 C 33.378906 38.132812 33.324219 39.996094 33.269531 42 Z M 33.269531 42.003906 " fill-opacity="1" fill-rule="nonzero"/><path fill="#8a86d3" d="M 14.566406 45.957031 C 14.753906 46.65625 14.804688 47.546875 14.6875 48.519531 C 14.582031 49.355469 14.355469 50.253906 13.972656 51.15625 C 15.089844 51.96875 16.328125 52.875 17.679688 53.871094 C 19.628906 55.304688 20.9375 55.699219 21.808594 55.535156 C 22.660156 55.375 23.152344 54.671875 23.433594 53.71875 C 23.460938 53.933594 23.492188 54.148438 23.515625 54.359375 C 23.195312 55.097656 22.683594 55.675781 21.863281 55.828125 C 20.863281 56.015625 19.464844 55.550781 17.503906 54.109375 C 16.171875 53.132812 14.953125 52.238281 13.851562 51.433594 C 13.378906 52.457031 12.707031 53.472656 11.792969 54.375 C 11.71875 54.308594 11.644531 54.242188 11.574219 54.175781 C 12.484375 53.28125 13.148438 52.269531 13.605469 51.253906 C 12.835938 50.691406 12.125 50.175781 11.472656 49.699219 C 11.546875 49.628906 11.617188 49.558594 11.6875 49.488281 C 12.3125 49.945312 12.996094 50.441406 13.726562 50.976562 C 14.082031 50.125 14.296875 49.273438 14.390625 48.484375 C 14.507812 47.539062 14.453125 46.6875 14.28125 46.035156 C 14.136719 45.503906 13.917969 45.125 13.664062 44.921875 C 13.851562 45.019531 14.042969 45.128906 14.230469 45.269531 C 14.269531 45.296875 14.308594 45.328125 14.347656 45.355469 C 14.433594 45.539062 14.507812 45.742188 14.566406 45.957031 Z M 14.566406 45.957031 " fill-opacity="1" fill-rule="nonzero"/><path fill="#f7aa8c" d="M 47.914062 22.117188 C 47.707031 22.726562 46.46875 23.386719 45.878906 23.640625 C 46.421875 24.324219 46.972656 25.226562 47.507812 26.234375 C 48.152344 25.082031 49.355469 23.347656 50.128906 22.964844 C 50.734375 22.664062 50.921875 22.371094 50.734375 22.117188 C 51.144531 21.710938 51.074219 21.269531 50.988281 21.101562 C 51.398438 20.695312 51.25 20.214844 51.164062 20.128906 C 51.433594 19.792969 51.449219 19.332031 51.382812 19.039062 C 50.574219 20.011719 49.789062 20.171875 49.453125 20.085938 C 49.707031 19.074219 50.21875 18.820312 49.964844 18.3125 C 49.707031 17.804688 49.453125 18.3125 48.9375 19.074219 C 48.425781 19.832031 48.167969 21.355469 47.914062 22.117188 Z M 47.914062 22.117188 " fill-opacity="1" fill-rule="nonzero"/><path fill="#fa5879" d="M 43.070312 23.039062 L 47.734375 20.769531 C 48.511719 21.265625 49.390625 23.425781 49.933594 24.847656 C 49.726562 25.195312 49.023438 26.003906 47.890625 26.453125 C 45.769531 28.03125 43.265625 29.574219 41.601562 29.308594 C 39.730469 29.011719 37.96875 27.71875 36.425781 26.453125 C 35.769531 28.625 35.21875 31.070312 35.492188 31.984375 C 35.789062 32.976562 36.085938 33.671875 35.296875 34.363281 C 34.503906 35.058594 35.660156 36.742188 34.671875 36.84375 C 27.847656 35.453125 19.769531 36.445312 19.769531 34.363281 C 19.769531 33.730469 20.730469 31.390625 21.210938 30.300781 C 20.351562 25.582031 21.464844 21.386719 22.796875 19.519531 C 24.339844 17.355469 28.019531 16.667969 29.667969 16.597656 C 30.589844 16.597656 32.710938 16.875 34.671875 17.894531 L 41.046875 16.597656 C 41.207031 17.136719 41.496094 18.222656 41.675781 19.15625 L 41.375 20.128906 C 40.636719 20.324219 39.742188 20.574219 39.226562 20.75 C 40.742188 21.675781 42.214844 22.542969 43.070312 23.039062 Z M 43.070312 23.039062 " fill-opacity="1" fill-rule="nonzero"/><path fill="#8c1a00" d="M 35.53125 18.519531 C 35.234375 18.320312 34.933594 18.144531 34.625 17.984375 L 34.714844 17.808594 C 35.03125 17.96875 35.339844 18.152344 35.640625 18.355469 C 36.640625 19.035156 37.976562 19.871094 39.277344 20.664062 L 39.175781 20.832031 C 37.871094 20.039062 36.535156 19.199219 35.53125 18.519531 Z M 35.738281 25.746094 C 35.980469 25.953125 36.234375 26.164062 36.488281 26.375 L 36.363281 26.527344 C 36.101562 26.3125 35.847656 26.101562 35.601562 25.890625 C 34.871094 25.28125 34.203125 24.722656 33.609375 24.339844 L 33.71875 24.171875 C 34.324219 24.5625 35.003906 25.132812 35.738281 25.746094 Z M 35.738281 25.746094 " fill-opacity="1" fill-rule="evenodd"/><path fill="#f7aa8c" d="M 41.527344 19.691406 C 41.417969 19.070312 41.273438 17.769531 41.140625 17.214844 C 41.335938 17.050781 41.921875 16.78125 42.515625 16.484375 C 42.582031 16.429688 42.910156 16.183594 42.910156 16.421875 C 42.910156 16.71875 42.515625 16.917969 42.21875 17.3125 C 42.222656 17.417969 42.191406 17.730469 42.054688 17.890625 Z M 41.527344 19.691406 " fill-opacity="1" fill-rule="nonzero"/></svg>