<svg xmlns="http://www.w3.org/2000/svg" xmlns:xlink="http://www.w3.org/1999/xlink" width="246" zoomAndPan="magnify" viewBox="0 0 184.5 160.499995" height="214" preserveAspectRatio="xMidYMid meet" version="1.0"><defs><clipPath id="7ba99130df"><path d="M 0.0390625 0 L 183.957031 0 L 183.957031 151.910156 L 0.0390625 151.910156 Z M 0.0390625 0 " clip-rule="nonzero"/></clipPath><clipPath id="a5e1c100db"><path d="M 64.105469 151.355469 L 77.582031 151.355469 L 77.582031 159.996094 L 64.105469 159.996094 Z M 64.105469 151.355469 " clip-rule="nonzero"/></clipPath></defs><g clip-path="url(#7ba99130df)"><path fill="#fce4d4" d="M 12.863281 150.339844 C 12.863281 150.339844 -6.675781 85.851562 2.480469 76.085938 C 4.976562 73.425781 8.738281 73.597656 12.292969 73.765625 C 16.621094 73.972656 20.644531 74.179688 21.707031 69.277344 C 22.621094 65.0625 8.707031 17.230469 19.910156 4.824219 C 33.652344 -10.398438 161.808594 13.449219 177.988281 34.027344 C 194.171875 54.601562 172.320312 151.886719 172.320312 151.886719 L 12.863281 150.339844 " fill-opacity="1" fill-rule="nonzero"/></g><path fill="#edc5b1" d="M 36.585938 56.582031 C 36.585938 56.953125 36.015625 56.949219 36.015625 56.582031 L 36.015625 30.210938 L 35.121094 30.210938 L 35.273438 57.375 L 57.910156 56.914062 L 57.601562 30.210938 L 36.585938 30.210938 L 36.585938 56.582031 " fill-opacity="1" fill-rule="nonzero"/><path fill="#fce4d4" d="M 38.21875 31.894531 L 55.917969 31.894531 L 55.917969 55.230469 L 38.21875 55.230469 L 38.21875 31.894531 " fill-opacity="1" fill-rule="nonzero"/><path fill="#edc5b1" d="M 131.542969 74.421875 C 131.542969 74.773438 130.992188 74.773438 130.992188 74.421875 L 130.992188 53.242188 L 130.09375 53.242188 L 130.242188 75.183594 L 156.28125 74.742188 L 155.984375 53.242188 L 131.542969 53.242188 L 131.542969 74.421875 " fill-opacity="1" fill-rule="nonzero"/><path fill="#fce4d4" d="M 133.121094 54.867188 L 154.355469 54.867188 L 154.355469 73.117188 L 133.121094 73.117188 L 133.121094 54.867188 " fill-opacity="1" fill-rule="nonzero"/><path fill="#edc5b1" d="M 99.554688 46.011719 C 99.554688 46.269531 98.800781 46.269531 98.800781 46.011719 L 98.800781 30.59375 L 98.046875 30.59375 L 98.15625 46.566406 L 117.558594 46.246094 L 117.34375 30.59375 L 99.554688 30.59375 L 99.554688 46.011719 " fill-opacity="1" fill-rule="nonzero"/><path fill="#fce4d4" d="M 100.703125 31.777344 L 116.15625 31.777344 L 116.15625 45.0625 L 100.703125 45.0625 L 100.703125 31.777344 " fill-opacity="1" fill-rule="nonzero"/><path fill="#765c80" d="M 172.71875 153.042969 C 172.71875 151.714844 135.636719 150.636719 89.894531 150.636719 C 44.152344 150.636719 7.070312 151.714844 7.070312 153.042969 C 7.070312 154.371094 44.152344 155.449219 89.894531 155.449219 C 135.636719 155.449219 172.71875 154.371094 172.71875 153.042969 " fill-opacity="1" fill-rule="nonzero"/><path fill="#dae0e8" d="M 19.421875 101.714844 C 14.523438 103.394531 7.945312 104.269531 6.703125 105.144531 C 5.460938 106.023438 5.605469 106.535156 5.605469 106.535156 C 5.605469 106.535156 4.070312 107.628906 3.484375 110.109375 C 2.902344 112.59375 3.046875 119.671875 3.484375 125 C 3.925781 130.332031 6.703125 142.300781 9.773438 147.117188 C 12.84375 151.9375 13.0625 151.9375 13.648438 152.011719 C 14.234375 152.082031 24.320312 152.300781 27.828125 152.375 C 31.339844 152.449219 87.773438 152.449219 88.796875 152.667969 C 89.820312 152.886719 90.015625 150.769531 90.015625 150.769531 C 90.015625 150.769531 90.039062 152.660156 90.769531 152.683594 C 91.5 152.703125 160.363281 151.9375 162.082031 151.9375 C 163.800781 151.9375 165.992188 152.886719 167.453125 151.863281 C 168.917969 150.84375 173.960938 141.863281 175.351562 132.007812 C 176.738281 122.15625 177.03125 114.4375 176.300781 110.59375 C 175.570312 106.753906 174.472656 105.074219 173.742188 104.488281 C 173.011719 103.90625 162.191406 102.300781 161.167969 102.300781 C 160.144531 102.300781 149.433594 99.898438 149.160156 99.492188 C 148.886719 99.085938 148.300781 86.09375 147.789062 85.804688 C 147.277344 85.511719 144.726562 85.65625 140.847656 85.804688 C 139.296875 85.859375 130.777344 85.777344 121.066406 85.699219 C 106.503906 85.574219 89.265625 85.453125 88.871094 85.804688 C 88.210938 86.386719 88.066406 91.496094 88.066406 91.496094 C 88.066406 91.496094 87.480469 86.460938 86.75 86.242188 C 86.019531 86.023438 67.621094 85.488281 53.171875 85.574219 C 38.722656 85.65625 29.363281 85.730469 27.535156 86.242188 C 25.710938 86.75 26.84375 97.917969 26.605469 98.722656 C 26.367188 99.527344 19.421875 101.714844 19.421875 101.714844 " fill-opacity="1" fill-rule="nonzero"/><path fill="#92a9bb" d="M 16.644531 127.21875 C 16.488281 127.21875 16.351562 127.105469 16.324219 126.945312 C 16.300781 126.769531 16.421875 126.609375 16.597656 126.582031 C 23.355469 125.5625 28.890625 125.855469 33.773438 126.113281 C 36.167969 126.238281 38.425781 126.359375 40.464844 126.285156 C 42.972656 126.195312 46.777344 126.269531 50.800781 126.347656 C 56.511719 126.457031 62.417969 126.570312 65.144531 126.226562 C 69.796875 125.632812 88.902344 126.539062 89.710938 126.578125 C 89.890625 126.585938 90.027344 126.738281 90.019531 126.914062 C 90.007812 127.089844 89.863281 127.230469 89.679688 127.21875 C 89.484375 127.210938 69.824219 126.28125 65.226562 126.863281 C 62.449219 127.214844 56.523438 127.101562 50.789062 126.988281 C 46.773438 126.910156 42.976562 126.839844 40.488281 126.929688 C 38.421875 127.003906 36.148438 126.882812 33.738281 126.753906 C 28.886719 126.5 23.386719 126.207031 16.691406 127.21875 L 16.644531 127.21875 " fill-opacity="1" fill-rule="nonzero"/><path fill="#92a9bb" d="M 91.574219 127.21875 C 91.402344 127.21875 91.261719 127.085938 91.253906 126.917969 C 91.242188 126.738281 91.378906 126.585938 91.558594 126.578125 C 104.597656 125.886719 109.023438 125.890625 112.929688 125.890625 C 114.1875 125.890625 115.378906 125.890625 116.789062 125.867188 C 121.539062 125.792969 131.433594 126.015625 137.34375 126.148438 C 138.71875 126.175781 139.90625 126.203125 140.816406 126.222656 C 145.683594 126.324219 161.910156 125.871094 162.074219 125.867188 L 162.082031 125.867188 C 162.253906 125.867188 162.398438 126.003906 162.402344 126.179688 C 162.410156 126.359375 162.269531 126.503906 162.089844 126.511719 C 161.925781 126.515625 145.6875 126.960938 140.800781 126.867188 C 139.894531 126.847656 138.703125 126.820312 137.328125 126.789062 C 131.421875 126.65625 121.535156 126.433594 116.800781 126.511719 C 115.382812 126.53125 114.191406 126.535156 112.929688 126.53125 C 109.027344 126.535156 104.613281 126.53125 91.589844 127.21875 L 91.574219 127.21875 " fill-opacity="1" fill-rule="nonzero"/><path fill="#92a9bb" d="M 90 151.820312 C 89.824219 151.820312 89.679688 151.675781 89.679688 151.5 C 89.691406 143.246094 89.707031 127.492188 89.664062 126.921875 C 89.636719 126.574219 89.644531 125.464844 89.660156 123.933594 C 89.671875 122.210938 89.691406 120.066406 89.664062 118.273438 C 89.660156 118.09375 89.800781 117.949219 89.980469 117.945312 L 89.984375 117.945312 C 90.160156 117.945312 90.304688 118.085938 90.308594 118.261719 C 90.335938 120.0625 90.316406 122.210938 90.304688 123.9375 C 90.292969 125.398438 90.28125 126.550781 90.304688 126.875 C 90.359375 127.609375 90.324219 150.523438 90.324219 151.5 C 90.320312 151.675781 90.179688 151.820312 90 151.820312 " fill-opacity="1" fill-rule="nonzero"/><path fill="#92a9bb" d="M 17.375 151.164062 C 17.210938 151.164062 17.070312 151.035156 17.054688 150.867188 C 16.984375 150.003906 15.300781 129.707031 15.59375 126.148438 C 15.605469 125.96875 15.761719 125.839844 15.941406 125.851562 C 16.117188 125.867188 16.25 126.023438 16.234375 126.199219 C 15.949219 129.707031 17.679688 150.605469 17.695312 150.816406 C 17.710938 150.992188 17.578125 151.148438 17.402344 151.164062 L 17.375 151.164062 " fill-opacity="1" fill-rule="nonzero"/><path fill="#92a9bb" d="M 162.90625 150.890625 L 162.882812 150.890625 C 162.703125 150.878906 162.570312 150.722656 162.582031 150.546875 C 162.597656 150.34375 163.945312 130.214844 163.351562 125.644531 C 163.328125 125.46875 163.453125 125.308594 163.628906 125.285156 C 163.808594 125.261719 163.96875 125.386719 163.992188 125.5625 C 164.589844 130.195312 163.28125 149.757812 163.226562 150.589844 C 163.214844 150.757812 163.074219 150.890625 162.90625 150.890625 " fill-opacity="1" fill-rule="nonzero"/><path fill="#92a9bb" d="M 164.605469 125.542969 C 164.507812 125.542969 164.410156 125.5 164.347656 125.414062 C 164.238281 125.273438 164.265625 125.074219 164.410156 124.964844 C 169.808594 120.847656 173.390625 106.023438 173.429688 105.875 C 173.46875 105.703125 173.644531 105.59375 173.816406 105.636719 C 173.988281 105.679688 174.097656 105.851562 174.054688 106.023438 C 173.90625 106.640625 170.382812 121.222656 164.800781 125.476562 C 164.742188 125.519531 164.671875 125.542969 164.605469 125.542969 " fill-opacity="1" fill-rule="nonzero"/><path fill="#92a9bb" d="M 14.707031 125.980469 C 14.621094 125.980469 14.53125 125.945312 14.46875 125.875 C 8.125 118.886719 5.320312 107.125 5.292969 107.007812 C 5.253906 106.835938 5.359375 106.664062 5.53125 106.621094 C 5.707031 106.582031 5.878906 106.6875 5.921875 106.863281 C 5.945312 106.976562 8.71875 118.578125 14.945312 125.441406 C 15.066406 125.574219 15.054688 125.777344 14.921875 125.894531 C 14.863281 125.953125 14.785156 125.980469 14.707031 125.980469 " fill-opacity="1" fill-rule="nonzero"/><path fill="#92a9bb" d="M 41.023438 151.660156 C 40.941406 151.660156 40.871094 151.597656 40.863281 151.511719 C 40.847656 151.34375 39.441406 134.460938 39.765625 128.386719 C 39.773438 128.296875 39.84375 128.230469 39.9375 128.234375 C 40.023438 128.238281 40.09375 128.316406 40.089844 128.40625 C 39.765625 134.453125 41.171875 151.316406 41.183594 151.484375 C 41.191406 151.574219 41.125 151.652344 41.039062 151.660156 L 41.023438 151.660156 " fill-opacity="1" fill-rule="nonzero"/><path fill="#92a9bb" d="M 65.695312 151.660156 C 65.613281 151.660156 65.539062 151.59375 65.535156 151.507812 C 65.527344 151.359375 64.65625 136.628906 64.546875 128.398438 C 64.546875 128.308594 64.617188 128.234375 64.707031 128.234375 L 64.710938 128.234375 C 64.796875 128.234375 64.871094 128.304688 64.871094 128.394531 C 64.980469 136.617188 65.847656 151.339844 65.855469 151.488281 C 65.863281 151.578125 65.792969 151.652344 65.707031 151.660156 L 65.695312 151.660156 " fill-opacity="1" fill-rule="nonzero"/><path fill="#92a9bb" d="M 115.039062 151.660156 L 115.03125 151.660156 C 114.945312 151.65625 114.875 151.578125 114.878906 151.492188 C 114.886719 151.351562 115.535156 137.269531 115.316406 128.398438 C 115.316406 128.3125 115.386719 128.238281 115.476562 128.234375 C 115.5625 128.234375 115.636719 128.304688 115.640625 128.390625 C 115.855469 137.273438 115.207031 151.367188 115.199219 151.507812 C 115.199219 151.59375 115.125 151.660156 115.039062 151.660156 " fill-opacity="1" fill-rule="nonzero"/><path fill="#92a9bb" d="M 139.273438 150.730469 L 139.25 150.726562 C 139.164062 150.714844 139.101562 150.632812 139.113281 150.546875 C 139.132812 150.417969 140.972656 137.585938 140.648438 128.402344 C 140.644531 128.3125 140.714844 128.238281 140.804688 128.234375 C 140.890625 128.234375 140.96875 128.300781 140.96875 128.390625 C 141.296875 137.605469 139.453125 150.460938 139.433594 150.589844 C 139.421875 150.671875 139.351562 150.730469 139.273438 150.730469 " fill-opacity="1" fill-rule="nonzero"/><path fill="#92a9bb" d="M 40.453125 124.835938 C 40.433594 124.835938 40.410156 124.828125 40.390625 124.824219 C 40.308594 124.789062 40.269531 124.695312 40.300781 124.613281 C 40.679688 123.660156 42.503906 121.296875 45.265625 117.71875 L 46.269531 116.417969 C 46.324219 116.347656 46.425781 116.332031 46.496094 116.386719 C 46.566406 116.441406 46.578125 116.542969 46.523438 116.613281 L 45.523438 117.914062 C 42.777344 121.472656 40.964844 123.824219 40.601562 124.734375 C 40.574219 124.796875 40.515625 124.835938 40.453125 124.835938 " fill-opacity="1" fill-rule="nonzero"/><path fill="#92a9bb" d="M 64.433594 125.160156 C 64.417969 125.160156 64.398438 125.160156 64.382812 125.152344 C 64.296875 125.125 64.253906 125.03125 64.285156 124.949219 C 64.292969 124.921875 65.261719 122.183594 68.796875 116.757812 C 68.84375 116.683594 68.945312 116.660156 69.019531 116.707031 C 69.09375 116.757812 69.113281 116.855469 69.066406 116.929688 C 65.558594 122.320312 64.597656 125.027344 64.585938 125.054688 C 64.5625 125.121094 64.503906 125.160156 64.433594 125.160156 " fill-opacity="1" fill-rule="nonzero"/><path fill="#92a9bb" d="M 115.523438 124.941406 C 115.5 124.941406 115.480469 124.9375 115.457031 124.929688 C 115.386719 124.894531 115.347656 124.816406 115.367188 124.742188 C 115.351562 124.421875 114.148438 121.746094 110.746094 117.324219 C 110.691406 117.253906 110.703125 117.152344 110.773438 117.101562 C 110.847656 117.046875 110.949219 117.058594 111 117.128906 C 114.328125 121.453125 115.832031 124.496094 115.671875 124.847656 C 115.644531 124.910156 115.585938 124.941406 115.523438 124.941406 " fill-opacity="1" fill-rule="nonzero"/><path fill="#92a9bb" d="M 140.058594 125.765625 C 139.984375 125.765625 139.914062 125.707031 139.902344 125.628906 C 139.902344 125.621094 139.765625 124.808594 139.128906 123.484375 C 138.515625 122.210938 137.578125 121.027344 131.027344 117.367188 C 130.949219 117.324219 130.921875 117.226562 130.964844 117.148438 C 131.007812 117.070312 131.105469 117.042969 131.183594 117.085938 C 137.832031 120.800781 138.761719 121.976562 139.417969 123.34375 C 140.078125 124.71875 140.214844 125.542969 140.21875 125.578125 C 140.234375 125.664062 140.175781 125.746094 140.085938 125.761719 L 140.058594 125.765625 " fill-opacity="1" fill-rule="nonzero"/><path fill="#92a9bb" d="M 162.90625 123.484375 C 162.847656 123.484375 162.792969 123.453125 162.761719 123.398438 C 162.382812 122.703125 160.269531 120.566406 148.824219 115.734375 C 148.742188 115.699219 148.703125 115.605469 148.738281 115.523438 C 148.773438 115.441406 148.867188 115.402344 148.949219 115.4375 C 157.195312 118.917969 162.199219 121.691406 163.046875 123.246094 C 163.089844 123.324219 163.058594 123.421875 162.980469 123.464844 C 162.957031 123.476562 162.929688 123.484375 162.90625 123.484375 " fill-opacity="1" fill-rule="nonzero"/><path fill="#92a9bb" d="M 17.011719 124.441406 C 16.980469 124.441406 16.949219 124.433594 16.921875 124.414062 C 16.847656 124.367188 16.828125 124.265625 16.875 124.191406 C 18.226562 122.109375 24.273438 118.820312 27.179688 117.242188 C 27.972656 116.808594 28.546875 116.496094 28.703125 116.386719 C 28.777344 116.332031 28.878906 116.347656 28.929688 116.421875 C 28.980469 116.496094 28.964844 116.59375 28.890625 116.644531 C 28.71875 116.769531 28.164062 117.070312 27.332031 117.523438 C 24.449219 119.089844 18.453125 122.351562 17.144531 124.367188 C 17.113281 124.414062 17.0625 124.441406 17.011719 124.441406 " fill-opacity="1" fill-rule="nonzero"/><path fill="#92a9bb" d="M 27.03125 116.730469 C 26.800781 116.730469 26.636719 116.722656 26.554688 116.710938 C 26.378906 116.683594 26.257812 116.515625 26.285156 116.339844 C 26.316406 116.167969 26.480469 116.046875 26.65625 116.074219 C 27.199219 116.164062 33.480469 115.824219 35.617188 115.59375 C 37.050781 115.4375 40.003906 115.496094 42.609375 115.550781 C 43.695312 115.570312 44.71875 115.59375 45.464844 115.59375 C 46.148438 115.59375 46.765625 115.625 47.421875 115.660156 C 49.121094 115.75 51.050781 115.847656 54.691406 115.375 C 59.820312 114.707031 64.269531 115.496094 66.410156 115.875 C 68.421875 116.234375 72.355469 116.125 75.203125 115.328125 C 77.15625 114.785156 78.671875 115.015625 80.769531 115.335938 C 81.707031 115.476562 82.765625 115.640625 84.039062 115.757812 C 87.121094 116.042969 87.144531 115.929688 87.449219 114.527344 C 87.523438 114.195312 87.613281 113.78125 87.757812 113.304688 C 87.808594 113.132812 87.984375 113.035156 88.15625 113.085938 C 88.328125 113.136719 88.425781 113.316406 88.375 113.488281 C 88.238281 113.941406 88.15625 114.328125 88.082031 114.664062 C 87.691406 116.449219 87.378906 116.714844 83.980469 116.398438 C 82.6875 116.277344 81.617188 116.113281 80.671875 115.96875 C 78.582031 115.652344 77.195312 115.441406 75.378906 115.949219 C 72.757812 116.679688 68.683594 116.933594 66.296875 116.507812 C 64.191406 116.136719 59.804688 115.359375 54.773438 116.011719 C 51.074219 116.496094 49.117188 116.390625 47.390625 116.300781 C 46.742188 116.265625 46.128906 116.234375 45.464844 116.234375 C 44.714844 116.234375 43.6875 116.214844 42.597656 116.191406 C 40.140625 116.144531 37.078125 116.082031 35.6875 116.234375 C 34.058594 116.410156 28.742188 116.730469 27.03125 116.730469 " fill-opacity="1" fill-rule="nonzero"/><path fill="#92a9bb" d="M 109.964844 117.460938 C 109.550781 117.460938 109.105469 117.398438 108.496094 117.3125 C 107.699219 117.203125 106.609375 117.050781 104.933594 116.945312 C 101.03125 116.703125 95.308594 116.714844 92.804688 116.890625 C 90.089844 117.078125 88.96875 116.910156 87.984375 114.351562 C 87.921875 114.183594 88.003906 114 88.167969 113.933594 C 88.335938 113.871094 88.523438 113.953125 88.585938 114.121094 C 89.410156 116.257812 90.113281 116.433594 92.757812 116.25 C 95.285156 116.074219 101.046875 116.0625 104.972656 116.304688 C 106.671875 116.410156 107.777344 116.5625 108.582031 116.675781 C 109.566406 116.8125 110.058594 116.878906 110.648438 116.734375 C 111.902344 116.421875 117.171875 115.644531 121.671875 115.363281 C 125.105469 115.152344 128.464844 115.765625 130.269531 116.097656 C 130.839844 116.203125 131.292969 116.285156 131.453125 116.285156 C 131.742188 116.285156 133.433594 116.136719 135.394531 115.96875 C 138.351562 115.710938 142.03125 115.390625 144.335938 115.261719 C 144.515625 115.261719 144.667969 115.390625 144.675781 115.566406 C 144.6875 115.746094 144.550781 115.898438 144.371094 115.90625 C 142.074219 116.035156 138.246094 116.367188 135.449219 116.609375 C 133.3125 116.792969 131.769531 116.929688 131.453125 116.929688 C 131.234375 116.929688 130.828125 116.855469 130.152344 116.730469 C 128.375 116.40625 125.070312 115.800781 121.710938 116.007812 C 117.246094 116.285156 112.039062 117.046875 110.804688 117.355469 C 110.515625 117.429688 110.246094 117.460938 109.964844 117.460938 " fill-opacity="1" fill-rule="nonzero"/><path fill="#92a9bb" d="M 109.632812 116.257812 L 109.621094 116.257812 C 109.53125 116.25 109.464844 116.175781 109.46875 116.085938 C 109.472656 116.0625 109.613281 113.644531 109.46875 110.261719 C 109.324219 106.867188 109.46875 100.679688 109.46875 100.617188 C 109.46875 100.539062 109.453125 92.238281 108.15625 85.835938 C 108.140625 85.746094 108.195312 85.664062 108.285156 85.644531 C 108.367188 85.628906 108.453125 85.683594 108.472656 85.769531 C 109.777344 92.207031 109.792969 100.539062 109.792969 100.621094 C 109.789062 100.6875 109.648438 106.863281 109.792969 110.25 C 109.9375 113.648438 109.792969 116.082031 109.792969 116.105469 C 109.785156 116.191406 109.714844 116.257812 109.632812 116.257812 " fill-opacity="1" fill-rule="nonzero"/><path fill="#92a9bb" d="M 130.179688 115.453125 L 130.152344 115.453125 C 130.066406 115.4375 130.003906 115.355469 130.019531 115.265625 C 130.023438 115.238281 130.496094 112.320312 130.769531 109.441406 C 131.035156 106.582031 129.59375 100.71875 129.578125 100.660156 L 129.566406 100.617188 L 129.578125 100.578125 C 129.597656 100.511719 131.367188 94.09375 129.066406 85.84375 C 129.042969 85.757812 129.09375 85.671875 129.179688 85.648438 C 129.265625 85.625 129.355469 85.675781 129.378906 85.757812 C 131.605469 93.75 130.050781 100.046875 129.898438 100.621094 C 130.039062 101.191406 131.351562 106.652344 131.089844 109.472656 C 130.816406 112.363281 130.34375 115.289062 130.339844 115.316406 C 130.324219 115.398438 130.257812 115.453125 130.179688 115.453125 " fill-opacity="1" fill-rule="nonzero"/><path fill="#92a9bb" d="M 46.398438 115.308594 C 46.320312 115.308594 46.253906 115.253906 46.238281 115.175781 C 46.230469 115.140625 45.578125 111.476562 45.421875 108.21875 C 45.273438 105.109375 46.140625 101.335938 46.234375 100.945312 C 46.140625 100.410156 45.019531 93.671875 45.578125 85.792969 C 45.585938 85.703125 45.667969 85.636719 45.75 85.640625 C 45.839844 85.648438 45.90625 85.726562 45.898438 85.8125 C 45.324219 93.949219 46.542969 100.851562 46.554688 100.921875 L 46.5625 100.953125 L 46.554688 100.988281 C 46.542969 101.027344 45.589844 104.980469 45.742188 108.203125 C 45.898438 111.441406 46.550781 115.082031 46.554688 115.117188 C 46.570312 115.207031 46.511719 115.289062 46.425781 115.304688 L 46.398438 115.308594 " fill-opacity="1" fill-rule="nonzero"/><path fill="#92a9bb" d="M 66.683594 115.847656 C 66.613281 115.847656 66.546875 115.800781 66.527344 115.730469 C 66.519531 115.691406 65.5 112.03125 65.5 108.90625 C 65.5 106.652344 65.945312 101.289062 65.972656 100.953125 C 65.921875 100.492188 64.855469 90.953125 66.53125 85.753906 C 66.558594 85.667969 66.648438 85.621094 66.734375 85.648438 C 66.816406 85.675781 66.863281 85.765625 66.835938 85.851562 C 65.148438 91.085938 66.285156 100.832031 66.296875 100.929688 L 66.296875 100.960938 C 66.289062 101.019531 65.820312 106.601562 65.820312 108.90625 C 65.820312 111.984375 66.828125 115.605469 66.839844 115.640625 C 66.863281 115.726562 66.8125 115.816406 66.726562 115.839844 L 66.683594 115.847656 " fill-opacity="1" fill-rule="nonzero"/><path fill="#92a9bb" d="M 46.390625 101.113281 L 46.355469 101.105469 C 46.304688 101.089844 41.203125 99.757812 36.527344 99.6875 C 31.832031 99.613281 29.320312 99.683594 29.296875 99.6875 C 29.214844 99.691406 29.132812 99.621094 29.128906 99.53125 C 29.128906 99.441406 29.199219 99.367188 29.285156 99.363281 C 29.3125 99.363281 31.832031 99.292969 36.53125 99.363281 C 41.050781 99.433594 45.957031 100.667969 46.40625 100.785156 C 46.699219 100.742188 48.742188 100.46875 53.859375 100.582031 C 59.277344 100.707031 66.070312 100.789062 66.136719 100.789062 C 66.230469 100.785156 76.046875 100.535156 86.023438 100.789062 C 86.113281 100.789062 86.183594 100.863281 86.179688 100.953125 C 86.175781 101.042969 86.097656 101.113281 86.015625 101.109375 C 76.046875 100.855469 66.238281 101.105469 66.140625 101.109375 C 66.066406 101.109375 59.269531 101.027344 53.851562 100.90625 C 48.453125 100.78125 46.445312 101.105469 46.421875 101.109375 L 46.390625 101.113281 " fill-opacity="1" fill-rule="nonzero"/><path fill="#92a9bb" d="M 91.574219 101.511719 C 91.492188 101.511719 91.425781 101.449219 91.414062 101.367188 C 91.40625 101.28125 91.46875 101.199219 91.558594 101.191406 C 98.285156 100.433594 109.519531 100.460938 109.632812 100.460938 C 109.671875 100.457031 115.089844 99.972656 119.976562 100.0625 C 124.730469 100.144531 129.441406 100.441406 129.730469 100.457031 L 140.042969 99.382812 C 144.234375 98.949219 146.839844 99.847656 146.949219 99.886719 C 147.03125 99.914062 147.074219 100.007812 147.046875 100.089844 C 147.015625 100.171875 146.925781 100.21875 146.839844 100.1875 C 146.816406 100.179688 144.1875 99.273438 140.078125 99.703125 L 129.738281 100.78125 L 129.722656 100.78125 C 129.675781 100.777344 124.847656 100.46875 119.972656 100.382812 C 115.101562 100.292969 109.699219 100.777344 109.644531 100.78125 C 109.636719 100.78125 109.585938 100.78125 109.496094 100.78125 C 108.140625 100.78125 97.886719 100.800781 91.59375 101.511719 L 91.574219 101.511719 " fill-opacity="1" fill-rule="nonzero"/><path fill="#e32d43" d="M 16.1875 95.492188 C 15.628906 97.171875 18.65625 99.640625 18.984375 100.222656 C 19.3125 100.804688 18.269531 102.335938 18.984375 104.085938 C 19.695312 105.839844 20.957031 110.984375 21.394531 112.464844 C 21.835938 113.941406 20.683594 116.078125 20.738281 117.117188 C 20.792969 118.15625 20.144531 120.011719 20.738281 120.398438 C 21.335938 120.785156 24.082031 120.019531 24.960938 119.308594 C 25.835938 118.597656 27.097656 118.488281 29.730469 118.265625 C 32.363281 118.046875 38.835938 118.101562 40.453125 118.101562 C 42.066406 118.101562 43.441406 118.359375 44.945312 118.394531 C 46.453125 118.429688 48.152344 118.648438 48.425781 117.992188 C 48.699219 117.335938 46.890625 114.820312 46.398438 114.488281 C 45.902344 114.160156 45.355469 113.667969 45.136719 112.628906 C 44.917969 111.589844 44.039062 109.398438 44.148438 107.648438 C 44.257812 105.894531 43.867188 101.882812 43.871094 100.386719 C 43.875 98.886719 43.6875 95.984375 43.425781 94.945312 C 43.164062 93.90625 43.21875 93.414062 42.941406 93.195312 C 42.667969 92.972656 39.105469 95.4375 37.351562 95.710938 C 35.597656 95.984375 27.921875 96.039062 26.109375 95.929688 C 24.300781 95.820312 22.164062 95.820312 19.75 95.546875 C 17.339844 95.273438 16.351562 95 16.1875 95.492188 " fill-opacity="1" fill-rule="nonzero"/><path fill="#ffad2b" d="M 165.097656 94.78125 C 163.570312 98.5625 162.191406 102.5 161.039062 105.183594 C 159.886719 107.867188 158.957031 116.023438 159.066406 117.664062 C 159.175781 119.308594 159.339844 120.183594 158.738281 120.675781 C 158.132812 121.167969 152.378906 118.375 149.582031 118.046875 C 146.785156 117.71875 142.65625 116.953125 140.0625 117.226562 C 137.464844 117.5 134.066406 118.648438 133.515625 117.992188 C 132.96875 117.335938 133.132812 115.804688 134.394531 113.503906 C 135.65625 111.203125 136.203125 111.039062 136.972656 108.90625 C 137.738281 106.769531 139.730469 101.125 139.382812 100.386719 C 139.035156 99.652344 138.726562 95.765625 139 94.78125 C 139.273438 93.796875 141.027344 94.234375 142.015625 94.78125 C 143.003906 95.328125 146.125 95.984375 151.445312 96.257812 C 156.765625 96.53125 165.300781 94.273438 165.097656 94.78125 " fill-opacity="1" fill-rule="nonzero"/><path fill="#b5bbcd" d="M 68.875 148.289062 C 68.867188 148.289062 68.859375 148.285156 68.855469 148.28125 C 68.613281 148.140625 67.375 146.992188 65.519531 145.300781 C 65.257812 140.257812 64.933594 133.210938 64.871094 128.394531 C 64.871094 128.304688 64.796875 128.234375 64.710938 128.234375 L 64.707031 128.234375 C 64.617188 128.234375 64.546875 128.308594 64.546875 128.398438 C 64.609375 133.117188 64.921875 139.972656 65.179688 144.992188 C 63.046875 143.050781 60.1875 140.476562 57.109375 137.890625 C 52.976562 134.421875 49.929688 130.148438 48.242188 126.941406 C 49.074219 126.957031 49.925781 126.972656 50.789062 126.988281 C 53.621094 127.042969 56.496094 127.101562 59.019531 127.101562 C 61.605469 127.101562 63.820312 127.042969 65.226562 126.863281 C 66.320312 126.722656 68.269531 126.671875 70.609375 126.671875 C 75.886719 126.671875 83.144531 126.941406 87.007812 127.101562 C 86.898438 130.066406 86.609375 132.554688 86.246094 133.101562 C 85.234375 134.621094 69.710938 148.289062 68.875 148.289062 M 87.027344 126.457031 C 83.167969 126.296875 75.976562 126.023438 70.675781 126.023438 C 68.289062 126.023438 66.28125 126.082031 65.144531 126.226562 C 63.769531 126.398438 61.585938 126.457031 59.027344 126.457031 C 56.511719 126.457031 53.632812 126.402344 50.800781 126.347656 C 49.820312 126.328125 48.851562 126.308594 47.910156 126.292969 C 47.324219 125.101562 46.949219 124.089844 46.796875 123.375 C 46.796875 123.375 57.523438 120.832031 67.667969 118.535156 C 65.050781 122.78125 64.292969 124.925781 64.285156 124.949219 C 64.253906 125.03125 64.296875 125.125 64.382812 125.152344 C 64.398438 125.160156 64.417969 125.160156 64.433594 125.160156 C 64.503906 125.160156 64.5625 125.121094 64.585938 125.054688 C 64.597656 125.03125 65.378906 122.824219 68.109375 118.4375 C 72.488281 117.445312 76.722656 116.511719 79.910156 115.855469 C 80.152344 115.890625 80.40625 115.929688 80.671875 115.96875 C 81.617188 116.113281 82.6875 116.277344 83.980469 116.398438 C 84.761719 116.472656 85.382812 116.511719 85.875 116.511719 C 86.042969 116.511719 86.199219 116.507812 86.339844 116.496094 C 86.953125 118.703125 87.121094 122.847656 87.027344 126.457031 M 85.953125 115.886719 C 85.5 115.886719 84.882812 115.835938 84.039062 115.757812 C 83.195312 115.679688 82.445312 115.582031 81.761719 115.484375 C 83.546875 115.132812 84.789062 114.925781 85.226562 114.925781 C 85.246094 114.925781 85.261719 114.925781 85.277344 114.929688 C 85.617188 114.945312 85.902344 115.292969 86.136719 115.882812 C 86.078125 115.882812 86.019531 115.886719 85.953125 115.886719 " fill-opacity="1" fill-rule="nonzero"/><path fill="#7f92ab" d="M 87.007812 127.101562 C 83.144531 126.941406 75.886719 126.671875 70.609375 126.671875 C 68.269531 126.671875 66.320312 126.722656 65.226562 126.863281 C 63.820312 127.042969 61.605469 127.101562 59.019531 127.101562 C 56.496094 127.101562 53.621094 127.042969 50.789062 126.988281 C 49.925781 126.972656 49.074219 126.957031 48.242188 126.941406 C 48.125 126.71875 48.015625 126.503906 47.910156 126.292969 C 48.851562 126.308594 49.820312 126.328125 50.800781 126.347656 C 53.632812 126.402344 56.511719 126.457031 59.027344 126.457031 C 61.585938 126.457031 63.769531 126.398438 65.144531 126.226562 C 66.28125 126.082031 68.289062 126.023438 70.675781 126.023438 C 75.976562 126.023438 83.167969 126.296875 87.027344 126.457031 C 87.019531 126.675781 87.015625 126.890625 87.007812 127.101562 " fill-opacity="1" fill-rule="nonzero"/><path fill="#7f92ab" d="M 65.519531 145.300781 C 65.40625 145.199219 65.292969 145.09375 65.179688 144.992188 C 64.921875 139.972656 64.609375 133.117188 64.546875 128.398438 C 64.546875 128.308594 64.617188 128.234375 64.707031 128.234375 L 64.710938 128.234375 C 64.796875 128.234375 64.871094 128.304688 64.871094 128.394531 C 64.933594 133.210938 65.257812 140.257812 65.519531 145.300781 " fill-opacity="1" fill-rule="nonzero"/><path fill="#7f92ab" d="M 64.433594 125.160156 C 64.417969 125.160156 64.398438 125.160156 64.382812 125.152344 C 64.296875 125.125 64.253906 125.03125 64.285156 124.949219 C 64.292969 124.925781 65.050781 122.78125 67.667969 118.535156 C 67.816406 118.503906 67.960938 118.46875 68.109375 118.4375 C 65.378906 122.824219 64.597656 125.03125 64.585938 125.054688 C 64.5625 125.121094 64.503906 125.160156 64.433594 125.160156 " fill-opacity="1" fill-rule="nonzero"/><path fill="#7f92ab" d="M 85.875 116.511719 C 85.382812 116.511719 84.761719 116.472656 83.980469 116.398438 C 82.6875 116.277344 81.617188 116.113281 80.671875 115.96875 C 80.40625 115.929688 80.152344 115.890625 79.910156 115.855469 C 80.574219 115.71875 81.195312 115.59375 81.761719 115.484375 C 82.445312 115.582031 83.195312 115.679688 84.039062 115.757812 C 84.882812 115.835938 85.5 115.886719 85.953125 115.886719 C 86.019531 115.886719 86.078125 115.882812 86.136719 115.882812 C 86.210938 116.0625 86.277344 116.269531 86.339844 116.496094 C 86.199219 116.507812 86.042969 116.511719 85.875 116.511719 " fill-opacity="1" fill-rule="nonzero"/><path fill="#b5bbcd" d="M 103.914062 123.335938 C 101.742188 123.335938 99.109375 123.015625 96.570312 121.945312 C 96.570312 121.945312 96.855469 121.15625 97.335938 120.144531 C 100.335938 120.375 105.25 120.664062 105.929688 120.75 C 106.71875 120.847656 111.15625 120.855469 112.347656 120.878906 C 112.347656 120.878906 112.347656 120.878906 112.351562 120.878906 C 112.355469 120.878906 112.355469 120.878906 112.355469 120.878906 C 112.355469 120.878906 112.359375 120.878906 112.359375 120.878906 C 112.488281 120.878906 112.574219 120.882812 112.617188 120.886719 C 112.617188 120.886719 112.617188 120.886719 112.621094 120.886719 C 112.625 120.886719 112.625 120.886719 112.625 120.886719 C 112.625 120.886719 112.628906 120.886719 112.628906 120.886719 C 112.679688 120.890625 112.929688 120.917969 113.335938 120.960938 C 113.722656 121.554688 114.046875 122.089844 114.316406 122.550781 C 113.855469 122.664062 113.539062 122.746094 113.453125 122.785156 C 113.386719 122.8125 113.261719 122.824219 113.097656 122.824219 C 112.761719 122.824219 112.25 122.777344 111.675781 122.730469 C 111.105469 122.683594 110.476562 122.636719 109.898438 122.636719 C 109.382812 122.636719 108.910156 122.675781 108.570312 122.785156 C 107.917969 122.996094 106.164062 123.335938 103.914062 123.335938 M 114.640625 122.46875 C 114.386719 122.03125 114.089844 121.539062 113.742188 121 C 114.9375 121.109375 116.953125 121.261719 119.109375 121.261719 C 119.121094 121.261719 119.136719 121.261719 119.148438 121.261719 C 117.804688 121.695312 115.878906 122.164062 114.640625 122.46875 " fill-opacity="1" fill-rule="nonzero"/><path fill="#7f92ab" d="M 114.316406 122.550781 C 114.046875 122.089844 113.722656 121.554688 113.335938 120.960938 C 113.457031 120.972656 113.59375 120.984375 113.742188 121 C 114.089844 121.539062 114.386719 122.03125 114.640625 122.46875 C 114.523438 122.5 114.417969 122.527344 114.316406 122.550781 " fill-opacity="1" fill-rule="nonzero"/><path fill="#7399c6" d="M 46.796875 123.375 C 48.257812 128.386719 66.308594 141.066406 70.789062 144.160156 C 71.4375 144.609375 71.808594 144.863281 71.808594 144.863281 L 73.859375 142.496094 L 79.367188 136.152344 C 79.367188 136.152344 79.015625 135.804688 78.417969 135.214844 C 77.808594 134.605469 76.929688 133.742188 75.902344 132.726562 C 75.679688 132.5 75.445312 132.269531 75.207031 132.035156 C 70.691406 127.570312 63.984375 120.9375 62.9375 119.890625 C 61.335938 118.292969 57.265625 113.792969 53.339844 114.082031 C 49.414062 114.375 45.40625 118.605469 46.796875 123.375 " fill-opacity="1" fill-rule="nonzero"/><path fill="#e5906b" d="M 83.585938 152.414062 C 83.585938 152.414062 83.277344 150.65625 78.632812 148.339844 C 73.988281 146.023438 83.585938 141.234375 83.585938 141.234375 L 89.546875 148.785156 L 83.585938 152.414062 " fill-opacity="1" fill-rule="nonzero"/><path fill="#efe4da" d="M 82.015625 146.320312 C 83.0625 145.34375 84.425781 144.378906 85.890625 144.152344 L 89.546875 148.785156 L 83.585938 152.414062 C 83.585938 152.414062 83.339844 151.019531 80.007812 149.078125 C 80.515625 148.0625 81.152344 147.121094 82.015625 146.320312 " fill-opacity="1" fill-rule="nonzero"/><path fill="#6c4e4e" d="M 83.074219 156.261719 C 83.074219 156.351562 83.09375 156.453125 83.125 156.566406 C 83.171875 156.734375 83.25 156.925781 83.351562 157.121094 C 83.617188 157.632812 84.027344 158.171875 84.382812 158.4375 C 84.964844 158.875 85.691406 158.730469 88.601562 157.710938 C 91.507812 156.695312 93.980469 154.664062 94.5625 153.648438 C 94.84375 153.15625 94.203125 152.152344 93.339844 151.117188 C 93.207031 150.957031 93.066406 150.796875 92.921875 150.636719 C 92.085938 149.695312 91.148438 148.789062 90.636719 148.273438 C 89.472656 147.113281 87.253906 145.898438 87.253906 145.898438 C 87.253906 145.898438 82.785156 147.695312 82.640625 148.128906 C 82.492188 148.566406 82.929688 148.855469 83.222656 150.453125 C 83.519531 152.082031 83.074219 155.664062 83.074219 156.261719 " fill-opacity="1" fill-rule="nonzero"/><path fill="#4a3333" d="M 83.125 156.566406 C 83.171875 156.734375 83.25 156.925781 83.351562 157.121094 C 85.144531 156.648438 86.902344 156.015625 88.578125 155.234375 C 90.230469 154.464844 92.820312 153.097656 93.339844 151.117188 C 93.207031 150.957031 93.066406 150.796875 92.921875 150.636719 C 92.707031 151.875 91.519531 152.816406 90.539062 153.488281 C 89.597656 154.132812 88.574219 154.636719 87.527344 155.078125 C 86.09375 155.6875 84.621094 156.171875 83.125 156.566406 " fill-opacity="1" fill-rule="nonzero"/><path fill="#4a3333" d="M 84.488281 149.636719 C 84.695312 149.222656 85.277344 148.871094 85.648438 148.605469 C 86.167969 148.234375 86.71875 147.925781 87.308594 147.695312 C 87.589844 147.589844 87.777344 148.042969 87.515625 148.179688 C 87.082031 148.40625 86.652344 148.628906 86.242188 148.894531 C 85.953125 149.085938 85.464844 149.363281 85.171875 149.675781 C 85.789062 149.875 86.785156 149.726562 87.316406 149.671875 C 87.859375 149.621094 88.570312 149.410156 89.097656 149.609375 C 89.222656 149.65625 89.304688 149.753906 89.308594 149.886719 C 89.328125 150.550781 88.46875 151.027344 87.984375 151.34375 C 87.226562 151.84375 86.394531 152.199219 85.519531 152.433594 C 85.195312 152.519531 85.066406 152.035156 85.382812 151.9375 C 86.007812 151.738281 86.617188 151.492188 87.1875 151.167969 C 87.503906 150.992188 88.410156 150.539062 88.664062 150.109375 C 88.390625 150.09375 88.082031 150.160156 87.832031 150.1875 C 87.394531 150.238281 86.957031 150.289062 86.515625 150.300781 C 85.984375 150.316406 85.039062 150.363281 84.59375 150.03125 C 84.460938 149.933594 84.414062 149.792969 84.488281 149.636719 " fill-opacity="1" fill-rule="nonzero"/><path fill="#812b2e" d="M 74.898438 67.027344 C 74.898438 67.027344 77.746094 64.710938 76.277344 61.445312 C 74.703125 57.957031 70.355469 60.71875 70.355469 60.71875 C 70.847656 60.285156 71.433594 58.28125 69.730469 58.363281 C 68.03125 58.445312 65.445312 62.714844 65.445312 62.714844 C 65.445312 62.714844 65.289062 61.976562 64.785156 61.765625 C 63.933594 61.410156 64.3125 63.695312 64.3125 63.695312 C 64.3125 63.695312 62.230469 64.058594 62.015625 65.4375 C 61.804688 66.816406 63.324219 71.230469 64.402344 72.082031 C 65.855469 73.238281 71.574219 70.9375 71.574219 70.9375 L 74.898438 67.027344 " fill-opacity="1" fill-rule="nonzero"/><path fill="#e7926b" d="M 74.949219 66.257812 C 74.949219 66.257812 75.402344 74.164062 73.933594 75.859375 C 73.15625 76.757812 71.03125 76.871094 70.019531 76.757812 C 66.910156 76.410156 64.996094 74.597656 64.882812 71.3125 C 64.882812 71.3125 61.679688 70.730469 63.492188 67.589844 C 64.480469 65.871094 65.890625 68.691406 65.890625 68.691406 C 65.890625 68.691406 66.59375 68.539062 67.0625 66.414062 C 68.429688 67.089844 72.730469 66.164062 73.816406 64.640625 C 73.816406 64.640625 74.0625 65.585938 74.949219 66.257812 " fill-opacity="1" fill-rule="nonzero"/><path fill="#d25c48" d="M 73.300781 71.738281 C 73.3125 71.609375 73.210938 71.488281 73.078125 71.480469 C 72.953125 71.472656 72.824219 71.464844 72.695312 71.453125 C 72.566406 71.445312 72.445312 71.546875 72.4375 71.675781 C 72.425781 71.804688 72.527344 71.925781 72.660156 71.933594 C 72.789062 71.941406 72.914062 71.953125 73.042969 71.960938 C 73.171875 71.96875 73.292969 71.867188 73.300781 71.738281 " fill-opacity="1" fill-rule="nonzero"/><path fill="#812b2e" d="M 71.367188 66.339844 C 71.050781 66.441406 70.71875 66.492188 70.410156 66.609375 C 70.09375 66.730469 69.796875 66.890625 69.484375 67.023438 C 69.207031 67.144531 69.375 67.589844 69.660156 67.46875 C 69.96875 67.335938 70.265625 67.175781 70.582031 67.058594 C 70.894531 66.941406 71.222656 66.886719 71.539062 66.785156 C 71.832031 66.691406 71.65625 66.246094 71.367188 66.339844 " fill-opacity="1" fill-rule="nonzero"/><path fill="#812b2e" d="M 73.996094 67.429688 C 73.949219 67.367188 73.933594 67.28125 73.964844 67.203125 C 74.011719 67.085938 74.144531 67.027344 74.261719 67.074219 C 74.292969 67.085938 74.957031 67.351562 75.449219 67.910156 C 75.535156 68.007812 75.523438 68.152344 75.425781 68.238281 C 75.332031 68.320312 75.183594 68.3125 75.101562 68.214844 C 74.6875 67.742188 74.097656 67.503906 74.09375 67.503906 C 74.054688 67.488281 74.019531 67.460938 73.996094 67.429688 " fill-opacity="1" fill-rule="nonzero"/><path fill="#e7926b" d="M 69.625 90.535156 C 64.339844 89.535156 60.257812 80.121094 60.257812 80.121094 C 60.257812 80.121094 63.121094 77.25 63.722656 76.507812 C 64.476562 75.574219 65.019531 70.71875 65.019531 70.71875 L 65.585938 72.21875 L 67.027344 72.648438 L 70.953125 73.828125 C 70.953125 73.828125 70.960938 74.222656 70.992188 74.761719 C 71.035156 75.566406 71.128906 76.699219 71.292969 77.359375 C 71.308594 77.433594 71.34375 77.507812 71.382812 77.582031 L 71.386719 77.582031 C 71.976562 78.605469 75.683594 81.085938 75.683594 81.085938 C 75.683594 81.085938 74.910156 91.535156 69.625 90.535156 " fill-opacity="1" fill-rule="nonzero"/><path fill="#1a1a1a" d="M 73.25 79.332031 C 72.417969 78.683594 71.632812 78.007812 71.386719 77.582031 L 71.382812 77.582031 C 71.34375 77.507812 71.308594 77.433594 71.292969 77.359375 C 71.128906 76.699219 71.035156 75.566406 70.992188 74.761719 C 70.984375 74.605469 70.976562 74.464844 70.972656 74.339844 C 70.738281 74.085938 70.515625 73.847656 70.3125 73.636719 L 67.027344 72.648438 L 66.355469 72.449219 C 65.894531 72.515625 65.574219 72.585938 65.574219 72.585938 C 66.464844 78.875 71.351562 80.15625 73.25 79.332031 " fill-opacity="1" fill-rule="nonzero"/><path fill="#1a1a1a" d="M 71.382812 77.582031 C 70.769531 77.574219 69.921875 77.425781 68.632812 76.851562 C 66.757812 76.015625 66.285156 73.203125 66.042969 71.417969 C 67.976562 72.449219 66.335938 72.28125 70.992188 74.761719 C 71.035156 75.566406 71.128906 76.699219 71.292969 77.359375 C 71.308594 77.433594 71.34375 77.507812 71.382812 77.582031 " fill-opacity="1" fill-rule="nonzero"/><path fill="#812b2e" d="M 67.949219 66.433594 C 67.949219 66.433594 67.851562 67.445312 66.667969 67.960938 C 66.667969 67.960938 67.121094 71.460938 69.210938 72.410156 C 70.316406 72.914062 71.132812 72.261719 72.367188 72.238281 C 73.566406 72.214844 74.730469 73.171875 74.703125 74.234375 C 74.660156 75.699219 74.207031 79.0625 71 78.207031 C 68 77.410156 66.109375 75.21875 65.574219 72.585938 C 65.480469 72.132812 65.472656 70.40625 65.59375 69.988281 C 65.71875 69.542969 65.988281 68.914062 65.4375 67.730469 C 64.882812 66.546875 66.789062 65.742188 66.789062 65.742188 L 67.949219 66.433594 " fill-opacity="1" fill-rule="nonzero"/><path fill="#1a1a1a" d="M 70.367188 68.929688 C 70.417969 68.964844 70.480469 68.984375 70.550781 68.988281 C 70.761719 69 70.941406 68.835938 70.953125 68.625 L 70.96875 68.273438 C 70.976562 68.0625 70.816406 67.886719 70.601562 67.875 C 70.390625 67.863281 70.210938 68.027344 70.203125 68.238281 L 70.183594 68.589844 C 70.179688 68.730469 70.25 68.859375 70.367188 68.929688 " fill-opacity="1" fill-rule="nonzero"/><path fill="#1a1a1a" d="M 74.265625 69.632812 C 74.320312 69.664062 74.382812 69.6875 74.449219 69.691406 C 74.664062 69.699219 74.84375 69.535156 74.851562 69.324219 L 74.871094 68.976562 C 74.878906 68.765625 74.714844 68.585938 74.503906 68.574219 C 74.292969 68.566406 74.113281 68.730469 74.101562 68.941406 L 74.085938 69.289062 C 74.078125 69.433594 74.152344 69.5625 74.265625 69.632812 " fill-opacity="1" fill-rule="nonzero"/><path fill="#1a1a1a" d="M 73.40625 74.449219 C 72.636719 73.625 70.835938 73.96875 70.835938 73.96875 C 70.835938 73.96875 72.285156 74.25 72.816406 74.714844 C 73.351562 75.175781 73.40625 74.449219 73.40625 74.449219 " fill-opacity="1" fill-rule="nonzero"/><path fill="#802b2e" d="M 47.699219 100.453125 C 47.714844 100.503906 48.617188 100.089844 48.632812 100.117188 C 48.847656 100.5 49.945312 100.765625 51.113281 100.941406 C 52.621094 101.175781 54.25 101.257812 54.25 101.257812 L 64.296875 113.429688 L 74.707031 110.972656 C 74.707031 110.972656 75.394531 103.226562 75.925781 100.929688 C 76.453125 98.632812 76.453125 98.632812 76.453125 98.632812 C 76.453125 98.632812 80.992188 104.425781 81.242188 104.632812 C 81.496094 104.839844 85.277344 91.714844 85.277344 91.714844 C 85.277344 91.714844 81.402344 86.171875 79.375 83.941406 C 77.347656 81.710938 72.867188 79.042969 72.867188 79.042969 C 72.867188 79.042969 72.363281 85.039062 70.769531 86.054688 C 70.769531 86.054688 66.960938 79.09375 63.722656 76.507812 C 63.722656 76.507812 61.046875 78.300781 57.90625 79.066406 C 54.761719 79.832031 50.953125 81.761719 49.375 85.636719 C 47.851562 89.382812 47.230469 99.066406 47.699219 100.453125 " fill-opacity="1" fill-rule="nonzero"/><path fill="#4e0c09" d="M 76.070312 101.742188 L 76.109375 101.753906 C 76.28125 101.78125 76.441406 101.664062 76.46875 101.492188 C 76.472656 101.472656 76.796875 99.464844 77.292969 97.363281 C 77.773438 95.324219 77.070312 90.179688 76.773438 87.984375 L 76.714844 87.550781 C 76.691406 87.378906 76.535156 87.257812 76.363281 87.28125 C 76.191406 87.304688 76.070312 87.460938 76.089844 87.632812 L 76.152344 88.066406 C 76.417969 90.042969 77.132812 95.292969 76.683594 97.21875 C 76.183594 99.347656 75.855469 101.371094 75.851562 101.394531 C 75.824219 101.550781 75.921875 101.699219 76.070312 101.742188 " fill-opacity="1" fill-rule="nonzero"/><path fill="#e3e8ea" d="M 70.113281 94.359375 L 70.144531 94.367188 C 70.273438 94.386719 70.394531 94.300781 70.414062 94.171875 C 70.785156 91.886719 71.195312 87.472656 70.988281 86.554688 C 70.796875 85.695312 69.808594 84.324219 69.769531 84.269531 C 69.695312 84.167969 69.554688 84.140625 69.449219 84.207031 C 68.550781 84.785156 67 86.058594 66.371094 86.582031 C 64.421875 80.175781 61.453125 77.09375 61.324219 76.964844 C 61.234375 76.871094 61.085938 76.871094 60.992188 76.960938 C 60.902344 77.050781 60.898438 77.199219 60.988281 77.292969 C 61.019531 77.324219 64.113281 80.539062 66.019531 87.058594 C 66.066406 87.210938 66.277344 87.277344 66.398438 87.171875 C 66.417969 87.15625 68.375 85.503906 69.515625 84.726562 C 69.785156 85.125 70.394531 86.0625 70.53125 86.660156 C 70.695312 87.394531 70.382812 91.425781 69.949219 94.097656 C 69.933594 94.214844 70.003906 94.324219 70.113281 94.359375 " fill-opacity="1" fill-rule="nonzero"/><path fill="#e3e8ea" d="M 74.050781 87.6875 C 74.089844 87.699219 74.136719 87.703125 74.175781 87.691406 C 74.261719 87.671875 74.328125 87.601562 74.347656 87.515625 C 75.378906 83.082031 74.699219 79.414062 74.691406 79.378906 C 74.667969 79.25 74.542969 79.167969 74.414062 79.191406 C 74.289062 79.214844 74.203125 79.339844 74.226562 79.46875 C 74.234375 79.5 74.851562 82.835938 73.988281 86.964844 L 72.140625 84.898438 C 72.050781 84.800781 71.902344 84.792969 71.804688 84.878906 C 71.710938 84.964844 71.699219 85.113281 71.789062 85.210938 L 73.941406 87.621094 C 73.972656 87.652344 74.011719 87.675781 74.050781 87.6875 " fill-opacity="1" fill-rule="nonzero"/><path fill="#e3e8ea" d="M 59.738281 88.691406 C 59.785156 88.707031 59.835938 88.699219 59.878906 88.667969 C 59.949219 88.617188 59.964844 88.519531 59.910156 88.449219 C 59.898438 88.433594 58.800781 86.964844 57.257812 85.453125 C 55.167969 83.414062 53.304688 82.277344 51.710938 82.070312 C 51.625 82.058594 51.546875 82.121094 51.535156 82.207031 C 51.523438 82.292969 51.585938 82.371094 51.671875 82.378906 C 55.316406 82.851562 59.617188 88.578125 59.660156 88.636719 C 59.679688 88.664062 59.710938 88.683594 59.738281 88.691406 " fill-opacity="1" fill-rule="nonzero"/><path fill="#e3e8ea" d="M 78.238281 91.855469 C 78.320312 91.878906 78.40625 91.832031 78.433594 91.753906 C 78.511719 91.511719 80.34375 85.820312 80.230469 84.519531 C 80.222656 84.429688 80.148438 84.367188 80.0625 84.375 C 79.976562 84.382812 79.910156 84.457031 79.917969 84.542969 C 80.027344 85.785156 78.152344 91.597656 78.136719 91.65625 C 78.109375 91.738281 78.152344 91.828125 78.238281 91.851562 L 78.238281 91.855469 " fill-opacity="1" fill-rule="nonzero"/><path fill="#e3e8ea" d="M 60.203125 97.972656 C 60.238281 97.980469 60.269531 97.984375 60.308594 97.984375 C 60.480469 97.976562 60.613281 97.832031 60.609375 97.660156 C 60.503906 95.117188 60.332031 91.386719 60.332031 91.351562 C 60.320312 91.175781 60.175781 91.042969 60.003906 91.050781 C 59.828125 91.058594 59.695312 91.207031 59.703125 91.378906 C 59.703125 91.417969 59.875 95.144531 59.980469 97.683594 C 59.984375 97.820312 60.078125 97.933594 60.203125 97.972656 " fill-opacity="1" fill-rule="nonzero"/><path fill="#7399c6" d="M 52.214844 114.273438 L 64.535156 129.039062 C 65.171875 128.988281 65.816406 128.882812 66.449219 128.945312 C 67.339844 129.03125 68.246094 128.578125 69.089844 128.308594 C 70.160156 127.964844 66.777344 125.933594 67.855469 125.617188 C 72.796875 124.167969 82.765625 124.558594 82.929688 124.609375 C 82.652344 125.4375 81.253906 127.777344 80.824219 128.539062 C 79.585938 130.742188 78.304688 132.925781 77.019531 135.105469 C 75.742188 137.28125 74.449219 139.453125 73.15625 141.617188 C 72.566406 142.605469 71.980469 143.589844 71.386719 144.574219 C 71.386719 144.574219 71.730469 146.753906 75.589844 147.542969 C 76.070312 147.640625 76.605469 147.71875 77.203125 147.765625 C 82.582031 148.203125 84.765625 147.621094 85.492188 147.1875 C 85.53125 147.164062 85.597656 147.082031 85.691406 146.945312 C 87.382812 144.546875 98.585938 123.902344 98.996094 122.941406 C 99.433594 121.921875 102.921875 112.195312 95.507812 110.308594 C 90.164062 108.949219 82.296875 109.097656 74.707031 110.972656 C 74.582031 111 62.820312 111.640625 62.820312 111.640625 L 52.214844 114.273438 " fill-opacity="1" fill-rule="nonzero"/><path fill="#376b8d" d="M 72.75 142.175781 C 72.851562 142.175781 72.949219 142.125 73.003906 142.03125 C 73.132812 141.808594 85.734375 119.75 87.722656 117.621094 C 87.832031 117.503906 87.824219 117.320312 87.707031 117.210938 C 87.589844 117.101562 87.40625 117.105469 87.296875 117.222656 C 85.261719 119.402344 73.019531 140.832031 72.5 141.742188 C 72.421875 141.882812 72.46875 142.058594 72.609375 142.140625 C 72.652344 142.164062 72.703125 142.175781 72.75 142.175781 " fill-opacity="1" fill-rule="nonzero"/><path fill="#376b8d" d="M 83.386719 123.542969 C 83.492188 123.542969 83.585938 123.464844 83.601562 123.359375 C 83.609375 123.320312 84.171875 119.617188 85.695312 118.238281 C 85.78125 118.15625 85.789062 118.019531 85.707031 117.929688 C 85.628906 117.839844 85.488281 117.832031 85.402344 117.914062 C 83.761719 119.402344 83.195312 123.136719 83.171875 123.292969 C 83.152344 123.414062 83.234375 123.523438 83.355469 123.542969 L 83.386719 123.542969 " fill-opacity="1" fill-rule="nonzero"/><path fill="#376b8d" d="M 77.554688 137.6875 C 81.046875 132.644531 83.519531 126.933594 87.402344 122.148438 C 87.683594 121.800781 87.972656 121.460938 88.265625 121.125 C 88.402344 120.972656 88.539062 120.820312 88.675781 120.671875 C 88.816406 120.519531 89.058594 120.363281 89.027344 120.136719 C 89.007812 119.988281 88.917969 119.851562 88.902344 119.695312 C 88.890625 119.554688 88.90625 119.410156 88.941406 119.273438 C 89.003906 119.027344 89.132812 118.824219 89.3125 118.660156 C 89.175781 118.5625 88.832031 118.585938 88.714844 118.5 C 88.566406 118.390625 88.554688 118.207031 88.664062 118.0625 C 88.84375 117.824219 89.257812 117.699219 89.511719 117.566406 C 89.847656 117.390625 90.191406 117.195312 90.371094 116.859375 C 89.902344 116.769531 89.441406 116.800781 88.976562 116.949219 C 88.8125 117.003906 88.742188 116.746094 88.90625 116.691406 C 89.46875 116.503906 90.03125 116.484375 90.609375 116.621094 C 90.675781 116.636719 90.730469 116.722656 90.707031 116.792969 C 90.480469 117.414062 89.902344 117.6875 89.347656 117.96875 C 89.25 118.023438 88.96875 118.117188 88.949219 118.234375 C 88.933594 118.335938 89.140625 118.320312 89.238281 118.34375 C 89.425781 118.386719 89.574219 118.453125 89.640625 118.644531 C 89.664062 118.707031 89.625 118.769531 89.574219 118.804688 C 89.261719 119.046875 89.113281 119.464844 89.222656 119.847656 C 89.292969 120.109375 89.429688 120.234375 89.246094 120.480469 C 89.046875 120.75 88.777344 120.984375 88.550781 121.238281 C 88.28125 121.539062 88.015625 121.847656 87.757812 122.164062 C 86.796875 123.328125 85.921875 124.5625 85.101562 125.828125 C 83.472656 128.335938 82.042969 130.960938 80.527344 133.53125 C 79.664062 134.996094 78.769531 136.4375 77.796875 137.828125 C 77.695312 137.976562 77.453125 137.835938 77.554688 137.6875 " fill-opacity="1" fill-rule="nonzero"/><path fill="#376b8d" d="M 65.734375 114.617188 C 67.160156 115.492188 68.230469 116.675781 68.894531 118.242188 C 68.953125 118.375 69.179688 118.277344 69.132812 118.144531 C 69.109375 118.082031 69.082031 118.023438 69.058594 117.964844 L 69.0625 117.960938 C 69.363281 117.429688 69.609375 116.867188 69.820312 116.296875 C 69.894531 116.09375 70.027344 115.847656 69.957031 115.628906 C 69.886719 115.410156 69.648438 115.226562 69.496094 115.066406 C 69.117188 114.664062 68.707031 114.28125 68.25 113.984375 C 68.128906 114.011719 68.011719 114.042969 67.890625 114.074219 C 68.367188 114.34375 68.785156 114.726562 69.164062 115.125 C 69.339844 115.308594 69.589844 115.5 69.628906 115.753906 C 69.667969 116 69.539062 116.238281 69.449219 116.46875 C 69.289062 116.863281 69.105469 117.25 68.914062 117.628906 C 68.324219 116.363281 67.324219 115.226562 66.117188 114.519531 C 65.984375 114.554688 65.855469 114.589844 65.734375 114.617188 " fill-opacity="1" fill-rule="nonzero"/><path fill="#334e5c" d="M 77.550781 123.011719 L 66.210938 126.0625 L 58.304688 115.390625 Z M 77.550781 123.011719 " fill-opacity="1" fill-rule="nonzero"/><path fill="#1a1a1a" d="M 81.691406 99.3125 C 81.691406 99.3125 80.363281 104.492188 81.429688 104.75 C 83.417969 105.226562 85.261719 97.746094 85.261719 97.746094 L 81.691406 99.3125 " fill-opacity="1" fill-rule="nonzero"/><path fill="#e5906b" d="M 85.277344 91.714844 C 85.277344 91.714844 87.449219 94.523438 87.9375 94.445312 C 88.382812 94.371094 98.59375 89.789062 102.898438 86.457031 C 103.390625 86.03125 104.046875 85.402344 104.214844 84.949219 C 104.496094 84.199219 103.605469 81.835938 104.375 81.003906 C 104.683594 80.671875 105.058594 80.511719 105.472656 80.355469 C 105.65625 80.285156 105.796875 80.226562 105.992188 80.210938 C 106.042969 80.207031 106.179688 80.234375 106.316406 80.261719 C 106.488281 80.296875 106.667969 80.328125 106.703125 80.304688 C 106.867188 80.171875 106.863281 79.925781 106.917969 79.722656 C 107.183594 78.691406 108.941406 78.816406 109.726562 78.839844 C 109.835938 78.84375 109.960938 78.839844 110.085938 78.832031 C 110.320312 78.816406 110.570312 78.804688 110.75 78.855469 C 111.101562 78.953125 111.300781 79.410156 111.355469 79.730469 C 111.433594 80.167969 111.390625 80.640625 111.597656 81.035156 C 111.707031 81.234375 111.875 81.410156 111.925781 81.632812 C 112.070312 82.234375 111.316406 82.722656 111.332031 83.339844 C 111.34375 83.683594 111.597656 83.988281 111.582031 84.332031 C 111.558594 84.847656 110.953125 85.1875 110.914062 85.703125 C 110.902344 85.839844 110.933594 85.972656 110.941406 86.109375 C 110.96875 86.570312 110.742188 87.003906 110.503906 87.402344 C 110.140625 87.996094 109.765625 88.601562 109.246094 89.066406 C 107.976562 90.210938 106.660156 91.300781 105.34375 92.386719 C 103.441406 94.246094 91.179688 105.910156 85.0625 103.902344 C 83.769531 103.480469 82.464844 102.703125 81.195312 101.726562 C 81.195312 101.726562 82.855469 91.960938 85.277344 91.714844 " fill-opacity="1" fill-rule="nonzero"/><path fill="#da805c" d="M 105.996094 82.4375 C 106.457031 82.296875 106.867188 82.078125 107.273438 81.808594 C 107.582031 81.609375 108.214844 81.292969 107.664062 80.929688 C 107.464844 80.800781 107.253906 80.691406 107.035156 80.601562 C 106.925781 80.550781 106.660156 80.445312 106.671875 80.289062 C 106.683594 80.066406 106.984375 80.09375 107.128906 80.121094 C 107.535156 80.195312 107.917969 80.332031 108.273438 80.539062 C 108.59375 80.71875 109.042969 80.566406 109.375 80.472656 C 109.566406 80.421875 109.757812 80.367188 109.949219 80.316406 C 110.046875 80.289062 110.144531 80.261719 110.242188 80.265625 C 110.34375 80.273438 110.445312 80.320312 110.496094 80.40625 C 110.554688 80.507812 110.519531 80.648438 110.4375 80.738281 C 110.355469 80.828125 110.242188 80.875 110.125 80.910156 C 109.953125 80.960938 109.777344 80.988281 109.601562 81.015625 C 109.4375 81.042969 109.269531 81.066406 109.105469 81.089844 C 109.03125 81.101562 108.957031 81.117188 108.890625 81.152344 C 108.835938 81.1875 108.792969 81.234375 108.75 81.285156 C 108.550781 81.519531 108.351562 81.796875 108.113281 81.996094 C 107.980469 82.109375 107.835938 82.207031 107.6875 82.300781 C 107.542969 82.394531 107.089844 82.636719 107.398438 82.84375 C 107.601562 82.976562 108.375 82.710938 108.613281 82.667969 C 109.035156 82.597656 109.460938 82.523438 109.882812 82.449219 C 110.011719 82.425781 110.140625 82.40625 110.265625 82.441406 C 110.386719 82.480469 110.496094 82.59375 110.480469 82.722656 C 110.460938 82.871094 110.292969 82.949219 110.148438 82.992188 C 109.40625 83.207031 108.605469 83.183594 107.871094 83.425781 C 107.496094 83.550781 107.082031 83.78125 107.066406 84.21875 C 107.054688 84.574219 107.289062 84.679688 107.621094 84.617188 C 107.824219 84.574219 108.035156 84.492188 108.234375 84.433594 C 108.757812 84.277344 109.277344 84.109375 109.804688 83.976562 C 110.179688 83.878906 110.351562 84.457031 109.972656 84.585938 C 109.550781 84.726562 109.125 84.851562 108.699219 84.972656 C 108.402344 85.054688 107.984375 85.074219 107.890625 85.421875 C 107.871094 85.488281 107.863281 85.542969 107.867188 85.59375 C 107.890625 85.652344 107.914062 85.707031 107.933594 85.765625 C 108.207031 86.066406 109.234375 85.730469 109.527344 85.6875 C 109.652344 85.667969 109.828125 85.601562 109.988281 85.585938 C 110.105469 85.574219 110.214844 85.589844 110.289062 85.675781 C 110.898438 86.347656 108.730469 86.460938 108.484375 86.492188 C 108.359375 86.507812 108.230469 86.523438 108.105469 86.523438 C 108.167969 87.007812 108.148438 87.507812 108.066406 87.96875 C 108.003906 88.308594 107.523438 88.21875 107.542969 87.882812 C 107.574219 87.316406 107.523438 86.804688 107.425781 86.277344 C 107.152344 86.039062 107.042969 85.664062 107.167969 85.277344 C 107.125 85.269531 107.078125 85.257812 107.035156 85.242188 C 106.34375 85.015625 106.378906 84.292969 106.628906 83.710938 C 106.425781 83.539062 106.386719 83.253906 106.449219 82.960938 C 106.332031 83 106.210938 83.03125 106.085938 83.046875 C 105.746094 83.09375 105.679688 82.539062 105.996094 82.4375 " fill-opacity="1" fill-rule="nonzero"/><path fill="#fff1df" d="M 86.46875 94.921875 C 86.53125 94.9375 86.601562 94.9375 86.667969 94.914062 C 86.675781 94.910156 87.46875 94.613281 88.359375 94.25 C 88.519531 94.183594 88.597656 94.003906 88.53125 93.839844 C 88.464844 93.683594 88.285156 93.605469 88.125 93.671875 C 87.238281 94.027344 86.457031 94.324219 86.449219 94.328125 C 86.285156 94.386719 86.203125 94.566406 86.265625 94.730469 C 86.300781 94.824219 86.378906 94.894531 86.46875 94.921875 " fill-opacity="1" fill-rule="nonzero"/><path fill="#1a1a1a" d="M 75.589844 147.542969 C 76.070312 147.640625 76.605469 147.71875 77.203125 147.765625 C 82.582031 148.203125 84.765625 147.621094 85.492188 147.1875 C 85.53125 147.164062 85.597656 147.082031 85.691406 146.945312 C 86.132812 144.992188 79.203125 144.183594 79.203125 144.183594 L 75.589844 147.542969 " fill-opacity="1" fill-rule="nonzero"/><path fill="#e5906b" d="M 65.570312 150.378906 L 76.183594 156.769531 C 76.183594 156.769531 76.621094 151.6875 77.058594 150.089844 C 77.246094 149.402344 77.96875 148.257812 78.738281 147.179688 C 79.75 145.746094 80.835938 144.425781 80.835938 144.425781 C 71.894531 142.902344 71.832031 143.832031 71.832031 143.832031 C 71.832031 143.832031 71.367188 144.527344 70.804688 145.261719 C 70.476562 145.695312 70.109375 146.136719 69.785156 146.460938 C 68.914062 147.332031 65.570312 150.378906 65.570312 150.378906 " fill-opacity="1" fill-rule="nonzero"/><path fill="#ffffff" d="M 65.570312 150.378906 L 76.183594 156.769531 C 76.183594 156.769531 76.621094 151.6875 77.058594 150.089844 C 77.246094 149.402344 77.96875 148.257812 78.738281 147.179688 C 78.582031 146.75 78.066406 145.953125 76.332031 145.445312 C 74.75 144.980469 72.339844 145.109375 70.804688 145.261719 C 70.476562 145.695312 70.109375 146.136719 69.785156 146.460938 C 68.914062 147.332031 65.570312 150.378906 65.570312 150.378906 " fill-opacity="1" fill-rule="nonzero"/><path fill="#6c4e4e" d="M 64.277344 151.660156 C 64.1875 152.777344 77.128906 159.601562 77.128906 159.601562 C 77.128906 159.601562 78.4375 158.875 78.585938 157.421875 C 78.6875 156.386719 77.902344 155.574219 77.394531 154.980469 C 77.1875 154.742188 77.027344 154.539062 76.984375 154.375 C 76.964844 154.292969 76.945312 154.210938 76.925781 154.125 C 76.808594 153.582031 76.734375 152.867188 76.984375 151.613281 C 77.277344 150.164062 77.519531 149.523438 77.398438 149.261719 C 77.277344 149 74.339844 146.902344 73.773438 147.082031 C 73.203125 147.257812 71.167969 149 70.152344 148.855469 C 69.132812 148.710938 68.261719 147.695312 67.96875 147.839844 C 67.800781 147.925781 66.632812 148.808594 65.65625 149.757812 C 65.542969 149.863281 65.4375 149.96875 65.332031 150.078125 C 64.757812 150.675781 64.308594 151.261719 64.277344 151.660156 " fill-opacity="1" fill-rule="nonzero"/><g clip-path="url(#a5e1c100db)"><path fill="#1a1a1a" d="M 68.1875 156.625 C 68.1875 156.625 74.003906 160.398438 76.332031 159.964844 C 78.65625 159.527344 77.277344 157.277344 75.3125 156.042969 C 73.640625 154.992188 69.933594 153.863281 68.1875 152.992188 C 66.441406 152.121094 65.28125 151.25 64.550781 151.394531 C 63.824219 151.542969 63.824219 153.429688 68.1875 156.625 " fill-opacity="1" fill-rule="nonzero"/></g><path fill="#4a3333" d="M 65.332031 150.078125 C 65.378906 150.101562 65.429688 150.128906 65.476562 150.152344 L 65.527344 150.183594 C 66.03125 150.457031 66.566406 150.707031 67.113281 150.929688 C 68.246094 151.394531 69.445312 151.726562 70.671875 151.921875 C 70.835938 151.945312 71.003906 151.96875 71.167969 151.992188 C 71.628906 152.0625 72.109375 152.132812 72.570312 152.246094 C 73.144531 152.386719 73.726562 152.621094 74.34375 152.964844 C 75.410156 153.550781 76.417969 154.277344 77.394531 154.980469 C 77.1875 154.742188 77.027344 154.539062 76.984375 154.375 C 76.964844 154.292969 76.945312 154.210938 76.925781 154.125 C 76.050781 153.480469 75.265625 152.976562 74.5 152.554688 C 73.351562 151.929688 72.144531 151.707031 70.902344 151.519531 C 69.597656 151.320312 68.347656 150.976562 67.183594 150.492188 C 66.707031 150.296875 66.21875 150.058594 65.65625 149.757812 C 65.542969 149.863281 65.4375 149.96875 65.332031 150.078125 " fill-opacity="1" fill-rule="nonzero"/><path fill="#4a3333" d="M 74 150.789062 C 74.4375 151.039062 74.871094 151.300781 75.300781 151.5625 C 75.535156 151.699219 75.894531 151.996094 76.222656 152.160156 C 76.1875 152.058594 76.15625 151.960938 76.144531 151.941406 C 76.070312 151.777344 75.984375 151.617188 75.890625 151.460938 C 75.660156 151.078125 75.378906 150.726562 75.054688 150.417969 C 74.675781 150.054688 73.800781 149.6875 73.6875 149.128906 C 73.652344 148.957031 73.765625 148.753906 73.964844 148.765625 C 75.140625 148.824219 76.289062 149.726562 77.117188 150.5 C 77.359375 150.730469 77 151.074219 76.753906 150.863281 C 76.261719 150.441406 75.609375 149.910156 74.929688 149.597656 C 75.082031 149.699219 75.222656 149.792969 75.304688 149.863281 C 75.621094 150.144531 75.902344 150.460938 76.148438 150.808594 C 76.457031 151.238281 77.121094 152.152344 76.867188 152.710938 C 76.824219 152.800781 76.710938 152.851562 76.617188 152.851562 C 76.203125 152.851562 75.824219 152.546875 75.484375 152.34375 C 74.894531 151.988281 74.296875 151.640625 73.714844 151.273438 C 73.410156 151.082031 73.683594 150.613281 74 150.789062 " fill-opacity="1" fill-rule="nonzero"/><path fill="#7399c6" d="M 53.339844 114.082031 C 57.265625 113.792969 61.335938 118.292969 62.9375 119.890625 C 63.949219 120.898438 70.246094 127.132812 74.746094 131.582031 C 73.292969 133.414062 72.035156 135.386719 70.65625 137.28125 C 69.566406 138.777344 68.46875 140.269531 67.335938 141.738281 C 60.476562 136.847656 48.003906 127.507812 46.796875 123.375 C 45.40625 118.605469 49.414062 114.375 53.339844 114.082031 " fill-opacity="1" fill-rule="nonzero"/><path fill="#e3e8ea" d="M 47.699219 100.453125 C 47.714844 100.503906 47.730469 100.542969 47.746094 100.570312 C 47.957031 100.953125 49.050781 101.222656 50.21875 101.410156 L 48.882812 99.488281 C 48.882812 99.488281 48.085938 99.820312 47.699219 100.453125 " fill-opacity="1" fill-rule="nonzero"/><path fill="#e5906b" d="M 78.863281 127.105469 C 78.121094 124.523438 77.335938 122.28125 76.738281 121.328125 C 76.144531 120.371094 73.882812 116.105469 71.074219 114.582031 C 68.304688 113.074219 61.292969 107.710938 59.996094 106.972656 C 59.199219 106.519531 58.867188 102.351562 58.496094 98.683594 C 54.671875 97.738281 50.054688 99.066406 48.832031 99.535156 C 49.523438 103.738281 50.917969 111.660156 51.691406 112.390625 C 52.722656 113.367188 53.335938 113.753906 55.550781 114.65625 C 57.765625 115.554688 67.25 118.730469 67.457031 118.949219 C 67.664062 119.167969 68.035156 120.039062 68.570312 121.015625 C 69.109375 121.988281 70.261719 123.523438 70.675781 124.15625 C 71.09375 124.785156 72.074219 129.609375 72.441406 130.289062 C 72.8125 130.96875 73.191406 130.882812 73.507812 130.675781 C 73.820312 130.46875 73.617188 128.949219 73.304688 128.058594 C 72.992188 127.167969 72.949219 126.417969 73.152344 126.777344 C 73.34375 127.121094 74.1875 130.429688 74.515625 131.1875 C 74.847656 131.945312 75.585938 131.757812 75.804688 131.359375 C 76.019531 130.960938 75.480469 128.875 75.125 127.871094 C 74.773438 126.863281 74.664062 125.828125 74.929688 126.316406 C 75.199219 126.804688 76.183594 129.953125 76.488281 130.628906 C 76.882812 131.511719 77.632812 131.773438 77.761719 131.21875 C 77.890625 130.664062 77.65625 128.894531 77.007812 127.050781 C 76.363281 125.210938 76.613281 125.652344 77.050781 126.535156 C 77.488281 127.414062 77.996094 129.054688 78.304688 129.753906 C 78.617188 130.453125 79.121094 130.601562 79.332031 130.464844 C 79.542969 130.324219 79.609375 129.6875 78.863281 127.105469 " fill-opacity="1" fill-rule="nonzero"/><path fill="#4e0c09" d="M 103.253906 80.035156 C 106.277344 77.882812 109.523438 79.015625 111.277344 80.4375 C 113.03125 81.863281 114.894531 86.03125 116.027344 88.105469 C 117.160156 90.183594 118.621094 91.628906 118.621094 91.628906 C 118.621094 91.628906 112.417969 99.308594 110.878906 99.488281 C 109.339844 99.671875 103.417969 95.4375 102.539062 93.941406 C 101.664062 92.445312 101.675781 91.546875 101.785156 90.050781 C 101.894531 88.554688 100.601562 87.4375 100.859375 85.488281 C 101.179688 83.058594 101.265625 81.453125 103.253906 80.035156 " fill-opacity="1" fill-rule="nonzero"/><path fill="#ffad2b" d="M 115.09375 90.730469 C 118.257812 91.09375 119.644531 90.742188 121.914062 91.410156 C 124.179688 92.082031 125.96875 99.671875 126.117188 99.925781 C 126.261719 100.183594 125.421875 100.839844 124.617188 101.386719 C 123.8125 101.933594 121.378906 102.757812 121.378906 102.757812 C 121.378906 102.757812 121.253906 109.101562 121.144531 110.261719 C 121.035156 111.425781 116.925781 112.734375 116.210938 112.804688 C 115.496094 112.875 106.394531 112.773438 105.929688 112.59375 C 105.464844 112.410156 105.148438 111.496094 105.636719 110.914062 C 106.121094 110.328125 106.648438 109.957031 106.277344 109.414062 C 105.902344 108.871094 105.699219 108.320312 106.277344 107.992188 C 106.855469 107.664062 106.503906 106.898438 106.277344 106.023438 C 106.050781 105.148438 105.71875 102.191406 105.71875 102.191406 L 104.863281 104.914062 C 104.863281 104.914062 103.234375 104.867188 102.796875 104.730469 C 102.359375 104.601562 104.367188 95.1875 104.734375 94.492188 C 105.097656 93.796875 110.585938 92.089844 110.585938 92.089844 L 115.09375 90.730469 " fill-opacity="1" fill-rule="nonzero"/><path fill="#d17f62" d="M 107.96875 93.402344 C 109.136719 97.207031 111.945312 97.757812 113.035156 96.933594 C 114.128906 96.113281 114.601562 95.949219 114.949219 93.832031 C 115.296875 91.714844 115.09375 90.730469 115.09375 90.730469 C 115.09375 90.730469 114.125 89.921875 113.707031 89.433594 C 113.144531 88.777344 112.828125 87.007812 112.828125 87.007812 L 107.96875 93.402344 " fill-opacity="1" fill-rule="nonzero"/><path fill="#1a1a1a" d="M 108.1875 92.519531 C 109.394531 94.453125 110.992188 94.746094 111.914062 94.324219 C 112.839844 93.90625 113.378906 92.761719 113.324219 91.296875 C 113.269531 89.832031 112.792969 87.9375 112.703125 87.847656 C 112.609375 87.753906 108.1875 92.519531 108.1875 92.519531 " fill-opacity="1" fill-rule="nonzero"/><path fill="#1a1a1a" d="M 103.839844 104.199219 C 104.488281 104.488281 104.488281 104.488281 104.488281 104.488281 C 104.488281 104.488281 104.789062 104.589844 104.859375 104.882812 C 104.933594 105.175781 104.148438 105.230469 103.839844 105.230469 C 103.527344 105.230469 103.839844 104.199219 103.839844 104.199219 " fill-opacity="1" fill-rule="nonzero"/><path fill="#e5906b" d="M 104.996094 90.832031 C 104.183594 92.226562 103.199219 95.046875 102.59375 96.003906 C 101.992188 96.960938 99.003906 102.246094 98.042969 104.679688 C 97.085938 107.117188 97.523438 109.664062 98.894531 110.566406 C 100.265625 111.46875 101.691406 110.375 102.210938 109.910156 C 102.730469 109.445312 104.488281 104.488281 104.488281 104.488281 L 103.691406 104.132812 C 103.691406 104.132812 103.992188 101.398438 104.269531 99.535156 C 104.542969 97.675781 104.679688 96.769531 104.816406 96.632812 C 104.953125 96.496094 105.640625 95.921875 105.832031 95.59375 C 106.023438 95.265625 106.078125 95.128906 106.078125 95.128906 C 106.078125 95.128906 105.910156 95.539062 106.570312 95.347656 C 107.226562 95.15625 108.652344 92.964844 108.570312 92.855469 C 108.488281 92.746094 105.574219 90.347656 105.355469 90.382812 C 105.136719 90.421875 104.996094 90.832031 104.996094 90.832031 " fill-opacity="1" fill-rule="nonzero"/><path fill="#d25c48" d="M 105.929688 95.570312 C 105.90625 95.570312 105.882812 95.566406 105.859375 95.554688 C 105.785156 95.515625 105.757812 95.425781 105.792969 95.351562 C 106.050781 94.851562 106.21875 94.433594 106.355469 94.097656 C 106.601562 93.492188 106.75 93.128906 107.101562 92.964844 C 107.316406 92.867188 107.433594 92.949219 107.484375 93.003906 C 107.722656 93.269531 107.402344 94.035156 107.292969 94.21875 C 107.25 94.289062 107.160156 94.3125 107.089844 94.273438 C 107.015625 94.230469 106.992188 94.136719 107.035156 94.066406 C 107.175781 93.824219 107.304688 93.355469 107.269531 93.222656 C 107.257812 93.226562 107.246094 93.230469 107.226562 93.238281 C 106.984375 93.351562 106.851562 93.675781 106.636719 94.210938 C 106.496094 94.550781 106.324219 94.976562 106.0625 95.488281 C 106.035156 95.539062 105.984375 95.570312 105.929688 95.570312 " fill-opacity="1" fill-rule="nonzero"/><path fill="#d25c48" d="M 104.3125 96.9375 C 104.027344 96.9375 103.824219 96.878906 103.8125 96.875 C 103.734375 96.851562 103.6875 96.765625 103.710938 96.6875 C 103.738281 96.605469 103.820312 96.5625 103.902344 96.585938 C 103.90625 96.589844 104.289062 96.703125 104.722656 96.585938 C 104.804688 96.5625 104.882812 96.613281 104.90625 96.691406 C 104.925781 96.769531 104.878906 96.851562 104.800781 96.875 C 104.625 96.921875 104.457031 96.9375 104.3125 96.9375 " fill-opacity="1" fill-rule="nonzero"/><path fill="#d25c48" d="M 102.796875 108.34375 C 102.777344 108.34375 102.757812 108.339844 102.738281 108.332031 C 102.664062 108.300781 102.625 108.214844 102.65625 108.136719 C 102.664062 108.121094 103.40625 106.285156 103.6875 103.726562 C 103.699219 103.644531 103.769531 103.578125 103.855469 103.59375 C 103.9375 103.601562 103.996094 103.675781 103.988281 103.757812 C 103.699219 106.359375 102.941406 108.234375 102.9375 108.25 C 102.910156 108.308594 102.855469 108.34375 102.796875 108.34375 " fill-opacity="1" fill-rule="nonzero"/><path fill="#6c4e4e" d="M 105.929688 112.59375 C 105.667969 113.058594 103.410156 112.675781 102.796875 112.347656 C 102.183594 112.015625 100.621094 110.867188 98.015625 110.375 C 95.414062 109.882812 93.714844 109.964844 92.097656 111.140625 C 90.480469 112.320312 90.230469 115.246094 91.191406 116.972656 C 92.152344 118.695312 93.6875 119.738281 95.277344 119.957031 C 96.867188 120.175781 105.039062 120.640625 105.929688 120.75 C 106.816406 120.859375 112.332031 120.859375 112.628906 120.886719 C 112.929688 120.914062 121.320312 121.925781 125.648438 120.503906 C 129.980469 119.082031 130.996094 117.464844 131.652344 115.273438 C 132.3125 113.085938 130.253906 112.183594 128.472656 111.691406 C 126.691406 111.195312 120.167969 112.804688 120.167969 112.804688 L 105.929688 112.59375 " fill-opacity="1" fill-rule="nonzero"/><path fill="#1a1a1a" d="M 125.121094 100.109375 C 125.832031 99.917969 126.296875 100.054688 126.335938 100.109375 C 126.371094 100.164062 126.335938 100.675781 125.292969 101.296875 C 124.25 101.917969 122.882812 101.953125 122.882812 101.953125 L 125.121094 100.109375 " fill-opacity="1" fill-rule="nonzero"/><path fill="#e5906b" d="M 103.636719 84.125 C 103.28125 85.382812 103.253906 86.917969 103.253906 86.917969 C 103.253906 86.917969 104.40625 89.625 105.886719 91.050781 C 107.367188 92.472656 108.378906 93.210938 109.640625 93.375 C 110.902344 93.539062 112.21875 92.882812 112.710938 91.761719 C 113.203125 90.640625 112.765625 87.164062 112.902344 87.191406 C 113.039062 87.21875 113.644531 87.382812 113.835938 86.972656 C 114.027344 86.558594 114.136719 85.082031 113.535156 84.234375 C 112.929688 83.386719 112.355469 83.359375 112.027344 83.496094 C 111.695312 83.632812 111.667969 84.589844 111.667969 84.589844 C 111.667969 84.589844 110.984375 84.398438 110.1875 84.535156 C 109.394531 84.671875 108.789062 84.875 107.53125 85.027344 C 105.5 85.273438 103.636719 84.125 103.636719 84.125 " fill-opacity="1" fill-rule="nonzero"/><path fill="#4e0c09" d="M 107.933594 86.371094 C 107.800781 86.371094 107.660156 86.363281 107.511719 86.347656 C 107.417969 86.335938 107.347656 86.253906 107.359375 86.160156 C 107.371094 86.0625 107.457031 85.992188 107.550781 86.007812 C 108.464844 86.109375 109.09375 85.808594 109.097656 85.804688 C 109.183594 85.761719 109.285156 85.796875 109.328125 85.882812 C 109.371094 85.964844 109.335938 86.070312 109.25 86.113281 C 109.226562 86.125 108.722656 86.371094 107.933594 86.371094 " fill-opacity="1" fill-rule="nonzero"/><path fill="#4e0c09" d="M 104.734375 88.949219 C 104.664062 88.949219 104.597656 88.90625 104.570312 88.832031 C 104.539062 88.746094 104.589844 88.648438 104.675781 88.617188 C 104.710938 88.601562 105.527344 88.308594 105.546875 87.433594 C 105.550781 87.339844 105.628906 87.265625 105.71875 87.265625 L 105.726562 87.265625 C 105.820312 87.265625 105.894531 87.347656 105.890625 87.441406 C 105.863281 88.558594 104.832031 88.925781 104.789062 88.941406 C 104.769531 88.945312 104.75 88.949219 104.734375 88.949219 " fill-opacity="1" fill-rule="nonzero"/><path fill="#d25c48" d="M 108.1875 90.535156 C 108.105469 90.535156 108.039062 90.46875 108.039062 90.386719 C 108.035156 90.304688 108.101562 90.234375 108.183594 90.234375 C 108.710938 90.21875 108.804688 89.902344 108.808594 89.890625 C 108.832031 89.808594 108.914062 89.761719 108.992188 89.785156 C 109.074219 89.804688 109.121094 89.882812 109.101562 89.964844 C 109.09375 89.984375 108.957031 90.511719 108.191406 90.535156 L 108.1875 90.535156 " fill-opacity="1" fill-rule="nonzero"/><path fill="#1a1a1a" d="M 108.957031 92.089844 C 109.402344 91.527344 110.585938 90.914062 110.585938 90.914062 C 110.585938 90.914062 109.996094 90.488281 109.269531 90.941406 C 108.597656 91.359375 108.957031 92.089844 108.957031 92.089844 " fill-opacity="1" fill-rule="nonzero"/><path fill="#1a1a1a" d="M 108.570312 87.273438 C 109.347656 87.363281 109.570312 86.558594 109.847656 86.476562 C 110.121094 86.394531 110.121094 86.625 109.914062 86.886719 C 109.710938 87.148438 109.4375 87.289062 109.148438 87.34375 C 108.71875 87.425781 108.570312 87.273438 108.570312 87.273438 " fill-opacity="1" fill-rule="nonzero"/><path fill="#1a1a1a" d="M 106.257812 88.730469 C 106.0625 89.484375 105.234375 89.40625 105.058594 89.632812 C 104.882812 89.859375 105.097656 89.941406 105.414062 89.84375 C 105.734375 89.746094 105.960938 89.542969 106.121094 89.292969 C 106.347656 88.921875 106.257812 88.730469 106.257812 88.730469 " fill-opacity="1" fill-rule="nonzero"/><path fill="#db7559" d="M 112.757812 86.21875 C 112.507812 86.21875 112.109375 85.066406 112.109375 85.066406 C 112.226562 84.863281 112.363281 84.761719 112.496094 84.761719 C 112.632812 84.761719 112.769531 84.875 112.875 85.109375 C 113.082031 85.5625 113.121094 85.957031 112.804688 86.199219 C 112.792969 86.210938 112.773438 86.21875 112.757812 86.21875 " fill-opacity="1" fill-rule="nonzero"/><path fill="#d25c48" d="M 108.746094 93.300781 C 108.722656 93.300781 108.699219 93.292969 108.675781 93.28125 C 108.65625 93.269531 106.5625 92.1875 104.746094 90.148438 C 104.691406 90.089844 104.695312 89.992188 104.757812 89.9375 C 104.820312 89.882812 104.914062 89.890625 104.96875 89.949219 C 106.75 91.945312 108.792969 93.003906 108.8125 93.015625 C 108.886719 93.054688 108.917969 93.144531 108.878906 93.21875 C 108.851562 93.269531 108.800781 93.300781 108.746094 93.300781 " fill-opacity="1" fill-rule="nonzero"/><path fill="#f09801" d="M 121.070312 102.378906 C 121.011719 102.378906 120.953125 102.339844 120.929688 102.28125 C 119.941406 99.628906 120.125 96.460938 120.265625 95.5625 C 120.277344 95.476562 120.355469 95.421875 120.4375 95.4375 C 120.519531 95.449219 120.574219 95.527344 120.5625 95.605469 C 120.421875 96.488281 120.242188 99.582031 121.210938 102.175781 C 121.242188 102.253906 121.203125 102.339844 121.125 102.367188 C 121.105469 102.375 121.089844 102.378906 121.070312 102.378906 " fill-opacity="1" fill-rule="nonzero"/><path fill="#8e8a95" d="M 112.628906 120.886719 L 112.628906 120.886719 M 112.628906 120.886719 C 112.628906 120.886719 112.625 120.886719 112.625 120.886719 C 112.625 120.886719 112.628906 120.886719 112.628906 120.886719 M 112.625 120.886719 L 112.625 120.886719 M 112.625 120.886719 C 112.625 120.886719 112.625 120.886719 112.621094 120.886719 C 112.625 120.886719 112.625 120.886719 112.625 120.886719 M 112.621094 120.886719 L 112.621094 120.886719 M 112.621094 120.886719 L 112.621094 120.886719 M 112.617188 120.886719 L 112.617188 120.886719 M 112.617188 120.886719 L 112.617188 120.886719 M 112.617188 120.886719 L 112.617188 120.886719 M 112.617188 120.886719 C 112.574219 120.882812 112.488281 120.878906 112.359375 120.878906 C 112.488281 120.878906 112.574219 120.882812 112.617188 120.886719 M 112.355469 120.878906 C 112.355469 120.878906 112.355469 120.878906 112.351562 120.878906 C 112.355469 120.878906 112.355469 120.878906 112.355469 120.878906 M 112.351562 120.878906 C 112.347656 120.878906 112.347656 120.878906 112.347656 120.878906 C 112.347656 120.878906 112.347656 120.878906 112.351562 120.878906 " fill-opacity="1" fill-rule="nonzero"/><path fill="#a6a2a7" d="M 120.167969 112.804688 L 118.160156 112.773438 L 120.167969 112.804688 " fill-opacity="1" fill-rule="nonzero"/><path fill="#604444" d="M 114.488281 121.0625 C 113.421875 120.976562 112.714844 120.894531 112.628906 120.886719 C 112.628906 120.886719 112.625 120.886719 112.625 120.886719 C 112.625 120.886719 112.625 120.886719 112.621094 120.886719 C 112.617188 120.886719 112.617188 120.886719 112.617188 120.886719 C 112.574219 120.882812 112.488281 120.878906 112.359375 120.878906 C 112.359375 120.878906 112.355469 120.878906 112.355469 120.878906 C 112.355469 120.878906 112.355469 120.878906 112.351562 120.878906 C 112.347656 120.878906 112.347656 120.878906 112.347656 120.878906 C 111.898438 120.867188 110.984375 120.863281 109.980469 120.851562 C 110.242188 119 110.777344 116.273438 111.421875 116.003906 C 112.097656 115.722656 115.949219 113.851562 118.160156 112.773438 L 120.167969 112.804688 C 120.214844 112.792969 122 112.355469 123.949219 112.007812 C 124.445312 112.59375 124.527344 113.003906 124.527344 113.003906 C 124.527344 113.003906 115.648438 117.09375 115.554688 117.144531 C 115.457031 117.195312 114.109375 118.3125 114.011719 119.382812 C 113.960938 119.964844 114.238281 120.605469 114.488281 121.0625 " fill-opacity="1" fill-rule="nonzero"/><path fill="#f09801" d="M 105.71875 103.035156 C 105.636719 103.035156 105.570312 102.96875 105.570312 102.882812 C 105.570312 100.171875 105.777344 97.425781 105.777344 97.398438 C 105.785156 97.316406 105.867188 97.253906 105.941406 97.257812 C 106.023438 97.265625 106.085938 97.339844 106.078125 97.421875 C 106.078125 97.449219 105.871094 100.183594 105.871094 102.882812 C 105.871094 102.96875 105.804688 103.035156 105.71875 103.035156 " fill-opacity="1" fill-rule="nonzero"/><path fill="#6a1d1d" d="M 103.050781 93.230469 C 102.976562 93.230469 102.910156 93.175781 102.894531 93.101562 C 102.847656 92.855469 101.734375 87.054688 103.386719 84.046875 C 103.417969 83.992188 103.472656 83.960938 103.527344 83.960938 C 103.554688 83.960938 103.582031 83.96875 103.605469 83.984375 C 103.667969 84.015625 103.699219 84.085938 103.6875 84.152344 C 103.652344 84.132812 103.636719 84.125 103.636719 84.125 C 103.609375 84.214844 103.585938 84.308594 103.5625 84.402344 C 102.121094 87.371094 103.199219 92.980469 103.210938 93.039062 C 103.226562 93.125 103.171875 93.210938 103.082031 93.226562 L 103.050781 93.230469 " fill-opacity="1" fill-rule="nonzero"/><path fill="#af594a" d="M 103.5625 84.402344 C 103.585938 84.308594 103.609375 84.214844 103.636719 84.125 C 103.636719 84.125 103.652344 84.132812 103.6875 84.152344 C 103.683594 84.167969 103.675781 84.1875 103.667969 84.203125 C 103.632812 84.265625 103.597656 84.335938 103.5625 84.402344 " fill-opacity="1" fill-rule="nonzero"/><path fill="#4a3333" d="M 110.011719 117.167969 C 109.984375 117.167969 109.960938 117.164062 109.933594 117.148438 C 109.867188 117.113281 103.054688 113.453125 99.847656 112.15625 C 99.765625 112.125 99.726562 112.03125 99.757812 111.949219 C 99.792969 111.867188 99.886719 111.828125 99.96875 111.859375 C 103.191406 113.160156 110.019531 116.828125 110.085938 116.867188 C 110.167969 116.910156 110.195312 117.007812 110.152344 117.085938 C 110.125 117.140625 110.066406 117.167969 110.011719 117.167969 " fill-opacity="1" fill-rule="nonzero"/><path fill="#4a3333" d="M 109.8125 116.589844 C 109.785156 116.589844 109.761719 116.582031 109.742188 116.5625 C 109.703125 116.53125 106.0625 113.355469 103.898438 112.675781 C 103.839844 112.660156 103.808594 112.597656 103.828125 112.542969 C 103.84375 112.484375 103.902344 112.453125 103.960938 112.472656 C 106.167969 113.164062 109.730469 116.269531 109.882812 116.402344 C 109.925781 116.441406 109.933594 116.511719 109.894531 116.554688 C 109.871094 116.578125 109.84375 116.589844 109.8125 116.589844 " fill-opacity="1" fill-rule="nonzero"/><path fill="#4a3333" d="M 113.453125 118.445312 C 113.394531 118.445312 113.339844 118.417969 113.3125 118.363281 C 113.265625 118.289062 113.292969 118.1875 113.371094 118.144531 C 113.703125 117.960938 121.546875 113.582031 125.089844 112.671875 C 125.175781 112.648438 125.261719 112.703125 125.285156 112.785156 C 125.308594 112.871094 125.253906 112.960938 125.167969 112.984375 C 121.667969 113.882812 113.609375 118.382812 113.53125 118.425781 C 113.503906 118.441406 113.476562 118.445312 113.453125 118.445312 " fill-opacity="1" fill-rule="nonzero"/><path fill="#e5906b" d="M 125.4375 100.042969 C 126.496094 104.347656 126.738281 107.847656 126.699219 109.234375 C 126.664062 110.621094 126.007812 111.460938 123.742188 112.410156 C 121.472656 113.359375 115.664062 116.207031 115.332031 116.351562 C 115.003906 116.496094 114.703125 117.648438 114.011719 118.160156 C 113.324219 118.667969 112.792969 119.328125 112.703125 119.636719 C 112.609375 119.945312 112.445312 120.21875 112.445312 120.3125 C 112.445312 120.402344 112.59375 120.933594 112.773438 121.097656 C 112.957031 121.261719 112.410156 121.550781 112.207031 121.550781 C 112.007812 121.550781 111.824219 121.425781 111.824219 121.425781 C 111.824219 121.425781 111.511719 121.589844 111.113281 121.644531 C 110.710938 121.699219 110.363281 121.460938 110.363281 121.460938 C 110.363281 121.460938 110.253906 121.625 110.070312 121.652344 C 109.886719 121.679688 109.777344 121.652344 109.777344 121.652344 C 109.777344 121.652344 109.34375 122.054688 108.792969 121.917969 C 108.453125 121.835938 107.839844 120.804688 107.804688 120.273438 C 107.765625 119.746094 108.71875 117.429688 109.558594 116.699219 C 110.398438 115.96875 111.3125 115.347656 112.664062 114.5625 C 114.015625 113.777344 120.304688 109.964844 121.125 109.527344 C 121.949219 109.089844 122.496094 108.742188 122.496094 108.742188 L 121.238281 102.007812 C 121.238281 102.007812 121.546875 101.515625 122.882812 100.820312 C 124.214844 100.128906 125.4375 100.042969 125.4375 100.042969 " fill-opacity="1" fill-rule="nonzero"/><path fill="#d25c48" d="M 122.316406 108.855469 C 122.257812 108.855469 122.199219 108.820312 122.175781 108.761719 C 122.144531 108.6875 122.179688 108.597656 122.257812 108.566406 C 123.058594 108.230469 124.21875 108.210938 124.269531 108.210938 L 124.269531 108.207031 C 124.351562 108.207031 124.417969 108.273438 124.421875 108.355469 C 124.421875 108.441406 124.355469 108.507812 124.273438 108.507812 C 124.261719 108.507812 123.121094 108.53125 122.375 108.84375 C 122.355469 108.851562 122.335938 108.855469 122.316406 108.855469 " fill-opacity="1" fill-rule="nonzero"/><path fill="#d25c48" d="M 111.859375 121.722656 C 111.820312 121.722656 111.78125 121.707031 111.753906 121.675781 C 111.140625 121.042969 111.121094 120.972656 111.113281 120.933594 C 111.097656 120.875 111.066406 120.746094 111.273438 119.679688 C 111.292969 119.597656 111.371094 119.546875 111.453125 119.5625 C 111.53125 119.578125 111.585938 119.65625 111.570312 119.738281 C 111.386719 120.671875 111.398438 120.835938 111.40625 120.859375 C 111.429688 120.894531 111.722656 121.210938 111.96875 121.464844 C 112.027344 121.527344 112.027344 121.621094 111.964844 121.679688 C 111.9375 121.707031 111.898438 121.722656 111.859375 121.722656 " fill-opacity="1" fill-rule="nonzero"/><path fill="#d25c48" d="M 110.453125 121.722656 C 110.421875 121.722656 110.386719 121.710938 110.359375 121.6875 C 109.90625 121.3125 109.886719 121.257812 109.871094 121.21875 C 109.835938 121.101562 109.898438 120.445312 110.089844 119.671875 C 110.109375 119.59375 110.1875 119.542969 110.269531 119.5625 C 110.351562 119.582031 110.398438 119.664062 110.378906 119.746094 C 110.203125 120.472656 110.160156 120.980469 110.160156 121.113281 C 110.222656 121.175781 110.398438 121.332031 110.550781 121.457031 C 110.613281 121.507812 110.621094 121.601562 110.570312 121.667969 C 110.539062 121.703125 110.496094 121.722656 110.453125 121.722656 " fill-opacity="1" fill-rule="nonzero"/><path fill="#d25c48" d="M 109.6875 121.835938 C 109.648438 121.835938 109.609375 121.820312 109.578125 121.789062 C 109.117188 121.316406 108.878906 121.007812 108.859375 120.878906 C 108.851562 120.789062 108.824219 120.425781 108.953125 119.542969 C 108.964844 119.460938 109.042969 119.402344 109.125 119.414062 C 109.203125 119.425781 109.261719 119.503906 109.25 119.585938 C 109.152344 120.261719 109.140625 120.683594 109.160156 120.839844 C 109.191406 120.917969 109.511719 121.289062 109.792969 121.582031 C 109.851562 121.640625 109.851562 121.734375 109.792969 121.792969 C 109.761719 121.820312 109.722656 121.835938 109.6875 121.835938 " fill-opacity="1" fill-rule="nonzero"/><path fill="#d25c48" d="M 115.207031 116.777344 C 115.183594 116.777344 115.164062 116.769531 115.140625 116.761719 C 115.066406 116.726562 115.035156 116.636719 115.070312 116.5625 C 115.144531 116.402344 115.007812 116.164062 114.957031 116.09375 C 114.90625 116.027344 114.921875 115.933594 114.988281 115.882812 C 115.054688 115.835938 115.148438 115.851562 115.199219 115.914062 C 115.210938 115.933594 115.503906 116.339844 115.339844 116.6875 C 115.316406 116.742188 115.261719 116.777344 115.207031 116.777344 " fill-opacity="1" fill-rule="nonzero"/></svg>