<svg xmlns="http://www.w3.org/2000/svg" xmlns:xlink="http://www.w3.org/1999/xlink" width="48" zoomAndPan="magnify" viewBox="0 0 36 30.000001" height="40" preserveAspectRatio="xMidYMid meet" version="1.0"><defs><clipPath id="2afdcac49f"><path d="M 0.582031 0 L 35.417969 0 L 35.417969 29 L 0.582031 29 Z M 0.582031 0 " clip-rule="nonzero"/></clipPath></defs><g clip-path="url(#2afdcac49f)"><path fill="#ffffff" d="M 33.515625 6.222656 L 27.652344 6.222656 C 26.59375 6.222656 25.734375 7.082031 25.734375 8.144531 L 25.734375 27.070312 C 25.734375 28.128906 26.59375 28.988281 27.652344 28.988281 L 33.515625 28.988281 C 34.574219 28.988281 35.433594 28.128906 35.433594 27.070312 L 35.433594 8.144531 C 35.433594 7.082031 34.574219 6.222656 33.515625 6.222656 Z M 34.191406 27.070312 C 34.191406 27.445312 33.886719 27.746094 33.515625 27.746094 L 27.652344 27.746094 C 27.277344 27.746094 26.972656 27.441406 26.972656 27.070312 L 26.972656 8.144531 C 26.972656 7.769531 27.277344 7.464844 27.652344 7.464844 L 33.515625 7.464844 C 33.886719 7.464844 34.191406 7.769531 34.191406 8.144531 Z M 20.953125 11.59375 L 15.089844 11.59375 C 14.03125 11.59375 13.167969 12.457031 13.167969 13.515625 L 13.167969 27.070312 C 13.167969 28.128906 14.03125 28.988281 15.089844 28.988281 L 20.953125 28.988281 C 22.011719 28.988281 22.871094 28.128906 22.871094 27.070312 L 22.871094 13.515625 C 22.871094 12.457031 22.011719 11.59375 20.953125 11.59375 Z M 21.628906 27.070312 C 21.628906 27.445312 21.324219 27.746094 20.953125 27.746094 L 15.089844 27.746094 C 14.714844 27.746094 14.410156 27.441406 14.410156 27.070312 L 14.410156 13.515625 C 14.410156 13.140625 14.714844 12.835938 15.089844 12.835938 L 20.953125 12.835938 C 21.324219 12.835938 21.628906 13.140625 21.628906 13.515625 Z M 8.386719 16.964844 L 2.527344 16.964844 C 1.46875 16.964844 0.605469 17.828125 0.605469 18.886719 L 0.605469 27.070312 C 0.605469 28.128906 1.46875 28.988281 2.527344 28.988281 L 8.386719 28.988281 C 9.449219 28.988281 10.308594 28.128906 10.308594 27.070312 L 10.308594 18.886719 C 10.308594 17.828125 9.449219 16.964844 8.386719 16.964844 Z M 9.066406 27.070312 C 9.066406 27.445312 8.761719 27.746094 8.386719 27.746094 L 2.527344 27.746094 C 2.152344 27.746094 1.847656 27.441406 1.847656 27.070312 L 1.847656 18.886719 C 1.847656 18.511719 2.152344 18.207031 2.527344 18.207031 L 8.386719 18.207031 C 8.761719 18.207031 9.066406 18.511719 9.066406 18.886719 Z M 24.523438 0 L 20.019531 0 C 19.675781 0 19.398438 0.277344 19.398438 0.621094 C 19.398438 0.964844 19.675781 1.242188 20.019531 1.242188 L 23.0625 1.242188 L 16.507812 7.542969 L 12.460938 4.550781 C 12.210938 4.363281 11.863281 4.394531 11.644531 4.617188 L 1.808594 14.773438 C 1.570312 15.023438 1.578125 15.414062 1.824219 15.652344 C 1.945312 15.769531 2.101562 15.828125 2.257812 15.828125 C 2.417969 15.828125 2.582031 15.765625 2.703125 15.640625 L 12.160156 5.871094 L 16.191406 8.851562 C 16.4375 9.03125 16.773438 9.007812 16.992188 8.800781 L 23.902344 2.15625 L 23.902344 5.3125 C 23.902344 5.65625 24.179688 5.933594 24.523438 5.933594 C 24.867188 5.933594 25.144531 5.65625 25.144531 5.3125 L 25.144531 0.621094 C 25.144531 0.277344 24.867188 0 24.523438 0 Z M 24.523438 0 " fill-opacity="1" fill-rule="nonzero"/></g></svg>