<svg xmlns="http://www.w3.org/2000/svg" xmlns:xlink="http://www.w3.org/1999/xlink" width="40" zoomAndPan="magnify" viewBox="0 0 30 30.000001" height="40" preserveAspectRatio="xMidYMid meet" version="1.0"><defs><clipPath id="83a22ff889"><path d="M 0.484375 0.277344 L 29.515625 0.277344 L 29.515625 28.585938 L 0.484375 28.585938 Z M 0.484375 0.277344 " clip-rule="nonzero"/></clipPath></defs><path fill="#ffffff" d="M 16.121094 14.546875 L 13.882812 14.546875 C 10.199219 14.546875 7.144531 17.226562 6.558594 20.742188 C 8.878906 23.800781 11.773438 26.230469 15 27.976562 C 18.230469 26.230469 21.125 23.800781 23.441406 20.742188 C 22.859375 17.226562 19.800781 14.546875 16.121094 14.546875 Z M 20.265625 8.550781 C 20.265625 11.460938 17.910156 13.816406 15 13.816406 C 12.09375 13.816406 9.738281 11.460938 9.738281 8.550781 C 9.738281 5.644531 12.09375 3.285156 15 3.285156 C 17.910156 3.285156 20.265625 5.644531 20.265625 8.550781 " fill-opacity="1" fill-rule="nonzero"/><g clip-path="url(#83a22ff889)"><path fill="#ffffff" d="M 14.996094 1.621094 C 10.539062 1.648438 6.125 2.859375 2.246094 5.113281 C 2.203125 5.140625 2.160156 5.164062 2.121094 5.1875 C 1.945312 5.292969 1.84375 5.476562 1.847656 5.675781 C 1.996094 9.875 3.199219 14.027344 5.328125 17.683594 C 5.863281 18.609375 6.460938 19.5 7.09375 20.335938 C 9.242188 23.167969 11.902344 25.480469 15 27.210938 C 18.101562 25.480469 20.761719 23.167969 22.910156 20.335938 C 23.542969 19.5 24.136719 18.609375 24.675781 17.683594 C 26.800781 14.027344 28.003906 9.875 28.15625 5.675781 C 28.160156 5.476562 28.058594 5.292969 27.882812 5.191406 C 27.84375 5.164062 27.800781 5.140625 27.761719 5.117188 C 23.875 2.859375 19.464844 1.648438 14.996094 1.621094 Z M 15 28.738281 L 14.683594 28.566406 C 11.273438 26.722656 8.363281 24.226562 6.027344 21.144531 C 5.359375 20.269531 4.734375 19.332031 4.167969 18.359375 C 1.929688 14.511719 0.664062 10.140625 0.507812 5.71875 C 0.484375 5.03125 0.839844 4.386719 1.4375 4.035156 C 1.480469 4.007812 1.527344 3.980469 1.574219 3.953125 C 5.652344 1.582031 10.296875 0.308594 14.996094 0.28125 C 19.707031 0.308594 24.347656 1.582031 28.429688 3.957031 C 28.472656 3.980469 28.519531 4.007812 28.566406 4.035156 C 29.160156 4.386719 29.519531 5.03125 29.496094 5.71875 C 29.339844 10.140625 28.074219 14.511719 25.835938 18.359375 C 25.269531 19.332031 24.644531 20.269531 23.976562 21.148438 C 21.640625 24.226562 18.726562 26.722656 15.320312 28.566406 L 15 28.738281 " fill-opacity="1" fill-rule="nonzero"/></g></svg>