<svg xmlns="http://www.w3.org/2000/svg" xmlns:xlink="http://www.w3.org/1999/xlink" width="40" zoomAndPan="magnify" viewBox="0 0 30 30.000001" height="40" preserveAspectRatio="xMidYMid meet" version="1.0"><defs><clipPath id="2de9865b28"><path d="M 18 2 L 29.515625 2 L 29.515625 29.03125 L 18 29.03125 Z M 18 2 " clip-rule="nonzero"/></clipPath><clipPath id="4fbb8404d1"><path d="M 0.484375 2 L 12 2 L 12 29.03125 L 0.484375 29.03125 Z M 0.484375 2 " clip-rule="nonzero"/></clipPath></defs><g clip-path="url(#2de9865b28)"><path fill="#ffffff" d="M 27.097656 2.417969 C 25.761719 2.417969 24.675781 3.503906 24.675781 4.839844 L 24.675781 12.703125 C 24.097656 12.730469 23.558594 12.96875 23.144531 13.378906 L 18.628906 17.894531 L 18.628906 29.03125 L 26.492188 29.03125 L 26.492188 22.023438 L 29.515625 19 L 29.515625 4.839844 C 29.515625 3.503906 28.429688 2.417969 27.097656 2.417969 Z M 28.304688 18.5 L 25.28125 21.523438 L 25.28125 27.824219 L 19.839844 27.824219 L 19.839844 18.394531 L 24 14.234375 C 24.207031 14.027344 24.484375 13.910156 24.78125 13.910156 C 25.390625 13.910156 25.886719 14.40625 25.886719 15.015625 C 25.886719 15.3125 25.773438 15.589844 25.5625 15.800781 L 23.039062 18.324219 L 23.894531 19.175781 L 26.417969 16.65625 C 26.855469 16.21875 27.097656 15.636719 27.097656 15.015625 C 27.097656 14.140625 26.605469 13.375 25.886719 12.984375 L 25.886719 4.839844 C 25.886719 4.171875 26.429688 3.628906 27.097656 3.628906 C 27.765625 3.628906 28.304688 4.171875 28.304688 4.839844 Z M 28.304688 18.5 " fill-opacity="1" fill-rule="nonzero"/></g><g clip-path="url(#4fbb8404d1)"><path fill="#ffffff" d="M 3.507812 29.03125 L 11.371094 29.03125 L 11.371094 17.894531 L 6.855469 13.378906 C 6.441406 12.96875 5.902344 12.730469 5.324219 12.703125 L 5.324219 4.839844 C 5.324219 3.503906 4.238281 2.417969 2.902344 2.417969 C 1.570312 2.417969 0.484375 3.503906 0.484375 4.839844 L 0.484375 19 L 3.507812 22.023438 Z M 1.695312 18.5 L 1.695312 4.839844 C 1.695312 4.171875 2.234375 3.628906 2.902344 3.628906 C 3.570312 3.628906 4.113281 4.171875 4.113281 4.839844 L 4.113281 12.984375 C 3.394531 13.375 2.902344 14.140625 2.902344 15.015625 C 2.902344 15.636719 3.144531 16.21875 3.582031 16.65625 L 6.105469 19.175781 L 6.960938 18.324219 L 4.4375 15.800781 C 4.226562 15.589844 4.113281 15.3125 4.113281 15.015625 C 4.113281 14.40625 4.609375 13.910156 5.21875 13.910156 C 5.515625 13.910156 5.792969 14.027344 6 14.234375 L 10.160156 18.394531 L 10.160156 27.824219 L 4.71875 27.824219 L 4.71875 21.523438 Z M 1.695312 18.5 " fill-opacity="1" fill-rule="nonzero"/></g><path fill="#ffffff" d="M 21.089844 6.839844 C 22.644531 5.277344 22.644531 2.734375 21.089844 1.175781 C 20.335938 0.417969 19.332031 0 18.265625 0 C 17.199219 0 16.195312 0.417969 15.441406 1.175781 L 15 1.617188 L 14.558594 1.175781 C 13.804688 0.417969 12.800781 0 11.734375 0 C 10.667969 0 9.664062 0.417969 8.910156 1.175781 C 7.355469 2.734375 7.355469 5.277344 8.910156 6.839844 L 15 12.953125 Z M 9.765625 2.027344 C 10.292969 1.5 10.992188 1.210938 11.734375 1.210938 C 12.476562 1.210938 13.175781 1.5 13.699219 2.027344 L 15 3.332031 L 16.300781 2.027344 C 16.824219 1.5 17.523438 1.210938 18.265625 1.210938 C 19.007812 1.210938 19.707031 1.5 20.234375 2.027344 C 21.320312 3.117188 21.320312 4.894531 20.234375 5.984375 L 15 11.238281 L 9.765625 5.984375 C 8.679688 4.894531 8.679688 3.117188 9.765625 2.027344 Z M 9.765625 2.027344 " fill-opacity="1" fill-rule="nonzero"/></svg>