<svg xmlns="http://www.w3.org/2000/svg" xmlns:xlink="http://www.w3.org/1999/xlink" width="40" zoomAndPan="magnify" viewBox="0 0 30 36.750001" height="49" preserveAspectRatio="xMidYMid meet" version="1.0"><defs><clipPath id="24d9ea3d84"><path d="M 0.101562 0 L 29 0 L 29 36.5 L 0.101562 36.5 Z M 0.101562 0 " clip-rule="nonzero"/></clipPath></defs><g clip-path="url(#24d9ea3d84)"><path fill="#ffffff" d="M 14.101562 1.898438 L 14.101562 0.40625 C 14.101562 0 14.722656 0 14.730469 0.40625 L 14.730469 1.890625 C 14.730469 2.304688 14.101562 2.304688 14.101562 1.898438 Z M 8.074219 4.652344 C 8.195312 4.773438 8.394531 4.773438 8.515625 4.652344 C 8.636719 4.53125 8.636719 4.332031 8.515625 4.210938 L 7.460938 3.15625 C 7.175781 2.867188 6.730469 3.3125 7.019531 3.597656 Z M 4.269531 10.871094 L 5.753906 10.871094 C 6.160156 10.871094 6.160156 10.253906 5.753906 10.246094 L 4.269531 10.246094 C 3.855469 10.246094 3.855469 10.867188 4.269531 10.871094 Z M 7.460938 17.957031 L 8.515625 16.902344 C 8.636719 16.78125 8.636719 16.582031 8.515625 16.460938 C 8.394531 16.339844 8.195312 16.339844 8.074219 16.460938 L 7.019531 17.515625 C 6.730469 17.800781 7.175781 18.246094 7.460938 17.957031 Z M 20.757812 4.652344 L 21.8125 3.597656 C 22.101562 3.3125 21.65625 2.867188 21.371094 3.15625 L 20.320312 4.210938 C 20.199219 4.332031 20.199219 4.53125 20.320312 4.652344 C 20.445312 4.777344 20.636719 4.777344 20.757812 4.652344 Z M 23.078125 10.871094 L 24.570312 10.871094 C 24.976562 10.871094 24.976562 10.253906 24.570312 10.246094 L 23.078125 10.246094 C 22.671875 10.246094 22.671875 10.867188 23.078125 10.871094 Z M 20.757812 16.460938 C 20.636719 16.339844 20.4375 16.339844 20.320312 16.460938 C 20.199219 16.582031 20.199219 16.78125 20.320312 16.902344 L 21.371094 17.957031 C 21.65625 18.246094 22.101562 17.800781 21.8125 17.515625 Z M 12.894531 20.542969 C 13.320312 21.050781 14.472656 20.808594 15.171875 20.863281 C 15.761719 20.863281 16.25 20.378906 16.25 19.785156 L 16.25 18.332031 L 12.582031 18.332031 C 12.632812 18.980469 12.390625 20.117188 12.894531 20.542969 Z M 10.242188 6.386719 C 12.332031 4.117188 16.5 4.117188 18.589844 6.386719 C 21.371094 8.996094 20.644531 14.058594 17.191406 15.773438 C 17.082031 15.828125 17.027344 15.9375 17.027344 16.050781 C 16.992188 16.378906 17.140625 17.351562 16.855469 17.550781 C 16.753906 17.65625 16.613281 17.714844 16.457031 17.722656 L 12.375 17.722656 C 12.0625 17.722656 11.804688 17.464844 11.804688 17.152344 L 11.804688 16.050781 C 11.804688 15.921875 11.726562 15.808594 11.613281 15.765625 C 8.179688 14.039062 7.46875 8.988281 10.242188 6.386719 Z M 9.894531 10.617188 C 9.894531 10.957031 10.023438 11.292969 10.269531 11.5625 L 12.84375 14.136719 C 13.378906 14.671875 14.238281 14.671875 14.765625 14.136719 C 14.765625 14.136719 18.539062 10.359375 18.539062 10.359375 C 19.769531 9.089844 17.929688 7.210938 16.636719 8.417969 L 13.804688 11.242188 C 13.804688 11.242188 12.210938 9.648438 12.210938 9.648438 C 11.40625 8.789062 9.851562 9.449219 9.894531 10.617188 Z M 13.285156 13.6875 C 13.429688 13.832031 13.621094 13.902344 13.804688 13.902344 C 13.996094 13.902344 14.179688 13.832031 14.324219 13.6875 L 18.101562 9.914062 C 18.769531 9.238281 17.765625 8.207031 17.070312 8.851562 C 17.070312 8.851562 14.019531 11.902344 14.019531 11.902344 C 13.898438 12.023438 13.699219 12.023438 13.578125 11.902344 L 11.769531 10.097656 C 11.09375 9.429688 10.0625 10.433594 10.710938 11.128906 Z M 2.882812 29.453125 C 2.773438 29.320312 2.546875 28.734375 2.355469 28.714844 C 2.277344 28.695312 2.191406 28.699219 2.128906 28.742188 L 0.292969 29.804688 C 0.152344 29.882812 0.101562 30.066406 0.171875 30.207031 L 3.691406 36.308594 C 3.769531 36.453125 3.957031 36.5 4.097656 36.429688 L 5.941406 35.363281 C 6.011719 35.320312 6.0625 35.257812 6.082031 35.179688 C 6.1875 35.042969 5.613281 34.234375 5.542969 34.054688 Z M 28.558594 25.167969 C 27.777344 24.347656 26.519531 25.367188 25.703125 25.84375 C 24.117188 26.886719 21.746094 28.179688 19.914062 29.3125 C 18.738281 29.738281 15.851562 29.449219 14.496094 29.886719 C 13.613281 30.085938 12.910156 30.359375 12.53125 30.664062 C 12.398438 30.769531 12.203125 30.75 12.097656 30.621094 C 11.699219 29.964844 13.542969 29.496094 14.359375 29.285156 C 15.683594 28.84375 18.527344 29.097656 19.6875 28.734375 C 20.4375 28.4375 20.054688 27.40625 19.550781 27.03125 C 19.167969 26.710938 18.660156 26.539062 18.140625 26.554688 C 16.363281 26.554688 14.117188 26.320312 12.105469 25.769531 C 7.128906 24.347656 7.019531 27.085938 3.542969 29.363281 L 5.910156 33.464844 C 7.382812 32.484375 9.304688 32.425781 11.039062 33.125 C 13.390625 33.84375 16.308594 34.730469 19.507812 32.882812 C 21.351562 31.785156 29.710938 26.710938 28.558594 25.167969 Z M 20.398438 27.050781 C 20.601562 27.355469 20.730469 27.71875 20.722656 28.082031 C 22.730469 26.980469 24.75 25.664062 26.503906 24.640625 C 25.828125 23.523438 24.371094 24.640625 23.53125 25.144531 C 22.636719 25.742188 21.5 26.410156 20.398438 27.050781 Z M 21.519531 24.546875 C 20.835938 25.003906 19.878906 25.570312 19.050781 26.0625 C 19.394531 26.167969 19.714844 26.355469 19.976562 26.574219 C 21.570312 25.699219 22.964844 24.710938 24.414062 23.90625 C 23.683594 23.148438 22.855469 23.738281 21.519531 24.546875 Z M 21.519531 24.546875 " fill-opacity="1" fill-rule="evenodd"/></g></svg>