<svg xmlns="http://www.w3.org/2000/svg" version="1.1" xmlns:xlink="http://www.w3.org/1999/xlink" xmlns:svgjs="http://svgjs.dev/svgjs" width="500" height="500"><svg xmlns="http://www.w3.org/2000/svg" xmlns:xlink="http://www.w3.org/1999/xlink" width="500" zoomAndPan="magnify" viewBox="0 0 375 374.999991" height="500" preserveAspectRatio="xMidYMid meet" version="1.0"><defs><clipPath id="SvgjsClipPath1025"><path d="M 44.824219 34 L 323.554688 34 L 323.554688 356.820312 L 44.824219 356.820312 Z M 44.824219 34 " clip-rule="nonzero"></path></clipPath><clipPath id="SvgjsClipPath1024"><path d="M 33 34 L 254 34 L 254 305 L 33 305 Z M 33 34 " clip-rule="nonzero"></path></clipPath><clipPath id="SvgjsClipPath1023"><path d="M -28.042969 204.132812 L 119.269531 -3.25 L 313.957031 135.046875 L 166.644531 342.429688 Z M -28.042969 204.132812 " clip-rule="nonzero"></path></clipPath><clipPath id="SvgjsClipPath1022"><path d="M -28.042969 204.132812 L 119.269531 -3.25 L 313.957031 135.046875 L 166.644531 342.429688 Z M -28.042969 204.132812 " clip-rule="nonzero"></path></clipPath><clipPath id="SvgjsClipPath1021"><path d="M 184 64 L 268 64 L 268 230 L 184 230 Z M 184 64 " clip-rule="nonzero"></path></clipPath><clipPath id="SvgjsClipPath1020"><path d="M 223.367188 50.921875 L 271.644531 217.101562 L 215.144531 233.515625 L 166.867188 67.335938 Z M 223.367188 50.921875 " clip-rule="nonzero"></path></clipPath><clipPath id="SvgjsClipPath1019"><path d="M 223.367188 50.921875 L 271.644531 217.101562 L 215.144531 233.515625 L 166.867188 67.335938 Z M 223.367188 50.921875 " clip-rule="nonzero"></path></clipPath><clipPath id="SvgjsClipPath1018"><path d="M 56 65 L 230 65 L 230 159 L 56 159 Z M 56 65 " clip-rule="nonzero"></path></clipPath><clipPath id="SvgjsClipPath1017"><path d="M 55.070312 66.941406 L 228.257812 62.265625 L 230.746094 154.484375 L 57.558594 159.160156 Z M 55.070312 66.941406 " clip-rule="nonzero"></path></clipPath><clipPath id="SvgjsClipPath1016"><path d="M 228.210938 62.269531 L 55.023438 66.945312 L 57.511719 159.160156 L 230.699219 154.484375 Z M 228.210938 62.269531 " clip-rule="nonzero"></path></clipPath><clipPath id="SvgjsClipPath1015"><path d="M 228.210938 62.269531 L 55.023438 66.945312 L 57.511719 159.160156 L 230.699219 154.484375 Z M 228.210938 62.269531 " clip-rule="nonzero"></path></clipPath></defs><g clip-path="url(#3bf1df7ba2)"><path fill="#ff8500" d="M 44.734375 173.203125 C 44.933594 96.199219 109.386719 32.945312 186.375 34.15625 C 259.714844 35.304688 319.296875 93.097656 323.328125 165.722656 L 323.554688 356.699219 C 308.433594 302.972656 250.90625 313.3125 208.613281 311.816406 L 203.648438 311.644531 C 197.273438 312.535156 190.761719 313.007812 184.140625 313.007812 C 174.097656 313.007812 164.3125 311.9375 154.875 309.925781 L 151.578125 309.175781 C 90.183594 294.476562 44.5625 239.160156 44.734375 173.210938 Z M 44.734375 173.203125 " fill-opacity="1" fill-rule="evenodd"></path></g><g clip-path="url(#6d44a5a076)"><g clip-path="url(#44ae9923b1)"><g clip-path="url(#dd7b241c0d)"><path fill="#8daa64" d="M 58.113281 82.859375 L 56.425781 85.296875 C 50.867188 94.019531 47.230469 100.433594 45.511719 104.542969 C 44.640625 106.25 43.390625 109.640625 41.761719 114.714844 L 37.914062 121.453125 L 35.519531 128.8125 C 33.3125 138.226562 33.351562 150.085938 35.632812 164.398438 C 40.363281 188.839844 46.207031 208.226562 53.15625 222.5625 C 56.792969 230.640625 60.867188 238.371094 65.378906 245.753906 C 67.085938 249.878906 74.835938 260.164062 88.632812 276.601562 C 109.9375 298.5 132.933594 307.304688 157.621094 303.003906 C 182.324219 299.320312 205.511719 284.226562 227.175781 257.722656 C 245.273438 230.488281 254.121094 195.582031 253.726562 153.011719 C 250.820312 119.542969 238.269531 91.445312 216.074219 68.714844 C 215.335938 67.28125 210.984375 63.511719 203.019531 57.414062 L 193.914062 51.054688 C 187.890625 47.15625 181.953125 43.953125 176.105469 41.441406 C 164.414062 36.414062 153.074219 34.152344 142.09375 34.652344 C 107.425781 38.226562 79.429688 54.292969 58.113281 82.859375 " fill-opacity="1" fill-rule="nonzero"></path></g></g></g><g clip-path="url(#fdf14086d7)"><g clip-path="url(#68d6da7b34)"><g clip-path="url(#fae66d2c77)"><path fill="#8daa64" d="M 214.21875 74.8125 C 214.355469 75.273438 214.519531 75.730469 214.707031 76.175781 L 266.4375 200.886719 C 266.640625 201.367188 266.8125 201.859375 266.960938 202.359375 C 267.109375 202.855469 267.230469 203.363281 267.328125 203.875 C 267.421875 204.386719 267.492188 204.902344 267.53125 205.421875 C 267.574219 205.941406 267.589844 206.460938 267.574219 206.980469 C 267.5625 207.5 267.523438 208.019531 267.457031 208.535156 C 267.390625 209.050781 267.296875 209.5625 267.175781 210.070312 C 267.054688 210.574219 266.910156 211.074219 266.738281 211.566406 C 266.5625 212.058594 266.367188 212.539062 266.144531 213.007812 C 265.921875 213.480469 265.675781 213.9375 265.402344 214.382812 C 265.132812 214.828125 264.839844 215.257812 264.523438 215.671875 C 264.210938 216.085938 263.875 216.480469 263.515625 216.859375 C 263.160156 217.242188 262.785156 217.601562 262.390625 217.941406 C 261.996094 218.28125 261.585938 218.597656 261.15625 218.894531 C 260.730469 219.191406 260.285156 219.464844 259.832031 219.714844 C 259.375 219.96875 258.90625 220.195312 258.425781 220.394531 C 257.945312 220.597656 257.457031 220.773438 256.957031 220.925781 L 230.527344 228.910156 C 230.03125 229.058594 229.527344 229.183594 229.015625 229.28125 C 228.503906 229.378906 227.988281 229.449219 227.46875 229.496094 C 226.949219 229.539062 226.429688 229.554688 225.910156 229.546875 C 225.390625 229.535156 224.871094 229.496094 224.355469 229.433594 C 223.839844 229.367188 223.324219 229.277344 222.820312 229.160156 C 222.3125 229.042969 221.8125 228.898438 221.320312 228.726562 C 220.828125 228.558594 220.347656 228.363281 219.875 228.140625 C 219.402344 227.921875 218.945312 227.675781 218.5 227.40625 C 218.050781 227.140625 217.621094 226.847656 217.207031 226.535156 C 216.789062 226.222656 216.390625 225.886719 216.011719 225.53125 C 215.628906 225.175781 215.269531 224.804688 214.929688 224.410156 C 214.585938 224.015625 214.265625 223.609375 213.96875 223.179688 C 213.667969 222.753906 213.390625 222.3125 213.140625 221.859375 C 212.886719 221.402344 212.660156 220.9375 212.453125 220.457031 C 212.25 219.980469 212.070312 219.492188 211.917969 218.992188 C 211.765625 218.496094 211.640625 217.992188 211.539062 217.480469 L 185.539062 84.976562 C 185.449219 84.511719 185.378906 84.039062 185.332031 83.566406 L 185.050781 80.640625 C 183.273438 62.679688 208.949219 57.546875 214.21875 74.8125 Z M 214.21875 74.8125 " fill-opacity="1" fill-rule="nonzero"></path></g></g></g><g clip-path="url(#0d7e586dab)"><g clip-path="url(#e36a47048e)"><g clip-path="url(#5b3b34bd2b)"><g clip-path="url(#5a8ed3d8b3)"><path fill="#ffffff" d="M 85.660156 98.742188 C 87.144531 98.703125 88.597656 98.777344 90.019531 98.941406 C 91.242188 80.429688 106.382812 65.558594 125.300781 65.046875 C 137.050781 64.730469 147.648438 70.039062 154.53125 78.515625 C 157.175781 77.65625 159.984375 77.15625 162.910156 77.074219 C 176.121094 76.71875 187.554688 85.019531 191.78125 96.835938 C 194.167969 96.140625 196.691406 95.734375 199.289062 95.664062 C 215.742188 95.230469 229.449219 108.207031 229.894531 124.671875 C 230.339844 141.136719 217.351562 154.832031 200.898438 155.277344 L 87.269531 158.34375 C 70.804688 158.789062 57.105469 145.800781 56.664062 129.347656 C 56.21875 112.894531 69.207031 99.1875 85.660156 98.742188 Z M 85.660156 98.742188 " fill-opacity="1" fill-rule="nonzero"></path></g></g></g></g></svg><style>@media (prefers-color-scheme: light) { :root { filter: none; } }
@media (prefers-color-scheme: dark) { :root { filter: none; } }
</style></svg>