<svg xmlns="http://www.w3.org/2000/svg" xmlns:xlink="http://www.w3.org/1999/xlink" width="163" zoomAndPan="magnify" viewBox="0 0 122.25 105.749997" height="141" preserveAspectRatio="xMidYMid meet" version="1.0"><defs><clipPath id="1c1945ae6e"><path d="M 65 102 L 85 102 L 85 105.304688 L 65 105.304688 Z M 65 102 " clip-rule="nonzero"/></clipPath></defs><path fill="#b7aea9" d="M 15.957031 9.402344 C 15.523438 9.359375 15.035156 9.671875 15.039062 10.109375 C 15.046875 10.410156 15.273438 10.71875 15.144531 10.992188 C 15.035156 11.214844 14.730469 11.273438 14.5 11.1875 C 14.269531 11.097656 14.101562 10.90625 13.941406 10.71875 L 12.050781 8.511719 C 11.6875 8.085938 11.070312 7.628906 10.640625 7.984375 C 9.945312 8.554688 11.230469 9.867188 10.597656 10.5 C 10.210938 10.882812 9.578125 10.558594 9.039062 10.503906 C 7.984375 10.390625 7.097656 11.566406 7.269531 12.613281 C 7.441406 13.660156 8.410156 14.445312 9.445312 14.679688 C 9.890625 14.777344 10.460938 14.882812 10.574219 15.328125 C 10.667969 15.695312 10.371094 16.03125 10.207031 16.371094 C 9.882812 17.042969 10.117188 17.9375 10.730469 18.363281 C 11.34375 18.789062 12.261719 18.699219 12.78125 18.164062 C 13.125 17.804688 13.300781 17.289062 13.707031 17.003906 C 14.117188 16.722656 14.894531 16.992188 14.746094 17.46875 C 14.691406 17.652344 14.515625 17.773438 14.441406 17.949219 C 14.246094 18.414062 14.816406 18.832031 15.304688 18.9375 C 17.738281 19.464844 20.308594 17.355469 20.105469 14.800781 C 19.976562 13.175781 17.691406 9.558594 15.957031 9.402344 Z M 15.957031 9.402344 " fill-opacity="1" fill-rule="nonzero"/><path fill="#b7aea9" d="M 16.734375 15.511719 C 18.921875 16.140625 21.921875 16.609375 25.0625 15.925781 L 25.128906 16.164062 C 24.148438 16.378906 23.15625 16.496094 22.152344 16.511719 C 20.390625 16.542969 18.546875 16.285156 16.667969 15.75 C 13.472656 14.832031 11.253906 13.398438 11.230469 13.382812 C 11.164062 13.339844 11.152344 13.28125 11.195312 13.214844 C 11.238281 13.144531 11.296875 13.132812 11.367188 13.175781 C 11.386719 13.191406 13.574219 14.605469 16.734375 15.511719 Z M 16.734375 15.511719 " fill-opacity="1" fill-rule="nonzero"/><path fill="#b7aea9" d="M 25.273438 7.222656 C 25.089844 6.964844 24.6875 6.839844 24.449219 7.050781 C 24.285156 7.195312 24.222656 7.46875 24.007812 7.523438 C 23.835938 7.570312 23.65625 7.429688 23.597656 7.261719 C 23.539062 7.089844 23.566406 6.90625 23.59375 6.730469 L 23.921875 4.644531 C 23.984375 4.242188 23.945312 3.6875 23.546875 3.617188 C 22.90625 3.503906 22.785156 4.828125 22.136719 4.777344 C 21.746094 4.746094 21.625 4.246094 21.402344 3.921875 C 20.964844 3.285156 19.898438 3.347656 19.398438 3.9375 C 18.902344 4.527344 18.925781 5.433594 19.285156 6.117188 C 19.441406 6.410156 19.652344 6.773438 19.460938 7.046875 C 19.300781 7.273438 18.976562 7.265625 18.710938 7.335938 C 18.183594 7.476562 17.804688 8.027344 17.855469 8.566406 C 17.910156 9.105469 18.394531 9.570312 18.933594 9.601562 C 19.296875 9.625 19.664062 9.476562 20.011719 9.570312 C 20.363281 9.660156 20.578125 10.21875 20.246094 10.359375 C 20.117188 10.414062 19.96875 10.378906 19.835938 10.421875 C 19.488281 10.53125 19.527344 11.042969 19.699219 11.363281 C 20.554688 12.957031 22.933594 13.378906 24.246094 12.0625 C 25.082031 11.226562 26.003906 8.253906 25.273438 7.222656 Z M 25.273438 7.222656 " fill-opacity="1" fill-rule="nonzero"/><path fill="#b7aea9" d="M 22.265625 10.535156 C 22.949219 12.039062 24.105469 13.917969 25.964844 15.332031 L 25.863281 15.480469 C 25.28125 15.039062 24.75 14.546875 24.265625 14 C 23.417969 13.042969 22.691406 11.902344 22.101562 10.609375 C 21.097656 8.414062 20.84375 6.507812 20.84375 6.492188 C 20.835938 6.429688 20.859375 6.398438 20.917969 6.390625 C 20.980469 6.382812 21.011719 6.410156 21.019531 6.46875 C 21.019531 6.488281 21.273438 8.363281 22.265625 10.535156 Z M 22.265625 10.535156 " fill-opacity="1" fill-rule="nonzero"/><path fill="#eef2f4" d="M 9.425781 80.375 C 5.765625 76.246094 5.050781 69.496094 8.464844 65.164062 C 10.4375 62.660156 13.445312 61.1875 15.636719 58.871094 C 18.960938 55.359375 20.066406 50.277344 20.183594 45.445312 C 20.300781 40.609375 19.570312 35.777344 19.847656 30.949219 C 20.4375 20.621094 26.085938 10.503906 35.054688 5.351562 C 44.023438 0.199219 56.136719 0.613281 64.222656 7.058594 C 67.886719 9.976562 70.707031 13.976562 74.804688 16.246094 C 83.320312 20.964844 94.070312 16.757812 103.578125 18.851562 C 110.054688 20.273438 115.769531 24.808594 118.632812 30.789062 C 121.492188 36.769531 121.4375 44.070312 118.480469 50.003906 C 115.515625 55.964844 109.929688 60.402344 107.4375 66.578125 C 105.609375 71.113281 105.625 76.144531 105.082031 81.003906 C 104.539062 85.867188 103.203125 91.011719 99.480469 94.183594 C 94.863281 98.113281 88.050781 97.84375 82.097656 96.710938 C 72.726562 94.925781 63.742188 91.554688 54.546875 89.011719 C 45.648438 86.546875 37.066406 85.585938 27.859375 85.957031 C 21.480469 86.214844 13.914062 85.441406 9.425781 80.375 Z M 9.425781 80.375 " fill-opacity="1" fill-rule="nonzero"/><path fill="#e0dfe3" d="M 83.929688 102.222656 C 83.929688 102.269531 83.878906 102.320312 83.777344 102.367188 C 83.671875 102.417969 83.519531 102.464844 83.3125 102.511719 C 83.109375 102.558594 82.851562 102.605469 82.546875 102.652344 C 82.238281 102.699219 81.886719 102.746094 81.484375 102.789062 C 81.078125 102.835938 80.628906 102.878906 80.132812 102.921875 C 79.636719 102.964844 79.09375 103.003906 78.511719 103.046875 C 77.925781 103.085938 77.296875 103.125 76.628906 103.164062 C 75.960938 103.199219 75.253906 103.234375 74.511719 103.269531 C 73.765625 103.304688 72.984375 103.335938 72.171875 103.367188 C 71.355469 103.398438 70.511719 103.429688 69.636719 103.453125 C 68.761719 103.480469 67.855469 103.507812 66.929688 103.53125 C 66 103.550781 65.046875 103.574219 64.074219 103.59375 C 63.101562 103.609375 62.109375 103.625 61.101562 103.640625 C 60.09375 103.65625 59.074219 103.667969 58.039062 103.675781 C 57.007812 103.6875 55.96875 103.691406 54.917969 103.699219 C 53.871094 103.703125 52.820312 103.703125 51.765625 103.703125 C 50.710938 103.703125 49.660156 103.703125 48.613281 103.699219 C 47.566406 103.691406 46.523438 103.6875 45.492188 103.675781 C 44.457031 103.667969 43.4375 103.65625 42.429688 103.640625 C 41.421875 103.625 40.429688 103.609375 39.457031 103.59375 C 38.484375 103.574219 37.53125 103.550781 36.601562 103.53125 C 35.675781 103.507812 34.773438 103.480469 33.894531 103.453125 C 33.019531 103.429688 32.175781 103.398438 31.359375 103.367188 C 30.546875 103.335938 29.765625 103.304688 29.023438 103.269531 C 28.277344 103.234375 27.570312 103.199219 26.902344 103.164062 C 26.234375 103.125 25.605469 103.085938 25.019531 103.046875 C 24.4375 103.003906 23.894531 102.964844 23.398438 102.921875 C 22.902344 102.878906 22.453125 102.835938 22.050781 102.789062 C 21.644531 102.746094 21.292969 102.699219 20.984375 102.652344 C 20.679688 102.605469 20.425781 102.558594 20.21875 102.511719 C 20.011719 102.464844 19.859375 102.417969 19.753906 102.367188 C 19.652344 102.320312 19.601562 102.269531 19.601562 102.222656 C 19.601562 102.175781 19.652344 102.125 19.753906 102.078125 C 19.859375 102.027344 20.011719 101.980469 20.21875 101.933594 C 20.425781 101.886719 20.679688 101.839844 20.984375 101.792969 C 21.292969 101.746094 21.644531 101.699219 22.050781 101.65625 C 22.453125 101.609375 22.902344 101.566406 23.398438 101.523438 C 23.894531 101.480469 24.4375 101.4375 25.019531 101.398438 C 25.605469 101.359375 26.234375 101.320312 26.902344 101.28125 C 27.570312 101.246094 28.277344 101.207031 29.023438 101.175781 C 29.765625 101.140625 30.546875 101.105469 31.359375 101.078125 C 32.175781 101.046875 33.019531 101.015625 33.894531 100.988281 C 34.773438 100.964844 35.675781 100.9375 36.601562 100.914062 C 37.53125 100.890625 38.484375 100.871094 39.457031 100.851562 C 40.429688 100.835938 41.421875 100.816406 42.429688 100.804688 C 43.4375 100.789062 44.457031 100.777344 45.492188 100.769531 C 46.523438 100.757812 47.566406 100.75 48.613281 100.746094 C 49.660156 100.742188 50.710938 100.738281 51.765625 100.738281 C 52.820312 100.738281 53.871094 100.742188 54.917969 100.746094 C 55.96875 100.75 57.007812 100.757812 58.039062 100.769531 C 59.074219 100.777344 60.09375 100.789062 61.101562 100.804688 C 62.109375 100.816406 63.101562 100.835938 64.074219 100.851562 C 65.046875 100.871094 66 100.890625 66.929688 100.914062 C 67.855469 100.9375 68.761719 100.960938 69.636719 100.988281 C 70.511719 101.015625 71.355469 101.046875 72.171875 101.078125 C 72.984375 101.105469 73.765625 101.140625 74.511719 101.175781 C 75.253906 101.207031 75.960938 101.246094 76.628906 101.28125 C 77.296875 101.320312 77.925781 101.359375 78.511719 101.398438 C 79.09375 101.4375 79.636719 101.480469 80.132812 101.523438 C 80.628906 101.566406 81.078125 101.609375 81.484375 101.65625 C 81.886719 101.699219 82.238281 101.746094 82.546875 101.792969 C 82.851562 101.839844 83.109375 101.886719 83.3125 101.933594 C 83.519531 101.980469 83.671875 102.027344 83.777344 102.078125 C 83.878906 102.125 83.929688 102.175781 83.929688 102.222656 Z M 83.929688 102.222656 " fill-opacity="1" fill-rule="nonzero"/><g clip-path="url(#1c1945ae6e)"><path fill="#e0dfe3" d="M 84.335938 103.761719 C 84.335938 103.863281 84.277344 103.964844 84.15625 104.0625 C 84.035156 104.164062 83.855469 104.257812 83.621094 104.351562 C 83.382812 104.445312 83.09375 104.535156 82.75 104.617188 C 82.410156 104.703125 82.019531 104.78125 81.582031 104.851562 C 81.144531 104.921875 80.671875 104.988281 80.15625 105.042969 C 79.644531 105.101562 79.101562 105.148438 78.53125 105.1875 C 77.960938 105.226562 77.371094 105.253906 76.765625 105.273438 C 76.160156 105.292969 75.546875 105.304688 74.929688 105.304688 C 74.3125 105.304688 73.699219 105.292969 73.09375 105.273438 C 72.488281 105.253906 71.902344 105.226562 71.332031 105.1875 C 70.757812 105.148438 70.21875 105.101562 69.703125 105.042969 C 69.191406 104.988281 68.714844 104.921875 68.277344 104.851562 C 67.839844 104.78125 67.453125 104.703125 67.109375 104.617188 C 66.765625 104.535156 66.476562 104.445312 66.238281 104.351562 C 66.003906 104.257812 65.824219 104.164062 65.703125 104.0625 C 65.582031 103.964844 65.523438 103.863281 65.523438 103.761719 C 65.523438 103.660156 65.582031 103.5625 65.703125 103.460938 C 65.824219 103.363281 66.003906 103.265625 66.238281 103.171875 C 66.476562 103.078125 66.765625 102.992188 67.109375 102.90625 C 67.453125 102.824219 67.839844 102.746094 68.277344 102.671875 C 68.714844 102.601562 69.191406 102.539062 69.703125 102.480469 C 70.21875 102.425781 70.757812 102.378906 71.332031 102.339844 C 71.902344 102.300781 72.488281 102.273438 73.09375 102.253906 C 73.699219 102.230469 74.3125 102.222656 74.929688 102.222656 C 75.546875 102.222656 76.160156 102.230469 76.765625 102.253906 C 77.371094 102.273438 77.960938 102.300781 78.53125 102.339844 C 79.101562 102.378906 79.644531 102.425781 80.15625 102.480469 C 80.671875 102.539062 81.144531 102.601562 81.582031 102.671875 C 82.019531 102.746094 82.410156 102.824219 82.75 102.90625 C 83.09375 102.992188 83.382812 103.078125 83.621094 103.171875 C 83.855469 103.265625 84.035156 103.363281 84.15625 103.460938 C 84.277344 103.5625 84.335938 103.660156 84.335938 103.761719 Z M 84.335938 103.761719 " fill-opacity="1" fill-rule="nonzero"/></g><path fill="#bbbebf" d="M 90.867188 4.875 C 90.378906 4.875 89.90625 4.96875 89.457031 5.15625 C 89.003906 5.34375 88.605469 5.609375 88.261719 5.953125 C 87.914062 6.300781 87.648438 6.699219 87.460938 7.152344 C 87.273438 7.601562 87.179688 8.070312 87.179688 8.5625 C 87.179688 9.050781 87.273438 9.519531 87.460938 9.972656 C 87.648438 10.421875 87.914062 10.820312 88.257812 11.167969 C 88.605469 11.511719 89.003906 11.78125 89.453125 11.96875 C 89.90625 12.152344 90.375 12.246094 90.867188 12.246094 C 91.355469 12.246094 91.824219 12.152344 92.277344 11.96875 C 92.726562 11.78125 93.125 11.515625 93.472656 11.167969 C 93.816406 10.824219 94.085938 10.425781 94.269531 9.972656 C 94.457031 9.519531 94.550781 9.050781 94.550781 8.5625 C 94.550781 8.074219 94.457031 7.601562 94.269531 7.152344 C 94.085938 6.699219 93.816406 6.300781 93.472656 5.957031 C 93.128906 5.609375 92.730469 5.34375 92.277344 5.15625 C 91.824219 4.96875 91.355469 4.875 90.867188 4.875 Z M 90.867188 11.898438 C 90.425781 11.898438 90 11.8125 89.589844 11.644531 C 89.183594 11.472656 88.820312 11.234375 88.507812 10.917969 C 88.195312 10.605469 87.957031 10.246094 87.785156 9.839844 C 87.617188 9.429688 87.53125 9.003906 87.53125 8.5625 C 87.53125 8.121094 87.617188 7.695312 87.785156 7.285156 C 87.957031 6.878906 88.195312 6.515625 88.507812 6.203125 C 88.820312 5.890625 89.183594 5.648438 89.589844 5.480469 C 90 5.3125 90.425781 5.226562 90.867188 5.226562 C 91.308594 5.226562 91.734375 5.3125 92.144531 5.480469 C 92.550781 5.648438 92.914062 5.890625 93.226562 6.203125 C 93.539062 6.515625 93.777344 6.878906 93.949219 7.285156 C 94.117188 7.695312 94.203125 8.121094 94.203125 8.5625 C 94.203125 9.003906 94.117188 9.429688 93.949219 9.835938 C 93.777344 10.246094 93.539062 10.605469 93.226562 10.917969 C 92.914062 11.230469 92.550781 11.472656 92.144531 11.640625 C 91.734375 11.8125 91.308594 11.894531 90.867188 11.894531 Z M 90.867188 11.898438 " fill-opacity="1" fill-rule="nonzero"/><path fill="#bbbebf" d="M 1.917969 52.402344 C 1.664062 52.402344 1.421875 52.449219 1.1875 52.546875 C 0.953125 52.644531 0.746094 52.78125 0.570312 52.960938 C 0.390625 53.136719 0.253906 53.34375 0.15625 53.578125 C 0.0585938 53.8125 0.0117188 54.054688 0.0117188 54.308594 C 0.0117188 54.558594 0.0585938 54.804688 0.15625 55.035156 C 0.253906 55.269531 0.390625 55.476562 0.570312 55.65625 C 0.746094 55.832031 0.953125 55.972656 1.1875 56.066406 C 1.421875 56.164062 1.664062 56.214844 1.917969 56.214844 C 2.167969 56.214844 2.414062 56.164062 2.644531 56.066406 C 2.878906 55.972656 3.085938 55.832031 3.265625 55.65625 C 3.441406 55.476562 3.582031 55.269531 3.675781 55.035156 C 3.773438 54.804688 3.824219 54.558594 3.824219 54.308594 C 3.824219 54.054688 3.773438 53.8125 3.675781 53.578125 C 3.582031 53.34375 3.441406 53.136719 3.265625 52.960938 C 3.085938 52.78125 2.878906 52.644531 2.644531 52.546875 C 2.414062 52.449219 2.167969 52.402344 1.917969 52.402344 Z M 1.917969 56.03125 C 1.6875 56.03125 1.46875 55.988281 1.257812 55.902344 C 1.046875 55.8125 0.859375 55.6875 0.695312 55.527344 C 0.535156 55.363281 0.410156 55.179688 0.324219 54.96875 C 0.234375 54.753906 0.191406 54.535156 0.191406 54.308594 C 0.191406 54.078125 0.234375 53.859375 0.324219 53.648438 C 0.410156 53.4375 0.535156 53.25 0.695312 53.085938 C 0.859375 52.925781 1.046875 52.800781 1.257812 52.714844 C 1.46875 52.625 1.6875 52.582031 1.917969 52.582031 C 2.144531 52.582031 2.363281 52.625 2.578125 52.714844 C 2.789062 52.800781 2.972656 52.925781 3.136719 53.085938 C 3.296875 53.25 3.421875 53.4375 3.507812 53.648438 C 3.597656 53.859375 3.640625 54.078125 3.640625 54.308594 C 3.640625 54.535156 3.597656 54.757812 3.507812 54.96875 C 3.421875 55.179688 3.296875 55.363281 3.136719 55.527344 C 2.972656 55.6875 2.789062 55.8125 2.578125 55.898438 C 2.363281 55.988281 2.144531 56.03125 1.917969 56.03125 Z M 1.917969 56.03125 " fill-opacity="1" fill-rule="nonzero"/><path fill="#bbbebf" d="M 112.257812 85.175781 C 111.855469 85.175781 111.472656 85.25 111.101562 85.402344 C 110.734375 85.558594 110.40625 85.777344 110.121094 86.058594 C 109.839844 86.339844 109.621094 86.667969 109.46875 87.039062 C 109.316406 87.40625 109.238281 87.792969 109.238281 88.191406 C 109.238281 88.59375 109.316406 88.980469 109.46875 89.347656 C 109.621094 89.71875 109.839844 90.042969 110.121094 90.328125 C 110.40625 90.609375 110.734375 90.828125 111.101562 90.980469 C 111.472656 91.136719 111.855469 91.210938 112.257812 91.210938 C 112.65625 91.210938 113.042969 91.136719 113.414062 90.980469 C 113.78125 90.828125 114.109375 90.609375 114.390625 90.328125 C 114.675781 90.042969 114.894531 89.71875 115.046875 89.347656 C 115.199219 88.980469 115.277344 88.59375 115.277344 88.191406 C 115.277344 87.792969 115.199219 87.40625 115.046875 87.039062 C 114.894531 86.667969 114.675781 86.339844 114.390625 86.058594 C 114.109375 85.777344 113.78125 85.558594 113.414062 85.402344 C 113.042969 85.25 112.65625 85.175781 112.257812 85.175781 Z M 112.257812 90.925781 C 111.894531 90.925781 111.546875 90.855469 111.210938 90.714844 C 110.878906 90.578125 110.582031 90.378906 110.328125 90.125 C 110.070312 89.867188 109.871094 89.574219 109.734375 89.238281 C 109.59375 88.902344 109.527344 88.554688 109.527344 88.191406 C 109.527344 87.832031 109.59375 87.484375 109.734375 87.148438 C 109.871094 86.8125 110.070312 86.519531 110.328125 86.261719 C 110.582031 86.003906 110.878906 85.808594 111.210938 85.667969 C 111.546875 85.53125 111.894531 85.460938 112.257812 85.460938 C 112.621094 85.460938 112.96875 85.53125 113.304688 85.667969 C 113.636719 85.808594 113.933594 86.003906 114.1875 86.261719 C 114.445312 86.519531 114.640625 86.8125 114.78125 87.148438 C 114.917969 87.484375 114.988281 87.832031 114.988281 88.191406 C 114.988281 88.554688 114.917969 88.902344 114.78125 89.238281 C 114.640625 89.574219 114.445312 89.867188 114.1875 90.125 C 113.933594 90.378906 113.636719 90.578125 113.300781 90.714844 C 112.96875 90.855469 112.621094 90.925781 112.257812 90.925781 Z M 112.257812 90.925781 " fill-opacity="1" fill-rule="nonzero"/><path fill="#2d334b" d="M 89.039062 58.414062 L 85.78125 59.625 L 88.378906 64.5625 C 88.535156 64.855469 88.578125 65.167969 88.507812 65.492188 C 88.4375 65.816406 88.273438 66.082031 88.011719 66.289062 L 86.722656 67.300781 L 87.261719 67.777344 C 87.476562 67.964844 87.621094 68.195312 87.691406 68.472656 C 87.761719 68.75 87.75 69.019531 87.652344 69.289062 L 86.722656 71.847656 L 87.363281 78.78125 C 87.398438 79.164062 87.378906 79.542969 87.300781 79.917969 C 87.222656 80.292969 87.09375 80.648438 86.90625 80.984375 C 86.722656 81.320312 86.492188 81.621094 86.21875 81.890625 C 85.945312 82.15625 85.636719 82.378906 85.292969 82.550781 C 80.121094 85.183594 68.546875 83.128906 68.546875 83.128906 L 66.566406 89.453125 L 66.503906 89.660156 L 66.082031 91.011719 C 65.882812 91.652344 65.847656 92.304688 65.980469 92.96875 C 66.113281 93.628906 66.394531 94.21875 66.828125 94.734375 C 71.375 100.144531 69.796875 102.246094 69.796875 102.246094 L 28.429688 102.246094 C 29.191406 98.019531 31.1875 94.503906 33.472656 91.714844 L 33.679688 91.464844 C 36.296875 88.34375 39.253906 86.160156 41.15625 84.929688 C 41.800781 84.515625 42.332031 83.984375 42.746094 83.339844 C 43.164062 82.699219 43.425781 81.996094 43.542969 81.238281 L 43.867188 79.109375 L 45.015625 71.554688 C 45.238281 70.105469 44.984375 68.746094 44.257812 67.472656 C 32.75 47.277344 38.113281 35.984375 45.425781 29.878906 C 56.308594 20.792969 72.582031 23.113281 80.460938 34.902344 C 82.667969 38.207031 83.875 41.386719 84.4375 43.152344 C 84.570312 43.574219 84.570312 43.992188 84.4375 44.414062 C 84.304688 44.835938 84.066406 45.179688 83.714844 45.449219 L 82.804688 46.148438 L 87.652344 52.703125 L 89.851562 55.679688 C 89.878906 55.714844 89.902344 55.75 89.925781 55.785156 C 90.070312 56.011719 90.15625 56.261719 90.191406 56.527344 C 90.222656 56.796875 90.195312 57.054688 90.109375 57.3125 C 90.023438 57.566406 89.886719 57.789062 89.699219 57.984375 C 89.511719 58.175781 89.292969 58.320312 89.039062 58.414062 Z M 89.039062 58.414062 " fill-opacity="1" fill-rule="nonzero"/><path fill="#6b5255" d="M 73.933594 63.421875 C 73.933594 63.421875 74.449219 61.144531 76.609375 63.191406 C 76.609375 63.191406 80.328125 63.28125 79.566406 65.925781 C 79.300781 66.839844 79.375 67.726562 79.796875 68.585938 C 81.175781 71.398438 83.371094 77.339844 77.617188 77.972656 C 75.363281 78.21875 73.195312 77.039062 72.148438 75.023438 C 71.265625 73.3125 70.574219 71.179688 71.566406 69.753906 Z M 73.933594 63.421875 " fill-opacity="1" fill-rule="nonzero"/><path fill="#e59073" d="M 81.5625 60.316406 C 81.46875 60.972656 81.609375 61.535156 81.871094 61.574219 C 82.136719 61.609375 82.425781 61.109375 82.515625 60.453125 C 82.609375 59.792969 82.097656 58.953125 81.835938 58.914062 C 81.570312 58.878906 81.652344 59.660156 81.5625 60.316406 Z M 81.5625 60.316406 " fill-opacity="1" fill-rule="nonzero"/><path fill="#e59073" d="M 68.515625 60.261719 C 68.761719 60.878906 68.757812 61.457031 68.507812 61.554688 C 68.261719 61.652344 67.863281 61.234375 67.621094 60.617188 C 67.375 60 67.675781 59.058594 67.921875 58.960938 C 68.167969 58.863281 68.273438 59.644531 68.515625 60.261719 Z M 68.515625 60.261719 " fill-opacity="1" fill-rule="nonzero"/><path fill="#e59073" d="M 79.1875 102.457031 L 80.050781 102.492188 L 80.011719 103.5 L 79.148438 103.464844 Z M 79.1875 102.457031 " fill-opacity="1" fill-rule="nonzero"/><path fill="#26283d" d="M 78.792969 103.191406 C 78.574219 103.632812 77.875 103.964844 77.183594 104.300781 C 77.09375 104.363281 77.066406 104.445312 77.101562 104.550781 C 77.136719 104.652344 77.207031 104.703125 77.316406 104.695312 L 80.242188 104.535156 C 80.378906 104.527344 80.441406 104.457031 80.429688 104.324219 L 80.335938 103.167969 C 80.332031 103.113281 80.304688 103.078125 80.257812 103.058594 C 80.210938 103.035156 80.164062 103.042969 80.125 103.074219 C 79.894531 103.253906 79.46875 103.464844 78.925781 103.183594 C 78.878906 103.160156 78.835938 103.160156 78.792969 103.191406 Z M 78.792969 103.191406 " fill-opacity="1" fill-rule="nonzero"/><path fill="#e59073" d="M 72.195312 101.886719 L 73.058594 101.921875 L 73.019531 102.929688 L 72.15625 102.894531 Z M 72.195312 101.886719 " fill-opacity="1" fill-rule="nonzero"/><path fill="#26283d" d="M 71.800781 102.621094 C 71.585938 103.0625 70.882812 103.394531 70.195312 103.730469 C 70.105469 103.792969 70.078125 103.878906 70.113281 103.980469 C 70.148438 104.085938 70.21875 104.132812 70.328125 104.128906 L 73.253906 103.964844 C 73.386719 103.957031 73.449219 103.886719 73.4375 103.753906 L 73.347656 102.597656 C 73.34375 102.546875 73.316406 102.507812 73.269531 102.488281 C 73.21875 102.46875 73.175781 102.472656 73.132812 102.503906 C 72.902344 102.683594 72.476562 102.894531 71.9375 102.613281 C 71.890625 102.589844 71.84375 102.59375 71.800781 102.621094 Z M 71.800781 102.621094 " fill-opacity="1" fill-rule="nonzero"/><path fill="#b86980" d="M 80.757812 102.714844 L 78.5625 102.675781 C 78.3125 102.671875 78.164062 102.546875 78.109375 102.304688 L 74.472656 85.390625 L 73.992188 91.773438 C 73.925781 92.632812 73.902344 93.492188 73.914062 94.355469 L 74.011719 101.660156 C 74.011719 101.785156 73.96875 101.894531 73.882812 101.988281 C 73.796875 102.082031 73.6875 102.128906 73.5625 102.136719 L 71.460938 102.238281 C 71.332031 102.246094 71.21875 102.207031 71.125 102.121094 C 71.027344 102.035156 70.976562 101.925781 70.96875 101.796875 L 70.269531 91.1875 L 69.996094 80.554688 L 79.183594 80.527344 L 81.234375 102.199219 C 81.25 102.339844 81.207031 102.460938 81.113281 102.5625 C 81.015625 102.667969 80.898438 102.71875 80.757812 102.714844 Z M 80.757812 102.714844 " fill-opacity="1" fill-rule="nonzero"/><path fill="#89b0bb" d="M 79.417969 80.898438 L 79.039062 73.972656 L 82.058594 68.214844 C 82.617188 67.148438 82.867188 66.011719 82.804688 64.804688 L 82.628906 61.417969 C 82.621094 61.261719 82.539062 61.183594 82.382812 61.183594 L 81.5 61.183594 C 81.375 61.183594 81.292969 61.246094 81.261719 61.367188 L 80.371094 64.769531 C 80.167969 65.554688 79.828125 66.28125 79.351562 66.941406 L 77.820312 69.085938 C 77.761719 69.164062 77.683594 69.195312 77.585938 69.175781 L 76.082031 68.851562 C 75.816406 68.792969 75.542969 68.765625 75.269531 68.765625 L 74.335938 68.765625 C 74.105469 68.765625 73.878906 68.785156 73.65625 68.824219 L 72.582031 69.015625 C 72.476562 69.035156 72.398438 69 72.34375 68.90625 L 70.515625 65.695312 C 70.367188 65.433594 70.246094 65.164062 70.152344 64.882812 L 69.023438 61.453125 C 68.984375 61.339844 68.90625 61.285156 68.789062 61.285156 L 67.738281 61.285156 C 67.667969 61.285156 67.609375 61.3125 67.5625 61.363281 C 67.511719 61.414062 67.488281 61.476562 67.492188 61.546875 L 67.71875 65.25 C 67.746094 65.714844 67.84375 66.167969 68.015625 66.605469 L 70.375 72.664062 L 69.824219 80.828125 C 69.8125 81.003906 69.878906 81.144531 70.027344 81.246094 C 70.695312 81.714844 73.050781 82.835938 79.054688 81.382812 C 79.167969 81.355469 79.257812 81.296875 79.324219 81.207031 C 79.394531 81.113281 79.425781 81.011719 79.417969 80.898438 Z M 79.417969 80.898438 " fill-opacity="1" fill-rule="nonzero"/><path fill="#69868f" d="M 78.214844 73.226562 C 78.21875 73.226562 78.21875 73.226562 78.222656 73.226562 C 78.277344 73.222656 78.300781 73.191406 78.292969 73.136719 L 77.933594 70.242188 C 77.925781 70.1875 77.894531 70.164062 77.84375 70.171875 C 77.789062 70.179688 77.765625 70.207031 77.773438 70.261719 L 78.132812 73.15625 C 78.140625 73.203125 78.167969 73.226562 78.214844 73.226562 Z M 78.214844 73.226562 " fill-opacity="1" fill-rule="nonzero"/><path fill="#69868f" d="M 70.574219 71.457031 C 70.613281 71.457031 70.640625 71.4375 70.652344 71.398438 L 71.171875 69.632812 C 71.1875 69.578125 71.171875 69.546875 71.117188 69.53125 C 71.066406 69.515625 71.035156 69.535156 71.019531 69.585938 L 70.496094 71.355469 C 70.476562 71.421875 70.5 71.457031 70.574219 71.457031 Z M 70.574219 71.457031 " fill-opacity="1" fill-rule="nonzero"/><path fill="#e59073" d="M 74.597656 65.148438 C 74.527344 65.289062 74.457031 65.441406 74.394531 65.609375 C 74.1875 66.152344 74.058594 66.804688 74.324219 67.300781 C 74.382812 67.410156 74.460938 67.507812 74.550781 67.589844 C 74.578125 67.613281 74.601562 67.636719 74.628906 67.65625 L 74.324219 68.453125 C 74.21875 68.722656 74.191406 69 74.234375 69.28125 C 74.316406 69.757812 74.542969 69.714844 75.003906 69.59375 C 75.476562 69.46875 75.804688 69.179688 75.992188 68.726562 L 76.222656 68.171875 C 76.242188 68.089844 76.292969 68.039062 76.371094 68.015625 C 76.609375 67.949219 76.828125 67.839844 77.027344 67.695312 C 77.34375 67.464844 77.667969 67.109375 77.972656 66.582031 C 78.003906 66.527344 78.039062 66.46875 78.070312 66.40625 C 78.113281 66.234375 78.128906 66.058594 78.121094 65.878906 C 78.09375 65.234375 77.707031 64.261719 75.574219 64.472656 C 75.121094 64.515625 74.796875 64.742188 74.597656 65.148438 Z M 74.597656 65.148438 " fill-opacity="1" fill-rule="nonzero"/><path fill="#6b5255" d="M 78.394531 67.917969 C 78.394531 67.917969 76.96875 66.289062 76.933594 64.292969 L 78.964844 64.710938 Z M 78.394531 67.917969 " fill-opacity="1" fill-rule="nonzero"/><path fill="#6b5255" d="M 73.667969 64.488281 C 73.667969 64.488281 75.535156 65.582031 77.503906 65.242188 L 76.710938 63.328125 Z M 73.667969 64.488281 " fill-opacity="1" fill-rule="nonzero"/><path fill="#e59073" d="M 77.664062 67.085938 C 77.488281 67.269531 77.230469 67.3125 77.089844 67.179688 C 76.949219 67.046875 76.976562 66.785156 77.152344 66.601562 C 77.328125 66.414062 77.585938 66.371094 77.730469 66.503906 C 77.871094 66.636719 77.839844 66.898438 77.664062 67.085938 Z M 77.664062 67.085938 " fill-opacity="1" fill-rule="nonzero"/><path fill="#874d5e" d="M 74.453125 84.964844 C 74.457031 84.964844 74.460938 84.964844 74.464844 84.964844 C 74.503906 84.957031 74.519531 84.9375 74.511719 84.898438 L 74.332031 83.867188 L 73.601562 83.320312 C 73.570312 83.292969 73.542969 83.296875 73.515625 83.328125 C 73.492188 83.363281 73.496094 83.390625 73.53125 83.414062 L 74.222656 83.933594 L 74.398438 84.917969 C 74.402344 84.949219 74.421875 84.964844 74.453125 84.964844 Z M 74.453125 84.964844 " fill-opacity="1" fill-rule="nonzero"/><path fill="#9ec4d1" d="M 61.183594 35.292969 C 64.875 29.988281 67.59375 38.894531 71.277344 33.734375 C 71.3125 33.683594 71.320312 33.625 71.296875 33.566406 C 71.144531 33.148438 69.746094 33.320312 69.589844 32.902344 C 69.453125 32.519531 70.558594 31.542969 70.417969 31.164062 C 70.398438 31.101562 70.351562 31.0625 70.289062 31.046875 C 70.226562 31.03125 70.167969 31.046875 70.121094 31.09375 C 67.152344 33.960938 64.183594 26.136719 61.214844 29.484375 C 60.878906 31.445312 61.523438 33.328125 61.183594 35.292969 Z M 61.183594 35.292969 " fill-opacity="1" fill-rule="nonzero"/><path fill="#70676a" d="M 61.046875 28.972656 L 61.394531 28.972656 L 61.394531 44.1875 L 61.046875 44.1875 Z M 61.046875 28.972656 " fill-opacity="1" fill-rule="nonzero"/><path fill="#70676a" d="M 61.027344 27.992188 L 61.414062 27.992188 C 61.574219 27.992188 61.652344 28.070312 61.652344 28.230469 L 61.652344 29.195312 C 61.652344 29.355469 61.574219 29.433594 61.414062 29.433594 L 61.027344 29.433594 C 60.867188 29.433594 60.789062 29.355469 60.789062 29.195312 L 60.789062 28.230469 C 60.789062 28.070312 60.867188 27.992188 61.027344 27.992188 Z M 61.027344 27.992188 " fill-opacity="1" fill-rule="nonzero"/><path fill="#f28387" d="M 61.109375 40.546875 C 62.648438 40.125 64.320312 40.910156 65.386719 42.097656 C 66.457031 43.285156 67.050781 44.816406 67.621094 46.308594 C 68.226562 44.894531 68.847656 43.457031 69.847656 42.289062 C 70.847656 41.125 72.3125 40.25 73.84375 40.332031 C 76.457031 40.46875 78.238281 43.390625 77.996094 45.992188 C 77.753906 48.597656 76.050781 50.828125 74.207031 52.683594 C 72.359375 54.535156 70.273438 56.207031 68.894531 58.429688 C 68.597656 58.914062 68.246094 59.480469 67.675781 59.53125 C 67.386719 59.554688 67.105469 59.429688 66.839844 59.296875 C 63.097656 57.445312 60.117188 54.1875 58.472656 50.363281 C 57.164062 47.328125 56.929688 41.695312 61.109375 40.546875 Z M 61.109375 40.546875 " fill-opacity="1" fill-rule="nonzero"/><path fill="#f8ccc3" d="M 44.976562 57.875 C 47.347656 55.8125 50.011719 53.664062 53.28125 53.457031 C 54.726562 53.363281 56.222656 53.660156 57.421875 54.5 C 58.5 55.257812 59.222656 56.40625 60.25 57.222656 C 60.714844 57.59375 61.242188 57.886719 61.832031 57.980469 C 62.453125 58.082031 63.074219 57.960938 63.625 57.664062 C 64.84375 57.011719 65.609375 55.703125 65.882812 54.382812 C 66.039062 53.609375 66.058594 52.832031 65.933594 52.050781 C 65.871094 51.644531 65.773438 51.25 65.640625 50.863281 C 65.546875 50.597656 65.453125 50.320312 65.269531 50.101562 C 64.679688 49.402344 63.492188 49.527344 63.046875 50.320312 C 62.917969 50.550781 62.878906 50.804688 62.867188 51.066406 C 62.847656 51.492188 62.875 51.917969 62.949219 52.335938 C 63.070312 53.03125 63.363281 53.648438 63.820312 54.183594 C 64.65625 55.164062 66.019531 55.691406 67.214844 55.039062 C 67.839844 54.703125 68.308594 54.132812 68.707031 53.558594 C 69.167969 52.890625 69.574219 52.191406 69.925781 51.460938 C 70.636719 50 71.117188 48.46875 71.371094 46.863281 C 71.472656 46.203125 71.507812 45.53125 71.644531 44.875 C 71.761719 44.3125 71.945312 43.695312 72.382812 43.296875 C 72.917969 42.8125 73.679688 42.902344 74.210938 43.347656 C 74.851562 43.886719 75.027344 44.722656 75.0625 45.523438 C 75.097656 46.304688 75.125 47.167969 74.90625 47.925781 C 74.710938 48.613281 74.183594 49.214844 73.425781 49.226562 C 72.542969 49.246094 72.378906 48.328125 72.351562 47.628906 C 72.324219 46.953125 72.398438 46.289062 72.570312 45.632812 C 73.269531 42.925781 75.429688 40.738281 77.878906 39.5 C 80.878906 37.980469 84.375 37.792969 87.675781 37.824219 C 88.496094 37.832031 89.320312 37.855469 90.140625 37.882812 C 90.289062 37.886719 90.285156 37.65625 90.140625 37.652344 C 86.78125 37.550781 83.335938 37.453125 80.074219 38.40625 C 77.347656 39.203125 74.847656 40.839844 73.335938 43.289062 C 72.644531 44.410156 72.195312 45.6875 72.125 47.007812 C 72.09375 47.640625 72.070312 48.449219 72.457031 48.988281 C 72.796875 49.460938 73.410156 49.550781 73.933594 49.363281 C 75.394531 48.835938 75.328125 46.953125 75.296875 45.679688 C 75.277344 44.941406 75.171875 44.152344 74.714844 43.546875 C 74.339844 43.058594 73.746094 42.675781 73.105469 42.738281 C 71.882812 42.859375 71.5 44.230469 71.34375 45.25 C 71.234375 45.976562 71.183594 46.703125 71.039062 47.421875 C 70.882812 48.222656 70.664062 49.007812 70.390625 49.773438 C 70.109375 50.558594 69.769531 51.316406 69.367188 52.046875 C 68.988281 52.742188 68.570312 53.445312 68.046875 54.046875 C 67.558594 54.605469 66.921875 55.082031 66.148438 55.105469 C 65.457031 55.128906 64.800781 54.808594 64.300781 54.351562 C 63.742188 53.839844 63.382812 53.21875 63.214844 52.484375 C 63.117188 52.03125 63.074219 51.570312 63.09375 51.105469 C 63.105469 50.8125 63.152344 50.535156 63.335938 50.296875 C 63.625 49.925781 64.144531 49.777344 64.589844 49.914062 C 65.234375 50.113281 65.417969 50.832031 65.570312 51.414062 C 65.976562 52.964844 65.835938 54.730469 64.949219 56.097656 C 64.199219 57.25 62.867188 58.121094 61.460938 57.652344 C 60.222656 57.242188 59.40625 56.054688 58.527344 55.160156 C 57.550781 54.167969 56.367188 53.519531 54.980469 53.300781 C 51.878906 52.816406 49.03125 54.324219 46.660156 56.171875 C 46.027344 56.664062 45.417969 57.1875 44.8125 57.710938 C 44.703125 57.808594 44.863281 57.96875 44.976562 57.875 Z M 44.976562 57.875 " fill-opacity="1" fill-rule="nonzero"/><path fill="#f9bb46" d="M 116.492188 65.09375 C 116.492188 65.570312 116.445312 66.042969 116.355469 66.507812 C 116.261719 66.976562 116.125 67.425781 115.941406 67.867188 C 115.757812 68.304688 115.535156 68.722656 115.273438 69.117188 C 115.007812 69.515625 114.707031 69.878906 114.371094 70.214844 C 114.035156 70.550781 113.667969 70.851562 113.273438 71.117188 C 112.878906 71.382812 112.460938 71.605469 112.023438 71.785156 C 111.582031 71.96875 111.128906 72.105469 110.664062 72.199219 C 110.199219 72.289062 109.726562 72.335938 109.25 72.335938 C 108.777344 72.335938 108.304688 72.289062 107.839844 72.199219 C 107.371094 72.105469 106.917969 71.96875 106.480469 71.785156 C 106.039062 71.605469 105.621094 71.382812 105.226562 71.117188 C 104.832031 70.851562 104.464844 70.550781 104.128906 70.214844 C 103.792969 69.878906 103.492188 69.515625 103.230469 69.117188 C 102.964844 68.722656 102.742188 68.304688 102.558594 67.867188 C 102.378906 67.425781 102.242188 66.976562 102.148438 66.507812 C 102.054688 66.042969 102.007812 65.570312 102.007812 65.09375 C 102.007812 64.621094 102.054688 64.148438 102.148438 63.683594 C 102.242188 63.214844 102.378906 62.761719 102.558594 62.324219 C 102.742188 61.886719 102.964844 61.46875 103.230469 61.070312 C 103.492188 60.675781 103.792969 60.3125 104.128906 59.976562 C 104.464844 59.636719 104.832031 59.339844 105.226562 59.074219 C 105.621094 58.808594 106.039062 58.585938 106.480469 58.40625 C 106.917969 58.222656 107.371094 58.085938 107.839844 57.992188 C 108.304688 57.898438 108.777344 57.855469 109.25 57.855469 C 109.726562 57.855469 110.199219 57.898438 110.664062 57.992188 C 111.128906 58.085938 111.582031 58.222656 112.023438 58.40625 C 112.460938 58.585938 112.878906 58.808594 113.273438 59.074219 C 113.667969 59.339844 114.035156 59.636719 114.371094 59.976562 C 114.707031 60.3125 115.007812 60.675781 115.273438 61.070312 C 115.535156 61.46875 115.757812 61.886719 115.941406 62.324219 C 116.125 62.761719 116.261719 63.214844 116.355469 63.683594 C 116.445312 64.148438 116.492188 64.621094 116.492188 65.09375 Z M 116.492188 65.09375 " fill-opacity="1" fill-rule="nonzero"/><path fill="#3a3f58" d="M 106.644531 63.9375 C 106.644531 64.128906 106.617188 64.3125 106.566406 64.492188 C 106.515625 64.667969 106.441406 64.824219 106.347656 64.960938 C 106.25 65.097656 106.140625 65.203125 106.019531 65.273438 C 105.894531 65.347656 105.765625 65.386719 105.628906 65.386719 C 105.496094 65.386719 105.367188 65.347656 105.242188 65.273438 C 105.117188 65.203125 105.007812 65.097656 104.914062 64.960938 C 104.816406 64.824219 104.746094 64.667969 104.695312 64.492188 C 104.640625 64.3125 104.617188 64.128906 104.617188 63.9375 C 104.617188 63.746094 104.640625 63.558594 104.695312 63.382812 C 104.746094 63.203125 104.816406 63.046875 104.914062 62.914062 C 105.007812 62.777344 105.117188 62.671875 105.242188 62.597656 C 105.367188 62.523438 105.496094 62.488281 105.628906 62.488281 C 105.765625 62.488281 105.894531 62.523438 106.019531 62.597656 C 106.140625 62.671875 106.25 62.777344 106.347656 62.914062 C 106.441406 63.046875 106.515625 63.203125 106.566406 63.382812 C 106.617188 63.558594 106.644531 63.746094 106.644531 63.9375 Z M 106.644531 63.9375 " fill-opacity="1" fill-rule="nonzero"/><path fill="#3a3f58" d="M 113.886719 63.9375 C 113.886719 64.128906 113.859375 64.3125 113.808594 64.492188 C 113.757812 64.667969 113.683594 64.824219 113.589844 64.960938 C 113.492188 65.097656 113.382812 65.203125 113.261719 65.273438 C 113.136719 65.347656 113.007812 65.386719 112.871094 65.386719 C 112.738281 65.386719 112.609375 65.347656 112.484375 65.273438 C 112.359375 65.203125 112.25 65.097656 112.15625 64.960938 C 112.058594 64.824219 111.988281 64.667969 111.933594 64.492188 C 111.882812 64.3125 111.859375 64.128906 111.859375 63.9375 C 111.859375 63.746094 111.882812 63.558594 111.933594 63.382812 C 111.988281 63.203125 112.058594 63.046875 112.15625 62.914062 C 112.25 62.777344 112.359375 62.671875 112.484375 62.597656 C 112.609375 62.523438 112.738281 62.488281 112.871094 62.488281 C 113.007812 62.488281 113.136719 62.523438 113.261719 62.597656 C 113.382812 62.671875 113.492188 62.777344 113.589844 62.914062 C 113.683594 63.046875 113.757812 63.203125 113.808594 63.382812 C 113.859375 63.558594 113.886719 63.746094 113.886719 63.9375 Z M 113.886719 63.9375 " fill-opacity="1" fill-rule="nonzero"/><path fill="#3a3f58" d="M 112.753906 68.179688 L 113.351562 67.148438 C 113.402344 67.058594 113.398438 66.972656 113.332031 66.886719 C 113.269531 66.804688 113.1875 66.777344 113.085938 66.804688 C 110.707031 67.453125 108.140625 67.417969 105.40625 66.773438 C 105.308594 66.75 105.226562 66.78125 105.167969 66.863281 C 105.105469 66.945312 105.101562 67.027344 105.152344 67.117188 L 105.765625 68.179688 C 107.316406 70.871094 111.199219 70.871094 112.753906 68.179688 Z M 112.753906 68.179688 " fill-opacity="1" fill-rule="nonzero"/><path fill="#fbfefc" d="M 104.082031 66.078125 C 104.082031 66.078125 102.585938 66.238281 102.0625 66.953125 C 101.542969 67.667969 101.691406 68.300781 102.1875 68.664062 C 102.683594 69.027344 103.335938 68.980469 103.859375 68.265625 C 104.382812 67.554688 104.082031 66.078125 104.082031 66.078125 Z M 104.082031 66.078125 " fill-opacity="1" fill-rule="nonzero"/><path fill="#fbfefc" d="M 113.519531 65.292969 C 113.519531 65.292969 113.417969 66.484375 113.898438 67 C 114.378906 67.515625 114.898438 67.496094 115.253906 67.164062 C 115.613281 66.832031 115.675781 66.316406 115.199219 65.796875 C 114.71875 65.28125 113.519531 65.292969 113.519531 65.292969 Z M 113.519531 65.292969 " fill-opacity="1" fill-rule="nonzero"/><path fill="#f07475" d="M 26.457031 41.710938 C 26.457031 42.097656 26.417969 42.480469 26.34375 42.859375 C 26.265625 43.238281 26.15625 43.609375 26.007812 43.964844 C 25.859375 44.320312 25.679688 44.660156 25.464844 44.980469 C 25.25 45.304688 25.003906 45.601562 24.734375 45.875 C 24.460938 46.148438 24.160156 46.390625 23.839844 46.605469 C 23.519531 46.820312 23.179688 47 22.824219 47.148438 C 22.464844 47.296875 22.097656 47.410156 21.71875 47.484375 C 21.339844 47.558594 20.957031 47.597656 20.570312 47.597656 C 20.183594 47.597656 19.800781 47.558594 19.421875 47.484375 C 19.042969 47.410156 18.675781 47.296875 18.320312 47.148438 C 17.960938 47 17.625 46.820312 17.300781 46.605469 C 16.980469 46.390625 16.683594 46.148438 16.410156 45.875 C 16.136719 45.601562 15.894531 45.304688 15.679688 44.980469 C 15.464844 44.660156 15.28125 44.320312 15.132812 43.964844 C 14.988281 43.609375 14.875 43.238281 14.800781 42.859375 C 14.722656 42.480469 14.6875 42.097656 14.6875 41.710938 C 14.6875 41.328125 14.722656 40.945312 14.800781 40.566406 C 14.875 40.1875 14.988281 39.816406 15.132812 39.460938 C 15.28125 39.105469 15.464844 38.765625 15.679688 38.445312 C 15.894531 38.121094 16.136719 37.824219 16.410156 37.550781 C 16.683594 37.277344 16.980469 37.035156 17.300781 36.820312 C 17.625 36.605469 17.960938 36.425781 18.320312 36.277344 C 18.675781 36.128906 19.042969 36.015625 19.421875 35.941406 C 19.800781 35.867188 20.183594 35.828125 20.570312 35.828125 C 20.957031 35.828125 21.339844 35.867188 21.71875 35.941406 C 22.097656 36.015625 22.464844 36.128906 22.824219 36.277344 C 23.179688 36.425781 23.519531 36.605469 23.839844 36.820312 C 24.160156 37.035156 24.460938 37.277344 24.734375 37.550781 C 25.003906 37.824219 25.25 38.121094 25.464844 38.445312 C 25.679688 38.765625 25.859375 39.105469 26.007812 39.460938 C 26.15625 39.816406 26.265625 40.1875 26.34375 40.566406 C 26.417969 40.945312 26.457031 41.328125 26.457031 41.710938 Z M 26.457031 41.710938 " fill-opacity="1" fill-rule="nonzero"/><path fill="#313e5f" d="M 18.714844 40.144531 C 18.273438 40.203125 17.363281 40.199219 16.621094 39.363281 C 16.605469 39.34375 16.589844 39.339844 16.566406 39.34375 C 16.546875 39.351562 16.53125 39.363281 16.527344 39.382812 C 16.402344 39.894531 15.988281 42.070312 18.753906 40.246094 C 18.777344 40.230469 18.785156 40.207031 18.773438 40.179688 C 18.765625 40.152344 18.746094 40.140625 18.714844 40.144531 Z M 18.714844 40.144531 " fill-opacity="1" fill-rule="nonzero"/><path fill="#313e5f" d="M 22.425781 40.144531 C 22.867188 40.203125 23.777344 40.199219 24.523438 39.363281 C 24.535156 39.34375 24.554688 39.339844 24.574219 39.34375 C 24.597656 39.351562 24.609375 39.363281 24.617188 39.382812 C 24.742188 39.894531 25.152344 42.070312 22.390625 40.246094 C 22.363281 40.230469 22.359375 40.207031 22.367188 40.179688 C 22.378906 40.152344 22.398438 40.140625 22.425781 40.144531 Z M 22.425781 40.144531 " fill-opacity="1" fill-rule="nonzero"/><path fill="#3a3f58" d="M 18.957031 42.148438 L 17.851562 43.382812 C 17.816406 43.425781 17.886719 43.472656 17.953125 43.449219 C 19.648438 42.820312 21.390625 42.804688 23.191406 43.453125 C 23.253906 43.476562 23.328125 43.429688 23.289062 43.386719 L 22.179688 42.148438 C 21.464844 41.347656 19.675781 41.347656 18.957031 42.148438 Z M 18.957031 42.148438 " fill-opacity="1" fill-rule="nonzero"/><path fill="#a1bfca" d="M 34.625 72.511719 C 34.625 72.953125 34.582031 73.386719 34.496094 73.820312 C 34.410156 74.25 34.285156 74.671875 34.117188 75.078125 C 33.949219 75.484375 33.742188 75.871094 33.496094 76.234375 C 33.253906 76.601562 32.972656 76.941406 32.664062 77.25 C 32.351562 77.5625 32.011719 77.839844 31.648438 78.085938 C 31.28125 78.328125 30.894531 78.535156 30.488281 78.703125 C 30.082031 78.875 29.664062 79 29.230469 79.085938 C 28.800781 79.171875 28.363281 79.214844 27.921875 79.214844 C 27.484375 79.214844 27.046875 79.171875 26.613281 79.085938 C 26.183594 79 25.765625 78.875 25.359375 78.703125 C 24.949219 78.535156 24.566406 78.328125 24.199219 78.085938 C 23.832031 77.839844 23.492188 77.5625 23.183594 77.25 C 22.871094 76.941406 22.59375 76.601562 22.347656 76.234375 C 22.105469 75.871094 21.898438 75.484375 21.730469 75.078125 C 21.5625 74.671875 21.433594 74.25 21.347656 73.820312 C 21.261719 73.386719 21.21875 72.953125 21.21875 72.511719 C 21.21875 72.070312 21.261719 71.636719 21.347656 71.203125 C 21.433594 70.773438 21.5625 70.351562 21.730469 69.945312 C 21.898438 69.539062 22.105469 69.152344 22.347656 68.789062 C 22.59375 68.421875 22.871094 68.082031 23.183594 67.769531 C 23.492188 67.460938 23.832031 67.183594 24.199219 66.9375 C 24.566406 66.691406 24.949219 66.488281 25.359375 66.316406 C 25.765625 66.148438 26.183594 66.023438 26.613281 65.9375 C 27.046875 65.851562 27.484375 65.808594 27.921875 65.808594 C 28.363281 65.808594 28.800781 65.851562 29.230469 65.9375 C 29.664062 66.023438 30.082031 66.148438 30.488281 66.316406 C 30.894531 66.488281 31.28125 66.691406 31.648438 66.9375 C 32.011719 67.183594 32.351562 67.460938 32.664062 67.769531 C 32.972656 68.082031 33.253906 68.421875 33.496094 68.789062 C 33.742188 69.152344 33.949219 69.539062 34.117188 69.945312 C 34.285156 70.351562 34.410156 70.773438 34.496094 71.203125 C 34.582031 71.636719 34.625 72.070312 34.625 72.511719 Z M 34.625 72.511719 " fill-opacity="1" fill-rule="nonzero"/><path fill="#3a3f58" d="M 25.511719 71.4375 C 25.511719 71.617188 25.484375 71.789062 25.4375 71.953125 C 25.390625 72.117188 25.324219 72.261719 25.234375 72.386719 C 25.148438 72.511719 25.046875 72.609375 24.929688 72.675781 C 24.816406 72.746094 24.695312 72.78125 24.570312 72.78125 C 24.445312 72.78125 24.328125 72.746094 24.210938 72.675781 C 24.097656 72.609375 23.996094 72.511719 23.90625 72.386719 C 23.820312 72.261719 23.75 72.117188 23.703125 71.953125 C 23.65625 71.789062 23.632812 71.617188 23.632812 71.4375 C 23.632812 71.261719 23.65625 71.089844 23.703125 70.925781 C 23.75 70.761719 23.820312 70.617188 23.90625 70.492188 C 23.996094 70.367188 24.097656 70.269531 24.210938 70.199219 C 24.328125 70.132812 24.445312 70.097656 24.570312 70.097656 C 24.695312 70.097656 24.816406 70.132812 24.929688 70.199219 C 25.046875 70.269531 25.148438 70.367188 25.234375 70.492188 C 25.324219 70.617188 25.390625 70.761719 25.4375 70.925781 C 25.484375 71.089844 25.511719 71.261719 25.511719 71.4375 Z M 25.511719 71.4375 " fill-opacity="1" fill-rule="nonzero"/><path fill="#3a3f58" d="M 32.214844 71.4375 C 32.214844 71.617188 32.191406 71.789062 32.140625 71.953125 C 32.09375 72.117188 32.027344 72.261719 31.9375 72.386719 C 31.851562 72.511719 31.75 72.609375 31.632812 72.675781 C 31.519531 72.746094 31.398438 72.78125 31.273438 72.78125 C 31.148438 72.78125 31.03125 72.746094 30.914062 72.675781 C 30.800781 72.609375 30.699219 72.511719 30.609375 72.386719 C 30.523438 72.261719 30.457031 72.117188 30.40625 71.953125 C 30.359375 71.789062 30.335938 71.617188 30.335938 71.4375 C 30.335938 71.261719 30.359375 71.089844 30.40625 70.925781 C 30.457031 70.761719 30.523438 70.617188 30.609375 70.492188 C 30.699219 70.367188 30.800781 70.269531 30.914062 70.199219 C 31.03125 70.132812 31.148438 70.097656 31.273438 70.097656 C 31.398438 70.097656 31.519531 70.132812 31.632812 70.199219 C 31.75 70.269531 31.851562 70.367188 31.9375 70.492188 C 32.027344 70.617188 32.09375 70.761719 32.140625 70.925781 C 32.191406 71.089844 32.214844 71.261719 32.214844 71.4375 Z M 32.214844 71.4375 " fill-opacity="1" fill-rule="nonzero"/><path fill="#3a3f58" d="M 30.085938 76.496094 C 29.390625 76.214844 27.25 75.597656 25.339844 77.71875 C 25.210938 77.863281 25.101562 77.433594 25.199219 77.175781 C 26.285156 74.351562 28.910156 68.703125 30.222656 76.023438 C 30.265625 76.265625 30.1875 76.539062 30.085938 76.496094 Z M 30.085938 76.496094 " fill-opacity="1" fill-rule="nonzero"/><path fill="#3a3f58" d="M 23.171875 70.238281 C 23.328125 70.203125 23.476562 70.15625 23.621094 70.097656 C 23.929688 69.980469 24.210938 69.816406 24.46875 69.609375 C 24.59375 69.511719 24.710938 69.40625 24.816406 69.292969 C 24.929688 69.171875 25.03125 69.046875 25.125 68.914062 C 25.136719 68.894531 25.144531 68.878906 25.15625 68.863281 C 25.1875 68.8125 25.175781 68.773438 25.125 68.742188 C 25.074219 68.714844 25.035156 68.726562 25.007812 68.773438 C 24.972656 68.824219 24.9375 68.875 24.902344 68.921875 L 24.886719 68.941406 L 24.882812 68.949219 L 24.886719 68.945312 C 24.875 68.957031 24.867188 68.96875 24.855469 68.980469 C 24.839844 69.003906 24.820312 69.027344 24.800781 69.050781 C 24.722656 69.140625 24.640625 69.226562 24.554688 69.308594 C 24.507812 69.351562 24.464844 69.390625 24.417969 69.429688 C 24.394531 69.449219 24.371094 69.46875 24.347656 69.488281 L 24.328125 69.5 C 24.324219 69.503906 24.316406 69.511719 24.335938 69.496094 L 24.328125 69.503906 L 24.289062 69.53125 C 24.191406 69.601562 24.09375 69.667969 23.988281 69.730469 C 23.871094 69.796875 23.75 69.855469 23.625 69.910156 L 23.648438 69.902344 C 23.476562 69.972656 23.304688 70.027344 23.125 70.070312 C 23.070312 70.085938 23.050781 70.121094 23.066406 70.175781 C 23.082031 70.230469 23.117188 70.25 23.171875 70.238281 Z M 23.171875 70.238281 " fill-opacity="1" fill-rule="nonzero"/><path fill="#3a3f58" d="M 32.589844 70.238281 C 32.433594 70.203125 32.285156 70.15625 32.140625 70.097656 C 31.832031 69.980469 31.550781 69.816406 31.292969 69.609375 C 31.167969 69.511719 31.050781 69.40625 30.945312 69.292969 C 30.832031 69.171875 30.730469 69.046875 30.636719 68.914062 C 30.625 68.894531 30.613281 68.878906 30.605469 68.863281 C 30.574219 68.8125 30.585938 68.773438 30.636719 68.742188 C 30.683594 68.714844 30.726562 68.726562 30.753906 68.773438 C 30.789062 68.824219 30.824219 68.875 30.859375 68.921875 L 30.871094 68.941406 C 30.875 68.945312 30.875 68.945312 30.878906 68.949219 L 30.875 68.945312 C 30.886719 68.957031 30.894531 68.96875 30.902344 68.980469 C 30.921875 69.003906 30.941406 69.027344 30.960938 69.050781 C 31.039062 69.140625 31.121094 69.226562 31.207031 69.308594 C 31.253906 69.351562 31.296875 69.390625 31.34375 69.429688 C 31.367188 69.449219 31.390625 69.46875 31.414062 69.488281 L 31.433594 69.5 C 31.4375 69.503906 31.445312 69.511719 31.425781 69.496094 L 31.433594 69.503906 C 31.445312 69.511719 31.460938 69.519531 31.472656 69.53125 C 31.570312 69.601562 31.667969 69.667969 31.773438 69.730469 C 31.890625 69.796875 32.011719 69.855469 32.136719 69.910156 L 32.113281 69.902344 C 32.285156 69.972656 32.457031 70.027344 32.636719 70.070312 C 32.691406 70.085938 32.710938 70.121094 32.695312 70.175781 C 32.679688 70.230469 32.644531 70.25 32.589844 70.238281 Z M 32.589844 70.238281 " fill-opacity="1" fill-rule="nonzero"/><path fill="#f9bb46" d="M 107.148438 32.015625 C 107.148438 32.628906 107.058594 33.226562 106.871094 33.8125 C 106.109375 36.207031 103.867188 37.941406 101.222656 37.941406 C 98.53125 37.941406 96.261719 36.152344 95.535156 33.699219 C 95.375 33.148438 95.292969 32.589844 95.292969 32.015625 C 95.292969 28.742188 97.945312 26.085938 101.222656 26.085938 C 104.496094 26.085938 107.148438 28.738281 107.148438 32.015625 Z M 107.148438 32.015625 " fill-opacity="1" fill-rule="nonzero"/><path fill="#a5c4cf" d="M 107.148438 32.015625 C 107.148438 32.628906 107.058594 33.226562 106.871094 33.8125 C 106.285156 33.488281 105.828125 32.957031 105.335938 32.496094 C 104.789062 31.984375 104.109375 31.511719 103.359375 31.554688 C 102.429688 31.605469 101.59375 32.433594 100.6875 32.222656 C 100.09375 32.082031 99.660156 31.582031 99.003906 31.675781 C 98.304688 31.777344 97.882812 32.339844 97.417969 32.804688 C 96.894531 33.320312 96.265625 33.621094 95.535156 33.699219 C 95.371094 33.148438 95.289062 32.589844 95.292969 32.015625 C 95.292969 28.742188 97.945312 26.085938 101.21875 26.085938 C 104.492188 26.085938 107.148438 28.738281 107.148438 32.015625 Z M 107.148438 32.015625 " fill-opacity="1" fill-rule="nonzero"/><path fill="#3a3f58" d="M 99.085938 29.78125 C 99.085938 29.9375 99.066406 30.089844 99.023438 30.234375 C 98.980469 30.378906 98.921875 30.507812 98.84375 30.617188 C 98.765625 30.730469 98.675781 30.816406 98.574219 30.875 C 98.472656 30.9375 98.367188 30.964844 98.257812 30.964844 C 98.148438 30.964844 98.039062 30.9375 97.9375 30.875 C 97.835938 30.816406 97.746094 30.730469 97.667969 30.617188 C 97.59375 30.507812 97.53125 30.378906 97.488281 30.234375 C 97.449219 30.089844 97.425781 29.9375 97.425781 29.78125 C 97.425781 29.621094 97.449219 29.472656 97.488281 29.328125 C 97.53125 29.179688 97.59375 29.054688 97.667969 28.941406 C 97.746094 28.832031 97.835938 28.746094 97.9375 28.683594 C 98.039062 28.625 98.148438 28.59375 98.257812 28.59375 C 98.367188 28.59375 98.472656 28.625 98.574219 28.683594 C 98.675781 28.746094 98.765625 28.832031 98.84375 28.941406 C 98.921875 29.054688 98.980469 29.179688 99.023438 29.328125 C 99.066406 29.472656 99.085938 29.621094 99.085938 29.78125 Z M 99.085938 29.78125 " fill-opacity="1" fill-rule="nonzero"/><path fill="#3a3f58" d="M 105.015625 29.78125 C 105.015625 29.9375 104.992188 30.089844 104.953125 30.234375 C 104.910156 30.378906 104.847656 30.507812 104.773438 30.617188 C 104.695312 30.730469 104.605469 30.816406 104.503906 30.875 C 104.402344 30.9375 104.292969 30.964844 104.183594 30.964844 C 104.074219 30.964844 103.96875 30.9375 103.867188 30.875 C 103.765625 30.816406 103.675781 30.730469 103.597656 30.617188 C 103.519531 30.507812 103.460938 30.378906 103.417969 30.234375 C 103.375 30.089844 103.355469 29.9375 103.355469 29.78125 C 103.355469 29.621094 103.375 29.472656 103.417969 29.328125 C 103.460938 29.179688 103.519531 29.054688 103.597656 28.941406 C 103.675781 28.832031 103.765625 28.746094 103.867188 28.683594 C 103.96875 28.625 104.074219 28.59375 104.183594 28.59375 C 104.292969 28.59375 104.402344 28.625 104.503906 28.683594 C 104.605469 28.746094 104.695312 28.832031 104.773438 28.941406 C 104.847656 29.054688 104.910156 29.179688 104.953125 29.328125 C 104.992188 29.472656 105.015625 29.621094 105.015625 29.78125 Z M 105.015625 29.78125 " fill-opacity="1" fill-rule="nonzero"/><path fill="#3a3f58" d="M 100.046875 34.769531 L 99.847656 35.808594 C 99.8125 35.988281 99.867188 36.207031 99.933594 36.152344 C 100.734375 35.5 101.59375 35.535156 102.507812 36.183594 C 102.574219 36.230469 102.628906 36.015625 102.59375 35.839844 L 102.390625 34.769531 C 101.867188 32.070312 100.566406 32.070312 100.046875 34.769531 Z M 100.046875 34.769531 " fill-opacity="1" fill-rule="nonzero"/><path fill="#a5c4cf" d="M 105.636719 33.207031 C 105.636719 33.207031 105.222656 33.726562 105.285156 34.109375 C 105.347656 34.496094 105.59375 34.644531 105.859375 34.601562 C 106.128906 34.558594 106.316406 34.339844 106.253906 33.957031 C 106.191406 33.570312 105.636719 33.207031 105.636719 33.207031 Z M 105.636719 33.207031 " fill-opacity="1" fill-rule="nonzero"/><path fill="#a5c4cf" d="M 105.613281 35.640625 C 105.613281 35.640625 105.117188 36.261719 105.191406 36.722656 C 105.265625 37.183594 105.5625 37.359375 105.882812 37.308594 C 106.199219 37.257812 106.425781 36.996094 106.351562 36.535156 C 106.277344 36.074219 105.613281 35.640625 105.613281 35.640625 Z M 105.613281 35.640625 " fill-opacity="1" fill-rule="nonzero"/><path fill="#a5c4cf" d="M 104.613281 35.300781 C 104.613281 35.300781 104.382812 35.589844 104.417969 35.804688 C 104.453125 36.019531 104.589844 36.105469 104.738281 36.082031 C 104.890625 36.054688 104.992188 35.933594 104.957031 35.71875 C 104.925781 35.503906 104.613281 35.300781 104.613281 35.300781 Z M 104.613281 35.300781 " fill-opacity="1" fill-rule="nonzero"/><path fill="#3a3f58" d="M 97.089844 28.753906 C 97.238281 28.707031 97.382812 28.648438 97.523438 28.582031 C 97.671875 28.511719 97.8125 28.429688 97.945312 28.339844 C 98.078125 28.25 98.207031 28.148438 98.324219 28.039062 C 98.441406 27.933594 98.546875 27.816406 98.644531 27.695312 C 98.746094 27.570312 98.839844 27.4375 98.921875 27.296875 C 98.929688 27.28125 98.941406 27.265625 98.949219 27.246094 C 98.972656 27.195312 98.960938 27.15625 98.910156 27.132812 C 98.859375 27.109375 98.820312 27.121094 98.792969 27.171875 C 98.765625 27.222656 98.734375 27.277344 98.703125 27.324219 L 98.6875 27.34375 C 98.6875 27.347656 98.6875 27.351562 98.683594 27.351562 C 98.675781 27.367188 98.695312 27.335938 98.6875 27.347656 L 98.660156 27.386719 C 98.644531 27.410156 98.628906 27.4375 98.609375 27.460938 C 98.539062 27.554688 98.464844 27.644531 98.386719 27.734375 C 98.34375 27.777344 98.304688 27.820312 98.257812 27.863281 C 98.238281 27.882812 98.214844 27.902344 98.195312 27.925781 L 98.175781 27.9375 L 98.183594 27.933594 L 98.175781 27.941406 C 98.164062 27.953125 98.152344 27.960938 98.140625 27.972656 C 98.050781 28.050781 97.957031 28.121094 97.859375 28.191406 C 97.746094 28.265625 97.632812 28.335938 97.511719 28.394531 L 97.53125 28.386719 C 97.371094 28.46875 97.203125 28.539062 97.03125 28.589844 C 96.976562 28.609375 96.960938 28.648438 96.976562 28.703125 C 97 28.753906 97.035156 28.773438 97.089844 28.753906 Z M 97.089844 28.753906 " fill-opacity="1" fill-rule="nonzero"/><path fill="#3a3f58" d="M 102.976562 27.351562 C 103.078125 27.46875 103.191406 27.578125 103.308594 27.679688 C 103.429688 27.785156 103.5625 27.882812 103.699219 27.96875 C 103.835938 28.054688 103.980469 28.128906 104.125 28.195312 C 104.269531 28.257812 104.417969 28.3125 104.566406 28.355469 C 104.722656 28.394531 104.882812 28.425781 105.042969 28.445312 C 105.0625 28.449219 105.082031 28.449219 105.101562 28.453125 C 105.160156 28.453125 105.1875 28.425781 105.191406 28.371094 C 105.191406 28.3125 105.164062 28.285156 105.109375 28.28125 C 105.050781 28.273438 104.988281 28.265625 104.929688 28.257812 L 104.910156 28.253906 L 104.898438 28.25 C 104.882812 28.25 104.921875 28.253906 104.902344 28.25 L 104.859375 28.242188 C 104.828125 28.238281 104.800781 28.230469 104.769531 28.226562 C 104.65625 28.199219 104.542969 28.167969 104.429688 28.128906 C 104.375 28.109375 104.316406 28.089844 104.261719 28.066406 C 104.234375 28.054688 104.207031 28.042969 104.179688 28.03125 L 104.160156 28.023438 L 104.167969 28.023438 L 104.15625 28.019531 L 104.113281 28 C 103.882812 27.890625 103.671875 27.757812 103.472656 27.597656 L 103.492188 27.609375 C 103.351562 27.496094 103.222656 27.371094 103.101562 27.230469 C 103.0625 27.191406 103.023438 27.1875 102.980469 27.226562 C 102.941406 27.269531 102.9375 27.308594 102.976562 27.351562 Z M 102.976562 27.351562 " fill-opacity="1" fill-rule="nonzero"/><path fill="#f9bb46" d="M 48.585938 17.507812 C 48.585938 17.898438 48.546875 18.289062 48.472656 18.671875 C 48.394531 19.058594 48.28125 19.429688 48.132812 19.792969 C 47.980469 20.15625 47.796875 20.5 47.578125 20.828125 C 47.359375 21.152344 47.113281 21.457031 46.835938 21.734375 C 46.558594 22.011719 46.253906 22.257812 45.929688 22.476562 C 45.601562 22.695312 45.257812 22.878906 44.894531 23.027344 C 44.535156 23.179688 44.160156 23.292969 43.773438 23.371094 C 43.390625 23.445312 43 23.484375 42.609375 23.484375 C 42.214844 23.484375 41.828125 23.445312 41.441406 23.371094 C 41.058594 23.292969 40.683594 23.179688 40.320312 23.027344 C 39.957031 22.878906 39.613281 22.695312 39.289062 22.476562 C 38.960938 22.257812 38.660156 22.011719 38.382812 21.734375 C 38.105469 21.457031 37.855469 21.152344 37.636719 20.828125 C 37.421875 20.5 37.234375 20.15625 37.085938 19.792969 C 36.933594 19.429688 36.820312 19.058594 36.746094 18.671875 C 36.667969 18.289062 36.628906 17.898438 36.628906 17.507812 C 36.628906 17.113281 36.667969 16.726562 36.746094 16.339844 C 36.820312 15.957031 36.933594 15.582031 37.085938 15.21875 C 37.234375 14.855469 37.421875 14.511719 37.636719 14.1875 C 37.855469 13.859375 38.105469 13.558594 38.382812 13.28125 C 38.660156 13.003906 38.960938 12.753906 39.289062 12.535156 C 39.613281 12.316406 39.957031 12.132812 40.320312 11.984375 C 40.683594 11.832031 41.058594 11.71875 41.441406 11.644531 C 41.828125 11.566406 42.214844 11.527344 42.609375 11.527344 C 43 11.527344 43.390625 11.566406 43.773438 11.644531 C 44.160156 11.71875 44.535156 11.832031 44.894531 11.984375 C 45.257812 12.132812 45.601562 12.316406 45.929688 12.535156 C 46.253906 12.753906 46.558594 13.003906 46.835938 13.28125 C 47.113281 13.558594 47.359375 13.859375 47.578125 14.1875 C 47.796875 14.511719 47.980469 14.855469 48.132812 15.21875 C 48.28125 15.582031 48.394531 15.957031 48.472656 16.339844 C 48.546875 16.726562 48.585938 17.113281 48.585938 17.507812 Z M 48.585938 17.507812 " fill-opacity="1" fill-rule="nonzero"/><path fill="#3a3f58" d="M 45.5 20.050781 L 45.992188 19.199219 C 46.035156 19.125 46.03125 19.054688 45.976562 18.984375 C 45.925781 18.917969 45.855469 18.894531 45.773438 18.917969 C 43.8125 19.453125 41.691406 19.425781 39.433594 18.890625 C 39.351562 18.871094 39.285156 18.894531 39.238281 18.964844 C 39.1875 19.03125 39.183594 19.101562 39.226562 19.175781 L 39.730469 20.050781 C 41.011719 22.273438 44.21875 22.273438 45.5 20.050781 Z M 45.5 20.050781 " fill-opacity="1" fill-rule="nonzero"/><path fill="#f75254" d="M 37.757812 11.382812 C 35.367188 10.667969 34.140625 14.75 36.535156 15.46875 L 40.042969 16.519531 C 40.203125 16.566406 40.355469 16.550781 40.503906 16.472656 C 40.652344 16.394531 40.746094 16.273438 40.796875 16.113281 L 41.84375 12.609375 C 42.605469 10.070312 38.519531 8.847656 37.757812 11.382812 Z M 37.757812 11.382812 " fill-opacity="1" fill-rule="nonzero"/><path fill="#f75254" d="M 47.246094 11.171875 C 49.5625 10.234375 51.164062 14.1875 48.847656 15.125 L 45.457031 16.5 C 45.300781 16.5625 45.148438 16.5625 44.992188 16.496094 C 44.839844 16.433594 44.730469 16.324219 44.667969 16.167969 L 43.292969 12.777344 C 42.296875 10.320312 46.25 8.71875 47.246094 11.171875 Z M 47.246094 11.171875 " fill-opacity="1" fill-rule="nonzero"/></svg>