<svg xmlns="http://www.w3.org/2000/svg" xmlns:xlink="http://www.w3.org/1999/xlink" width="375" zoomAndPan="magnify" viewBox="0 0 281.25 168.75" height="225" preserveAspectRatio="xMidYMid meet" version="1.0"><defs><clipPath id="9da7d819eb"><path d="M 50 0.101562 L 210 0.101562 L 210 117 L 50 117 Z M 50 0.101562 " clip-rule="nonzero"/></clipPath><clipPath id="0f60a805a9"><path d="M 3.699219 79 L 31 79 L 31 132 L 3.699219 132 Z M 3.699219 79 " clip-rule="nonzero"/></clipPath></defs><path fill="#cea99a" d="M 168.1875 50.484375 C 169.234375 50.484375 170.082031 51.296875 170.082031 52.292969 C 170.082031 53.292969 169.234375 54.105469 168.1875 54.105469 C 167.144531 54.105469 166.296875 53.292969 166.296875 52.292969 C 166.296875 51.296875 167.144531 50.484375 168.1875 50.484375 Z M 163.566406 49.03125 C 163.589844 48.976562 162.546875 47.421875 162.625 47.359375 C 163.34375 46.769531 165.148438 45.546875 165.527344 45.445312 C 165.648438 45.417969 166.425781 46.835938 166.617188 46.996094 C 166.734375 47.09375 168.289062 47.058594 168.660156 47.117188 C 168.789062 47.140625 169.339844 45.519531 169.480469 45.472656 C 169.511719 45.464844 172.054688 46.257812 172.449219 46.441406 C 172.578125 46.5 171.761719 48.15625 171.828125 48.226562 C 172.421875 48.84375 173.136719 49.644531 173.246094 49.605469 C 173.394531 49.558594 174.578125 49.113281 174.632812 49.203125 C 174.859375 49.574219 175.554688 52.273438 175.363281 52.5625 C 175.320312 52.628906 173.667969 53.035156 173.65625 53.054688 C 173.398438 53.597656 172.867188 54.578125 172.585938 55.222656 C 172.53125 55.34375 173.582031 56.449219 173.558594 56.484375 C 173.300781 56.855469 171.449219 58.375 170.925781 58.503906 C 170.902344 58.507812 170.199219 57.488281 170.085938 57.316406 C 170.039062 57.25 168.28125 57.609375 167.929688 57.675781 C 167.871094 57.683594 167.710938 58.582031 167.417969 59.457031 C 167.375 59.589844 163.777344 58.179688 163.75 58.050781 C 163.730469 57.964844 164.625 56.671875 164.660156 56.558594 C 164.734375 56.332031 163.515625 55.121094 163.285156 54.75 C 163.253906 54.703125 162.140625 54.949219 161.203125 54.945312 C 161.105469 54.945312 160.84375 52.246094 160.777344 51.355469 C 160.769531 51.214844 162.558594 51.304688 162.589844 51.230469 C 162.871094 50.511719 163.320312 49.59375 163.566406 49.03125 " fill-opacity="1" fill-rule="evenodd"/><path fill="#2c3548" d="M 80.796875 109.027344 C 80.84375 108.679688 78.746094 115.804688 78.785156 115.804688 C 84.8125 116.027344 119.160156 115.78125 119.984375 115.796875 C 120.253906 115.800781 119.800781 108.746094 119.714844 108.742188 C 119.449219 108.730469 83.558594 108.816406 80.796875 109.027344 " fill-opacity="1" fill-rule="evenodd"/><path fill="#2c3548" d="M 120.925781 30.765625 C 121.035156 31.890625 121.8125 33.492188 121.503906 34.699219 C 120.933594 36.914062 119.410156 37.019531 119.550781 38.265625 C 119.898438 41.414062 116.4375 42.753906 116.625 41.359375 C 117.09375 37.945312 117.28125 31.765625 117.445312 31.742188 C 117.589844 31.722656 120.832031 29.867188 120.925781 30.765625 " fill-opacity="1" fill-rule="evenodd"/><path fill="#fce1ca" d="M 118.382812 35.59375 C 118.394531 35.589844 118.40625 35.585938 118.417969 35.585938 C 118.507812 35.582031 118.585938 35.652344 118.589844 35.742188 C 118.59375 35.785156 118.585938 35.828125 118.542969 35.871094 C 118.53125 35.878906 118.492188 35.914062 118.414062 35.921875 C 118.242188 35.933594 117.371094 35.941406 117.058594 35.9375 C 116.96875 35.9375 116.894531 35.859375 116.894531 35.773438 C 116.894531 35.679688 116.96875 35.605469 117.0625 35.605469 C 117.367188 35.609375 118.214844 35.605469 118.382812 35.59375 " fill-opacity="1" fill-rule="evenodd"/><path fill="#f3b08c" d="M 96.847656 35.304688 C 95.984375 32.984375 95.476562 30.746094 95.445312 29.570312 C 95.402344 27.84375 95.933594 25.472656 98.332031 23.394531 C 99.671875 22.234375 101.96875 20.960938 106.4375 21.238281 C 109.710938 21.445312 113.851562 23.367188 115.921875 25.984375 C 116.617188 26.859375 117.621094 28.214844 117.460938 33.382812 C 117.390625 35.699219 116.988281 39.464844 116.734375 41.03125 C 116.308594 43.628906 115.785156 45.28125 113.910156 47.0625 C 113.511719 47.4375 112.644531 47.984375 111.71875 48.277344 C 111.078125 48.480469 111.023438 48.496094 111.019531 48.5 C 110.957031 48.535156 110.878906 53.839844 110.90625 53.878906 C 110.945312 53.9375 115.867188 54.722656 115.917969 55 C 116.425781 57.796875 113.664062 63.777344 106.878906 63.582031 C 100.644531 63.40625 96.730469 57.449219 96.082031 53.347656 C 96.046875 53.140625 96.136719 52.925781 96.671875 52.851562 C 97.992188 52.664062 98.78125 52.644531 98.730469 52.613281 C 98.65625 52.566406 98.886719 42.6875 98.65625 40.757812 C 98.449219 38.984375 97.464844 36.957031 96.847656 35.304688 " fill-opacity="1" fill-rule="evenodd"/><path fill="#000000" d="M 110.511719 48.195312 C 109.570312 48.261719 108.957031 48.109375 108.476562 47.976562 C 106.683594 47.488281 105.777344 47.011719 104.535156 45.664062 C 104.472656 45.59375 104.371094 45.589844 104.304688 45.652344 C 104.234375 45.714844 104.234375 45.820312 104.292969 45.886719 C 105.585938 47.289062 106.523438 47.789062 108.390625 48.296875 C 108.898438 48.433594 109.539062 48.59375 110.535156 48.523438 C 110.628906 48.515625 110.695312 48.4375 110.691406 48.347656 C 110.683594 48.257812 110.605469 48.1875 110.511719 48.195312 " fill-opacity="1" fill-rule="evenodd"/><path fill="#2c3548" d="M 110.871094 33.804688 C 111.175781 33.792969 111.46875 33.761719 111.695312 33.578125 C 112.003906 33.332031 112.03125 32.535156 111.664062 32.382812 C 111.042969 32.121094 109.796875 32.261719 109.160156 32.371094 C 108.105469 32.554688 106.898438 32.859375 106.039062 33.53125 C 105.65625 33.832031 105.515625 34.152344 105.613281 34.519531 C 105.65625 34.679688 105.804688 34.890625 106.085938 34.90625 C 106.363281 34.925781 106.675781 34.746094 106.90625 34.640625 C 107.449219 34.410156 107.992188 34.179688 108.570312 34.042969 C 109.320312 33.867188 110.101562 33.828125 110.871094 33.804688 " fill-opacity="1" fill-rule="evenodd"/><path fill="#2c3548" d="M 117.382812 34.910156 C 117.382812 34.914062 117.410156 34.609375 117.433594 34.179688 C 117.460938 33.707031 117.457031 33.5625 117.457031 33.5625 C 116.898438 33.15625 115.933594 32.851562 115.285156 32.730469 C 114.691406 32.621094 114.421875 32.789062 114.300781 33.011719 C 114.144531 33.300781 114.21875 33.597656 114.390625 33.839844 C 114.546875 34.0625 114.980469 34.148438 115.21875 34.234375 C 115.808594 34.449219 116.707031 34.582031 117.382812 34.910156 " fill-opacity="1" fill-rule="evenodd"/><path fill="#000000" d="M 113.460938 36.332031 C 113.550781 37.203125 113.636719 37.65625 113.902344 38.902344 C 113.941406 39.085938 114.027344 39.332031 114.054688 39.566406 C 114.070312 39.6875 114.070312 39.804688 114.023438 39.898438 C 113.96875 40 113.851562 40.058594 113.710938 40.105469 C 113.527344 40.160156 113.304688 40.179688 113.066406 40.179688 C 112.621094 40.179688 112.125 40.101562 111.746094 39.996094 C 111.507812 39.929688 111.320312 39.855469 111.226562 39.78125 C 111.15625 39.722656 111.050781 39.734375 110.996094 39.808594 C 110.941406 39.878906 110.949219 39.980469 111.023438 40.039062 C 111.125 40.121094 111.316406 40.207031 111.554688 40.28125 C 112.082031 40.445312 112.867188 40.558594 113.453125 40.492188 C 113.867188 40.441406 114.1875 40.292969 114.316406 40.050781 C 114.390625 39.902344 114.40625 39.722656 114.382812 39.527344 C 114.351562 39.285156 114.265625 39.027344 114.222656 38.832031 C 113.964844 37.601562 113.878906 37.160156 113.785156 36.296875 C 113.777344 36.207031 113.695312 36.140625 113.605469 36.152344 C 113.515625 36.164062 113.449219 36.242188 113.460938 36.332031 " fill-opacity="1" fill-rule="evenodd"/><path fill="#b95c3e" d="M 113.890625 43.433594 C 113.945312 43.101562 114.007812 42.5625 113.164062 41.769531 C 112.753906 41.386719 111.890625 41.191406 111.386719 41.171875 C 110.945312 41.160156 110.042969 41.304688 109.699219 41.582031 C 109.492188 41.746094 109.214844 43.128906 110.371094 44.183594 C 110.929688 44.699219 111.855469 44.859375 112.554688 44.714844 C 113.152344 44.585938 113.785156 44.085938 113.890625 43.433594 " fill-opacity="1" fill-rule="evenodd"/><path fill="#000000" d="M 114.097656 43.117188 C 113.242188 43.121094 112.574219 42.980469 112.199219 42.878906 C 110.835938 42.519531 109.910156 41.875 109.363281 40.953125 C 109.320312 40.875 109.21875 40.847656 109.140625 40.894531 C 109.0625 40.941406 109.035156 41.042969 109.082031 41.121094 C 109.664062 42.109375 110.65625 42.8125 112.117188 43.195312 C 112.507812 43.300781 113.203125 43.453125 114.097656 43.449219 C 114.191406 43.449219 114.261719 43.375 114.261719 43.285156 C 114.261719 43.191406 114.1875 43.117188 114.097656 43.117188 " fill-opacity="1" fill-rule="evenodd"/><path fill="#000000" d="M 115.878906 35.480469 C 115.539062 35.480469 115.257812 35.769531 115.257812 36.128906 C 115.257812 36.484375 115.539062 36.773438 115.878906 36.773438 C 116.222656 36.773438 116.5 36.484375 116.5 36.128906 C 116.5 35.769531 116.222656 35.480469 115.878906 35.480469 " fill-opacity="1" fill-rule="evenodd"/><path fill="#000000" d="M 109.671875 35.109375 C 109.261719 35.109375 108.929688 35.449219 108.929688 35.859375 C 108.929688 36.273438 109.261719 36.609375 109.671875 36.609375 C 110.082031 36.609375 110.414062 36.273438 110.414062 35.859375 C 110.414062 35.449219 110.082031 35.109375 109.671875 35.109375 " fill-opacity="1" fill-rule="evenodd"/><path fill="#000000" d="M 107.734375 36.394531 C 108.054688 35.871094 108.507812 35.539062 108.945312 35.390625 C 109.84375 35.085938 110.355469 35.210938 111.15625 35.652344 C 111.238281 35.699219 111.339844 35.667969 111.382812 35.585938 C 111.425781 35.507812 111.398438 35.40625 111.316406 35.363281 C 110.421875 34.871094 109.84375 34.738281 108.835938 35.078125 C 108.339844 35.246094 107.820312 35.625 107.453125 36.222656 C 107.40625 36.300781 107.429688 36.402344 107.507812 36.449219 C 107.585938 36.496094 107.6875 36.472656 107.734375 36.394531 " fill-opacity="1" fill-rule="evenodd"/><path fill="#000000" d="M 114.570312 35.894531 C 114.796875 35.730469 115.144531 35.601562 115.4375 35.570312 C 115.769531 35.535156 116.117188 35.554688 116.382812 35.753906 C 116.558594 35.882812 116.695312 36.09375 116.777344 36.40625 C 116.800781 36.496094 116.890625 36.546875 116.980469 36.523438 C 117.066406 36.5 117.117188 36.414062 117.09375 36.324219 C 116.992188 35.921875 116.804688 35.65625 116.582031 35.488281 C 116.246094 35.238281 115.816406 35.199219 115.402344 35.246094 C 115.054688 35.28125 114.648438 35.433594 114.378906 35.625 C 114.304688 35.679688 114.289062 35.78125 114.339844 35.855469 C 114.390625 35.929688 114.496094 35.945312 114.570312 35.894531 " fill-opacity="1" fill-rule="evenodd"/><path fill="#2c3548" d="M 111.152344 20.691406 C 112.019531 20.988281 116.445312 18.71875 117.417969 21.996094 C 117.773438 23.195312 120.289062 23.023438 120.515625 24.820312 C 120.746094 26.621094 121.789062 26.945312 122.160156 28.078125 C 122.617188 29.46875 121.082031 30.796875 121.207031 32.117188 C 121.316406 33.28125 117.390625 34.804688 117.390625 34.78125 C 117.460938 33.5625 117.472656 32.328125 117.464844 32.308594 C 115.757812 27.554688 114.148438 26.472656 112.449219 25.390625 C 112.402344 25.359375 110.777344 28.621094 109 29.613281 C 107.53125 30.433594 105.511719 30.039062 104.546875 31.785156 C 102.585938 35.347656 102.164062 35.546875 100.390625 35.113281 C 100.335938 35.101562 98.382812 39.023438 98.679688 40.527344 C 98.90625 41.675781 101.804688 47.613281 98.785156 47.832031 C 96.769531 47.980469 96.410156 48.847656 95.125 48.757812 C 92.753906 48.59375 92.308594 46.757812 91.371094 45.523438 C 90.460938 44.320312 87.785156 44.382812 88.214844 41.226562 C 88.636719 38.152344 87.246094 38.269531 87.628906 36.460938 C 87.882812 35.273438 88.96875 34.757812 89.136719 34.175781 C 89.34375 33.441406 88.488281 32.726562 89.125 31.285156 C 89.796875 29.765625 91.210938 30.246094 91.214844 28.535156 C 91.21875 27.265625 90.894531 26.441406 92.128906 25.359375 C 93.332031 24.300781 94.574219 25.390625 95.589844 23.148438 C 96.410156 21.347656 97.3125 19.9375 100.132812 20.007812 C 102.972656 20.078125 103.511719 17.789062 106.402344 18.234375 C 108.726562 18.589844 109.738281 20.207031 111.152344 20.691406 " fill-opacity="1" fill-rule="evenodd"/><path fill="#ffffff" d="M 107.039062 34.773438 C 106.445312 34.753906 100.308594 35.148438 98.355469 35.148438 C 98.265625 35.148438 98.191406 35.222656 98.191406 35.3125 C 98.191406 35.402344 98.265625 35.476562 98.355469 35.476562 C 100.304688 35.476562 106.4375 35.082031 107.03125 35.101562 C 107.125 35.105469 107.199219 35.03125 107.203125 34.941406 C 107.203125 34.851562 107.132812 34.773438 107.039062 34.773438 " fill-opacity="1" fill-rule="evenodd"/><path fill="#f3b08c" d="M 101.667969 37.253906 C 101.722656 37.246094 101.269531 35.042969 99.109375 34.414062 C 98.125 34.128906 96.496094 34.277344 95.855469 35.25 C 95.527344 35.75 95.5 36.511719 95.601562 37.070312 C 95.824219 38.351562 96.527344 39.105469 97.570312 39.867188 C 97.867188 40.082031 98.230469 40.304688 98.648438 40.546875 C 98.761719 40.609375 101.503906 37.617188 101.667969 37.253906 " fill-opacity="1" fill-rule="evenodd"/><path fill="#000000" d="M 99.820312 37.1875 C 99.746094 36.941406 99.589844 36.714844 99.40625 36.53125 C 98.824219 35.933594 97.957031 35.746094 97.078125 36.15625 C 96.996094 36.195312 96.960938 36.292969 97 36.375 C 97.039062 36.457031 97.136719 36.492188 97.21875 36.453125 C 97.738281 36.210938 98.253906 36.214844 98.683594 36.414062 C 98.652344 36.53125 98.566406 36.777344 98.425781 37.03125 C 98.226562 37.390625 97.921875 37.707031 97.46875 37.773438 C 97.378906 37.789062 97.316406 37.871094 97.328125 37.960938 C 97.34375 38.050781 97.429688 38.113281 97.519531 38.097656 C 98.078125 38.011719 98.472656 37.636719 98.714844 37.191406 C 98.839844 36.964844 98.925781 36.742188 98.972656 36.585938 C 99.042969 36.640625 99.109375 36.695312 99.171875 36.761719 C 99.316406 36.910156 99.445312 37.089844 99.507812 37.285156 C 99.535156 37.371094 99.625 37.421875 99.714844 37.394531 C 99.800781 37.367188 99.847656 37.273438 99.820312 37.1875 " fill-opacity="1" fill-rule="evenodd"/><path fill="#ffffff" d="M 111.230469 33.976562 C 111.484375 34.1875 111.796875 34.632812 111.914062 34.933594 C 112.308594 35.941406 112.191406 37.050781 111.449219 37.835938 C 110.558594 38.777344 109.109375 38.710938 108.128906 37.988281 C 107.875 37.800781 107.652344 37.574219 107.476562 37.304688 C 107.09375 36.714844 106.949219 35.730469 107.15625 35.082031 C 107.652344 33.511719 109.652344 32.636719 111.230469 33.976562 Z M 111.445312 33.722656 C 109.660156 32.210938 107.402344 33.210938 106.839844 34.980469 C 106.609375 35.714844 106.769531 36.820312 107.203125 37.484375 C 107.398438 37.789062 107.652344 38.042969 107.933594 38.253906 C 109.046875 39.074219 110.679688 39.125 111.6875 38.0625 C 112.519531 37.1875 112.664062 35.941406 112.222656 34.8125 C 112.085938 34.472656 111.734375 33.96875 111.445312 33.722656 " fill-opacity="1" fill-rule="evenodd"/><path fill="#fce1ca" d="M 114.308594 35.566406 C 113.800781 35.09375 112.921875 35.015625 112.277344 35.222656 C 112.191406 35.25 112.144531 35.34375 112.171875 35.429688 C 112.199219 35.519531 112.292969 35.566406 112.378906 35.535156 C 112.917969 35.363281 113.660156 35.410156 114.085938 35.804688 C 114.152344 35.867188 114.253906 35.863281 114.316406 35.796875 C 114.378906 35.730469 114.375 35.625 114.308594 35.566406 " fill-opacity="1" fill-rule="evenodd"/><path fill="#ffffff" d="M 117.835938 34.53125 C 118.058594 34.707031 118.300781 35.121094 118.394531 35.390625 C 118.726562 36.304688 118.621094 37.324219 117.992188 38.039062 C 117.25 38.882812 116.089844 38.882812 115.332031 38.179688 C 114.484375 37.40625 114.324219 36.214844 114.5 35.621094 C 114.753906 34.765625 115.371094 34.109375 116.144531 33.980469 C 116.664062 33.894531 117.246094 34.050781 117.835938 34.53125 Z M 118.042969 34.273438 C 117.363281 33.722656 116.6875 33.558594 116.09375 33.65625 C 115.199219 33.800781 114.476562 34.542969 114.183594 35.527344 C 113.984375 36.199219 114.152344 37.546875 115.105469 38.425781 C 116 39.25 117.367188 39.25 118.238281 38.257812 C 118.945312 37.449219 119.078125 36.308594 118.707031 35.277344 C 118.59375 34.964844 118.300781 34.480469 118.042969 34.273438 " fill-opacity="1" fill-rule="evenodd"/><path fill="#f3b08c" d="M 165.914062 70.328125 C 166.109375 70.585938 166.53125 70.519531 166.753906 70.515625 C 171.242188 70.460938 171.976562 68.488281 172.625 67.648438 C 173.71875 66.234375 173.746094 66.171875 173.9375 65.914062 C 175.667969 63.597656 177.183594 64.410156 176.601562 65.925781 C 176.371094 66.53125 175.945312 67.234375 175.738281 67.574219 C 175.714844 67.613281 175.691406 67.652344 175.667969 67.691406 C 176.421875 66.976562 177.390625 65.96875 178.15625 65.460938 C 178.773438 65.046875 179.300781 65.289062 179.558594 65.613281 C 179.910156 66.0625 179.523438 66.996094 179.300781 67.425781 C 179.101562 67.808594 178.800781 68.402344 178.457031 68.902344 C 179.957031 68.394531 181.40625 68.050781 181.738281 68.546875 C 182.417969 69.5625 179.984375 71.273438 176.679688 73.058594 C 174.820312 74.066406 172.921875 75.421875 172.113281 75.449219 C 169.71875 75.527344 168.453125 75.730469 165.78125 75.714844 C 164.175781 75.707031 162.875 75.761719 161.640625 76.78125 C 161.316406 77.050781 159.960938 78.46875 159.949219 78.453125 C 160.085938 78.351562 154.617188 73.746094 154.75 73.636719 C 156.277344 72.378906 157.488281 70.042969 159.472656 69.445312 C 162.546875 68.054688 163.675781 67.824219 164.679688 67.449219 C 165.257812 67.234375 165.5625 67.113281 166.449219 66.683594 C 168.59375 65.644531 169.167969 65.488281 169.484375 65.617188 C 170.09375 65.867188 170.058594 67.738281 168.519531 68.664062 C 167.519531 69.261719 166.734375 69.570312 166.246094 69.828125 C 166.019531 69.949219 165.785156 70.089844 165.914062 70.328125 " fill-opacity="1" fill-rule="evenodd"/><path fill="#202020" d="M 178.804688 70.488281 C 178.078125 70.320312 177.359375 70.328125 176.695312 70.503906 C 175.351562 70.855469 174.097656 71.585938 173.351562 72 C 173.152344 72.113281 172.738281 72.15625 172.175781 72.179688 C 170.777344 72.242188 168.507812 72.144531 166.140625 72.304688 C 166.046875 72.316406 165.976562 72.390625 165.984375 72.480469 C 165.992188 72.574219 166.070312 72.640625 166.160156 72.636719 C 168.527344 72.472656 170.792969 72.574219 172.1875 72.507812 C 172.824219 72.480469 173.285156 72.414062 173.511719 72.289062 C 174.242188 71.886719 175.464844 71.167969 176.777344 70.824219 C 177.394531 70.660156 178.0625 70.65625 178.734375 70.808594 C 178.820312 70.828125 178.910156 70.773438 178.929688 70.683594 C 178.949219 70.59375 178.894531 70.507812 178.804688 70.488281 " fill-opacity="1" fill-rule="evenodd"/><path fill="#c88664" d="M 68.578125 103.953125 C 68.617188 98.550781 69.191406 93.789062 69.625 88.980469 C 70.3125 81.253906 72.667969 68.65625 76.1875 64.085938 C 81.269531 57.484375 88.128906 53.539062 97.046875 52.796875 C 97.332031 52.773438 98.199219 56.585938 99.894531 59.214844 C 101.367188 61.496094 102.84375 63.066406 105.84375 63.132812 C 111.199219 63.253906 112.988281 54.277344 113.128906 54.292969 C 116.988281 54.738281 123.246094 57.554688 125.136719 59.953125 C 128.890625 64.707031 134.871094 88.261719 137.515625 88.136719 C 139.628906 88.035156 151.546875 71.945312 152.421875 72.09375 C 154.664062 72.472656 160.546875 78.121094 160.894531 79.332031 C 161.257812 80.621094 142.570312 107.121094 136.554688 108.378906 C 127.59375 110.253906 125.046875 101.492188 122.488281 96.601562 C 122.355469 96.339844 121.34375 94.183594 121.273438 94.5625 C 120.503906 98.5625 120.28125 104.902344 119.738281 108.792969 C 119.707031 109 87.730469 109.09375 86.421875 108.972656 C 86.363281 108.96875 82.113281 112.898438 79.839844 113.617188 C 77.597656 114.328125 75.648438 114.339844 72.78125 113.292969 C 68.765625 111.824219 68.554688 107.367188 68.578125 103.953125 " fill-opacity="1" fill-rule="evenodd"/><path fill="#ffffff" d="M 110.324219 67.484375 C 109.34375 67.503906 108.6875 68.074219 108.484375 69.203125 C 107.730469 73.394531 104.988281 86.671875 103.769531 92.5625 C 103.679688 93 102.976562 95.851562 102.628906 97.777344 C 102.449219 98.753906 103.402344 99.683594 104.617188 99.757812 C 108.925781 100.023438 118.601562 100.1875 123.125 100.191406 C 125.304688 100.195312 125.820312 98.769531 126.0625 97.714844 C 127.082031 93.234375 129.105469 84.089844 129.496094 82.296875 C 130.078125 79.636719 131.238281 73.253906 131.816406 69.867188 C 132.042969 68.546875 131.90625 67.648438 130.507812 67.625 C 126.453125 67.554688 115.945312 67.367188 110.324219 67.484375 " fill-opacity="1" fill-rule="evenodd"/><path fill="#f3b08c" d="M 99.199219 86.550781 C 100.269531 84.265625 101.914062 82.785156 102.699219 81.816406 C 103.574219 80.734375 104.195312 79.707031 104.621094 78.183594 C 105.269531 75.863281 106.878906 75.480469 107.136719 76.617188 C 107.648438 78.886719 106.363281 82.8125 106.742188 82.742188 C 106.910156 82.710938 107.8125 81.988281 108.796875 81.167969 C 109.84375 80.296875 110.988281 79.3125 111.421875 78.964844 C 114.292969 76.640625 115.46875 74.992188 117.164062 75 C 117.894531 75 118.621094 75.4375 118.644531 75.421875 C 119.125 75.125 119.703125 74.855469 120.367188 75.425781 C 121.175781 76.121094 120.777344 76.867188 120.25 77.542969 C 120.214844 77.585938 121.296875 78.410156 120.699219 79.691406 C 120.53125 80.046875 120 80.9375 119.855469 81.152344 C 119.789062 81.253906 120.585938 81.707031 120.324219 82.640625 C 120.042969 83.632812 115.574219 88.132812 114.679688 88.824219 C 113.601562 89.652344 112.355469 90.53125 111.207031 91.152344 C 110.273438 91.652344 106.890625 93.011719 104.785156 93.582031 C 104.695312 93.605469 101.070312 88.582031 99.199219 86.550781 " fill-opacity="1" fill-rule="evenodd"/><path fill="#202020" d="M 118.089844 76.292969 L 118.09375 76.292969 Z M 118.1875 76.304688 Z M 118.179688 76.304688 L 118.175781 76.304688 Z M 118.09375 76.292969 C 118.117188 76.304688 118.140625 76.308594 118.171875 76.304688 C 118.144531 76.308594 118.121094 76.304688 118.09375 76.292969 Z M 118.257812 76.273438 C 118.246094 76.28125 118.21875 76.308594 118.195312 76.332031 C 117.734375 76.792969 115.273438 79.308594 110.964844 82.960938 C 110.894531 83.019531 110.792969 83.011719 110.730469 82.941406 C 110.671875 82.871094 110.679688 82.769531 110.75 82.710938 C 115.046875 79.066406 117.503906 76.558594 117.960938 76.101562 C 118.027344 76.039062 118.0625 76.007812 118.070312 76.003906 C 118.152344 75.953125 118.214844 75.984375 118.238281 75.996094 C 118.316406 76.039062 118.347656 76.140625 118.304688 76.222656 C 118.292969 76.242188 118.277344 76.261719 118.257812 76.273438 " fill-opacity="1" fill-rule="evenodd"/><path fill="#202020" d="M 119.609375 78.171875 L 119.613281 78.175781 L 119.605469 78.171875 Z M 119.707031 78.1875 L 119.703125 78.1875 Z M 119.699219 78.1875 L 119.691406 78.1875 Z M 119.613281 78.175781 C 119.632812 78.183594 119.660156 78.191406 119.691406 78.1875 C 119.664062 78.191406 119.636719 78.1875 119.613281 78.175781 Z M 119.777344 78.15625 C 119.765625 78.164062 119.742188 78.1875 119.714844 78.214844 C 119.261719 78.671875 116.839844 81.183594 112.597656 84.832031 C 112.527344 84.890625 112.425781 84.882812 112.367188 84.8125 C 112.304688 84.746094 112.316406 84.640625 112.382812 84.582031 C 116.613281 80.945312 119.027344 78.4375 119.480469 77.984375 C 119.542969 77.921875 119.582031 77.890625 119.585938 77.886719 C 119.671875 77.832031 119.734375 77.867188 119.757812 77.878906 C 119.835938 77.921875 119.863281 78.023438 119.824219 78.101562 C 119.808594 78.125 119.792969 78.140625 119.777344 78.15625 " fill-opacity="1" fill-rule="evenodd"/><path fill="#202020" d="M 119.375 81.792969 L 119.378906 81.796875 Z M 119.472656 81.804688 Z M 119.464844 81.804688 L 119.460938 81.804688 Z M 119.382812 81.796875 C 119.402344 81.804688 119.429688 81.8125 119.460938 81.804688 C 119.433594 81.808594 119.40625 81.804688 119.382812 81.796875 Z M 119.539062 81.773438 C 119.535156 81.78125 119.515625 81.800781 119.496094 81.820312 C 119.136719 82.164062 117.234375 84.050781 114.097656 86.675781 C 114.027344 86.734375 113.921875 86.726562 113.867188 86.65625 C 113.804688 86.585938 113.816406 86.480469 113.886719 86.425781 C 117.011719 83.804688 118.910156 81.925781 119.265625 81.582031 C 119.316406 81.53125 119.347656 81.507812 119.355469 81.503906 C 119.4375 81.453125 119.5 81.484375 119.523438 81.496094 C 119.601562 81.542969 119.632812 81.640625 119.585938 81.722656 C 119.578125 81.742188 119.558594 81.761719 119.539062 81.773438 " fill-opacity="1" fill-rule="evenodd"/><path fill="#c88664" d="M 87.105469 108.546875 C 95.589844 101.855469 104.496094 95.546875 105.21875 94.691406 C 105.40625 94.472656 103.433594 91.230469 101.324219 88.808594 C 100.515625 87.878906 99.199219 86.191406 98.265625 86.117188 C 97.707031 86.070312 87.214844 92.636719 85.777344 93.617188 C 84.957031 94.179688 80.164062 97.351562 77.386719 99.316406 L 87.105469 108.546875 " fill-opacity="1" fill-rule="evenodd"/><path fill="#202020" d="M 105.394531 94.601562 C 105.382812 94.511719 105.332031 94.359375 105.238281 94.15625 C 104.757812 93.132812 103.148438 90.652344 101.449219 88.699219 C 100.960938 88.140625 100.285156 87.300781 99.621094 86.707031 C 99.152344 86.28125 98.679688 85.984375 98.28125 85.953125 C 98.234375 85.949219 98.136719 85.964844 98 86.023438 C 97.757812 86.125 97.347656 86.339844 96.808594 86.640625 C 93.789062 88.332031 86.835938 92.695312 85.683594 93.480469 C 85.578125 93.554688 85.40625 93.671875 85.179688 93.824219 C 86.40625 87.984375 87.375 81.914062 87.984375 78.027344 C 88 77.9375 87.9375 77.855469 87.847656 77.839844 C 87.757812 77.824219 87.671875 77.886719 87.65625 77.976562 C 87.042969 81.921875 86.054688 88.109375 84.800781 94.027344 C 84.796875 94.046875 84.796875 94.0625 84.796875 94.078125 C 83.074219 95.230469 79.527344 97.597656 77.289062 99.179688 C 77.214844 99.230469 77.199219 99.335938 77.25 99.410156 C 77.300781 99.484375 77.40625 99.5 77.480469 99.449219 C 80.257812 97.484375 85.050781 94.3125 85.871094 93.753906 C 87.019531 92.96875 93.957031 88.613281 96.972656 86.925781 C 97.492188 86.636719 97.894531 86.425781 98.125 86.328125 C 98.179688 86.304688 98.25 86.285156 98.261719 86.28125 C 98.605469 86.3125 99 86.589844 99.402344 86.953125 C 100.054688 87.539062 100.71875 88.363281 101.199219 88.914062 C 102.875 90.84375 104.464844 93.285156 104.9375 94.296875 C 105.003906 94.429688 105.042969 94.570312 105.058594 94.621094 C 104.136719 95.605469 95.363281 101.824219 87.003906 108.414062 C 86.929688 108.472656 86.921875 108.574219 86.976562 108.648438 C 87.03125 108.71875 87.136719 108.730469 87.207031 108.675781 C 95.707031 101.976562 104.621094 95.652344 105.34375 94.796875 C 105.378906 94.757812 105.40625 94.695312 105.394531 94.601562 " fill-opacity="1" fill-rule="evenodd"/><path fill="#202020" d="M 137.179688 88.863281 C 137.050781 90.277344 136.6875 93.039062 136.695312 93.851562 C 136.695312 93.941406 136.769531 94.011719 136.859375 94.011719 C 136.953125 94.011719 137.027344 93.9375 137.023438 93.847656 C 137.015625 93.039062 137.378906 90.296875 137.507812 88.894531 C 137.515625 88.804688 137.449219 88.722656 137.359375 88.714844 C 137.269531 88.707031 137.1875 88.773438 137.179688 88.863281 " fill-opacity="1" fill-rule="evenodd"/><g clip-path="url(#9da7d819eb)"><path fill="#f9ece0" d="M 208.816406 99.90625 C 208.710938 104.554688 208.6875 108.398438 206.632812 111.105469 C 204.585938 113.808594 200.519531 115.328125 192.445312 115.464844 C 162.824219 115.984375 89.140625 115.742188 71.503906 115.894531 C 62.4375 115.976562 51.515625 114.300781 51.421875 102.117188 C 51.328125 90.054688 51.167969 48.691406 50.96875 34.613281 C 50.84375 25.890625 50.988281 19.695312 50.996094 18.527344 C 51.015625 16.019531 51.269531 13.859375 51.742188 12.003906 C 66.46875 12.355469 199.496094 11.558594 207.921875 11.5625 C 208.515625 14.214844 208.484375 17.039062 208.503906 19.554688 C 208.625 36.644531 209.003906 91.597656 208.816406 99.90625 Z M 55.917969 5.023438 C 59.070312 2.460938 63.605469 1.59375 69.160156 1.539062 C 108.195312 1.144531 165.574219 1.761719 190.59375 1.570312 C 197.867188 1.515625 202.195312 3.125 204.761719 5.609375 C 206.269531 7.066406 207.164062 8.820312 207.695312 10.6875 C 197.429688 10.695312 67.644531 11.46875 51.988281 11.132812 C 52.8125 8.457031 54.136719 6.472656 55.917969 5.023438 Z M 209.378906 19.546875 C 209.347656 14.734375 209.394531 8.875 205.367188 4.980469 C 202.6875 2.386719 198.1875 0.636719 190.589844 0.695312 C 165.566406 0.882812 108.1875 0.269531 69.152344 0.664062 C 63.363281 0.71875 58.648438 1.671875 55.363281 4.347656 C 52.066406 7.03125 50.171875 11.457031 50.121094 18.519531 C 50.113281 19.691406 49.96875 25.890625 50.09375 34.628906 C 50.292969 48.703125 50.453125 90.0625 50.546875 102.125 C 50.644531 114.917969 61.988281 116.855469 71.511719 116.773438 C 89.148438 116.621094 162.839844 116.859375 192.460938 116.339844 C 200.945312 116.191406 205.179688 114.476562 207.332031 111.636719 C 209.484375 108.800781 209.582031 104.792969 209.691406 99.929688 C 209.878906 91.617188 209.5 36.644531 209.378906 19.546875 " fill-opacity="1" fill-rule="evenodd"/></g><path fill="#f9ece0" d="M 70.683594 5.441406 C 70.101562 5.441406 69.628906 5.859375 69.628906 6.375 C 69.628906 6.890625 70.101562 7.3125 70.683594 7.3125 C 71.261719 7.3125 71.734375 6.890625 71.734375 6.375 C 71.734375 5.859375 71.261719 5.441406 70.683594 5.441406 Z M 70.683594 8.171875 C 69.628906 8.171875 68.769531 7.367188 68.769531 6.375 C 68.769531 5.386719 69.628906 4.582031 70.683594 4.582031 C 71.738281 4.582031 72.59375 5.386719 72.59375 6.375 C 72.59375 7.367188 71.738281 8.171875 70.683594 8.171875 Z M 76.34375 5.53125 C 75.765625 5.53125 75.292969 5.949219 75.292969 6.46875 C 75.292969 6.984375 75.765625 7.40625 76.34375 7.40625 C 76.925781 7.40625 77.398438 6.984375 77.398438 6.46875 C 77.398438 5.949219 76.925781 5.53125 76.34375 5.53125 Z M 76.34375 8.261719 C 75.289062 8.261719 74.429688 7.457031 74.429688 6.46875 C 74.429688 5.476562 75.289062 4.671875 76.34375 4.671875 C 77.398438 4.671875 78.257812 5.476562 78.257812 6.46875 C 78.257812 7.457031 77.398438 8.261719 76.34375 8.261719 Z M 64.824219 5.53125 C 64.242188 5.53125 63.769531 5.949219 63.769531 6.46875 C 63.769531 6.984375 64.242188 7.40625 64.824219 7.40625 C 65.40625 7.40625 65.875 6.984375 65.875 6.46875 C 65.875 5.949219 65.40625 5.53125 64.824219 5.53125 Z M 64.824219 8.261719 C 63.769531 8.261719 62.914062 7.457031 62.914062 6.46875 C 62.914062 5.476562 63.769531 4.671875 64.824219 4.671875 C 65.878906 4.671875 66.738281 5.476562 66.738281 6.46875 C 66.738281 7.457031 65.878906 8.261719 64.824219 8.261719 " fill-opacity="1" fill-rule="nonzero"/><path fill="#ffffff" d="M 128.324219 54.144531 C 128.445312 45.183594 128.367188 28.730469 128.695312 23.511719 C 128.855469 20.984375 129.984375 19.988281 132.394531 19.707031 C 134.425781 19.464844 149.054688 19.335938 154.984375 19.671875 C 158.042969 19.847656 158.078125 22.707031 158.25 23.785156 C 158.875 27.714844 158.484375 38.636719 158.238281 43.480469 C 158.199219 44.277344 158.3125 48.324219 154.105469 48.585938 C 150.449219 48.816406 140.710938 48.664062 138.085938 48.699219 C 136.246094 48.722656 128.28125 57.660156 128.324219 54.144531 " fill-opacity="1" fill-rule="evenodd"/><path fill="#c78565" d="M 147.308594 32.480469 C 146.703125 33.515625 145.851562 34.316406 145.503906 35.507812 C 145.414062 35.824219 145.34375 36.359375 145.199219 36.84375 C 145.125 37.097656 145.03125 37.339844 144.890625 37.507812 C 144.859375 37.5 144.820312 37.492188 144.78125 37.488281 C 144.628906 37.46875 144.417969 37.460938 144.191406 37.460938 C 144.617188 35.726562 145.335938 32.511719 145.566406 31.949219 C 145.597656 31.875 145.582031 31.820312 145.558594 31.777344 C 145.535156 31.722656 145.484375 31.664062 145.378906 31.65625 C 145.34375 31.65625 145.253906 31.671875 145.140625 31.714844 C 144.984375 31.773438 144.757812 31.875 144.679688 31.878906 C 144.527344 31.890625 144.425781 31.796875 144.308594 31.734375 C 144.179688 31.664062 144.039062 31.613281 143.875 31.621094 C 143.734375 31.628906 143.613281 31.6875 143.492188 31.761719 C 143.441406 31.792969 143.394531 31.828125 143.339844 31.859375 C 143.292969 31.890625 143.242188 31.914062 143.183594 31.914062 C 143.070312 31.914062 142.953125 31.847656 142.835938 31.792969 C 142.660156 31.714844 142.480469 31.640625 142.308594 31.644531 C 142.136719 31.644531 142.003906 31.703125 141.875 31.773438 C 141.761719 31.839844 141.660156 31.929688 141.492188 31.925781 C 141.335938 31.917969 140.921875 31.769531 140.84375 31.746094 C 140.722656 31.714844 140.652344 31.773438 140.648438 31.78125 C 140.601562 31.816406 140.582031 31.855469 140.570312 31.902344 C 140.566406 31.941406 140.566406 31.992188 140.597656 32.042969 C 140.601562 32.058594 140.6875 32.324219 140.761719 32.613281 C 141.089844 33.851562 141.734375 36.570312 142.011719 37.464844 C 141.8125 37.472656 141.621094 37.484375 141.488281 37.5 C 141.429688 37.507812 141.378906 37.519531 141.335938 37.53125 C 141.335938 37.53125 141.332031 37.53125 141.332031 37.53125 C 141.085938 37.351562 140.980469 37.039062 140.910156 36.71875 C 140.824219 36.339844 140.789062 35.953125 140.707031 35.699219 C 140.417969 34.835938 139.992188 34.195312 139.597656 33.558594 C 139.042969 32.652344 138.550781 31.761719 138.699219 30.1875 C 138.847656 28.585938 139.945312 27.519531 141.339844 27 C 142.757812 26.472656 144.480469 26.511719 145.855469 27.148438 C 147.699219 27.996094 148.386719 30.621094 147.308594 32.480469 Z M 144.46875 40.652344 C 144.40625 40.664062 144.242188 40.691406 144.097656 40.699219 C 143.46875 40.742188 142.460938 40.730469 142.34375 40.726562 C 142.34375 40.726562 142.34375 40.726562 142.339844 40.726562 C 142.339844 40.726562 142.339844 40.726562 142.335938 40.726562 C 142.144531 40.730469 141.886719 40.722656 141.785156 40.71875 C 141.746094 40.632812 141.710938 40.507812 141.667969 40.355469 C 141.628906 40.199219 141.589844 40.015625 141.550781 39.820312 C 141.894531 39.9375 142.195312 40.019531 142.417969 40.0625 C 143.167969 40.21875 143.890625 40.21875 144.632812 40.132812 C 144.621094 40.183594 144.609375 40.234375 144.59375 40.277344 C 144.554688 40.4375 144.511719 40.570312 144.46875 40.652344 Z M 143.527344 41.40625 C 143.234375 41.484375 142.898438 41.457031 142.636719 41.339844 C 142.542969 41.296875 142.417969 41.226562 142.320312 41.136719 C 142.324219 41.136719 142.324219 41.136719 142.328125 41.136719 C 142.332031 41.136719 142.332031 41.136719 142.332031 41.136719 C 142.441406 41.140625 143.34375 41.148438 143.988281 41.117188 C 143.875 41.261719 143.710938 41.359375 143.527344 41.40625 Z M 144.71875 39.710938 C 143.972656 39.808594 143.253906 39.816406 142.5 39.660156 C 142.246094 39.609375 141.882812 39.511719 141.476562 39.359375 C 141.4375 39.058594 141.40625 38.753906 141.398438 38.496094 C 141.445312 38.515625 141.492188 38.535156 141.542969 38.554688 C 141.820312 38.664062 142.105469 38.757812 142.398438 38.828125 C 143.171875 39.011719 144.039062 39.105469 144.832031 38.953125 C 144.804688 39.203125 144.765625 39.464844 144.71875 39.710938 Z M 143.085938 37.871094 C 143.089844 37.871094 143.097656 37.871094 143.105469 37.871094 C 143.394531 37.875 144.109375 37.847656 144.5625 37.878906 C 144.660156 37.886719 144.777344 37.90625 144.824219 37.914062 C 144.832031 37.941406 144.847656 37.988281 144.851562 38.027344 C 144.867188 38.140625 144.875 38.285156 144.867188 38.445312 C 144.867188 38.472656 144.867188 38.496094 144.863281 38.527344 C 144.097656 38.703125 143.246094 38.609375 142.492188 38.429688 C 142.21875 38.363281 141.953125 38.277344 141.691406 38.175781 C 141.613281 38.144531 141.53125 38.109375 141.457031 38.070312 C 141.441406 38.0625 141.425781 38.058594 141.410156 38.054688 C 141.414062 38.03125 141.417969 38.007812 141.421875 37.988281 C 141.425781 37.96875 141.433594 37.945312 141.441406 37.929688 C 141.488281 37.917969 141.609375 37.898438 141.707031 37.890625 C 142.121094 37.859375 142.753906 37.871094 143.085938 37.871094 Z M 143.78125 37.421875 C 143.410156 37.429688 142.714844 37.4375 142.429688 37.429688 C 142.179688 36.714844 141.496094 33.796875 141.15625 32.503906 C 141.132812 32.414062 141.109375 32.324219 141.085938 32.25 C 141.238281 32.292969 141.394531 32.328125 141.476562 32.335938 C 141.660156 32.339844 141.800781 32.289062 141.929688 32.214844 C 142.050781 32.148438 142.152344 32.050781 142.3125 32.050781 C 142.429688 32.050781 142.542969 32.109375 142.664062 32.164062 C 142.835938 32.246094 143.011719 32.320312 143.179688 32.320312 C 143.328125 32.324219 143.457031 32.269531 143.578125 32.195312 C 143.632812 32.164062 143.683594 32.125 143.738281 32.09375 C 143.785156 32.0625 143.835938 32.03125 143.894531 32.03125 C 144.042969 32.023438 144.144531 32.113281 144.261719 32.175781 C 144.390625 32.246094 144.527344 32.296875 144.699219 32.289062 C 144.742188 32.289062 144.824219 32.269531 144.914062 32.238281 C 144.960938 32.21875 145.011719 32.203125 145.0625 32.183594 C 144.75 33.261719 144.148438 35.933594 143.78125 37.421875 Z M 146.027344 26.773438 C 144.554688 26.097656 142.710938 26.054688 141.195312 26.617188 C 139.65625 27.191406 138.457031 28.382812 138.292969 30.148438 C 138.136719 31.839844 138.652344 32.800781 139.25 33.773438 C 139.628906 34.386719 140.042969 35 140.316406 35.828125 C 140.417969 36.125 140.441406 36.613281 140.570312 37.042969 C 140.664062 37.351562 140.808594 37.632812 141.042969 37.820312 C 141.042969 37.824219 141.042969 37.824219 141.039062 37.828125 C 140.996094 37.972656 140.980469 38.207031 140.988281 38.488281 C 141.007812 39.089844 141.132812 39.917969 141.273438 40.460938 C 141.339844 40.71875 141.417969 40.914062 141.480469 41.011719 C 141.503906 41.046875 141.558594 41.097656 141.664062 41.121094 C 141.699219 41.125 141.753906 41.128906 141.816406 41.132812 C 141.855469 41.226562 141.914062 41.3125 141.992188 41.390625 C 142.132812 41.53125 142.324219 41.644531 142.46875 41.710938 C 142.8125 41.867188 143.25 41.902344 143.632812 41.800781 C 144.011719 41.699219 144.335938 41.460938 144.480469 41.070312 C 144.554688 41.054688 144.613281 41.042969 144.652344 41.027344 C 144.722656 41 144.761719 40.957031 144.785156 40.925781 C 144.851562 40.828125 144.925781 40.636719 144.988281 40.382812 C 145.132812 39.855469 145.257812 39.046875 145.277344 38.457031 C 145.285156 38.183594 145.265625 37.957031 145.222656 37.8125 C 145.21875 37.796875 145.214844 37.78125 145.207031 37.769531 C 145.375 37.558594 145.5 37.269531 145.589844 36.960938 C 145.734375 36.476562 145.808594 35.9375 145.898438 35.625 C 146.234375 34.460938 147.074219 33.691406 147.660156 32.6875 C 148.859375 30.621094 148.070312 27.71875 146.027344 26.773438 " fill-opacity="1" fill-rule="evenodd"/><g clip-path="url(#0f60a805a9)"><path fill="#737d4c" d="M 4.492188 79.183594 C 4.164062 79.117188 3.714844 79.386719 4.011719 79.785156 C 4.394531 80.304688 4.855469 80.902344 4.902344 80.960938 C 5.917969 82.34375 6.824219 83.808594 7.550781 85.367188 C 9.230469 88.96875 10.023438 94.6875 10.222656 96.929688 C 10.265625 97.398438 14.125 97.890625 14.273438 98.488281 C 14.394531 98.964844 10.34375 99.464844 10.355469 99.796875 C 10.558594 104.921875 12.390625 111.839844 14.476562 115.023438 C 14.699219 115.359375 18.640625 115.550781 18.898438 115.828125 C 19.109375 116.0625 16.398438 119.570312 16.476562 119.742188 C 18.265625 123.71875 23.917969 129.351562 25.863281 131.832031 C 26.074219 132.101562 29.261719 131.890625 30.167969 131.890625 C 30.558594 131.890625 29.085938 126.542969 28.871094 125.207031 C 28.183594 120.976562 26.976562 116.871094 26.050781 112.679688 C 23.53125 101.285156 17.921875 81.976562 4.492188 79.183594 " fill-opacity="1" fill-rule="evenodd"/></g><path fill="#899060" d="M 21.835938 54.492188 C 21.6875 54.214844 21.378906 54.332031 21.371094 54.613281 C 21.113281 60.6875 18.765625 66.636719 18.261719 73.992188 C 18.160156 75.488281 21.570312 76.070312 21.546875 76.359375 C 21.421875 77.707031 18.175781 78.632812 18.121094 79.105469 C 16.980469 89.203125 21.832031 102.300781 24.988281 113.203125 C 26.363281 117.964844 27.5625 122.550781 29.03125 127.28125 C 29.234375 127.945312 30.167969 131.835938 30.355469 131.832031 C 31.214844 131.824219 32.730469 132.035156 32.992188 131.570312 C 33.253906 131.113281 32.964844 129.859375 33.257812 125.921875 C 33.695312 120.085938 35.035156 114.542969 35.140625 108.652344 C 35.226562 103.828125 34.289062 96.441406 33.398438 91.578125 C 33.332031 91.222656 29.925781 91.46875 29.742188 90.953125 C 29.558594 90.445312 32.582031 88.738281 32.523438 88.035156 C 32.488281 87.648438 31.351562 83.03125 30.863281 81.644531 C 29.554688 77.914062 28.421875 75.035156 26.945312 70.550781 C 25.144531 65.085938 23.527344 57.652344 21.835938 54.492188 " fill-opacity="1" fill-rule="evenodd"/><path fill="#6c7342" d="M 46.292969 84.660156 C 46.460938 84.238281 46.378906 83.808594 45.945312 84.105469 C 43.339844 85.867188 37.648438 92.511719 37.460938 93.207031 C 37.414062 93.378906 39.300781 95.835938 38.839844 96.683594 C 38.804688 96.746094 36.328125 95.722656 36.105469 96.164062 C 33.949219 100.398438 32.699219 113.730469 33.0625 118.519531 C 33.5625 125.085938 32.496094 131.414062 32.765625 131.523438 C 33.660156 131.886719 36.347656 131.863281 36.714844 131.667969 C 37.164062 131.425781 38.761719 128.089844 40.28125 121.894531 C 42.714844 111.988281 41.519531 108.03125 45.035156 99.792969 C 45.109375 99.621094 44.6875 99.007812 44.015625 98.726562 C 43.308594 98.433594 42.351562 98.46875 42.371094 98.246094 C 42.386719 98.097656 43 97.445312 43.714844 97.164062 C 44.414062 96.890625 45.214844 96.988281 45.195312 96.875 C 45.09375 96.300781 44.859375 93.738281 44.976562 91.351562 C 45.082031 89.125 45.5 86.65625 46.292969 84.660156 " fill-opacity="1" fill-rule="evenodd"/><path fill="#899060" d="M 64.5625 78.859375 C 64.382812 78.488281 63.992188 78.191406 63.996094 78.859375 C 64.003906 80.121094 63.511719 81.441406 63.414062 81.859375 C 62.585938 85.449219 61.144531 88.875 59.136719 91.96875 C 57.960938 93.773438 54.277344 97.289062 52.640625 98.472656 C 52.605469 98.5 52.792969 99.402344 52.78125 100.277344 C 52.761719 101.308594 52.558594 102.335938 52.539062 102.3125 C 52.285156 102.035156 51.796875 101.222656 51.246094 100.808594 C 50.4375 100.199219 49.539062 100.019531 49.40625 100.046875 C 48.910156 100.164062 42.078125 109.710938 40.46875 113.339844 C 37.296875 120.5 36.441406 130.585938 36.746094 131.390625 C 36.992188 132.042969 43.878906 131.597656 43.878906 131.445312 C 43.890625 130.269531 49.152344 124.011719 50.960938 121.820312 C 59.371094 111.625 66.183594 102.175781 66.109375 88.3125 C 66.101562 86.273438 66.089844 84.289062 65.691406 82.273438 C 65.375 80.648438 65.023438 79.808594 64.5625 78.859375 " fill-opacity="1" fill-rule="evenodd"/><path fill="#2c3548" d="M 56.847656 147.71875 C 57.171875 143.417969 48.003906 131.078125 47.082031 130.953125 C 47.082031 130.953125 21.777344 131.195312 21.734375 131.257812 C 21.605469 131.460938 17.128906 138.375 16.164062 140.367188 C 13.769531 145.300781 12.183594 148.503906 14.371094 152.984375 C 15.363281 155.019531 22.882812 165.976562 24.582031 166.824219 C 27.445312 168.242188 43.40625 167.605469 45.074219 166.652344 C 46.050781 166.089844 56.453125 152.960938 56.847656 147.71875 " fill-opacity="1" fill-rule="evenodd"/><path fill="#4c5a7b" d="M 13.746094 148.785156 C 15.921875 149.273438 17.457031 149.433594 18.921875 149.539062 C 22.679688 149.804688 24.472656 149.988281 28.28125 149.964844 C 28.398438 149.964844 28.492188 149.871094 28.492188 149.753906 C 28.492188 149.636719 28.394531 149.542969 28.28125 149.542969 C 24.480469 149.566406 22.699219 149.382812 18.953125 149.121094 C 17.507812 149.015625 15.988281 148.859375 13.835938 148.375 C 13.722656 148.347656 13.613281 148.421875 13.585938 148.53125 C 13.5625 148.644531 13.632812 148.757812 13.746094 148.785156 " fill-opacity="1" fill-rule="evenodd"/><path fill="#4c5a7b" d="M 32.003906 149.945312 C 39.320312 149.921875 45.496094 149.640625 51.226562 148.691406 C 52.84375 148.425781 54.246094 148.207031 55.855469 147.757812 C 55.964844 147.726562 56.03125 147.609375 56 147.5 C 55.96875 147.386719 55.851562 147.320312 55.738281 147.355469 C 54.148438 147.800781 52.757812 148.011719 51.160156 148.277344 C 45.449219 149.222656 39.292969 149.5 32.003906 149.523438 C 31.886719 149.523438 31.792969 149.617188 31.792969 149.734375 C 31.792969 149.851562 31.886719 149.945312 32.003906 149.945312 " fill-opacity="1" fill-rule="evenodd"/><path fill="#f2b290" d="M 114.535156 165.394531 C 114.972656 165.019531 115.175781 153.550781 114.648438 153.597656 C 113.882812 153.660156 106.085938 153.636719 104.488281 153.847656 C 104.039062 153.902344 103.386719 165.398438 103.972656 165.382812 C 107.621094 165.285156 114.4375 165.480469 114.535156 165.394531 " fill-opacity="1" fill-rule="evenodd"/><path fill="#bf9c8d" d="M 245.4375 167.566406 C 245.402344 167.667969 113.820312 167.429688 113.820312 167.347656 C 113.851562 165.113281 114.292969 149.84375 114.640625 149.574219 C 115.058594 149.25 210.007812 139.019531 210.617188 139.28125 C 213.164062 140.371094 245.613281 167.121094 245.4375 167.566406 " fill-opacity="1" fill-rule="evenodd"/><path fill="#ffffff" d="M 115.871094 158.566406 C 126.691406 158.375 212.296875 153.714844 219.839844 153.191406 C 219.953125 153.183594 220.039062 153.085938 220.03125 152.972656 C 220.023438 152.859375 219.925781 152.777344 219.8125 152.785156 C 212.269531 153.308594 126.679688 157.964844 115.863281 158.15625 C 115.75 158.160156 115.660156 158.253906 115.664062 158.367188 C 115.664062 158.476562 115.757812 158.570312 115.871094 158.566406 " fill-opacity="1" fill-rule="evenodd"/><path fill="#2c3548" d="M 95.984375 167.34375 C 95.722656 167.671875 91.734375 167.5 91.726562 167.347656 C 91.667969 166.414062 91.589844 157.398438 91.4375 152.378906 C 91.222656 145.308594 91.273438 131.003906 91.265625 129.007812 C 91.261719 128.375 95.976562 128.425781 95.984375 128.867188 C 96 129.65625 95.953125 130.554688 95.9375 131.449219 C 95.847656 137.292969 95.847656 141.292969 95.851562 145.054688 C 95.871094 153.945312 96.382812 166.84375 95.984375 167.34375 " fill-opacity="1" fill-rule="evenodd"/><path fill="#4c5a7b" d="M 95.859375 167.394531 C 96.445312 167.386719 103.542969 167.515625 104.792969 166.144531 C 105.324219 165.5625 105.144531 163.476562 105.128906 162.777344 C 105.070312 160.359375 104.859375 156.164062 105.503906 154.601562 C 105.789062 153.917969 107.160156 153.855469 108.085938 154.070312 C 109.042969 154.292969 109.367188 153.808594 109.523438 153.652344 C 110.757812 152.414062 111.339844 151.292969 111.644531 150.351562 C 111.859375 149.691406 108.667969 144.273438 108.289062 143.578125 C 105.660156 138.722656 102.605469 128.789062 95.710938 128.695312 C 95.660156 128.691406 95.824219 164.945312 95.859375 167.394531 " fill-opacity="1" fill-rule="evenodd"/><path fill="#f2b290" d="M 185.164062 148.441406 C 184.925781 147.914062 172.609375 144.292969 172.503906 144.8125 C 172.351562 145.566406 170.882812 151.28125 170.632812 152.875 C 170.5625 153.320312 182.957031 157.324219 183.105469 156.757812 C 184.03125 153.226562 185.21875 148.558594 185.164062 148.441406 " fill-opacity="1" fill-rule="evenodd"/><path fill="#cea99a" d="M 168.28125 143.402344 C 169.457031 139.683594 172.914062 131.066406 175.339844 124.960938 C 177.351562 119.886719 187.28125 95.464844 192.78125 90.179688 C 197.753906 85.394531 203.34375 84.9375 208.542969 87.945312 C 211.886719 89.878906 214.324219 92.132812 217.996094 96.804688 C 225.523438 106.382812 237.671875 125.859375 238.738281 126.746094 C 243.671875 130.84375 267.28125 138.363281 268.699219 139.476562 C 269.144531 139.828125 267.394531 150.886719 265.953125 154.6875 C 264.414062 158.75 258.765625 168.214844 245.496094 167.875 C 241.335938 167.769531 235.210938 166.78125 230.285156 163.339844 C 223.664062 158.714844 214.074219 147.617188 207.929688 136.875 C 205.851562 133.246094 200.679688 124.808594 200.4375 124.808594 C 200.289062 124.808594 191.921875 146.46875 190.574219 149.359375 C 190.046875 150.5 169.269531 144.523438 168.28125 143.402344 " fill-opacity="1" fill-rule="evenodd"/><path fill="#ffffff" d="M 256.882812 136.15625 C 256.667969 136.730469 254.570312 141.726562 252.152344 145.800781 C 250.542969 148.523438 248.589844 150.742188 246.15625 151.371094 C 244.550781 151.785156 242.742188 151.492188 240.6875 150.199219 C 237.953125 148.472656 235.496094 145.429688 233.277344 141.980469 C 229.921875 136.761719 227.121094 130.609375 224.773438 126.570312 C 221.019531 120.113281 217.003906 113.773438 213.09375 107.410156 C 211.769531 105.257812 209.6875 101.335938 207.054688 99.003906 C 205.242188 97.398438 203.175781 96.539062 200.921875 97.417969 C 199.09375 98.128906 197.554688 99.757812 196.265625 101.722656 C 194.363281 104.617188 192.992188 108.230469 191.96875 110.574219 C 190.078125 114.898438 188.46875 119.6875 186.574219 124.011719 C 183.714844 130.546875 180.332031 138.628906 177.6875 145.238281 C 177.644531 145.34375 177.695312 145.464844 177.804688 145.511719 C 177.914062 145.550781 178.035156 145.5 178.078125 145.394531 C 180.71875 138.789062 184.105469 130.710938 186.960938 124.179688 C 188.851562 119.855469 190.464844 115.066406 192.355469 110.742188 C 193.371094 108.417969 194.730469 104.828125 196.617188 101.953125 C 197.855469 100.070312 199.320312 98.492188 201.074219 97.808594 C 203.171875 96.992188 205.089844 97.824219 206.773438 99.316406 C 209.378906 101.625 211.425781 105.503906 212.734375 107.632812 C 216.644531 113.992188 220.660156 120.328125 224.410156 126.78125 C 226.761719 130.824219 229.5625 136.984375 232.921875 142.207031 C 235.175781 145.714844 237.683594 148.800781 240.464844 150.554688 C 242.640625 151.925781 244.5625 152.21875 246.261719 151.777344 C 248.789062 151.125 250.839844 148.84375 252.515625 146.015625 C 254.949219 141.914062 257.058594 136.878906 257.277344 136.304688 C 257.316406 136.195312 257.261719 136.074219 257.15625 136.035156 C 257.046875 135.992188 256.925781 136.046875 256.882812 136.15625 " fill-opacity="1" fill-rule="evenodd"/><path fill="#ffffff" d="M 251.972656 134.023438 C 250.035156 138.273438 251.125 143.414062 252.433594 145.238281 C 252.5 145.332031 252.628906 145.355469 252.726562 145.289062 C 252.820312 145.21875 252.84375 145.089844 252.773438 144.992188 C 251.515625 143.238281 250.492188 138.289062 252.355469 134.199219 C 252.402344 134.089844 252.355469 133.964844 252.253906 133.917969 C 252.148438 133.871094 252.023438 133.917969 251.972656 134.023438 " fill-opacity="1" fill-rule="evenodd"/><path fill="#000000" d="M 205.503906 107.554688 Z M 205.511719 107.570312 C 205.539062 107.632812 205.589844 107.664062 205.640625 107.679688 C 205.582031 107.660156 205.535156 107.621094 205.511719 107.570312 Z M 205.492188 107.4375 C 205.496094 107.429688 205.496094 107.425781 205.496094 107.417969 C 205.535156 107.304688 205.648438 107.242188 205.761719 107.277344 C 205.789062 107.285156 205.941406 107.339844 205.90625 107.519531 C 205.902344 107.535156 205.871094 107.632812 205.816406 107.789062 C 205.320312 109.207031 202.632812 116.566406 200.769531 122.730469 C 200.734375 122.84375 200.617188 122.90625 200.503906 122.871094 C 200.394531 122.839844 200.332031 122.722656 200.367188 122.609375 C 202.230469 116.4375 204.921875 109.070312 205.421875 107.652344 C 205.457031 107.550781 205.488281 107.460938 205.492188 107.4375 " fill-opacity="1" fill-rule="evenodd"/><path fill="#f2b290" d="M 173.5625 125.328125 C 173.902344 126.410156 175.785156 126.605469 177.554688 126.695312 C 182.652344 126.953125 183.605469 126.816406 187.257812 127.019531 C 190.367188 127.191406 204.0625 129.957031 209.082031 130.746094 C 213.433594 131.425781 217.925781 132.472656 222.347656 132.535156 C 223.097656 132.542969 224.511719 132.644531 226.359375 132.546875 C 227.835938 132.46875 228.882812 133.019531 230.328125 132.574219 C 231.625 132.175781 232.660156 130.507812 233.785156 129.738281 C 237.375 127.277344 240.453125 123.722656 242.136719 121.847656 C 247.964844 115.347656 250.726562 111.835938 251.464844 110.785156 C 251.582031 110.613281 239.050781 100.871094 238.839844 101.183594 C 236.0625 105.355469 234.945312 106.914062 231.132812 111.523438 C 228.773438 114.371094 225.324219 117.984375 224.78125 118.023438 C 218.765625 118.464844 213.523438 117.429688 206.660156 116.820312 C 202.851562 116.484375 196.628906 116.773438 192.863281 116.058594 C 189.265625 115.371094 180.308594 109.394531 177.804688 110.535156 C 176.164062 111.285156 176.71875 112.449219 176.34375 113.273438 C 175.902344 114.238281 175.257812 114.21875 174.714844 115.851562 C 174.429688 116.695312 175.078125 116.910156 174.769531 118.078125 C 174.53125 118.960938 173.621094 119.066406 173.488281 120.109375 C 173.300781 121.601562 173.953125 122.058594 173.8125 122.929688 C 173.644531 123.992188 173.273438 124.382812 173.5625 125.328125 " fill-opacity="1" fill-rule="evenodd"/><path fill="#2c3548" d="M 231.761719 65.84375 C 232.898438 67.683594 233.050781 68.703125 233.6875 71.496094 C 234.03125 73.003906 235.054688 73.144531 235.199219 74.316406 C 235.328125 75.328125 235.0625 76.105469 235.378906 77.25 C 235.945312 79.339844 236.65625 79.0625 236.753906 80.738281 C 236.796875 81.433594 236.675781 81.972656 236.789062 82.507812 C 237.007812 83.507812 237.53125 83.472656 237.773438 83.421875 C 238.40625 83.28125 239.324219 82.914062 239.777344 82.707031 C 241.875 81.746094 243.964844 80.675781 245.996094 79.574219 C 247.640625 78.679688 248.914062 77.898438 248.890625 77.855469 C 248.457031 77.066406 247.921875 76.347656 247.761719 76.421875 C 246.179688 77.160156 244.996094 77.175781 243.546875 76.644531 C 241.570312 75.921875 240.15625 74.539062 238.578125 72.453125 C 236.371094 69.535156 233.472656 64.636719 233.304688 64.707031 C 233.160156 64.761719 232.195312 65.375 231.761719 65.84375 " fill-opacity="1" fill-rule="evenodd"/><path fill="#4c5a7b" d="M 241.289062 80.390625 C 240.503906 80.0625 239.707031 79.550781 239.40625 78.769531 C 239.242188 78.351562 239.253906 77.914062 239.300781 77.457031 C 239.351562 76.976562 239.441406 76.480469 239.429688 75.96875 C 239.425781 75.644531 239.304688 75.382812 239.125 75.140625 C 238.957031 74.917969 238.738281 74.714844 238.519531 74.484375 C 238.214844 74.164062 237.90625 73.789062 237.777344 73.230469 C 237.652344 72.664062 237.703125 71.90625 238.105469 70.824219 C 238.132812 70.753906 238.097656 70.671875 238.023438 70.644531 C 237.953125 70.617188 237.871094 70.652344 237.84375 70.726562 C 237.414062 71.878906 237.367188 72.6875 237.503906 73.292969 C 237.648438 73.910156 237.976562 74.324219 238.316406 74.679688 C 238.523438 74.902344 238.738281 75.097656 238.898438 75.308594 C 239.042969 75.503906 239.144531 75.710938 239.152344 75.972656 C 239.160156 76.472656 239.070312 76.957031 239.023438 77.429688 C 238.96875 77.925781 238.964844 78.410156 239.144531 78.871094 C 239.472656 79.71875 240.328125 80.296875 241.183594 80.648438 C 241.253906 80.679688 241.335938 80.644531 241.367188 80.574219 C 241.394531 80.5 241.363281 80.417969 241.289062 80.390625 " fill-opacity="1" fill-rule="evenodd"/><path fill="#f2b290" d="M 254.097656 57.199219 C 253.703125 54.621094 253.019531 52.296875 252.441406 51.199219 C 251.59375 49.589844 249.886719 47.679688 246.613281 46.996094 C 244.78125 46.617188 242.011719 46.625 238.039062 49.183594 C 235.128906 51.058594 232.304688 54.953125 231.742188 58.429688 C 231.554688 59.597656 231.328125 61.359375 234.128906 66.035156 C 235.386719 68.132812 237.691406 71.394531 238.734375 72.707031 C 240.460938 74.878906 242.410156 76.898438 244.617188 77.304688 C 246.523438 77.660156 247.828125 76.644531 247.832031 76.644531 C 247.910156 76.644531 250.164062 80.867188 250.214844 80.871094 C 250.929688 80.9375 252.917969 80.84375 257.476562 79.117188 C 260.5 77.976562 262.183594 76.238281 262.3125 75.949219 C 262.347656 75.859375 256.015625 65.046875 255.238281 63.152344 C 254.519531 61.410156 254.382812 59.042969 254.097656 57.199219 " fill-opacity="1" fill-rule="evenodd"/><path fill="#000000" d="M 248.527344 76.648438 C 249.25 76.207031 249.84375 75.648438 250.242188 75.234375 C 251.445312 73.980469 252.019531 73.085938 252.421875 71.6875 C 252.453125 71.582031 252.394531 71.46875 252.285156 71.4375 C 252.179688 71.40625 252.066406 71.46875 252.035156 71.574219 C 251.648438 72.90625 251.097656 73.757812 249.949219 74.953125 C 249.570312 75.351562 249.003906 75.882812 248.316406 76.300781 C 248.222656 76.359375 248.191406 76.484375 248.25 76.578125 C 248.304688 76.671875 248.429688 76.703125 248.527344 76.648438 " fill-opacity="1" fill-rule="evenodd"/><path fill="#2c3548" d="M 241.527344 61.929688 C 241.277344 62.058594 240.824219 62.210938 240.496094 62.070312 C 240.1875 61.9375 239.949219 61.589844 240.015625 61.230469 C 240.097656 60.785156 240.515625 60.621094 241.144531 60.648438 C 241.425781 60.660156 241.785156 60.449219 242.074219 60.339844 C 243.308594 59.867188 243.640625 59.664062 244.449219 59.617188 C 245.210938 59.570312 245.703125 60.28125 245.507812 60.449219 C 245.316406 60.617188 244.664062 60.644531 244.433594 60.710938 C 244.121094 60.792969 244.023438 60.816406 243.507812 61.015625 C 242.835938 61.269531 242.289062 61.539062 241.527344 61.929688 " fill-opacity="1" fill-rule="evenodd"/><path fill="#2c3548" d="M 234.1875 66.132812 C 234.191406 66.140625 234.308594 66.332031 234.445312 66.554688 C 234.621094 66.832031 234.820312 67.148438 234.824219 67.148438 C 234.910156 67.054688 235.027344 66.921875 235.203125 66.738281 C 235.699219 66.222656 236.160156 65.820312 236.820312 65.273438 C 237.03125 65.09375 237.351562 64.738281 237.351562 64.378906 C 237.347656 64.042969 237.125 63.6875 236.765625 63.605469 C 236.324219 63.507812 236.011719 63.832031 235.789062 64.421875 C 235.691406 64.683594 235.355469 64.933594 235.140625 65.15625 C 234.722656 65.589844 234.417969 65.882812 234.1875 66.132812 " fill-opacity="1" fill-rule="evenodd"/><path fill="#000000" d="M 239.882812 65.636719 C 240.285156 66.644531 240.386719 67.476562 240.429688 67.847656 C 240.5 68.363281 240.472656 68.792969 240.496094 69.117188 C 240.515625 69.390625 240.574219 69.59375 240.695312 69.738281 C 240.972656 70.050781 241.480469 70.089844 242.011719 69.9375 C 242.4375 69.816406 242.882812 69.585938 243.195312 69.339844 C 243.429688 69.160156 243.597656 68.964844 243.664062 68.808594 C 243.707031 68.703125 243.65625 68.585938 243.554688 68.542969 C 243.449219 68.5 243.332031 68.546875 243.289062 68.652344 C 243.242188 68.765625 243.113281 68.890625 242.949219 69.019531 C 242.667969 69.234375 242.28125 69.441406 241.902344 69.546875 C 241.703125 69.605469 241.511719 69.636719 241.339844 69.617188 C 241.203125 69.605469 241.085938 69.5625 241 69.46875 C 240.925781 69.386719 240.914062 69.253906 240.898438 69.089844 C 240.875 68.757812 240.898438 68.320312 240.835938 67.796875 C 240.785156 67.40625 240.675781 66.539062 240.261719 65.488281 C 240.21875 65.382812 240.101562 65.335938 239.996094 65.375 C 239.894531 65.414062 239.84375 65.535156 239.882812 65.636719 " fill-opacity="1" fill-rule="evenodd"/><path fill="#b1625b" d="M 243.195312 73.820312 C 242.96875 73.523438 242.46875 72.851562 242.726562 71.800781 C 242.914062 71.027344 243.574219 70.417969 244.105469 70.128906 C 244.535156 69.890625 245.542969 69.386719 246.464844 69.980469 C 246.710938 70.136719 247.410156 70.964844 246.757812 72.523438 C 246.433594 73.292969 245.644531 73.898438 244.894531 74.132812 C 244.25 74.332031 243.488281 74.199219 243.195312 73.820312 " fill-opacity="1" fill-rule="evenodd"/><path fill="#000000" d="M 246.855469 69.585938 C 245.984375 70.046875 245.382812 70.558594 245.054688 70.863281 C 243.847656 71.984375 243.378906 72.785156 242.933594 74.132812 C 242.894531 74.238281 242.953125 74.355469 243.058594 74.386719 C 243.164062 74.421875 243.28125 74.363281 243.316406 74.261719 C 243.738281 72.980469 244.183594 72.226562 245.332031 71.160156 C 245.640625 70.871094 246.214844 70.382812 247.046875 69.945312 C 247.144531 69.890625 247.183594 69.769531 247.128906 69.671875 C 247.078125 69.570312 246.957031 69.535156 246.855469 69.585938 " fill-opacity="1" fill-rule="evenodd"/><path fill="#000000" d="M 237.042969 66.730469 C 237.488281 66.480469 238.054688 66.644531 238.304688 67.09375 C 238.554688 67.539062 238.394531 68.105469 237.949219 68.355469 C 237.503906 68.601562 236.9375 68.441406 236.6875 67.996094 C 236.4375 67.546875 236.597656 66.980469 237.042969 66.730469 " fill-opacity="1" fill-rule="evenodd"/><path fill="#000000" d="M 243.539062 62.59375 C 244.019531 62.324219 244.640625 62.515625 244.925781 63.023438 C 245.207031 63.527344 245.046875 64.160156 244.566406 64.425781 C 244.085938 64.695312 243.464844 64.5 243.183594 63.996094 C 242.898438 63.488281 243.0625 62.859375 243.539062 62.59375 " fill-opacity="1" fill-rule="evenodd"/><path fill="#000000" d="M 246.597656 62.207031 C 245.835938 62.1875 245.371094 61.941406 244.507812 62.066406 C 243.148438 62.269531 242.390625 62.96875 242.136719 64.074219 C 242.113281 64.183594 242.179688 64.292969 242.289062 64.316406 C 242.398438 64.34375 242.507812 64.273438 242.53125 64.167969 C 242.746094 63.222656 243.40625 62.636719 244.5625 62.46875 C 245.402344 62.347656 245.851562 62.59375 246.585938 62.609375 C 246.699219 62.613281 246.789062 62.527344 246.792969 62.414062 C 246.792969 62.304688 246.707031 62.210938 246.597656 62.207031 " fill-opacity="1" fill-rule="evenodd"/><path fill="#000000" d="M 238.789062 65.925781 C 238.378906 65.894531 237.714844 66.007812 237.3125 66.207031 C 236.507812 66.601562 235.910156 67.300781 236.109375 68.464844 C 236.128906 68.574219 236.234375 68.648438 236.34375 68.628906 C 236.453125 68.613281 236.527344 68.507812 236.507812 68.398438 C 236.347656 67.453125 236.835938 66.890625 237.492188 66.570312 C 237.835938 66.402344 238.40625 66.300781 238.753906 66.328125 C 238.867188 66.335938 238.964844 66.253906 238.972656 66.140625 C 238.980469 66.03125 238.898438 65.933594 238.789062 65.925781 " fill-opacity="1" fill-rule="evenodd"/><path fill="#2c3548" d="M 232.730469 51.695312 C 231.75 52.785156 227.425781 56.40625 228.78125 62.359375 C 229.324219 64.757812 229.972656 66.058594 230.582031 66.957031 C 230.671875 67.097656 232.585938 65.691406 233.386719 65.007812 C 236.003906 62.761719 236.550781 62.425781 239.074219 59.648438 C 239.125 59.59375 237.992188 57.199219 238.496094 56.488281 C 238.605469 56.335938 239.050781 57.066406 239.5 57.613281 C 239.929688 58.140625 240.496094 58.425781 240.539062 58.398438 C 242.214844 57.292969 243.589844 55.984375 243.902344 55.910156 C 244.363281 55.796875 247.085938 58.152344 248.300781 58.753906 C 249.296875 59.246094 250.398438 59.386719 251.128906 59.003906 C 251.183594 58.976562 254.476562 61.71875 255.140625 63.246094 C 255.359375 63.75 256.136719 66.925781 256.554688 69.101562 C 256.753906 70.132812 257.003906 71.722656 257.214844 72.214844 C 257.570312 73.050781 258.335938 72.53125 258.636719 72.359375 C 261.796875 70.582031 269.320312 64.792969 269.171875 64.410156 C 268.765625 63.351562 268.363281 61.289062 266.328125 59.644531 C 264.582031 58.230469 264.058594 56.800781 262.941406 54.652344 C 261.953125 52.757812 258.496094 51.632812 257.910156 50.886719 C 255.058594 47.269531 252.660156 48.285156 251.109375 47.328125 C 249.773438 46.503906 248.859375 45.175781 247.253906 44.75 C 244.21875 43.933594 239.90625 43.175781 235.78125 47.277344 C 233.972656 49.082031 233.8125 50.488281 232.730469 51.695312 " fill-opacity="1" fill-rule="evenodd"/><path fill="#4c5a7b" d="M 235.574219 50.671875 C 239.859375 47.695312 241.515625 47.703125 243.664062 48.675781 C 244.714844 49.152344 245.476562 49.09375 246.277344 48.933594 C 247.039062 48.78125 247.835938 48.527344 248.984375 48.597656 C 249.882812 48.652344 250.453125 49.15625 250.964844 49.769531 C 251.503906 50.421875 251.976562 51.199219 252.648438 51.757812 C 253.773438 52.683594 254.535156 52.609375 255.308594 52.589844 C 256.027344 52.566406 256.757812 52.601562 257.84375 53.667969 C 258.210938 54.023438 258.527344 54.691406 258.964844 55.441406 C 259.648438 56.609375 260.613281 57.960938 262.4375 58.691406 C 263.507812 59.117188 263.964844 60.1875 264.445312 61.398438 C 264.949219 62.667969 265.464844 64.09375 266.628906 65.1875 C 266.6875 65.242188 266.777344 65.238281 266.828125 65.179688 C 266.882812 65.125 266.882812 65.035156 266.824219 64.984375 C 265.460938 63.703125 265.015625 61.949219 264.402344 60.5625 C 263.972656 59.589844 263.460938 58.796875 262.542969 58.429688 C 260.785156 57.726562 259.863281 56.421875 259.207031 55.300781 C 258.753906 54.523438 258.417969 53.832031 258.042969 53.464844 C 256.867188 52.316406 256.078125 52.285156 255.300781 52.308594 C 254.582031 52.328125 253.871094 52.402344 252.828125 51.539062 C 252.171875 50.992188 251.710938 50.230469 251.179688 49.59375 C 250.621094 48.917969 249.984375 48.375 249.003906 48.316406 C 247.824219 48.246094 247.003906 48.5 246.21875 48.65625 C 245.476562 48.808594 244.761719 48.863281 243.777344 48.421875 C 241.558594 47.414062 239.839844 47.367188 235.414062 50.441406 C 235.351562 50.484375 235.335938 50.570312 235.378906 50.636719 C 235.425781 50.699219 235.511719 50.714844 235.574219 50.671875 " fill-opacity="1" fill-rule="evenodd"/><path fill="#4c5a7b" d="M 233.0625 63.816406 C 232.488281 62.886719 232.03125 61.761719 232.25 60.746094 C 232.367188 60.199219 232.675781 59.769531 233.027344 59.351562 C 233.394531 58.914062 233.816406 58.484375 234.148438 57.972656 C 234.351562 57.652344 234.40625 57.304688 234.382812 56.933594 C 234.363281 56.589844 234.28125 56.222656 234.214844 55.828125 C 234.125 55.273438 234.066406 54.664062 234.3125 54.003906 C 234.5625 53.335938 235.125 52.625 236.25 51.847656 C 236.3125 51.808594 236.332031 51.71875 236.285156 51.65625 C 236.242188 51.589844 236.15625 51.574219 236.09375 51.617188 C 234.898438 52.433594 234.316406 53.199219 234.050781 53.90625 C 233.785156 54.617188 233.839844 55.273438 233.9375 55.875 C 234.003906 56.257812 234.085938 56.613281 234.105469 56.949219 C 234.121094 57.261719 234.082031 57.550781 233.910156 57.820312 C 233.585938 58.324219 233.171875 58.738281 232.808594 59.171875 C 232.429688 59.625 232.101562 60.09375 231.976562 60.6875 C 231.742188 61.765625 232.210938 62.976562 232.824219 63.964844 C 232.867188 64.03125 232.953125 64.050781 233.019531 64.011719 C 233.085938 63.96875 233.105469 63.882812 233.0625 63.816406 " fill-opacity="1" fill-rule="evenodd"/><path fill="#4c5a7b" d="M 237.160156 53.257812 C 238.328125 52.730469 239.75 53.226562 240.738281 53.542969 C 241.886719 53.910156 242.738281 53.371094 243.511719 52.933594 C 243.929688 52.695312 244.320312 52.488281 244.738281 52.523438 C 245.007812 52.550781 245.28125 52.683594 245.582031 52.972656 C 246.050781 53.421875 246.582031 54.070312 247.199219 54.515625 C 247.628906 54.824219 248.105469 55.039062 248.628906 55.035156 C 249.675781 55.023438 251.003906 55.570312 251.863281 56.785156 C 251.90625 56.851562 251.992188 56.863281 252.054688 56.820312 C 252.121094 56.777344 252.136719 56.6875 252.089844 56.625 C 251.171875 55.320312 249.75 54.742188 248.625 54.75 C 248.042969 54.757812 247.53125 54.449219 247.074219 54.054688 C 246.585938 53.644531 246.160156 53.136719 245.777344 52.765625 C 245.417969 52.425781 245.085938 52.273438 244.761719 52.246094 C 244.292969 52.203125 243.84375 52.417969 243.371094 52.6875 C 242.660156 53.089844 241.882812 53.617188 240.824219 53.277344 C 239.78125 52.941406 238.277344 52.449219 237.046875 53 C 236.976562 53.03125 236.945312 53.113281 236.976562 53.1875 C 237.007812 53.257812 237.09375 53.289062 237.160156 53.257812 " fill-opacity="1" fill-rule="evenodd"/><path fill="#4c5a7b" d="M 234.792969 50.269531 C 236.292969 51.671875 236.984375 52.722656 237.28125 54.65625 C 237.292969 54.734375 237.363281 54.785156 237.441406 54.773438 C 237.519531 54.761719 237.570312 54.691406 237.558594 54.617188 C 237.25 52.609375 236.539062 51.515625 234.984375 50.0625 C 234.929688 50.011719 234.839844 50.011719 234.785156 50.070312 C 234.734375 50.125 234.734375 50.214844 234.792969 50.269531 " fill-opacity="1" fill-rule="evenodd"/><path fill="#f2b290" d="M 250.203125 61.320312 C 250.140625 61.34375 249.410156 58.875 251.203125 56.902344 C 252.449219 55.53125 254.078125 55.328125 255.308594 55.96875 C 255.933594 56.292969 256.398438 57.070312 256.621094 57.707031 C 257.179688 59.300781 257.121094 61.328125 255.121094 63.175781 C 255.007812 63.28125 250.578125 61.605469 250.203125 61.320312 " fill-opacity="1" fill-rule="evenodd"/><path fill="#000000" d="M 252.570312 60.089844 C 252.523438 59.878906 252.550781 59.648438 252.605469 59.445312 C 252.796875 58.742188 253.378906 58.242188 254.222656 58.179688 C 254.335938 58.171875 254.417969 58.074219 254.410156 57.964844 C 254.402344 57.851562 254.304688 57.769531 254.191406 57.777344 C 253.160156 57.851562 252.449219 58.476562 252.214844 59.339844 C 252.144531 59.601562 252.117188 59.898438 252.171875 60.171875 C 252.195312 60.28125 252.300781 60.347656 252.414062 60.324219 C 252.519531 60.304688 252.589844 60.195312 252.570312 60.089844 " fill-opacity="1" fill-rule="evenodd"/><path fill="#000000" d="M 252.726562 59.101562 C 252.761719 59.148438 253.023438 59.421875 253.414062 59.644531 C 253.855469 59.898438 254.398438 60.019531 254.96875 59.796875 C 255.070312 59.757812 255.121094 59.640625 255.082031 59.539062 C 255.042969 59.433594 254.925781 59.378906 254.820312 59.421875 C 254.382812 59.59375 253.957031 59.492188 253.613281 59.292969 C 253.304688 59.117188 253.085938 58.910156 253.054688 58.871094 C 252.992188 58.78125 252.867188 58.757812 252.777344 58.820312 C 252.683594 58.882812 252.664062 59.007812 252.726562 59.101562 " fill-opacity="1" fill-rule="evenodd"/><path fill="#df7566" d="M 259.535156 75.085938 C 259.210938 75.085938 251.863281 74.664062 246.167969 84.632812 C 244.519531 87.511719 243.121094 90.050781 240.285156 95.457031 C 239.863281 96.257812 239.207031 97.359375 238.453125 99.082031 C 237.980469 100.164062 238.722656 101.160156 239.523438 101.90625 C 241.292969 103.550781 243.042969 104.765625 246.347656 107.195312 C 250.046875 109.914062 250.875 110.714844 250.902344 110.84375 C 250.992188 111.265625 247.351562 115.917969 243.753906 120 C 240.617188 123.550781 237.457031 126.617188 237.53125 126.746094 C 238.375 128.269531 257.054688 137.089844 270.128906 140.429688 C 272.15625 140.945312 274.183594 119.96875 274.40625 118.03125 C 276.746094 97.742188 273.496094 82.851562 265.351562 77.480469 C 263.539062 76.28125 261.820312 75.085938 259.535156 75.085938 " fill-opacity="1" fill-rule="evenodd"/><path fill="#000000" d="M 251.4375 110.492188 C 251.753906 110.101562 256.523438 103.691406 259.164062 94.183594 C 259.195312 94.074219 259.128906 93.957031 259.015625 93.925781 C 258.90625 93.898438 258.789062 93.960938 258.757812 94.074219 C 256.144531 103.484375 251.425781 109.84375 251.109375 110.230469 C 251.039062 110.316406 251.050781 110.449219 251.140625 110.523438 C 251.230469 110.597656 251.363281 110.585938 251.4375 110.492188 " fill-opacity="1" fill-rule="evenodd"/><path fill="#2c3548" d="M 185.488281 163.308594 C 185.820312 163.570312 185.769531 167.804688 185.617188 167.8125 C 184.683594 167.871094 176.734375 167.878906 170.6875 167.945312 C 163.617188 168.019531 149.414062 167.921875 147.171875 167.914062 C 146.542969 167.914062 146.585938 163.320312 147.027344 163.308594 C 147.8125 163.296875 148.710938 163.339844 149.609375 163.355469 C 155.453125 163.445312 159.449219 163.449219 163.207031 163.441406 C 172.097656 163.421875 184.996094 162.910156 185.488281 163.308594 " fill-opacity="1" fill-rule="evenodd"/><path fill="#4c5a7b" d="M 185.542969 163.4375 C 185.535156 162.851562 185.660156 155.75 184.292969 154.5 C 183.710938 153.96875 181.628906 154.144531 180.929688 154.164062 C 178.507812 154.222656 174.316406 154.429688 172.757812 153.785156 C 172.070312 153.503906 172.007812 152.128906 172.222656 151.207031 C 172.445312 150.246094 171.960938 149.921875 171.804688 149.769531 C 170.566406 148.53125 169.445312 147.949219 168.507812 147.644531 C 167.84375 147.429688 162.429688 150.621094 161.734375 151 C 156.878906 153.632812 146.949219 156.6875 146.855469 163.582031 C 146.851562 163.636719 183.09375 163.46875 185.542969 163.4375 " fill-opacity="1" fill-rule="evenodd"/><path fill="#cea99a" d="M 70.355469 46.265625 C 70.40625 42.953125 70.5 39.363281 70.210938 34.523438 C 70.070312 32.171875 69.082031 31.25 66.957031 30.984375 C 65.167969 30.761719 52.289062 30.644531 47.070312 30.957031 C 44.378906 31.117188 44.195312 33.761719 44.199219 34.773438 C 44.207031 36.867188 44.007812 35.40625 44.128906 39.523438 C 44.148438 40.265625 44.0625 44.023438 47.769531 44.269531 C 50.984375 44.480469 61.820312 44.390625 64.132812 44.421875 C 65.746094 44.445312 70.308594 49.527344 70.355469 46.265625 " fill-opacity="1" fill-rule="evenodd"/><path fill="#c78565" d="M 227.75 51.578125 C 227.628906 42.703125 227.710938 26.410156 227.382812 21.25 C 227.226562 18.746094 226.113281 17.761719 223.722656 17.480469 C 221.710938 17.242188 207.226562 17.113281 201.355469 17.449219 C 198.328125 17.621094 198.296875 20.453125 198.125 21.519531 C 197.503906 25.410156 197.894531 36.222656 198.132812 41.019531 C 198.175781 41.808594 198.058594 45.816406 202.226562 46.074219 C 205.84375 46.300781 215.492188 46.152344 218.089844 46.1875 C 219.90625 46.210938 227.796875 55.054688 227.75 51.578125 " fill-opacity="1" fill-rule="evenodd"/><path fill="#ffffff" d="M 210.878906 26.296875 C 211.003906 26.476562 211.148438 26.652344 211.308594 26.816406 C 211.6875 27.199219 212.148438 27.519531 212.601562 27.660156 C 212.882812 27.746094 213.160156 27.765625 213.410156 27.675781 C 213.839844 27.523438 214.167969 27.058594 214.316406 26.164062 C 214.359375 25.898438 214.304688 25.652344 214.15625 25.464844 C 214.003906 25.28125 213.753906 25.164062 213.421875 25.15625 C 212.816406 25.132812 211.957031 25.449219 210.878906 26.296875 Z M 217.011719 31.21875 C 216.957031 30.777344 216.851562 30.335938 216.671875 29.949219 C 216.40625 29.367188 215.972656 28.902344 215.296875 28.738281 C 214.433594 28.53125 213.417969 29.152344 212.792969 29.988281 C 212.175781 30.804688 211.929688 31.847656 212.660156 32.546875 C 213.246094 33.109375 214.140625 33.109375 215.066406 33.082031 C 215.320312 33.074219 215.574219 33.066406 215.828125 33.0625 C 216.300781 32.488281 216.703125 31.867188 217.011719 31.21875 Z M 217.058594 31.867188 C 216.824219 32.277344 216.558594 32.683594 216.261719 33.0625 C 216.5 33.070312 216.734375 33.085938 216.960938 33.117188 C 216.972656 33.058594 216.980469 33 216.988281 32.945312 C 217.035156 32.621094 217.0625 32.25 217.058594 31.867188 Z M 209.242188 27.386719 C 208.835938 27.125 208.328125 27.015625 207.699219 27.132812 C 205.542969 27.542969 204.789062 29.585938 205.011719 31.628906 C 205.167969 33.019531 205.773438 34.425781 206.722656 35.328125 C 206.703125 35.152344 206.6875 34.976562 206.679688 34.796875 C 206.589844 32.820312 207.328125 30.640625 208.125 29.140625 C 208.449219 28.535156 208.804688 27.925781 209.242188 27.386719 Z M 217.257812 30.648438 C 217.691406 29.507812 217.824219 28.3125 217.535156 27.179688 C 217.125 25.59375 215.511719 23.542969 213.453125 23.539062 C 212.574219 23.535156 211.617188 23.914062 210.640625 24.851562 C 210.484375 25.003906 210.453125 25.222656 210.5 25.464844 C 210.53125 25.636719 210.601562 25.820312 210.703125 26.003906 C 211.445312 25.429688 212.085938 25.09375 212.625 24.933594 C 213.152344 24.777344 213.582031 24.785156 213.902344 24.898438 C 214.480469 25.101562 214.746094 25.628906 214.648438 26.21875 C 214.476562 27.285156 214.039062 27.8125 213.523438 27.996094 C 213.207031 28.109375 212.855469 28.09375 212.5 27.984375 C 212 27.828125 211.484375 27.480469 211.070312 27.054688 C 210.902344 26.882812 210.746094 26.699219 210.613281 26.507812 C 210.425781 26.671875 210.222656 26.847656 210.015625 27.042969 C 209.921875 27.136719 209.824219 27.234375 209.734375 27.332031 C 209.972656 27.554688 210.175781 27.828125 210.335938 28.136719 C 210.824219 29.054688 210.960938 30.28125 210.835938 31.257812 C 210.6875 32.4375 210.257812 33.582031 210.003906 34.671875 C 209.867188 35.253906 209.78125 35.824219 209.824219 36.375 C 211.710938 36.292969 213.632812 35.292969 215.105469 33.851562 C 215.253906 33.707031 215.394531 33.558594 215.53125 33.40625 C 215.378906 33.410156 215.226562 33.417969 215.074219 33.421875 C 214.050781 33.453125 213.074219 33.414062 212.425781 32.792969 C 211.570312 31.972656 211.800781 30.746094 212.519531 29.785156 C 213.226562 28.839844 214.398438 28.171875 215.375 28.410156 C 216.160156 28.597656 216.667969 29.132812 216.980469 29.808594 C 217.101562 30.070312 217.191406 30.355469 217.257812 30.648438 Z M 209.511719 27.59375 C 209.085938 28.117188 208.738281 28.710938 208.425781 29.300781 C 207.652344 30.753906 206.933594 32.867188 207.015625 34.78125 C 207.03125 35.082031 207.0625 35.375 207.117188 35.660156 C 207.480469 35.925781 207.882812 36.121094 208.316406 36.230469 C 208.703125 36.324219 209.089844 36.371094 209.488281 36.378906 C 209.441406 35.800781 209.53125 35.207031 209.675781 34.59375 C 209.925781 33.515625 210.355469 32.386719 210.503906 31.21875 C 210.621094 30.300781 210.492188 29.15625 210.035156 28.296875 C 209.894531 28.027344 209.722656 27.789062 209.511719 27.59375 Z M 215.992188 33.394531 C 215.785156 33.636719 215.570312 33.867188 215.34375 34.089844 C 213.820312 35.582031 211.828125 36.617188 209.871094 36.710938 C 209.910156 36.925781 209.976562 37.144531 210.070312 37.355469 C 210.320312 37.917969 210.777344 38.457031 211.527344 38.972656 C 211.5625 39 211.601562 39.023438 211.636719 39.046875 C 212.433594 38.933594 213.195312 38.578125 213.882812 38.0625 C 215.359375 36.960938 216.5 35.148438 216.894531 33.445312 C 216.605469 33.40625 216.300781 33.394531 215.992188 33.394531 Z M 207.238281 36.144531 C 207.453125 36.859375 207.835938 37.507812 208.441406 38.023438 C 209.316406 38.769531 210.222656 39.085938 211.101562 39.085938 C 210.425781 38.578125 210.003906 38.042969 209.761719 37.492188 C 209.648438 37.238281 209.574219 36.980469 209.527344 36.71875 C 209.089844 36.714844 208.660156 36.664062 208.234375 36.558594 C 207.882812 36.472656 207.550781 36.328125 207.238281 36.144531 Z M 217.226562 33.511719 C 216.816406 35.285156 215.628906 37.183594 214.085938 38.332031 C 213.476562 38.789062 212.808594 39.128906 212.117188 39.304688 C 213.152344 39.765625 214.367188 39.777344 215.492188 39.601562 C 216.757812 39.40625 217.957031 38.863281 218.773438 38.136719 C 219.304688 37.671875 219.667969 37.128906 219.777344 36.558594 C 219.957031 35.601562 219.402344 34.589844 217.742188 33.707031 C 217.582031 33.621094 217.410156 33.558594 217.226562 33.511719 Z M 210.433594 26.222656 C 210.300781 25.984375 210.207031 25.75 210.167969 25.527344 C 210.097656 25.160156 210.167969 24.835938 210.40625 24.609375 C 211.460938 23.59375 212.5 23.195312 213.453125 23.199219 C 215.667969 23.207031 217.421875 25.390625 217.859375 27.09375 C 218.210938 28.464844 217.980469 29.921875 217.359375 31.273438 C 217.421875 31.878906 217.398438 32.488281 217.324219 32.992188 C 217.316406 33.054688 217.304688 33.117188 217.292969 33.183594 C 217.507812 33.234375 217.710938 33.308594 217.898438 33.40625 C 219.746094 34.390625 220.3125 35.558594 220.113281 36.621094 C 219.992188 37.261719 219.589844 37.871094 219 38.390625 C 218.140625 39.15625 216.875 39.730469 215.542969 39.9375 C 214.203125 40.144531 212.746094 40.089844 211.574219 39.402344 C 210.476562 39.53125 209.324219 39.222656 208.21875 38.28125 C 207.457031 37.625 207.015625 36.78125 206.8125 35.847656 C 205.628906 34.910156 204.855469 33.289062 204.675781 31.667969 C 204.429688 29.445312 205.289062 27.246094 207.636719 26.800781 C 208.386719 26.65625 208.992188 26.800781 209.46875 27.125 C 209.566406 27.011719 209.675781 26.902344 209.785156 26.796875 C 210.007812 26.585938 210.226562 26.394531 210.433594 26.222656 " fill-opacity="1" fill-rule="evenodd"/></svg>