<svg xmlns="http://www.w3.org/2000/svg" xmlns:xlink="http://www.w3.org/1999/xlink" width="251" zoomAndPan="magnify" viewBox="0 0 188.25 183.749994" height="245" preserveAspectRatio="xMidYMid meet" version="1.0"><defs><clipPath id="fb5d0aef2f"><path d="M 171 76 L 187.503906 76 L 187.503906 93 L 171 93 Z M 171 76 " clip-rule="nonzero"/></clipPath><clipPath id="de36e63334"><path d="M 80 0.238281 L 91 0.238281 L 91 10 L 80 10 Z M 80 0.238281 " clip-rule="nonzero"/></clipPath><clipPath id="c2d880cc12"><path d="M 76 139 L 117 139 L 117 183.261719 L 76 183.261719 Z M 76 139 " clip-rule="nonzero"/></clipPath></defs><g clip-path="url(#fb5d0aef2f)"><path fill="#b6b2a7" d="M 179.265625 76.070312 C 174.742188 76.070312 171.074219 79.734375 171.074219 84.25 C 171.074219 88.765625 174.742188 92.425781 179.265625 92.425781 C 183.789062 92.425781 187.457031 88.765625 187.457031 84.25 C 187.457031 79.734375 183.789062 76.070312 179.265625 76.070312 Z M 179.265625 91.917969 C 175.023438 91.917969 171.585938 88.484375 171.585938 84.25 C 171.585938 80.015625 175.023438 76.582031 179.265625 76.582031 C 183.503906 76.582031 186.945312 80.015625 186.945312 84.25 C 186.945312 88.484375 183.507812 91.917969 179.265625 91.917969 Z M 179.265625 91.917969 " fill-opacity="1" fill-rule="nonzero"/></g><path fill="#b6b2a7" d="M 13.230469 128.113281 C 12.8125 128.113281 12.402344 128.152344 11.996094 128.234375 C 11.585938 128.316406 11.191406 128.433594 10.808594 128.59375 C 10.421875 128.753906 10.058594 128.945312 9.714844 129.175781 C 9.367188 129.40625 9.046875 129.671875 8.753906 129.964844 C 8.460938 130.257812 8.199219 130.574219 7.96875 130.921875 C 7.734375 131.265625 7.542969 131.628906 7.382812 132.011719 C 7.222656 132.398438 7.101562 132.792969 7.023438 133.199219 C 6.941406 133.605469 6.898438 134.015625 6.898438 134.433594 C 6.898438 134.847656 6.941406 135.257812 7.023438 135.664062 C 7.101562 136.070312 7.222656 136.46875 7.382812 136.851562 C 7.542969 137.234375 7.734375 137.597656 7.96875 137.941406 C 8.199219 138.289062 8.460938 138.605469 8.753906 138.902344 C 9.046875 139.195312 9.367188 139.457031 9.714844 139.6875 C 10.058594 139.917969 10.421875 140.113281 10.808594 140.269531 C 11.191406 140.429688 11.585938 140.550781 11.996094 140.628906 C 12.402344 140.710938 12.8125 140.75 13.230469 140.75 C 13.644531 140.75 14.054688 140.710938 14.464844 140.628906 C 14.871094 140.550781 15.265625 140.429688 15.652344 140.269531 C 16.035156 140.113281 16.398438 139.917969 16.746094 139.6875 C 17.089844 139.457031 17.410156 139.195312 17.703125 138.902344 C 18 138.605469 18.261719 138.289062 18.492188 137.941406 C 18.722656 137.597656 18.917969 137.234375 19.078125 136.851562 C 19.234375 136.46875 19.355469 136.070312 19.4375 135.664062 C 19.519531 135.257812 19.558594 134.847656 19.558594 134.433594 C 19.558594 134.015625 19.519531 133.605469 19.4375 133.199219 C 19.355469 132.792969 19.234375 132.398438 19.078125 132.011719 C 18.917969 131.628906 18.722656 131.265625 18.492188 130.921875 C 18.261719 130.574219 18 130.257812 17.703125 129.964844 C 17.410156 129.671875 17.089844 129.40625 16.746094 129.175781 C 16.398438 128.945312 16.035156 128.753906 15.652344 128.59375 C 15.265625 128.433594 14.871094 128.316406 14.464844 128.234375 C 14.054688 128.152344 13.644531 128.113281 13.230469 128.113281 Z M 13.230469 140.355469 C 12.839844 140.355469 12.453125 140.316406 12.070312 140.242188 C 11.691406 140.167969 11.320312 140.054688 10.957031 139.90625 C 10.597656 139.757812 10.257812 139.574219 9.933594 139.359375 C 9.609375 139.140625 9.308594 138.894531 9.035156 138.621094 C 8.757812 138.347656 8.511719 138.046875 8.296875 137.722656 C 8.078125 137.398438 7.898438 137.058594 7.746094 136.699219 C 7.597656 136.339844 7.484375 135.96875 7.410156 135.585938 C 7.332031 135.207031 7.296875 134.820312 7.296875 134.429688 C 7.296875 134.042969 7.332031 133.65625 7.410156 133.277344 C 7.484375 132.894531 7.597656 132.523438 7.746094 132.164062 C 7.898438 131.804688 8.078125 131.464844 8.296875 131.140625 C 8.511719 130.816406 8.757812 130.515625 9.035156 130.242188 C 9.308594 129.96875 9.609375 129.722656 9.933594 129.503906 C 10.257812 129.289062 10.597656 129.105469 10.957031 128.957031 C 11.320312 128.808594 11.691406 128.695312 12.070312 128.621094 C 12.453125 128.546875 12.839844 128.507812 13.230469 128.507812 C 13.617188 128.507812 14.003906 128.546875 14.386719 128.621094 C 14.769531 128.695312 15.140625 128.808594 15.5 128.957031 C 15.859375 129.105469 16.203125 129.289062 16.527344 129.503906 C 16.851562 129.722656 17.148438 129.96875 17.425781 130.242188 C 17.699219 130.519531 17.945312 130.816406 18.164062 131.140625 C 18.378906 131.464844 18.5625 131.804688 18.710938 132.164062 C 18.859375 132.523438 18.972656 132.894531 19.046875 133.277344 C 19.125 133.65625 19.164062 134.042969 19.164062 134.433594 C 19.164062 134.820312 19.125 135.207031 19.046875 135.585938 C 18.972656 135.96875 18.859375 136.339844 18.710938 136.699219 C 18.5625 137.058594 18.378906 137.398438 18.164062 137.722656 C 17.945312 138.046875 17.699219 138.347656 17.425781 138.621094 C 17.148438 138.894531 16.851562 139.140625 16.527344 139.359375 C 16.203125 139.574219 15.859375 139.757812 15.5 139.90625 C 15.140625 140.054688 14.769531 140.167969 14.386719 140.242188 C 14.003906 140.316406 13.617188 140.355469 13.230469 140.355469 Z M 13.230469 140.355469 " fill-opacity="1" fill-rule="nonzero"/><g clip-path="url(#de36e63334)"><path fill="#b6b2a7" d="M 85.824219 0.238281 C 85.503906 0.238281 85.191406 0.269531 84.878906 0.332031 C 84.566406 0.394531 84.265625 0.488281 83.972656 0.609375 C 83.679688 0.730469 83.398438 0.878906 83.136719 1.054688 C 82.871094 1.230469 82.625 1.429688 82.402344 1.65625 C 82.175781 1.878906 81.976562 2.125 81.800781 2.386719 C 81.625 2.652344 81.472656 2.929688 81.351562 3.222656 C 81.230469 3.515625 81.140625 3.820312 81.078125 4.128906 C 81.015625 4.441406 80.984375 4.753906 80.984375 5.074219 C 80.984375 5.390625 81.015625 5.703125 81.078125 6.015625 C 81.140625 6.328125 81.230469 6.628906 81.351562 6.921875 C 81.472656 7.214844 81.625 7.492188 81.800781 7.757812 C 81.976562 8.019531 82.175781 8.265625 82.402344 8.488281 C 82.625 8.714844 82.871094 8.914062 83.136719 9.089844 C 83.398438 9.265625 83.679688 9.414062 83.972656 9.535156 C 84.265625 9.660156 84.566406 9.75 84.878906 9.8125 C 85.191406 9.875 85.507812 9.90625 85.824219 9.90625 C 86.140625 9.90625 86.457031 9.875 86.769531 9.8125 C 87.078125 9.75 87.382812 9.660156 87.675781 9.535156 C 87.96875 9.414062 88.25 9.265625 88.511719 9.089844 C 88.777344 8.914062 89.019531 8.714844 89.246094 8.488281 C 89.472656 8.265625 89.671875 8.019531 89.847656 7.757812 C 90.023438 7.492188 90.171875 7.214844 90.296875 6.921875 C 90.417969 6.628906 90.507812 6.328125 90.570312 6.015625 C 90.632812 5.703125 90.664062 5.390625 90.664062 5.074219 C 90.664062 4.753906 90.632812 4.441406 90.570312 4.128906 C 90.507812 3.820312 90.417969 3.515625 90.296875 3.222656 C 90.171875 2.929688 90.023438 2.652344 89.847656 2.386719 C 89.671875 2.125 89.46875 1.878906 89.246094 1.65625 C 89.019531 1.429688 88.777344 1.230469 88.511719 1.054688 C 88.25 0.878906 87.96875 0.730469 87.675781 0.609375 C 87.382812 0.488281 87.078125 0.394531 86.769531 0.332031 C 86.457031 0.269531 86.140625 0.238281 85.824219 0.238281 Z M 85.824219 9.601562 C 85.527344 9.601562 85.230469 9.574219 84.9375 9.515625 C 84.644531 9.457031 84.363281 9.371094 84.085938 9.257812 C 83.8125 9.144531 83.550781 9.003906 83.304688 8.839844 C 83.054688 8.671875 82.828125 8.484375 82.617188 8.277344 C 82.40625 8.066406 82.21875 7.835938 82.050781 7.589844 C 81.886719 7.339844 81.746094 7.082031 81.632812 6.804688 C 81.519531 6.53125 81.433594 6.246094 81.375 5.957031 C 81.316406 5.664062 81.285156 5.371094 81.285156 5.070312 C 81.285156 4.773438 81.316406 4.480469 81.375 4.1875 C 81.433594 3.898438 81.519531 3.613281 81.632812 3.339844 C 81.746094 3.0625 81.886719 2.800781 82.050781 2.554688 C 82.21875 2.308594 82.40625 2.078125 82.617188 1.867188 C 82.828125 1.660156 83.054688 1.472656 83.304688 1.304688 C 83.550781 1.140625 83.8125 1 84.085938 0.886719 C 84.363281 0.773438 84.648438 0.6875 84.9375 0.628906 C 85.230469 0.570312 85.527344 0.542969 85.824219 0.542969 C 86.121094 0.542969 86.417969 0.570312 86.710938 0.628906 C 87 0.6875 87.285156 0.773438 87.558594 0.886719 C 87.835938 1 88.097656 1.140625 88.34375 1.304688 C 88.59375 1.472656 88.820312 1.660156 89.03125 1.867188 C 89.242188 2.078125 89.429688 2.308594 89.597656 2.554688 C 89.761719 2.804688 89.902344 3.0625 90.015625 3.339844 C 90.128906 3.613281 90.214844 3.898438 90.273438 4.1875 C 90.332031 4.480469 90.359375 4.773438 90.359375 5.074219 C 90.359375 5.371094 90.332031 5.664062 90.273438 5.957031 C 90.214844 6.246094 90.128906 6.53125 90.015625 6.804688 C 89.902344 7.082031 89.761719 7.34375 89.597656 7.589844 C 89.429688 7.835938 89.242188 8.066406 89.03125 8.277344 C 88.820312 8.484375 88.59375 8.675781 88.34375 8.839844 C 88.097656 9.003906 87.835938 9.144531 87.558594 9.257812 C 87.285156 9.371094 87 9.457031 86.707031 9.515625 C 86.417969 9.574219 86.121094 9.601562 85.824219 9.601562 Z M 85.824219 9.601562 " fill-opacity="1" fill-rule="nonzero"/></g><path fill="#a29e95" d="M 15.5625 50.320312 C 14.824219 50.183594 13.9375 50.636719 13.878906 51.382812 C 13.835938 51.902344 14.179688 52.464844 13.914062 52.914062 C 13.695312 53.273438 13.160156 53.328125 12.78125 53.140625 C 12.402344 52.953125 12.140625 52.597656 11.898438 52.25 C 10.9375 50.894531 9.972656 49.535156 9.011719 48.179688 C 8.457031 47.394531 7.476562 46.515625 6.679688 47.058594 C 5.40625 47.917969 7.390625 50.363281 6.207031 51.34375 C 5.488281 51.941406 4.457031 51.289062 3.542969 51.105469 C 1.753906 50.746094 0.046875 52.609375 0.171875 54.429688 C 0.300781 56.246094 1.832031 57.742188 3.566406 58.304688 C 4.320312 58.550781 5.273438 58.816406 5.398438 59.59375 C 5.5 60.234375 4.941406 60.765625 4.605469 61.320312 C 3.941406 62.421875 4.199219 63.984375 5.183594 64.808594 C 6.164062 65.636719 7.75 65.628906 8.722656 64.792969 C 9.371094 64.234375 9.753906 63.378906 10.496094 62.960938 C 11.242188 62.542969 12.523438 63.128906 12.199219 63.917969 C 12.074219 64.222656 11.753906 64.402344 11.597656 64.695312 C 11.191406 65.453125 12.101562 66.253906 12.921875 66.515625 C 17.003906 67.808594 21.738281 64.609375 21.796875 60.214844 C 21.839844 57.414062 18.503906 50.867188 15.5625 50.320312 Z M 15.5625 50.320312 " fill-opacity="1" fill-rule="nonzero"/><path fill="#a29e95" d="M 15.914062 60.890625 C 19.558594 62.3125 24.621094 63.59375 30.109375 62.921875 L 30.179688 63.34375 C 28.464844 63.554688 26.746094 63.597656 25.027344 63.464844 C 22.007812 63.238281 18.890625 62.503906 15.761719 61.285156 C 10.4375 59.210938 6.867188 56.402344 6.832031 56.375 C 6.710938 56.289062 6.699219 56.1875 6.789062 56.070312 C 6.882812 55.957031 6.984375 55.949219 7.09375 56.042969 C 7.128906 56.070312 10.648438 58.839844 15.914062 60.890625 Z M 15.914062 60.890625 " fill-opacity="1" fill-rule="nonzero"/><path fill="#a29e95" d="M 31.855469 48.082031 C 31.582031 47.613281 30.914062 47.339844 30.472656 47.660156 C 30.167969 47.878906 30.015625 48.335938 29.644531 48.398438 C 29.339844 48.449219 29.058594 48.179688 28.984375 47.882812 C 28.910156 47.585938 28.984375 47.273438 29.058594 46.976562 C 29.355469 45.804688 29.65625 44.632812 29.949219 43.460938 C 30.121094 42.785156 30.144531 41.832031 29.472656 41.644531 C 28.394531 41.347656 27.976562 43.597656 26.875 43.40625 C 26.210938 43.289062 26.082031 42.414062 25.753906 41.824219 C 25.105469 40.667969 23.269531 40.605469 22.324219 41.535156 C 21.378906 42.460938 21.277344 44.011719 21.78125 45.238281 C 22.003906 45.765625 22.304688 46.417969 21.933594 46.851562 C 21.628906 47.210938 21.070312 47.152344 20.605469 47.230469 C 19.683594 47.382812 18.941406 48.265625 18.945312 49.195312 C 18.953125 50.128906 19.707031 51 20.628906 51.140625 C 21.242188 51.234375 21.894531 51.042969 22.476562 51.257812 C 23.0625 51.472656 23.34375 52.457031 22.753906 52.644531 C 22.523438 52.71875 22.273438 52.628906 22.039062 52.683594 C 21.429688 52.816406 21.410156 53.695312 21.65625 54.269531 C 22.867188 57.132812 26.871094 58.234375 29.332031 56.191406 C 30.890625 54.890625 32.941406 49.964844 31.855469 48.082031 Z M 31.855469 48.082031 " fill-opacity="1" fill-rule="nonzero"/><path fill="#a29e95" d="M 26.175781 53.265625 C 27.109375 55.945312 28.789062 59.34375 31.746094 62.054688 L 31.546875 62.289062 C 30.621094 61.445312 29.789062 60.515625 29.050781 59.507812 C 27.753906 57.734375 26.6875 55.667969 25.882812 53.367188 C 24.519531 49.449219 24.386719 46.15625 24.386719 46.125 C 24.367188 46.007812 24.414062 45.949219 24.535156 45.945312 C 24.652344 45.941406 24.707031 45.996094 24.691406 46.113281 C 24.695312 46.144531 24.824219 49.394531 26.175781 53.265625 Z M 26.175781 53.265625 " fill-opacity="1" fill-rule="nonzero"/><path fill="#efe9dc" d="M 25.632812 168.726562 C 21.945312 163.085938 20.882812 154.589844 25 149.328125 C 27.574219 146.039062 31.644531 144.578125 34.171875 141.242188 C 37.035156 137.464844 37.351562 131.941406 36.269531 127.140625 C 35.183594 122.339844 32.894531 118.015625 30.953125 113.566406 C 27.054688 104.636719 24.496094 94.976562 23.414062 85.109375 C 22.472656 76.523438 22.953125 66.886719 28.261719 60.601562 C 33.546875 54.347656 42.023438 53.257812 49.707031 53.484375 C 57.390625 53.714844 65.386719 54.816406 72.519531 51.605469 C 87.242188 44.984375 91.761719 23.578125 104.570312 13.101562 C 115.1875 4.417969 129.613281 4.722656 142.558594 7.265625 C 147.988281 8.332031 153.546875 9.816406 157.960938 13.515625 C 163.414062 18.085938 166.460938 25.617188 167.289062 33.191406 C 169.09375 49.652344 161.535156 65.507812 159.976562 81.996094 C 158.761719 94.839844 161.21875 107.808594 160.394531 120.6875 C 159.570312 133.566406 154.132812 147.585938 143.214844 151.722656 C 135.710938 154.5625 127.566406 152.082031 119.703125 150.992188 C 104.96875 148.945312 89.75 152.199219 76.570312 159.804688 C 65.636719 166.109375 58.019531 176.617188 45.15625 177.925781 C 37.847656 178.671875 30.046875 175.472656 25.632812 168.726562 Z M 25.632812 168.726562 " fill-opacity="1" fill-rule="nonzero"/><g clip-path="url(#c2d880cc12)"><path fill="#e3be5f" d="M 111.183594 139.625 L 80.601562 139.625 C 71.53125 156.253906 80.601562 183.261719 80.601562 183.261719 L 95.480469 183.261719 L 96.453125 176.777344 L 97.425781 183.261719 L 112.679688 183.261719 C 121.707031 148.59375 111.183594 139.625 111.183594 139.625 Z M 111.183594 139.625 " fill-opacity="1" fill-rule="nonzero"/></g><path fill="#34384d" d="M 119.054688 100.585938 C 117.378906 100.332031 115.808594 99.359375 114.679688 98.476562 C 114.171875 98.085938 113.792969 97.597656 113.542969 97.007812 C 113.292969 96.421875 113.199219 95.808594 113.265625 95.175781 C 114.238281 86.160156 105.234375 83.03125 105.234375 83.03125 C 105.234375 77.742188 97.839844 74.546875 97.839844 74.546875 C 98.03125 71.425781 96.382812 69.777344 94.953125 68.941406 C 93.695312 68.203125 92.160156 68.011719 90.773438 68.476562 C 86.492188 69.910156 88.015625 75.648438 88.015625 75.648438 C 81.832031 76.75 82.714844 86.890625 82.714844 86.890625 C 75.539062 90.636719 79.40625 96.8125 79.40625 96.8125 C 78.628906 101.660156 81.5 103.425781 81.5 103.425781 C 86.46875 103.867188 85.695312 99.566406 85.695312 99.566406 C 90.773438 98.683594 89.558594 92.84375 89.558594 92.84375 L 95.960938 92.511719 C 95.078125 100.449219 101.039062 102.101562 101.039062 102.101562 C 102.777344 106.230469 105.882812 107.566406 108.359375 107.921875 C 110.171875 108.1875 111.878906 107.0625 112.402344 105.308594 C 113.058594 103.097656 114.570312 102.503906 115.53125 102.355469 C 115.941406 102.292969 116.359375 102.324219 116.765625 102.402344 C 117.847656 102.609375 118.636719 102.5625 119.21875 102.382812 C 120.164062 102.097656 120.03125 100.734375 119.054688 100.585938 Z M 119.054688 100.585938 " fill-opacity="1" fill-rule="nonzero"/><path fill="#ca8f7a" d="M 81.980469 96.863281 C 77.09375 99.136719 73.519531 124.335938 73.519531 124.335938 C 71.203125 122.023438 68.113281 111.550781 68.113281 111.550781 C 68.796875 106.429688 66.171875 103.425781 64.949219 102.328125 C 64.554688 101.972656 64.085938 101.703125 63.566406 101.59375 C 61.789062 101.214844 63.046875 103.386719 63.796875 104.515625 C 64.023438 104.859375 64.304688 105.15625 64.589844 105.453125 C 65.347656 106.226562 64.910156 106.921875 64.910156 106.921875 C 59.695312 103.132812 56.640625 102.109375 54.933594 101.976562 C 53.722656 101.878906 52.722656 102.980469 52.988281 104.164062 C 54.082031 109.007812 63.585938 113.316406 63.585938 113.316406 C 64.273438 121.152344 66.28125 126.207031 68.390625 129.441406 C 71.304688 133.90625 77.949219 133.472656 80.183594 128.632812 C 81.308594 126.195312 81.578125 124.117188 81.578125 124.117188 C 82.902344 105.820312 81.980469 96.863281 81.980469 96.863281 Z M 81.980469 96.863281 " fill-opacity="1" fill-rule="nonzero"/><path fill="#ca8f7a" d="M 133.636719 101.976562 C 131.929688 102.113281 128.878906 103.136719 123.660156 106.921875 C 123.660156 106.921875 123.226562 106.226562 123.980469 105.453125 C 124.269531 105.160156 124.546875 104.859375 124.773438 104.515625 C 125.527344 103.390625 126.78125 101.214844 125.003906 101.59375 C 124.484375 101.707031 124.015625 101.976562 123.621094 102.328125 C 122.402344 103.425781 119.777344 106.429688 120.460938 111.550781 C 120.460938 111.550781 117.371094 122.023438 115.050781 124.335938 C 115.050781 124.335938 111.476562 99.136719 106.59375 96.863281 C 106.59375 96.863281 105.667969 105.820312 106.992188 124.117188 C 106.992188 124.117188 107.265625 126.195312 108.390625 128.632812 C 110.621094 133.472656 117.269531 133.90625 120.183594 129.441406 C 122.292969 126.210938 124.296875 121.15625 124.984375 113.316406 C 124.984375 113.316406 134.488281 109.011719 135.582031 104.164062 C 135.851562 102.980469 134.847656 101.878906 133.636719 101.976562 Z M 133.636719 101.976562 " fill-opacity="1" fill-rule="nonzero"/><path fill="#34384d" d="M 90.324219 89.867188 L 85.949219 99.335938 L 101.808594 99.335938 L 103.253906 89.117188 Z M 90.324219 89.867188 " fill-opacity="1" fill-rule="nonzero"/><path fill="#94acb8" d="M 114.019531 140.347656 C 109.421875 129.652344 110.621094 116.320312 110.621094 116.320312 C 111.449219 107.566406 106.601562 96.886719 106.59375 96.863281 C 93.820312 95.433594 82.035156 96.859375 81.976562 96.863281 C 76.597656 102.289062 79.351562 115.128906 79.773438 116.933594 C 79.808594 117.085938 79.835938 117.238281 79.855469 117.394531 C 80.773438 125.328125 78.777344 138.203125 78.171875 141.804688 C 78.117188 142.109375 78.152344 142.40625 78.273438 142.6875 C 78.398438 142.972656 78.585938 143.199219 78.847656 143.367188 C 88.050781 149.300781 107.199219 144.242188 113.039062 142.488281 C 113.941406 142.21875 114.394531 141.21875 114.019531 140.347656 Z M 114.019531 140.347656 " fill-opacity="1" fill-rule="nonzero"/><path fill="#b6826f" d="M 96.105469 90.003906 L 91.46875 90.777344 C 91.46875 90.777344 90.921875 94.324219 89.929688 96.308594 C 92.6875 100.738281 95.363281 100.964844 97.976562 96.28125 C 97.976562 96.28125 96.328125 92.871094 96.105469 90.003906 Z M 96.105469 90.003906 " fill-opacity="1" fill-rule="nonzero"/><path fill="#544930" d="M 97.179688 147.792969 C 97.277344 147.894531 97.355469 148.007812 97.40625 148.136719 C 97.460938 148.265625 97.488281 148.402344 97.488281 148.542969 C 97.488281 148.683594 97.460938 148.816406 97.40625 148.949219 C 97.355469 149.078125 97.277344 149.191406 97.179688 149.289062 C 97.078125 149.390625 96.964844 149.464844 96.835938 149.519531 C 96.703125 149.574219 96.570312 149.601562 96.429688 149.601562 C 96.289062 149.601562 96.152344 149.574219 96.023438 149.519531 C 95.894531 149.464844 95.777344 149.390625 95.679688 149.289062 C 95.582031 149.191406 95.503906 149.078125 95.449219 148.949219 C 95.394531 148.816406 95.367188 148.683594 95.367188 148.542969 C 95.367188 148.402344 95.394531 148.265625 95.449219 148.136719 C 95.503906 148.007812 95.582031 147.894531 95.679688 147.792969 C 95.777344 147.695312 95.894531 147.617188 96.023438 147.566406 C 96.152344 147.511719 96.289062 147.484375 96.429688 147.484375 C 96.570312 147.484375 96.703125 147.511719 96.835938 147.566406 C 96.964844 147.617188 97.078125 147.695312 97.179688 147.792969 Z M 97.179688 147.792969 " fill-opacity="1" fill-rule="nonzero"/><path fill="#544930" d="M 93.574219 147.503906 C 93.710938 147.527344 93.84375 147.574219 93.960938 147.648438 C 94.082031 147.722656 94.183594 147.816406 94.265625 147.929688 C 94.347656 148.046875 94.402344 148.171875 94.4375 148.308594 C 94.46875 148.441406 94.472656 148.582031 94.449219 148.71875 C 94.429688 148.859375 94.378906 148.988281 94.304688 149.105469 C 94.230469 149.226562 94.136719 149.328125 94.023438 149.410156 C 93.910156 149.492188 93.785156 149.546875 93.648438 149.578125 C 93.511719 149.613281 93.375 149.617188 93.234375 149.59375 C 93.097656 149.570312 92.964844 149.523438 92.847656 149.449219 C 92.726562 149.375 92.625 149.28125 92.542969 149.167969 C 92.460938 149.054688 92.40625 148.929688 92.371094 148.792969 C 92.339844 148.65625 92.335938 148.519531 92.359375 148.378906 C 92.378906 148.242188 92.429688 148.113281 92.503906 147.992188 C 92.578125 147.875 92.671875 147.773438 92.785156 147.691406 C 92.898438 147.609375 93.023438 147.550781 93.160156 147.519531 C 93.296875 147.488281 93.433594 147.484375 93.574219 147.503906 Z M 93.574219 147.503906 " fill-opacity="1" fill-rule="nonzero"/><path fill="#2b2e3f" d="M 92.921875 148.117188 C 91.96875 149.890625 90.953125 151.847656 91.101562 153.921875 C 91.167969 154.886719 91.503906 155.777344 91.816406 156.683594 C 92.121094 157.570312 92.410156 158.480469 92.113281 159.410156 C 91.882812 160.128906 93.015625 160.4375 93.246094 159.722656 C 93.835938 157.867188 92.703125 156.195312 92.34375 154.429688 C 91.933594 152.410156 93.011719 150.429688 93.933594 148.710938 C 94.289062 148.046875 93.277344 147.453125 92.917969 148.117188 Z M 92.921875 148.117188 " fill-opacity="1" fill-rule="nonzero"/><path fill="#2b2e3f" d="M 99.363281 160.0625 C 99.773438 158.058594 100.117188 155.925781 99.015625 154.070312 C 98.507812 153.21875 97.835938 152.484375 97.453125 151.5625 C 97.0625 150.613281 96.9375 149.601562 97.027344 148.582031 C 97.09375 147.832031 95.917969 147.835938 95.851562 148.582031 C 95.765625 149.542969 95.867188 150.484375 96.15625 151.40625 C 96.457031 152.363281 96.976562 153.167969 97.550781 153.980469 C 98.132812 154.808594 98.546875 155.636719 98.59375 156.667969 C 98.644531 157.710938 98.445312 158.738281 98.234375 159.753906 C 98.085938 160.488281 99.214844 160.804688 99.367188 160.0625 Z M 99.363281 160.0625 " fill-opacity="1" fill-rule="nonzero"/><path fill="#ca8f7a" d="M 101.242188 87.902344 C 101.199219 87.4375 101.121094 86.984375 101 86.53125 C 100.921875 86.234375 100.734375 86.035156 100.441406 85.941406 C 96.265625 84.589844 93.585938 82.144531 92.140625 80.464844 C 91.996094 80.292969 91.8125 80.195312 91.589844 80.164062 C 91.367188 80.136719 91.164062 80.191406 90.980469 80.320312 C 90.90625 80.375 90.832031 80.433594 90.761719 80.492188 C 89.324219 81.683594 87.972656 83.957031 88.765625 88.214844 C 88.765625 88.214844 85.507812 87.605469 88.929688 90.914062 C 88.929688 90.914062 90.238281 93.058594 92.246094 94.574219 C 92.65625 94.882812 93.109375 95.121094 93.59375 95.289062 C 94.082031 95.457031 94.585938 95.546875 95.101562 95.558594 C 95.617188 95.566406 96.121094 95.496094 96.617188 95.347656 C 97.109375 95.199219 97.566406 94.976562 97.992188 94.683594 C 99.703125 93.503906 101.550781 91.402344 101.242188 87.902344 Z M 101.242188 87.902344 " fill-opacity="1" fill-rule="nonzero"/><path fill="#ffffff" d="M 137.738281 31.574219 C 136.265625 29.304688 133.761719 27.730469 130.488281 27.023438 C 127.316406 26.335938 123.742188 26.5625 121.382812 27.601562 C 121.074219 27.734375 120.839844 27.949219 120.675781 28.246094 C 120.515625 28.539062 120.457031 28.851562 120.507812 29.1875 L 121.066406 32.863281 C 121.101562 33.09375 121.1875 33.308594 121.324219 33.5 C 121.460938 33.691406 121.632812 33.84375 121.839844 33.953125 C 122.046875 34.0625 122.265625 34.121094 122.5 34.128906 C 122.738281 34.136719 122.960938 34.089844 123.175781 33.988281 C 124.433594 33.402344 126.382812 33.25 128.03125 33.601562 C 130.464844 34.175781 131.472656 35.511719 131.023438 37.578125 C 130.636719 39.355469 129.375 40.847656 126.191406 43.28125 L 126.179688 43.289062 C 124.390625 44.683594 122.976562 46.222656 121.976562 47.867188 C 121.011719 49.453125 120.425781 51.144531 120.242188 52.886719 L 120.109375 53.871094 C 120.074219 54.113281 120.085938 54.351562 120.144531 54.589844 C 120.203125 54.828125 120.300781 55.050781 120.441406 55.25 C 120.582031 55.449219 120.753906 55.617188 120.960938 55.753906 C 121.164062 55.890625 121.386719 55.984375 121.625 56.035156 L 125.222656 56.816406 C 125.449219 56.863281 125.671875 56.867188 125.898438 56.824219 C 126.125 56.78125 126.332031 56.695312 126.523438 56.566406 C 126.714844 56.4375 126.875 56.277344 127 56.085938 C 127.125 55.894531 127.207031 55.683594 127.246094 55.457031 L 127.460938 54.246094 L 127.464844 54.21875 C 127.851562 51.75 129.078125 49.921875 131.703125 47.910156 C 133.332031 46.652344 134.902344 45.402344 136.175781 43.957031 C 137.609375 42.328125 138.507812 40.597656 138.929688 38.667969 C 139.480469 36.132812 139.054688 33.613281 137.738281 31.574219 Z M 137.738281 31.574219 " fill-opacity="1" fill-rule="nonzero"/><path fill="#ffffff" d="M 122.996094 57.628906 C 121.679688 57.34375 120.367188 57.582031 119.308594 58.300781 C 118.269531 59 117.535156 60.125 117.246094 61.464844 C 116.648438 64.203125 118.199219 66.699219 120.847656 67.269531 C 123.570312 67.859375 125.984375 66.269531 126.585938 63.488281 C 127.195312 60.675781 125.6875 58.214844 122.996094 57.628906 Z M 122.996094 57.628906 " fill-opacity="1" fill-rule="nonzero"/></svg>