<svg xmlns="http://www.w3.org/2000/svg" xmlns:xlink="http://www.w3.org/1999/xlink" width="77" zoomAndPan="magnify" viewBox="0 0 57.75 92.249997" height="123" preserveAspectRatio="xMidYMid meet" version="1.0"><defs><filter x="0%" y="0%" width="100%" height="100%" id="55f8dbd993"><feColorMatrix values="0 0 0 0 1 0 0 0 0 1 0 0 0 0 1 0 0 0 1 0" color-interpolation-filters="sRGB"/></filter><clipPath id="57a747b2b6"><path d="M 9.414062 45 L 57.394531 45 L 57.394531 90.898438 L 9.414062 90.898438 Z M 9.414062 45 " clip-rule="nonzero"/></clipPath><clipPath id="abb4b86b4d"><path d="M 17 42.027344 L 47 42.027344 L 47 82 L 17 82 Z M 17 42.027344 " clip-rule="nonzero"/></clipPath><clipPath id="c39dc9b15e"><path d="M 18 24 L 23 24 L 23 29 L 18 29 Z M 18 24 " clip-rule="nonzero"/></clipPath><clipPath id="d67ec21974"><path d="M 19.464844 0 L 50.714844 15.320312 L 31.488281 54.546875 L 0.238281 39.230469 Z M 19.464844 0 " clip-rule="nonzero"/></clipPath><clipPath id="e9fb4e43f4"><path d="M 19.464844 0 L 50.714844 15.320312 L 31.488281 54.546875 L 0.238281 39.230469 Z M 19.464844 0 " clip-rule="nonzero"/></clipPath><clipPath id="71cd450685"><path d="M 12 18 L 16 18 L 16 23 L 12 23 Z M 12 18 " clip-rule="nonzero"/></clipPath><clipPath id="86369f4306"><path d="M 19.464844 0 L 50.714844 15.320312 L 31.488281 54.546875 L 0.238281 39.230469 Z M 19.464844 0 " clip-rule="nonzero"/></clipPath><clipPath id="2deb39c672"><path d="M 19.464844 0 L 50.714844 15.320312 L 31.488281 54.546875 L 0.238281 39.230469 Z M 19.464844 0 " clip-rule="nonzero"/></clipPath><clipPath id="954eb6ac08"><path d="M 17 3 L 23 3 L 23 6 L 17 6 Z M 17 3 " clip-rule="nonzero"/></clipPath><clipPath id="95f2676758"><path d="M 19.464844 0 L 50.714844 15.320312 L 31.488281 54.546875 L 0.238281 39.230469 Z M 19.464844 0 " clip-rule="nonzero"/></clipPath><clipPath id="f142ec0e72"><path d="M 19.464844 0 L 50.714844 15.320312 L 31.488281 54.546875 L 0.238281 39.230469 Z M 19.464844 0 " clip-rule="nonzero"/></clipPath><clipPath id="41329ddddb"><path d="M 32 10 L 35 10 L 35 16 L 32 16 Z M 32 10 " clip-rule="nonzero"/></clipPath><clipPath id="34b767c050"><path d="M 19.464844 0 L 50.714844 15.320312 L 31.488281 54.546875 L 0.238281 39.230469 Z M 19.464844 0 " clip-rule="nonzero"/></clipPath><clipPath id="759010cee6"><path d="M 19.464844 0 L 50.714844 15.320312 L 31.488281 54.546875 L 0.238281 39.230469 Z M 19.464844 0 " clip-rule="nonzero"/></clipPath><clipPath id="c120d3fcdc"><path d="M 17 4 L 35 4 L 35 18 L 17 18 Z M 17 4 " clip-rule="nonzero"/></clipPath><clipPath id="b25281fe95"><path d="M 19.464844 0 L 50.714844 15.320312 L 31.488281 54.546875 L 0.238281 39.230469 Z M 19.464844 0 " clip-rule="nonzero"/></clipPath><clipPath id="6266770085"><path d="M 19.464844 0 L 50.714844 15.320312 L 31.488281 54.546875 L 0.238281 39.230469 Z M 19.464844 0 " clip-rule="nonzero"/></clipPath><clipPath id="0010690725"><path d="M 7 17 L 20 17 L 20 43 L 7 43 Z M 7 17 " clip-rule="nonzero"/></clipPath><clipPath id="9cd9a312f6"><path d="M 19.464844 0 L 50.714844 15.320312 L 31.488281 54.546875 L 0.238281 39.230469 Z M 19.464844 0 " clip-rule="nonzero"/></clipPath><clipPath id="88e5215d16"><path d="M 19.464844 0 L 50.714844 15.320312 L 31.488281 54.546875 L 0.238281 39.230469 Z M 19.464844 0 " clip-rule="nonzero"/></clipPath><clipPath id="5d246b1dab"><path d="M 4 20 L 23 20 L 23 42 L 4 42 Z M 4 20 " clip-rule="nonzero"/></clipPath><clipPath id="71163c2b5b"><path d="M 19.464844 0 L 50.714844 15.320312 L 31.488281 54.546875 L 0.238281 39.230469 Z M 19.464844 0 " clip-rule="nonzero"/></clipPath><clipPath id="e66ef085b4"><path d="M 19.464844 0 L 50.714844 15.320312 L 31.488281 54.546875 L 0.238281 39.230469 Z M 19.464844 0 " clip-rule="nonzero"/></clipPath><clipPath id="94496a9980"><path d="M 15 20 L 23 20 L 23 28 L 15 28 Z M 15 20 " clip-rule="nonzero"/></clipPath><clipPath id="2f6fc33626"><path d="M 19.464844 0 L 50.714844 15.320312 L 31.488281 54.546875 L 0.238281 39.230469 Z M 19.464844 0 " clip-rule="nonzero"/></clipPath><clipPath id="d8945cf0b3"><path d="M 19.464844 0 L 50.714844 15.320312 L 31.488281 54.546875 L 0.238281 39.230469 Z M 19.464844 0 " clip-rule="nonzero"/></clipPath><clipPath id="7a1afaf3ed"><path d="M 12 17 L 20 17 L 20 24 L 12 24 Z M 12 17 " clip-rule="nonzero"/></clipPath><clipPath id="81154a4f5e"><path d="M 19.464844 0 L 50.714844 15.320312 L 31.488281 54.546875 L 0.238281 39.230469 Z M 19.464844 0 " clip-rule="nonzero"/></clipPath><clipPath id="84ebb5e287"><path d="M 19.464844 0 L 50.714844 15.320312 L 31.488281 54.546875 L 0.238281 39.230469 Z M 19.464844 0 " clip-rule="nonzero"/></clipPath><clipPath id="87ead49390"><path d="M 20 8 L 29 8 L 29 19 L 20 19 Z M 20 8 " clip-rule="nonzero"/></clipPath><clipPath id="3fb0acd1b0"><path d="M 19.464844 0 L 50.714844 15.320312 L 31.488281 54.546875 L 0.238281 39.230469 Z M 19.464844 0 " clip-rule="nonzero"/></clipPath><clipPath id="9e003c6bb2"><path d="M 19.464844 0 L 50.714844 15.320312 L 31.488281 54.546875 L 0.238281 39.230469 Z M 19.464844 0 " clip-rule="nonzero"/></clipPath><clipPath id="472fc11915"><path d="M 16 2 L 35 2 L 35 23 L 16 23 Z M 16 2 " clip-rule="nonzero"/></clipPath><clipPath id="8b0eb2e979"><path d="M 19.464844 0 L 50.714844 15.320312 L 31.488281 54.546875 L 0.238281 39.230469 Z M 19.464844 0 " clip-rule="nonzero"/></clipPath><clipPath id="e0cff5e0c1"><path d="M 19.464844 0 L 50.714844 15.320312 L 31.488281 54.546875 L 0.238281 39.230469 Z M 19.464844 0 " clip-rule="nonzero"/></clipPath><clipPath id="fc50e87c27"><path d="M 23 6 L 25 6 L 25 8 L 23 8 Z M 23 6 " clip-rule="nonzero"/></clipPath><clipPath id="c34c9cd8c6"><path d="M 19.464844 0 L 50.714844 15.320312 L 31.488281 54.546875 L 0.238281 39.230469 Z M 19.464844 0 " clip-rule="nonzero"/></clipPath><clipPath id="8a3009f53b"><path d="M 19.464844 0 L 50.714844 15.320312 L 31.488281 54.546875 L 0.238281 39.230469 Z M 19.464844 0 " clip-rule="nonzero"/></clipPath><clipPath id="49a4a32b54"><path d="M 27 8 L 29 8 L 29 10 L 27 10 Z M 27 8 " clip-rule="nonzero"/></clipPath><clipPath id="71b91130de"><path d="M 19.464844 0 L 50.714844 15.320312 L 31.488281 54.546875 L 0.238281 39.230469 Z M 19.464844 0 " clip-rule="nonzero"/></clipPath><clipPath id="6553c60bb7"><path d="M 19.464844 0 L 50.714844 15.320312 L 31.488281 54.546875 L 0.238281 39.230469 Z M 19.464844 0 " clip-rule="nonzero"/></clipPath><clipPath id="bdb5dbeaf3"><path d="M 23 4 L 30 4 L 30 11 L 23 11 Z M 23 4 " clip-rule="nonzero"/></clipPath><clipPath id="d45ae6febb"><path d="M 19.464844 0 L 50.714844 15.320312 L 31.488281 54.546875 L 0.238281 39.230469 Z M 19.464844 0 " clip-rule="nonzero"/></clipPath><clipPath id="392cbc1ef4"><path d="M 19.464844 0 L 50.714844 15.320312 L 31.488281 54.546875 L 0.238281 39.230469 Z M 19.464844 0 " clip-rule="nonzero"/></clipPath><clipPath id="ab5a1e4e85"><path d="M 26 8 L 28 8 L 28 9 L 26 9 Z M 26 8 " clip-rule="nonzero"/></clipPath><clipPath id="2dd73e7b06"><path d="M 19.464844 0 L 50.714844 15.320312 L 31.488281 54.546875 L 0.238281 39.230469 Z M 19.464844 0 " clip-rule="nonzero"/></clipPath><clipPath id="a8fbf1e53b"><path d="M 19.464844 0 L 50.714844 15.320312 L 31.488281 54.546875 L 0.238281 39.230469 Z M 19.464844 0 " clip-rule="nonzero"/></clipPath><clipPath id="74459b445c"><path d="M 24 6 L 26 6 L 26 8 L 24 8 Z M 24 6 " clip-rule="nonzero"/></clipPath><clipPath id="87e7f3e4c6"><path d="M 19.464844 0 L 50.714844 15.320312 L 31.488281 54.546875 L 0.238281 39.230469 Z M 19.464844 0 " clip-rule="nonzero"/></clipPath><clipPath id="56f8d62b8e"><path d="M 19.464844 0 L 50.714844 15.320312 L 31.488281 54.546875 L 0.238281 39.230469 Z M 19.464844 0 " clip-rule="nonzero"/></clipPath><clipPath id="e81ad8e211"><path d="M 26 7 L 29 7 L 29 8 L 26 8 Z M 26 7 " clip-rule="nonzero"/></clipPath><clipPath id="1a369a9f8d"><path d="M 19.464844 0 L 50.714844 15.320312 L 31.488281 54.546875 L 0.238281 39.230469 Z M 19.464844 0 " clip-rule="nonzero"/></clipPath><clipPath id="e152b69b6b"><path d="M 19.464844 0 L 50.714844 15.320312 L 31.488281 54.546875 L 0.238281 39.230469 Z M 19.464844 0 " clip-rule="nonzero"/></clipPath><clipPath id="c1560553b4"><path d="M 24 6 L 26 6 L 26 7 L 24 7 Z M 24 6 " clip-rule="nonzero"/></clipPath><clipPath id="2f8d4b6761"><path d="M 19.464844 0 L 50.714844 15.320312 L 31.488281 54.546875 L 0.238281 39.230469 Z M 19.464844 0 " clip-rule="nonzero"/></clipPath><clipPath id="a232afcc7f"><path d="M 19.464844 0 L 50.714844 15.320312 L 31.488281 54.546875 L 0.238281 39.230469 Z M 19.464844 0 " clip-rule="nonzero"/></clipPath><clipPath id="8b83fe0796"><path d="M 25 7 L 27 7 L 27 9 L 25 9 Z M 25 7 " clip-rule="nonzero"/></clipPath><clipPath id="4fa0ea8bd0"><path d="M 19.464844 0 L 50.714844 15.320312 L 31.488281 54.546875 L 0.238281 39.230469 Z M 19.464844 0 " clip-rule="nonzero"/></clipPath><clipPath id="a28e4acf69"><path d="M 19.464844 0 L 50.714844 15.320312 L 31.488281 54.546875 L 0.238281 39.230469 Z M 19.464844 0 " clip-rule="nonzero"/></clipPath><clipPath id="f44cf4da50"><path d="M 24 8 L 26 8 L 26 10 L 24 10 Z M 24 8 " clip-rule="nonzero"/></clipPath><clipPath id="ea20544e7a"><path d="M 19.464844 0 L 50.714844 15.320312 L 31.488281 54.546875 L 0.238281 39.230469 Z M 19.464844 0 " clip-rule="nonzero"/></clipPath><clipPath id="23b616eb68"><path d="M 19.464844 0 L 50.714844 15.320312 L 31.488281 54.546875 L 0.238281 39.230469 Z M 19.464844 0 " clip-rule="nonzero"/></clipPath><clipPath id="594b2a6941"><path d="M 26 8 L 29 8 L 29 11 L 26 11 Z M 26 8 " clip-rule="nonzero"/></clipPath><clipPath id="0cc25fd723"><path d="M 19.464844 0 L 50.714844 15.320312 L 31.488281 54.546875 L 0.238281 39.230469 Z M 19.464844 0 " clip-rule="nonzero"/></clipPath><clipPath id="d14a3949f9"><path d="M 19.464844 0 L 50.714844 15.320312 L 31.488281 54.546875 L 0.238281 39.230469 Z M 19.464844 0 " clip-rule="nonzero"/></clipPath><mask id="5f300016c1"><g filter="url(#55f8dbd993)"><rect x="-5.775" width="69.3" fill="#000000" y="-9.225" height="110.699996" fill-opacity="0.3"/></g></mask><clipPath id="13925391fc"><path d="M 0.0585938 0.332031 L 2 0.332031 L 2 2 L 0.0585938 2 Z M 0.0585938 0.332031 " clip-rule="nonzero"/></clipPath><clipPath id="d51722de7a"><path d="M -6.535156 -8 L 24.714844 7.320312 L 5.488281 46.546875 L -25.761719 31.230469 Z M -6.535156 -8 " clip-rule="nonzero"/></clipPath><clipPath id="376bd137ca"><path d="M -6.535156 -8 L 24.714844 7.320312 L 5.488281 46.546875 L -25.761719 31.230469 Z M -6.535156 -8 " clip-rule="nonzero"/></clipPath><clipPath id="5ea4f198fd"><rect x="0" width="3" y="0" height="3"/></clipPath><clipPath id="f1c6441c4d"><path d="M 23 7 L 26 7 L 26 10 L 23 10 Z M 23 7 " clip-rule="nonzero"/></clipPath><clipPath id="c61d74e7ee"><path d="M 19.464844 0 L 50.714844 15.320312 L 31.488281 54.546875 L 0.238281 39.230469 Z M 19.464844 0 " clip-rule="nonzero"/></clipPath><clipPath id="c61386304f"><path d="M 19.464844 0 L 50.714844 15.320312 L 31.488281 54.546875 L 0.238281 39.230469 Z M 19.464844 0 " clip-rule="nonzero"/></clipPath><mask id="199984a8d7"><g filter="url(#55f8dbd993)"><rect x="-5.775" width="69.3" fill="#000000" y="-9.225" height="110.699996" fill-opacity="0.3"/></g></mask><clipPath id="8f3f8cbdcf"><path d="M 0.4375 0.140625 L 2 0.140625 L 2 2 L 0.4375 2 Z M 0.4375 0.140625 " clip-rule="nonzero"/></clipPath><clipPath id="476b87338e"><path d="M -3.535156 -7 L 27.714844 8.320312 L 8.488281 47.546875 L -22.761719 32.230469 Z M -3.535156 -7 " clip-rule="nonzero"/></clipPath><clipPath id="7470c3cf37"><path d="M -3.535156 -7 L 27.714844 8.320312 L 8.488281 47.546875 L -22.761719 32.230469 Z M -3.535156 -7 " clip-rule="nonzero"/></clipPath><clipPath id="070ce80752"><rect x="0" width="3" y="0" height="3"/></clipPath><clipPath id="9d4240bb6d"><path d="M 23 4 L 30 4 L 30 10 L 23 10 Z M 23 4 " clip-rule="nonzero"/></clipPath><clipPath id="feaaeb5479"><path d="M 19.464844 0 L 50.714844 15.320312 L 31.488281 54.546875 L 0.238281 39.230469 Z M 19.464844 0 " clip-rule="nonzero"/></clipPath><clipPath id="cb6503a46b"><path d="M 19.464844 0 L 50.714844 15.320312 L 31.488281 54.546875 L 0.238281 39.230469 Z M 19.464844 0 " clip-rule="nonzero"/></clipPath><clipPath id="206f0750ae"><path d="M 9 24 L 15 24 L 15 30 L 9 30 Z M 9 24 " clip-rule="nonzero"/></clipPath><clipPath id="31e1dda1d6"><path d="M 19.464844 0 L 50.714844 15.320312 L 31.488281 54.546875 L 0.238281 39.230469 Z M 19.464844 0 " clip-rule="nonzero"/></clipPath><clipPath id="fc7d3c6dbc"><path d="M 19.464844 0 L 50.714844 15.320312 L 31.488281 54.546875 L 0.238281 39.230469 Z M 19.464844 0 " clip-rule="nonzero"/></clipPath><clipPath id="9c254b3ece"><path d="M 8 33 L 12 33 L 12 37 L 8 37 Z M 8 33 " clip-rule="nonzero"/></clipPath><clipPath id="8b41f825d0"><path d="M 19.464844 0 L 50.714844 15.320312 L 31.488281 54.546875 L 0.238281 39.230469 Z M 19.464844 0 " clip-rule="nonzero"/></clipPath><clipPath id="770561e52f"><path d="M 19.464844 0 L 50.714844 15.320312 L 31.488281 54.546875 L 0.238281 39.230469 Z M 19.464844 0 " clip-rule="nonzero"/></clipPath><clipPath id="1ae253e3a2"><path d="M 24 21 L 39 21 L 39 35 L 24 35 Z M 24 21 " clip-rule="nonzero"/></clipPath><clipPath id="1f8339e11b"><path d="M 19.464844 0 L 50.714844 15.320312 L 31.488281 54.546875 L 0.238281 39.230469 Z M 19.464844 0 " clip-rule="nonzero"/></clipPath><clipPath id="68427945cd"><path d="M 19.464844 0 L 50.714844 15.320312 L 31.488281 54.546875 L 0.238281 39.230469 Z M 19.464844 0 " clip-rule="nonzero"/></clipPath><clipPath id="49cff55d0f"><path d="M 27 23 L 36 23 L 36 32 L 27 32 Z M 27 23 " clip-rule="nonzero"/></clipPath><clipPath id="bacf1fce2b"><path d="M 19.464844 0 L 50.714844 15.320312 L 31.488281 54.546875 L 0.238281 39.230469 Z M 19.464844 0 " clip-rule="nonzero"/></clipPath><clipPath id="fddf8503f1"><path d="M 19.464844 0 L 50.714844 15.320312 L 31.488281 54.546875 L 0.238281 39.230469 Z M 19.464844 0 " clip-rule="nonzero"/></clipPath><clipPath id="c342e9c976"><path d="M 31 24 L 35 24 L 35 27 L 31 27 Z M 31 24 " clip-rule="nonzero"/></clipPath><clipPath id="50c8767612"><path d="M 19.464844 0 L 50.714844 15.320312 L 31.488281 54.546875 L 0.238281 39.230469 Z M 19.464844 0 " clip-rule="nonzero"/></clipPath><clipPath id="36221921bd"><path d="M 19.464844 0 L 50.714844 15.320312 L 31.488281 54.546875 L 0.238281 39.230469 Z M 19.464844 0 " clip-rule="nonzero"/></clipPath><clipPath id="4ac554d841"><path d="M 31 25 L 34 25 L 34 27 L 31 27 Z M 31 25 " clip-rule="nonzero"/></clipPath><clipPath id="8be48a24c3"><path d="M 19.464844 0 L 50.714844 15.320312 L 31.488281 54.546875 L 0.238281 39.230469 Z M 19.464844 0 " clip-rule="nonzero"/></clipPath><clipPath id="c328674f13"><path d="M 19.464844 0 L 50.714844 15.320312 L 31.488281 54.546875 L 0.238281 39.230469 Z M 19.464844 0 " clip-rule="nonzero"/></clipPath><clipPath id="3e1a682c53"><path d="M 28 29 L 33 29 L 33 32 L 28 32 Z M 28 29 " clip-rule="nonzero"/></clipPath><clipPath id="fa9a4dd00b"><path d="M 19.464844 0 L 50.714844 15.320312 L 31.488281 54.546875 L 0.238281 39.230469 Z M 19.464844 0 " clip-rule="nonzero"/></clipPath><clipPath id="ac563a4817"><path d="M 19.464844 0 L 50.714844 15.320312 L 31.488281 54.546875 L 0.238281 39.230469 Z M 19.464844 0 " clip-rule="nonzero"/></clipPath><clipPath id="53b7b72420"><path d="M 29 29 L 32 29 L 32 31 L 29 31 Z M 29 29 " clip-rule="nonzero"/></clipPath><clipPath id="d59603f8d4"><path d="M 19.464844 0 L 50.714844 15.320312 L 31.488281 54.546875 L 0.238281 39.230469 Z M 19.464844 0 " clip-rule="nonzero"/></clipPath><clipPath id="41121e5347"><path d="M 19.464844 0 L 50.714844 15.320312 L 31.488281 54.546875 L 0.238281 39.230469 Z M 19.464844 0 " clip-rule="nonzero"/></clipPath><clipPath id="f298f1642f"><path d="M 30 26 L 34 26 L 34 30 L 30 30 Z M 30 26 " clip-rule="nonzero"/></clipPath><clipPath id="811e784b24"><path d="M 19.464844 0 L 50.714844 15.320312 L 31.488281 54.546875 L 0.238281 39.230469 Z M 19.464844 0 " clip-rule="nonzero"/></clipPath><clipPath id="2c1489e8eb"><path d="M 19.464844 0 L 50.714844 15.320312 L 31.488281 54.546875 L 0.238281 39.230469 Z M 19.464844 0 " clip-rule="nonzero"/></clipPath><clipPath id="643b8b2805"><path d="M 26 25 L 31 25 L 31 30 L 26 30 Z M 26 25 " clip-rule="nonzero"/></clipPath><clipPath id="b60a022aca"><path d="M 19.464844 0 L 50.714844 15.320312 L 31.488281 54.546875 L 0.238281 39.230469 Z M 19.464844 0 " clip-rule="nonzero"/></clipPath><clipPath id="5f8863be9f"><path d="M 19.464844 0 L 50.714844 15.320312 L 31.488281 54.546875 L 0.238281 39.230469 Z M 19.464844 0 " clip-rule="nonzero"/></clipPath><clipPath id="b0a9bdece5"><path d="M 29 25 L 32 25 L 32 27 L 29 27 Z M 29 25 " clip-rule="nonzero"/></clipPath><clipPath id="76cae07eec"><path d="M 19.464844 0 L 50.714844 15.320312 L 31.488281 54.546875 L 0.238281 39.230469 Z M 19.464844 0 " clip-rule="nonzero"/></clipPath><clipPath id="213a66e092"><path d="M 19.464844 0 L 50.714844 15.320312 L 31.488281 54.546875 L 0.238281 39.230469 Z M 19.464844 0 " clip-rule="nonzero"/></clipPath><clipPath id="4da9aaae83"><path d="M 26 27 L 28 27 L 28 30 L 26 30 Z M 26 27 " clip-rule="nonzero"/></clipPath><clipPath id="d1920129f0"><path d="M 19.464844 0 L 50.714844 15.320312 L 31.488281 54.546875 L 0.238281 39.230469 Z M 19.464844 0 " clip-rule="nonzero"/></clipPath><clipPath id="b843f1c8c2"><path d="M 19.464844 0 L 50.714844 15.320312 L 31.488281 54.546875 L 0.238281 39.230469 Z M 19.464844 0 " clip-rule="nonzero"/></clipPath><clipPath id="87a08fa26b"><path d="M 17 31 L 26 31 L 26 40 L 17 40 Z M 17 31 " clip-rule="nonzero"/></clipPath><clipPath id="572a425380"><path d="M 19.464844 0 L 50.714844 15.320312 L 31.488281 54.546875 L 0.238281 39.230469 Z M 19.464844 0 " clip-rule="nonzero"/></clipPath><clipPath id="7c1e44b620"><path d="M 19.464844 0 L 50.714844 15.320312 L 31.488281 54.546875 L 0.238281 39.230469 Z M 19.464844 0 " clip-rule="nonzero"/></clipPath><clipPath id="76a1b1ce7b"><path d="M 20 31 L 25 31 L 25 34 L 20 34 Z M 20 31 " clip-rule="nonzero"/></clipPath><clipPath id="c07c0bdbad"><path d="M 19.464844 0 L 50.714844 15.320312 L 31.488281 54.546875 L 0.238281 39.230469 Z M 19.464844 0 " clip-rule="nonzero"/></clipPath><clipPath id="34ebbe8b5b"><path d="M 19.464844 0 L 50.714844 15.320312 L 31.488281 54.546875 L 0.238281 39.230469 Z M 19.464844 0 " clip-rule="nonzero"/></clipPath><clipPath id="2b8704d460"><path d="M 20 32 L 24 32 L 24 35 L 20 35 Z M 20 32 " clip-rule="nonzero"/></clipPath><clipPath id="1f9d89db2b"><path d="M 19.464844 0 L 50.714844 15.320312 L 31.488281 54.546875 L 0.238281 39.230469 Z M 19.464844 0 " clip-rule="nonzero"/></clipPath><clipPath id="23fc4a0926"><path d="M 19.464844 0 L 50.714844 15.320312 L 31.488281 54.546875 L 0.238281 39.230469 Z M 19.464844 0 " clip-rule="nonzero"/></clipPath><clipPath id="011f00e1b6"><path d="M 18 37 L 22 37 L 22 39 L 18 39 Z M 18 37 " clip-rule="nonzero"/></clipPath><clipPath id="b2925a119b"><path d="M 19.464844 0 L 50.714844 15.320312 L 31.488281 54.546875 L 0.238281 39.230469 Z M 19.464844 0 " clip-rule="nonzero"/></clipPath><clipPath id="376521df60"><path d="M 19.464844 0 L 50.714844 15.320312 L 31.488281 54.546875 L 0.238281 39.230469 Z M 19.464844 0 " clip-rule="nonzero"/></clipPath><clipPath id="676203e385"><path d="M 19 36 L 22 36 L 22 38 L 19 38 Z M 19 36 " clip-rule="nonzero"/></clipPath><clipPath id="3ec41bfb65"><path d="M 19.464844 0 L 50.714844 15.320312 L 31.488281 54.546875 L 0.238281 39.230469 Z M 19.464844 0 " clip-rule="nonzero"/></clipPath><clipPath id="a823ae22b6"><path d="M 19.464844 0 L 50.714844 15.320312 L 31.488281 54.546875 L 0.238281 39.230469 Z M 19.464844 0 " clip-rule="nonzero"/></clipPath><clipPath id="82ed5ac7ae"><path d="M 19 33 L 23 33 L 23 37 L 19 37 Z M 19 33 " clip-rule="nonzero"/></clipPath><clipPath id="e844506bd2"><path d="M 19.464844 0 L 50.714844 15.320312 L 31.488281 54.546875 L 0.238281 39.230469 Z M 19.464844 0 " clip-rule="nonzero"/></clipPath><clipPath id="343807da79"><path d="M 19.464844 0 L 50.714844 15.320312 L 31.488281 54.546875 L 0.238281 39.230469 Z M 19.464844 0 " clip-rule="nonzero"/></clipPath><clipPath id="94c5d9d430"><path d="M 25 37 L 35 37 L 35 47 L 25 47 Z M 25 37 " clip-rule="nonzero"/></clipPath><clipPath id="2652ed374c"><path d="M 19.464844 0 L 50.714844 15.320312 L 31.488281 54.546875 L 0.238281 39.230469 Z M 19.464844 0 " clip-rule="nonzero"/></clipPath><clipPath id="0ac9634e4c"><path d="M 19.464844 0 L 50.714844 15.320312 L 31.488281 54.546875 L 0.238281 39.230469 Z M 19.464844 0 " clip-rule="nonzero"/></clipPath><clipPath id="b0be3bdd8a"><path d="M 26 35 L 38 35 L 38 47 L 26 47 Z M 26 35 " clip-rule="nonzero"/></clipPath><clipPath id="251ae7687d"><path d="M 19.464844 0 L 50.714844 15.320312 L 31.488281 54.546875 L 0.238281 39.230469 Z M 19.464844 0 " clip-rule="nonzero"/></clipPath><clipPath id="c52894f491"><path d="M 19.464844 0 L 50.714844 15.320312 L 31.488281 54.546875 L 0.238281 39.230469 Z M 19.464844 0 " clip-rule="nonzero"/></clipPath><clipPath id="8092b5277a"><path d="M 30 36 L 35 36 L 35 45 L 30 45 Z M 30 36 " clip-rule="nonzero"/></clipPath><clipPath id="55463696a9"><path d="M 19.464844 0 L 50.714844 15.320312 L 31.488281 54.546875 L 0.238281 39.230469 Z M 19.464844 0 " clip-rule="nonzero"/></clipPath><clipPath id="00e35e2f9b"><path d="M 19.464844 0 L 50.714844 15.320312 L 31.488281 54.546875 L 0.238281 39.230469 Z M 19.464844 0 " clip-rule="nonzero"/></clipPath><clipPath id="5682ed69c8"><path d="M 32 38 L 34 38 L 34 42 L 32 42 Z M 32 38 " clip-rule="nonzero"/></clipPath><clipPath id="729de74e49"><path d="M 19.464844 0 L 50.714844 15.320312 L 31.488281 54.546875 L 0.238281 39.230469 Z M 19.464844 0 " clip-rule="nonzero"/></clipPath><clipPath id="73b385fd86"><path d="M 19.464844 0 L 50.714844 15.320312 L 31.488281 54.546875 L 0.238281 39.230469 Z M 19.464844 0 " clip-rule="nonzero"/></clipPath><clipPath id="5588d0ee67"><path d="M 15 21 L 18 21 L 18 24 L 15 24 Z M 15 21 " clip-rule="nonzero"/></clipPath><clipPath id="8353655157"><path d="M 19.464844 0 L 50.714844 15.320312 L 31.488281 54.546875 L 0.238281 39.230469 Z M 19.464844 0 " clip-rule="nonzero"/></clipPath><clipPath id="87f634ebd7"><path d="M 19.464844 0 L 50.714844 15.320312 L 31.488281 54.546875 L 0.238281 39.230469 Z M 19.464844 0 " clip-rule="nonzero"/></clipPath><clipPath id="9c5dfbc867"><path d="M 32 13 L 34 13 L 34 16 L 32 16 Z M 32 13 " clip-rule="nonzero"/></clipPath><clipPath id="f1b82e431e"><path d="M 19.464844 0 L 50.714844 15.320312 L 31.488281 54.546875 L 0.238281 39.230469 Z M 19.464844 0 " clip-rule="nonzero"/></clipPath><clipPath id="76b1b1ea85"><path d="M 19.464844 0 L 50.714844 15.320312 L 31.488281 54.546875 L 0.238281 39.230469 Z M 19.464844 0 " clip-rule="nonzero"/></clipPath><clipPath id="f92871a0af"><path d="M 18 5 L 21 5 L 21 7 L 18 7 Z M 18 5 " clip-rule="nonzero"/></clipPath><clipPath id="3243b4121b"><path d="M 19.464844 0 L 50.714844 15.320312 L 31.488281 54.546875 L 0.238281 39.230469 Z M 19.464844 0 " clip-rule="nonzero"/></clipPath><clipPath id="db6d5babce"><path d="M 19.464844 0 L 50.714844 15.320312 L 31.488281 54.546875 L 0.238281 39.230469 Z M 19.464844 0 " clip-rule="nonzero"/></clipPath><clipPath id="7d2230a279"><path d="M 17 7 L 20 7 L 20 10 L 17 10 Z M 17 7 " clip-rule="nonzero"/></clipPath><clipPath id="ad207b85fc"><path d="M 19.464844 0 L 50.714844 15.320312 L 31.488281 54.546875 L 0.238281 39.230469 Z M 19.464844 0 " clip-rule="nonzero"/></clipPath><clipPath id="76e5eb35e0"><path d="M 19.464844 0 L 50.714844 15.320312 L 31.488281 54.546875 L 0.238281 39.230469 Z M 19.464844 0 " clip-rule="nonzero"/></clipPath><clipPath id="cc594a1b40"><path d="M 28 6 L 30 6 L 30 9 L 28 9 Z M 28 6 " clip-rule="nonzero"/></clipPath><clipPath id="e72813ec85"><path d="M 19.464844 0 L 50.714844 15.320312 L 31.488281 54.546875 L 0.238281 39.230469 Z M 19.464844 0 " clip-rule="nonzero"/></clipPath><clipPath id="782636c896"><path d="M 19.464844 0 L 50.714844 15.320312 L 31.488281 54.546875 L 0.238281 39.230469 Z M 19.464844 0 " clip-rule="nonzero"/></clipPath><clipPath id="9721bf5ee3"><path d="M 20 15 L 23 15 L 23 16 L 20 16 Z M 20 15 " clip-rule="nonzero"/></clipPath><clipPath id="d7f026ed1e"><path d="M 19.464844 0 L 50.714844 15.320312 L 31.488281 54.546875 L 0.238281 39.230469 Z M 19.464844 0 " clip-rule="nonzero"/></clipPath><clipPath id="ccfba8ac8d"><path d="M 19.464844 0 L 50.714844 15.320312 L 31.488281 54.546875 L 0.238281 39.230469 Z M 19.464844 0 " clip-rule="nonzero"/></clipPath><clipPath id="135629182d"><path d="M 31 9 L 34 9 L 34 11 L 31 11 Z M 31 9 " clip-rule="nonzero"/></clipPath><clipPath id="077ee6b88f"><path d="M 19.464844 0 L 50.714844 15.320312 L 31.488281 54.546875 L 0.238281 39.230469 Z M 19.464844 0 " clip-rule="nonzero"/></clipPath><clipPath id="b1698d5a15"><path d="M 19.464844 0 L 50.714844 15.320312 L 31.488281 54.546875 L 0.238281 39.230469 Z M 19.464844 0 " clip-rule="nonzero"/></clipPath><clipPath id="24012709cf"><path d="M 21 3 L 24 3 L 24 6 L 21 6 Z M 21 3 " clip-rule="nonzero"/></clipPath><clipPath id="0dcbecd1fc"><path d="M 19.464844 0 L 50.714844 15.320312 L 31.488281 54.546875 L 0.238281 39.230469 Z M 19.464844 0 " clip-rule="nonzero"/></clipPath><clipPath id="884bac9ec2"><path d="M 19.464844 0 L 50.714844 15.320312 L 31.488281 54.546875 L 0.238281 39.230469 Z M 19.464844 0 " clip-rule="nonzero"/></clipPath><clipPath id="834aaf3fa1"><path d="M 11 28 L 13 28 L 13 31 L 11 31 Z M 11 28 " clip-rule="nonzero"/></clipPath><clipPath id="f73fe3a782"><path d="M 19.464844 0 L 50.714844 15.320312 L 31.488281 54.546875 L 0.238281 39.230469 Z M 19.464844 0 " clip-rule="nonzero"/></clipPath><clipPath id="03d44b38c9"><path d="M 19.464844 0 L 50.714844 15.320312 L 31.488281 54.546875 L 0.238281 39.230469 Z M 19.464844 0 " clip-rule="nonzero"/></clipPath><clipPath id="87a48f7a31"><path d="M 9 26 L 11 26 L 11 28 L 9 28 Z M 9 26 " clip-rule="nonzero"/></clipPath><clipPath id="fac3cf81a1"><path d="M 19.464844 0 L 50.714844 15.320312 L 31.488281 54.546875 L 0.238281 39.230469 Z M 19.464844 0 " clip-rule="nonzero"/></clipPath><clipPath id="61f155b5ad"><path d="M 19.464844 0 L 50.714844 15.320312 L 31.488281 54.546875 L 0.238281 39.230469 Z M 19.464844 0 " clip-rule="nonzero"/></clipPath><clipPath id="71ab8e3109"><path d="M 31 27 L 33 27 L 33 29 L 31 29 Z M 31 27 " clip-rule="nonzero"/></clipPath><clipPath id="29a13be5c5"><path d="M 19.464844 0 L 50.714844 15.320312 L 31.488281 54.546875 L 0.238281 39.230469 Z M 19.464844 0 " clip-rule="nonzero"/></clipPath><clipPath id="d118fedb15"><path d="M 19.464844 0 L 50.714844 15.320312 L 31.488281 54.546875 L 0.238281 39.230469 Z M 19.464844 0 " clip-rule="nonzero"/></clipPath><clipPath id="f5480576c5"><path d="M 20 34 L 23 34 L 23 36 L 20 36 Z M 20 34 " clip-rule="nonzero"/></clipPath><clipPath id="a91e91b0d6"><path d="M 19.464844 0 L 50.714844 15.320312 L 31.488281 54.546875 L 0.238281 39.230469 Z M 19.464844 0 " clip-rule="nonzero"/></clipPath><clipPath id="42e8f49ee3"><path d="M 19.464844 0 L 50.714844 15.320312 L 31.488281 54.546875 L 0.238281 39.230469 Z M 19.464844 0 " clip-rule="nonzero"/></clipPath><clipPath id="58cccdcbb7"><path d="M 32 30 L 36 30 L 36 33 L 32 33 Z M 32 30 " clip-rule="nonzero"/></clipPath><clipPath id="da5411a4ce"><path d="M 19.464844 0 L 50.714844 15.320312 L 31.488281 54.546875 L 0.238281 39.230469 Z M 19.464844 0 " clip-rule="nonzero"/></clipPath><clipPath id="7a2344960d"><path d="M 19.464844 0 L 50.714844 15.320312 L 31.488281 54.546875 L 0.238281 39.230469 Z M 19.464844 0 " clip-rule="nonzero"/></clipPath><clipPath id="1e88c116e8"><path d="M 28 22 L 32 22 L 32 24 L 28 24 Z M 28 22 " clip-rule="nonzero"/></clipPath><clipPath id="cb1f644f31"><path d="M 19.464844 0 L 50.714844 15.320312 L 31.488281 54.546875 L 0.238281 39.230469 Z M 19.464844 0 " clip-rule="nonzero"/></clipPath><clipPath id="f14f25c3de"><path d="M 19.464844 0 L 50.714844 15.320312 L 31.488281 54.546875 L 0.238281 39.230469 Z M 19.464844 0 " clip-rule="nonzero"/></clipPath><clipPath id="8352185d63"><path d="M 20 22 L 22 22 L 22 24 L 20 24 Z M 20 22 " clip-rule="nonzero"/></clipPath><clipPath id="eca8a0429c"><path d="M 19.464844 0 L 50.714844 15.320312 L 31.488281 54.546875 L 0.238281 39.230469 Z M 19.464844 0 " clip-rule="nonzero"/></clipPath><clipPath id="ac92fa63ab"><path d="M 19.464844 0 L 50.714844 15.320312 L 31.488281 54.546875 L 0.238281 39.230469 Z M 19.464844 0 " clip-rule="nonzero"/></clipPath><clipPath id="0bb693fa03"><path d="M 15 18 L 17 18 L 17 20 L 15 20 Z M 15 18 " clip-rule="nonzero"/></clipPath><clipPath id="56f8848c1c"><path d="M 19.464844 0 L 50.714844 15.320312 L 31.488281 54.546875 L 0.238281 39.230469 Z M 19.464844 0 " clip-rule="nonzero"/></clipPath><clipPath id="a830d81e9b"><path d="M 19.464844 0 L 50.714844 15.320312 L 31.488281 54.546875 L 0.238281 39.230469 Z M 19.464844 0 " clip-rule="nonzero"/></clipPath><clipPath id="166c8e903e"><path d="M 23 10 L 26 10 L 26 13 L 23 13 Z M 23 10 " clip-rule="nonzero"/></clipPath><clipPath id="d2a81e1e57"><path d="M 19.464844 0 L 50.714844 15.320312 L 31.488281 54.546875 L 0.238281 39.230469 Z M 19.464844 0 " clip-rule="nonzero"/></clipPath><clipPath id="1d6d7e0f85"><path d="M 19.464844 0 L 50.714844 15.320312 L 31.488281 54.546875 L 0.238281 39.230469 Z M 19.464844 0 " clip-rule="nonzero"/></clipPath><clipPath id="8bb7383498"><path d="M 17 17 L 23 17 L 23 22 L 17 22 Z M 17 17 " clip-rule="nonzero"/></clipPath><clipPath id="1cd33ca957"><path d="M 19.464844 0 L 50.714844 15.320312 L 31.488281 54.546875 L 0.238281 39.230469 Z M 19.464844 0 " clip-rule="nonzero"/></clipPath><clipPath id="fed66f9c23"><path d="M 19.464844 0 L 50.714844 15.320312 L 31.488281 54.546875 L 0.238281 39.230469 Z M 19.464844 0 " clip-rule="nonzero"/></clipPath></defs><g clip-path="url(#57a747b2b6)"><path fill="#ffefac" d="M 9.558594 66.9375 C 9.425781 62.902344 9.730469 58.636719 11.640625 55.382812 C 12.902344 53.242188 14.75 51.722656 16.636719 50.390625 C 18.960938 48.738281 21.410156 47.296875 24.011719 46.355469 C 29.699219 44.304688 35.945312 44.753906 41.710938 46.882812 C 44.703125 47.984375 47.617188 49.550781 50.097656 51.878906 C 54.574219 56.085938 57.390625 62.859375 57.195312 69.574219 C 57.140625 71.546875 56.832031 73.507812 56.199219 75.304688 C 55.519531 77.222656 54.484375 78.914062 53.460938 80.585938 C 51.679688 83.492188 49.851562 86.449219 47.371094 88.496094 C 46.234375 89.429688 45.011719 90.058594 43.671875 90.457031 C 42.433594 90.828125 41.511719 90.574219 40.242188 90.410156 C 37.589844 90.066406 34.925781 90.316406 32.296875 90.625 C 30.484375 90.835938 28.660156 91.074219 26.84375 90.796875 C 23.347656 90.261719 20.292969 86.917969 17.582031 84.355469 C 14.722656 81.65625 11.957031 78.484375 10.632812 74.339844 C 9.878906 71.980469 9.644531 69.441406 9.558594 66.9375 Z M 9.558594 66.9375 " fill-opacity="1" fill-rule="nonzero"/></g><g clip-path="url(#abb4b86b4d)"><path fill="#deba6f" d="M 39.808594 65.636719 C 38.972656 67.191406 38.652344 69 38.910156 70.746094 C 38.9375 70.929688 38.839844 71.097656 38.636719 71.101562 C 38.320312 71.117188 38.003906 71.164062 37.695312 71.230469 C 37.089844 71.363281 36.566406 71.664062 35.984375 71.859375 C 34.757812 72.269531 33.441406 72.308594 32.160156 72.304688 C 31.078125 72.304688 29.902344 72.238281 29.210938 71.285156 C 29.0625 71.089844 28.953125 70.851562 28.902344 70.609375 C 28.855469 70.375 28.890625 70.167969 28.886719 69.933594 C 28.886719 69.792969 28.855469 69.65625 28.859375 69.511719 C 28.863281 69.269531 28.863281 69.027344 28.839844 68.785156 C 28.613281 66.710938 27.039062 65.039062 25.78125 63.496094 C 22.871094 59.914062 20.761719 55.472656 21.464844 50.753906 C 21.515625 50.394531 22.058594 50.546875 22.007812 50.902344 C 21.621094 53.496094 22.148438 56.117188 23.238281 58.480469 C 24.140625 60.441406 25.402344 62.152344 26.761719 63.816406 C 28 65.335938 29.328125 67.03125 29.421875 69.078125 C 29.429688 69.273438 29.410156 69.472656 29.421875 69.667969 C 29.429688 69.800781 29.453125 69.921875 29.4375 70.050781 C 29.390625 70.558594 29.59375 71.003906 30.003906 71.3125 C 30.429688 71.632812 30.976562 71.714844 31.496094 71.738281 C 32.070312 71.761719 32.65625 71.75 33.234375 71.730469 C 34.371094 71.6875 35.492188 71.523438 36.53125 71.035156 C 37.089844 70.773438 37.707031 70.621094 38.320312 70.566406 C 38.285156 70.265625 38.265625 69.960938 38.261719 69.65625 C 38.238281 67.953125 38.726562 66.3125 39.601562 64.859375 C 40.453125 63.449219 41.546875 62.207031 42.328125 60.75 C 43.851562 57.910156 44.464844 54.503906 43.75 51.339844 C 43.128906 48.570312 41.503906 45.941406 39.070312 44.421875 C 37.675781 43.550781 36.066406 43.097656 34.441406 42.941406 C 32.863281 42.789062 31.234375 42.847656 29.675781 43.144531 C 28.203125 43.425781 26.765625 43.9375 25.53125 44.800781 C 24.222656 45.71875 23.25 47.023438 22.652344 48.5 C 22.515625 48.828125 21.972656 48.683594 22.109375 48.347656 C 22.261719 47.96875 22.433594 47.59375 22.628906 47.234375 C 23.40625 45.820312 24.558594 44.660156 25.964844 43.867188 C 27.316406 43.101562 28.835938 42.671875 30.367188 42.46875 C 33.589844 42.03125 37.1875 42.335938 39.894531 44.300781 C 42.296875 46.046875 43.882812 48.8125 44.398438 51.71875 C 44.984375 55.015625 44.277344 58.484375 42.621094 61.378906 C 41.78125 62.859375 40.617188 64.132812 39.808594 65.636719 Z M 38.109375 73.085938 C 35.609375 73.792969 33.015625 74.113281 30.4375 74.035156 C 30.292969 74.03125 30.140625 74.027344 30.015625 74.101562 C 29.691406 74.296875 29.78125 74.8125 29.914062 75.179688 C 30.09375 75.667969 30.292969 76.183594 30.695312 76.476562 C 31.128906 76.796875 31.699219 76.792969 32.230469 76.761719 C 33.664062 76.683594 35.097656 76.511719 36.515625 76.25 C 37.058594 76.148438 37.648438 76.007812 37.992188 75.546875 C 38.414062 74.980469 38.308594 74.175781 38.175781 73.476562 Z M 35.59375 59.132812 C 36.210938 58.320312 36.457031 57.265625 35.984375 56.265625 C 35.605469 55.460938 34.785156 55.050781 33.917969 55.03125 C 33 55.015625 32.113281 55.390625 31.449219 56.015625 C 31.183594 56.261719 30.789062 55.867188 31.050781 55.617188 C 31.929688 54.792969 33.148438 54.335938 34.355469 54.507812 C 35.515625 54.671875 36.433594 55.46875 36.695312 56.621094 C 36.960938 57.777344 36.589844 58.863281 35.871094 59.679688 C 35.878906 59.703125 35.890625 59.722656 35.898438 59.75 C 36.101562 60.351562 36.003906 60.980469 35.855469 61.582031 C 35.699219 62.210938 35.53125 62.839844 35.371094 63.464844 C 35.039062 64.757812 34.707031 66.042969 34.378906 67.332031 C 34.289062 67.683594 33.746094 67.535156 33.835938 67.183594 C 34.152344 65.953125 34.46875 64.726562 34.785156 63.496094 C 34.9375 62.898438 35.089844 62.296875 35.246094 61.699219 C 35.378906 61.183594 35.523438 60.648438 35.414062 60.121094 C 34.863281 60.578125 34.191406 60.902344 33.476562 61.042969 C 32.484375 61.234375 31.167969 61.191406 30.382812 60.460938 C 30.039062 60.144531 29.867188 59.664062 30.011719 59.207031 C 30.164062 58.726562 30.578125 58.371094 30.996094 58.121094 C 32.5 57.226562 34.65625 57.664062 35.59375 59.132812 Z M 34.046875 60.300781 C 34.472656 60.136719 34.867188 59.882812 35.203125 59.566406 C 34.484375 58.214844 32.523438 57.847656 31.25 58.628906 C 30.929688 58.824219 30.519531 59.144531 30.519531 59.558594 C 30.523438 59.925781 30.859375 60.175781 31.164062 60.320312 C 32.035156 60.726562 33.171875 60.632812 34.046875 60.300781 Z M 36.71875 78.289062 C 35.0625 78.335938 32.855469 78.632812 31.25 79.085938 C 31.25 79.085938 30.816406 80.140625 31.070312 80.777344 C 31.28125 81.308594 31.910156 81.460938 32.453125 81.515625 C 33.347656 81.597656 34.25 81.589844 35.140625 81.484375 C 36.125 81.371094 37.171875 81.09375 37.8125 80.289062 C 38.171875 79.839844 38.347656 79.128906 37.996094 78.683594 C 37.703125 78.308594 37.179688 78.277344 36.71875 78.289062 Z M 19.996094 44.519531 C 18.917969 45.230469 18.253906 46.398438 17.972656 47.640625 C 17.625 49.175781 17.847656 50.757812 18.097656 52.289062 C 18.15625 52.644531 18.695312 52.492188 18.636719 52.140625 C 18.410156 50.734375 18.195312 49.269531 18.496094 47.859375 C 18.738281 46.738281 19.304688 45.648438 20.277344 45.003906 C 20.578125 44.804688 20.296875 44.320312 19.996094 44.519531 Z M 46.277344 55.875 C 46.257812 55.722656 46.164062 55.59375 45.996094 55.59375 C 45.859375 55.589844 45.695312 55.726562 45.714844 55.875 C 46.128906 59.027344 44.132812 61.828125 42.355469 64.234375 C 42.140625 64.523438 42.625 64.804688 42.839844 64.515625 C 44.671875 62.039062 46.703125 59.125 46.277344 55.875 Z M 46.277344 55.875 " fill-opacity="1" fill-rule="nonzero"/></g><g clip-path="url(#c39dc9b15e)"><g clip-path="url(#d67ec21974)"><g clip-path="url(#e9fb4e43f4)"><path fill="#f9efe3" d="M 18.878906 27.46875 C 19.636719 27.910156 20.832031 28.671875 21.507812 27.679688 C 21.792969 27.261719 21.890625 26.695312 21.96875 26.207031 C 22.046875 25.730469 22.144531 25.125 21.964844 24.660156 C 21.945312 24.601562 21.859375 24.621094 21.859375 24.683594 C 21.890625 25.578125 21.824219 26.507812 21.480469 27.34375 C 20.980469 28.570312 19.722656 27.722656 18.921875 27.382812 C 18.863281 27.355469 18.824219 27.4375 18.878906 27.46875 Z M 18.878906 27.46875 " fill-opacity="1" fill-rule="nonzero"/></g></g></g><g clip-path="url(#71cd450685)"><g clip-path="url(#86369f4306)"><g clip-path="url(#2deb39c672)"><path fill="#f9efe3" d="M 13.101562 22.96875 C 13.246094 22.625 13.226562 22.332031 13.058594 22.003906 C 12.867188 21.632812 12.476562 21.335938 12.449219 20.894531 C 12.402344 20.207031 13.554688 19.722656 14.046875 19.511719 C 14.628906 19.261719 15.320312 19.105469 15.832031 18.714844 C 15.894531 18.667969 15.847656 18.550781 15.769531 18.589844 C 15.140625 18.878906 14.503906 19.136719 13.867188 19.40625 C 13.339844 19.632812 12.6875 19.957031 12.40625 20.488281 C 11.90625 21.425781 13.382812 21.953125 13.023438 22.929688 C 13.007812 22.980469 13.082031 23.019531 13.101562 22.96875 Z M 13.101562 22.96875 " fill-opacity="1" fill-rule="nonzero"/></g></g></g><g clip-path="url(#954eb6ac08)"><g clip-path="url(#95f2676758)"><g clip-path="url(#f142ec0e72)"><path fill="#1d0e07" d="M 22.753906 5.035156 C 21.488281 5.488281 20.292969 4.242188 19.101562 3.984375 C 18.628906 3.882812 18.285156 4.019531 18 4.398438 C 17.785156 4.683594 17.570312 5.152344 17.796875 5.488281 C 17.816406 5.515625 17.867188 5.503906 17.863281 5.464844 C 17.789062 5.003906 18.058594 4.476562 18.429688 4.207031 C 18.871094 3.890625 19.667969 4.34375 20.082031 4.527344 C 20.9375 4.90625 21.820312 5.535156 22.777344 5.109375 C 22.820312 5.089844 22.800781 5.019531 22.753906 5.035156 Z M 22.753906 5.035156 " fill-opacity="1" fill-rule="nonzero"/></g></g></g><g clip-path="url(#41329ddddb)"><g clip-path="url(#34b767c050)"><g clip-path="url(#759010cee6)"><path fill="#1d0e07" d="M 32.222656 10.4375 C 31.714844 11.539062 32.722656 12.367188 33.523438 12.957031 C 34.085938 13.367188 34.597656 13.800781 34.464844 14.570312 C 34.332031 15.339844 33.574219 15.582031 32.894531 15.617188 C 32.832031 15.621094 32.832031 15.710938 32.890625 15.726562 C 34.039062 16.011719 34.988281 14.847656 34.566406 13.769531 C 34.335938 13.1875 33.691406 12.882812 33.222656 12.515625 C 32.574219 12.011719 32.015625 11.351562 32.324219 10.488281 C 32.347656 10.421875 32.253906 10.371094 32.222656 10.4375 Z M 32.222656 10.4375 " fill-opacity="1" fill-rule="nonzero"/></g></g></g><g clip-path="url(#c120d3fcdc)"><g clip-path="url(#b25281fe95)"><g clip-path="url(#6266770085)"><path fill="#1d0e07" d="M 25.484375 4.84375 C 25.054688 5.828125 23.96875 6.445312 22.878906 6.328125 C 21.746094 6.191406 20.734375 5.171875 19.664062 4.804688 C 18.613281 4.5 17.210938 4.59375 17.496094 6.035156 C 17.625 6.621094 17.984375 7.164062 17.84375 7.769531 C 17.742188 8.191406 17.433594 8.613281 17.226562 9.03125 C 16.648438 10.210938 17.289062 11.566406 18.402344 12.164062 C 19.683594 12.84375 20.902344 13.128906 21.8125 14.355469 C 22.511719 15.273438 22.8125 16.359375 23.699219 17.105469 C 24.519531 17.769531 25.921875 17.882812 26.925781 17.644531 C 28.285156 17.320312 29.136719 16.644531 30.585938 16.882812 C 31.632812 17.085938 33.390625 16.800781 33.988281 15.789062 C 34.609375 14.738281 33.929688 13.359375 33.042969 12.71875 C 32.582031 12.386719 32.140625 12.222656 31.757812 11.828125 C 31.316406 11.453125 31.019531 10.996094 30.597656 10.582031 C 29.816406 9.832031 28.277344 8.609375 28.289062 7.417969 " fill-opacity="1" fill-rule="nonzero"/></g></g></g><g clip-path="url(#0010690725)"><g clip-path="url(#9cd9a312f6)"><g clip-path="url(#88e5215d16)"><path fill="#de937b" d="M 17.625 17.832031 C 14.398438 20.015625 11.21875 24.371094 10.4375 26.292969 C 9.65625 28.214844 8.648438 36.71875 8 39.300781 C 7.855469 39.878906 8.019531 42.230469 8.628906 42.460938 C 9.234375 42.6875 8.804688 41.023438 9.398438 39.492188 C 9.988281 37.964844 12.234375 31.832031 13.1875 29.046875 C 13.980469 26.730469 18.710938 23.292969 19.800781 21.375 Z M 17.625 17.832031 " fill-opacity="1" fill-rule="nonzero"/></g></g></g><g clip-path="url(#5d246b1dab)"><g clip-path="url(#71163c2b5b)"><g clip-path="url(#e66ef085b4)"><path fill="#de937b" d="M 19.3125 20.65625 C 19.3125 20.65625 12.597656 25.984375 11.273438 27.582031 C 9.949219 29.179688 6.53125 36.0625 5.761719 38.824219 C 5.363281 40.257812 3.988281 40.707031 4.125 41.097656 C 4.257812 41.492188 6.628906 40.265625 6.898438 39.578125 C 7.167969 38.894531 7.40625 37.925781 9.128906 36.222656 C 10.546875 34.820312 11.316406 33.40625 13.066406 31.035156 C 14.519531 29.066406 18.667969 28.523438 20.285156 27.027344 C 21.902344 25.527344 22.480469 23.128906 22.429688 21.464844 Z M 19.3125 20.65625 " fill-opacity="1" fill-rule="nonzero"/></g></g></g><g clip-path="url(#94496a9980)"><g clip-path="url(#2f6fc33626)"><g clip-path="url(#d8945cf0b3)"><path fill="#f9efe3" d="M 16.761719 23.851562 C 17.292969 24.011719 17.808594 24.230469 18.242188 24.582031 C 19.351562 25.519531 19.359375 26.441406 19.738281 27.671875 C 19.742188 28.199219 20.738281 27.769531 21 27.503906 C 21.285156 27.1875 21.515625 26.449219 21.777344 26.054688 C 22.371094 25.101562 22.519531 23.601562 22.40625 22.5 C 22.316406 21.210938 21.414062 20.246094 20.097656 20.125 C 18.894531 20.015625 15.144531 23.664062 15.410156 23.839844 C 15.675781 24.011719 16.359375 23.734375 16.761719 23.851562 Z M 16.761719 23.851562 " fill-opacity="1" fill-rule="nonzero"/></g></g></g><g clip-path="url(#7a1afaf3ed)"><g clip-path="url(#81154a4f5e)"><g clip-path="url(#84ebb5e287)"><path fill="#f9efe3" d="M 15.566406 23.699219 C 15.269531 22.964844 14.621094 21.957031 13.882812 21.859375 C 13.222656 21.730469 12.648438 21.972656 12.644531 21.316406 C 12.691406 20.683594 13.1875 20.46875 13.554688 20.125 C 14.441406 19.25 15.4375 18.644531 16.667969 18.003906 C 18.082031 17.257812 18.65625 16.929688 19.296875 18.554688 C 19.859375 19.945312 19.742188 21.523438 19.042969 22.816406 Z M 15.566406 23.699219 " fill-opacity="1" fill-rule="nonzero"/></g></g></g><g clip-path="url(#87ead49390)"><g clip-path="url(#3fb0acd1b0)"><g clip-path="url(#9e003c6bb2)"><path fill="#de937b" d="M 26.625 9.347656 C 26.085938 10.027344 25.605469 10.921875 26.09375 11.609375 C 26.582031 12.292969 28.691406 14.25 28.195312 15.175781 C 27.941406 15.664062 27.234375 15.984375 26.828125 16.285156 C 26.351562 16.664062 25.84375 16.972656 25.335938 17.28125 C 24.332031 17.84375 23.414062 18.453125 22.273438 18.730469 C 21.699219 18.894531 21.3125 19.09375 20.902344 18.28125 C 20.492188 17.46875 20.402344 16.308594 20.300781 15.425781 C 20.167969 14.023438 20.042969 12.125 20.460938 10.882812 C 20.855469 9.738281 22.023438 9.945312 22.953125 10.402344 C 23.484375 10.660156 23.738281 10.84375 24.011719 10.253906 C 24.1875 9.894531 24.570312 9.109375 24.480469 8.621094 C 24.480469 8.621094 24.492188 8.570312 24.457031 8.5 " fill-opacity="1" fill-rule="nonzero"/></g></g></g><g clip-path="url(#472fc11915)"><g clip-path="url(#8b0eb2e979)"><g clip-path="url(#e0cff5e0c1)"><path fill="#414a1b" d="M 33.945312 9.570312 C 33.625 8.871094 33.359375 8.921875 32.703125 8.664062 C 32.097656 8.425781 32.019531 7.964844 31.582031 7.628906 C 30.753906 6.984375 29.597656 7.621094 28.816406 6.878906 L 27.683594 7.589844 C 27.808594 7.949219 27.859375 8.335938 28.007812 8.652344 C 28.230469 9.421875 28.472656 9.421875 29.128906 9.804688 C 30.238281 10.449219 28.605469 10.78125 28.195312 11.023438 C 27.8125 11.246094 27.574219 11.515625 27.085938 11.496094 C 26.566406 11.480469 26.140625 11.367188 25.59375 11.4375 C 24.449219 11.582031 24.03125 11.296875 23.558594 10.296875 C 23.390625 9.945312 23.179688 9.996094 23.066406 9.585938 C 22.929688 9.074219 23.398438 8.632812 23.4375 8.148438 C 23.46875 7.785156 23.125 7.46875 23.257812 7.140625 C 23.492188 7.230469 24.316406 8.199219 24.597656 7.726562 C 24.601562 7.71875 25.824219 5.652344 25.824219 5.652344 C 25.480469 4.746094 22.910156 2.175781 21.839844 3.070312 C 21.589844 3.261719 21.300781 3.851562 21.113281 4.128906 C 20.714844 4.617188 20.695312 4.867188 20.703125 5.5 C 20.6875 6.492188 20.398438 7.191406 19.921875 8.058594 C 19.640625 8.566406 19.363281 9.488281 19.28125 10.074219 C 19.164062 10.914062 19.460938 11.816406 19.1875 12.632812 C 19.042969 13.0625 18.691406 13.359375 18.542969 13.785156 C 18.394531 14.207031 18.417969 14.679688 18.273438 15.105469 C 18.011719 15.890625 17.339844 16.222656 16.796875 16.792969 C 16.132812 17.496094 16.730469 18.039062 17.035156 18.765625 C 17.484375 19.773438 17.746094 20.742188 18.84375 21.28125 C 19.394531 21.550781 19.941406 21.503906 20.492188 21.667969 C 21 21.808594 21.464844 22.039062 21.972656 22.183594 C 23.03125 22.445312 23.230469 21.539062 23.582031 20.75 C 24.171875 19.421875 25.238281 18.414062 26.367188 17.535156 C 26.960938 17.070312 27.199219 16.710938 27.636719 16.125 C 28.082031 15.539062 28.742188 15.160156 29.398438 14.847656 C 30.136719 14.5 30.910156 14.539062 31.316406 13.707031 C 31.6875 12.941406 32.574219 12.746094 33.152344 12.179688 C 33.851562 11.503906 34.339844 10.535156 33.945312 9.570312 Z M 33.945312 9.570312 " fill-opacity="1" fill-rule="nonzero"/></g></g></g><g clip-path="url(#fc50e87c27)"><g clip-path="url(#c34c9cd8c6)"><g clip-path="url(#8a3009f53b)"><path fill="#de937b" d="M 24.238281 6.824219 C 24.078125 6.253906 23.742188 6.609375 23.632812 6.886719 C 23.414062 7.382812 23.695312 7.65625 24.082031 7.929688 " fill-opacity="1" fill-rule="nonzero"/></g></g></g><g clip-path="url(#49a4a32b54)"><g clip-path="url(#71b91130de)"><g clip-path="url(#6553c60bb7)"><path fill="#de937b" d="M 28.398438 8.863281 C 28.945312 8.640625 28.875 9.125 28.722656 9.378906 C 28.460938 9.855469 28.074219 9.804688 27.621094 9.664062 " fill-opacity="1" fill-rule="nonzero"/></g></g></g><g clip-path="url(#bdb5dbeaf3)"><g clip-path="url(#d45ae6febb)"><g clip-path="url(#392cbc1ef4)"><path fill="#de937b" d="M 29.050781 7.925781 C 28.726562 8.976562 27.414062 10.0625 26.34375 10.195312 C 24.902344 10.367188 23.726562 9.453125 23.824219 8.105469 C 23.875 7.414062 24.445312 5.941406 24.929688 5.421875 C 25.167969 5.167969 26.003906 4.128906 27.859375 5.039062 C 29.714844 5.945312 29.246094 7.277344 29.050781 7.925781 Z M 29.050781 7.925781 " fill-opacity="1" fill-rule="nonzero"/></g></g></g><g clip-path="url(#ab5a1e4e85)"><g clip-path="url(#2dd73e7b06)"><g clip-path="url(#a8fbf1e53b)"><path fill="#1d0e07" d="M 27.617188 8.285156 C 27.414062 8.308594 27.242188 8.316406 27.042969 8.25 C 26.882812 8.199219 26.738281 8.039062 26.570312 8.027344 C 26.539062 8.027344 26.515625 8.046875 26.515625 8.078125 C 26.511719 8.296875 26.828125 8.417969 27 8.476562 C 27.203125 8.542969 27.492188 8.589844 27.671875 8.449219 C 27.738281 8.398438 27.710938 8.277344 27.617188 8.285156 Z M 27.617188 8.285156 " fill-opacity="1" fill-rule="nonzero"/></g></g></g><g clip-path="url(#74459b445c)"><g clip-path="url(#87e7f3e4c6)"><g clip-path="url(#56f8d62b8e)"><path fill="#1d0e07" d="M 25.226562 7.332031 C 25.082031 7.324219 24.964844 7.226562 24.886719 7.109375 C 24.8125 7 24.824219 6.871094 24.761719 6.761719 C 24.75 6.742188 24.71875 6.738281 24.699219 6.75 C 24.523438 6.855469 24.644531 7.128906 24.730469 7.253906 C 24.84375 7.410156 25.042969 7.542969 25.242188 7.515625 C 25.363281 7.5 25.347656 7.335938 25.226562 7.332031 Z M 25.226562 7.332031 " fill-opacity="1" fill-rule="nonzero"/></g></g></g><g clip-path="url(#e81ad8e211)"><g clip-path="url(#1a369a9f8d)"><g clip-path="url(#e152b69b6b)"><path fill="#1d0e07" d="M 27.996094 7.769531 C 27.769531 7.511719 27.335938 7.316406 26.992188 7.316406 C 26.886719 7.316406 26.875 7.496094 26.980469 7.5 C 27.148438 7.511719 27.296875 7.554688 27.449219 7.625 C 27.613281 7.703125 27.75 7.824219 27.917969 7.882812 C 27.996094 7.910156 28.050781 7.828125 27.996094 7.769531 Z M 27.996094 7.769531 " fill-opacity="1" fill-rule="nonzero"/></g></g></g><g clip-path="url(#c1560553b4)"><g clip-path="url(#2f8d4b6761)"><g clip-path="url(#a232afcc7f)"><path fill="#1d0e07" d="M 25.796875 6.753906 C 25.695312 6.425781 25.3125 6.289062 25.03125 6.160156 C 24.90625 6.101562 24.8125 6.292969 24.9375 6.355469 C 25.183594 6.476562 25.503906 6.5625 25.644531 6.828125 C 25.691406 6.917969 25.824219 6.84375 25.796875 6.753906 Z M 25.796875 6.753906 " fill-opacity="1" fill-rule="nonzero"/></g></g></g><g clip-path="url(#8b83fe0796)"><g clip-path="url(#4fa0ea8bd0)"><g clip-path="url(#a28e4acf69)"><path fill="#ffffff" d="M 25.742188 8.359375 C 25.667969 8.34375 25.410156 8.335938 25.394531 8.230469 C 25.378906 8.128906 25.5 8 25.558594 7.929688 C 25.6875 7.765625 25.984375 7.558594 26.019531 7.34375 C 26.027344 7.277344 25.953125 7.226562 25.894531 7.265625 C 25.769531 7.34375 25.667969 7.511719 25.570312 7.621094 C 25.453125 7.753906 25.328125 7.890625 25.25 8.050781 C 25.074219 8.390625 25.449219 8.535156 25.734375 8.511719 C 25.820312 8.503906 25.828125 8.375 25.742188 8.359375 Z M 25.742188 8.359375 " fill-opacity="1" fill-rule="nonzero"/></g></g></g><g clip-path="url(#f44cf4da50)"><g clip-path="url(#ea20544e7a)"><g clip-path="url(#23b616eb68)"><path fill="#1d0e07" d="M 25.855469 9.089844 C 25.601562 9.007812 25.335938 9 25.117188 8.828125 C 24.988281 8.722656 24.902344 8.585938 24.753906 8.507812 C 24.691406 8.472656 24.632812 8.5625 24.6875 8.605469 C 24.851562 8.746094 24.992188 8.910156 25.183594 9.015625 C 25.375 9.125 25.632812 9.160156 25.851562 9.171875 C 25.902344 9.175781 25.894531 9.101562 25.855469 9.089844 Z M 25.855469 9.089844 " fill-opacity="1" fill-rule="nonzero"/></g></g></g><g clip-path="url(#594b2a6941)"><g clip-path="url(#0cc25fd723)"><g clip-path="url(#d14a3949f9)"><g mask="url(#5f300016c1)"><g transform="matrix(1, 0, 0, 1, 26, 8)"><g clip-path="url(#5ea4f198fd)"><g clip-path="url(#13925391fc)"><g clip-path="url(#d51722de7a)"><g clip-path="url(#376bd137ca)"><path fill="#ffffff" d="M 1.933594 1.246094 C 1.886719 1.480469 0.792969 2.066406 0.464844 1.722656 C 0.125 1.390625 0.636719 0.9375 1.121094 0.878906 C 1.546875 0.832031 1.984375 1.015625 1.933594 1.246094 Z M 1.933594 1.246094 " fill-opacity="1" fill-rule="nonzero"/></g></g></g></g></g></g></g></g></g><g clip-path="url(#f1c6441c4d)"><g clip-path="url(#c61d74e7ee)"><g clip-path="url(#c61386304f)"><g mask="url(#199984a8d7)"><g transform="matrix(1, 0, 0, 1, 23, 7)"><g clip-path="url(#070ce80752)"><g clip-path="url(#8f3f8cbdcf)"><g clip-path="url(#476b87338e)"><g clip-path="url(#7470c3cf37)"><path fill="#ffffff" d="M 1.074219 0.316406 C 0.875 0.472656 0.714844 1.558594 1.222656 1.621094 C 1.726562 1.703125 1.902344 1.085938 1.703125 0.695312 C 1.53125 0.355469 1.277344 0.15625 1.074219 0.316406 Z M 1.074219 0.316406 " fill-opacity="1" fill-rule="nonzero"/></g></g></g></g></g></g></g></g></g><g clip-path="url(#9d4240bb6d)"><g clip-path="url(#feaaeb5479)"><g clip-path="url(#cb6503a46b)"><path fill="#1d0e07" d="M 27.246094 4.34375 C 26.101562 4.105469 25.246094 4.507812 24.605469 5.246094 C 24.320312 5.609375 24.238281 5.890625 24.144531 6.300781 C 24.046875 6.617188 23.570312 7.027344 23.789062 7.363281 C 23.960938 7.125 24.308594 7.203125 24.460938 7.003906 C 24.578125 6.878906 24.570312 6.554688 24.640625 6.40625 C 24.839844 6.003906 25.324219 5.691406 25.804688 5.605469 C 26.222656 5.527344 26.847656 5.003906 27.605469 5.539062 C 28.011719 5.828125 28.507812 6.671875 28.582031 7.332031 C 28.628906 7.90625 28.183594 8.144531 27.984375 8.550781 C 27.707031 9.007812 27.996094 9.421875 27.714844 9.882812 C 28.160156 9.871094 28.085938 9.46875 28.300781 9.253906 C 28.515625 9.039062 28.886719 8.945312 29.105469 8.730469 C 30.464844 7.523438 29.257812 4.828125 27.246094 4.34375 Z M 27.246094 4.34375 " fill-opacity="1" fill-rule="nonzero"/></g></g></g><g clip-path="url(#206f0750ae)"><g clip-path="url(#31e1dda1d6)"><g clip-path="url(#fc7d3c6dbc)"><path fill="#414a1b" d="M 9.976562 29.679688 C 11.238281 27.605469 13.09375 25.878906 14.941406 24.324219 C 15.011719 24.265625 14.933594 24.144531 14.859375 24.203125 C 14.144531 24.804688 13.460938 25.441406 12.789062 26.09375 C 12.207031 26.664062 11.644531 27.253906 11.117188 27.875 C 10.664062 28.40625 10.167969 28.992188 9.902344 29.644531 C 9.882812 29.695312 9.949219 29.726562 9.976562 29.679688 Z M 9.976562 29.679688 " fill-opacity="1" fill-rule="nonzero"/></g></g></g><g clip-path="url(#9c254b3ece)"><g clip-path="url(#8b41f825d0)"><g clip-path="url(#770561e52f)"><path fill="#414a1b" d="M 8.71875 36.722656 C 9.121094 36.296875 9.511719 35.859375 9.898438 35.414062 C 10.351562 34.898438 11.039062 34.292969 11.277344 33.628906 C 11.289062 33.589844 11.238281 33.546875 11.210938 33.585938 C 10.4375 34.671875 9.519531 35.65625 8.636719 36.652344 C 8.589844 36.703125 8.667969 36.773438 8.71875 36.722656 Z M 8.71875 36.722656 " fill-opacity="1" fill-rule="nonzero"/></g></g></g><g clip-path="url(#1ae253e3a2)"><g clip-path="url(#1f8339e11b)"><g clip-path="url(#68427945cd)"><path fill="#f9efe3" d="M 24.9375 30.058594 C 25.0625 30.996094 33.828125 34.652344 34.203125 34.601562 C 34.695312 34.550781 38.488281 26.8125 38.550781 25.734375 C 38.589844 24.820312 29.75 20.953125 29.285156 21.191406 C 28.816406 21.429688 24.910156 29.636719 24.9375 30.058594 Z M 24.9375 30.058594 " fill-opacity="1" fill-rule="nonzero"/></g></g></g><g clip-path="url(#49cff55d0f)"><g clip-path="url(#bacf1fce2b)"><g clip-path="url(#fddf8503f1)"><path fill="#1d0e07" d="M 35.808594 28.675781 C 36.003906 27.5625 35.769531 26.578125 35.195312 25.617188 L 35.144531 25.53125 C 34.46875 24.402344 32.941406 23.652344 31.636719 23.8125 C 31.609375 23.816406 31.585938 23.816406 31.558594 23.820312 C 30.4375 23.957031 29.511719 24.367188 28.742188 25.210938 C 28.011719 26.015625 27.648438 27.140625 27.726562 28.21875 C 27.832031 29.652344 28.710938 30.949219 30 31.582031 C 30.96875 32.058594 32.097656 32.128906 33.117188 31.78125 C 34.480469 31.3125 35.558594 30.105469 35.808594 28.675781 Z M 35.808594 28.675781 " fill-opacity="1" fill-rule="nonzero"/></g></g></g><g clip-path="url(#c342e9c976)"><g clip-path="url(#50c8767612)"><g clip-path="url(#36221921bd)"><path fill="#f9efe3" d="M 31.527344 24.828125 C 32.683594 24.671875 33.824219 25.230469 34.40625 26.242188 C 34.464844 26.347656 34.621094 26.242188 34.5625 26.136719 C 33.949219 25.074219 32.730469 24.476562 31.511719 24.644531 C 31.394531 24.660156 31.40625 24.847656 31.527344 24.828125 Z M 31.527344 24.828125 " fill-opacity="1" fill-rule="nonzero"/></g></g></g><g clip-path="url(#4ac554d841)"><g clip-path="url(#8be48a24c3)"><g clip-path="url(#c328674f13)"><path fill="#f9efe3" d="M 31.59375 25.84375 C 32.394531 25.730469 33.164062 26.105469 33.5625 26.808594 C 33.621094 26.914062 33.777344 26.808594 33.71875 26.703125 C 33.289062 25.949219 32.441406 25.535156 31.582031 25.65625 C 31.464844 25.671875 31.476562 25.859375 31.59375 25.84375 Z M 31.59375 25.84375 " fill-opacity="1" fill-rule="nonzero"/></g></g></g><g clip-path="url(#3e1a682c53)"><g clip-path="url(#fa9a4dd00b)"><g clip-path="url(#ac563a4817)"><path fill="#f9efe3" d="M 31.960938 31.230469 C 30.804688 31.386719 29.664062 30.828125 29.082031 29.816406 C 29.023438 29.714844 28.867188 29.816406 28.925781 29.921875 C 29.539062 30.984375 30.757812 31.582031 31.972656 31.417969 C 32.09375 31.402344 32.082031 31.214844 31.960938 31.230469 Z M 31.960938 31.230469 " fill-opacity="1" fill-rule="nonzero"/></g></g></g><g clip-path="url(#53b7b72420)"><g clip-path="url(#d59603f8d4)"><g clip-path="url(#41121e5347)"><path fill="#f9efe3" d="M 31.890625 30.21875 C 31.09375 30.328125 30.324219 29.953125 29.925781 29.253906 C 29.863281 29.148438 29.710938 29.253906 29.769531 29.355469 C 30.195312 30.113281 31.046875 30.523438 31.90625 30.402344 C 32.023438 30.386719 32.011719 30.199219 31.890625 30.21875 Z M 31.890625 30.21875 " fill-opacity="1" fill-rule="nonzero"/></g></g></g><g clip-path="url(#f298f1642f)"><g clip-path="url(#811e784b24)"><g clip-path="url(#2c1489e8eb)"><path fill="#414a1b" d="M 33.445312 28.207031 C 33.527344 27.753906 33.429688 27.351562 33.195312 26.957031 L 33.175781 26.921875 C 32.898438 26.460938 32.277344 26.15625 31.742188 26.222656 C 31.730469 26.222656 31.71875 26.222656 31.710938 26.226562 C 31.25 26.28125 30.875 26.449219 30.558594 26.792969 C 30.261719 27.121094 30.113281 27.582031 30.144531 28.019531 C 30.1875 28.605469 30.546875 29.136719 31.074219 29.398438 C 31.46875 29.589844 31.929688 29.621094 32.347656 29.476562 C 32.902344 29.285156 33.34375 28.792969 33.445312 28.207031 Z M 33.445312 28.207031 " fill-opacity="1" fill-rule="nonzero"/></g></g></g><g clip-path="url(#643b8b2805)"><g clip-path="url(#b60a022aca)"><g clip-path="url(#5f8863be9f)"><path fill="#ffffff" d="M 26.398438 29.070312 C 27.265625 28.214844 28.082031 27.304688 28.910156 26.414062 C 29.164062 26.144531 29.414062 25.871094 29.667969 25.597656 C 29.632812 25.636719 29.679688 25.605469 29.761719 25.589844 C 29.890625 25.5625 30.023438 25.539062 30.15625 25.511719 C 30.324219 25.480469 30.566406 25.480469 30.710938 25.375 C 30.746094 25.347656 30.734375 25.292969 30.691406 25.28125 C 30.527344 25.242188 30.308594 25.332031 30.144531 25.363281 C 29.992188 25.394531 29.714844 25.390625 29.582031 25.480469 C 29.332031 25.644531 29.121094 25.980469 28.921875 26.195312 C 28.0625 27.136719 27.199219 28.074219 26.34375 29.019531 C 26.308594 29.054688 26.363281 29.101562 26.398438 29.070312 Z M 26.398438 29.070312 " fill-opacity="1" fill-rule="nonzero"/></g></g></g><g clip-path="url(#b0a9bdece5)"><g clip-path="url(#76cae07eec)"><g clip-path="url(#213a66e092)"><path fill="#ffffff" d="M 31.03125 25.527344 C 30.976562 25.605469 29.871094 25.742188 29.789062 25.753906 C 29.703125 25.765625 29.320312 26.089844 29.300781 26.050781 C 29.28125 26.011719 29.15625 25.871094 29.167969 25.777344 C 29.179688 25.679688 29.617188 25.289062 29.695312 25.238281 C 29.769531 25.1875 30.855469 24.972656 30.9375 25.011719 C 31.019531 25.046875 31.085938 25.445312 31.03125 25.527344 Z M 31.03125 25.527344 " fill-opacity="1" fill-rule="nonzero"/></g></g></g><g clip-path="url(#4da9aaae83)"><g clip-path="url(#d1920129f0)"><g clip-path="url(#b843f1c8c2)"><path fill="#ffffff" d="M 26.519531 29.394531 C 26.425781 29.410156 26.058594 29.113281 26.058594 29.003906 C 26.0625 28.894531 27.019531 27.785156 27.121094 27.757812 C 27.222656 27.730469 27.574219 28.035156 27.582031 28.148438 C 27.59375 28.261719 26.617188 29.378906 26.519531 29.394531 Z M 26.519531 29.394531 " fill-opacity="1" fill-rule="nonzero"/></g></g></g><g clip-path="url(#87a08fa26b)"><g clip-path="url(#572a425380)"><g clip-path="url(#7c1e44b620)"><path fill="#1d0e07" d="M 25.253906 36 C 25.445312 34.886719 25.210938 33.902344 24.636719 32.941406 L 24.585938 32.855469 C 23.914062 31.722656 22.386719 30.976562 21.082031 31.136719 C 21.054688 31.140625 21.027344 31.140625 21.003906 31.144531 C 19.882812 31.28125 18.957031 31.691406 18.1875 32.535156 C 17.453125 33.339844 17.089844 34.464844 17.171875 35.539062 C 17.277344 36.976562 18.152344 38.273438 19.445312 38.90625 C 20.414062 39.382812 21.542969 39.453125 22.5625 39.105469 C 23.925781 38.636719 25.003906 37.429688 25.253906 36 Z M 25.253906 36 " fill-opacity="1" fill-rule="nonzero"/></g></g></g><g clip-path="url(#76a1b1ce7b)"><g clip-path="url(#c07c0bdbad)"><g clip-path="url(#34ebbe8b5b)"><path fill="#f9efe3" d="M 20.972656 32.152344 C 22.125 31.996094 23.265625 32.554688 23.847656 33.566406 C 23.910156 33.671875 24.066406 33.566406 24.003906 33.460938 C 23.390625 32.398438 22.175781 31.800781 20.957031 31.964844 C 20.839844 31.984375 20.851562 32.171875 20.972656 32.152344 Z M 20.972656 32.152344 " fill-opacity="1" fill-rule="nonzero"/></g></g></g><g clip-path="url(#2b8704d460)"><g clip-path="url(#1f9d89db2b)"><g clip-path="url(#23fc4a0926)"><path fill="#f9efe3" d="M 21.039062 33.167969 C 21.835938 33.054688 22.609375 33.429688 23.007812 34.128906 C 23.066406 34.234375 23.222656 34.132812 23.164062 34.027344 C 22.734375 33.273438 21.882812 32.859375 21.027344 32.980469 C 20.90625 32.996094 20.917969 33.183594 21.039062 33.167969 Z M 21.039062 33.167969 " fill-opacity="1" fill-rule="nonzero"/></g></g></g><g clip-path="url(#011f00e1b6)"><g clip-path="url(#b2925a119b)"><g clip-path="url(#376521df60)"><path fill="#f9efe3" d="M 21.40625 38.554688 C 20.25 38.710938 19.109375 38.152344 18.527344 37.140625 C 18.464844 37.035156 18.308594 37.140625 18.371094 37.246094 C 18.984375 38.308594 20.203125 38.90625 21.417969 38.742188 C 21.539062 38.722656 21.523438 38.539062 21.40625 38.554688 Z M 21.40625 38.554688 " fill-opacity="1" fill-rule="nonzero"/></g></g></g><g clip-path="url(#676203e385)"><g clip-path="url(#3ec41bfb65)"><g clip-path="url(#a823ae22b6)"><path fill="#f9efe3" d="M 21.335938 37.539062 C 20.539062 37.652344 19.765625 37.277344 19.367188 36.578125 C 19.308594 36.472656 19.152344 36.574219 19.210938 36.679688 C 19.640625 37.433594 20.492188 37.847656 21.347656 37.726562 C 21.46875 37.710938 21.457031 37.523438 21.335938 37.539062 Z M 21.335938 37.539062 " fill-opacity="1" fill-rule="nonzero"/></g></g></g><g clip-path="url(#82ed5ac7ae)"><g clip-path="url(#e844506bd2)"><g clip-path="url(#343807da79)"><path fill="#ffffff" d="M 22.890625 35.53125 C 22.96875 35.078125 22.875 34.675781 22.640625 34.28125 L 22.617188 34.246094 C 22.34375 33.785156 21.71875 33.480469 21.1875 33.542969 C 21.175781 33.546875 21.164062 33.546875 21.152344 33.546875 C 20.695312 33.605469 20.316406 33.773438 20.003906 34.117188 C 19.703125 34.445312 19.554688 34.90625 19.589844 35.34375 C 19.632812 35.929688 19.988281 36.460938 20.519531 36.71875 C 20.914062 36.914062 21.375 36.941406 21.792969 36.800781 C 22.347656 36.609375 22.789062 36.117188 22.890625 35.53125 Z M 22.890625 35.53125 " fill-opacity="1" fill-rule="nonzero"/></g></g></g><g clip-path="url(#94c5d9d430)"><g clip-path="url(#2652ed374c)"><g clip-path="url(#0ac9634e4c)"><path fill="#414a1b" d="M 25.179688 45.613281 C 25.527344 46.324219 33.460938 46.875 33.746094 46.734375 C 34.121094 46.5625 35.058594 39.40625 34.816406 38.535156 C 34.605469 37.796875 26.554688 37.101562 26.25 37.414062 C 25.941406 37.730469 25.042969 45.285156 25.179688 45.613281 Z M 25.179688 45.613281 " fill-opacity="1" fill-rule="nonzero"/></g></g></g><g clip-path="url(#b0be3bdd8a)"><g clip-path="url(#251ae7687d)"><g clip-path="url(#c52894f491)"><path fill="#ffffff" d="M 26.789062 43.066406 C 26.972656 43.832031 34.59375 46.109375 34.902344 46.035156 C 35.308594 45.949219 37.789062 39.171875 37.746094 38.269531 C 37.699219 37.503906 30 35.0625 29.632812 35.300781 C 29.261719 35.539062 26.730469 42.714844 26.789062 43.066406 Z M 26.789062 43.066406 " fill-opacity="1" fill-rule="nonzero"/></g></g></g><g clip-path="url(#8092b5277a)"><g clip-path="url(#55463696a9)"><g clip-path="url(#00e35e2f9b)"><path fill="#f9efe3" d="M 30.675781 36.835938 C 31.089844 38.132812 31.671875 39.382812 32.261719 40.609375 C 32.859375 41.835938 33.464844 43.097656 34.214844 44.238281 C 34.230469 44.261719 34.273438 44.242188 34.261719 44.214844 C 33.699219 42.972656 32.996094 41.789062 32.394531 40.5625 C 31.792969 39.332031 31.277344 38.074219 30.769531 36.800781 C 30.746094 36.742188 30.65625 36.773438 30.675781 36.835938 Z M 30.675781 36.835938 " fill-opacity="1" fill-rule="nonzero"/></g></g></g><g clip-path="url(#5682ed69c8)"><g clip-path="url(#729de74e49)"><g clip-path="url(#73b385fd86)"><path fill="#f9efe3" d="M 32.667969 38.226562 C 33.1875 39.234375 33.332031 40.382812 33.824219 41.390625 C 33.839844 41.421875 33.898438 41.417969 33.890625 41.378906 C 33.679688 40.296875 33.285156 39.140625 32.734375 38.183594 C 32.707031 38.140625 32.644531 38.183594 32.667969 38.226562 Z M 32.667969 38.226562 " fill-opacity="1" fill-rule="nonzero"/></g></g></g><g clip-path="url(#5588d0ee67)"><g clip-path="url(#8353655157)"><g clip-path="url(#87f634ebd7)"><path fill="#414a1b" d="M 15.746094 23.464844 C 15.984375 23.152344 16.375 23.148438 16.660156 22.90625 C 16.789062 22.792969 16.890625 22.617188 16.996094 22.484375 C 17.179688 22.257812 17.402344 22.082031 17.597656 21.871094 C 17.625 21.84375 17.59375 21.789062 17.554688 21.804688 C 17.164062 21.996094 16.898438 22.390625 16.652344 22.734375 C 16.410156 23.070312 15.933594 23.0625 15.6875 23.414062 C 15.660156 23.453125 15.714844 23.503906 15.746094 23.464844 Z M 15.746094 23.464844 " fill-opacity="1" fill-rule="nonzero"/></g></g></g><g clip-path="url(#9c5dfbc867)"><g clip-path="url(#f1b82e431e)"><g clip-path="url(#76b1b1ea85)"><path fill="#ffffff" d="M 32.46875 13.460938 C 32.457031 14.222656 33.519531 14.410156 33.496094 15.167969 C 33.519531 15.144531 33.539062 15.121094 33.5625 15.097656 C 32.871094 15.097656 32.851562 14.371094 32.71875 13.878906 C 32.707031 13.832031 32.640625 13.839844 32.628906 13.886719 C 32.511719 14.476562 32.929688 15.238281 33.570312 15.230469 C 33.609375 15.230469 33.632812 15.195312 33.632812 15.160156 C 33.652344 14.378906 32.597656 14.191406 32.582031 13.453125 C 32.582031 13.378906 32.472656 13.386719 32.46875 13.460938 Z M 32.46875 13.460938 " fill-opacity="1" fill-rule="nonzero"/></g></g></g><g clip-path="url(#f92871a0af)"><g clip-path="url(#3243b4121b)"><g clip-path="url(#db6d5babce)"><path fill="#ffffff" d="M 18.4375 6.339844 C 18.519531 6.160156 18.585938 6.011719 18.78125 5.933594 C 18.953125 5.863281 19.164062 5.890625 19.34375 5.910156 C 19.605469 5.941406 19.945312 6.074219 20.207031 5.980469 C 20.238281 5.96875 20.230469 5.929688 20.203125 5.921875 C 19.859375 5.8125 19.421875 5.769531 19.066406 5.769531 C 18.71875 5.765625 18.402344 5.949219 18.355469 6.3125 C 18.347656 6.363281 18.417969 6.390625 18.4375 6.339844 Z M 18.4375 6.339844 " fill-opacity="1" fill-rule="nonzero"/></g></g></g><g clip-path="url(#7d2230a279)"><g clip-path="url(#ad207b85fc)"><g clip-path="url(#76e5eb35e0)"><path fill="#ffffff" d="M 19.617188 7.171875 C 19.15625 7.761719 17.257812 8.507812 18.1875 9.496094 C 18.214844 9.523438 18.269531 9.488281 18.25 9.453125 C 18.128906 9.179688 18.027344 8.957031 18.15625 8.664062 C 18.269531 8.398438 18.542969 8.199219 18.761719 8.03125 C 19.082031 7.773438 19.4375 7.554688 19.667969 7.203125 C 19.683594 7.175781 19.636719 7.144531 19.617188 7.171875 Z M 19.617188 7.171875 " fill-opacity="1" fill-rule="nonzero"/></g></g></g><g clip-path="url(#cc594a1b40)"><g clip-path="url(#e72813ec85)"><g clip-path="url(#782636c896)"><path fill="#ffffff" d="M 28.933594 6.355469 C 29.0625 6.695312 29.0625 6.988281 28.957031 7.328125 C 28.878906 7.578125 28.714844 7.859375 28.746094 8.125 C 28.746094 8.160156 28.792969 8.167969 28.808594 8.140625 C 28.953125 7.855469 29.042969 7.492188 29.121094 7.183594 C 29.195312 6.882812 29.148438 6.59375 29.007812 6.320312 C 28.984375 6.277344 28.917969 6.3125 28.933594 6.355469 Z M 28.933594 6.355469 " fill-opacity="1" fill-rule="nonzero"/></g></g></g><g clip-path="url(#9721bf5ee3)"><g clip-path="url(#d7f026ed1e)"><g clip-path="url(#ccfba8ac8d)"><path fill="#ffffff" d="M 20.761719 15.089844 C 20.710938 15.082031 20.664062 15.070312 20.617188 15.058594 C 20.609375 15.097656 20.597656 15.140625 20.589844 15.183594 C 20.917969 15.222656 21.25 15.222656 21.582031 15.234375 C 21.992188 15.25 22.386719 15.339844 22.792969 15.367188 C 22.851562 15.371094 22.890625 15.289062 22.828125 15.261719 C 22.191406 14.964844 21.285156 15.066406 20.597656 15.054688 C 20.515625 15.054688 20.527344 15.183594 20.609375 15.183594 C 20.652344 15.1875 20.695312 15.191406 20.742188 15.191406 C 20.804688 15.195312 20.828125 15.101562 20.761719 15.089844 Z M 20.761719 15.089844 " fill-opacity="1" fill-rule="nonzero"/></g></g></g><g clip-path="url(#135629182d)"><g clip-path="url(#077ee6b88f)"><g clip-path="url(#b1698d5a15)"><path fill="#ffffff" d="M 31.652344 9.375 C 31.433594 9.902344 31.675781 10.703125 32.300781 10.800781 C 32.746094 10.871094 33.0625 10.425781 32.738281 10.089844 C 32.699219 10.054688 32.648438 10.078125 32.621094 10.113281 C 32.203125 10.742188 33.007812 11.207031 33.515625 10.785156 C 33.558594 10.75 33.527344 10.691406 33.472656 10.703125 C 33.082031 10.785156 32.339844 10.804688 32.753906 10.179688 C 32.714844 10.183594 32.679688 10.191406 32.640625 10.199219 C 32.738281 10.496094 32.660156 10.648438 32.398438 10.660156 C 32.214844 10.675781 32.058594 10.601562 31.9375 10.441406 C 31.703125 10.164062 31.621094 9.761719 31.746094 9.421875 C 31.765625 9.359375 31.679688 9.3125 31.652344 9.375 Z M 31.652344 9.375 " fill-opacity="1" fill-rule="nonzero"/></g></g></g><g clip-path="url(#24012709cf)"><g clip-path="url(#0dcbecd1fc)"><g clip-path="url(#884bac9ec2)"><path fill="#ffffff" d="M 23.105469 3.878906 C 22.09375 3.054688 21.953125 5.90625 23.097656 5.066406 C 23.128906 5.042969 23.136719 5.003906 23.117188 4.96875 C 22.816406 4.464844 21.761719 5.066406 22.011719 5.53125 C 22.230469 5.921875 23.011719 5.992188 23.402344 5.953125 C 23.460938 5.949219 23.460938 5.871094 23.410156 5.855469 C 23.101562 5.777344 22.785156 5.75 22.484375 5.644531 C 22.375 5.609375 22.183594 5.542969 22.160156 5.410156 C 22.144531 5.328125 22.226562 5.246094 22.277344 5.195312 C 22.4375 5.023438 22.804688 4.78125 23 5.046875 C 23.003906 5.015625 23.011719 4.980469 23.019531 4.949219 C 22.207031 5.65625 22.203125 3.335938 23.035156 3.957031 C 23.089844 3.996094 23.15625 3.921875 23.105469 3.878906 Z M 23.105469 3.878906 " fill-opacity="1" fill-rule="nonzero"/></g></g></g><g clip-path="url(#834aaf3fa1)"><g clip-path="url(#f73fe3a782)"><g clip-path="url(#03d44b38c9)"><path fill="#ffffff" d="M 11.710938 28.601562 C 11.433594 28.738281 10.859375 29.109375 11.183594 29.476562 C 11.460938 29.789062 11.996094 29.722656 12.234375 29.398438 C 12.269531 29.347656 12.253906 29.277344 12.1875 29.261719 C 11.871094 29.191406 11.339844 29.492188 11.601562 29.851562 C 11.734375 30.035156 11.984375 30.007812 12.179688 29.992188 C 12.40625 29.96875 12.777344 29.953125 12.953125 29.792969 C 12.984375 29.765625 12.960938 29.703125 12.917969 29.699219 C 12.707031 29.671875 12.464844 29.769531 12.253906 29.800781 C 12.121094 29.820312 11.984375 29.832031 11.855469 29.8125 C 11.507812 29.765625 11.789062 29.515625 11.859375 29.46875 C 11.949219 29.410156 12.054688 29.402344 12.15625 29.421875 C 12.140625 29.378906 12.125 29.332031 12.109375 29.289062 C 11.945312 29.519531 11.660156 29.574219 11.40625 29.460938 C 10.945312 29.257812 11.578125 28.835938 11.757812 28.699219 C 11.804688 28.664062 11.769531 28.574219 11.710938 28.601562 Z M 11.710938 28.601562 " fill-opacity="1" fill-rule="nonzero"/></g></g></g><g clip-path="url(#87a48f7a31)"><g clip-path="url(#fac3cf81a1)"><g clip-path="url(#61f155b5ad)"><path fill="#ffffff" d="M 9.941406 26.347656 C 9.949219 26.742188 9.648438 27.292969 10.003906 27.605469 C 10.308594 27.871094 10.621094 27.257812 10.71875 27.066406 C 10.738281 27.023438 10.71875 26.980469 10.679688 26.957031 C 10.441406 26.8125 10.285156 27.265625 10.296875 27.441406 C 10.316406 27.773438 10.625 27.878906 10.886719 27.699219 C 10.929688 27.671875 10.90625 27.605469 10.855469 27.605469 C 10.679688 27.617188 10.464844 27.632812 10.480469 27.386719 C 10.484375 27.3125 10.5625 27.082031 10.609375 27.101562 C 10.597656 27.066406 10.585938 27.03125 10.574219 26.996094 C 10.507812 27.132812 10.4375 27.265625 10.34375 27.386719 C 10.171875 27.601562 9.984375 27.453125 9.972656 27.21875 C 9.960938 26.925781 10.0625 26.636719 10.042969 26.339844 C 10.039062 26.277344 9.941406 26.285156 9.941406 26.347656 Z M 9.941406 26.347656 " fill-opacity="1" fill-rule="nonzero"/></g></g></g><g clip-path="url(#71ab8e3109)"><g clip-path="url(#29a13be5c5)"><g clip-path="url(#d118fedb15)"><path fill="#f9efe3" d="M 31.179688 27.375 C 31.222656 27.769531 31.429688 28.25 31.816406 28.414062 C 31.847656 28.429688 31.878906 28.421875 31.902344 28.398438 C 32.101562 28.199219 32.191406 27.921875 32.011719 27.679688 C 31.972656 27.628906 31.886719 27.640625 31.875 27.707031 C 31.765625 28.363281 32.578125 28.054688 32.632812 27.621094 C 32.636719 27.570312 32.570312 27.523438 32.53125 27.574219 C 32.476562 27.648438 32.425781 27.726562 32.363281 27.796875 C 32.238281 27.933594 31.972656 28.035156 32.019531 27.734375 C 31.976562 27.742188 31.929688 27.753906 31.886719 27.761719 C 32.03125 27.953125 31.945312 28.148438 31.792969 28.300781 C 31.824219 28.296875 31.851562 28.289062 31.878906 28.285156 C 31.496094 28.121094 31.421875 27.699219 31.285156 27.351562 C 31.261719 27.296875 31.171875 27.3125 31.179688 27.375 Z M 31.179688 27.375 " fill-opacity="1" fill-rule="nonzero"/></g></g></g><g clip-path="url(#f5480576c5)"><g clip-path="url(#a91e91b0d6)"><g clip-path="url(#42e8f49ee3)"><path fill="#f9efe3" d="M 20.722656 35.25 C 21.054688 35.203125 21 35.5625 21.167969 35.726562 C 21.273438 35.832031 21.445312 35.867188 21.582031 35.789062 C 21.871094 35.617188 21.925781 35.207031 21.6875 34.972656 C 21.644531 34.925781 21.582031 34.964844 21.566406 35.011719 C 21.425781 35.449219 21.984375 35.75 22.277344 35.402344 C 22.304688 35.371094 22.273438 35.335938 22.238281 35.339844 C 21.980469 35.394531 21.613281 35.4375 21.710938 35.039062 C 21.671875 35.054688 21.632812 35.066406 21.589844 35.082031 C 21.738281 35.222656 21.722656 35.4375 21.605469 35.59375 C 21.425781 35.835938 21.222656 35.601562 21.148438 35.414062 C 21.0625 35.199219 20.9375 35.101562 20.703125 35.15625 C 20.652344 35.167969 20.671875 35.253906 20.722656 35.25 Z M 20.722656 35.25 " fill-opacity="1" fill-rule="nonzero"/></g></g></g><g clip-path="url(#58cccdcbb7)"><g clip-path="url(#da5411a4ce)"><g clip-path="url(#7a2344960d)"><path fill="#ffffff" d="M 32.265625 32.878906 C 33.183594 32.863281 33.921875 32.535156 34.433594 31.753906 C 34.460938 31.714844 34.425781 31.65625 34.382812 31.648438 C 33.875 31.5625 33.882812 32.3125 34.324219 32.367188 C 35.160156 32.46875 35.757812 31.339844 35.980469 30.6875 C 36.003906 30.617188 35.917969 30.574219 35.878906 30.636719 C 35.699219 30.910156 35.566406 31.207031 35.394531 31.484375 C 35.285156 31.65625 35.15625 31.8125 35.015625 31.960938 C 34.90625 32.0625 34.785156 32.136719 34.644531 32.1875 C 34.121094 32.414062 34.066406 31.75 34.351562 31.796875 C 34.335938 31.761719 34.316406 31.722656 34.296875 31.6875 C 33.820312 32.421875 33.109375 32.714844 32.257812 32.777344 C 32.191406 32.78125 32.199219 32.878906 32.265625 32.878906 Z M 32.265625 32.878906 " fill-opacity="1" fill-rule="nonzero"/></g></g></g><g clip-path="url(#1e88c116e8)"><g clip-path="url(#cb1f644f31)"><g clip-path="url(#f14f25c3de)"><path fill="#ffffff" d="M 29.074219 23.183594 C 29.507812 22.347656 30.558594 22.707031 31.28125 22.738281 C 31.324219 22.738281 31.324219 22.683594 31.296875 22.667969 C 30.9375 22.445312 30.394531 22.449219 29.988281 22.492188 C 29.558594 22.535156 29.152344 22.722656 28.96875 23.132812 C 28.9375 23.199219 29.039062 23.25 29.074219 23.183594 Z M 29.074219 23.183594 " fill-opacity="1" fill-rule="nonzero"/></g></g></g><g clip-path="url(#8352185d63)"><g clip-path="url(#eca8a0429c)"><g clip-path="url(#ac92fa63ab)"><path fill="#ffffff" d="M 20.894531 22.453125 C 20.535156 22.464844 20.613281 22.820312 20.796875 22.992188 C 21.074219 23.253906 21.578125 23.390625 21.75 23.746094 C 21.789062 23.824219 21.925781 23.8125 21.914062 23.710938 C 21.882812 23.460938 21.53125 23.292969 21.34375 23.171875 C 21.195312 23.074219 21.042969 22.980469 20.910156 22.867188 C 20.738281 22.71875 20.820312 22.667969 20.929688 22.523438 C 20.953125 22.496094 20.933594 22.453125 20.894531 22.453125 Z M 20.894531 22.453125 " fill-opacity="1" fill-rule="nonzero"/></g></g></g><g clip-path="url(#0bb693fa03)"><g clip-path="url(#56f8848c1c)"><g clip-path="url(#a830d81e9b)"><path fill="#ffffff" d="M 15.644531 19.058594 C 15.835938 19.113281 15.992188 19.144531 16.160156 19.257812 C 16.296875 19.347656 16.421875 19.449219 16.550781 19.546875 C 16.597656 19.582031 16.644531 19.566406 16.675781 19.523438 C 16.730469 19.441406 16.785156 19.394531 16.808594 19.296875 C 16.820312 19.253906 16.765625 19.238281 16.738281 19.261719 C 16.675781 19.320312 16.597656 19.363281 16.542969 19.433594 C 16.582031 19.429688 16.617188 19.429688 16.65625 19.425781 C 16.386719 19.230469 16.003906 18.859375 15.636719 18.980469 C 15.59375 18.992188 15.605469 19.050781 15.644531 19.058594 Z M 15.644531 19.058594 " fill-opacity="1" fill-rule="nonzero"/></g></g></g><g clip-path="url(#166c8e903e)"><g clip-path="url(#d2a81e1e57)"><g clip-path="url(#1d6d7e0f85)"><path fill="#ffffff" d="M 23.171875 10.6875 C 23.003906 11.277344 23.390625 11.90625 23.90625 12.183594 C 24.472656 12.484375 25.460938 12.183594 25.953125 11.863281 C 26 11.835938 25.976562 11.757812 25.921875 11.761719 C 25.453125 11.808594 25.027344 12.046875 24.550781 12.097656 C 23.789062 12.179688 23.175781 11.433594 23.242188 10.703125 C 23.246094 10.65625 23.183594 10.644531 23.171875 10.6875 Z M 23.171875 10.6875 " fill-opacity="1" fill-rule="nonzero"/></g></g></g><g clip-path="url(#8bb7383498)"><g clip-path="url(#1cd33ca957)"><g clip-path="url(#fed66f9c23)"><path fill="#ffffff" d="M 17.640625 17.59375 C 18.078125 18.515625 18.058594 19.625 18.847656 20.359375 C 19.21875 20.703125 19.777344 20.835938 20.261719 20.929688 C 20.835938 21.039062 21.453125 21.113281 22.035156 21.074219 C 22.082031 21.070312 22.078125 21.011719 22.039062 21 C 20.984375 20.652344 19.773438 20.941406 18.875 20.136719 C 18.121094 19.460938 18.304688 18.316406 17.710938 17.558594 C 17.683594 17.523438 17.621094 17.550781 17.640625 17.59375 Z M 17.640625 17.59375 " fill-opacity="1" fill-rule="nonzero"/></g></g></g></svg>