<svg xmlns="http://www.w3.org/2000/svg" xmlns:xlink="http://www.w3.org/1999/xlink" width="300" zoomAndPan="magnify" viewBox="0 0 224.87999 195.000001" height="260" preserveAspectRatio="xMidYMid meet" version="1.0"><defs><clipPath id="445412533e"><path d="M 55 0.1875 L 65 0.1875 L 65 12 L 55 12 Z M 55 0.1875 " clip-rule="nonzero"/></clipPath><clipPath id="2a044a675d"><path d="M 79 186 L 123 186 L 123 194.003906 L 79 194.003906 Z M 79 186 " clip-rule="nonzero"/></clipPath></defs><path fill="#848790" d="M 18.3125 33.132812 C 21.839844 35.3125 25.484375 37.28125 29.242188 39.03125 C 32.984375 40.769531 36.816406 42.289062 40.734375 43.589844 C 44.652344 44.886719 48.632812 45.957031 52.671875 46.800781 C 56.730469 47.644531 60.824219 48.25 64.953125 48.617188 C 69.066406 48.988281 73.183594 49.113281 77.308594 48.996094 C 77.816406 48.980469 78.324219 48.960938 78.832031 48.9375 C 79.113281 48.925781 79.078125 48.488281 78.796875 48.5 C 74.671875 48.679688 70.554688 48.613281 66.441406 48.304688 C 62.34375 47.992188 58.28125 47.449219 54.25 46.667969 C 50.214844 45.886719 46.238281 44.878906 42.320312 43.644531 C 38.367188 42.398438 34.5 40.921875 30.71875 39.222656 C 26.96875 37.539062 23.332031 35.640625 19.808594 33.53125 C 19.371094 33.269531 18.9375 33.003906 18.503906 32.738281 C 18.265625 32.589844 18.074219 32.984375 18.3125 33.132812 Z M 18.3125 33.132812 " fill-opacity="1" fill-rule="nonzero"/><path fill="#848790" d="M 18.535156 34.457031 C 16.5 34.007812 13.160156 33.679688 9.800781 35.125 C 8.785156 35.566406 7.726562 35.785156 6.621094 35.785156 C 5.519531 35.785156 4.460938 35.566406 3.445312 35.128906 C 1.640625 34.34375 0.296875 32.957031 1.78125 30.527344 C 3.171875 28.257812 5.808594 27.078125 8.433594 27.5 C 12.160156 28.097656 17.894531 29.496094 19.84375 32.589844 C 20.433594 33.519531 19.609375 34.695312 18.535156 34.457031 Z M 18.535156 34.457031 " fill-opacity="1" fill-rule="nonzero"/><path fill="#848790" d="M 28.175781 37.363281 C 28.109375 35.273438 27.605469 31.949219 25.382812 29.042969 C 24.707031 28.167969 24.234375 27.191406 23.960938 26.121094 C 23.6875 25.046875 23.640625 23.964844 23.8125 22.871094 C 24.128906 20.925781 25.140625 19.28125 27.855469 20.125 C 30.394531 20.914062 32.1875 23.1875 32.425781 25.839844 C 32.761719 29.605469 32.820312 35.515625 30.304688 38.175781 C 29.550781 38.972656 28.210938 38.460938 28.175781 37.363281 Z M 28.175781 37.363281 " fill-opacity="1" fill-rule="nonzero"/><path fill="#848790" d="M 27.296875 39.449219 C 26.3125 41.289062 24.382812 44.039062 21.097656 45.648438 C 20.105469 46.132812 19.25 46.796875 18.527344 47.632812 C 17.808594 48.472656 17.28125 49.417969 16.953125 50.476562 C 16.371094 52.359375 16.546875 54.285156 19.351562 54.738281 C 21.976562 55.164062 24.589844 53.929688 25.984375 51.65625 C 27.957031 48.441406 30.636719 43.171875 29.566406 39.667969 C 29.246094 38.617188 27.816406 38.476562 27.296875 39.449219 Z M 27.296875 39.449219 " fill-opacity="1" fill-rule="nonzero"/><path fill="#848790" d="M 39 41.574219 C 38.898438 39.488281 38.339844 36.175781 36.070312 33.300781 C 35.382812 32.4375 34.894531 31.46875 34.605469 30.402344 C 34.316406 29.335938 34.25 28.253906 34.40625 27.160156 C 34.691406 25.207031 35.675781 23.546875 38.402344 24.347656 C 40.953125 25.097656 42.78125 27.339844 43.0625 29.988281 C 43.460938 33.746094 43.609375 39.65625 41.140625 42.355469 C 40.398438 43.164062 39.050781 42.675781 39 41.574219 Z M 39 41.574219 " fill-opacity="1" fill-rule="nonzero"/><path fill="#848790" d="M 38.152344 43.675781 C 37.195312 45.535156 35.308594 48.3125 32.050781 49.976562 C 31.066406 50.476562 30.21875 51.152344 29.511719 52 C 28.808594 52.851562 28.296875 53.804688 27.984375 54.867188 C 27.433594 56.757812 27.636719 58.679688 30.449219 59.089844 C 33.078125 59.472656 35.675781 58.195312 37.03125 55.90625 C 38.953125 52.65625 41.550781 47.34375 40.425781 43.859375 C 40.085938 42.8125 38.65625 42.699219 38.152344 43.675781 Z M 38.152344 43.675781 " fill-opacity="1" fill-rule="nonzero"/><path fill="#848790" d="M 50.238281 45.015625 C 49.972656 42.941406 49.148438 39.683594 46.65625 37.007812 C 45.902344 36.199219 45.335938 35.277344 44.960938 34.234375 C 44.585938 33.195312 44.433594 32.121094 44.503906 31.015625 C 44.632812 29.050781 45.480469 27.3125 48.261719 27.890625 C 50.863281 28.433594 52.867188 30.523438 53.359375 33.140625 C 54.058594 36.851562 54.683594 42.734375 52.4375 45.621094 C 51.761719 46.484375 50.378906 46.105469 50.238281 45.015625 Z M 50.238281 45.015625 " fill-opacity="1" fill-rule="nonzero"/><path fill="#848790" d="M 49.566406 47.175781 C 48.757812 49.101562 47.105469 52.023438 43.988281 53.945312 C 43.046875 54.523438 42.257812 55.265625 41.621094 56.167969 C 40.984375 57.074219 40.554688 58.066406 40.328125 59.148438 C 39.929688 61.082031 40.289062 62.980469 43.121094 63.160156 C 45.777344 63.332031 48.261719 61.847656 49.429688 59.457031 C 51.085938 56.0625 53.242188 50.558594 51.84375 47.175781 C 51.421875 46.160156 49.988281 46.160156 49.566406 47.175781 Z M 49.566406 47.175781 " fill-opacity="1" fill-rule="nonzero"/><path fill="#848790" d="M 62.96875 10.234375 C 63.40625 13.027344 64.011719 15.78125 64.777344 18.5 C 67.085938 26.703125 70.71875 34.273438 75.664062 41.207031 C 77.296875 43.492188 79.058594 45.675781 80.945312 47.757812 C 81.179688 48.015625 81.414062 48.269531 81.648438 48.519531 C 81.78125 48.660156 81.992188 48.449219 81.859375 48.308594 C 79.941406 46.257812 78.148438 44.097656 76.488281 41.835938 C 74.832031 39.582031 73.3125 37.238281 71.925781 34.808594 C 70.539062 32.378906 69.296875 29.875 68.195312 27.304688 C 67.085938 24.707031 66.132812 22.054688 65.332031 19.347656 C 64.535156 16.664062 63.902344 13.945312 63.425781 11.183594 C 63.367188 10.84375 63.3125 10.503906 63.257812 10.160156 C 63.230469 9.96875 62.941406 10.046875 62.96875 10.234375 Z M 62.96875 10.234375 " fill-opacity="1" fill-rule="nonzero"/><g clip-path="url(#445412533e)"><path fill="#848790" d="M 62.382812 10.9375 C 61.714844 9.6875 60.402344 7.816406 58.167969 6.71875 C 57.492188 6.390625 56.910156 5.941406 56.421875 5.371094 C 55.933594 4.800781 55.574219 4.15625 55.351562 3.4375 C 54.957031 2.15625 55.074219 0.84375 56.980469 0.539062 C 58.769531 0.253906 60.546875 1.089844 61.492188 2.636719 C 62.835938 4.824219 64.65625 8.40625 63.925781 10.792969 C 63.707031 11.507812 62.738281 11.597656 62.382812 10.9375 Z M 62.382812 10.9375 " fill-opacity="1" fill-rule="nonzero"/></g><path fill="#848790" d="M 65.160156 17.207031 C 66.207031 16.25 67.695312 14.515625 68.207031 12.078125 C 68.359375 11.339844 68.652344 10.664062 69.082031 10.046875 C 69.511719 9.433594 70.050781 8.925781 70.6875 8.53125 C 71.832031 7.832031 73.128906 7.625 73.894531 9.402344 C 74.613281 11.066406 74.238281 13 72.976562 14.296875 C 71.1875 16.140625 68.171875 18.789062 65.6875 18.667969 C 64.941406 18.632812 64.609375 17.714844 65.160156 17.207031 Z M 65.160156 17.207031 " fill-opacity="1" fill-rule="nonzero"/><path fill="#848790" d="M 63.699219 17.679688 C 62.3125 17.984375 60.042969 18.207031 57.757812 17.222656 C 57.066406 16.925781 56.347656 16.773438 55.597656 16.773438 C 54.84375 16.773438 54.125 16.921875 53.433594 17.21875 C 52.207031 17.753906 51.292969 18.695312 52.304688 20.347656 C 53.246094 21.890625 55.042969 22.695312 56.828125 22.410156 C 59.359375 22.003906 63.261719 21.054688 64.589844 18.949219 C 64.988281 18.316406 64.425781 17.519531 63.699219 17.679688 Z M 63.699219 17.679688 " fill-opacity="1" fill-rule="nonzero"/><path fill="#848790" d="M 67.789062 24.667969 C 68.820312 23.691406 70.277344 21.9375 70.75 19.488281 C 70.890625 18.75 71.171875 18.070312 71.59375 17.445312 C 72.015625 16.824219 72.542969 16.3125 73.175781 15.90625 C 74.308594 15.191406 75.601562 14.960938 76.394531 16.726562 C 77.140625 18.378906 76.796875 20.316406 75.554688 21.636719 C 73.796875 23.507812 70.820312 26.203125 68.335938 26.121094 C 67.589844 26.097656 67.246094 25.183594 67.789062 24.667969 Z M 67.789062 24.667969 " fill-opacity="1" fill-rule="nonzero"/><path fill="#848790" d="M 66.332031 25.164062 C 64.953125 25.492188 62.683594 25.75 60.386719 24.800781 C 59.691406 24.515625 58.96875 24.375 58.21875 24.386719 C 57.464844 24.398438 56.75 24.558594 56.0625 24.867188 C 54.84375 25.421875 53.945312 26.378906 54.980469 28.011719 C 55.949219 29.542969 57.757812 30.316406 59.539062 30.003906 C 62.0625 29.558594 65.949219 28.546875 67.246094 26.421875 C 67.632812 25.78125 67.058594 24.988281 66.332031 25.164062 Z M 66.332031 25.164062 " fill-opacity="1" fill-rule="nonzero"/><path fill="#848790" d="M 71 32.003906 C 71.949219 30.945312 73.261719 29.078125 73.535156 26.601562 C 73.617188 25.851562 73.84375 25.152344 74.210938 24.496094 C 74.582031 23.84375 75.066406 23.289062 75.664062 22.835938 C 76.734375 22.027344 78.003906 21.699219 78.941406 23.390625 C 79.816406 24.976562 79.625 26.9375 78.496094 28.351562 C 76.894531 30.359375 74.144531 33.289062 71.660156 33.40625 C 70.914062 33.441406 70.5 32.558594 71 32.003906 Z M 71 32.003906 " fill-opacity="1" fill-rule="nonzero"/><path fill="#848790" d="M 69.585938 32.613281 C 68.238281 33.050781 66 33.488281 63.628906 32.730469 C 62.914062 32.5 62.183594 32.421875 61.4375 32.492188 C 60.6875 32.566406 59.988281 32.785156 59.328125 33.144531 C 58.160156 33.796875 57.339844 34.824219 58.5 36.367188 C 59.589844 37.816406 61.453125 38.441406 63.203125 37.984375 C 65.6875 37.335938 69.476562 36.015625 70.597656 33.789062 C 70.933594 33.121094 70.296875 32.382812 69.585938 32.613281 Z M 69.585938 32.613281 " fill-opacity="1" fill-rule="nonzero"/><path fill="#ece6d9" d="M 100.722656 170.082031 C 88.640625 171.449219 75.578125 167.980469 67.367188 158.988281 C 59.160156 150 57.195312 135.125 64.582031 125.445312 C 67.402344 121.746094 71.441406 118.792969 72.9375 114.382812 C 75.117188 107.957031 71.152344 101.285156 68.488281 95.042969 C 61.226562 77.996094 63.757812 57.417969 73.949219 41.949219 C 84.144531 26.480469 101.4375 16.222656 119.730469 13.460938 C 124.976562 12.667969 130.574219 12.507812 135.347656 14.828125 C 141.21875 17.691406 144.792969 23.78125 147.292969 29.824219 C 149.796875 35.867188 151.636719 42.316406 155.550781 47.554688 C 160.996094 54.839844 169.757812 58.835938 178.457031 61.445312 C 187.152344 64.058594 196.230469 65.59375 204.492188 69.371094 C 212.753906 73.148438 220.382812 79.757812 222.453125 88.617188 C 224.148438 95.863281 221.890625 103.488281 218.554688 110.140625 C 214.027344 119.179688 207.300781 127.316406 198.515625 132.292969 C 188.542969 137.941406 176.785156 139.160156 165.5625 141.464844 C 156.171875 143.394531 147.207031 146.460938 139.769531 152.679688 C 133.453125 157.957031 125.183594 162.179688 117.65625 165.417969 C 112.261719 167.738281 106.570312 169.421875 100.722656 170.082031 Z M 100.722656 170.082031 " fill-opacity="1" fill-rule="nonzero"/><g clip-path="url(#2a044a675d)"><path fill="#c7c2b7" d="M 122.921875 190.289062 C 122.921875 190.539062 122.785156 190.789062 122.511719 191.035156 C 122.234375 191.28125 121.828125 191.523438 121.289062 191.753906 C 120.746094 191.988281 120.085938 192.210938 119.300781 192.417969 C 118.515625 192.628906 117.625 192.820312 116.628906 193 C 115.632812 193.179688 114.546875 193.335938 113.371094 193.476562 C 112.199219 193.617188 110.960938 193.734375 109.65625 193.832031 C 108.355469 193.929688 107.011719 194 105.625 194.050781 C 104.242188 194.101562 102.84375 194.125 101.433594 194.125 C 100.023438 194.125 98.625 194.101562 97.242188 194.050781 C 95.859375 194 94.515625 193.929688 93.210938 193.832031 C 91.90625 193.734375 90.667969 193.617188 89.496094 193.476562 C 88.324219 193.335938 87.238281 193.179688 86.238281 193 C 85.242188 192.820312 84.351562 192.628906 83.566406 192.417969 C 82.785156 192.210938 82.121094 191.988281 81.582031 191.753906 C 81.042969 191.523438 80.632812 191.28125 80.359375 191.035156 C 80.082031 190.789062 79.945312 190.539062 79.945312 190.289062 C 79.945312 190.035156 80.082031 189.785156 80.359375 189.539062 C 80.632812 189.292969 81.042969 189.050781 81.582031 188.820312 C 82.121094 188.585938 82.785156 188.363281 83.566406 188.15625 C 84.351562 187.945312 85.242188 187.753906 86.238281 187.574219 C 87.238281 187.394531 88.324219 187.238281 89.496094 187.097656 C 90.667969 186.957031 91.90625 186.839844 93.210938 186.742188 C 94.515625 186.644531 95.859375 186.574219 97.242188 186.523438 C 98.625 186.476562 100.023438 186.449219 101.433594 186.449219 C 102.84375 186.449219 104.242188 186.476562 105.625 186.523438 C 107.011719 186.574219 108.355469 186.644531 109.65625 186.742188 C 110.960938 186.839844 112.199219 186.957031 113.371094 187.097656 C 114.546875 187.238281 115.632812 187.394531 116.628906 187.574219 C 117.625 187.753906 118.515625 187.945312 119.300781 188.15625 C 120.085938 188.363281 120.746094 188.585938 121.289062 188.820312 C 121.828125 189.050781 122.234375 189.292969 122.511719 189.539062 C 122.785156 189.785156 122.921875 190.035156 122.921875 190.289062 Z M 122.921875 190.289062 " fill-opacity="1" fill-rule="nonzero"/></g><path fill="#1e263b" d="M 107.0625 99.644531 C 106.761719 103.199219 109.089844 106.289062 111.625 108.503906 C 113.050781 109.75 114.605469 110.839844 116.078125 112.027344 C 117.472656 113.136719 118.742188 114.375 119.894531 115.738281 C 122.140625 118.425781 123.847656 121.550781 125.015625 124.851562 C 126.332031 128.578125 126.945312 132.53125 127.027344 136.480469 C 127.0625 138.46875 126.976562 140.449219 126.769531 142.425781 C 126.578125 144.285156 126.328125 146.191406 126.695312 148.042969 C 126.785156 148.503906 126.917969 148.957031 127.089844 149.394531 C 127.125 149.484375 127.273438 149.445312 127.238281 149.351562 C 126.519531 147.542969 126.613281 145.578125 126.792969 143.679688 C 126.984375 141.71875 127.171875 139.769531 127.1875 137.800781 C 127.222656 133.847656 126.742188 129.871094 125.582031 126.089844 C 124.574219 122.800781 123.042969 119.65625 120.992188 116.890625 C 119.980469 115.519531 118.847656 114.261719 117.585938 113.109375 C 116.191406 111.839844 114.652344 110.746094 113.167969 109.578125 C 110.417969 107.414062 107.558594 104.628906 107.21875 100.933594 C 107.179688 100.503906 107.179688 100.074219 107.21875 99.644531 C 107.226562 99.546875 107.074219 99.546875 107.0625 99.644531 Z M 107.0625 99.644531 " fill-opacity="1" fill-rule="nonzero"/><path fill="#1e263b" d="M 117.101562 75.132812 C 116.078125 80.203125 117.992188 85.203125 119.910156 89.8125 C 120.882812 92.15625 121.882812 94.496094 122.5625 96.945312 C 122.921875 98.21875 123.171875 99.515625 123.300781 100.832031 C 123.429688 102.179688 123.421875 103.539062 123.398438 104.890625 C 123.34375 107.5 123.238281 110.121094 123.789062 112.6875 C 124.304688 115.085938 125.269531 117.351562 126.261719 119.582031 C 127.285156 121.875 128.332031 124.160156 129.0625 126.566406 C 129.789062 128.960938 130.261719 131.40625 130.472656 133.902344 C 130.902344 138.859375 130.3125 143.90625 128.714844 148.617188 C 128.515625 149.207031 128.300781 149.789062 128.070312 150.363281 C 128.03125 150.453125 128.179688 150.496094 128.21875 150.402344 C 130.03125 145.847656 130.882812 140.925781 130.75 136.023438 C 130.683594 133.597656 130.375 131.199219 129.828125 128.832031 C 129.273438 126.441406 128.441406 124.144531 127.460938 121.894531 C 126.457031 119.597656 125.351562 117.332031 124.566406 114.945312 C 124.171875 113.742188 123.863281 112.515625 123.691406 111.257812 C 123.511719 109.894531 123.488281 108.519531 123.503906 107.144531 C 123.535156 104.523438 123.695312 101.894531 123.25 99.296875 C 122.824219 96.796875 121.953125 94.402344 121.003906 92.0625 C 119.085938 87.328125 116.699219 82.449219 116.992188 77.199219 C 117.027344 76.515625 117.117188 75.84375 117.253906 75.175781 C 117.269531 75.082031 117.125 75.039062 117.105469 75.136719 Z M 117.101562 75.132812 " fill-opacity="1" fill-rule="nonzero"/><path fill="#1e263b" d="M 136.976562 84.351562 C 135.679688 88.734375 133.667969 92.84375 131.753906 96.976562 C 129.886719 101.015625 128.085938 105.140625 127.214844 109.527344 C 126.28125 114.214844 126.683594 118.976562 127.152344 123.695312 C 127.628906 128.46875 128.179688 133.351562 127.246094 138.105469 C 127.015625 139.292969 126.667969 140.445312 126.289062 141.59375 C 125.910156 142.746094 125.527344 143.914062 125.359375 145.121094 C 125.121094 146.867188 125.429688 148.847656 126.707031 150.148438 C 127.007812 150.457031 127.351562 150.703125 127.734375 150.894531 C 127.824219 150.9375 127.902344 150.804688 127.8125 150.761719 C 126.054688 149.886719 125.359375 147.789062 125.433594 145.933594 C 125.535156 143.519531 126.675781 141.285156 127.21875 138.960938 C 128.289062 134.386719 127.894531 129.648438 127.4375 125.023438 C 126.972656 120.296875 126.40625 115.507812 127.144531 110.78125 C 127.832031 106.378906 129.53125 102.21875 131.367188 98.1875 C 133.207031 94.148438 135.214844 90.167969 136.632812 85.953125 C 136.808594 85.4375 136.972656 84.917969 137.125 84.394531 C 137.152344 84.296875 137.003906 84.257812 136.976562 84.351562 Z M 136.976562 84.351562 " fill-opacity="1" fill-rule="nonzero"/><path fill="#1e263b" d="M 126.441406 109.726562 C 126.976562 112.253906 128.714844 114.242188 130.191406 116.277344 C 130.980469 117.371094 131.703125 118.507812 132.210938 119.761719 C 132.722656 121.058594 133.042969 122.402344 133.175781 123.789062 C 133.457031 126.605469 133.058594 129.457031 132.367188 132.1875 C 131.636719 135.085938 130.535156 137.871094 129.539062 140.683594 C 128.542969 143.511719 127.621094 146.390625 127.246094 149.375 C 127.203125 149.746094 127.164062 150.113281 127.136719 150.484375 C 127.128906 150.582031 127.28125 150.582031 127.289062 150.484375 C 127.527344 147.433594 128.386719 144.484375 129.382812 141.605469 C 130.363281 138.765625 131.488281 135.96875 132.292969 133.066406 C 133.046875 130.355469 133.535156 127.523438 133.398438 124.703125 C 133.332031 123.347656 133.117188 122 132.710938 120.703125 C 132.308594 119.433594 131.714844 118.246094 130.980469 117.140625 C 129.558594 114.996094 127.667969 113.070312 126.835938 110.585938 C 126.734375 110.292969 126.652344 109.992188 126.589844 109.6875 C 126.570312 109.589844 126.421875 109.628906 126.441406 109.726562 Z M 126.441406 109.726562 " fill-opacity="1" fill-rule="nonzero"/><path fill="#ada99f" d="M 145.390625 3.539062 C 144.902344 3.539062 144.433594 3.632812 143.984375 3.820312 C 143.53125 4.007812 143.132812 4.273438 142.789062 4.621094 C 142.445312 4.964844 142.179688 5.363281 141.992188 5.816406 C 141.804688 6.269531 141.710938 6.738281 141.710938 7.226562 C 141.710938 7.714844 141.804688 8.1875 141.992188 8.636719 C 142.179688 9.089844 142.445312 9.488281 142.789062 9.835938 C 143.132812 10.179688 143.53125 10.445312 143.984375 10.632812 C 144.433594 10.820312 144.902344 10.914062 145.390625 10.914062 C 145.878906 10.914062 146.347656 10.820312 146.800781 10.632812 C 147.25 10.445312 147.648438 10.179688 147.992188 9.832031 C 148.339844 9.488281 148.605469 9.089844 148.792969 8.636719 C 148.976562 8.1875 149.070312 7.714844 149.070312 7.226562 C 149.070312 6.738281 148.976562 6.269531 148.792969 5.816406 C 148.605469 5.363281 148.339844 4.964844 147.992188 4.621094 C 147.648438 4.273438 147.25 4.007812 146.800781 3.820312 C 146.347656 3.632812 145.878906 3.539062 145.390625 3.539062 Z M 145.390625 10.5625 C 144.949219 10.5625 144.523438 10.476562 144.117188 10.308594 C 143.707031 10.140625 143.347656 9.898438 143.035156 9.585938 C 142.722656 9.273438 142.484375 8.910156 142.3125 8.503906 C 142.144531 8.09375 142.0625 7.667969 142.0625 7.226562 C 142.0625 6.785156 142.144531 6.359375 142.3125 5.949219 C 142.484375 5.539062 142.722656 5.179688 143.035156 4.867188 C 143.347656 4.554688 143.707031 4.3125 144.117188 4.144531 C 144.523438 3.972656 144.949219 3.890625 145.390625 3.890625 C 145.832031 3.890625 146.257812 3.972656 146.664062 4.144531 C 147.074219 4.3125 147.433594 4.554688 147.746094 4.867188 C 148.058594 5.179688 148.296875 5.539062 148.46875 5.949219 C 148.636719 6.359375 148.722656 6.785156 148.722656 7.226562 C 148.722656 7.667969 148.636719 8.09375 148.46875 8.503906 C 148.296875 8.910156 148.058594 9.273438 147.746094 9.585938 C 147.433594 9.898438 147.074219 10.140625 146.664062 10.308594 C 146.257812 10.476562 145.832031 10.5625 145.390625 10.5625 Z M 145.390625 10.5625 " fill-opacity="1" fill-rule="nonzero"/><path fill="#ada99f" d="M 169.382812 147.9375 C 169.050781 147.9375 168.71875 147.96875 168.394531 148.035156 C 168.066406 148.101562 167.75 148.195312 167.445312 148.324219 C 167.136719 148.453125 166.847656 148.605469 166.570312 148.792969 C 166.292969 148.976562 166.039062 149.1875 165.804688 149.421875 C 165.566406 149.65625 165.359375 149.914062 165.175781 150.191406 C 164.988281 150.46875 164.832031 150.761719 164.707031 151.066406 C 164.578125 151.375 164.484375 151.691406 164.417969 152.019531 C 164.355469 152.34375 164.320312 152.675781 164.320312 153.007812 C 164.320312 153.339844 164.355469 153.671875 164.417969 153.996094 C 164.484375 154.324219 164.578125 154.640625 164.707031 154.949219 C 164.832031 155.253906 164.988281 155.546875 165.175781 155.824219 C 165.359375 156.101562 165.566406 156.355469 165.804688 156.59375 C 166.039062 156.828125 166.292969 157.039062 166.570312 157.222656 C 166.847656 157.40625 167.136719 157.5625 167.445312 157.691406 C 167.75 157.820312 168.066406 157.914062 168.394531 157.980469 C 168.71875 158.042969 169.050781 158.078125 169.382812 158.078125 C 169.714844 158.078125 170.042969 158.042969 170.367188 157.980469 C 170.695312 157.914062 171.011719 157.820312 171.316406 157.691406 C 171.625 157.5625 171.917969 157.40625 172.191406 157.222656 C 172.46875 157.039062 172.722656 156.828125 172.960938 156.59375 C 173.195312 156.355469 173.402344 156.101562 173.589844 155.824219 C 173.773438 155.546875 173.929688 155.253906 174.054688 154.949219 C 174.183594 154.640625 174.277344 154.324219 174.34375 153.996094 C 174.410156 153.671875 174.441406 153.339844 174.441406 153.007812 C 174.441406 152.675781 174.410156 152.34375 174.34375 152.019531 C 174.277344 151.691406 174.183594 151.375 174.054688 151.066406 C 173.929688 150.761719 173.773438 150.46875 173.589844 150.191406 C 173.402344 149.914062 173.195312 149.65625 172.960938 149.421875 C 172.722656 149.1875 172.46875 148.976562 172.191406 148.792969 C 171.917969 148.605469 171.625 148.449219 171.316406 148.324219 C 171.011719 148.195312 170.695312 148.101562 170.367188 148.035156 C 170.042969 147.96875 169.714844 147.9375 169.382812 147.9375 Z M 169.382812 157.59375 C 169.082031 157.59375 168.78125 157.566406 168.488281 157.503906 C 168.191406 157.445312 167.90625 157.359375 167.628906 157.246094 C 167.351562 157.128906 167.085938 156.988281 166.835938 156.820312 C 166.585938 156.652344 166.355469 156.464844 166.144531 156.25 C 165.929688 156.039062 165.742188 155.804688 165.574219 155.554688 C 165.40625 155.304688 165.265625 155.039062 165.152344 154.761719 C 165.035156 154.484375 164.949219 154.195312 164.890625 153.902344 C 164.832031 153.605469 164.804688 153.308594 164.804688 153.007812 C 164.804688 152.707031 164.832031 152.40625 164.890625 152.113281 C 164.949219 151.816406 165.035156 151.53125 165.152344 151.25 C 165.265625 150.972656 165.40625 150.710938 165.574219 150.457031 C 165.742188 150.207031 165.933594 149.976562 166.144531 149.761719 C 166.355469 149.550781 166.589844 149.359375 166.839844 149.191406 C 167.089844 149.027344 167.351562 148.882812 167.628906 148.769531 C 167.90625 148.652344 168.195312 148.566406 168.488281 148.507812 C 168.785156 148.449219 169.082031 148.421875 169.382812 148.421875 C 169.683594 148.421875 169.980469 148.449219 170.273438 148.507812 C 170.570312 148.566406 170.855469 148.652344 171.132812 148.769531 C 171.410156 148.886719 171.675781 149.027344 171.925781 149.195312 C 172.175781 149.359375 172.40625 149.550781 172.617188 149.765625 C 172.832031 149.976562 173.019531 150.207031 173.1875 150.460938 C 173.355469 150.710938 173.496094 150.972656 173.609375 151.253906 C 173.726562 151.53125 173.8125 151.816406 173.871094 152.113281 C 173.929688 152.40625 173.960938 152.707031 173.960938 153.007812 C 173.960938 153.308594 173.929688 153.605469 173.871094 153.902344 C 173.8125 154.199219 173.726562 154.484375 173.609375 154.761719 C 173.496094 155.039062 173.355469 155.304688 173.1875 155.554688 C 173.019531 155.804688 172.832031 156.039062 172.617188 156.25 C 172.40625 156.464844 172.175781 156.652344 171.925781 156.820312 C 171.675781 156.988281 171.410156 157.128906 171.132812 157.246094 C 170.855469 157.359375 170.570312 157.445312 170.273438 157.503906 C 169.980469 157.566406 169.683594 157.59375 169.382812 157.59375 Z M 169.382812 157.59375 " fill-opacity="1" fill-rule="nonzero"/><path fill="#ada99f" d="M 50.425781 106.144531 C 49.980469 106.144531 49.542969 106.1875 49.105469 106.277344 C 48.671875 106.363281 48.25 106.492188 47.839844 106.660156 C 47.429688 106.832031 47.039062 107.039062 46.667969 107.289062 C 46.300781 107.535156 45.957031 107.816406 45.644531 108.128906 C 45.332031 108.445312 45.050781 108.785156 44.804688 109.15625 C 44.558594 109.527344 44.347656 109.917969 44.179688 110.328125 C 44.011719 110.738281 43.882812 111.164062 43.796875 111.597656 C 43.707031 112.035156 43.664062 112.476562 43.664062 112.921875 C 43.664062 113.363281 43.707031 113.804688 43.796875 114.242188 C 43.882812 114.679688 44.011719 115.101562 44.179688 115.511719 C 44.351562 115.921875 44.558594 116.3125 44.804688 116.683594 C 45.050781 117.054688 45.332031 117.394531 45.644531 117.710938 C 45.960938 118.023438 46.300781 118.304688 46.671875 118.550781 C 47.039062 118.800781 47.429688 119.007812 47.839844 119.179688 C 48.25 119.347656 48.671875 119.476562 49.109375 119.5625 C 49.542969 119.648438 49.984375 119.695312 50.425781 119.695312 C 50.871094 119.695312 51.3125 119.648438 51.746094 119.5625 C 52.179688 119.476562 52.605469 119.347656 53.015625 119.175781 C 53.425781 119.007812 53.8125 118.796875 54.183594 118.550781 C 54.550781 118.304688 54.894531 118.023438 55.207031 117.710938 C 55.523438 117.394531 55.800781 117.050781 56.046875 116.683594 C 56.296875 116.3125 56.503906 115.921875 56.671875 115.511719 C 56.84375 115.101562 56.972656 114.675781 57.058594 114.242188 C 57.144531 113.804688 57.1875 113.363281 57.1875 112.917969 C 57.1875 112.472656 57.144531 112.035156 57.058594 111.597656 C 56.972656 111.160156 56.84375 110.738281 56.671875 110.328125 C 56.503906 109.914062 56.292969 109.523438 56.046875 109.15625 C 55.800781 108.785156 55.519531 108.445312 55.207031 108.128906 C 54.894531 107.8125 54.550781 107.535156 54.183594 107.285156 C 53.8125 107.039062 53.421875 106.832031 53.011719 106.660156 C 52.601562 106.492188 52.179688 106.363281 51.746094 106.273438 C 51.308594 106.1875 50.871094 106.144531 50.425781 106.144531 Z M 50.425781 119.046875 C 50.023438 119.046875 49.625 119.007812 49.230469 118.929688 C 48.839844 118.851562 48.457031 118.734375 48.085938 118.582031 C 47.714844 118.425781 47.359375 118.238281 47.027344 118.015625 C 46.691406 117.792969 46.382812 117.539062 46.101562 117.253906 C 45.816406 116.96875 45.5625 116.660156 45.339844 116.324219 C 45.117188 115.988281 44.929688 115.636719 44.773438 115.265625 C 44.621094 114.890625 44.503906 114.507812 44.425781 114.113281 C 44.347656 113.71875 44.308594 113.320312 44.308594 112.917969 C 44.308594 112.515625 44.347656 112.117188 44.425781 111.722656 C 44.503906 111.328125 44.621094 110.945312 44.773438 110.574219 C 44.929688 110.203125 45.117188 109.847656 45.339844 109.515625 C 45.5625 109.179688 45.816406 108.871094 46.101562 108.585938 C 46.382812 108.300781 46.691406 108.046875 47.027344 107.824219 C 47.359375 107.597656 47.714844 107.410156 48.085938 107.257812 C 48.457031 107.101562 48.839844 106.988281 49.230469 106.90625 C 49.625 106.828125 50.023438 106.789062 50.425781 106.789062 C 50.828125 106.789062 51.226562 106.828125 51.617188 106.90625 C 52.011719 106.988281 52.394531 107.101562 52.765625 107.257812 C 53.136719 107.410156 53.488281 107.597656 53.824219 107.824219 C 54.15625 108.046875 54.46875 108.300781 54.75 108.585938 C 55.035156 108.871094 55.289062 109.179688 55.511719 109.515625 C 55.734375 109.847656 55.921875 110.203125 56.078125 110.574219 C 56.230469 110.945312 56.347656 111.328125 56.425781 111.722656 C 56.503906 112.117188 56.542969 112.515625 56.542969 112.917969 C 56.542969 113.320312 56.503906 113.71875 56.425781 114.113281 C 56.347656 114.507812 56.230469 114.890625 56.078125 115.265625 C 55.921875 115.636719 55.734375 115.988281 55.511719 116.324219 C 55.289062 116.660156 55.035156 116.96875 54.75 117.253906 C 54.46875 117.539062 54.15625 117.792969 53.824219 118.015625 C 53.488281 118.238281 53.136719 118.425781 52.765625 118.582031 C 52.394531 118.734375 52.011719 118.851562 51.617188 118.929688 C 51.226562 119.007812 50.828125 119.046875 50.425781 119.046875 Z M 50.425781 119.046875 " fill-opacity="1" fill-rule="nonzero"/><path fill="#e59073" d="M 124.355469 131.660156 C 124.355469 131.660156 123.113281 129.664062 126.867188 127.890625 C 127.449219 127.613281 128.09375 128.140625 127.9375 128.765625 C 127.496094 130.539062 126.917969 132.71875 124.355469 131.660156 Z M 124.355469 131.660156 " fill-opacity="1" fill-rule="nonzero"/><path fill="#e59073" d="M 105.191406 189.785156 L 106.699219 189.792969 L 106.6875 187.042969 L 105.203125 188.019531 Z M 105.191406 189.785156 " fill-opacity="1" fill-rule="nonzero"/><path fill="#423e57" d="M 107.351562 189.351562 C 107.695312 190.132812 108.894531 190.773438 110.074219 191.414062 C 110.222656 191.53125 110.261719 191.675781 110.191406 191.851562 C 110.125 192.027344 109.996094 192.109375 109.808594 192.09375 L 104.71875 191.585938 C 104.621094 191.578125 104.542969 191.535156 104.484375 191.460938 C 104.421875 191.382812 104.398438 191.300781 104.410156 191.203125 L 104.660156 189.191406 C 104.671875 189.097656 104.71875 189.035156 104.804688 189.003906 C 104.894531 188.96875 104.972656 188.984375 105.039062 189.046875 C 105.429688 189.378906 106.15625 189.777344 107.117188 189.324219 C 107.199219 189.289062 107.277344 189.296875 107.351562 189.351562 Z M 107.351562 189.351562 " fill-opacity="1" fill-rule="nonzero"/><path fill="#e59073" d="M 89.851562 186.710938 L 91.117188 187.527344 L 92.582031 185.203125 L 90.804688 185.226562 Z M 89.851562 186.710938 " fill-opacity="1" fill-rule="nonzero"/><path fill="#423e57" d="M 91.753906 187.371094 C 91.753906 188.226562 92.589844 189.296875 93.410156 190.363281 C 93.496094 190.53125 93.472656 190.679688 93.339844 190.8125 C 93.207031 190.945312 93.054688 190.96875 92.890625 190.878906 L 88.445312 188.34375 C 88.359375 188.296875 88.304688 188.222656 88.28125 188.132812 C 88.257812 188.039062 88.269531 187.949219 88.320312 187.867188 L 89.363281 186.128906 C 89.410156 186.050781 89.480469 186.011719 89.570312 186.015625 C 89.664062 186.023438 89.730469 186.066406 89.769531 186.148438 C 89.988281 186.609375 90.492188 187.269531 91.554688 187.25 C 91.644531 187.25 91.710938 187.289062 91.753906 187.371094 Z M 91.753906 187.371094 " fill-opacity="1" fill-rule="nonzero"/><path fill="#312e40" d="M 112.644531 151.339844 C 112.644531 151.339844 114.875 158.574219 109.511719 187.292969 C 109.476562 187.476562 109.410156 187.648438 109.316406 187.808594 C 109.21875 187.96875 109.097656 188.105469 108.953125 188.222656 C 108.808594 188.339844 108.648438 188.425781 108.46875 188.484375 C 108.292969 188.539062 108.113281 188.566406 107.925781 188.558594 L 104.355469 188.410156 C 104.144531 188.402344 103.945312 188.351562 103.757812 188.261719 C 103.566406 188.171875 103.402344 188.046875 103.261719 187.890625 C 103.125 187.730469 103.019531 187.554688 102.953125 187.355469 C 102.886719 187.15625 102.863281 186.949219 102.878906 186.742188 C 103.128906 183.5 103.835938 176.164062 105.3125 172.585938 C 105.503906 172.128906 105.582031 171.65625 105.542969 171.164062 L 104.660156 160.421875 L 102.058594 172.929688 C 101.992188 173.265625 101.867188 173.582031 101.6875 173.871094 L 94.273438 186.097656 C 94.175781 186.257812 94.054688 186.394531 93.90625 186.511719 C 93.757812 186.628906 93.59375 186.714844 93.414062 186.769531 C 93.238281 186.828125 93.054688 186.851562 92.867188 186.839844 C 92.679688 186.828125 92.5 186.785156 92.328125 186.710938 L 90.207031 185.773438 C 90.035156 185.695312 89.882812 185.59375 89.75 185.460938 C 89.613281 185.328125 89.507812 185.175781 89.429688 185.003906 C 89.347656 184.832031 89.304688 184.652344 89.289062 184.464844 C 89.277344 184.273438 89.296875 184.089844 89.351562 183.910156 C 90.277344 180.828125 92.773438 173.144531 95.578125 169.605469 C 95.957031 169.125 96.164062 168.582031 96.203125 167.96875 C 96.4375 164.472656 97.292969 152.785156 98.441406 150.257812 Z M 112.644531 151.339844 " fill-opacity="1" fill-rule="nonzero"/><path fill="#fbc669" d="M 112.710938 131.824219 L 119.140625 135.503906 C 119.332031 135.613281 119.53125 135.644531 119.746094 135.59375 C 119.960938 135.546875 120.128906 135.429688 120.253906 135.25 L 123.289062 130.839844 C 123.453125 130.601562 123.675781 130.457031 123.953125 130.398438 C 124.234375 130.339844 124.496094 130.386719 124.738281 130.539062 L 126.195312 131.449219 C 126.320312 131.527344 126.421875 131.621094 126.503906 131.738281 C 126.585938 131.859375 126.644531 131.984375 126.675781 132.125 C 126.707031 132.265625 126.710938 132.40625 126.683594 132.546875 C 126.660156 132.691406 126.609375 132.820312 126.53125 132.941406 L 123.308594 137.953125 C 123.050781 138.351562 122.757812 138.722656 122.429688 139.066406 C 122.101562 139.40625 121.742188 139.714844 121.351562 139.984375 C 120.960938 140.257812 120.550781 140.488281 120.113281 140.679688 C 119.679688 140.871094 119.230469 141.015625 118.765625 141.117188 C 118.304688 141.222656 117.835938 141.277344 117.359375 141.289062 C 116.886719 141.296875 116.414062 141.261719 115.949219 141.179688 C 115.480469 141.097656 115.027344 140.96875 114.582031 140.796875 C 114.140625 140.628906 113.71875 140.414062 113.316406 140.160156 C 113.316406 140.160156 113.921875 145.746094 114.085938 149.894531 C 114.097656 150.164062 114.0625 150.425781 113.976562 150.683594 C 113.894531 150.9375 113.769531 151.171875 113.601562 151.382812 C 113.433594 151.59375 113.234375 151.769531 113.003906 151.910156 C 112.773438 152.050781 112.523438 152.144531 112.261719 152.195312 C 109.570312 152.714844 104.324219 153.292969 98.789062 151.484375 C 98.339844 151.335938 97.972656 151.074219 97.6875 150.699219 C 97.402344 150.320312 97.25 149.898438 97.230469 149.425781 L 97.085938 145.648438 C 97.085938 145.648438 95.132812 145.648438 93.835938 143.5625 C 93.523438 143.0625 93.363281 142.515625 93.347656 141.925781 C 93.335938 141.332031 93.472656 140.78125 93.761719 140.265625 L 98.28125 132.203125 C 99.21875 130.535156 100.128906 129.855469 101.191406 129.613281 L 103.1875 129.160156 C 103.71875 129.039062 104.257812 128.976562 104.804688 128.976562 L 105.730469 128.976562 C 107.003906 128.976562 108.191406 129.289062 109.300781 129.910156 Z M 112.710938 131.824219 " fill-opacity="1" fill-rule="nonzero"/><path fill="#c99f54" d="M 112.535156 139.738281 C 111.3125 138.855469 110.476562 137.691406 110.035156 136.246094 C 109.9375 135.921875 110.441406 135.785156 110.539062 136.109375 C 110.941406 137.417969 111.695312 138.480469 112.800781 139.285156 C 112.917969 139.367188 112.972656 139.515625 112.898438 139.644531 C 112.832031 139.757812 112.652344 139.824219 112.539062 139.742188 Z M 112.535156 139.738281 " fill-opacity="1" fill-rule="nonzero"/><path fill="#292e47" d="M 106.621094 123.191406 C 106.621094 123.191406 106.96875 117.316406 99.34375 120.808594 C 99.34375 120.808594 92.660156 120.070312 93.4375 127.097656 C 93.4375 127.097656 88.257812 129.488281 89.40625 132.425781 C 89.816406 133.441406 89.988281 134.5 89.925781 135.59375 C 89.828125 137.128906 90.335938 139.011719 93.519531 138.765625 C 93.519531 138.765625 97.175781 143.589844 101.410156 139.867188 C 102.441406 138.964844 103.066406 137.679688 103.203125 136.308594 L 103.859375 129.007812 Z M 106.621094 123.191406 " fill-opacity="1" fill-rule="nonzero"/><path fill="#d9886d" d="M 105.585938 126.789062 L 105.933594 128.957031 C 105.941406 128.984375 105.933594 129.011719 105.917969 129.035156 C 105.335938 129.890625 104.546875 129.929688 103.878906 129.085938 C 103.859375 129.0625 103.851562 129.039062 103.855469 129.011719 L 103.988281 126.707031 Z M 105.585938 126.789062 " fill-opacity="1" fill-rule="nonzero"/><path fill="#e59073" d="M 104.214844 125.394531 C 104.214844 125.394531 103.40625 124.128906 103.253906 125.351562 C 103.214844 125.652344 103.269531 125.933594 103.414062 126.199219 C 103.785156 126.890625 104.707031 128.273438 106.148438 128.292969 C 106.316406 128.296875 106.464844 128.246094 106.597656 128.144531 C 106.730469 128.039062 106.816406 127.90625 106.859375 127.742188 C 106.9375 127.410156 106.992188 126.902344 106.902344 126.1875 C 106.902344 126.1875 106.742188 124.550781 106.714844 123.519531 C 106.714844 123.382812 106.667969 123.265625 106.585938 123.160156 C 106.5 123.054688 106.390625 122.988281 106.257812 122.960938 C 105.929688 122.894531 105.476562 123.105469 105.113281 124.367188 C 105.113281 124.367188 104.921875 125.441406 104.214844 125.394531 Z M 104.214844 125.394531 " fill-opacity="1" fill-rule="nonzero"/><path fill="#c99f54" d="M 96.855469 143.144531 C 96.816406 143.410156 96.804688 143.679688 96.824219 143.949219 C 96.832031 144.070312 96.847656 144.195312 96.871094 144.320312 C 96.898438 144.460938 96.933594 144.597656 96.980469 144.734375 C 96.996094 144.804688 96.988281 144.871094 96.953125 144.933594 C 96.917969 144.996094 96.863281 145.039062 96.796875 145.058594 C 96.628906 145.097656 96.523438 145.039062 96.472656 144.875 C 96.28125 144.261719 96.242188 143.636719 96.347656 143.007812 C 96.371094 142.867188 96.542969 142.789062 96.671875 142.824219 C 96.820312 142.863281 96.875 143.003906 96.851562 143.144531 Z M 96.855469 143.144531 " fill-opacity="1" fill-rule="nonzero"/><path fill="#1b1a24" d="M 103.242188 157.109375 C 103.574219 157.394531 104.035156 157.425781 104.390625 157.667969 C 104.746094 157.910156 104.828125 158.347656 104.804688 158.75 C 104.785156 158.996094 104.746094 159.234375 104.6875 159.472656 C 104.667969 159.550781 104.789062 159.585938 104.808594 159.503906 C 104.910156 159.085938 104.996094 158.628906 104.890625 158.199219 C 104.84375 157.992188 104.746094 157.8125 104.589844 157.664062 C 104.425781 157.511719 104.214844 157.421875 104.007812 157.34375 C 103.773438 157.257812 103.527344 157.183594 103.332031 157.019531 C 103.269531 156.964844 103.179688 157.054688 103.242188 157.109375 Z M 103.242188 157.109375 " fill-opacity="1" fill-rule="nonzero"/><path fill="#f9bb46" d="M 161.507812 70.183594 C 161.507812 71.144531 161.414062 72.101562 161.222656 73.046875 C 161.035156 73.992188 160.757812 74.910156 160.390625 75.800781 C 160.023438 76.691406 159.570312 77.539062 159.035156 78.339844 C 158.5 79.140625 157.894531 79.882812 157.214844 80.566406 C 156.53125 81.246094 155.792969 81.855469 154.992188 82.390625 C 154.191406 82.925781 153.347656 83.378906 152.457031 83.75 C 151.570312 84.117188 150.652344 84.394531 149.707031 84.585938 C 148.765625 84.773438 147.8125 84.867188 146.847656 84.867188 C 145.886719 84.867188 144.933594 84.773438 143.988281 84.585938 C 143.046875 84.394531 142.128906 84.117188 141.242188 83.75 C 140.351562 83.378906 139.507812 82.925781 138.707031 82.390625 C 137.90625 81.855469 137.167969 81.246094 136.484375 80.566406 C 135.804688 79.882812 135.199219 79.140625 134.664062 78.339844 C 134.128906 77.539062 133.675781 76.691406 133.308594 75.800781 C 132.941406 74.910156 132.660156 73.992188 132.472656 73.046875 C 132.285156 72.101562 132.191406 71.144531 132.191406 70.183594 C 132.191406 69.21875 132.285156 68.261719 132.472656 67.316406 C 132.660156 66.371094 132.941406 65.453125 133.308594 64.5625 C 133.675781 63.671875 134.128906 62.824219 134.664062 62.023438 C 135.199219 61.222656 135.804688 60.480469 136.484375 59.796875 C 137.167969 59.117188 137.90625 58.507812 138.707031 57.972656 C 139.507812 57.4375 140.351562 56.984375 141.242188 56.613281 C 142.128906 56.246094 143.046875 55.96875 143.988281 55.777344 C 144.933594 55.589844 145.886719 55.496094 146.847656 55.496094 C 147.8125 55.496094 148.765625 55.589844 149.707031 55.777344 C 150.652344 55.96875 151.570312 56.246094 152.457031 56.613281 C 153.347656 56.984375 154.191406 57.4375 154.992188 57.972656 C 155.792969 58.507812 156.53125 59.117188 157.214844 59.796875 C 157.894531 60.480469 158.5 61.222656 159.035156 62.023438 C 159.570312 62.824219 160.023438 63.671875 160.390625 64.5625 C 160.757812 65.453125 161.035156 66.371094 161.222656 67.316406 C 161.414062 68.261719 161.507812 69.21875 161.507812 70.183594 Z M 161.507812 70.183594 " fill-opacity="1" fill-rule="nonzero"/><path fill="#313e5f" d="M 143.511719 61.769531 C 143.742188 61.914062 143.921875 62.121094 144.054688 62.378906 C 144.1875 62.640625 144.257812 62.941406 144.273438 63.277344 C 144.289062 63.613281 144.242188 63.960938 144.136719 64.320312 C 144.03125 64.679688 143.875 65.023438 143.664062 65.351562 C 143.453125 65.679688 143.210938 65.964844 142.929688 66.214844 C 142.648438 66.460938 142.351562 66.648438 142.042969 66.777344 C 141.730469 66.90625 141.429688 66.964844 141.136719 66.953125 C 140.847656 66.945312 140.585938 66.863281 140.355469 66.71875 C 140.125 66.570312 139.945312 66.367188 139.816406 66.105469 C 139.683594 65.84375 139.609375 65.546875 139.597656 65.210938 C 139.582031 64.875 139.628906 64.527344 139.734375 64.167969 C 139.839844 63.808594 139.996094 63.464844 140.207031 63.136719 C 140.414062 62.808594 140.660156 62.519531 140.941406 62.273438 C 141.222656 62.027344 141.519531 61.839844 141.828125 61.710938 C 142.136719 61.582031 142.441406 61.523438 142.730469 61.535156 C 143.023438 61.542969 143.285156 61.621094 143.511719 61.769531 Z M 143.511719 61.769531 " fill-opacity="1" fill-rule="nonzero"/><path fill="#313e5f" d="M 155.863281 69.675781 C 156.09375 69.820312 156.273438 70.027344 156.40625 70.289062 C 156.535156 70.546875 156.609375 70.847656 156.625 71.183594 C 156.636719 71.519531 156.59375 71.867188 156.484375 72.226562 C 156.378906 72.585938 156.222656 72.929688 156.015625 73.257812 C 155.804688 73.585938 155.558594 73.875 155.277344 74.121094 C 154.996094 74.367188 154.703125 74.554688 154.390625 74.683594 C 154.082031 74.8125 153.78125 74.871094 153.488281 74.859375 C 153.195312 74.851562 152.933594 74.773438 152.707031 74.625 C 152.476562 74.476562 152.296875 74.273438 152.164062 74.011719 C 152.03125 73.753906 151.960938 73.453125 151.945312 73.117188 C 151.933594 72.78125 151.976562 72.433594 152.082031 72.074219 C 152.1875 71.714844 152.347656 71.371094 152.554688 71.042969 C 152.765625 70.714844 153.011719 70.425781 153.292969 70.179688 C 153.574219 69.933594 153.867188 69.746094 154.179688 69.617188 C 154.488281 69.488281 154.789062 69.429688 155.082031 69.441406 C 155.375 69.449219 155.632812 69.527344 155.863281 69.675781 Z M 155.863281 69.675781 " fill-opacity="1" fill-rule="nonzero"/><path fill="#313e5f" d="M 142.566406 69.703125 C 143.390625 70.507812 146.039062 72.804688 149.574219 73.007812 C 149.8125 73.019531 149.777344 73.414062 149.527344 73.503906 C 146.808594 74.503906 140.742188 76.105469 142.175781 69.914062 C 142.222656 69.707031 142.445312 69.585938 142.566406 69.703125 Z M 142.566406 69.703125 " fill-opacity="1" fill-rule="nonzero"/><path fill="#f9bb46" d="M 139.683594 81.027344 L 135.25 83.027344 C 135.140625 83.078125 135.054688 83.148438 134.984375 83.246094 C 134.914062 83.339844 134.875 83.449219 134.863281 83.566406 C 134.851562 83.683594 134.871094 83.796875 134.917969 83.902344 C 134.96875 84.011719 135.039062 84.097656 135.132812 84.167969 L 138.15625 86.34375 C 138.363281 86.492188 138.582031 86.515625 138.8125 86.410156 C 139.042969 86.304688 139.171875 86.125 139.199219 85.871094 Z M 139.683594 81.027344 " fill-opacity="1" fill-rule="nonzero"/><path fill="#a1bfca" d="M 123.664062 49.886719 C 124.300781 50.527344 124.871094 51.222656 125.371094 51.972656 C 125.875 52.722656 126.296875 53.515625 126.640625 54.351562 C 126.988281 55.1875 127.246094 56.046875 127.421875 56.933594 C 127.597656 57.820312 127.6875 58.714844 127.6875 59.617188 C 127.6875 60.523438 127.597656 61.417969 127.421875 62.304688 C 127.246094 63.191406 126.988281 64.050781 126.640625 64.886719 C 126.296875 65.722656 125.875 66.515625 125.371094 67.265625 C 124.871094 68.015625 124.300781 68.710938 123.664062 69.351562 C 123.027344 69.992188 122.332031 70.5625 121.582031 71.0625 C 120.832031 71.566406 120.039062 71.988281 119.207031 72.335938 C 118.375 72.679688 117.515625 72.941406 116.628906 73.117188 C 115.746094 73.292969 114.851562 73.382812 113.949219 73.382812 C 113.046875 73.382812 112.15625 73.292969 111.269531 73.117188 C 110.386719 72.941406 109.527344 72.679688 108.691406 72.335938 C 107.859375 71.988281 107.066406 71.566406 106.316406 71.0625 C 105.566406 70.5625 104.875 69.992188 104.234375 69.351562 C 103.597656 68.710938 103.027344 68.015625 102.527344 67.265625 C 102.027344 66.515625 101.601562 65.722656 101.257812 64.886719 C 100.914062 64.050781 100.652344 63.191406 100.476562 62.304688 C 100.300781 61.417969 100.210938 60.523438 100.210938 59.621094 C 100.210938 58.714844 100.300781 57.820312 100.476562 56.933594 C 100.652344 56.046875 100.914062 55.1875 101.257812 54.351562 C 101.601562 53.515625 102.027344 52.722656 102.527344 51.972656 C 103.027344 51.222656 103.597656 50.527344 104.234375 49.886719 C 104.875 49.246094 105.566406 48.675781 106.316406 48.175781 C 107.066406 47.671875 107.859375 47.25 108.691406 46.902344 C 109.527344 46.558594 110.386719 46.296875 111.269531 46.121094 C 112.15625 45.945312 113.046875 45.855469 113.949219 45.855469 C 114.851562 45.855469 115.746094 45.945312 116.628906 46.121094 C 117.515625 46.296875 118.375 46.558594 119.207031 46.902344 C 120.039062 47.25 120.832031 47.671875 121.582031 48.175781 C 122.332031 48.675781 123.027344 49.246094 123.664062 49.886719 Z M 123.664062 49.886719 " fill-opacity="1" fill-rule="nonzero"/><path fill="#313e5f" d="M 108.804688 57.9375 C 108.839844 58.300781 108.828125 58.65625 108.765625 59 C 108.703125 59.347656 108.597656 59.65625 108.441406 59.933594 C 108.289062 60.207031 108.101562 60.425781 107.882812 60.589844 C 107.664062 60.753906 107.425781 60.847656 107.171875 60.875 C 106.917969 60.898438 106.667969 60.855469 106.417969 60.742188 C 106.167969 60.625 105.941406 60.449219 105.738281 60.210938 C 105.53125 59.972656 105.363281 59.691406 105.230469 59.367188 C 105.097656 59.039062 105.015625 58.695312 104.976562 58.332031 C 104.941406 57.96875 104.953125 57.613281 105.015625 57.269531 C 105.078125 56.925781 105.1875 56.613281 105.339844 56.339844 C 105.492188 56.0625 105.679688 55.84375 105.898438 55.679688 C 106.121094 55.519531 106.355469 55.421875 106.609375 55.398438 C 106.863281 55.371094 107.113281 55.414062 107.363281 55.53125 C 107.613281 55.644531 107.839844 55.820312 108.046875 56.058594 C 108.25 56.296875 108.417969 56.578125 108.550781 56.90625 C 108.683594 57.230469 108.765625 57.574219 108.804688 57.9375 Z M 108.804688 57.9375 " fill-opacity="1" fill-rule="nonzero"/><path fill="#313e5f" d="M 122.46875 56.53125 C 122.507812 56.894531 122.496094 57.246094 122.433594 57.59375 C 122.371094 57.9375 122.261719 58.25 122.109375 58.523438 C 121.957031 58.800781 121.769531 59.019531 121.546875 59.183594 C 121.328125 59.34375 121.089844 59.4375 120.835938 59.464844 C 120.582031 59.492188 120.332031 59.449219 120.082031 59.332031 C 119.835938 59.21875 119.609375 59.042969 119.402344 58.804688 C 119.195312 58.566406 119.027344 58.28125 118.894531 57.957031 C 118.765625 57.632812 118.679688 57.289062 118.644531 56.925781 C 118.605469 56.5625 118.617188 56.207031 118.679688 55.863281 C 118.742188 55.515625 118.851562 55.207031 119.003906 54.929688 C 119.15625 54.65625 119.34375 54.4375 119.566406 54.273438 C 119.785156 54.109375 120.023438 54.015625 120.277344 53.988281 C 120.53125 53.964844 120.78125 54.007812 121.027344 54.121094 C 121.277344 54.238281 121.503906 54.414062 121.710938 54.652344 C 121.917969 54.890625 122.085938 55.171875 122.214844 55.496094 C 122.347656 55.824219 122.433594 56.167969 122.46875 56.53125 Z M 122.46875 56.53125 " fill-opacity="1" fill-rule="nonzero"/><path fill="#313e5f" d="M 119.109375 67.210938 C 117.796875 66.84375 113.796875 66.152344 110.71875 70.261719 C 110.507812 70.539062 110.230469 69.800781 110.367188 69.324219 C 111.824219 64.125 115.558594 53.632812 119.269531 66.347656 C 119.394531 66.769531 119.300781 67.265625 119.109375 67.210938 Z M 119.109375 67.210938 " fill-opacity="1" fill-rule="nonzero"/><path fill="#a1bfca" d="M 116.816406 71.308594 L 114.835938 75.742188 C 114.785156 75.847656 114.769531 75.960938 114.78125 76.078125 C 114.792969 76.195312 114.832031 76.300781 114.902344 76.398438 C 114.96875 76.492188 115.058594 76.5625 115.164062 76.613281 C 115.273438 76.660156 115.382812 76.679688 115.5 76.667969 L 119.1875 76.285156 C 119.441406 76.257812 119.617188 76.128906 119.722656 75.898438 C 119.824219 75.667969 119.800781 75.449219 119.652344 75.242188 Z M 116.816406 71.308594 " fill-opacity="1" fill-rule="nonzero"/><path fill="#f6a37d" d="M 132.382812 89.6875 C 132.886719 90.191406 133.335938 90.738281 133.730469 91.332031 C 134.125 91.925781 134.460938 92.550781 134.730469 93.207031 C 135.003906 93.867188 135.210938 94.546875 135.347656 95.246094 C 135.488281 95.945312 135.558594 96.652344 135.558594 97.363281 C 135.558594 98.078125 135.488281 98.785156 135.347656 99.484375 C 135.210938 100.183594 135.003906 100.859375 134.730469 101.519531 C 134.460938 102.179688 134.125 102.804688 133.730469 103.398438 C 133.335938 103.988281 132.886719 104.539062 132.382812 105.042969 C 131.878906 105.546875 131.332031 105.996094 130.738281 106.394531 C 130.148438 106.789062 129.523438 107.125 128.867188 107.394531 C 128.207031 107.667969 127.53125 107.875 126.832031 108.015625 C 126.136719 108.152344 125.429688 108.222656 124.71875 108.222656 C 124.007812 108.222656 123.300781 108.152344 122.605469 108.015625 C 121.90625 107.875 121.230469 107.667969 120.570312 107.394531 C 119.914062 107.125 119.289062 106.789062 118.699219 106.394531 C 118.105469 105.996094 117.558594 105.546875 117.054688 105.042969 C 116.550781 104.539062 116.101562 103.988281 115.707031 103.398438 C 115.3125 102.804688 114.976562 102.179688 114.707031 101.519531 C 114.433594 100.859375 114.226562 100.183594 114.089844 99.484375 C 113.949219 98.785156 113.882812 98.078125 113.882812 97.363281 C 113.882812 96.652344 113.949219 95.945312 114.089844 95.246094 C 114.226562 94.546875 114.433594 93.867188 114.707031 93.207031 C 114.976562 92.550781 115.3125 91.925781 115.707031 91.332031 C 116.101562 90.738281 116.550781 90.191406 117.054688 89.6875 C 117.558594 89.183594 118.105469 88.730469 118.699219 88.335938 C 119.289062 87.941406 119.914062 87.605469 120.570312 87.332031 C 121.230469 87.058594 121.90625 86.851562 122.605469 86.714844 C 123.300781 86.574219 124.007812 86.503906 124.71875 86.503906 C 125.429688 86.503906 126.136719 86.574219 126.832031 86.714844 C 127.53125 86.851562 128.207031 87.058594 128.867188 87.332031 C 129.523438 87.605469 130.148438 87.941406 130.738281 88.335938 C 131.332031 88.730469 131.878906 89.183594 132.382812 89.6875 Z M 132.382812 89.6875 " fill-opacity="1" fill-rule="nonzero"/><path fill="#313e5f" d="M 120.800781 95.667969 C 120.800781 95.957031 120.765625 96.234375 120.691406 96.5 C 120.617188 96.765625 120.511719 97.003906 120.371094 97.207031 C 120.230469 97.414062 120.070312 97.570312 119.882812 97.683594 C 119.699219 97.796875 119.507812 97.851562 119.304688 97.855469 C 119.105469 97.859375 118.910156 97.804688 118.722656 97.695312 C 118.535156 97.589844 118.371094 97.433594 118.226562 97.230469 C 118.082031 97.027344 117.96875 96.796875 117.890625 96.53125 C 117.808594 96.265625 117.769531 95.988281 117.765625 95.699219 C 117.761719 95.414062 117.796875 95.136719 117.871094 94.867188 C 117.945312 94.601562 118.054688 94.367188 118.191406 94.160156 C 118.332031 93.957031 118.496094 93.796875 118.679688 93.683594 C 118.863281 93.570312 119.058594 93.515625 119.257812 93.511719 C 119.460938 93.511719 119.652344 93.5625 119.839844 93.671875 C 120.027344 93.78125 120.195312 93.933594 120.339844 94.136719 C 120.484375 94.339844 120.59375 94.574219 120.675781 94.839844 C 120.753906 95.101562 120.796875 95.378906 120.800781 95.667969 Z M 120.800781 95.667969 " fill-opacity="1" fill-rule="nonzero"/><path fill="#313e5f" d="M 131.636719 95.550781 C 131.640625 95.839844 131.605469 96.117188 131.53125 96.382812 C 131.457031 96.648438 131.347656 96.886719 131.210938 97.089844 C 131.070312 97.296875 130.90625 97.453125 130.722656 97.566406 C 130.539062 97.679688 130.34375 97.734375 130.144531 97.738281 C 129.941406 97.742188 129.75 97.6875 129.5625 97.578125 C 129.375 97.472656 129.207031 97.316406 129.0625 97.113281 C 128.917969 96.910156 128.808594 96.679688 128.726562 96.414062 C 128.648438 96.148438 128.605469 95.871094 128.601562 95.582031 C 128.601562 95.296875 128.636719 95.019531 128.710938 94.75 C 128.785156 94.484375 128.890625 94.246094 129.03125 94.042969 C 129.171875 93.835938 129.332031 93.679688 129.519531 93.566406 C 129.703125 93.453125 129.894531 93.398438 130.097656 93.394531 C 130.296875 93.394531 130.492188 93.445312 130.679688 93.554688 C 130.867188 93.664062 131.03125 93.816406 131.175781 94.019531 C 131.320312 94.222656 131.433594 94.457031 131.511719 94.71875 C 131.59375 94.984375 131.632812 95.261719 131.636719 95.550781 Z M 131.636719 95.550781 " fill-opacity="1" fill-rule="nonzero"/><path fill="#313e5f" d="M 119.824219 101.644531 C 119.96875 101.089844 120.144531 100.449219 120.707031 100.183594 C 120.921875 100.082031 121.136719 100.074219 121.359375 100.160156 C 121.53125 100.234375 121.683594 100.339844 121.820312 100.476562 C 122.128906 100.761719 122.386719 101.109375 122.746094 101.335938 C 122.929688 101.457031 123.132812 101.519531 123.351562 101.519531 C 123.625 101.511719 123.863281 101.421875 124.074219 101.253906 C 124.292969 101.082031 124.484375 100.882812 124.648438 100.660156 C 124.816406 100.4375 124.976562 100.203125 125.171875 100.003906 C 125.347656 99.816406 125.558594 99.644531 125.808594 99.574219 C 125.925781 99.539062 126.046875 99.527344 126.167969 99.546875 C 126.253906 99.5625 126.332031 99.589844 126.410156 99.625 C 126.746094 99.792969 126.984375 100.121094 127.21875 100.414062 C 127.449219 100.707031 127.695312 101.027344 128.050781 101.167969 C 128.246094 101.246094 128.445312 101.253906 128.648438 101.195312 C 128.898438 101.121094 129.105469 100.949219 129.28125 100.757812 C 129.46875 100.5625 129.621094 100.335938 129.824219 100.152344 C 130.007812 99.988281 130.246094 99.835938 130.5 99.828125 C 130.617188 99.820312 130.722656 99.851562 130.820312 99.921875 C 130.878906 99.957031 130.921875 99.941406 130.957031 99.886719 C 130.988281 99.828125 130.972656 99.78125 130.917969 99.75 C 130.425781 99.402344 129.808594 99.835938 129.488281 100.214844 C 129.183594 100.574219 128.84375 101.070312 128.316406 101.027344 C 128.15625 101.003906 128.011719 100.941406 127.886719 100.839844 C 127.738281 100.71875 127.609375 100.582031 127.492188 100.433594 C 127.238281 100.125 127.011719 99.785156 126.683594 99.550781 C 126.515625 99.429688 126.332031 99.359375 126.128906 99.339844 C 125.855469 99.3125 125.589844 99.414062 125.371094 99.566406 C 125.140625 99.734375 124.9375 99.933594 124.769531 100.164062 C 124.597656 100.382812 124.441406 100.617188 124.25 100.820312 C 124.074219 101.011719 123.867188 101.191406 123.617188 101.273438 C 123.40625 101.34375 123.195312 101.332031 122.992188 101.238281 C 122.613281 101.066406 122.347656 100.714844 122.058594 100.425781 C 121.753906 100.125 121.378906 99.84375 120.925781 99.910156 C 120.628906 99.957031 120.386719 100.097656 120.191406 100.324219 C 119.980469 100.554688 119.851562 100.847656 119.757812 101.140625 C 119.710938 101.289062 119.667969 101.441406 119.628906 101.589844 C 119.597656 101.714844 119.789062 101.765625 119.820312 101.640625 Z M 119.824219 101.644531 " fill-opacity="1" fill-rule="nonzero"/><path fill="#f6a37d" d="M 126.648438 106.890625 L 125.335938 110.304688 C 125.304688 110.386719 125.296875 110.472656 125.3125 110.558594 C 125.324219 110.648438 125.359375 110.726562 125.414062 110.792969 C 125.46875 110.863281 125.539062 110.914062 125.621094 110.945312 C 125.703125 110.976562 125.789062 110.984375 125.875 110.972656 L 128.636719 110.535156 C 128.722656 110.519531 128.800781 110.484375 128.871094 110.429688 C 128.9375 110.375 128.988281 110.304688 129.019531 110.222656 C 129.054688 110.140625 129.0625 110.054688 129.046875 109.96875 C 129.035156 109.878906 129 109.800781 128.945312 109.734375 Z M 126.648438 106.890625 " fill-opacity="1" fill-rule="nonzero"/><path fill="#f07475" d="M 107.644531 78.597656 C 108.242188 79.195312 108.773438 79.847656 109.246094 80.550781 C 109.714844 81.253906 110.109375 81.996094 110.433594 82.78125 C 110.757812 83.5625 111 84.367188 111.167969 85.199219 C 111.332031 86.03125 111.414062 86.867188 111.414062 87.714844 C 111.414062 88.5625 111.332031 89.402344 111.167969 90.230469 C 111 91.0625 110.757812 91.867188 110.433594 92.652344 C 110.109375 93.433594 109.714844 94.175781 109.246094 94.878906 C 108.773438 95.585938 108.242188 96.234375 107.644531 96.835938 C 107.046875 97.433594 106.394531 97.96875 105.691406 98.4375 C 104.988281 98.910156 104.25 99.304688 103.46875 99.628906 C 102.6875 99.953125 101.882812 100.199219 101.054688 100.363281 C 100.222656 100.527344 99.386719 100.613281 98.542969 100.613281 C 97.695312 100.613281 96.859375 100.527344 96.03125 100.363281 C 95.203125 100.199219 94.398438 99.953125 93.617188 99.628906 C 92.835938 99.304688 92.09375 98.910156 91.390625 98.4375 C 90.6875 97.96875 90.039062 97.433594 89.441406 96.835938 C 88.84375 96.234375 88.308594 95.585938 87.839844 94.878906 C 87.371094 94.175781 86.972656 93.433594 86.648438 92.652344 C 86.328125 91.867188 86.082031 91.0625 85.917969 90.230469 C 85.753906 89.402344 85.671875 88.5625 85.671875 87.714844 C 85.671875 86.867188 85.753906 86.03125 85.917969 85.199219 C 86.082031 84.367188 86.328125 83.5625 86.648438 82.78125 C 86.972656 81.996094 87.371094 81.253906 87.839844 80.550781 C 88.308594 79.847656 88.84375 79.195312 89.441406 78.597656 C 90.039062 77.996094 90.6875 77.464844 91.390625 76.992188 C 92.09375 76.523438 92.835938 76.125 93.617188 75.800781 C 94.398438 75.476562 95.203125 75.230469 96.03125 75.066406 C 96.859375 74.902344 97.695312 74.820312 98.542969 74.820312 C 99.386719 74.820312 100.222656 74.902344 101.054688 75.066406 C 101.882812 75.230469 102.6875 75.476562 103.46875 75.800781 C 104.25 76.125 104.988281 76.523438 105.691406 76.992188 C 106.394531 77.464844 107.046875 77.996094 107.644531 78.597656 Z M 107.644531 78.597656 " fill-opacity="1" fill-rule="nonzero"/><path fill="#313e5f" d="M 93.867188 91.953125 L 93.207031 94.710938 C 92.972656 95.679688 94.492188 95.992188 95.261719 95.132812 C 98.195312 91.839844 101.742188 90.503906 105.847656 90.960938 C 106.988281 91.089844 107.90625 89.855469 107.097656 89.285156 L 104.957031 87.769531 C 99.789062 84.113281 95.34375 85.789062 93.867188 91.953125 Z M 93.867188 91.953125 " fill-opacity="1" fill-rule="nonzero"/><path fill="#313e5f" d="M 94.035156 85.621094 C 94.035156 85.621094 91.515625 87.601562 88.445312 85.832031 C 88.445312 85.832031 88.925781 93.054688 94.035156 85.621094 Z M 94.035156 85.621094 " fill-opacity="1" fill-rule="nonzero"/><path fill="#313e5f" d="M 100.550781 83.164062 C 100.550781 83.164062 103.75 82.988281 104.894531 79.632812 C 104.894531 79.632812 109.285156 85.375 100.550781 83.164062 Z M 100.550781 83.164062 " fill-opacity="1" fill-rule="nonzero"/><path fill="#f07475" d="M 104.292969 96.375 L 104.292969 101.734375 C 104.292969 101.867188 104.324219 101.988281 104.390625 102.101562 C 104.457031 102.210938 104.542969 102.300781 104.65625 102.367188 C 104.769531 102.429688 104.890625 102.464844 105.019531 102.464844 C 105.148438 102.464844 105.269531 102.429688 105.382812 102.367188 L 108.929688 100.316406 C 109.171875 100.175781 109.292969 99.964844 109.292969 99.6875 C 109.292969 99.40625 109.171875 99.195312 108.929688 99.054688 Z M 104.292969 96.375 " fill-opacity="1" fill-rule="nonzero"/></svg>