<svg xmlns="http://www.w3.org/2000/svg" xmlns:xlink="http://www.w3.org/1999/xlink" width="50" zoomAndPan="magnify" viewBox="0 0 37.5 37.499999" height="50" preserveAspectRatio="xMidYMid meet" version="1.0"><defs><clipPath id="e2abb982e8"><path d="M 0 23 L 15 23 L 15 37.007812 L 0 37.007812 Z M 0 23 " clip-rule="nonzero"/></clipPath></defs><path fill="#3e77f4" d="M 0.0859375 19.96875 C 0.0859375 19.726562 0.28125 19.535156 0.519531 19.535156 L 36.566406 19.535156 C 36.804688 19.535156 36.996094 19.726562 36.996094 19.96875 L 36.996094 21.046875 C 36.996094 21.285156 36.804688 21.480469 36.566406 21.480469 L 0.519531 21.480469 C 0.28125 21.480469 0.0859375 21.285156 0.0859375 21.046875 Z M 0.0859375 19.96875 " fill-opacity="1" fill-rule="nonzero"/><path fill="#3e77f4" d="M 1.703125 1.394531 C 1.703125 0.625 2.324219 0.00390625 3.089844 0.00390625 L 32.898438 0.00390625 C 33.664062 0.00390625 34.28125 0.625 34.28125 1.394531 L 34.28125 19.53125 L 1.703125 19.53125 Z M 1.703125 1.394531 " fill-opacity="1" fill-rule="nonzero"/><path fill="#f2f2f2" d="M 2.609375 1.34375 C 2.609375 1.105469 2.800781 0.910156 3.039062 0.910156 L 32.945312 0.910156 C 33.183594 0.910156 33.378906 1.105469 33.378906 1.34375 L 33.378906 19.535156 L 2.609375 19.535156 Z M 2.609375 1.34375 " fill-opacity="1" fill-rule="nonzero"/><path fill="#253036" d="M 0.476562 19.535156 C 0.476562 19.507812 0.496094 19.488281 0.519531 19.488281 L 36.566406 19.488281 C 36.589844 19.488281 36.609375 19.507812 36.609375 19.535156 C 36.609375 19.558594 36.589844 19.578125 36.566406 19.578125 L 0.519531 19.578125 C 0.496094 19.578125 0.476562 19.558594 0.476562 19.535156 Z M 0.476562 19.535156 " fill-opacity="1" fill-rule="evenodd"/><path fill="#253036" d="M 4.96875 18.566406 C 4.160156 18.566406 3.503906 19.226562 3.503906 20.039062 L 3.503906 24.976562 L 2.078125 24.976562 L 2.078125 20.039062 C 2.078125 18.433594 3.371094 17.132812 4.96875 17.132812 L 9.890625 17.132812 C 11.488281 17.132812 12.785156 18.433594 12.785156 20.039062 L 12.785156 24.976562 L 11.355469 24.976562 L 11.355469 20.039062 C 11.355469 19.226562 10.703125 18.566406 9.890625 18.566406 Z M 4.96875 18.566406 " fill-opacity="1" fill-rule="evenodd"/><g clip-path="url(#e2abb982e8)"><path fill="#3e77f4" d="M 0.0859375 24.789062 C 0.0859375 24.164062 0.589844 23.65625 1.214844 23.65625 L 13.613281 23.65625 C 14.234375 23.65625 14.738281 24.164062 14.738281 24.789062 L 14.738281 35.875 C 14.738281 36.5 14.234375 37.007812 13.613281 37.007812 L 1.214844 37.007812 C 0.589844 37.007812 0.0859375 36.5 0.0859375 35.875 Z M 0.0859375 24.789062 " fill-opacity="1" fill-rule="nonzero"/></g><path fill="#253036" d="M 7.449219 27.878906 C 6.578125 27.878906 5.871094 28.589844 5.871094 29.464844 C 5.871094 30.152344 6.3125 30.742188 6.925781 30.957031 L 6.925781 33.3125 C 6.925781 33.601562 7.160156 33.839844 7.449219 33.839844 C 7.742188 33.839844 7.976562 33.601562 7.976562 33.3125 L 7.976562 30.957031 C 8.589844 30.742188 9.027344 30.152344 9.027344 29.464844 C 9.027344 28.589844 8.320312 27.878906 7.449219 27.878906 Z M 7.449219 27.878906 " fill-opacity="1" fill-rule="nonzero"/><path fill="#fcbfbc" d="M 23.71875 13.132812 L 23.851562 12.523438 L 22.507812 11.480469 C 22.507812 11.652344 21.726562 12.65625 22.117188 13.566406 C 22.429688 14.296875 22.765625 15.003906 22.898438 15.261719 L 24.023438 14.828125 Z M 23.71875 13.132812 " fill-opacity="1" fill-rule="nonzero"/><path fill="#fcbfbc" d="M 29.503906 13.132812 L 29.375 12.523438 L 30.714844 11.480469 C 30.714844 11.652344 31.496094 12.65625 31.105469 13.566406 C 30.792969 14.296875 30.457031 15.003906 30.328125 15.261719 L 29.199219 14.828125 Z M 29.503906 13.132812 " fill-opacity="1" fill-rule="nonzero"/><path fill="#fcbfbc" d="M 23.351562 30.003906 L 23.351562 28.265625 L 25.300781 28.136719 L 25.300781 30.265625 Z M 23.351562 30.003906 " fill-opacity="1" fill-rule="nonzero"/><path fill="#fcbfbc" d="M 23.257812 18.257812 C 23.261719 18.273438 23.25 18.289062 23.230469 18.296875 L 22.3125 19.613281 C 21.238281 19.121094 20.832031 19.316406 20.203125 19.460938 C 19.976562 18.691406 20.941406 17.855469 21.28125 17.53125 C 21.324219 17.84375 22.992188 18.382812 23.230469 18.296875 Z M 23.257812 18.257812 " fill-opacity="1" fill-rule="nonzero"/><path fill="#759df5" d="M 20.800781 19.296875 C 20.882812 18.957031 20.675781 18.964844 20.613281 18.570312 C 20.496094 17.824219 21.488281 18.132812 21.441406 17.652344 C 21.414062 17.351562 20.554688 16.792969 20.089844 16.566406 C 19.476562 17.203125 18.40625 18.496094 17.753906 19.429688 C 17.554688 19.707031 17.3125 20.03125 17.398438 20.363281 C 17.53125 20.851562 18.589844 20.378906 19.210938 20.007812 C 19.34375 19.964844 19.472656 19.921875 19.597656 19.886719 L 19.632812 19.875 C 19.714844 19.851562 19.792969 19.828125 19.875 19.808594 C 19.996094 19.777344 20.113281 19.746094 20.21875 19.710938 C 20.523438 19.621094 20.753906 19.511719 20.800781 19.296875 Z M 20.800781 19.296875 " fill-opacity="1" fill-rule="nonzero"/><path fill="#253036" d="M 20.574219 19.515625 C 20.671875 19.453125 20.730469 19.382812 20.753906 19.289062 C 20.769531 19.207031 20.773438 19.152344 20.765625 19.105469 C 20.757812 19.058594 20.738281 19.019531 20.714844 18.976562 C 20.707031 18.964844 20.703125 18.953125 20.695312 18.941406 C 20.648438 18.859375 20.589844 18.757812 20.5625 18.578125 C 20.53125 18.382812 20.574219 18.246094 20.660156 18.152344 C 20.742188 18.058594 20.863281 18.011719 20.976562 17.972656 C 21.007812 17.964844 21.03125 17.953125 21.058594 17.945312 C 21.085938 17.9375 21.117188 17.929688 21.144531 17.917969 C 21.199219 17.898438 21.246094 17.878906 21.285156 17.859375 C 21.324219 17.835938 21.351562 17.808594 21.367188 17.777344 C 21.386719 17.75 21.394531 17.710938 21.390625 17.65625 L 21.476562 17.648438 C 21.484375 17.71875 21.472656 17.773438 21.445312 17.824219 C 21.417969 17.871094 21.375 17.90625 21.328125 17.933594 C 21.28125 17.960938 21.230469 17.980469 21.175781 18 C 21.144531 18.011719 21.113281 18.019531 21.082031 18.03125 C 21.054688 18.039062 21.03125 18.046875 21.003906 18.054688 C 20.890625 18.09375 20.789062 18.136719 20.722656 18.210938 C 20.660156 18.28125 20.621094 18.386719 20.648438 18.566406 C 20.675781 18.726562 20.726562 18.816406 20.769531 18.898438 C 20.777344 18.910156 20.785156 18.921875 20.792969 18.933594 C 20.816406 18.980469 20.839844 19.03125 20.847656 19.089844 C 20.859375 19.152344 20.855469 19.21875 20.835938 19.308594 C 20.808594 19.429688 20.730469 19.519531 20.621094 19.589844 C 20.515625 19.65625 20.375 19.710938 20.226562 19.753906 C 20.132812 19.78125 20.035156 19.808594 19.933594 19.835938 C 19.914062 19.839844 19.894531 19.847656 19.878906 19.851562 C 19.796875 19.871094 19.71875 19.894531 19.636719 19.917969 L 19.601562 19.929688 M 19.636719 19.828125 C 19.703125 19.808594 19.769531 19.789062 19.832031 19.773438 C 19.832031 19.769531 19.835938 19.761719 19.839844 19.753906 C 19.839844 19.746094 19.84375 19.738281 19.847656 19.726562 L 19.847656 19.722656 C 19.855469 19.710938 19.859375 19.699219 19.863281 19.6875 C 19.878906 19.636719 19.902344 19.574219 19.917969 19.507812 C 19.9375 19.441406 19.949219 19.375 19.949219 19.3125 C 19.953125 19.25 19.941406 19.199219 19.917969 19.160156 L 19.992188 19.117188 C 20.027344 19.171875 20.039062 19.246094 20.039062 19.316406 C 20.035156 19.386719 20.019531 19.460938 20.003906 19.53125 C 19.984375 19.601562 19.960938 19.664062 19.945312 19.71875 C 19.941406 19.726562 19.9375 19.738281 19.933594 19.746094 C 20.019531 19.722656 20.097656 19.703125 20.175781 19.679688 C 20.175781 19.675781 20.179688 19.671875 20.179688 19.667969 C 20.191406 19.617188 20.21875 19.523438 20.234375 19.421875 C 20.246094 19.355469 20.253906 19.285156 20.253906 19.222656 C 20.253906 19.15625 20.246094 19.105469 20.230469 19.066406 L 20.308594 19.027344 C 20.332031 19.082031 20.34375 19.152344 20.34375 19.222656 C 20.339844 19.292969 20.332031 19.367188 20.320312 19.4375 C 20.308594 19.515625 20.289062 19.59375 20.273438 19.648438 C 20.394531 19.609375 20.496094 19.566406 20.574219 19.515625 M 19.546875 19.855469 C 19.550781 19.824219 19.554688 19.789062 19.5625 19.753906 C 19.566406 19.738281 19.570312 19.726562 19.570312 19.714844 C 19.582031 19.671875 19.59375 19.625 19.601562 19.574219 C 19.609375 19.511719 19.617188 19.449219 19.613281 19.390625 C 19.613281 19.335938 19.601562 19.285156 19.574219 19.246094 L 19.648438 19.199219 C 19.683594 19.253906 19.699219 19.320312 19.703125 19.386719 C 19.703125 19.453125 19.695312 19.523438 19.6875 19.589844 C 19.675781 19.640625 19.667969 19.691406 19.65625 19.734375 C 19.652344 19.746094 19.652344 19.757812 19.648438 19.769531 C 19.644531 19.792969 19.640625 19.8125 19.636719 19.828125 M 19.546875 19.855469 C 19.460938 19.878906 19.371094 19.910156 19.277344 19.9375 C 19.308594 19.859375 19.335938 19.761719 19.355469 19.664062 C 19.371094 19.59375 19.378906 19.527344 19.378906 19.460938 C 19.375 19.398438 19.367188 19.339844 19.335938 19.289062 L 19.261719 19.335938 C 19.28125 19.363281 19.289062 19.40625 19.292969 19.464844 C 19.292969 19.519531 19.285156 19.582031 19.273438 19.648438 C 19.246094 19.769531 19.203125 19.894531 19.167969 19.980469 C 18.859375 20.164062 18.449219 20.367188 18.101562 20.46875 C 17.925781 20.519531 17.765625 20.542969 17.648438 20.523438 C 17.589844 20.515625 17.542969 20.496094 17.507812 20.46875 C 17.472656 20.441406 17.449219 20.40625 17.433594 20.351562 L 17.351562 20.375 C 17.367188 20.445312 17.40625 20.5 17.457031 20.539062 C 17.503906 20.578125 17.566406 20.601562 17.636719 20.609375 C 17.773438 20.628906 17.945312 20.605469 18.125 20.550781 C 18.488281 20.445312 18.910156 20.234375 19.222656 20.046875 M 19.109375 18.628906 C 19.59375 18.03125 20.109375 17.453125 20.457031 17.082031 L 20.519531 17.140625 C 20.171875 17.511719 19.660156 18.085938 19.175781 18.683594 C 18.691406 19.28125 18.238281 19.894531 18 20.355469 L 17.925781 20.3125 C 18.164062 19.847656 18.625 19.226562 19.109375 18.628906 Z M 19.109375 18.628906 " fill-opacity="1" fill-rule="evenodd"/><path fill="#253036" d="M 25.492188 2.746094 C 25.796875 2.457031 27.6875 1.957031 28.664062 3.519531 C 28.90625 3.90625 28.96875 4.371094 28.960938 4.824219 C 28.960938 5.085938 28.972656 5.355469 29.070312 5.640625 C 29.328125 6.414062 28.980469 6.820312 29.328125 7.230469 C 29.675781 7.640625 30.304688 9.179688 29.957031 9.574219 C 28.65625 11.054688 25.019531 10.808594 23.71875 9.445312 C 23.367188 8.671875 24.445312 7.84375 24.28125 7.230469 C 24.113281 6.617188 24.148438 6.421875 24.453125 5.964844 C 25.0625 5.058594 23.953125 4.234375 25.492188 2.746094 Z M 25.492188 2.746094 " fill-opacity="1" fill-rule="nonzero"/><path fill="#fcbfbc" d="M 25.40625 8.226562 C 26.011719 8.054688 26.144531 7.285156 26.097656 6.75 L 27.527344 6.75 C 27.515625 7.328125 27.527344 8.097656 28.050781 8.226562 C 27.484375 9.011719 25.96875 8.835938 25.40625 8.226562 Z M 25.40625 8.226562 " fill-opacity="1" fill-rule="nonzero"/><path fill="#253036" d="M 23.964844 16.699219 C 25.332031 16.835938 28.671875 17.027344 29.535156 16.699219 C 29.691406 17.03125 30.472656 17.625 30.355469 18.140625 C 30.300781 18.398438 32.304688 20.824219 29.148438 21.601562 C 28.371094 21.789062 27.234375 21.558594 26.082031 21.191406 C 25.984375 23.132812 25.640625 26.390625 25.480469 28.628906 C 24.8125 28.878906 23.839844 28.628906 23.222656 28.308594 C 23.148438 24.035156 22.679688 22.171875 23.046875 20.105469 C 23.042969 20.085938 23.039062 20.066406 23.039062 20.046875 C 22.542969 19.851562 22.140625 19.695312 21.886719 19.636719 C 21.683594 19.226562 22.128906 18.140625 22.144531 17.882812 C 22.449219 17.902344 22.894531 17.941406 23.410156 17.996094 C 23.601562 17.476562 23.820312 17.007812 23.964844 16.699219 Z M 23.964844 16.699219 " fill-opacity="1" fill-rule="nonzero"/><path fill="#f2f2f2" d="M 23.015625 20.039062 C 23.023438 20.015625 23.050781 20.003906 23.070312 20.015625 C 23.199219 20.0625 23.328125 20.117188 23.464844 20.171875 C 24.242188 20.484375 25.171875 20.859375 26.09375 21.152344 C 26.117188 21.15625 26.128906 21.183594 26.121094 21.207031 C 26.113281 21.226562 26.089844 21.242188 26.066406 21.234375 C 25.144531 20.941406 24.207031 20.5625 23.433594 20.253906 C 23.296875 20.199219 23.164062 20.144531 23.039062 20.09375 C 23.015625 20.085938 23.007812 20.0625 23.015625 20.039062 Z M 23.015625 20.039062 " fill-opacity="1" fill-rule="evenodd"/><path fill="#f2f2f2" d="M 22.101562 17.882812 C 22.101562 17.855469 22.125 17.839844 22.148438 17.839844 C 22.851562 17.878906 24.324219 18.046875 25.632812 18.203125 C 26.183594 18.273438 26.707031 18.335938 27.132812 18.390625 C 27.210938 18.398438 27.289062 18.410156 27.359375 18.417969 C 27.589844 18.445312 27.78125 18.46875 27.917969 18.484375 C 27.984375 18.492188 28.042969 18.5 28.082031 18.503906 C 28.101562 18.507812 28.117188 18.507812 28.128906 18.507812 C 28.136719 18.511719 28.140625 18.511719 28.144531 18.511719 C 28.144531 18.511719 28.148438 18.511719 28.148438 18.511719 C 28.171875 18.511719 28.191406 18.53125 28.191406 18.554688 C 28.191406 18.578125 28.171875 18.597656 28.148438 18.597656 C 28.136719 18.597656 28.109375 18.59375 28.070312 18.589844 C 28.03125 18.585938 27.976562 18.582031 27.90625 18.570312 C 27.769531 18.554688 27.578125 18.53125 27.347656 18.503906 C 27.277344 18.496094 27.203125 18.484375 27.121094 18.476562 C 26.695312 18.421875 26.171875 18.359375 25.621094 18.292969 C 24.3125 18.132812 22.84375 17.964844 22.144531 17.925781 C 22.117188 17.925781 22.101562 17.90625 22.101562 17.882812 Z M 22.101562 17.882812 " fill-opacity="1" fill-rule="evenodd"/><path fill="#759df5" d="M 22.632812 31.792969 C 22.511719 30.804688 23.226562 29.796875 23.34375 29.570312 L 23.636719 29.636719 C 23.832031 29.570312 24.015625 29.441406 24.304688 29.441406 C 24.78125 29.441406 24.695312 29.699219 24.996094 29.742188 C 25.105469 29.738281 25.210938 29.726562 25.308594 29.714844 C 25.351562 29.707031 25.394531 29.734375 25.40625 29.777344 C 25.625 30.597656 25.808594 31.199219 25.632812 31.976562 C 25.539062 32.398438 22.703125 32.375 22.632812 31.792969 Z M 22.632812 31.792969 " fill-opacity="1" fill-rule="nonzero"/><path fill="#253036" d="M 24.179688 30.386719 C 23.945312 30.382812 23.714844 30.390625 23.570312 30.398438 C 23.546875 30.398438 23.527344 30.378906 23.523438 30.355469 C 23.523438 30.332031 23.542969 30.3125 23.566406 30.308594 C 23.710938 30.300781 23.945312 30.296875 24.179688 30.300781 C 24.410156 30.304688 24.648438 30.320312 24.792969 30.355469 C 24.816406 30.359375 24.828125 30.382812 24.824219 30.40625 C 24.816406 30.429688 24.792969 30.445312 24.769531 30.4375 C 24.636719 30.40625 24.410156 30.390625 24.179688 30.386719 Z M 23.113281 30.828125 C 23.109375 30.828125 23.101562 30.832031 23.089844 30.832031 C 23.066406 30.832031 23.046875 30.8125 23.046875 30.789062 C 23.046875 30.765625 23.066406 30.746094 23.089844 30.746094 C 23.09375 30.742188 23.097656 30.742188 23.105469 30.738281 C 23.113281 30.734375 23.128906 30.730469 23.152344 30.71875 C 23.160156 30.714844 23.171875 30.710938 23.183594 30.707031 C 23.21875 30.691406 23.261719 30.671875 23.308594 30.648438 C 23.4375 30.59375 23.613281 30.527344 23.820312 30.484375 C 24.226562 30.394531 24.75 30.394531 25.238281 30.753906 C 25.257812 30.765625 25.261719 30.792969 25.25 30.8125 C 25.234375 30.832031 25.207031 30.835938 25.1875 30.824219 C 24.726562 30.484375 24.230469 30.484375 23.835938 30.570312 C 23.640625 30.613281 23.46875 30.675781 23.34375 30.730469 C 23.292969 30.75 23.253906 30.769531 23.21875 30.785156 C 23.207031 30.789062 23.195312 30.792969 23.1875 30.800781 C 23.164062 30.808594 23.148438 30.816406 23.132812 30.820312 C 23.128906 30.824219 23.121094 30.828125 23.113281 30.828125 Z M 22.832031 31.382812 C 22.839844 31.359375 22.867188 31.347656 22.886719 31.355469 C 23.136719 31.441406 23.5625 31.550781 24.027344 31.601562 C 24.488281 31.652344 24.984375 31.640625 25.371094 31.488281 C 25.394531 31.476562 25.417969 31.488281 25.425781 31.511719 C 25.4375 31.535156 25.425781 31.558594 25.402344 31.566406 C 24.996094 31.726562 24.484375 31.738281 24.015625 31.6875 C 23.546875 31.636719 23.117188 31.527344 22.859375 31.4375 C 22.839844 31.429688 22.824219 31.40625 22.832031 31.382812 Z M 22.832031 31.382812 " fill-opacity="1" fill-rule="evenodd"/><path fill="#fcbfbc" d="M 25.5 4.796875 C 26.152344 5.046875 26.933594 4.625 27.136719 3.671875 C 27.453125 4.195312 27.589844 4.71875 28.070312 4.824219 C 28.136719 4.75 28.238281 4.640625 28.328125 4.585938 C 28.445312 4.519531 28.566406 4.503906 28.65625 4.625 C 28.882812 4.925781 28.574219 5.667969 28.082031 5.753906 C 27.964844 6.472656 27.53125 7.230469 26.792969 7.269531 C 26.050781 7.230469 25.617188 6.472656 25.5 5.753906 C 25.007812 5.667969 24.699219 4.925781 24.925781 4.625 C 25.089844 4.410156 25.34375 4.628906 25.5 4.796875 Z M 25.5 4.796875 " fill-opacity="1" fill-rule="nonzero"/><path fill="#253036" d="M 25.878906 6.792969 C 25.65625 6.5 25.515625 6.125 25.457031 5.761719 L 25.542969 5.746094 C 25.601562 6.101562 25.738281 6.460938 25.945312 6.742188 C 26.15625 7.015625 26.4375 7.207031 26.792969 7.226562 C 27.144531 7.207031 27.425781 7.015625 27.636719 6.742188 C 27.847656 6.460938 27.980469 6.101562 28.039062 5.746094 L 28.125 5.761719 C 28.066406 6.125 27.925781 6.5 27.707031 6.792969 C 27.484375 7.085938 27.179688 7.292969 26.792969 7.3125 L 26.789062 7.3125 C 26.402344 7.292969 26.097656 7.085938 25.878906 6.792969 Z M 25.878906 6.792969 " fill-opacity="1" fill-rule="evenodd"/><path fill="#3e77f4" d="M 23.761719 8.878906 C 23.960938 8.53125 24.582031 8.359375 25.40625 8.226562 C 25.65625 8.496094 26.246094 8.679688 26.683594 8.734375 C 27.121094 8.679688 27.800781 8.496094 28.050781 8.226562 C 28.65625 8.226562 29.304688 8.300781 29.609375 8.878906 C 29.851562 9.40625 30.53125 10.816406 31.015625 11.664062 C 30.652344 12.324219 29.796875 12.675781 29.417969 12.765625 C 29.394531 12.71875 29.375 12.667969 29.351562 12.621094 C 29.144531 13.679688 29.066406 15.863281 29.609375 17.273438 C 28.945312 17.574219 27.875 18.054688 26.445312 18.054688 C 25.015625 18.054688 24.421875 17.574219 23.761719 17.273438 C 24.300781 15.863281 24.226562 13.679688 24.015625 12.621094 C 23.992188 12.667969 23.972656 12.71875 23.953125 12.765625 C 23.292969 12.90625 22.417969 12.183594 22.289062 11.664062 C 22.894531 10.53125 23.285156 9.707031 23.761719 8.878906 Z M 23.761719 8.878906 " fill-opacity="1" fill-rule="nonzero"/><path fill="#253036" d="M 24.421875 11.621094 C 24.445312 11.628906 24.457031 11.652344 24.453125 11.675781 C 24.363281 11.976562 24.253906 12.207031 24.144531 12.445312 C 24.125 12.484375 24.109375 12.523438 24.089844 12.5625 C 24.078125 12.585938 24.054688 12.59375 24.03125 12.582031 C 24.011719 12.574219 24 12.546875 24.011719 12.527344 C 24.027344 12.484375 24.046875 12.445312 24.066406 12.40625 C 24.175781 12.171875 24.28125 11.945312 24.367188 11.648438 C 24.375 11.628906 24.398438 11.613281 24.421875 11.621094 Z M 28.945312 11.621094 C 28.96875 11.613281 28.992188 11.628906 29 11.648438 C 29.089844 11.945312 29.195312 12.171875 29.304688 12.40625 C 29.320312 12.445312 29.339844 12.484375 29.359375 12.527344 C 29.367188 12.546875 29.359375 12.574219 29.335938 12.582031 C 29.316406 12.59375 29.289062 12.585938 29.277344 12.5625 C 29.261719 12.523438 29.242188 12.484375 29.226562 12.445312 C 29.113281 12.207031 29.007812 11.976562 28.917969 11.675781 C 28.910156 11.652344 28.921875 11.628906 28.945312 11.621094 Z M 28.945312 11.621094 " fill-opacity="1" fill-rule="evenodd"/><path fill="#253036" d="M 27.476562 5.601562 C 27.476562 5.6875 27.429688 5.757812 27.375 5.757812 C 27.316406 5.757812 27.269531 5.6875 27.269531 5.601562 C 27.269531 5.515625 27.316406 5.445312 27.375 5.445312 C 27.429688 5.445312 27.476562 5.515625 27.476562 5.601562 Z M 27.476562 5.601562 " fill-opacity="1" fill-rule="nonzero"/><path fill="#253036" d="M 26.265625 5.601562 C 26.265625 5.6875 26.21875 5.757812 26.160156 5.757812 C 26.101562 5.757812 26.054688 5.6875 26.054688 5.601562 C 26.054688 5.515625 26.101562 5.445312 26.160156 5.445312 C 26.21875 5.445312 26.265625 5.515625 26.265625 5.601562 Z M 26.265625 5.601562 " fill-opacity="1" fill-rule="nonzero"/><path fill="#253036" d="M 26.097656 4.703125 C 25.816406 4.703125 25.578125 4.972656 25.578125 5.3125 C 25.578125 5.65625 25.816406 5.921875 26.097656 5.921875 C 26.382812 5.921875 26.621094 5.65625 26.621094 5.3125 C 26.621094 4.972656 26.382812 4.703125 26.097656 4.703125 Z M 25.492188 5.3125 C 25.492188 4.933594 25.757812 4.617188 26.097656 4.617188 C 26.414062 4.617188 26.664062 4.890625 26.703125 5.230469 C 26.730469 5.214844 26.761719 5.203125 26.792969 5.203125 C 26.824219 5.203125 26.855469 5.214844 26.882812 5.230469 C 26.917969 4.890625 27.171875 4.617188 27.484375 4.617188 C 27.828125 4.617188 28.09375 4.933594 28.09375 5.3125 C 28.09375 5.691406 27.828125 6.007812 27.484375 6.007812 C 27.152344 6.007812 26.886719 5.703125 26.878906 5.332031 C 26.847656 5.304688 26.816406 5.292969 26.792969 5.292969 C 26.769531 5.292969 26.738281 5.304688 26.707031 5.332031 C 26.695312 5.703125 26.433594 6.007812 26.097656 6.007812 C 25.757812 6.007812 25.492188 5.691406 25.492188 5.3125 Z M 27.484375 4.703125 C 27.203125 4.703125 26.964844 4.972656 26.964844 5.3125 C 26.964844 5.65625 27.203125 5.921875 27.484375 5.921875 C 27.765625 5.921875 28.003906 5.65625 28.003906 5.3125 C 28.003906 4.972656 27.765625 4.703125 27.484375 4.703125 Z M 27.484375 4.703125 " fill-opacity="1" fill-rule="evenodd"/><path fill="#253036" d="M 26.730469 6.554688 C 26.632812 6.539062 26.550781 6.480469 26.503906 6.429688 L 26.5625 6.371094 C 26.601562 6.410156 26.671875 6.457031 26.746094 6.46875 C 26.816406 6.480469 26.898438 6.464844 26.976562 6.371094 L 27.042969 6.429688 C 26.945312 6.546875 26.832031 6.574219 26.730469 6.554688 Z M 26.730469 6.554688 " fill-opacity="1" fill-rule="evenodd"/><path fill="#759df5" d="M 22.179688 13.394531 L 31.453125 13.394531 L 31.453125 18.089844 L 22.179688 18.089844 Z M 22.179688 13.394531 " fill-opacity="1" fill-rule="nonzero"/><path fill="#3e77f4" d="M 0.132812 7.335938 L 0.214844 7.328125 C 3.125 7.027344 5.90625 5.957031 8.273438 4.230469 L 9.183594 3.566406 L 10.09375 4.230469 C 12.464844 5.957031 15.246094 7.027344 18.15625 7.328125 L 18.238281 7.335938 L 18.28125 11.449219 C 18.355469 16.933594 13.699219 23.445312 9.183594 26.527344 C 4.671875 23.445312 0.0117188 16.933594 0.0859375 11.449219 Z M 0.132812 7.335938 " fill-opacity="1" fill-rule="nonzero"/><path fill="#759df5" d="M 1.597656 8.5625 L 1.664062 8.558594 C 4.105469 8.300781 6.4375 7.402344 8.421875 5.949219 L 9.183594 5.390625 L 9.945312 5.949219 C 11.933594 7.402344 14.261719 8.300781 16.703125 8.558594 L 16.773438 8.5625 L 16.808594 12.023438 C 16.871094 16.632812 12.96875 22.109375 9.183594 24.699219 C 5.402344 22.109375 1.496094 16.632812 1.558594 12.023438 Z M 1.597656 8.5625 " fill-opacity="1" fill-rule="nonzero"/><path fill="#253036" d="M 9.183594 3.511719 L 10.121094 4.195312 C 12.484375 5.917969 15.257812 6.984375 18.160156 7.285156 C 18.179688 7.289062 18.195312 7.300781 18.199219 7.320312 C 18.203125 7.304688 18.21875 7.292969 18.238281 7.292969 C 18.261719 7.292969 18.28125 7.3125 18.28125 7.335938 L 18.324219 11.449219 C 18.363281 14.203125 17.210938 17.210938 15.492188 19.910156 C 13.769531 22.613281 11.472656 25.019531 9.210938 26.5625 L 9.183594 26.578125 L 9.160156 26.5625 C 6.898438 25.019531 4.601562 22.613281 2.878906 19.910156 C 1.15625 17.210938 0.0078125 14.203125 0.0429688 11.449219 L 0.0859375 7.335938 C 0.0898438 7.3125 0.109375 7.292969 0.132812 7.292969 C 0.148438 7.292969 0.164062 7.304688 0.171875 7.320312 C 0.175781 7.300781 0.191406 7.289062 0.207031 7.285156 C 3.113281 6.984375 5.886719 5.917969 8.25 4.195312 Z M 0.175781 7.347656 L 0.128906 11.449219 C 0.09375 14.179688 1.234375 17.171875 2.953125 19.863281 C 4.664062 22.550781 6.941406 24.9375 9.183594 26.472656 C 11.429688 24.9375 13.707031 22.550781 15.417969 19.863281 C 17.132812 17.171875 18.277344 14.179688 18.238281 11.449219 L 18.195312 7.347656 C 18.1875 7.363281 18.167969 7.375 18.152344 7.371094 C 15.230469 7.066406 12.445312 5.996094 10.070312 4.265625 L 9.183594 3.621094 L 8.300781 4.265625 C 5.925781 5.996094 3.136719 7.066406 0.21875 7.371094 C 0.199219 7.375 0.183594 7.363281 0.175781 7.347656 Z M 0.175781 7.347656 " fill-opacity="1" fill-rule="evenodd"/><path fill="#f2f2f2" d="M 14.699219 11.3125 C 14.445312 11.058594 14.035156 11.058594 13.78125 11.3125 L 8.65625 16.457031 L 6.191406 13.988281 C 5.941406 13.730469 5.527344 13.730469 5.273438 13.988281 C 5.019531 14.242188 5.019531 14.652344 5.273438 14.910156 L 8.65625 18.300781 L 14.699219 12.234375 C 14.953125 11.980469 14.953125 11.566406 14.699219 11.3125 Z M 14.699219 11.3125 " fill-opacity="1" fill-rule="evenodd"/></svg>