<svg xmlns="http://www.w3.org/2000/svg" xmlns:xlink="http://www.w3.org/1999/xlink" width="60" zoomAndPan="magnify" viewBox="0 0 45 37.5" height="50" preserveAspectRatio="xMidYMid meet" version="1.0"><defs><clipPath id="8e3fac1aa2"><path d="M 0.296875 16 L 15 16 L 15 29 L 0.296875 29 Z M 0.296875 16 " clip-rule="nonzero"/></clipPath><clipPath id="5cb73b98a9"><path d="M 0.296875 16 L 15 16 L 15 29 L 0.296875 29 Z M 0.296875 16 " clip-rule="nonzero"/></clipPath><clipPath id="99d08d1bb1"><path d="M 32 25 L 44.457031 25 L 44.457031 37 L 32 37 Z M 32 25 " clip-rule="nonzero"/></clipPath><clipPath id="2ce89b67fb"><path d="M 38 30 L 44.457031 30 L 44.457031 37 L 38 37 Z M 38 30 " clip-rule="nonzero"/></clipPath><clipPath id="248e640374"><path d="M 15 29 L 30 29 L 30 37.007812 L 15 37.007812 Z M 15 29 " clip-rule="nonzero"/></clipPath><clipPath id="647a064a8e"><path d="M 25 29 L 36 29 L 36 37.007812 L 25 37.007812 Z M 25 29 " clip-rule="nonzero"/></clipPath></defs><path fill="#dee8ff" d="M 41.835938 18.246094 C 41.5625 16.21875 39.652344 14.152344 36.785156 13.792969 C 32.523438 13.265625 28.714844 16.558594 24.449219 16.050781 C 21.441406 15.691406 19.542969 13.554688 18.773438 11.496094 C 18.007812 9.4375 17.949219 7.230469 16.695312 5.292969 C 16.054688 4.304688 14.917969 3.332031 13.371094 3.234375 C 12.203125 3.164062 11.070312 3.628906 10.332031 4.265625 C 9.589844 4.898438 9.175781 5.683594 8.808594 6.460938 C 6.632812 11.0625 5.664062 15.945312 5.960938 20.785156 C 6.105469 23.128906 6.554688 25.5 7.859375 27.660156 C 9.160156 29.824219 11.390625 31.78125 14.40625 32.820312 C 17.472656 33.875 21.066406 33.902344 24.457031 33.570312 C 28.3125 33.195312 32.15625 32.355469 35.265625 30.71875 C 37.308594 29.640625 39.058594 28.21875 39.980469 26.546875 C 42.222656 22.472656 42.003906 19.457031 41.835938 18.246094 Z M 41.835938 18.246094 " fill-opacity="0.8" fill-rule="nonzero"/><g clip-path="url(#8e3fac1aa2)"><path fill="#ffffff" d="M 14.125 18.253906 L 14.125 27.601562 C 14.125 28.335938 13.535156 28.929688 12.804688 28.929688 L 1.425781 28.929688 C 0.699219 28.929688 0.105469 28.335938 0.105469 27.601562 L 0.105469 18.253906 C 0.105469 17.519531 0.699219 16.925781 1.425781 16.925781 L 12.804688 16.925781 C 13.535156 16.925781 14.125 17.519531 14.125 18.253906 Z M 14.125 18.253906 " fill-opacity="1" fill-rule="nonzero"/></g><path fill="#3d3936" d="M 14.519531 35.921875 L 9.09375 35.921875 C 7.636719 35.921875 6.449219 34.726562 6.449219 33.261719 L 6.449219 28.894531 C 6.449219 28.871094 6.46875 28.851562 6.492188 28.851562 C 6.515625 28.851562 6.535156 28.871094 6.535156 28.894531 L 6.535156 33.261719 C 6.535156 34.679688 7.683594 35.832031 9.09375 35.832031 L 14.519531 35.832031 C 14.542969 35.832031 14.5625 35.851562 14.5625 35.875 C 14.5625 35.902344 14.542969 35.921875 14.519531 35.921875 Z M 14.519531 35.921875 " fill-opacity="1" fill-rule="nonzero"/><g clip-path="url(#5cb73b98a9)"><path fill="#3d3936" d="M 12.804688 28.972656 L 1.425781 28.972656 C 0.675781 28.972656 0.0625 28.359375 0.0625 27.601562 L 0.0625 18.253906 C 0.0625 17.5 0.675781 16.882812 1.425781 16.882812 L 12.804688 16.882812 C 13.554688 16.882812 14.167969 17.5 14.167969 18.253906 L 14.167969 27.601562 C 14.167969 28.359375 13.554688 28.972656 12.804688 28.972656 Z M 1.425781 16.96875 C 0.722656 16.96875 0.152344 17.546875 0.152344 18.253906 L 0.152344 27.601562 C 0.152344 28.3125 0.722656 28.886719 1.425781 28.886719 L 12.804688 28.886719 C 13.507812 28.886719 14.082031 28.3125 14.082031 27.601562 L 14.082031 18.253906 C 14.082031 17.546875 13.507812 16.96875 12.804688 16.96875 Z M 1.425781 16.96875 " fill-opacity="1" fill-rule="nonzero"/></g><path fill="#f66b78" d="M 12.722656 15.785156 L 10.078125 19.683594 L 4.113281 18.429688 L 4.632812 23.101562 L 5.753906 23.066406 C 5.722656 23.023438 5.898438 23.277344 5.230469 22.320312 L 10.136719 22.878906 C 10.679688 22.941406 11.214844 22.683594 11.507812 22.21875 L 14.757812 17.054688 Z M 12.722656 15.785156 " fill-opacity="1" fill-rule="nonzero"/><path fill="#ffffff" d="M 41.96875 4.964844 L 41.96875 15.960938 C 41.96875 17.023438 41.113281 17.882812 40.058594 17.882812 L 26.152344 17.882812 C 25.097656 17.882812 24.242188 17.023438 24.242188 15.960938 L 24.242188 4.964844 C 24.242188 3.902344 25.097656 3.042969 26.152344 3.042969 L 40.058594 3.042969 C 41.113281 3.042969 41.96875 3.902344 41.96875 4.964844 Z M 41.96875 4.964844 " fill-opacity="1" fill-rule="nonzero"/><path fill="#3d3936" d="M 40.058594 17.925781 L 26.152344 17.925781 C 25.074219 17.925781 24.199219 17.046875 24.199219 15.960938 L 24.199219 4.964844 C 24.199219 3.878906 25.074219 3 26.152344 3 L 40.058594 3 C 41.136719 3 42.011719 3.878906 42.011719 4.964844 L 42.011719 15.960938 C 42.011719 17.046875 41.136719 17.925781 40.058594 17.925781 Z M 26.152344 3.085938 C 25.121094 3.085938 24.285156 3.929688 24.285156 4.964844 L 24.285156 15.960938 C 24.285156 16.996094 25.121094 17.839844 26.152344 17.839844 L 40.058594 17.839844 C 41.089844 17.839844 41.925781 16.996094 41.925781 15.960938 L 41.925781 4.964844 C 41.925781 3.929688 41.089844 3.085938 40.058594 3.085938 Z M 26.152344 3.085938 " fill-opacity="1" fill-rule="nonzero"/><path fill="#a3a3f5" d="M 41.96875 5.214844 L 41.96875 4.964844 C 41.96875 3.902344 41.113281 3.042969 40.058594 3.042969 L 26.152344 3.042969 C 25.097656 3.042969 24.242188 3.902344 24.242188 4.964844 L 24.242188 5.214844 Z M 41.96875 5.214844 " fill-opacity="1" fill-rule="nonzero"/><path fill="#3d3936" d="M 41.96875 5.257812 L 24.242188 5.257812 C 24.21875 5.257812 24.199219 5.238281 24.199219 5.214844 L 24.199219 4.964844 C 24.199219 3.878906 25.074219 3 26.152344 3 L 40.058594 3 C 41.136719 3 42.011719 3.878906 42.011719 4.964844 L 42.011719 5.214844 C 42.011719 5.238281 41.992188 5.257812 41.96875 5.257812 Z M 24.285156 5.171875 L 41.925781 5.171875 L 41.925781 4.964844 C 41.925781 3.929688 41.089844 3.085938 40.058594 3.085938 L 26.152344 3.085938 C 25.121094 3.085938 24.285156 3.929688 24.285156 4.964844 Z M 24.285156 5.171875 " fill-opacity="1" fill-rule="nonzero"/><path fill="#ffa18a" d="M 25.289062 10.4375 L 21.375 11.183594 L 17.746094 6.285156 C 17.457031 5.894531 16.914062 5.808594 16.519531 6.085938 L 15.40625 6.867188 L 19.992188 13.648438 C 20.335938 14.160156 20.945312 14.429688 21.554688 14.34375 L 26.484375 13.628906 Z M 25.289062 10.4375 " fill-opacity="1" fill-rule="nonzero"/><path fill="#ffffff" d="M 22.539062 7.78125 L 22.539062 20.238281 C 22.539062 20.9375 21.976562 21.5 21.285156 21.5 L 12.007812 21.5 C 11.3125 21.5 10.75 20.9375 10.75 20.238281 L 10.75 7.78125 C 10.75 7.085938 11.3125 6.519531 12.007812 6.519531 L 21.285156 6.519531 C 21.976562 6.519531 22.539062 7.085938 22.539062 7.78125 Z M 22.539062 7.78125 " fill-opacity="1" fill-rule="nonzero"/><path fill="#3d3936" d="M 21.285156 21.546875 L 12.007812 21.546875 C 11.289062 21.546875 10.707031 20.960938 10.707031 20.238281 L 10.707031 7.78125 C 10.707031 7.0625 11.289062 6.476562 12.007812 6.476562 L 21.285156 6.476562 C 22 6.476562 22.582031 7.0625 22.582031 7.78125 L 22.582031 20.238281 C 22.582031 20.960938 22 21.546875 21.285156 21.546875 Z M 12.007812 6.5625 C 11.335938 6.5625 10.792969 7.109375 10.792969 7.78125 L 10.792969 20.238281 C 10.792969 20.910156 11.335938 21.457031 12.007812 21.457031 L 21.285156 21.457031 C 21.953125 21.457031 22.496094 20.910156 22.496094 20.238281 L 22.496094 7.78125 C 22.496094 7.109375 21.953125 6.5625 21.285156 6.5625 Z M 12.007812 6.5625 " fill-opacity="1" fill-rule="nonzero"/><path fill="#a3a3f5" d="M 16.015625 15.464844 C 14.644531 16.050781 14 17.644531 14.578125 19.023438 C 15.160156 20.40625 16.742188 21.054688 18.117188 20.472656 C 19.492188 19.886719 20.136719 18.296875 19.558594 16.914062 C 18.976562 15.53125 17.390625 14.882812 16.015625 15.464844 Z M 17.839844 19.808594 C 16.828125 20.234375 15.667969 19.757812 15.238281 18.746094 C 14.8125 17.730469 15.289062 16.558594 16.296875 16.132812 C 17.304688 15.703125 18.46875 16.179688 18.894531 17.195312 C 19.320312 18.207031 18.847656 19.378906 17.839844 19.808594 Z M 17.839844 19.808594 " fill-opacity="1" fill-rule="nonzero"/><path fill="#a3a3f5" d="M 18.394531 20.335938 L 19.863281 23.84375 C 19.929688 24 19.855469 24.179688 19.703125 24.246094 C 19.625 24.277344 19.539062 24.273438 19.46875 24.246094 C 19.394531 24.21875 19.335938 24.160156 19.300781 24.082031 L 17.832031 20.574219 C 17.925781 20.546875 18.023438 20.511719 18.117188 20.472656 C 18.210938 20.429688 18.304688 20.386719 18.394531 20.335938 Z M 18.394531 20.335938 " fill-opacity="1" fill-rule="nonzero"/><path fill="#3d3936" d="M 14.539062 19.042969 C 13.949219 17.640625 14.605469 16.019531 16 15.425781 C 17.394531 14.835938 19.007812 15.496094 19.597656 16.894531 C 20.1875 18.300781 19.53125 19.917969 18.132812 20.511719 C 16.734375 21.105469 15.125 20.4375 14.539062 19.042969 Z M 16.035156 15.507812 C 14.683594 16.078125 14.050781 17.652344 14.617188 19.007812 C 15.1875 20.367188 16.75 21.003906 18.101562 20.429688 C 19.453125 19.859375 20.089844 18.292969 19.515625 16.929688 C 18.945312 15.574219 17.386719 14.933594 16.035156 15.507812 Z M 15.199219 18.761719 C 14.765625 17.726562 15.25 16.527344 16.28125 16.09375 C 17.308594 15.65625 18.5 16.140625 18.933594 17.175781 C 19.371094 18.210938 18.886719 19.410156 17.855469 19.847656 C 16.824219 20.285156 15.632812 19.792969 15.199219 18.761719 Z M 16.3125 16.171875 C 15.328125 16.589844 14.863281 17.738281 15.28125 18.726562 C 15.695312 19.71875 16.835938 20.183594 17.820312 19.765625 C 18.808594 19.347656 19.269531 18.203125 18.855469 17.210938 C 18.441406 16.226562 17.304688 15.75 16.3125 16.171875 Z M 17.839844 19.808594 Z M 17.839844 19.808594 " fill-opacity="1" fill-rule="nonzero"/><path fill="#3d3936" d="M 19.453125 24.285156 C 19.367188 24.25 19.296875 24.183594 19.261719 24.097656 L 17.789062 20.59375 C 17.78125 20.566406 17.792969 20.539062 17.816406 20.53125 C 17.914062 20.503906 18.011719 20.46875 18.101562 20.429688 C 18.191406 20.394531 18.285156 20.347656 18.371094 20.296875 C 18.394531 20.285156 18.421875 20.296875 18.433594 20.320312 L 19.90625 23.824219 C 19.980469 24.003906 19.894531 24.210938 19.71875 24.285156 C 19.632812 24.320312 19.539062 24.320312 19.453125 24.285156 Z M 17.890625 20.601562 L 19.339844 24.066406 C 19.367188 24.128906 19.417969 24.179688 19.484375 24.207031 C 19.550781 24.230469 19.621094 24.230469 19.683594 24.203125 C 19.820312 24.148438 19.878906 23.992188 19.824219 23.859375 L 18.371094 20.398438 C 18.292969 20.441406 18.214844 20.476562 18.132812 20.511719 C 18.054688 20.546875 17.972656 20.574219 17.890625 20.601562 Z M 17.890625 20.601562 " fill-opacity="1" fill-rule="nonzero"/><path fill="#3d3936" d="M 24.789062 13.875 L 26.484375 13.628906 L 25.289062 10.4375 L 24.167969 10.648438 Z M 24.789062 13.875 " fill-opacity="1" fill-rule="nonzero"/><path fill="#52adff" d="M 28.570312 13.675781 L 29.261719 17.894531 L 38.675781 17.894531 L 37.488281 13.585938 L 39.953125 12.1875 L 38.722656 8.9375 C 38.136719 7.390625 36.46875 6.554688 34.886719 7.011719 L 23.921875 10.1875 L 25.742188 14.457031 Z M 28.570312 13.675781 " fill-opacity="1" fill-rule="nonzero"/><path fill="#ffa18a" d="M 32.964844 7.554688 L 32.023438 9.308594 L 30.96875 8.148438 L 30.589844 6.6875 C 30.703125 6.6875 30.816406 6.679688 30.929688 6.660156 C 31.832031 6.523438 32.339844 5.917969 32.453125 5.117188 Z M 32.964844 7.554688 " fill-opacity="1" fill-rule="nonzero"/><path fill="#189aea" d="M 28.472656 12.546875 L 27.445312 13.988281 L 28.570312 13.65625 Z M 28.472656 12.546875 " fill-opacity="1" fill-rule="nonzero"/><path fill="#3d3936" d="M 31.992188 9.339844 L 30.933594 8.179688 C 30.917969 8.160156 30.921875 8.132812 30.9375 8.117188 C 30.957031 8.101562 30.984375 8.101562 31 8.117188 L 32.011719 9.234375 L 32.925781 7.53125 C 32.9375 7.511719 32.964844 7.503906 32.984375 7.515625 C 33.003906 7.527344 33.011719 7.550781 33 7.574219 L 32.058594 9.328125 C 32.046875 9.355469 32.011719 9.359375 31.992188 9.339844 Z M 31.992188 9.339844 " fill-opacity="1" fill-rule="nonzero"/><path fill="#ffa18a" d="M 16.054688 6.21875 C 15.902344 6.429688 15.957031 6.71875 16.011719 7.011719 C 16.023438 7.097656 16.097656 7.167969 16.191406 7.175781 C 16.261719 7.179688 16.324219 7.148438 16.363281 7.097656 C 16.363281 7.101562 16.367188 7.109375 16.367188 7.117188 C 16.378906 7.175781 16.414062 7.226562 16.464844 7.253906 C 16.539062 7.296875 16.636719 7.289062 16.703125 7.222656 C 16.707031 7.253906 16.710938 7.285156 16.71875 7.3125 C 16.734375 7.40625 16.808594 7.472656 16.898438 7.476562 C 17.011719 7.484375 17.101562 7.402344 17.113281 7.300781 C 17.144531 7.347656 17.199219 7.382812 17.261719 7.386719 C 17.394531 7.394531 17.496094 7.277344 17.472656 7.144531 C 17.390625 6.691406 17.460938 6.472656 17.460938 6.472656 L 17.726562 6.550781 C 17.800781 6.570312 17.878906 6.542969 17.921875 6.476562 C 17.976562 6.390625 17.949219 6.277344 17.859375 6.226562 C 17.859375 6.226562 17.515625 6.023438 17.394531 5.972656 C 16.980469 5.792969 16.355469 5.804688 16.054688 6.21875 Z M 16.054688 6.21875 " fill-opacity="1" fill-rule="nonzero"/><path fill="#3d3936" d="M 17.714844 6.589844 L 17.449219 6.511719 C 17.425781 6.507812 17.414062 6.480469 17.417969 6.460938 C 17.425781 6.4375 17.449219 6.421875 17.472656 6.429688 L 17.738281 6.507812 C 17.792969 6.523438 17.855469 6.5 17.886719 6.453125 C 17.898438 6.433594 17.925781 6.425781 17.945312 6.4375 C 17.964844 6.453125 17.972656 6.480469 17.957031 6.5 C 17.90625 6.582031 17.804688 6.617188 17.714844 6.589844 Z M 17.714844 6.589844 " fill-opacity="1" fill-rule="nonzero"/><path fill="#3d3936" d="M 28.570312 13.71875 C 28.546875 13.71875 28.527344 13.703125 28.527344 13.679688 L 28.398438 12.207031 C 28.394531 12.183594 28.414062 12.164062 28.4375 12.160156 C 28.460938 12.160156 28.480469 12.175781 28.484375 12.199219 L 28.613281 13.671875 C 28.617188 13.695312 28.597656 13.71875 28.574219 13.71875 C 28.574219 13.71875 28.570312 13.71875 28.570312 13.71875 Z M 28.570312 13.71875 " fill-opacity="1" fill-rule="nonzero"/><path fill="#ffffff" d="M 17.113281 7.300781 C 17.113281 7.300781 17.0625 6.859375 17.082031 6.613281 " fill-opacity="1" fill-rule="nonzero"/><path fill="#000000" d="M 17.113281 7.34375 C 17.089844 7.34375 17.070312 7.328125 17.070312 7.304688 C 17.066406 7.285156 17.015625 6.855469 17.039062 6.609375 C 17.042969 6.585938 17.0625 6.566406 17.085938 6.570312 C 17.109375 6.574219 17.128906 6.59375 17.125 6.617188 C 17.105469 6.855469 17.15625 7.289062 17.15625 7.292969 C 17.15625 7.320312 17.136719 7.34375 17.113281 7.34375 Z M 17.113281 7.34375 " fill-opacity="1" fill-rule="nonzero"/><path fill="#ffffff" d="M 16.699219 7.25 C 16.699219 7.25 16.6875 7.015625 16.695312 6.796875 " fill-opacity="1" fill-rule="nonzero"/><path fill="#000000" d="M 16.699219 7.296875 C 16.675781 7.296875 16.65625 7.277344 16.65625 7.253906 C 16.65625 7.25 16.644531 7.015625 16.652344 6.792969 C 16.652344 6.769531 16.675781 6.75 16.699219 6.753906 C 16.722656 6.753906 16.742188 6.773438 16.738281 6.796875 C 16.730469 7.015625 16.742188 7.246094 16.742188 7.25 C 16.746094 7.273438 16.726562 7.292969 16.703125 7.296875 C 16.703125 7.296875 16.699219 7.296875 16.699219 7.296875 Z M 16.699219 7.296875 " fill-opacity="1" fill-rule="nonzero"/><path fill="#ffffff" d="M 16.371094 7.113281 C 16.371094 7.113281 16.359375 6.878906 16.367188 6.65625 " fill-opacity="1" fill-rule="nonzero"/><path fill="#000000" d="M 16.328125 7.113281 C 16.328125 7.113281 16.316406 6.875 16.324219 6.65625 C 16.324219 6.632812 16.34375 6.613281 16.367188 6.613281 C 16.390625 6.613281 16.410156 6.636719 16.410156 6.660156 C 16.402344 6.875 16.414062 7.109375 16.414062 7.109375 C 16.414062 7.167969 16.328125 7.171875 16.328125 7.113281 Z M 16.328125 7.113281 " fill-opacity="1" fill-rule="nonzero"/><path fill="#ffa18a" d="M 32.441406 4.269531 C 32.625 5.476562 32.128906 6.476562 30.929688 6.660156 C 29.730469 6.847656 28.609375 6.019531 28.425781 4.816406 C 28.242188 3.609375 29.066406 2.484375 30.261719 2.300781 C 31.460938 2.113281 32.257812 3.066406 32.441406 4.269531 Z M 32.441406 4.269531 " fill-opacity="1" fill-rule="nonzero"/><path fill="#3d3936" d="M 31.785156 2.992188 C 31.785156 2.992188 31.121094 4.292969 32.425781 4.175781 L 32.390625 5.394531 C 32.390625 5.394531 32.882812 5.277344 33.148438 4.835938 C 33.519531 4.222656 34.21875 1.765625 32.480469 1.820312 C 32.480469 1.820312 32.855469 0 29.761719 0.59375 C 27.683594 0.992188 29.339844 2.214844 29.339844 2.214844 C 29.339844 2.214844 28.722656 1.863281 28.011719 2.085938 C 27.207031 2.34375 26.875 3.761719 28.410156 4.261719 C 28.410156 4.261719 28.699219 3.261719 29.886719 2.6875 C 29.832031 2.902344 29.894531 3.175781 30.003906 3.472656 C 30.480469 3.035156 31.074219 2.875 31.785156 2.992188 Z M 31.785156 2.992188 " fill-opacity="1" fill-rule="nonzero"/><path fill="#ffa18a" d="M 32.820312 4.359375 C 32.820312 4.660156 32.578125 4.90625 32.277344 4.90625 C 31.976562 4.90625 31.734375 4.660156 31.734375 4.359375 C 31.734375 4.058594 31.976562 3.8125 32.277344 3.8125 C 32.578125 3.8125 32.820312 4.058594 32.820312 4.359375 Z M 32.820312 4.359375 " fill-opacity="1" fill-rule="nonzero"/><path fill="#3d3936" d="M 32.347656 4.902344 C 32.34375 4.878906 32.359375 4.855469 32.382812 4.851562 C 32.609375 4.800781 32.777344 4.59375 32.777344 4.359375 C 32.777344 4.082031 32.554688 3.855469 32.277344 3.855469 C 32.101562 3.855469 31.9375 3.953125 31.847656 4.105469 C 31.835938 4.125 31.808594 4.132812 31.789062 4.121094 C 31.765625 4.109375 31.761719 4.082031 31.773438 4.0625 C 31.878906 3.882812 32.070312 3.769531 32.277344 3.769531 C 32.601562 3.769531 32.863281 4.035156 32.863281 4.359375 C 32.863281 4.636719 32.667969 4.878906 32.398438 4.9375 C 32.375 4.941406 32.351562 4.925781 32.347656 4.902344 Z M 32.347656 4.902344 " fill-opacity="1" fill-rule="nonzero"/><path fill="#ffffff" d="M 28.628906 4.609375 C 28.640625 4.609375 28.863281 4.777344 29.097656 4.730469 C 29.332031 4.679688 29.480469 4.433594 29.480469 4.433594 C 29.472656 4.429688 29.195312 4.226562 28.949219 4.332031 C 28.75 4.402344 28.628906 4.609375 28.628906 4.609375 Z M 28.628906 4.609375 " fill-opacity="1" fill-rule="nonzero"/><path fill="#3d3936" d="M 28.628906 4.609375 C 28.628906 4.609375 28.8125 4.742188 29.015625 4.738281 C 29.054688 4.597656 29.027344 4.445312 28.949219 4.332031 C 28.75 4.402344 28.628906 4.609375 28.628906 4.609375 Z M 28.628906 4.609375 " fill-opacity="1" fill-rule="nonzero"/><path fill="#ffffff" d="M 30.011719 4.464844 C 30.019531 4.46875 30.289062 4.667969 30.574219 4.613281 C 30.855469 4.554688 31.035156 4.253906 31.035156 4.253906 C 31.035156 4.253906 30.753906 4.050781 30.472656 4.109375 C 30.445312 4.113281 30.417969 4.121094 30.394531 4.132812 C 30.15625 4.21875 30.011719 4.464844 30.011719 4.464844 Z M 30.011719 4.464844 " fill-opacity="1" fill-rule="nonzero"/><path fill="#3d3936" d="M 30.011719 4.464844 C 30.011719 4.464844 30.230469 4.625 30.476562 4.621094 C 30.523438 4.453125 30.492188 4.273438 30.394531 4.132812 C 30.15625 4.21875 30.011719 4.464844 30.011719 4.464844 Z M 30.011719 4.464844 " fill-opacity="1" fill-rule="nonzero"/><path fill="#3d3936" d="M 30.238281 3.835938 C 30.222656 3.820312 30.21875 3.792969 30.234375 3.773438 C 30.253906 3.757812 30.28125 3.757812 30.296875 3.773438 C 30.304688 3.78125 30.507812 3.953125 30.921875 3.707031 C 30.941406 3.695312 30.96875 3.703125 30.980469 3.722656 C 30.992188 3.746094 30.984375 3.769531 30.964844 3.78125 C 30.746094 3.914062 30.417969 4 30.238281 3.835938 Z M 30.238281 3.835938 " fill-opacity="1" fill-rule="nonzero"/><path fill="#3d3936" d="M 28.6875 3.972656 C 28.671875 3.957031 28.667969 3.929688 28.6875 3.910156 C 28.703125 3.894531 28.730469 3.890625 28.746094 3.910156 C 28.757812 3.917969 28.960938 4.089844 29.371094 3.84375 C 29.390625 3.832031 29.417969 3.839844 29.429688 3.859375 C 29.441406 3.878906 29.4375 3.90625 29.414062 3.917969 C 29.195312 4.050781 28.867188 4.136719 28.6875 3.972656 Z M 28.6875 3.972656 " fill-opacity="1" fill-rule="nonzero"/><path fill="#3d3936" d="M 30.300781 6 C 30.144531 6.222656 29.871094 6.230469 29.65625 6.074219 C 29.4375 5.917969 29.3125 5.628906 29.3125 5.628906 C 29.3125 5.628906 29.804688 5.84375 30.441406 5.460938 C 30.441406 5.460938 30.445312 5.785156 30.300781 6 Z M 30.300781 6 " fill-opacity="1" fill-rule="nonzero"/><path fill="#ffffff" d="M 30.203125 5.964844 C 30.09375 6.125 29.902344 6.128906 29.753906 6.019531 C 29.863281 5.863281 30.054688 5.859375 30.203125 5.964844 Z M 30.203125 5.964844 " fill-opacity="1" fill-rule="nonzero"/><path fill="#3d3936" d="M 29.574219 5.105469 C 29.550781 5.09375 29.539062 5.070312 29.546875 5.046875 L 29.6875 4.699219 C 29.699219 4.667969 29.742188 4.664062 29.761719 4.691406 L 29.957031 4.972656 C 29.96875 4.996094 29.964844 5.019531 29.945312 5.035156 C 29.925781 5.046875 29.898438 5.042969 29.886719 5.023438 L 29.738281 4.808594 L 29.628906 5.078125 C 29.621094 5.101562 29.59375 5.113281 29.574219 5.105469 Z M 29.574219 5.105469 " fill-opacity="1" fill-rule="nonzero"/><path fill="#3d3936" d="M 32.082031 4.421875 C 32.070312 4.195312 32.265625 4.109375 32.367188 4.09375 C 32.390625 4.089844 32.414062 4.109375 32.417969 4.132812 C 32.421875 4.15625 32.402344 4.175781 32.378906 4.179688 C 32.371094 4.183594 32.15625 4.214844 32.171875 4.414062 C 32.171875 4.4375 32.152344 4.460938 32.128906 4.460938 C 32.105469 4.460938 32.085938 4.441406 32.082031 4.421875 Z M 32.082031 4.421875 " fill-opacity="1" fill-rule="nonzero"/><path fill="#3d3936" d="M 32.089844 4.398438 C 32.078125 4.378906 32.082031 4.351562 32.105469 4.339844 C 32.113281 4.332031 32.332031 4.207031 32.453125 4.328125 C 32.46875 4.347656 32.46875 4.375 32.453125 4.390625 C 32.433594 4.40625 32.40625 4.40625 32.390625 4.390625 C 32.316406 4.316406 32.148438 4.414062 32.148438 4.414062 C 32.128906 4.425781 32.101562 4.417969 32.089844 4.398438 Z M 32.089844 4.398438 " fill-opacity="1" fill-rule="nonzero"/><path fill="#3d3936" d="M 30.589844 6.6875 C 30.589844 6.6875 31.40625 6.742188 31.9375 6.1875 C 31.9375 6.1875 31.773438 7.046875 30.765625 7.375 Z M 30.589844 6.6875 " fill-opacity="1" fill-rule="nonzero"/><path fill="#ffffff" d="M 34.753906 13.160156 C 34.753906 14.152344 33.738281 14.960938 32.480469 14.960938 C 31.222656 14.960938 30.203125 14.152344 30.203125 13.160156 C 30.203125 12.164062 31.222656 11.359375 32.480469 11.359375 C 33.738281 11.359375 34.753906 12.164062 34.753906 13.160156 Z M 34.753906 13.160156 " fill-opacity="1" fill-rule="nonzero"/><path fill="#3d3936" d="M 36.445312 16.929688 L 29.097656 16.929688 C 29.074219 16.929688 29.054688 16.910156 29.054688 16.886719 C 29.054688 16.863281 29.074219 16.84375 29.097656 16.84375 L 36.445312 16.84375 C 36.46875 16.84375 36.488281 16.863281 36.488281 16.886719 C 36.488281 16.910156 36.46875 16.929688 36.445312 16.929688 Z M 36.445312 16.929688 " fill-opacity="1" fill-rule="nonzero"/><path fill="#ffa18a" d="M 19.632812 21.6875 C 19.742188 21.617188 19.886719 21.644531 19.957031 21.738281 C 20.042969 21.84375 20.023438 22 19.910156 22.082031 L 19.644531 22.257812 C 19.742188 22.191406 19.882812 22.210938 19.972656 22.316406 C 20.058594 22.421875 20.035156 22.582031 19.925781 22.660156 L 19.6875 22.839844 C 19.800781 22.765625 19.933594 22.796875 20.007812 22.894531 C 20.09375 23 20.074219 23.160156 19.964844 23.238281 L 19.816406 23.351562 C 19.96875 23.417969 20.007812 23.648438 19.855469 23.761719 L 18.671875 24.554688 L 18.328125 24.785156 L 17.316406 22.980469 L 17.574219 22.847656 L 18.230469 21.5 L 18.574219 22.382812 Z M 19.632812 21.6875 " fill-opacity="1" fill-rule="nonzero"/><path fill="#3d3936" d="M 18.671875 24.554688 L 18.328125 24.785156 L 17.316406 22.980469 L 17.414062 22.929688 Z M 18.671875 24.554688 " fill-opacity="1" fill-rule="nonzero"/><path fill="#3d3936" d="M 19.328125 22.457031 C 19.3125 22.433594 19.320312 22.40625 19.339844 22.394531 L 19.65625 22.191406 C 19.675781 22.179688 19.703125 22.183594 19.714844 22.207031 C 19.726562 22.226562 19.722656 22.253906 19.703125 22.265625 L 19.386719 22.46875 C 19.367188 22.480469 19.339844 22.476562 19.328125 22.457031 Z M 19.328125 22.457031 " fill-opacity="1" fill-rule="nonzero"/><path fill="#3d3936" d="M 19.386719 23.035156 C 19.371094 23.015625 19.378906 22.988281 19.398438 22.976562 L 19.714844 22.773438 C 19.734375 22.761719 19.761719 22.765625 19.773438 22.785156 C 19.785156 22.808594 19.78125 22.835938 19.761719 22.847656 L 19.445312 23.050781 C 19.425781 23.0625 19.398438 23.058594 19.386719 23.035156 Z M 19.386719 23.035156 " fill-opacity="1" fill-rule="nonzero"/><path fill="#3d3936" d="M 19.46875 23.574219 C 19.453125 23.550781 19.460938 23.527344 19.480469 23.511719 L 19.796875 23.308594 C 19.816406 23.296875 19.84375 23.300781 19.855469 23.324219 C 19.871094 23.34375 19.863281 23.371094 19.84375 23.382812 L 19.527344 23.585938 C 19.507812 23.597656 19.480469 23.59375 19.46875 23.574219 Z M 19.46875 23.574219 " fill-opacity="1" fill-rule="nonzero"/><path fill="#f66b78" d="M 17.121094 22.628906 L 13.066406 24.699219 L 6.929688 19.300781 C 6.527344 18.953125 6.046875 18.703125 5.527344 18.574219 L 4.644531 18.355469 C 3.519531 18.078125 2.113281 18.738281 1.628906 19.800781 C 1.269531 20.582031 1.082031 26.03125 1.007812 28.894531 L 8.332031 28.894531 L 8.070312 25.621094 L 8.070312 25.589844 L 11.398438 27.878906 C 11.902344 28.234375 12.566406 28.273438 13.105469 27.972656 L 18.441406 24.992188 Z M 17.121094 22.628906 " fill-opacity="1" fill-rule="nonzero"/><path fill="#3d3936" d="M 10.84375 22.800781 L 6.902344 19.332031 C 6.882812 19.316406 6.882812 19.289062 6.898438 19.273438 C 6.914062 19.253906 6.941406 19.253906 6.960938 19.269531 L 10.898438 22.734375 C 10.917969 22.75 10.917969 22.777344 10.902344 22.796875 C 10.886719 22.8125 10.859375 22.816406 10.84375 22.800781 Z M 10.84375 22.800781 " fill-opacity="1" fill-rule="nonzero"/><path fill="#ffa18a" d="M 5.074219 18.097656 L 4.238281 18.097656 L 4.378906 17.109375 L 4.453125 16.582031 C 7.039062 15.886719 6.148438 16.125 6.339844 16.074219 L 6.070312 17.535156 L 6.0625 17.585938 L 5.90625 18.414062 L 5.074219 18.414062 Z M 5.074219 18.097656 " fill-opacity="1" fill-rule="nonzero"/><path fill="#3d3936" d="M 1.472656 20.269531 C 1.449219 20.265625 1.4375 20.242188 1.441406 20.21875 C 1.484375 20.046875 1.535156 19.898438 1.589844 19.78125 C 1.949219 18.996094 2.832031 18.386719 3.785156 18.269531 C 3.808594 18.265625 3.832031 18.285156 3.835938 18.308594 C 3.835938 18.332031 3.820312 18.351562 3.796875 18.355469 C 2.871094 18.46875 2.015625 19.058594 1.667969 19.816406 C 1.613281 19.929688 1.566406 20.070312 1.527344 20.238281 C 1.519531 20.261719 1.496094 20.277344 1.472656 20.269531 Z M 1.472656 20.269531 " fill-opacity="1" fill-rule="nonzero"/><path fill="#d33d57" d="M 8.226562 27.550781 L 6.882812 24.640625 L 8.070312 25.621094 Z M 8.226562 27.550781 " fill-opacity="1" fill-rule="nonzero"/><path fill="#3d3936" d="M 8.039062 25.625 L 6.464844 24.324219 C 6.445312 24.3125 6.445312 24.285156 6.460938 24.265625 C 6.472656 24.246094 6.5 24.242188 6.519531 24.257812 L 8.097656 25.554688 C 8.113281 25.570312 8.117188 25.597656 8.101562 25.617188 C 8.085938 25.636719 8.058594 25.640625 8.039062 25.625 Z M 8.039062 25.625 " fill-opacity="1" fill-rule="nonzero"/><path fill="#3d3936" d="M 5.34375 22.125 C 4.660156 20.996094 5.753906 19.320312 5.800781 19.25 C 5.8125 19.230469 5.839844 19.226562 5.859375 19.238281 C 5.878906 19.253906 5.882812 19.28125 5.871094 19.300781 C 5.859375 19.316406 4.761719 20.996094 5.417969 22.078125 C 5.429688 22.097656 5.425781 22.125 5.402344 22.136719 C 5.382812 22.152344 5.355469 22.144531 5.34375 22.125 Z M 5.34375 22.125 " fill-opacity="1" fill-rule="nonzero"/><path fill="#3d3936" d="M 13.382812 25.265625 L 13.027344 24.722656 C 13.015625 24.699219 13.023438 24.675781 13.042969 24.660156 C 13.0625 24.648438 13.089844 24.652344 13.101562 24.671875 L 13.453125 25.21875 C 13.46875 25.238281 13.460938 25.265625 13.441406 25.28125 C 13.421875 25.292969 13.394531 25.289062 13.382812 25.265625 Z M 13.382812 25.265625 " fill-opacity="1" fill-rule="nonzero"/><path fill="#3d3936" d="M 12.746094 25.292969 C 12.722656 25.28125 12.714844 25.253906 12.726562 25.234375 L 12.875 24.902344 C 12.886719 24.882812 12.910156 24.871094 12.933594 24.882812 C 12.957031 24.890625 12.964844 24.917969 12.953125 24.941406 L 12.804688 25.269531 C 12.792969 25.292969 12.765625 25.300781 12.746094 25.292969 Z M 12.746094 25.292969 " fill-opacity="1" fill-rule="nonzero"/><path fill="#000000" d="M 4.746094 16.75 C 5.046875 17.210938 5.546875 17.523438 6.070312 17.535156 L 6.339844 16.074219 L 4.808594 16.238281 C 4.804688 16.246094 4.742188 16.785156 4.746094 16.75 Z M 4.746094 16.75 " fill-opacity="1" fill-rule="nonzero"/><path fill="#ffa18a" d="M 7.679688 15.078125 C 7.679688 16.289062 6.703125 17.269531 5.5 17.269531 C 5.097656 17.269531 4.71875 17.160156 4.394531 16.96875 C 3.75 16.585938 3.320312 15.882812 3.320312 15.078125 C 3.320312 13.867188 4.296875 12.882812 5.5 12.882812 C 6.320312 12.882812 7.035156 13.339844 7.40625 14.015625 C 7.582031 14.328125 7.679688 14.691406 7.679688 15.078125 Z M 7.679688 15.078125 " fill-opacity="1" fill-rule="nonzero"/><path fill="#000000" d="M 7.777344 13.6875 C 7.546875 14.320312 7.382812 14.324219 5.210938 14.480469 C 5.210938 14.480469 5.371094 15.183594 4.714844 15.199219 C 4.058594 15.210938 3.527344 16.394531 3.527344 16.394531 C 3.527344 16.394531 2.15625 13.039062 3.84375 13.480469 C 3.84375 13.480469 3.664062 12.429688 5.730469 12.175781 C 7.582031 11.949219 7.984375 13.109375 7.777344 13.6875 Z M 7.777344 13.6875 " fill-opacity="1" fill-rule="nonzero"/><path fill="#000000" d="M 5.097656 15.945312 C 5.097656 16.425781 4.710938 16.816406 4.238281 16.816406 C 3.761719 16.816406 3.375 16.425781 3.375 15.945312 C 3.375 15.46875 3.761719 15.078125 4.238281 15.078125 C 4.710938 15.078125 5.097656 15.46875 5.097656 15.945312 Z M 5.097656 15.945312 " fill-opacity="1" fill-rule="nonzero"/><path fill="#ffa18a" d="M 7.652344 14.71875 C 7.652344 14.71875 7.894531 15.3125 8.089844 15.472656 C 8.285156 15.636719 7.910156 15.773438 7.40625 15.511719 " fill-opacity="1" fill-rule="nonzero"/><path fill="#ffa18a" d="M 5.210938 15.570312 C 5.210938 15.839844 4.992188 16.058594 4.722656 16.058594 C 4.453125 16.058594 4.234375 15.839844 4.234375 15.570312 C 4.234375 15.300781 4.453125 15.078125 4.722656 15.078125 C 4.992188 15.078125 5.210938 15.300781 5.210938 15.570312 Z M 5.210938 15.570312 " fill-opacity="1" fill-rule="nonzero"/><path fill="#ffffff" d="M 7.34375 14.996094 C 7.34375 14.996094 7.132812 15.148438 6.894531 15.144531 C 6.5625 15.140625 6.363281 14.792969 6.355469 14.785156 C 6.355469 14.785156 6.628906 14.585938 6.902344 14.644531 C 6.929688 14.652344 6.953125 14.660156 6.976562 14.667969 C 7.207031 14.757812 7.34375 14.996094 7.34375 14.996094 Z M 7.34375 14.996094 " fill-opacity="1" fill-rule="nonzero"/><path fill="#3d3936" d="M 7.34375 14.996094 C 7.34375 14.996094 7.132812 15.148438 6.894531 15.144531 C 6.851562 14.980469 6.882812 14.804688 6.976562 14.667969 C 7.207031 14.757812 7.34375 14.996094 7.34375 14.996094 Z M 7.34375 14.996094 " fill-opacity="1" fill-rule="nonzero"/><path fill="#3d3936" d="M 4.925781 15.621094 C 4.746094 15.371094 4.503906 15.4375 4.496094 15.441406 C 4.472656 15.449219 4.449219 15.4375 4.441406 15.414062 C 4.433594 15.390625 4.445312 15.367188 4.46875 15.359375 C 4.472656 15.359375 4.78125 15.265625 5 15.570312 C 5.011719 15.589844 5.007812 15.617188 4.988281 15.632812 C 4.96875 15.648438 4.941406 15.640625 4.925781 15.621094 Z M 4.925781 15.621094 " fill-opacity="1" fill-rule="nonzero"/><path fill="#3d3936" d="M 4.59375 15.703125 C 4.570312 15.695312 4.558594 15.671875 4.566406 15.648438 C 4.59375 15.566406 4.699219 15.421875 4.917969 15.484375 C 4.9375 15.492188 4.953125 15.515625 4.945312 15.539062 C 4.9375 15.5625 4.914062 15.574219 4.890625 15.570312 C 4.703125 15.515625 4.652344 15.667969 4.648438 15.675781 C 4.640625 15.699219 4.617188 15.710938 4.59375 15.703125 Z M 4.59375 15.703125 " fill-opacity="1" fill-rule="nonzero"/><path fill="#3d3936" d="M 6.824219 16.109375 C 6.804688 16.09375 6.800781 16.066406 6.816406 16.046875 C 6.832031 16.027344 6.859375 16.027344 6.878906 16.039062 C 6.886719 16.046875 7.097656 16.210938 7.363281 16.089844 C 7.382812 16.078125 7.410156 16.089844 7.421875 16.109375 C 7.429688 16.132812 7.421875 16.15625 7.398438 16.167969 C 7.191406 16.265625 6.960938 16.21875 6.824219 16.109375 Z M 6.824219 16.109375 " fill-opacity="1" fill-rule="nonzero"/><path fill="#f66b78" d="M 3.894531 18.3125 L 4.070312 17.859375 C 4.164062 17.621094 4.441406 17.515625 4.667969 17.628906 L 6.027344 18.324219 C 6.238281 18.429688 6.339844 18.675781 6.265625 18.898438 Z M 3.894531 18.3125 " fill-opacity="1" fill-rule="nonzero"/><path fill="#3d3936" d="M 5.851562 14.667969 C 5.832031 14.65625 5.828125 14.628906 5.839844 14.609375 C 6.0625 14.308594 6.523438 14.28125 6.542969 14.28125 C 6.566406 14.28125 6.585938 14.296875 6.589844 14.320312 C 6.589844 14.347656 6.570312 14.367188 6.546875 14.367188 C 6.542969 14.367188 6.109375 14.394531 5.910156 14.660156 C 5.894531 14.679688 5.871094 14.683594 5.851562 14.667969 Z M 5.851562 14.667969 " fill-opacity="1" fill-rule="nonzero"/><path fill="#3d3936" d="M 10.523438 20.070312 L 10.054688 19.71875 C 10.035156 19.707031 10.03125 19.679688 10.042969 19.660156 C 10.058594 19.640625 10.085938 19.636719 10.105469 19.648438 L 10.574219 20 C 10.59375 20.011719 10.597656 20.039062 10.582031 20.058594 C 10.570312 20.078125 10.542969 20.082031 10.523438 20.070312 Z M 10.523438 20.070312 " fill-opacity="1" fill-rule="nonzero"/><path fill="#3d3936" d="M 10.128906 20.34375 L 10.058594 20.011719 C 10.050781 19.988281 10.066406 19.964844 10.089844 19.957031 C 10.113281 19.953125 10.136719 19.96875 10.140625 19.992188 L 10.210938 20.328125 C 10.21875 20.351562 10.203125 20.371094 10.179688 20.378906 C 10.15625 20.382812 10.132812 20.367188 10.128906 20.34375 Z M 10.128906 20.34375 " fill-opacity="1" fill-rule="nonzero"/><path fill="#ffffff" d="M 40.738281 4.214844 C 40.738281 4.414062 40.582031 4.570312 40.382812 4.570312 C 40.1875 4.570312 40.027344 4.414062 40.027344 4.214844 C 40.027344 4.019531 40.1875 3.859375 40.382812 3.859375 C 40.582031 3.859375 40.738281 4.019531 40.738281 4.214844 Z M 40.738281 4.214844 " fill-opacity="1" fill-rule="nonzero"/><path fill="#ffffff" d="M 39.597656 4.214844 C 39.597656 4.414062 39.4375 4.570312 39.242188 4.570312 C 39.046875 4.570312 38.886719 4.414062 38.886719 4.214844 C 38.886719 4.019531 39.046875 3.859375 39.242188 3.859375 C 39.4375 3.859375 39.597656 4.019531 39.597656 4.214844 Z M 39.597656 4.214844 " fill-opacity="1" fill-rule="nonzero"/><path fill="#ffffff" d="M 38.453125 4.214844 C 38.453125 4.414062 38.292969 4.570312 38.097656 4.570312 C 37.902344 4.570312 37.742188 4.414062 37.742188 4.214844 C 37.742188 4.019531 37.902344 3.859375 38.097656 3.859375 C 38.292969 3.859375 38.453125 4.019531 38.453125 4.214844 Z M 38.453125 4.214844 " fill-opacity="1" fill-rule="nonzero"/><path fill="#3d3936" d="M 35.871094 23.550781 L 35.691406 23.550781 C 35.667969 23.550781 35.648438 23.53125 35.648438 23.507812 C 35.648438 23.484375 35.667969 23.464844 35.691406 23.464844 L 35.871094 23.464844 C 35.894531 23.464844 35.914062 23.484375 35.914062 23.507812 C 35.914062 23.53125 35.894531 23.550781 35.871094 23.550781 Z M 35.871094 23.550781 " fill-opacity="1" fill-rule="nonzero"/><path fill="#3d3936" d="M 39.746094 23.671875 C 39.941406 23.71875 40.09375 23.828125 40.199219 24 C 40.304688 24.171875 40.335938 24.355469 40.289062 24.554688 C 40.242188 24.75 40.132812 24.902344 39.960938 25.007812 C 39.792969 25.117188 39.605469 25.144531 39.410156 25.101562 C 39.214844 25.054688 39.0625 24.945312 38.957031 24.769531 C 38.851562 24.597656 38.820312 24.414062 38.867188 24.214844 C 38.914062 24.019531 39.023438 23.867188 39.195312 23.761719 C 39.367188 23.65625 39.550781 23.625 39.746094 23.671875 Z M 39.746094 23.671875 " fill-opacity="1" fill-rule="nonzero"/><path fill="#ffa18a" d="M 33.859375 27.472656 L 30.75 29.550781 L 28.570312 23.945312 L 26.730469 24.714844 L 28.703125 31.808594 C 29.074219 32.929688 30.335938 33.46875 31.398438 32.960938 L 33.339844 32.03125 Z M 33.859375 27.472656 " fill-opacity="1" fill-rule="nonzero"/><path fill="#3d3936" d="M 32.324219 28.546875 L 32.039062 32.65625 L 33.339844 32.03125 L 33.859375 27.472656 Z M 32.324219 28.546875 " fill-opacity="1" fill-rule="nonzero"/><g clip-path="url(#99d08d1bb1)"><path fill="#ffc67b" d="M 34.203125 31.832031 L 34.765625 36.785156 L 44.4375 36.785156 L 42.28125 28.332031 C 41.933594 26.972656 40.722656 26.011719 39.328125 25.992188 L 36.851562 25.957031 C 35.699219 25.941406 34.800781 26.390625 33.695312 27.09375 L 32.234375 28.058594 L 33.042969 32.5625 Z M 34.203125 31.832031 " fill-opacity="1" fill-rule="nonzero"/></g><g clip-path="url(#2ce89b67fb)"><path fill="#e59742" d="M 38.15625 36.777344 L 44.4375 36.777344 L 42.804688 30.390625 Z M 38.15625 36.777344 " fill-opacity="1" fill-rule="nonzero"/></g><path fill="#e59742" d="M 34.035156 29.792969 L 33.859375 32.050781 L 34.203125 31.832031 Z M 34.035156 29.792969 " fill-opacity="1" fill-rule="nonzero"/><path fill="#ffa18a" d="M 39.136719 28.632812 L 37.386719 34.300781 L 31.160156 34.722656 L 31.160156 36.96875 L 37.847656 36.777344 C 38.953125 36.746094 39.921875 36.03125 40.285156 34.980469 L 42.011719 29.972656 Z M 39.136719 28.632812 " fill-opacity="1" fill-rule="nonzero"/><path fill="#ffa18a" d="M 31.160156 34.722656 L 30.867188 34.722656 C 30.089844 34.722656 29.347656 35.101562 28.929688 35.757812 C 28.828125 35.917969 28.761719 36.074219 28.773438 36.195312 C 28.820312 36.691406 31.710938 36.335938 31.710938 36.335938 Z M 31.160156 34.722656 " fill-opacity="1" fill-rule="nonzero"/><path fill="#3d3936" d="M 40.996094 32.921875 L 42.011719 29.972656 L 39.136719 28.632812 L 37.996094 32.316406 Z M 40.996094 32.921875 " fill-opacity="1" fill-rule="nonzero"/><path fill="#ffc67b" d="M 38.828125 28.3125 L 37.976562 31.300781 L 41.347656 32.847656 L 42.242188 30.09375 " fill-opacity="1" fill-rule="nonzero"/><path fill="#3d3936" d="M 41.332031 32.886719 L 37.957031 31.339844 C 37.9375 31.332031 37.929688 31.3125 37.933594 31.289062 L 38.785156 28.300781 C 38.792969 28.277344 38.816406 28.265625 38.839844 28.269531 C 38.863281 28.277344 38.875 28.300781 38.871094 28.324219 L 38.027344 31.277344 L 41.320312 32.789062 L 42.199219 30.082031 C 42.207031 30.058594 42.230469 30.046875 42.253906 30.054688 C 42.277344 30.058594 42.289062 30.085938 42.28125 30.109375 L 41.390625 32.863281 C 41.382812 32.886719 41.355469 32.898438 41.332031 32.886719 Z M 41.332031 32.886719 " fill-opacity="1" fill-rule="nonzero"/><path fill="#3d3936" d="M 37.007812 20.976562 C 37.164062 21.042969 37.300781 21.132812 37.417969 21.253906 C 37.535156 21.371094 37.628906 21.507812 37.691406 21.664062 C 37.757812 21.820312 37.789062 21.984375 37.789062 22.152344 C 37.789062 22.320312 37.757812 22.480469 37.691406 22.636719 C 37.628906 22.792969 37.535156 22.929688 37.417969 23.046875 C 37.300781 23.167969 37.164062 23.257812 37.007812 23.324219 C 36.855469 23.386719 36.691406 23.421875 36.527344 23.421875 C 36.359375 23.421875 36.195312 23.386719 36.042969 23.324219 C 35.886719 23.257812 35.75 23.167969 35.632812 23.046875 C 35.515625 22.929688 35.421875 22.792969 35.359375 22.636719 C 35.296875 22.480469 35.261719 22.320312 35.261719 22.152344 C 35.261719 21.984375 35.296875 21.820312 35.359375 21.664062 C 35.421875 21.507812 35.515625 21.371094 35.632812 21.253906 C 35.75 21.132812 35.886719 21.042969 36.042969 20.976562 C 36.195312 20.914062 36.359375 20.882812 36.527344 20.882812 C 36.691406 20.882812 36.855469 20.914062 37.007812 20.976562 Z M 37.007812 20.976562 " fill-opacity="1" fill-rule="nonzero"/><path fill="#3d3936" d="M 40.90625 23.167969 C 40.90625 23.335938 40.875 23.496094 40.808594 23.652344 C 40.746094 23.808594 40.652344 23.945312 40.535156 24.066406 C 40.417969 24.183594 40.28125 24.277344 40.125 24.339844 C 39.972656 24.40625 39.808594 24.4375 39.644531 24.4375 C 39.476562 24.4375 39.316406 24.40625 39.160156 24.339844 C 39.003906 24.277344 38.867188 24.183594 38.75 24.066406 C 38.632812 23.945312 38.539062 23.808594 38.476562 23.652344 C 38.414062 23.496094 38.378906 23.335938 38.378906 23.167969 C 38.378906 23 38.414062 22.835938 38.476562 22.679688 C 38.539062 22.527344 38.632812 22.390625 38.75 22.269531 C 38.867188 22.152344 39.003906 22.058594 39.160156 21.996094 C 39.316406 21.929688 39.476562 21.898438 39.644531 21.898438 C 39.808594 21.898438 39.972656 21.929688 40.125 21.996094 C 40.28125 22.058594 40.417969 22.152344 40.535156 22.269531 C 40.652344 22.390625 40.746094 22.527344 40.808594 22.679688 C 40.875 22.835938 40.90625 23 40.90625 23.167969 Z M 40.90625 23.167969 " fill-opacity="1" fill-rule="nonzero"/><path fill="#ffffff" d="M 15.410156 29.910156 L 17.84375 36.292969 C 18 36.699219 18.386719 36.96875 18.820312 36.96875 L 29.089844 36.96875 C 29.378906 36.96875 29.578125 36.675781 29.472656 36.40625 L 27.039062 30.023438 C 26.886719 29.617188 26.496094 29.347656 26.066406 29.347656 L 15.792969 29.347656 C 15.503906 29.347656 15.308594 29.640625 15.410156 29.910156 Z M 15.410156 29.910156 " fill-opacity="1" fill-rule="nonzero"/><path fill="#bde3ff" d="M 28.929688 36.261719 L 28.929688 36.96875 L 18.820312 36.96875 C 18.386719 36.96875 18 36.699219 17.84375 36.292969 L 17.832031 36.261719 Z M 28.929688 36.261719 " fill-opacity="0.4" fill-rule="nonzero"/><g clip-path="url(#248e640374)"><path fill="#3d3936" d="M 29.089844 37.011719 L 18.820312 37.011719 C 18.371094 37.011719 17.964844 36.726562 17.804688 36.308594 L 15.371094 29.925781 C 15.257812 29.625 15.476562 29.304688 15.792969 29.304688 L 26.066406 29.304688 C 26.511719 29.304688 26.921875 29.589844 27.082031 30.007812 L 29.515625 36.390625 C 29.628906 36.691406 29.40625 37.011719 29.089844 37.011719 Z M 15.792969 29.394531 C 15.535156 29.394531 15.359375 29.652344 15.449219 29.894531 L 17.882812 36.277344 C 18.03125 36.664062 18.40625 36.921875 18.820312 36.921875 L 29.089844 36.921875 C 29.347656 36.921875 29.527344 36.664062 29.433594 36.421875 L 27 30.039062 C 26.851562 29.652344 26.476562 29.394531 26.066406 29.394531 Z M 15.792969 29.394531 " fill-opacity="1" fill-rule="nonzero"/></g><path fill="#a3a3f5" d="M 25.378906 29.347656 C 25.8125 29.347656 26.199219 29.617188 26.355469 30.023438 L 28.785156 36.40625 C 28.890625 36.675781 28.691406 36.96875 28.402344 36.96875 L 35.238281 36.96875 L 35.238281 36.757812 C 35.238281 36.433594 34.976562 36.167969 34.652344 36.167969 L 29.382812 36.167969 L 27.039062 30.023438 C 26.886719 29.617188 26.496094 29.347656 26.066406 29.347656 Z M 25.378906 29.347656 " fill-opacity="1" fill-rule="nonzero"/><path fill="#8c8ced" d="M 25.378906 29.347656 C 25.8125 29.347656 26.199219 29.617188 26.355469 30.023438 L 28.785156 36.40625 C 28.890625 36.675781 28.691406 36.96875 28.402344 36.96875 L 28.722656 36.96875 C 29.007812 36.96875 29.207031 36.675781 29.105469 36.40625 L 26.671875 30.023438 C 26.515625 29.617188 26.128906 29.347656 25.695312 29.347656 Z M 25.378906 29.347656 " fill-opacity="1" fill-rule="nonzero"/><g clip-path="url(#647a064a8e)"><path fill="#3d3936" d="M 35.238281 37.011719 L 28.402344 37.011719 C 28.378906 37.011719 28.359375 36.992188 28.359375 36.96875 C 28.359375 36.941406 28.378906 36.921875 28.402344 36.921875 C 28.660156 36.921875 28.839844 36.664062 28.746094 36.421875 L 26.3125 30.039062 C 26.164062 29.652344 25.789062 29.394531 25.378906 29.394531 C 25.355469 29.394531 25.335938 29.375 25.335938 29.347656 C 25.335938 29.324219 25.355469 29.304688 25.378906 29.304688 L 26.066406 29.304688 C 26.511719 29.304688 26.921875 29.589844 27.082031 30.007812 L 29.410156 36.125 L 34.652344 36.125 C 35 36.125 35.28125 36.410156 35.28125 36.757812 L 35.28125 36.96875 C 35.28125 36.992188 35.261719 37.011719 35.238281 37.011719 Z M 28.671875 36.921875 L 35.195312 36.921875 L 35.195312 36.757812 C 35.195312 36.457031 34.949219 36.210938 34.652344 36.210938 L 29.382812 36.210938 C 29.363281 36.210938 29.347656 36.199219 29.339844 36.183594 L 27 30.039062 C 26.851562 29.652344 26.476562 29.394531 26.066406 29.394531 L 25.800781 29.394531 C 26.066406 29.507812 26.285156 29.726562 26.394531 30.007812 L 28.828125 36.390625 C 28.902344 36.585938 28.835938 36.800781 28.671875 36.921875 Z M 28.671875 36.921875 " fill-opacity="1" fill-rule="nonzero"/></g><path fill="#ffffff" d="M 33.296875 36.496094 L 34.226562 36.496094 C 34.289062 36.496094 34.339844 36.546875 34.339844 36.609375 C 34.339844 36.671875 34.289062 36.722656 34.226562 36.722656 L 33.296875 36.722656 C 33.234375 36.722656 33.183594 36.671875 33.183594 36.609375 C 33.183594 36.546875 33.234375 36.496094 33.296875 36.496094 Z M 33.296875 36.496094 " fill-opacity="1" fill-rule="nonzero"/><path fill="#ffffff" d="M 32.773438 36.609375 C 32.773438 36.671875 32.722656 36.722656 32.660156 36.722656 L 32.449219 36.722656 C 32.386719 36.722656 32.335938 36.671875 32.335938 36.609375 C 32.335938 36.546875 32.386719 36.496094 32.449219 36.496094 L 32.660156 36.496094 C 32.722656 36.496094 32.773438 36.546875 32.773438 36.609375 Z M 32.773438 36.609375 " fill-opacity="1" fill-rule="nonzero"/><path fill="#a3a3f5" d="M 20.910156 33.15625 C 21.078125 33.625 21.59375 34 22.0625 34 C 22.527344 34 22.769531 33.625 22.605469 33.15625 C 22.4375 32.691406 21.921875 32.316406 21.457031 32.316406 C 20.988281 32.316406 20.746094 32.691406 20.910156 33.15625 Z M 20.910156 33.15625 " fill-opacity="1" fill-rule="nonzero"/><path fill="#8c8ced" d="M 20.910156 33.15625 C 21.078125 33.625 21.59375 34 22.0625 34 C 22.34375 34 22.542969 33.863281 22.621094 33.652344 C 21.988281 34.097656 20.816406 33.136719 21.082031 32.421875 C 20.875 32.5625 20.796875 32.839844 20.910156 33.15625 Z M 20.910156 33.15625 " fill-opacity="1" fill-rule="nonzero"/><path fill="#3d3936" d="M 22.0625 34.042969 C 21.578125 34.042969 21.042969 33.652344 20.871094 33.171875 C 20.691406 32.671875 20.964844 32.269531 21.457031 32.269531 C 21.9375 32.269531 22.472656 32.664062 22.644531 33.144531 C 22.828125 33.65625 22.539062 34.042969 22.0625 34.042969 Z M 21.457031 32.359375 C 21.027344 32.359375 20.792969 32.699219 20.953125 33.144531 C 21.113281 33.59375 21.609375 33.957031 22.0625 33.957031 C 22.496094 33.957031 22.722656 33.613281 22.5625 33.171875 C 22.402344 32.722656 21.90625 32.359375 21.457031 32.359375 Z M 21.457031 32.359375 " fill-opacity="1" fill-rule="nonzero"/><path fill="#ffa18a" d="M 39.589844 23.785156 L 39.589844 25.988281 L 38.53125 27.042969 L 37.703125 25.957031 L 37.703125 24.132812 L 39.3125 23.835938 Z M 39.589844 23.785156 " fill-opacity="1" fill-rule="nonzero"/><path fill="#3d3936" d="M 39.3125 23.835938 C 39.15625 24.683594 38.507812 25.308594 37.703125 25.480469 L 37.703125 24.132812 Z M 39.3125 23.835938 " fill-opacity="1" fill-rule="nonzero"/><path fill="#3d3936" d="M 38.496094 27.070312 L 37.667969 25.984375 C 37.652344 25.964844 37.65625 25.9375 37.675781 25.925781 C 37.695312 25.910156 37.722656 25.914062 37.738281 25.933594 L 38.535156 26.976562 L 39.558594 25.957031 C 39.574219 25.941406 39.601562 25.941406 39.621094 25.957031 C 39.636719 25.972656 39.636719 26 39.621094 26.019531 L 38.5625 27.074219 C 38.542969 27.09375 38.511719 27.089844 38.496094 27.070312 Z M 38.496094 27.070312 " fill-opacity="1" fill-rule="nonzero"/><path fill="#ffa18a" d="M 39.722656 23.09375 C 39.722656 24.246094 38.851562 25.097656 37.789062 25.179688 C 36.238281 25.296875 35.855469 24.246094 35.855469 23.09375 C 35.855469 21.941406 36.71875 21.007812 37.789062 21.007812 C 38.855469 21.007812 39.722656 21.941406 39.722656 23.09375 Z M 39.722656 23.09375 " fill-opacity="1" fill-rule="nonzero"/><path fill="#3d3936" d="M 36.308594 24.234375 C 35.9375 24.234375 35.640625 23.929688 35.640625 23.5625 C 35.640625 23.191406 35.9375 22.890625 36.308594 22.890625 C 36.675781 22.890625 36.976562 23.191406 36.976562 23.5625 C 36.976562 23.929688 36.675781 24.234375 36.308594 24.234375 Z M 36.308594 22.976562 C 35.988281 22.976562 35.726562 23.238281 35.726562 23.5625 C 35.726562 23.882812 35.988281 24.144531 36.308594 24.144531 C 36.628906 24.144531 36.890625 23.882812 36.890625 23.5625 C 36.890625 23.238281 36.628906 22.976562 36.308594 22.976562 Z M 36.308594 22.976562 " fill-opacity="1" fill-rule="nonzero"/><path fill="#3d3936" d="M 37.882812 24.410156 C 37.515625 24.410156 37.214844 24.109375 37.214844 23.738281 C 37.214844 23.367188 37.515625 23.066406 37.882812 23.066406 C 38.25 23.066406 38.550781 23.367188 38.550781 23.738281 C 38.550781 24.109375 38.25 24.410156 37.882812 24.410156 Z M 37.882812 23.152344 C 37.5625 23.152344 37.300781 23.414062 37.300781 23.738281 C 37.300781 24.0625 37.5625 24.324219 37.882812 24.324219 C 38.203125 24.324219 38.464844 24.0625 38.464844 23.738281 C 38.464844 23.414062 38.203125 23.152344 37.882812 23.152344 Z M 37.882812 23.152344 " fill-opacity="1" fill-rule="nonzero"/><path fill="#3d3936" d="M 40.433594 21.722656 C 40.433594 21.921875 40.378906 22.117188 40.273438 22.304688 C 40.167969 22.492188 40.015625 22.660156 39.820312 22.800781 C 39.621094 22.945312 39.394531 23.054688 39.136719 23.132812 C 38.882812 23.210938 38.613281 23.25 38.335938 23.25 C 38.058594 23.25 37.789062 23.210938 37.53125 23.132812 C 37.273438 23.054688 37.046875 22.945312 36.851562 22.800781 C 36.65625 22.660156 36.503906 22.492188 36.398438 22.304688 C 36.289062 22.117188 36.238281 21.921875 36.238281 21.722656 C 36.238281 21.519531 36.289062 21.324219 36.398438 21.136719 C 36.503906 20.949219 36.65625 20.785156 36.851562 20.640625 C 37.046875 20.496094 37.273438 20.386719 37.53125 20.308594 C 37.789062 20.230469 38.058594 20.191406 38.335938 20.191406 C 38.613281 20.191406 38.882812 20.230469 39.136719 20.308594 C 39.394531 20.386719 39.621094 20.496094 39.820312 20.640625 C 40.015625 20.785156 40.167969 20.949219 40.273438 21.136719 C 40.378906 21.324219 40.433594 21.519531 40.433594 21.722656 Z M 40.433594 21.722656 " fill-opacity="1" fill-rule="nonzero"/><path fill="#ffffff" d="M 37.507812 23.914062 C 37.523438 23.914062 37.765625 24.070312 37.960938 23.875 C 38.046875 23.785156 38.085938 23.65625 38.085938 23.65625 C 38.085938 23.65625 37.960938 23.589844 37.828125 23.601562 C 37.792969 23.601562 37.765625 23.609375 37.734375 23.625 C 37.574219 23.695312 37.507812 23.914062 37.507812 23.914062 Z M 37.507812 23.914062 " fill-opacity="1" fill-rule="nonzero"/><path fill="#3d3936" d="M 37.507812 23.914062 C 37.515625 23.914062 37.761719 24.058594 37.941406 23.894531 C 37.957031 23.777344 37.910156 23.667969 37.828125 23.601562 C 37.792969 23.601562 37.765625 23.609375 37.734375 23.625 C 37.574219 23.695312 37.507812 23.914062 37.507812 23.914062 Z M 37.507812 23.914062 " fill-opacity="1" fill-rule="nonzero"/><path fill="#3d3936" d="M 37.050781 24.097656 C 36.96875 24.097656 36.914062 24.074219 36.886719 24.023438 C 36.804688 23.867188 37.066406 23.554688 37.121094 23.492188 C 37.136719 23.476562 37.164062 23.472656 37.179688 23.488281 C 37.199219 23.503906 37.199219 23.53125 37.183594 23.550781 C 37.070312 23.679688 36.921875 23.90625 36.960938 23.980469 C 36.976562 24.007812 37.035156 24.019531 37.125 24.003906 C 37.148438 24 37.171875 24.019531 37.175781 24.042969 C 37.175781 24.066406 37.160156 24.085938 37.136719 24.089844 C 37.105469 24.09375 37.078125 24.097656 37.050781 24.097656 Z M 37.050781 24.097656 " fill-opacity="1" fill-rule="nonzero"/><path fill="#3d3936" d="M 36.757812 24.519531 C 36.746094 24.496094 36.753906 24.472656 36.777344 24.460938 C 36.796875 24.449219 36.824219 24.460938 36.832031 24.480469 C 36.882812 24.578125 37.058594 24.644531 37.179688 24.472656 C 37.191406 24.453125 37.21875 24.449219 37.238281 24.464844 C 37.257812 24.476562 37.265625 24.503906 37.25 24.523438 C 37.085938 24.753906 36.828125 24.667969 36.757812 24.519531 Z M 36.757812 24.519531 " fill-opacity="1" fill-rule="nonzero"/><path fill="#52adff" d="M 34.203125 31.832031 L 33.96875 28.945312 " fill-opacity="1" fill-rule="nonzero"/><path fill="#3d3936" d="M 34.203125 31.875 C 34.183594 31.875 34.164062 31.859375 34.160156 31.835938 L 33.925781 28.949219 C 33.921875 28.925781 33.941406 28.902344 33.964844 28.902344 C 33.988281 28.902344 34.007812 28.917969 34.011719 28.941406 L 34.246094 31.828125 C 34.25 31.855469 34.230469 31.875 34.203125 31.875 Z M 34.203125 31.875 " fill-opacity="1" fill-rule="nonzero"/><path fill="#3d3936" d="M 37.980469 34.546875 L 37.375 34.339844 C 37.351562 34.332031 37.339844 34.308594 37.347656 34.285156 C 37.355469 34.261719 37.378906 34.25 37.402344 34.257812 L 38.007812 34.464844 C 38.03125 34.46875 38.042969 34.496094 38.035156 34.519531 C 38.027344 34.539062 38.003906 34.554688 37.980469 34.546875 Z M 37.980469 34.546875 " fill-opacity="1" fill-rule="nonzero"/><path fill="#3d3936" d="M 37.453125 34.847656 C 37.429688 34.847656 37.410156 34.828125 37.410156 34.800781 L 37.410156 34.503906 C 37.410156 34.480469 37.429688 34.460938 37.453125 34.460938 C 37.476562 34.460938 37.496094 34.480469 37.496094 34.503906 L 37.496094 34.800781 C 37.496094 34.828125 37.476562 34.847656 37.453125 34.847656 Z M 37.453125 34.847656 " fill-opacity="1" fill-rule="nonzero"/><path fill="#3d3936" d="M 30.621094 30.226562 C 30.597656 30.222656 30.582031 30.199219 30.585938 30.175781 L 30.707031 29.542969 C 30.710938 29.519531 30.734375 29.503906 30.757812 29.507812 C 30.78125 29.511719 30.796875 29.535156 30.792969 29.558594 L 30.671875 30.191406 C 30.667969 30.214844 30.644531 30.230469 30.621094 30.226562 Z M 30.621094 30.226562 " fill-opacity="1" fill-rule="nonzero"/><path fill="#3d3936" d="M 30.1875 29.957031 C 30.171875 29.941406 30.171875 29.914062 30.1875 29.898438 L 30.464844 29.625 C 30.484375 29.609375 30.511719 29.609375 30.527344 29.628906 C 30.542969 29.644531 30.542969 29.671875 30.527344 29.6875 L 30.25 29.960938 C 30.234375 29.976562 30.207031 29.976562 30.1875 29.957031 Z M 30.1875 29.957031 " fill-opacity="1" fill-rule="nonzero"/><path fill="#ffc67b" d="M 38.21875 30.460938 L 41.65625 31.902344 " fill-opacity="1" fill-rule="nonzero"/><path fill="#3d3936" d="M 41.640625 31.941406 L 38.199219 30.5 C 38.179688 30.488281 38.167969 30.464844 38.175781 30.441406 C 38.1875 30.421875 38.210938 30.410156 38.234375 30.417969 L 41.671875 31.859375 C 41.695312 31.871094 41.703125 31.894531 41.695312 31.917969 C 41.6875 31.941406 41.660156 31.949219 41.640625 31.941406 Z M 41.640625 31.941406 " fill-opacity="1" fill-rule="nonzero"/><path fill="#ffc67b" d="M 32.949219 27.585938 L 33.761719 32.113281 " fill-opacity="1" fill-rule="nonzero"/><path fill="#3d3936" d="M 33.71875 32.121094 L 32.90625 27.59375 C 32.902344 27.570312 32.917969 27.546875 32.941406 27.542969 C 32.964844 27.539062 32.988281 27.554688 32.992188 27.578125 L 33.804688 32.105469 C 33.808594 32.128906 33.792969 32.148438 33.769531 32.15625 C 33.746094 32.160156 33.722656 32.144531 33.71875 32.121094 Z M 33.71875 32.121094 " fill-opacity="1" fill-rule="nonzero"/><path fill="#ffffff" d="M 36.066406 23.808594 C 36.066406 23.808594 36.257812 23.914062 36.417969 23.84375 C 36.578125 23.769531 36.636719 23.558594 36.644531 23.550781 C 36.644531 23.550781 36.519531 23.484375 36.386719 23.496094 C 36.386719 23.492188 36.386719 23.492188 36.386719 23.492188 C 36.144531 23.515625 36.074219 23.800781 36.066406 23.808594 Z M 36.066406 23.808594 " fill-opacity="1" fill-rule="nonzero"/><path fill="#3d3936" d="M 36.066406 23.808594 C 36.074219 23.808594 36.320312 23.953125 36.5 23.785156 C 36.515625 23.671875 36.46875 23.5625 36.386719 23.496094 C 36.386719 23.492188 36.386719 23.492188 36.386719 23.492188 C 36.144531 23.515625 36.074219 23.800781 36.066406 23.808594 Z M 36.066406 23.808594 " fill-opacity="1" fill-rule="nonzero"/><path fill="#3d3936" d="M 38.378906 23.386719 L 39.109375 22.859375 L 39.160156 22.929688 L 38.429688 23.457031 Z M 38.378906 23.386719 " fill-opacity="1" fill-rule="nonzero"/><path fill="#ffa18a" d="M 40.125 23.25 C 40.125 23.605469 39.839844 23.890625 39.488281 23.890625 C 39.132812 23.890625 38.847656 23.605469 38.847656 23.25 C 38.847656 22.894531 39.132812 22.609375 39.488281 22.609375 C 39.839844 22.609375 40.125 22.894531 40.125 23.25 Z M 40.125 23.25 " fill-opacity="1" fill-rule="nonzero"/><path fill="#3d3936" d="M 39.488281 23.933594 C 39.460938 23.933594 39.445312 23.914062 39.445312 23.890625 C 39.445312 23.867188 39.460938 23.847656 39.488281 23.847656 C 39.816406 23.847656 40.082031 23.578125 40.082031 23.25 C 40.082031 22.917969 39.816406 22.652344 39.488281 22.652344 C 39.160156 22.652344 38.890625 22.917969 38.890625 23.25 C 38.890625 23.273438 38.871094 23.292969 38.847656 23.292969 C 38.824219 23.292969 38.804688 23.273438 38.804688 23.25 C 38.804688 22.871094 39.109375 22.5625 39.488281 22.5625 C 39.863281 22.5625 40.167969 22.871094 40.167969 23.25 C 40.167969 23.628906 39.863281 23.933594 39.488281 23.933594 Z M 39.488281 23.933594 " fill-opacity="1" fill-rule="nonzero"/><path fill="#3d3936" d="M 39.308594 23.390625 C 39.285156 23.390625 39.265625 23.367188 39.269531 23.34375 C 39.296875 22.957031 39.574219 22.945312 39.574219 22.945312 C 39.601562 22.941406 39.621094 22.960938 39.621094 22.984375 C 39.621094 23.011719 39.601562 23.03125 39.578125 23.03125 C 39.570312 23.03125 39.378906 23.046875 39.355469 23.351562 C 39.355469 23.375 39.332031 23.390625 39.308594 23.390625 Z M 39.308594 23.390625 " fill-opacity="1" fill-rule="nonzero"/><path fill="#3d3936" d="M 39.277344 23.355469 C 39.261719 23.335938 39.265625 23.308594 39.285156 23.296875 C 39.460938 23.164062 39.597656 23.226562 39.644531 23.277344 C 39.660156 23.296875 39.660156 23.324219 39.640625 23.339844 C 39.625 23.355469 39.597656 23.355469 39.582031 23.335938 C 39.570312 23.328125 39.488281 23.25 39.339844 23.363281 C 39.320312 23.378906 39.292969 23.375 39.277344 23.355469 Z M 39.277344 23.355469 " fill-opacity="1" fill-rule="nonzero"/><path fill="#3d3936" d="M 37.347656 23.402344 C 37.195312 23.335938 37.054688 23.335938 36.917969 23.402344 C 36.898438 23.414062 36.871094 23.402344 36.863281 23.382812 C 36.851562 23.359375 36.859375 23.335938 36.882812 23.324219 C 37.039062 23.25 37.207031 23.25 37.382812 23.324219 C 37.402344 23.332031 37.414062 23.359375 37.40625 23.378906 C 37.394531 23.402344 37.371094 23.414062 37.347656 23.402344 Z M 37.347656 23.402344 " fill-opacity="1" fill-rule="nonzero"/><path fill="#ffa18a" d="M 36.328125 11.429688 L 36.882812 14.914062 L 30.214844 15.546875 L 30.371094 17.773438 L 38.113281 17.65625 C 39.207031 17.640625 40.039062 16.664062 39.886719 15.578125 L 39.28125 11.1875 L 39.277344 11.164062 Z M 36.328125 11.429688 " fill-opacity="1" fill-rule="nonzero"/><path fill="#3d3936" d="M 36.746094 14.074219 L 39.578125 13.328125 L 39.4375 12.328125 L 36.71875 13.875 Z M 36.746094 14.074219 " fill-opacity="1" fill-rule="nonzero"/><path fill="#3d3936" d="M 37.460938 15.203125 L 36.867188 14.957031 C 36.84375 14.945312 36.832031 14.921875 36.84375 14.898438 C 36.851562 14.875 36.878906 14.867188 36.898438 14.875 L 37.492188 15.121094 C 37.515625 15.128906 37.527344 15.15625 37.515625 15.179688 C 37.507812 15.199219 37.484375 15.210938 37.460938 15.203125 Z M 37.460938 15.203125 " fill-opacity="1" fill-rule="nonzero"/><path fill="#3d3936" d="M 37.042969 15.507812 L 37.003906 15.1875 C 37 15.164062 37.019531 15.140625 37.042969 15.140625 C 37.066406 15.136719 37.085938 15.152344 37.089844 15.175781 L 37.128906 15.496094 C 37.132812 15.519531 37.117188 15.542969 37.089844 15.542969 C 37.070312 15.546875 37.046875 15.53125 37.042969 15.507812 Z M 37.042969 15.507812 " fill-opacity="1" fill-rule="nonzero"/><path fill="#ffa18a" d="M 30.371094 17.773438 L 29.074219 17.804688 L 28.574219 17.804688 C 28.417969 17.800781 28.292969 17.667969 28.304688 17.511719 C 28.308594 17.398438 28.386719 17.296875 28.5 17.265625 L 28.347656 17.265625 C 28.191406 17.261719 28.066406 17.132812 28.074219 16.972656 C 28.082031 16.851562 28.167969 16.753906 28.28125 16.722656 L 28.160156 16.722656 C 28.003906 16.722656 27.882812 16.589844 27.890625 16.433594 C 27.898438 16.289062 28.011719 16.179688 28.15625 16.175781 L 28.414062 16.167969 C 28.277344 16.148438 28.171875 16.023438 28.179688 15.878906 C 28.1875 15.742188 28.300781 15.625 28.445312 15.621094 L 29.414062 15.582031 L 29.25 15.074219 C 29.230469 15.003906 29.238281 14.925781 29.277344 14.863281 C 29.371094 14.726562 29.570312 14.714844 29.671875 14.847656 L 30.214844 15.546875 Z M 30.371094 17.773438 " fill-opacity="1" fill-rule="nonzero"/><path fill="#3d3936" d="M 29.371094 15.59375 L 29.210938 15.085938 C 29.183594 15.003906 29.195312 14.914062 29.242188 14.839844 C 29.347656 14.679688 29.582031 14.660156 29.707031 14.820312 L 30.25 15.519531 C 30.265625 15.539062 30.261719 15.566406 30.242188 15.582031 C 30.222656 15.59375 30.195312 15.589844 30.183594 15.574219 L 29.640625 14.875 C 29.554688 14.765625 29.390625 14.773438 29.316406 14.886719 C 29.28125 14.9375 29.273438 15 29.292969 15.058594 L 29.453125 15.566406 C 29.460938 15.589844 29.449219 15.613281 29.425781 15.621094 C 29.402344 15.628906 29.378906 15.617188 29.371094 15.59375 Z M 29.371094 15.59375 " fill-opacity="1" fill-rule="nonzero"/><path fill="#3d3936" d="M 28.414062 16.210938 C 28.394531 16.210938 28.375 16.191406 28.371094 16.171875 C 28.371094 16.144531 28.390625 16.125 28.414062 16.125 L 29.429688 16.066406 C 29.457031 16.066406 29.476562 16.082031 29.476562 16.105469 C 29.476562 16.132812 29.460938 16.152344 29.4375 16.152344 C 28.3125 16.21875 28.710938 16.195312 28.414062 16.210938 Z M 28.414062 16.210938 " fill-opacity="1" fill-rule="nonzero"/><path fill="#3d3936" d="M 28.367188 16.761719 C 28.34375 16.761719 28.328125 16.742188 28.324219 16.722656 C 28.324219 16.695312 28.34375 16.675781 28.367188 16.675781 L 29.382812 16.617188 C 29.40625 16.617188 29.429688 16.632812 29.429688 16.65625 C 29.429688 16.683594 29.414062 16.703125 29.386719 16.703125 C 28.265625 16.769531 28.664062 16.746094 28.367188 16.761719 Z M 28.367188 16.761719 " fill-opacity="1" fill-rule="nonzero"/><path fill="#3d3936" d="M 28.503906 17.300781 C 28.480469 17.300781 28.460938 17.28125 28.460938 17.261719 C 28.460938 17.234375 28.476562 17.214844 28.5 17.214844 L 29.519531 17.15625 C 29.542969 17.15625 29.5625 17.171875 29.566406 17.195312 C 29.566406 17.222656 29.546875 17.242188 29.523438 17.242188 C 28.398438 17.308594 28.800781 17.285156 28.503906 17.300781 Z M 28.503906 17.300781 " fill-opacity="1" fill-rule="nonzero"/><path fill="#52adff" d="M 34.835938 10 L 36.328125 14.070312 L 39.953125 12.1875 L 39.101562 9.9375 " fill-opacity="1" fill-rule="nonzero"/><path fill="#3d3936" d="M 36.285156 14.085938 L 34.796875 10.015625 C 34.789062 9.992188 34.800781 9.96875 34.824219 9.960938 C 34.84375 9.953125 34.871094 9.964844 34.878906 9.984375 L 36.351562 14.011719 L 39.933594 12.148438 C 39.953125 12.136719 39.980469 12.144531 39.992188 12.167969 C 40 12.1875 39.992188 12.214844 39.972656 12.226562 L 36.347656 14.109375 C 36.324219 14.121094 36.296875 14.109375 36.285156 14.085938 Z M 36.285156 14.085938 " fill-opacity="1" fill-rule="nonzero"/><path fill="#ffc67b" d="M 15.542969 11.761719 C 15.152344 12.113281 14.636719 12.328125 14.070312 12.328125 C 13.527344 12.328125 13.03125 12.132812 12.648438 11.804688 C 12.96875 11.339844 13.503906 11.035156 14.109375 11.035156 C 14.699219 11.035156 15.21875 11.320312 15.542969 11.761719 Z M 15.542969 11.761719 " fill-opacity="1" fill-rule="nonzero"/><path fill="#3d3936" d="M 14.070312 12.371094 C 13.539062 12.371094 13.023438 12.183594 12.617188 11.839844 C 12.109375 11.40625 11.816406 10.773438 11.816406 10.105469 C 11.816406 8.855469 12.828125 7.835938 14.070312 7.835938 C 15.3125 7.835938 16.324219 8.855469 16.324219 10.105469 C 16.324219 10.75 16.050781 11.363281 15.574219 11.792969 C 15.15625 12.167969 14.625 12.371094 14.070312 12.371094 Z M 14.070312 7.925781 C 12.875 7.925781 11.902344 8.902344 11.902344 10.105469 C 11.902344 10.75 12.183594 11.355469 12.675781 11.773438 C 13.0625 12.101562 13.558594 12.285156 14.070312 12.285156 C 14.601562 12.285156 15.117188 12.085938 15.515625 11.730469 C 15.972656 11.316406 16.238281 10.722656 16.238281 10.105469 C 16.238281 8.902344 15.265625 7.925781 14.070312 7.925781 Z M 14.070312 7.925781 " fill-opacity="1" fill-rule="nonzero"/><path fill="#ffa18a" d="M 14.519531 10.78125 L 14.476562 11.246094 C 14.476562 11.398438 13.71875 11.398438 13.71875 11.246094 L 13.746094 10.332031 C 13.839844 10.617188 14.058594 10.800781 14.394531 10.792969 C 14.4375 10.792969 14.480469 10.789062 14.519531 10.78125 Z M 14.519531 10.78125 " fill-opacity="1" fill-rule="nonzero"/><path fill="#ffa18a" d="M 13.699219 10.027344 C 13.707031 10.472656 13.949219 10.804688 14.394531 10.792969 C 14.839844 10.785156 15.191406 10.414062 15.179688 9.96875 C 15.171875 9.523438 14.804688 9.167969 14.359375 9.179688 C 13.914062 9.1875 13.6875 9.582031 13.699219 10.027344 Z M 13.699219 10.027344 " fill-opacity="1" fill-rule="nonzero"/><path fill="#3d3936" d="M 13.855469 9.527344 C 13.855469 9.527344 14.175781 9.953125 13.699219 9.992188 L 13.789062 10.429688 C 13.789062 10.429688 13.601562 10.417969 13.480469 10.277344 C 13.308594 10.078125 12.898438 9.238281 13.53125 9.148438 C 13.53125 9.148438 13.28125 8.515625 14.433594 8.53125 C 15.207031 8.542969 14.6875 9.089844 14.6875 9.089844 C 14.6875 9.089844 14.886719 8.921875 15.15625 8.957031 C 15.464844 9 15.671875 9.488281 15.152344 9.769531 C 15.152344 9.769531 14.984375 9.425781 14.519531 9.292969 C 14.554688 9.367188 14.546875 9.472656 14.527344 9.585938 C 14.328125 9.457031 14.101562 9.4375 13.855469 9.527344 Z M 13.855469 9.527344 " fill-opacity="1" fill-rule="nonzero"/><path fill="#ffa18a" d="M 13.566406 10.085938 C 13.585938 10.191406 13.6875 10.265625 13.796875 10.246094 C 13.90625 10.226562 13.976562 10.125 13.957031 10.015625 C 13.941406 9.90625 13.835938 9.835938 13.726562 9.851562 C 13.621094 9.871094 13.546875 9.976562 13.566406 10.085938 Z M 13.566406 10.085938 " fill-opacity="1" fill-rule="nonzero"/><path fill="#3d3936" d="M 13.757812 10.269531 C 13.757812 10.269531 13.753906 10.269531 13.753906 10.269531 C 13.652344 10.269531 13.5625 10.191406 13.546875 10.089844 C 13.523438 9.96875 13.605469 9.851562 13.722656 9.832031 C 13.800781 9.816406 13.878906 9.847656 13.929688 9.90625 C 13.9375 9.914062 13.9375 9.929688 13.929688 9.9375 C 13.917969 9.945312 13.90625 9.945312 13.898438 9.933594 C 13.855469 9.886719 13.792969 9.863281 13.730469 9.875 C 13.636719 9.890625 13.570312 9.984375 13.589844 10.082031 C 13.601562 10.164062 13.675781 10.226562 13.757812 10.226562 C 13.769531 10.226562 13.777344 10.238281 13.777344 10.25 C 13.777344 10.261719 13.769531 10.269531 13.757812 10.269531 Z M 13.757812 10.269531 " fill-opacity="1" fill-rule="nonzero"/><path fill="#ffffff" d="M 15.09375 9.90625 C 15.09375 9.90625 15.035156 9.964844 14.960938 9.976562 C 14.859375 9.996094 14.785156 9.902344 14.777344 9.898438 C 14.785156 9.894531 14.867188 9.804688 14.960938 9.828125 C 15.035156 9.839844 15.09375 9.90625 15.09375 9.90625 Z M 15.09375 9.90625 " fill-opacity="1" fill-rule="nonzero"/><path fill="#3d3936" d="M 15.09375 9.90625 C 15.09375 9.90625 15.035156 9.964844 14.960938 9.976562 C 14.941406 9.929688 14.941406 9.875 14.960938 9.828125 C 15.035156 9.839844 15.09375 9.90625 15.09375 9.90625 Z M 15.09375 9.90625 " fill-opacity="1" fill-rule="nonzero"/><path fill="#ffffff" d="M 14.585938 9.941406 C 14.585938 9.941406 14.519531 10.015625 14.429688 10.03125 C 14.304688 10.050781 14.214844 9.9375 14.203125 9.933594 C 14.214844 9.929688 14.3125 9.820312 14.425781 9.847656 C 14.519531 9.863281 14.585938 9.941406 14.585938 9.941406 Z M 14.585938 9.941406 " fill-opacity="1" fill-rule="nonzero"/><path fill="#3d3936" d="M 14.585938 9.941406 C 14.585938 9.941406 14.519531 10.015625 14.429688 10.03125 C 14.402344 9.972656 14.402344 9.902344 14.425781 9.847656 C 14.519531 9.863281 14.585938 9.941406 14.585938 9.941406 Z M 14.585938 9.941406 " fill-opacity="1" fill-rule="nonzero"/><path fill="#3d3936" d="M 14.199219 9.765625 C 14.1875 9.757812 14.179688 9.746094 14.183594 9.734375 C 14.1875 9.722656 14.203125 9.71875 14.210938 9.722656 C 14.371094 9.785156 14.433594 9.710938 14.433594 9.707031 C 14.441406 9.699219 14.457031 9.695312 14.464844 9.703125 C 14.476562 9.710938 14.476562 9.726562 14.46875 9.734375 C 14.414062 9.808594 14.289062 9.796875 14.199219 9.765625 Z M 14.199219 9.765625 " fill-opacity="1" fill-rule="nonzero"/><path fill="#3d3936" d="M 14.765625 9.714844 C 14.753906 9.710938 14.75 9.695312 14.753906 9.6875 C 14.757812 9.675781 14.769531 9.667969 14.78125 9.671875 C 14.941406 9.734375 15 9.660156 15.003906 9.65625 C 15.011719 9.648438 15.023438 9.648438 15.035156 9.652344 C 15.042969 9.660156 15.042969 9.675781 15.039062 9.683594 C 14.980469 9.757812 14.859375 9.75 14.765625 9.714844 Z M 14.765625 9.714844 " fill-opacity="1" fill-rule="nonzero"/><path fill="#3d3936" d="M 14.578125 10.515625 C 14.648438 10.585938 14.75 10.570312 14.816406 10.5 C 14.886719 10.429688 14.910156 10.320312 14.910156 10.320312 C 14.910156 10.320312 14.746094 10.425781 14.496094 10.328125 C 14.496094 10.328125 14.515625 10.445312 14.578125 10.515625 Z M 14.578125 10.515625 " fill-opacity="1" fill-rule="nonzero"/><path fill="#ffffff" d="M 14.613281 10.496094 C 14.660156 10.546875 14.730469 10.535156 14.777344 10.488281 C 14.757812 10.46875 14.730469 10.453125 14.695312 10.457031 C 14.660156 10.457031 14.632812 10.472656 14.613281 10.496094 Z M 14.613281 10.496094 " fill-opacity="1" fill-rule="nonzero"/><path fill="#3d3936" d="M 14.757812 10.144531 L 14.707031 10.0625 L 14.671875 10.140625 C 14.667969 10.148438 14.65625 10.15625 14.644531 10.148438 C 14.632812 10.144531 14.628906 10.132812 14.632812 10.121094 L 14.683594 10.007812 C 14.691406 9.992188 14.714844 9.988281 14.722656 10.003906 L 14.796875 10.121094 C 14.800781 10.128906 14.796875 10.144531 14.789062 10.148438 C 14.777344 10.15625 14.765625 10.152344 14.757812 10.144531 Z M 14.757812 10.144531 " fill-opacity="1" fill-rule="nonzero"/><path fill="#3d3936" d="M 13.800781 10.0625 C 13.792969 9.996094 13.722656 9.996094 13.714844 9.996094 C 13.703125 9.996094 13.691406 9.988281 13.691406 9.976562 C 13.691406 9.964844 13.703125 9.953125 13.714844 9.953125 C 13.753906 9.953125 13.832031 9.972656 13.84375 10.058594 C 13.847656 10.085938 13.804688 10.09375 13.800781 10.0625 Z M 13.800781 10.0625 " fill-opacity="1" fill-rule="nonzero"/><path fill="#3d3936" d="M 13.699219 10.078125 C 13.6875 10.070312 13.6875 10.054688 13.695312 10.046875 C 13.730469 9.992188 13.824219 10.023438 13.828125 10.027344 C 13.835938 10.03125 13.84375 10.042969 13.839844 10.054688 C 13.835938 10.066406 13.824219 10.070312 13.8125 10.066406 C 13.792969 10.0625 13.746094 10.046875 13.730469 10.070312 C 13.722656 10.082031 13.707031 10.082031 13.699219 10.078125 Z M 13.699219 10.078125 " fill-opacity="1" fill-rule="nonzero"/><path fill="#3d3936" d="M 14.519531 10.78125 C 14.519531 10.78125 14.226562 10.851562 14 10.6875 C 14 10.6875 14.113281 10.984375 14.5 11.039062 Z M 14.519531 10.78125 " fill-opacity="1" fill-rule="nonzero"/><path fill="#52adff" d="M 21.195312 8.675781 L 21.195312 9.492188 C 21.195312 9.613281 21.101562 9.710938 20.980469 9.710938 L 18.070312 9.710938 C 17.949219 9.710938 17.851562 9.613281 17.851562 9.492188 L 17.851562 8.675781 C 17.851562 8.554688 17.949219 8.457031 18.070312 8.457031 L 20.980469 8.457031 C 21.101562 8.457031 21.195312 8.554688 21.195312 8.675781 Z M 21.195312 8.675781 " fill-opacity="1" fill-rule="nonzero"/><path fill="#3d3936" d="M 21.605469 10.574219 L 17.519531 10.574219 C 17.496094 10.574219 17.476562 10.554688 17.476562 10.53125 C 17.476562 10.507812 17.496094 10.488281 17.519531 10.488281 L 21.605469 10.488281 C 21.628906 10.488281 21.648438 10.507812 21.648438 10.53125 C 21.648438 10.554688 21.628906 10.574219 21.605469 10.574219 Z M 21.605469 10.574219 " fill-opacity="1" fill-rule="nonzero"/><path fill="#3d3936" d="M 21.605469 11.308594 L 17.519531 11.308594 C 17.496094 11.308594 17.476562 11.289062 17.476562 11.265625 C 17.476562 11.242188 17.496094 11.222656 17.519531 11.222656 L 21.605469 11.222656 C 21.628906 11.222656 21.648438 11.242188 21.648438 11.265625 C 21.648438 11.289062 21.628906 11.308594 21.605469 11.308594 Z M 21.605469 11.308594 " fill-opacity="1" fill-rule="nonzero"/><path fill="#3d3936" d="M 21.605469 12.046875 L 17.519531 12.046875 C 17.496094 12.046875 17.476562 12.027344 17.476562 12.003906 C 17.476562 11.980469 17.496094 11.960938 17.519531 11.960938 L 21.605469 11.960938 C 21.628906 11.960938 21.648438 11.980469 21.648438 12.003906 C 21.648438 12.027344 21.628906 12.046875 21.605469 12.046875 Z M 21.605469 12.046875 " fill-opacity="1" fill-rule="nonzero"/><path fill="#3d3936" d="M 13.191406 13.621094 L 12.191406 13.621094 C 12.167969 13.621094 12.148438 13.601562 12.148438 13.578125 C 12.148438 13.554688 12.167969 13.535156 12.191406 13.535156 L 13.191406 13.535156 C 13.214844 13.535156 13.234375 13.554688 13.234375 13.578125 C 13.234375 13.601562 13.214844 13.621094 13.191406 13.621094 Z M 13.191406 13.621094 " fill-opacity="1" fill-rule="nonzero"/><path fill="#3d3936" d="M 21.605469 13.621094 L 14.160156 13.621094 C 14.136719 13.621094 14.117188 13.601562 14.117188 13.578125 C 14.117188 13.554688 14.136719 13.535156 14.160156 13.535156 L 21.605469 13.535156 C 21.628906 13.535156 21.648438 13.554688 21.648438 13.578125 C 21.648438 13.601562 21.628906 13.621094 21.605469 13.621094 Z M 21.605469 13.621094 " fill-opacity="1" fill-rule="nonzero"/><path fill="#3d3936" d="M 13.191406 14.523438 L 12.191406 14.523438 C 12.167969 14.523438 12.148438 14.503906 12.148438 14.480469 C 12.148438 14.457031 12.167969 14.4375 12.191406 14.4375 L 13.191406 14.4375 C 13.214844 14.4375 13.234375 14.457031 13.234375 14.480469 C 13.234375 14.503906 13.214844 14.523438 13.191406 14.523438 Z M 13.191406 14.523438 " fill-opacity="1" fill-rule="nonzero"/><path fill="#3d3936" d="M 21.605469 14.523438 L 14.160156 14.523438 C 14.136719 14.523438 14.117188 14.503906 14.117188 14.480469 C 14.117188 14.457031 14.136719 14.4375 14.160156 14.4375 L 21.605469 14.4375 C 21.628906 14.4375 21.648438 14.457031 21.648438 14.480469 C 21.648438 14.503906 21.628906 14.523438 21.605469 14.523438 Z M 21.605469 14.523438 " fill-opacity="1" fill-rule="nonzero"/><path fill="#3d3936" d="M 13.191406 15.425781 L 12.191406 15.425781 C 12.167969 15.425781 12.148438 15.40625 12.148438 15.382812 C 12.148438 15.355469 12.167969 15.335938 12.191406 15.335938 L 13.191406 15.335938 C 13.214844 15.335938 13.234375 15.355469 13.234375 15.382812 C 13.234375 15.40625 13.214844 15.425781 13.191406 15.425781 Z M 13.191406 15.425781 " fill-opacity="1" fill-rule="nonzero"/><path fill="#3d3936" d="M 21.605469 15.425781 L 19.042969 15.425781 C 19.019531 15.425781 19 15.40625 19 15.382812 C 19 15.355469 19.019531 15.335938 19.042969 15.335938 L 21.605469 15.335938 C 21.628906 15.335938 21.648438 15.355469 21.648438 15.382812 C 21.648438 15.40625 21.628906 15.425781 21.605469 15.425781 Z M 21.605469 15.425781 " fill-opacity="1" fill-rule="nonzero"/><path fill="#88eaa3" d="M 18.492188 17.96875 C 18.492188 18.761719 17.855469 19.402344 17.066406 19.402344 C 16.28125 19.402344 15.640625 18.761719 15.640625 17.96875 C 15.640625 17.175781 16.28125 16.535156 17.066406 16.535156 C 17.855469 16.535156 18.492188 17.175781 18.492188 17.96875 Z M 18.492188 17.96875 " fill-opacity="1" fill-rule="nonzero"/><path fill="#ffffff" d="M 16.75 18.320312 L 16.488281 17.917969 C 16.4375 17.835938 16.457031 17.726562 16.539062 17.675781 C 16.621094 17.625 16.726562 17.644531 16.777344 17.726562 L 16.941406 17.984375 L 17.542969 17.570312 C 17.621094 17.515625 17.730469 17.535156 17.785156 17.613281 C 17.835938 17.691406 17.816406 17.800781 17.738281 17.855469 L 16.992188 18.371094 C 16.914062 18.425781 16.804688 18.402344 16.75 18.320312 Z M 16.75 18.320312 " fill-opacity="1" fill-rule="nonzero"/><path fill="#ffffff" d="M 33.679688 20.632812 L 33.679688 22.371094 C 33.679688 22.640625 33.460938 22.863281 33.191406 22.863281 L 23.816406 22.863281 C 23.546875 22.863281 23.328125 22.640625 23.328125 22.371094 L 23.328125 20.632812 C 23.328125 20.363281 23.546875 20.140625 23.816406 20.140625 L 33.191406 20.140625 C 33.460938 20.140625 33.679688 20.363281 33.679688 20.632812 Z M 33.679688 20.632812 " fill-opacity="1" fill-rule="nonzero"/><path fill="#3d3936" d="M 33.191406 22.90625 L 23.816406 22.90625 C 23.523438 22.90625 23.285156 22.664062 23.285156 22.371094 L 23.285156 20.632812 C 23.285156 20.339844 23.523438 20.097656 23.816406 20.097656 L 33.191406 20.097656 C 33.484375 20.097656 33.722656 20.339844 33.722656 20.632812 L 33.722656 22.371094 C 33.722656 22.664062 33.484375 22.90625 33.191406 22.90625 Z M 23.816406 20.183594 C 23.570312 20.183594 23.371094 20.386719 23.371094 20.632812 L 23.371094 22.371094 C 23.371094 22.617188 23.570312 22.816406 23.816406 22.816406 L 33.191406 22.816406 C 33.4375 22.816406 33.636719 22.617188 33.636719 22.371094 L 33.636719 20.632812 C 33.636719 20.386719 33.4375 20.183594 33.191406 20.183594 Z M 23.816406 20.183594 " fill-opacity="1" fill-rule="nonzero"/><path fill="#52adff" d="M 25.359375 21.5 C 25.359375 21.894531 25.042969 22.210938 24.652344 22.210938 C 24.265625 22.210938 23.949219 21.894531 23.949219 21.5 C 23.949219 21.109375 24.265625 20.792969 24.652344 20.792969 C 25.042969 20.792969 25.359375 21.109375 25.359375 21.5 Z M 25.359375 21.5 " fill-opacity="1" fill-rule="nonzero"/><path fill="#ffffff" d="M 24.570312 21.683594 C 24.566406 21.683594 24.566406 21.683594 24.566406 21.683594 C 24.554688 21.679688 24.542969 21.675781 24.535156 21.667969 L 24.394531 21.488281 C 24.378906 21.472656 24.382812 21.445312 24.402344 21.429688 C 24.421875 21.414062 24.449219 21.417969 24.460938 21.433594 L 24.574219 21.574219 L 24.847656 21.332031 C 24.867188 21.316406 24.894531 21.316406 24.910156 21.335938 C 24.925781 21.355469 24.925781 21.382812 24.90625 21.398438 L 24.597656 21.671875 C 24.589844 21.679688 24.578125 21.683594 24.570312 21.683594 Z M 24.570312 21.683594 " fill-opacity="1" fill-rule="nonzero"/><path fill="#3d3936" d="M 32.535156 21.253906 L 26.09375 21.253906 C 26.070312 21.253906 26.050781 21.234375 26.050781 21.207031 C 26.050781 21.183594 26.070312 21.164062 26.09375 21.164062 L 32.535156 21.164062 C 32.558594 21.164062 32.578125 21.183594 32.578125 21.207031 C 32.578125 21.234375 32.558594 21.253906 32.535156 21.253906 Z M 32.535156 21.253906 " fill-opacity="1" fill-rule="nonzero"/><path fill="#3d3936" d="M 30.148438 21.839844 L 26.09375 21.839844 C 26.070312 21.839844 26.050781 21.820312 26.050781 21.796875 C 26.050781 21.769531 26.070312 21.75 26.09375 21.75 L 30.148438 21.75 C 30.171875 21.75 30.191406 21.769531 30.191406 21.796875 C 30.191406 21.820312 30.171875 21.839844 30.148438 21.839844 Z M 30.148438 21.839844 " fill-opacity="1" fill-rule="nonzero"/><path fill="#a3a3f5" d="M 7.230469 7.558594 L 7.230469 9.988281 C 7.230469 10.296875 6.984375 10.546875 6.679688 10.546875 L 5.082031 10.546875 L 4.1875 11.214844 C 4.113281 11.269531 4.007812 11.214844 4.007812 11.121094 L 4.007812 10.546875 L 3.734375 10.546875 C 3.429688 10.546875 3.179688 10.296875 3.179688 9.988281 L 3.179688 7.558594 C 3.179688 7.253906 3.429688 7.003906 3.734375 7.003906 L 6.679688 7.003906 C 6.984375 7.003906 7.230469 7.253906 7.230469 7.558594 Z M 7.230469 7.558594 " fill-opacity="1" fill-rule="nonzero"/><path fill="#ffffff" d="M 5.238281 7.8125 C 5.484375 7.8125 5.652344 7.90625 5.75 8.089844 C 5.78125 8.15625 5.796875 8.226562 5.796875 8.308594 C 5.796875 8.492188 5.703125 8.632812 5.519531 8.738281 C 5.433594 8.785156 5.359375 8.839844 5.292969 8.902344 C 5.269531 8.929688 5.25 8.964844 5.234375 9.011719 C 5.207031 9.046875 5.171875 9.066406 5.136719 9.066406 C 5.050781 9.066406 5.03125 8.960938 5.027344 8.953125 C 5.027344 8.894531 5.070312 8.820312 5.15625 8.726562 C 5.230469 8.65625 5.335938 8.585938 5.464844 8.507812 C 5.582031 8.429688 5.5625 8.328125 5.570312 8.300781 C 5.570312 8.007812 5.242188 8.042969 5.226562 8.039062 C 5.027344 8.039062 4.90625 8.082031 4.859375 8.171875 C 4.824219 8.242188 4.773438 8.292969 4.699219 8.28125 C 4.605469 8.265625 4.617188 8.1875 4.613281 8.167969 C 4.617188 8.101562 4.664062 8.023438 4.757812 7.929688 C 4.851562 7.851562 5.011719 7.8125 5.238281 7.8125 Z M 5.285156 9.417969 L 5.292969 9.460938 C 5.292969 9.597656 5.136719 9.613281 5.128906 9.617188 C 5.015625 9.597656 4.960938 9.542969 4.960938 9.460938 L 4.960938 9.457031 C 4.960938 9.382812 5.003906 9.332031 5.089844 9.304688 C 5.097656 9.308594 5.214844 9.257812 5.285156 9.417969 Z M 5.285156 9.417969 " fill-opacity="1" fill-rule="nonzero"/><path fill="#3d3936" d="M 35.828125 12.878906 C 35.820312 12.855469 35.832031 12.832031 35.855469 12.820312 L 39.621094 11.316406 C 39.644531 11.308594 39.667969 11.320312 39.679688 11.34375 C 39.6875 11.363281 39.675781 11.390625 39.65625 11.398438 L 35.886719 12.902344 C 35.863281 12.910156 35.839844 12.902344 35.828125 12.878906 Z M 35.828125 12.878906 " fill-opacity="1" fill-rule="nonzero"/><path fill="#3d3936" d="M 26.785156 14.214844 C 26.769531 14.214844 26.753906 14.203125 26.746094 14.183594 L 25.285156 9.835938 C 25.277344 9.816406 25.289062 9.789062 25.3125 9.78125 C 25.335938 9.773438 25.359375 9.785156 25.367188 9.808594 L 26.828125 14.15625 C 26.835938 14.179688 26.824219 14.203125 26.800781 14.210938 C 26.796875 14.210938 26.792969 14.214844 26.785156 14.214844 Z M 26.785156 14.214844 " fill-opacity="1" fill-rule="nonzero"/><path fill="#3d3936" d="M 25.742188 14.5 C 25.726562 14.5 25.710938 14.492188 25.703125 14.476562 L 23.882812 10.207031 C 23.871094 10.183594 23.882812 10.15625 23.902344 10.148438 C 23.925781 10.140625 23.953125 10.148438 23.960938 10.171875 L 25.769531 14.40625 L 27.125 14.03125 C 27.148438 14.023438 27.171875 14.039062 27.179688 14.0625 C 27.1875 14.085938 27.171875 14.109375 27.148438 14.113281 L 25.753906 14.5 C 25.75 14.5 25.746094 14.5 25.742188 14.5 Z M 25.742188 14.5 " fill-opacity="1" fill-rule="nonzero"/><path fill="#3d3936" d="M 13.9375 36.460938 C 13.921875 36.445312 13.921875 36.417969 13.9375 36.398438 L 14.457031 35.875 L 13.9375 35.355469 C 13.921875 35.339844 13.921875 35.308594 13.9375 35.292969 C 13.957031 35.277344 13.984375 35.277344 14 35.292969 L 14.550781 35.847656 C 14.566406 35.863281 14.566406 35.890625 14.550781 35.90625 L 14 36.460938 C 13.984375 36.476562 13.957031 36.476562 13.9375 36.460938 Z M 13.9375 36.460938 " fill-opacity="1" fill-rule="nonzero"/><path fill="#3d3936" d="M 5.414062 5.9375 C 5.390625 5.9375 5.371094 5.917969 5.371094 5.894531 L 5.371094 4.039062 C 5.371094 3.238281 6.015625 2.585938 6.8125 2.585938 L 21.195312 2.585938 C 21.222656 2.585938 21.242188 2.605469 21.242188 2.632812 C 21.242188 2.65625 21.222656 2.675781 21.195312 2.675781 L 6.8125 2.675781 C 6.066406 2.675781 5.457031 3.285156 5.457031 4.039062 L 5.457031 5.894531 C 5.457031 5.917969 5.4375 5.9375 5.414062 5.9375 Z M 5.414062 5.9375 " fill-opacity="1" fill-rule="nonzero"/><path fill="#3d3936" d="M 20.617188 3.214844 C 20.601562 3.199219 20.601562 3.171875 20.617188 3.152344 L 21.136719 2.632812 L 20.617188 2.109375 C 20.601562 2.09375 20.601562 2.066406 20.617188 2.046875 C 20.632812 2.03125 20.660156 2.03125 20.679688 2.046875 L 21.226562 2.601562 C 21.246094 2.617188 21.246094 2.644531 21.226562 2.660156 L 20.679688 3.214844 C 20.660156 3.230469 20.632812 3.230469 20.617188 3.214844 Z M 20.617188 3.214844 " fill-opacity="1" fill-rule="nonzero"/><path fill="#ffa18a" d="M 26.730469 24.714844 L 26.132812 23.054688 C 26.089844 22.921875 26.164062 22.777344 26.296875 22.742188 C 26.355469 22.726562 26.414062 22.730469 26.464844 22.753906 C 26.503906 22.769531 26.539062 22.800781 26.5625 22.835938 L 26.519531 22.707031 C 26.5 22.644531 26.503906 22.582031 26.527344 22.527344 C 26.554688 22.464844 26.613281 22.414062 26.683594 22.390625 C 26.789062 22.363281 26.898438 22.40625 26.953125 22.496094 L 26.921875 22.394531 C 26.902344 22.332031 26.90625 22.269531 26.929688 22.214844 C 26.957031 22.152344 27.015625 22.097656 27.085938 22.078125 C 27.207031 22.042969 27.335938 22.109375 27.378906 22.230469 L 27.460938 22.449219 C 27.4375 22.324219 27.511719 22.199219 27.636719 22.164062 C 27.691406 22.148438 27.75 22.15625 27.800781 22.179688 C 27.855469 22.203125 27.90625 22.253906 27.929688 22.316406 L 28.296875 23.269531 L 28.675781 22.988281 C 28.730469 22.949219 28.796875 22.933594 28.859375 22.949219 C 29.003906 22.988281 29.070312 23.15625 28.988281 23.28125 L 28.566406 23.945312 Z M 26.730469 24.714844 " fill-opacity="1" fill-rule="nonzero"/><path fill="#3d3936" d="M 27.65625 22.980469 C 27.640625 22.980469 27.625 22.972656 27.617188 22.953125 L 27.421875 22.464844 C 27.414062 22.441406 27.421875 22.417969 27.445312 22.410156 C 27.46875 22.398438 27.492188 22.410156 27.5 22.433594 L 27.699219 22.921875 C 27.707031 22.945312 27.695312 22.96875 27.671875 22.980469 C 27.667969 22.980469 27.664062 22.980469 27.65625 22.980469 Z M 27.65625 22.980469 " fill-opacity="1" fill-rule="nonzero"/><path fill="#3d3936" d="M 27.167969 23.070312 C 27.152344 23.070312 27.136719 23.058594 27.128906 23.042969 L 26.945312 22.582031 C 26.9375 22.5625 26.945312 22.535156 26.96875 22.527344 C 26.992188 22.519531 27.015625 22.527344 27.023438 22.550781 L 27.210938 23.011719 C 27.21875 23.035156 27.207031 23.058594 27.183594 23.066406 C 27.179688 23.070312 27.175781 23.070312 27.167969 23.070312 Z M 27.167969 23.070312 " fill-opacity="1" fill-rule="nonzero"/><path fill="#3d3936" d="M 26.746094 23.316406 C 26.726562 23.316406 26.710938 23.308594 26.707031 23.289062 L 26.53125 22.855469 C 26.523438 22.832031 26.53125 22.804688 26.554688 22.796875 C 26.578125 22.789062 26.601562 22.800781 26.609375 22.820312 L 26.785156 23.257812 C 26.792969 23.28125 26.785156 23.304688 26.761719 23.316406 C 26.757812 23.316406 26.75 23.316406 26.746094 23.316406 Z M 26.746094 23.316406 " fill-opacity="1" fill-rule="nonzero"/></svg>