<svg xmlns="http://www.w3.org/2000/svg" xmlns:xlink="http://www.w3.org/1999/xlink" width="211" zoomAndPan="magnify" viewBox="0 0 158.25 195.749994" height="261" preserveAspectRatio="xMidYMid meet" version="1.0"><defs><clipPath id="8ce9697862"><path d="M 45 55 L 157.503906 55 L 157.503906 134 L 45 134 Z M 45 55 " clip-rule="nonzero"/></clipPath></defs><path fill="#de7760" d="M 50.578125 119.007812 C 50.578125 119.007812 46.839844 162.648438 47.972656 167.96875 C 48.765625 170.871094 53.828125 173.472656 53.828125 173.472656 C 56.847656 176.792969 60.171875 178.078125 55.714844 179.699219 C 50.691406 181.546875 35.242188 184.980469 32.371094 183.734375 C 29.5 182.488281 20.054688 175.398438 19.640625 170.644531 C 19.1875 165.894531 19.074219 165.402344 17.863281 159.480469 C 16.691406 153.558594 11.253906 130.132812 14.804688 122.324219 C 18.394531 114.515625 50.578125 119.007812 50.578125 119.007812 Z M 50.578125 119.007812 " fill-opacity="1" fill-rule="nonzero"/><path fill="#a44c3d" d="M 35.582031 119.15625 C 41.738281 119.570312 46.875 119.910156 50.464844 120.550781 C 50.3125 122.515625 50.011719 126.171875 49.671875 130.699219 C 46.953125 132.433594 43.628906 133.453125 40.039062 133.980469 C 38.339844 151.183594 34.144531 165.78125 35.355469 171.511719 L 34.03125 170.835938 C 33.277344 166.230469 35.617188 147.183594 36.902344 134.28125 C 27.648438 135 17.714844 133.074219 13.671875 132.207031 C 13.519531 128.097656 13.785156 124.511719 14.804688 122.25 C 14.917969 121.984375 15.070312 121.722656 15.257812 121.496094 C 20.167969 119.988281 27.121094 118.589844 35.582031 119.15625 Z M 76.605469 168.308594 C 75.925781 170.570312 84.730469 172.042969 85.484375 168.003906 L 93.152344 126.476562 L 84.613281 124.890625 Z M 131.535156 168.308594 L 123.523438 124.890625 L 114.988281 126.476562 L 122.65625 168.003906 C 123.410156 172.042969 132.214844 170.570312 131.535156 168.308594 Z M 131.535156 168.308594 " fill-opacity="1" fill-rule="nonzero"/><path fill="#f3954f" d="M 47.214844 67.40625 C 47.214844 67.40625 53.902344 86.679688 53.828125 97.730469 C 53.714844 119.835938 53.902344 126.097656 53.902344 126.097656 C 53.902344 126.097656 44.761719 133.753906 30.027344 132.660156 C 15.296875 131.53125 8.949219 127.191406 8.949219 127.191406 C 8.949219 127.191406 9.515625 117.835938 8.496094 111.425781 C 7.476562 104.972656 0.296875 78.34375 7.398438 60.273438 C 14.503906 42.207031 46.007812 59.9375 47.214844 67.40625 Z M 100.785156 59.824219 C 100.785156 59.824219 94.023438 60.765625 89.601562 61.03125 C 85.183594 61.292969 69.46875 71.0625 68.183594 82.417969 C 68.183594 82.417969 80.195312 86.792969 86.089844 86.265625 C 91.980469 85.738281 134.292969 84.492188 134.292969 84.492188 C 134.292969 84.492188 132.363281 73.628906 127.492188 68.121094 C 124.433594 64.6875 115.441406 61.445312 115.441406 61.445312 " fill-opacity="1" fill-rule="nonzero"/><path fill="#260e0d" d="M 61.683594 181.699219 C 56.320312 185.320312 47.707031 183.847656 47.707031 183.847656 C 48.238281 184.1875 48.199219 187.316406 47.933594 188.035156 C 40.566406 195.164062 31.765625 190.222656 30.707031 188.296875 C 29.652344 186.375 22.625 181.660156 21.414062 181.585938 C 20.207031 181.472656 18.316406 181.734375 17.523438 179.847656 C 16.203125 174.34375 19.074219 171.664062 19.601562 169.964844 C 19.867188 171.890625 25.457031 177.546875 31.425781 180.832031 C 37.394531 184.113281 41.929688 180.679688 40.90625 178.867188 C 40.90625 178.867188 34.257812 173.925781 33.996094 170.949219 C 33.996094 170.949219 44.082031 176.566406 48.3125 177.472656 C 52.542969 178.378906 54.054688 176.566406 53.789062 173.550781 C 53.789062 173.550781 56.847656 175.472656 59.910156 175.925781 C 62.25 176.191406 62.0625 180.792969 61.683594 181.699219 Z M 90.925781 4.222656 C 78.722656 0.335938 73.09375 7.996094 68.183594 7.769531 C 63.273438 7.542969 63.082031 5.015625 59.644531 7.050781 C 59.644531 7.050781 55.261719 5.316406 54.242188 9.804688 C 49.03125 9.316406 49.558594 13.992188 49.558594 13.992188 C 45.78125 14.632812 48.386719 18.972656 48.917969 19.6875 C 49.445312 20.40625 51.636719 32.324219 62.855469 35.53125 C 74.074219 38.738281 79.441406 29.722656 83.21875 30.964844 C 86.996094 32.210938 94.664062 30.136719 98.402344 26.929688 C 100.519531 25.234375 103.089844 8.109375 90.925781 4.222656 Z M 115.101562 163.253906 L 105.957031 164.460938 C 105.996094 166.722656 104.675781 169.25 104.03125 172.042969 C 103.390625 169.210938 102.40625 166.761719 102.445312 164.496094 L 93 163.253906 C 93.304688 164.15625 91.566406 173.136719 91.71875 175.851562 C 91.867188 178.527344 93.078125 180.605469 99.421875 180.453125 C 101.878906 180.265625 103.351562 179.433594 104.070312 178.453125 C 104.789062 179.433594 106.261719 180.265625 108.714844 180.453125 C 115.0625 180.605469 116.273438 178.527344 116.421875 175.851562 C 116.535156 173.136719 114.796875 164.15625 115.101562 163.253906 Z M 115.101562 163.253906 " fill-opacity="1" fill-rule="nonzero"/><path fill="#de7760" d="M 63.648438 58.164062 C 59.417969 66.535156 55.867188 69.027344 55.867188 69.027344 C 58.058594 69.933594 61.117188 83.773438 64.027344 86.640625 L 63.082031 93.808594 C 63.082031 93.808594 46.839844 82.230469 45.441406 71.929688 C 44.042969 61.707031 61.195312 51.148438 63.648438 58.164062 Z M 116.160156 159.101562 C 116.160156 159.066406 116.160156 159.066406 116.160156 159.101562 C 116.535156 157.667969 116.953125 156.046875 117.40625 154.3125 C 120.578125 144.050781 120.539062 133.339844 120.3125 129.417969 L 88.054688 129.417969 C 88.054688 129.417969 86.917969 133 87.5625 138.546875 C 88.355469 143.9375 90.128906 151.785156 91.640625 157.707031 C 91.753906 157.667969 91.792969 157.78125 91.90625 157.859375 C 93.644531 158.953125 95.078125 160.460938 96.929688 161.289062 C 97.15625 161.402344 97.421875 161.480469 97.6875 161.480469 C 98.0625 161.480469 98.402344 161.328125 98.78125 161.175781 C 99.308594 160.953125 99.875 160.839844 100.445312 160.761719 C 100.785156 160.726562 101.125 160.726562 101.386719 160.574219 C 101.804688 160.386719 102.066406 159.96875 102.484375 159.859375 C 102.484375 159.820312 102.484375 159.78125 102.484375 159.707031 C 102.484375 159.707031 102.484375 159.667969 102.484375 159.667969 C 102.484375 159.632812 102.484375 159.59375 102.484375 159.554688 C 102.484375 159.519531 102.484375 159.519531 102.484375 159.480469 C 102.484375 159.441406 102.484375 159.367188 102.484375 159.328125 C 102.484375 159.292969 102.484375 159.292969 102.484375 159.253906 C 102.484375 159.179688 102.484375 159.101562 102.484375 158.988281 C 102.484375 158.953125 102.484375 158.914062 102.484375 158.875 C 102.484375 158.839844 102.484375 158.761719 102.484375 158.726562 C 102.484375 158.652344 102.484375 158.613281 102.484375 158.539062 C 102.484375 158.5 102.484375 158.460938 102.484375 158.386719 C 102.484375 158.3125 102.484375 158.234375 102.484375 158.160156 C 102.484375 158.160156 102.484375 158.121094 102.484375 158.085938 C 102.484375 157.78125 102.484375 157.480469 102.519531 157.140625 C 102.519531 157.105469 102.519531 157.066406 102.519531 157.066406 C 102.519531 156.953125 102.519531 156.839844 102.519531 156.726562 C 102.519531 156.726562 102.519531 156.6875 102.519531 156.6875 C 102.519531 156.3125 102.558594 155.933594 102.558594 155.519531 C 102.558594 155.480469 102.558594 155.445312 102.558594 155.367188 C 103.050781 143.296875 104.449219 135.039062 104.449219 135.039062 C 104.449219 135.039062 106.941406 143.335938 106.414062 154.765625 C 106.414062 155.253906 106.414062 155.707031 106.375 156.125 C 106.375 156.234375 106.375 156.3125 106.375 156.425781 C 106.375 156.613281 106.375 156.800781 106.375 156.953125 C 106.375 156.953125 106.375 156.992188 106.375 156.992188 C 106.375 157.066406 106.375 157.140625 106.375 157.21875 C 106.375 157.292969 106.375 157.367188 106.375 157.441406 C 106.375 157.519531 106.375 157.59375 106.375 157.632812 C 106.375 157.632812 106.375 157.667969 106.375 157.667969 C 106.375 157.707031 106.375 157.78125 106.375 157.820312 C 106.375 157.820312 106.375 157.859375 106.375 157.859375 C 106.375 157.894531 106.375 157.933594 106.375 158.007812 C 106.375 158.046875 106.375 158.046875 106.375 158.085938 C 106.375 158.121094 106.375 158.160156 106.375 158.199219 C 106.375 158.234375 106.375 158.234375 106.375 158.273438 C 106.375 158.3125 106.375 158.347656 106.375 158.347656 C 106.375 158.386719 106.375 158.425781 106.375 158.460938 C 106.375 158.460938 106.375 158.5 106.375 158.5 C 106.375 158.539062 106.375 158.574219 106.375 158.613281 C 106.828125 159.328125 107.46875 160.082031 108.1875 160.535156 C 108.714844 160.839844 109.320312 160.988281 109.886719 161.140625 C 110.566406 161.289062 111.246094 161.441406 111.925781 161.289062 C 112.382812 161.175781 112.757812 160.953125 113.136719 160.726562 C 113.628906 160.421875 114.15625 160.121094 114.648438 159.820312 C 115.136719 159.554688 115.59375 159.253906 116.160156 159.101562 Z M 116.160156 159.101562 " fill-opacity="1" fill-rule="nonzero"/><g clip-path="url(#8ce9697862)"><path fill="#a44c3d" d="M 56.886719 68.160156 C 56.246094 68.800781 55.90625 69.027344 55.90625 69.027344 C 56.320312 69.214844 56.773438 69.820312 57.226562 70.761719 C 57.226562 70.761719 53.601562 69.101562 53.941406 68.234375 C 54.167969 67.59375 55.867188 68.007812 56.886719 68.160156 Z M 157.597656 100.484375 L 148.988281 83.851562 L 63.5 83.851562 L 62.855469 84.945312 C 62.175781 83.699219 61.535156 82.117188 60.890625 80.34375 C 57.757812 77.703125 53.183594 69.78125 50.125 66.308594 C 51.710938 63.785156 56.472656 60.992188 56.472656 60.992188 C 58.210938 61.480469 60.855469 60.878906 62.515625 60.425781 C 62.894531 59.746094 63.308594 58.992188 63.726562 58.164062 C 61.796875 52.65625 50.878906 57.9375 46.875 65.40625 C 46.839844 65.480469 46.800781 65.519531 46.800781 65.59375 C 46.761719 65.632812 46.761719 65.707031 46.726562 65.746094 C 46.6875 65.820312 46.648438 65.933594 46.613281 66.007812 C 46.574219 66.046875 46.574219 66.085938 46.535156 66.160156 C 46.5 66.234375 46.460938 66.347656 46.421875 66.421875 C 46.386719 66.460938 46.386719 66.5 46.347656 66.574219 C 46.308594 66.648438 46.273438 66.761719 46.234375 66.839844 C 46.234375 66.875 46.195312 66.914062 46.195312 66.953125 C 46.160156 67.066406 46.121094 67.140625 46.082031 67.253906 C 46.082031 67.292969 46.046875 67.328125 46.046875 67.367188 C 46.007812 67.480469 45.96875 67.554688 45.933594 67.667969 C 45.933594 67.707031 45.894531 67.742188 45.894531 67.78125 C 45.855469 67.894531 45.820312 68.007812 45.820312 68.121094 C 45.820312 68.160156 45.820312 68.195312 45.78125 68.195312 C 45.742188 68.308594 45.707031 68.421875 45.707031 68.535156 C 45.707031 68.574219 45.707031 68.574219 45.707031 68.613281 C 45.441406 69.742188 45.367188 70.875 45.515625 72.007812 C 46.5 79.097656 54.507812 86.792969 59.417969 90.902344 L 53.714844 100.523438 L 53.714844 107.425781 L 56.960938 107.425781 L 56.960938 133.792969 L 154.464844 133.792969 L 154.464844 107.425781 L 157.710938 107.425781 L 157.710938 100.484375 Z M 157.597656 100.484375 " fill-opacity="1" fill-rule="nonzero"/></g><path fill="#efd9c2" d="M 64.027344 97.617188 L 72.453125 86.679688 L 88.808594 86.679688 L 88.203125 97.617188 Z M 106.414062 157.140625 C 106.414062 157.179688 106.414062 157.21875 106.414062 157.21875 C 106.414062 157.292969 106.414062 157.367188 106.414062 157.441406 C 106.414062 157.519531 106.414062 157.59375 106.414062 157.632812 C 106.414062 157.632812 106.414062 157.667969 106.414062 157.667969 C 106.414062 157.707031 106.414062 157.78125 106.414062 157.820312 C 106.414062 157.820312 106.414062 157.859375 106.414062 157.859375 C 106.414062 157.894531 106.414062 157.933594 106.414062 158.007812 C 106.414062 158.046875 106.414062 158.046875 106.414062 158.085938 C 106.414062 158.121094 106.414062 158.160156 106.414062 158.199219 C 106.414062 158.234375 106.414062 158.234375 106.414062 158.273438 C 106.414062 158.3125 106.414062 158.347656 106.414062 158.347656 C 106.414062 158.386719 106.414062 158.425781 106.414062 158.460938 C 106.414062 158.460938 106.414062 158.5 106.414062 158.5 C 106.414062 158.539062 106.414062 158.574219 106.414062 158.613281 C 106.222656 161.214844 106.035156 163.140625 105.996094 165.667969 C 107.773438 164.082031 113.96875 164.6875 114.722656 166.007812 C 114.761719 165.214844 114.761719 164.574219 114.875 164.15625 C 114.875 164.121094 114.910156 164.042969 114.910156 163.96875 C 114.910156 163.96875 114.910156 163.929688 114.910156 163.929688 C 114.910156 163.894531 114.910156 163.894531 114.949219 163.855469 C 114.949219 163.855469 114.949219 163.816406 114.949219 163.816406 C 114.949219 163.78125 114.949219 163.742188 114.988281 163.703125 C 114.988281 163.703125 114.988281 163.667969 114.988281 163.667969 C 114.988281 163.628906 115.023438 163.589844 115.023438 163.554688 C 115.023438 163.554688 115.023438 163.515625 115.023438 163.515625 C 115.023438 163.480469 115.0625 163.441406 115.0625 163.367188 C 115.0625 163.367188 115.0625 163.328125 115.0625 163.328125 C 115.101562 163.214844 115.136719 163.101562 115.175781 162.949219 C 115.175781 162.914062 115.175781 162.914062 115.175781 162.875 C 115.402344 161.96875 115.78125 160.648438 116.195312 159.027344 C 116.195312 159.027344 116.195312 158.988281 116.195312 158.988281 C 116.273438 158.6875 116.347656 158.347656 116.460938 158.007812 C 113.0625 158.347656 109.625 158.046875 106.414062 157.140625 Z M 102.40625 165.554688 C 102.519531 163.515625 102.558594 161.78125 102.484375 159.859375 C 102.484375 159.820312 102.484375 159.78125 102.484375 159.707031 C 102.484375 159.707031 102.484375 159.667969 102.484375 159.667969 C 102.484375 159.632812 102.484375 159.59375 102.484375 159.554688 C 102.484375 159.519531 102.484375 159.519531 102.484375 159.480469 C 102.484375 159.441406 102.484375 159.367188 102.484375 159.328125 C 102.484375 159.292969 102.484375 159.292969 102.484375 159.253906 C 102.484375 159.179688 102.484375 159.101562 102.484375 158.988281 C 102.484375 158.953125 102.484375 158.914062 102.484375 158.875 C 102.484375 158.839844 102.484375 158.761719 102.484375 158.726562 C 102.484375 158.652344 102.484375 158.613281 102.484375 158.539062 C 102.484375 158.5 102.484375 158.460938 102.484375 158.386719 C 102.484375 158.3125 102.484375 158.234375 102.484375 158.160156 C 102.484375 158.160156 102.484375 158.121094 102.484375 158.085938 C 102.484375 157.78125 102.484375 157.480469 102.519531 157.140625 C 102.519531 157.105469 102.519531 157.066406 102.519531 157.066406 C 102.519531 157.027344 102.519531 156.992188 102.519531 156.992188 C 100.480469 157.820312 98.289062 158.085938 96.136719 158.085938 C 94.738281 158.085938 93.078125 157.667969 91.605469 157.707031 C 92.207031 160.082031 92.699219 162.046875 93 163.175781 C 93 163.253906 93.039062 163.289062 93.039062 163.367188 C 93.039062 163.402344 93.078125 163.441406 93.078125 163.515625 C 93.078125 163.554688 93.078125 163.554688 93.078125 163.589844 C 93.078125 163.628906 93.078125 163.667969 93.113281 163.703125 C 93.113281 163.703125 93.113281 163.742188 93.113281 163.742188 C 93.113281 163.78125 93.113281 163.816406 93.152344 163.816406 C 93.152344 163.816406 93.152344 163.855469 93.152344 163.855469 C 93.152344 163.894531 93.152344 163.894531 93.152344 163.929688 C 93.152344 163.929688 93.152344 163.96875 93.152344 163.96875 C 93.152344 164.007812 93.152344 164.007812 93.152344 164.042969 C 93.152344 164.042969 93.152344 164.082031 93.152344 164.082031 C 93.152344 164.121094 93.152344 164.121094 93.152344 164.15625 C 93.265625 164.574219 93.265625 165.214844 93.304688 166.007812 C 93.757812 164.574219 101.238281 163.515625 102.40625 165.554688 Z M 102.40625 165.554688 " fill-opacity="1" fill-rule="nonzero"/><path fill="#260e0d" d="M 89.335938 83.851562 L 111.472656 83.851562 C 114.15625 86.113281 114.003906 89.660156 112.078125 91.167969 C 109.207031 93.429688 74.945312 90.640625 74.945312 90.640625 C 72.753906 93.996094 61.230469 92.789062 58.585938 92.414062 L 61.457031 87.734375 C 67.351562 87.472656 79.894531 85.359375 89.335938 83.851562 Z M 89.335938 83.851562 " fill-opacity="0.25" fill-rule="nonzero"/><path fill="#efd9c2" d="M 144.074219 94.601562 L 144.074219 97.617188 L 108.867188 97.617188 L 108.867188 94.601562 L 112.117188 86 C 115.0625 86.566406 120.539062 80.796875 125.867188 85.398438 L 125.90625 85.546875 L 125.90625 85.398438 C 131.230469 80.796875 136.710938 86.566406 139.65625 86 Z M 49.445312 77.890625 C 48.539062 75.0625 47.894531 66.535156 48.539062 65.519531 C 49.179688 64.5 58.550781 58.503906 58.550781 58.503906 C 60.289062 59.332031 63.648438 58.125 63.648438 58.125 C 63.648438 58.125 71.921875 41.679688 73.132812 38.285156 C 74.339844 34.890625 72.601562 33.003906 72.601562 33.003906 C 72.601562 33.003906 66.371094 32.097656 63.574219 31.832031 C 60.742188 31.570312 60.136719 26.816406 60.136719 26.816406 C 55.113281 24.816406 56.320312 20.066406 53.335938 19.046875 C 53.335938 19.046875 47.632812 17.273438 39.886719 22.027344 C 32.144531 26.78125 18.015625 41.828125 11.933594 51.070312 C 5.851562 60.3125 5.550781 64.539062 5.550781 64.539062 C 5.550781 64.539062 17.03125 83.660156 37.167969 81.738281 C 44.722656 80.984375 49.445312 77.890625 49.445312 77.890625 Z M 49.445312 77.890625 " fill-opacity="1" fill-rule="nonzero"/><path fill="#260e0d" d="M 144.074219 94.601562 L 144.074219 97.617188 L 108.867188 97.617188 L 108.867188 94.601562 C 114.570312 94.601562 119.597656 91.320312 124.355469 93.09375 L 125.035156 84.753906 C 125.300781 84.945312 125.601562 85.132812 125.867188 85.398438 L 125.90625 85.546875 L 125.90625 85.398438 L 126.132812 94.035156 C 133.648438 90.601562 138.976562 94.976562 144.074219 94.601562 Z M 57.265625 100.5625 C 56.847656 100.976562 155.671875 100.976562 156.089844 100.5625 C 156.503906 100.144531 59.230469 98.675781 57.265625 100.5625 Z M 154.386719 107.125 L 56.847656 107.125 L 56.847656 113.195312 L 154.351562 113.195312 L 154.351562 107.125 Z M 154.386719 107.125 " fill-opacity="0.25" fill-rule="nonzero"/><path fill="#a44c3d" d="M 112.496094 88.074219 C 112.417969 88.488281 111.664062 88.566406 111.664062 88.566406 L 111.925781 89.09375 C 111.925781 89.09375 110.945312 90 109.585938 89.09375 C 109.019531 89.960938 107.621094 89.621094 105.46875 88.1875 C 104.976562 87.699219 100.707031 91.734375 97.421875 88.941406 C 96.25 88.113281 74.113281 93.128906 68.710938 85.207031 C 67.730469 83.324219 67.578125 80.71875 67.578125 80.71875 C 67.578125 80.71875 76.570312 75.476562 84.046875 77.890625 C 88.808594 79.058594 94.816406 83.964844 97.761719 83.8125 C 99.195312 83.472656 102.824219 82.757812 103.882812 82.53125 C 104.9375 82.304688 108.488281 84.304688 109.09375 84.71875 C 109.738281 85.09375 112.570312 87.660156 112.496094 88.074219 Z M 71.65625 156.726562 L 71.65625 126.097656 L 63.613281 126.097656 L 63.613281 131.832031 L 56.886719 131.832031 L 56.886719 183.167969 C 56.960938 184.714844 64.972656 184.5625 64.972656 183.167969 L 64.972656 178.304688 C 67.050781 178.792969 70.941406 178.527344 71.621094 177.699219 C 73.960938 178 76.71875 177.398438 77.136719 175.246094 L 84.804688 133.71875 L 76.265625 132.132812 Z M 147.625 131.792969 L 147.625 126.097656 L 139.542969 126.097656 L 139.542969 173.550781 L 131.910156 132.132812 L 123.375 133.71875 L 131.042969 175.246094 C 131.648438 178.605469 137.878906 178.152344 139.542969 176.605469 L 139.542969 177.472656 C 139.542969 178.492188 144 178.867188 146.265625 178.339844 L 146.265625 183.207031 C 146.265625 184.601562 154.238281 184.753906 154.351562 183.207031 L 154.351562 131.792969 Z M 147.625 131.792969 " fill-opacity="1" fill-rule="nonzero"/><path fill="#260e0d" d="M 98.78125 53.484375 C 97.042969 53.484375 97.800781 50.242188 97.800781 50.242188 C 95.949219 48.695312 96.664062 45.941406 98.0625 45.5625 C 96.476562 42.507812 99.726562 40.171875 100.480469 40.886719 C 99.953125 37.265625 104.9375 37.492188 105.390625 38.773438 C 106.1875 35.644531 110.304688 35.644531 110.832031 37 C 111.964844 35.152344 116.347656 37 116.234375 38.132812 C 117.554688 36.738281 120.804688 39.378906 120.539062 40.886719 C 122.164062 39.792969 123.375 43.566406 122.882812 44.621094 C 125.1875 44.695312 125.074219 48.808594 124.394531 49.222656 C 126.773438 50.203125 124.734375 54.65625 123.902344 54.730469 C 125.261719 56.316406 122.65625 59.898438 121.070312 58.765625 C 121.371094 62.199219 116.613281 61.59375 116.613281 61.59375 M 74.039062 85.285156 C 73.621094 85.546875 73.207031 85.8125 72.792969 86.113281 L 74.1875 89.734375 L 75.738281 91.695312 C 75.851562 91.847656 76.078125 91.773438 76.078125 91.582031 L 76.078125 89.132812 C 76.078125 89.132812 75.359375 87.320312 74.492188 85.09375 C 74.378906 85.132812 74.1875 85.171875 74.039062 85.285156 Z M 74.039062 85.285156 " fill-opacity="1" fill-rule="nonzero"/><path fill="#260e0d" d="M 42.191406 80.832031 C 42.15625 80.832031 42.078125 80.871094 42.042969 80.871094 C 43.0625 80.605469 44.003906 80.304688 44.835938 80.039062 C 44.910156 79.738281 44.988281 79.4375 44.949219 79.136719 C 44.914062 78.496094 44.535156 77.890625 44.15625 77.324219 C 43.023438 75.628906 41.851562 73.96875 40.679688 72.308594 C 40 71.363281 39.320312 70.421875 38.453125 69.628906 C 37.847656 69.101562 37.167969 68.6875 36.675781 68.046875 C 36.148438 67.367188 35.882812 66.535156 35.316406 65.894531 C 34.902344 65.441406 34.335938 65.101562 33.917969 64.613281 C 33.464844 64.046875 33.316406 63.292969 33.089844 62.578125 C 32.824219 61.820312 32.484375 61.105469 31.992188 60.464844 C 31.765625 60.160156 31.425781 59.824219 31.046875 59.898438 L 29.765625 58.539062 C 31.652344 50.316406 34.789062 43.566406 34.449219 42.699219 C 34.070312 41.867188 22.398438 59.03125 25.570312 80.492188 C 14.3125 76.949219 7.398438 67.40625 5.8125 65.066406 C 5.359375 66.914062 5.019531 68.800781 4.753906 70.722656 C 8.34375 74.761719 20.925781 86.71875 41.777344 82.984375 C 41.777344 82.984375 48.804688 88.300781 52.921875 89.507812 C 52.730469 88.488281 52.542969 87.472656 52.355469 86.453125 C 49.179688 84.867188 45.554688 82.984375 42.191406 80.832031 Z M 25.796875 80.570312 C 25.949219 80.605469 26.0625 80.644531 26.210938 80.683594 C 26.0625 80.644531 25.949219 80.605469 25.796875 80.570312 Z M 26.894531 80.871094 C 27.042969 80.910156 27.195312 80.945312 27.347656 80.984375 C 27.195312 80.945312 27.042969 80.910156 26.894531 80.871094 Z M 28.0625 81.171875 C 28.214844 81.210938 28.328125 81.246094 28.480469 81.246094 C 28.328125 81.246094 28.214844 81.210938 28.0625 81.171875 Z M 40.53125 104.105469 C 40.605469 110.480469 40.191406 116.855469 39.285156 123.15625 C 39.207031 123.609375 39.132812 124.0625 38.832031 124.398438 C 38.527344 124.738281 37.921875 124.851562 37.660156 124.476562 C 37.207031 123.910156 38.074219 120.136719 38.148438 119.308594 C 38.300781 117.535156 38.414062 115.722656 38.527344 113.953125 C 38.714844 110.78125 38.527344 107.539062 38.792969 104.371094 C 38.832031 103.765625 38.90625 101.882812 39.851562 101.730469 C 40.871094 101.542969 40.53125 103.390625 40.53125 104.105469 Z M 127.113281 94.375 C 127.226562 94.335938 130.550781 92.675781 133.308594 93.769531 C 133.535156 94.035156 131.683594 93.46875 130.511719 93.65625 C 129.34375 93.847656 126.8125 94.789062 127.113281 94.375 Z M 136.140625 94.941406 C 137.957031 95.621094 140.828125 95.695312 141.089844 95.769531 C 141.355469 95.882812 138.671875 95.808594 136.671875 95.316406 C 133.535156 94.636719 130.324219 94.828125 130.890625 94.449219 C 130.890625 94.488281 134.328125 94.261719 136.140625 94.941406 Z M 137.804688 96.601562 C 137.617188 96.789062 130.363281 96.714844 130.4375 96.5625 C 130.511719 96.449219 134.101562 96.296875 134.101562 96.296875 C 135.765625 96.222656 137.957031 96.410156 137.804688 96.601562 Z M 121.144531 93.769531 C 120.085938 93.847656 116.761719 95.167969 116.007812 95.167969 C 115.25 95.167969 115.628906 94.863281 115.78125 94.863281 C 116.988281 94.75 121.183594 92.714844 122.84375 93.960938 C 122.996094 94.222656 122.203125 93.695312 121.144531 93.769531 Z M 123.941406 95.46875 C 124.316406 95.621094 123.941406 96.035156 123.296875 95.582031 C 122.65625 95.128906 120.765625 94.976562 120.730469 94.828125 C 121.636719 94.5625 123.941406 95.46875 123.941406 95.46875 Z M 112.722656 96.375 C 112.796875 96.488281 108.867188 96.601562 108.867188 96.601562 L 108.867188 96.375 C 108.980469 96.375 112.644531 96.296875 112.722656 96.375 Z M 116.421875 91.242188 C 115.96875 91.355469 115.707031 91.808594 115.328125 92.074219 C 114.910156 92.335938 114.34375 92.335938 113.929688 92.074219 C 114.195312 91.886719 114.457031 92.074219 114.761719 92.035156 C 115.289062 91.960938 115.515625 91.242188 116.046875 91.015625 C 116.273438 90.90625 116.535156 90.941406 116.761719 90.90625 C 117.066406 90.867188 117.367188 90.753906 117.59375 90.601562 C 117.859375 90.414062 118.121094 90.1875 118.464844 90.148438 C 118.839844 90.113281 119.144531 90.375 119.519531 90.414062 C 119.785156 90.414062 120.011719 90.300781 120.238281 90.226562 C 120.84375 90 121.5625 90.035156 122.164062 90.226562 C 122.242188 90.261719 122.242188 90.453125 122.316406 90.414062 C 121.636719 90.1875 120.84375 90.261719 120.199219 90.566406 C 119.9375 90.679688 119.671875 90.867188 119.371094 90.867188 C 119.066406 90.828125 118.804688 90.601562 118.5 90.601562 C 118.121094 90.601562 117.859375 90.980469 117.480469 91.09375 C 117.179688 91.242188 116.800781 91.128906 116.421875 91.242188 Z M 114.949219 88.867188 C 114.421875 89.394531 113.589844 89.621094 112.871094 89.394531 C 112.796875 89.359375 112.910156 89.28125 112.984375 89.28125 C 113.476562 89.246094 114.042969 89.28125 114.457031 88.980469 C 114.683594 88.792969 114.875 88.488281 115.175781 88.488281 C 115.367188 88.488281 115.554688 88.679688 115.707031 88.792969 C 115.96875 88.941406 116.308594 88.980469 116.613281 88.828125 C 116.839844 88.714844 117.027344 88.527344 117.253906 88.414062 C 117.59375 88.265625 117.972656 88.265625 118.3125 88.265625 C 118.765625 88.226562 119.21875 88.074219 119.597656 87.847656 C 119.785156 87.734375 119.972656 87.585938 120.199219 87.546875 C 120.390625 87.507812 120.578125 87.507812 120.804688 87.507812 C 120.992188 87.507812 121.183594 87.734375 121.371094 87.734375 C 120.84375 87.621094 120.3125 87.699219 119.859375 88 C 119.671875 88.113281 119.519531 88.265625 119.292969 88.339844 C 118.839844 88.527344 118.3125 88.339844 117.820312 88.453125 C 117.519531 88.527344 117.292969 88.679688 117.066406 88.867188 C 116.839844 89.054688 116.574219 89.207031 116.308594 89.28125 C 116.046875 89.359375 115.707031 89.320312 115.515625 89.09375 C 115.402344 88.980469 115.328125 88.753906 115.136719 88.792969 C 115.101562 88.714844 115.023438 88.828125 114.949219 88.867188 Z M 112.984375 87.09375 C 112.949219 87.058594 112.984375 87.019531 113.0625 86.980469 C 113.136719 86.945312 113.175781 86.945312 113.210938 86.980469 C 113.550781 87.019531 113.855469 87.132812 114.195312 87.132812 C 114.796875 87.132812 115.328125 86.753906 115.820312 86.414062 C 115.894531 86.378906 115.96875 86.300781 116.046875 86.300781 C 116.121094 86.265625 116.234375 86.265625 116.308594 86.265625 C 116.613281 86.265625 116.914062 86.265625 117.214844 86.265625 C 117.367188 86.265625 117.519531 86.265625 117.667969 86.226562 C 117.859375 86.1875 118.046875 86.113281 118.234375 86.039062 C 119.066406 85.738281 119.972656 85.699219 120.804688 85.964844 C 120.878906 86 120.957031 86 120.992188 86.074219 C 121.03125 86.152344 120.878906 86.226562 120.804688 86.226562 C 120.050781 86.074219 119.257812 85.925781 118.539062 86.1875 C 118.3125 86.265625 118.085938 86.378906 117.820312 86.453125 C 117.328125 86.566406 116.800781 86.339844 116.308594 86.453125 C 115.894531 86.527344 115.554688 86.832031 115.136719 87.058594 C 114.496094 87.394531 113.664062 87.394531 112.984375 87.09375 Z M 129.871094 91.921875 C 130.398438 91.546875 131.042969 91.355469 131.648438 91.355469 C 132.25 91.355469 132.855469 91.546875 133.460938 91.507812 C 133.914062 91.46875 134.40625 91.320312 134.859375 91.46875 C 135.085938 91.546875 135.3125 91.695312 135.539062 91.808594 C 136.367188 92.1875 137.351562 91.773438 138.21875 91.921875 C 138.636719 92 138.976562 92.1875 139.351562 92.375 C 139.464844 92.449219 139.351562 92.375 139.351562 92.527344 C 138.523438 92.335938 137.691406 92.148438 136.859375 92.113281 C 136.519531 92.113281 136.21875 92.113281 135.878906 92.035156 C 135.539062 91.960938 135.234375 91.773438 134.859375 91.660156 C 134.59375 91.582031 134.292969 91.582031 133.988281 91.582031 C 133.613281 91.582031 133.234375 91.546875 132.855469 91.546875 C 131.949219 91.507812 130.96875 91.507812 130.171875 91.921875 C 130.058594 92.035156 129.945312 92.074219 129.871094 91.921875 Z M 135.5 89.167969 C 135.5 89.132812 135.5 89.09375 135.539062 89.054688 C 135.839844 89.054688 136.105469 88.867188 136.40625 88.90625 C 136.632812 88.941406 136.785156 89.09375 136.972656 89.207031 C 137.199219 89.320312 137.425781 89.320312 137.691406 89.28125 C 137.878906 89.246094 138.070312 89.09375 138.296875 89.09375 C 138.597656 89.054688 138.863281 89.207031 139.125 89.359375 C 139.390625 89.507812 139.691406 89.621094 139.996094 89.546875 C 139.996094 89.507812 140.109375 89.546875 140.109375 89.585938 C 140.109375 89.621094 140.109375 89.621094 140.070312 89.660156 C 139.921875 89.808594 139.691406 89.847656 139.464844 89.808594 C 139.238281 89.773438 139.050781 89.660156 138.863281 89.546875 C 138.671875 89.433594 138.445312 89.359375 138.257812 89.394531 C 137.957031 89.433594 137.691406 89.660156 137.390625 89.660156 C 137.011719 89.660156 136.710938 89.28125 136.332031 89.246094 C 136.027344 89.132812 135.726562 89.28125 135.5 89.167969 Z M 109.132812 85.851562 C 110.945312 87.171875 111.851562 88.074219 112.152344 88.414062 C 111.925781 88.527344 111.664062 88.566406 111.664062 88.566406 C 111.664062 88.566406 111.585938 88.488281 111.472656 88.339844 C 111.171875 88.601562 110.679688 88.566406 110.832031 88.414062 L 111.285156 88.152344 C 110.757812 87.585938 109.738281 86.566406 109.054688 86.113281 C 108.074219 85.511719 106.300781 84.566406 106.300781 84.566406 C 105.84375 84.339844 106.902344 84.265625 109.132812 85.851562 Z M 109.132812 88.679688 C 108.828125 88.980469 108.339844 88.90625 108.488281 88.753906 L 108.867188 88.414062 C 108.375 87.960938 107.734375 87.394531 107.242188 87.09375 C 106.375 86.492188 105.128906 86 105.128906 86 C 104.789062 85.925781 105.355469 85.433594 106.335938 86 C 107.320312 86.566406 109.925781 88.753906 110.113281 89.394531 C 109.925781 89.320312 109.773438 89.246094 109.585938 89.132812 C 109.585938 89.09375 109.433594 88.90625 109.132812 88.679688 Z M 111.511719 87.546875 L 111.851562 87.171875 L 112.078125 87.394531 C 111.851562 87.8125 111.324219 87.8125 111.511719 87.546875 Z M 104.789062 83.851562 C 105.015625 84.078125 104.335938 83.886719 104.070312 83.964844 C 103.769531 84.039062 103.316406 83.925781 103.617188 83.738281 C 103.996094 83.585938 104.449219 83.660156 104.789062 83.851562 Z M 104.371094 85.546875 C 104.5625 85.585938 104.109375 85.699219 103.957031 85.738281 C 103.804688 85.8125 103.351562 85.773438 103.542969 85.660156 C 103.804688 85.511719 104.109375 85.472656 104.371094 85.546875 Z M 60.476562 58.804688 C 59.796875 58.84375 59.078125 58.765625 58.550781 58.539062 C 61.835938 56.125 63.347656 50.730469 64.632812 50.015625 C 65.765625 49.410156 63.460938 55.898438 60.476562 58.804688 Z M 52.242188 40.621094 C 53.035156 40.960938 51.597656 44.128906 49.519531 48.28125 C 47.480469 52.429688 45.742188 60.917969 45.402344 59.21875 C 45.027344 57.484375 51.335938 40.246094 52.242188 40.621094 Z M 37.394531 30.097656 C 35.996094 28.476562 41.472656 23.421875 44.269531 22.101562 C 47.027344 20.78125 49.40625 22.101562 48.160156 22.554688 C 42.382812 21.121094 37.960938 30.402344 37.394531 30.097656 Z M 57.113281 36.472656 C 56.320312 36.171875 55.640625 35.832031 55.679688 35.605469 C 55.753906 35.003906 58.058594 26.363281 58.398438 26.25 C 59.039062 26.589844 56.546875 35.605469 56.546875 35.605469 C 56.546875 35.605469 60.363281 36.925781 60.097656 37.191406 C 59.945312 37.339844 58.8125 37.078125 57.71875 36.699219 C 58.097656 37.417969 56.472656 39.566406 56.472656 39.566406 C 56.472656 39.566406 59.304688 47.941406 58.851562 47.941406 C 58.398438 47.941406 55.714844 39.300781 55.714844 39.300781 C 55.714844 39.300781 56.960938 36.4375 57.113281 36.472656 Z M 60.628906 47.640625 C 58.472656 50.882812 55.640625 53.9375 55.679688 53.144531 C 55.867188 51.824219 61.082031 46.621094 61.949219 41.941406 L 63.460938 40.472656 C 63.460938 40.472656 63.988281 41.566406 61.949219 45.449219 C 61.875 45.5625 61.796875 45.714844 61.722656 45.828125 C 63.15625 44.546875 64.972656 42.8125 65.046875 42.546875 C 65.160156 42.167969 63.988281 40.773438 64.667969 39.980469 C 65.3125 39.1875 65.652344 41.566406 65.726562 42.621094 C 65.800781 43.375 62.175781 46.808594 60.628906 47.640625 Z M 67.878906 40.09375 C 67.425781 40.058594 65.425781 39.640625 65.425781 39.640625 C 65.460938 38.699219 67.390625 39.339844 67.390625 39.339844 C 67.390625 39.339844 67.617188 34.324219 67.878906 34.398438 C 68.144531 34.4375 68.332031 40.132812 67.878906 40.09375 Z M 89.828125 61.671875 C 88.996094 64.6875 87.941406 71.667969 87.03125 71.667969 C 86.125 71.667969 86.84375 64.839844 87.941406 62.726562 C 89.035156 60.613281 90.054688 60.839844 89.828125 61.671875 Z M 122.390625 74.34375 C 121.863281 73.703125 123.488281 68.800781 124.582031 67.367188 C 125.074219 66.726562 125.566406 67.855469 124.582031 68.949219 C 123.601562 70.042969 122.882812 74.984375 122.390625 74.34375 Z M 123.375 133.679688 L 130.097656 169.964844 C 129.570312 170.191406 128.890625 170.34375 128.210938 170.457031 L 120.652344 133.679688 Z M 84.84375 133.753906 L 87.5625 133.753906 L 79.929688 170.496094 C 79.25 170.417969 78.609375 170.230469 78.042969 170.003906 Z M 64.933594 133.753906 L 71.65625 133.753906 L 71.65625 156.765625 L 68.183594 175.585938 C 67.878906 176.644531 69.582031 177.511719 71.542969 177.738281 C 70.863281 178.566406 67.011719 178.832031 64.894531 178.339844 L 64.894531 135.714844 C 63.195312 135.753906 60.816406 135.679688 60.855469 135.039062 C 61.003906 134.054688 64.933594 133.753906 64.933594 133.753906 Z M 150.347656 135.039062 C 150.421875 135.640625 148.003906 135.714844 146.304688 135.714844 L 146.304688 178.339844 C 144 178.867188 139.578125 178.527344 139.578125 177.472656 L 139.578125 133.753906 L 146.304688 133.753906 C 146.304688 133.753906 150.234375 134.054688 150.347656 135.039062 Z M 150.347656 135.039062 " fill-opacity="0.25" fill-rule="nonzero"/><path fill="#de7760" d="M 29.839844 58.539062 C 30.445312 58.539062 45.402344 58.539062 45.402344 58.539062 C 45.402344 60.804688 44.34375 62.800781 44.34375 62.800781 C 47.78125 63.40625 58.359375 82.453125 63.273438 82.605469 C 66.371094 81.964844 67.917969 79.398438 70.488281 79.023438 C 73.054688 78.644531 77.363281 82.078125 77.703125 82.71875 C 78.042969 83.359375 77.136719 84.492188 76.683594 84.679688 C 76.832031 85.699219 76.003906 87.320312 75.246094 87.546875 C 75.246094 87.546875 75.890625 89.472656 73.359375 89.960938 C 73.472656 91.167969 72.792969 92.488281 69.46875 90.753906 C 68.105469 90.113281 65.878906 93.207031 62.816406 91.207031 C 61.683594 90.074219 33.957031 80.644531 30.519531 68.460938 C 29.121094 63.253906 29.839844 58.539062 29.839844 58.539062 Z M 68.671875 25.496094 C 65.953125 25.195312 64.78125 27.875 60.136719 26.890625 C 61.835938 33.117188 61.949219 39.378906 61.988281 41.941406 C 65.160156 39.566406 66.824219 34.359375 67.765625 34.324219 C 67.765625 34.324219 73.433594 34.324219 74 35.378906 C 74 35.378906 74.640625 36.851562 75.171875 37.71875 C 76.910156 40.886719 79.589844 39.339844 80.875 39.453125 C 82.160156 39.566406 83.292969 38.433594 83.292969 38.433594 C 83.292969 38.433594 84.125 38.699219 84.425781 38.699219 C 84.730469 38.699219 86.316406 37.152344 86.617188 37.378906 C 86.917969 37.605469 88.769531 39.113281 89.675781 38.433594 C 90.582031 37.757812 91.039062 34.925781 91.71875 33.605469 C 92.398438 32.285156 98.027344 28.589844 98.480469 26.890625 C 98.480469 26.890625 87.183594 31.15625 81.894531 20.855469 C 81.894531 20.855469 81.0625 17.3125 78.304688 18.519531 C 75.550781 19.726562 76.152344 24.0625 76.492188 24.667969 C 76.910156 27.988281 72.601562 25.910156 68.671875 25.496094 Z M 101.199219 178.339844 C 104.371094 177.472656 103.917969 176.039062 103.050781 176.71875 C 97.082031 179.585938 92.964844 176.078125 92.660156 176.679688 C 92.925781 177.851562 98.027344 179.207031 101.199219 178.339844 Z M 115.441406 176.679688 C 115.136719 176.078125 111.019531 179.585938 105.050781 176.71875 C 104.183594 176 103.730469 177.472656 106.902344 178.339844 C 110.078125 179.207031 115.136719 177.851562 115.441406 176.679688 Z M 115.441406 176.679688 " fill-opacity="1" fill-rule="nonzero"/><path fill="#a44c3d" d="M 74 89.808594 C 73.847656 89.847656 73.546875 89.960938 73.359375 90 C 73.359375 90 70.675781 88.414062 70.976562 88.226562 C 71.316406 87.925781 74.152344 89.773438 74 89.808594 Z M 73.585938 83.058594 C 73.699219 83.4375 76.71875 84.71875 76.71875 84.71875 C 76.796875 84.679688 77.058594 84.492188 77.171875 84.378906 C 77.136719 84.339844 73.394531 82.53125 73.585938 83.058594 Z M 72.792969 85.773438 C 72.488281 85.925781 75.285156 87.585938 75.285156 87.585938 C 75.398438 87.546875 75.625 87.394531 75.738281 87.320312 C 75.664062 87.320312 73.167969 85.546875 72.792969 85.773438 Z M 116.082031 57.671875 C 115.667969 57.445312 115.367188 57.070312 115.25 56.617188 C 115.136719 56.316406 115.136719 55.976562 115.023438 55.671875 C 114.796875 55.109375 114.195312 54.769531 113.816406 54.316406 C 113.097656 53.484375 112.609375 52.089844 113.175781 51.148438 C 111.8125 52.582031 109.660156 53.183594 107.773438 52.65625 C 107.015625 52.46875 106.300781 52.089844 105.542969 52.242188 C 104.597656 52.390625 103.957031 53.257812 103.089844 53.597656 C 102.371094 53.902344 101.3125 53.824219 100.558594 53.597656 C 99.839844 53.863281 99.6875 52.316406 99.6875 52.316406 C 97.308594 52.730469 98.667969 57.445312 100.140625 57.105469 C 100.140625 57.105469 99.761719 59.710938 100.253906 62.160156 C 100.707031 64.574219 103.011719 68.121094 105.808594 69.101562 C 108.566406 70.082031 112.152344 68.6875 114.382812 66.613281 C 116.574219 64.539062 117.554688 62.011719 117.554688 62.011719 C 119.21875 62.574219 121.902344 59.40625 120.085938 57.972656 C 118.953125 57.105469 117.253906 58.351562 116.082031 57.671875 Z M 43.855469 60.992188 C 43.855469 60.992188 32.710938 59.519531 29.800781 58.992188 C 29.839844 58.691406 29.839844 58.539062 29.839844 58.539062 C 30.445312 58.539062 45.402344 58.539062 45.402344 58.539062 C 45.402344 60.613281 44.535156 62.425781 44.382812 62.765625 C 41.625 62.6875 38.375 63.894531 38.226562 63.253906 C 38.035156 62.386719 43.855469 60.992188 43.855469 60.992188 Z M 79.742188 23.421875 C 78.949219 24.214844 78.117188 24.175781 78.722656 23.761719 C 79.363281 23.347656 79.929688 20.78125 79.363281 20.328125 C 80.496094 19.425781 80.535156 22.628906 79.742188 23.421875 Z M 79.742188 23.421875 " fill-opacity="1" fill-rule="nonzero"/><path fill="#260e0d" d="M 115.214844 59.824219 C 114.796875 59.898438 114.421875 59.9375 114.042969 59.898438 C 113.890625 60.273438 113.363281 61.21875 112.722656 60.917969 C 112.078125 60.613281 112.34375 59.859375 112.496094 59.558594 C 111.925781 59.332031 111.585938 59.105469 111.585938 59.105469 C 111.285156 58.765625 111.585938 58.652344 112.417969 59.144531 C 113.210938 59.597656 114.421875 59.558594 114.949219 59.484375 C 115.441406 59.484375 115.554688 59.746094 115.214844 59.824219 Z M 114.570312 56.878906 C 113.136719 56.464844 111.625 57.070312 111.738281 57.296875 C 111.925781 57.597656 112.910156 57.070312 114.117188 57.523438 C 115.328125 58.011719 115.667969 58.425781 115.933594 58.390625 C 116.195312 58.3125 116.007812 57.296875 114.570312 56.878906 Z M 105.050781 54.730469 C 106.335938 54.917969 106.902344 55.898438 107.207031 55.710938 C 107.433594 55.597656 106.414062 54.277344 104.976562 53.9375 C 103.542969 53.597656 102.824219 54.390625 103.050781 54.542969 C 103.277344 54.730469 103.769531 54.542969 105.050781 54.730469 Z M 105.429688 57.332031 C 106.035156 57.445312 106.449219 57.410156 106.449219 57.410156 C 106.867188 57.257812 106.675781 57.03125 105.695312 57.03125 C 104.789062 57.03125 103.769531 56.390625 103.351562 56.050781 C 102.9375 55.75 102.710938 55.9375 102.972656 56.164062 C 103.277344 56.425781 103.617188 56.652344 103.957031 56.804688 C 103.917969 57.21875 103.882812 58.277344 104.597656 58.351562 C 105.242188 58.464844 105.390625 57.671875 105.429688 57.332031 Z M 106.714844 62.539062 C 106.867188 62.878906 107.621094 63.332031 108.488281 63.21875 C 109.320312 63.140625 109.359375 62.652344 108.941406 62.800781 C 107.773438 63.105469 106.941406 62.238281 106.867188 62.199219 C 106.675781 62.125 106.601562 62.238281 106.714844 62.539062 Z M 109.472656 65.441406 C 108.980469 65.367188 108.566406 66.121094 107.128906 65.820312 C 105.730469 65.554688 105.316406 64.613281 105.128906 64.5 C 104.9375 64.386719 104.636719 64.800781 105.429688 65.519531 C 106.070312 66.085938 106.941406 66.421875 108.035156 66.308594 C 109.132812 66.199219 109.925781 65.519531 109.472656 65.441406 Z M 66.140625 66.234375 C 65.726562 66.421875 65.539062 66.875 65.6875 67.292969 L 70.109375 79.136719 C 71.054688 78.871094 72.261719 79.25 72.261719 79.25 L 67.277344 66.6875 C 67.085938 66.234375 66.558594 66.046875 66.140625 66.234375 Z M 90.507812 27.382812 C 91.1875 28.324219 92.09375 30.550781 92.359375 30.816406 C 92.625 31.078125 93.265625 31.042969 93.492188 30.550781 C 93.378906 28.550781 90.242188 26.589844 90.507812 27.382812 Z M 82.613281 38.925781 L 83.21875 38.398438 C 82.878906 37.980469 82.273438 35.871094 82.234375 35.71875 C 81.972656 35.039062 81.367188 36.097656 82.613281 38.925781 Z M 88.429688 29.382812 C 88.28125 29.417969 88.582031 29.722656 89.035156 30.0625 C 89.035156 30.0625 89.035156 30.0625 88.996094 30.0625 C 88.316406 30.25 87.863281 30.816406 88.015625 31.304688 C 88.167969 31.796875 88.808594 32.058594 89.527344 31.871094 C 90.054688 31.722656 90.433594 31.382812 90.507812 30.964844 C 90.960938 31.191406 91.339844 31.34375 91.339844 31.15625 C 91.339844 31.003906 89.335938 29.082031 88.429688 29.382812 Z M 88.429688 29.382812 " fill-opacity="1" fill-rule="nonzero"/></svg>