<svg xmlns="http://www.w3.org/2000/svg" xmlns:xlink="http://www.w3.org/1999/xlink" width="241" zoomAndPan="magnify" viewBox="0 0 180.75 133.500001" height="178" preserveAspectRatio="xMidYMid meet" version="1.0"><defs><clipPath id="6acd1a74b1"><path d="M 0.210938 80 L 6 80 L 6 86 L 0.210938 86 Z M 0.210938 80 " clip-rule="nonzero"/></clipPath><clipPath id="0ded1d3ae7"><path d="M 166 98 L 180.289062 98 L 180.289062 112 L 166 112 Z M 166 98 " clip-rule="nonzero"/></clipPath></defs><path fill="#9f9d57" d="M 160.238281 25.417969 C 160.457031 24.703125 160.113281 23.773438 159.378906 23.625 C 158.867188 23.523438 158.269531 23.796875 157.859375 23.480469 C 157.523438 23.222656 157.535156 22.6875 157.765625 22.332031 C 157.992188 21.980469 158.378906 21.765625 158.75 21.5625 L 163.125 19.183594 C 163.96875 18.726562 164.953125 17.859375 164.511719 17.007812 C 163.804688 15.644531 161.148438 17.324219 160.3125 16.035156 C 159.808594 15.253906 160.574219 14.308594 160.863281 13.425781 C 161.425781 11.695312 159.777344 9.789062 157.960938 9.703125 C 156.144531 9.617188 154.480469 10.957031 153.71875 12.609375 C 153.386719 13.324219 153.015625 14.238281 152.226562 14.269531 C 151.578125 14.296875 151.121094 13.679688 150.605469 13.28125 C 149.59375 12.496094 148.015625 12.570312 147.078125 13.445312 C 146.144531 14.320312 145.96875 15.894531 146.683594 16.953125 C 147.164062 17.660156 147.964844 18.136719 148.292969 18.925781 C 148.621094 19.710938 147.894531 20.914062 147.148438 20.496094 C 146.859375 20.339844 146.714844 20 146.445312 19.8125 C 145.742188 19.320312 144.839844 20.125 144.484375 20.910156 C 142.726562 24.800781 145.347656 29.859375 149.699219 30.433594 C 152.464844 30.800781 159.351562 28.265625 160.238281 25.417969 Z M 160.238281 25.417969 " fill-opacity="1" fill-rule="nonzero"/><path fill="#9f9d57" d="M 149.710938 24.53125 C 147.878906 27.972656 146.015625 32.832031 146.039062 38.34375 L 145.613281 38.363281 C 145.601562 36.644531 145.761719 34.9375 146.09375 33.25 C 146.671875 30.289062 147.765625 27.285156 149.339844 24.332031 C 152.019531 19.300781 155.222656 16.097656 155.253906 16.066406 C 155.351562 15.960938 155.453125 15.960938 155.554688 16.0625 C 155.65625 16.164062 155.65625 16.265625 155.550781 16.363281 C 155.519531 16.398438 152.363281 19.554688 149.710938 24.53125 Z M 149.710938 24.53125 " fill-opacity="1" fill-rule="nonzero"/><path fill="#9f9d57" d="M 160.554688 41.808594 C 161.050781 41.59375 161.402344 40.964844 161.136719 40.492188 C 160.953125 40.164062 160.515625 39.960938 160.5 39.582031 C 160.484375 39.277344 160.785156 39.027344 161.085938 38.988281 C 161.390625 38.949219 161.691406 39.0625 161.980469 39.171875 L 165.359375 40.464844 C 166.007812 40.714844 166.953125 40.847656 167.214844 40.203125 C 167.636719 39.171875 165.453125 38.496094 165.769531 37.425781 C 165.964844 36.78125 166.847656 36.757812 167.472656 36.5 C 168.695312 35.996094 168.96875 34.183594 168.160156 33.140625 C 167.351562 32.09375 165.824219 31.808594 164.550781 32.167969 C 164 32.324219 163.320312 32.546875 162.929688 32.128906 C 162.609375 31.78125 162.734375 31.238281 162.710938 30.769531 C 162.667969 29.839844 161.882812 29 160.957031 28.898438 C 160.03125 28.792969 159.078125 29.4375 158.832031 30.335938 C 158.664062 30.929688 158.78125 31.601562 158.503906 32.152344 C 158.226562 32.703125 157.214844 32.867188 157.09375 32.261719 C 157.046875 32.027344 157.164062 31.789062 157.140625 31.550781 C 157.078125 30.929688 156.207031 30.8125 155.609375 30.984375 C 152.628906 31.851562 151.070312 35.683594 152.804688 38.359375 C 153.910156 40.058594 158.558594 42.664062 160.554688 41.808594 Z M 160.554688 41.808594 " fill-opacity="1" fill-rule="nonzero"/><path fill="#9f9d57" d="M 156.074219 35.578125 C 153.308594 36.191406 149.742188 37.457031 146.710938 40.070312 L 146.5 39.84375 C 147.445312 39.027344 148.460938 38.308594 149.550781 37.695312 C 151.460938 36.617188 153.636719 35.804688 156.011719 35.28125 C 160.054688 34.386719 163.335938 34.640625 163.367188 34.644531 C 163.464844 34.65625 163.511719 34.710938 163.503906 34.808594 C 163.496094 34.90625 163.441406 34.953125 163.34375 34.949219 C 163.308594 34.945312 160.074219 34.695312 156.074219 35.578125 Z M 156.074219 35.578125 " fill-opacity="1" fill-rule="nonzero"/><path fill="#ece5d9" d="M 24.75 77.574219 C 27.425781 75.191406 30.777344 73.671875 33.464844 71.300781 C 38.25 67.078125 40.417969 60.613281 41.417969 54.3125 C 42.417969 48.007812 42.457031 41.554688 43.960938 35.351562 C 47.066406 22.558594 56.707031 11.539062 68.972656 6.757812 C 75.195312 4.332031 82.84375 3.671875 88.054688 7.847656 C 90.488281 9.796875 92.097656 12.578125 94.234375 14.847656 C 98.503906 19.390625 104.65625 21.675781 110.75 22.976562 C 116.847656 24.277344 123.117188 24.742188 129.125 26.398438 C 139.878906 29.359375 149.519531 36.238281 155.730469 45.5 C 161.945312 54.761719 164.652344 66.332031 163.085938 77.367188 C 162.136719 84.070312 159.675781 90.59375 159.808594 97.359375 C 159.90625 102.507812 161.472656 107.894531 159.492188 112.648438 C 157.226562 118.089844 151.007812 120.785156 145.167969 121.585938 C 132.398438 123.335938 119.695312 118.625 106.84375 117.628906 C 93.074219 116.566406 79.378906 119.78125 65.640625 121.230469 C 54.714844 122.382812 40.183594 123.144531 30.414062 117.015625 C 23.859375 112.898438 18.902344 101.183594 18.484375 93.917969 C 18.140625 87.929688 20.199219 81.628906 24.75 77.574219 Z M 24.75 77.574219 " fill-opacity="1" fill-rule="nonzero"/><path fill="#fff9ed" d="M 65.066406 40.820312 L 122.542969 40.820312 L 122.542969 108.683594 L 65.066406 108.683594 Z M 65.066406 40.820312 " fill-opacity="1" fill-rule="nonzero"/><path fill="#d3cdca" d="M 68.042969 77.96875 L 68.042969 108.683594 L 65.066406 108.683594 L 65.066406 80.472656 Z M 68.042969 77.96875 " fill-opacity="1" fill-rule="nonzero"/><path fill="#d3cdca" d="M 122.542969 70.070312 L 122.542969 108.683594 L 115.871094 108.683594 L 115.871094 77.238281 L 116.804688 76.238281 L 119.570312 73.265625 Z M 122.542969 70.070312 " fill-opacity="1" fill-rule="nonzero"/><path fill="#d3cdca" d="M 79.167969 77.96875 L 79.167969 108.683594 L 71.378906 108.683594 L 71.378906 69.597656 L 74.789062 73.265625 L 77.554688 76.238281 Z M 79.167969 77.96875 " fill-opacity="1" fill-rule="nonzero"/><path fill="#d3cdca" d="M 94.320312 71.234375 L 94.320312 108.683594 L 84.03125 108.683594 L 84.03125 71.234375 Z M 94.320312 71.234375 " fill-opacity="1" fill-rule="nonzero"/><path fill="#d3cdca" d="M 85.421875 65.230469 L 92.929688 65.230469 L 92.929688 71.234375 L 85.421875 71.234375 Z M 85.421875 65.230469 " fill-opacity="1" fill-rule="nonzero"/><path fill="#d3cdca" d="M 88.523438 50.496094 L 89.828125 50.496094 L 89.828125 65.230469 L 88.523438 65.230469 Z M 88.523438 50.496094 " fill-opacity="1" fill-rule="nonzero"/><path fill="#d3cdca" d="M 98.910156 71.234375 L 111.699219 71.234375 L 111.699219 108.683594 L 98.910156 108.683594 Z M 98.910156 71.234375 " fill-opacity="1" fill-rule="nonzero"/><path fill="#d3cdca" d="M 100.636719 65.230469 L 109.972656 65.230469 L 109.972656 71.234375 L 100.636719 71.234375 Z M 100.636719 65.230469 " fill-opacity="1" fill-rule="nonzero"/><path fill="#d3cdca" d="M 103.050781 56.316406 L 108.113281 56.316406 L 108.113281 67.234375 L 103.050781 67.234375 Z M 103.050781 56.316406 " fill-opacity="1" fill-rule="nonzero"/><path fill="#ebe5d9" d="M 81.539062 40.820312 L 84.511719 40.820312 L 84.511719 108.683594 L 81.539062 108.683594 Z M 81.539062 40.820312 " fill-opacity="1" fill-rule="nonzero"/><path fill="#ebe5d9" d="M 106.066406 108.683594 L 106.066406 40.820312 L 103.09375 40.820312 L 103.09375 108.683594 Z M 106.066406 108.683594 " fill-opacity="1" fill-rule="nonzero"/><path fill="#ebe5d9" d="M 65.066406 73.265625 L 122.542969 73.265625 L 122.542969 76.238281 L 65.066406 76.238281 Z M 65.066406 73.265625 " fill-opacity="1" fill-rule="nonzero"/><g clip-path="url(#6acd1a74b1)"><path fill="#bbbebf" d="M 3.070312 80.027344 C 2.699219 80.027344 2.339844 80.097656 1.996094 80.238281 C 1.65625 80.382812 1.351562 80.582031 1.089844 80.847656 C 0.828125 81.109375 0.625 81.410156 0.480469 81.753906 C 0.339844 82.097656 0.269531 82.457031 0.269531 82.828125 C 0.269531 83.199219 0.339844 83.554688 0.480469 83.898438 C 0.625 84.242188 0.828125 84.542969 1.089844 84.808594 C 1.351562 85.070312 1.65625 85.273438 1.996094 85.414062 C 2.339844 85.554688 2.699219 85.628906 3.070312 85.628906 C 3.441406 85.628906 3.800781 85.554688 4.140625 85.414062 C 4.484375 85.273438 4.789062 85.070312 5.050781 84.808594 C 5.3125 84.542969 5.515625 84.242188 5.660156 83.898438 C 5.800781 83.554688 5.871094 83.199219 5.871094 82.828125 C 5.871094 82.457031 5.800781 82.097656 5.660156 81.753906 C 5.515625 81.410156 5.3125 81.109375 5.050781 80.847656 C 4.789062 80.582031 4.484375 80.382812 4.140625 80.238281 C 3.800781 80.097656 3.441406 80.027344 3.070312 80.027344 Z M 3.070312 85.453125 C 2.722656 85.453125 2.386719 85.386719 2.066406 85.253906 C 1.742188 85.121094 1.460938 84.929688 1.214844 84.683594 C 0.96875 84.4375 0.777344 84.152344 0.644531 83.832031 C 0.511719 83.511719 0.445312 83.175781 0.445312 82.828125 C 0.445312 82.480469 0.511719 82.144531 0.644531 81.824219 C 0.777344 81.503906 0.96875 81.21875 1.214844 80.972656 C 1.460938 80.726562 1.742188 80.535156 2.066406 80.402344 C 2.386719 80.269531 2.722656 80.203125 3.070312 80.203125 C 3.417969 80.203125 3.753906 80.269531 4.074219 80.402344 C 4.394531 80.535156 4.679688 80.726562 4.925781 80.972656 C 5.171875 81.21875 5.363281 81.503906 5.496094 81.824219 C 5.628906 82.144531 5.695312 82.480469 5.695312 82.828125 C 5.695312 83.175781 5.628906 83.511719 5.496094 83.832031 C 5.363281 84.152344 5.171875 84.4375 4.925781 84.683594 C 4.679688 84.929688 4.394531 85.121094 4.074219 85.253906 C 3.753906 85.386719 3.417969 85.453125 3.070312 85.453125 Z M 3.070312 85.453125 " fill-opacity="1" fill-rule="nonzero"/></g><g clip-path="url(#0ded1d3ae7)"><path fill="#bbbebf" d="M 173.382812 98.074219 C 169.601562 98.074219 166.535156 101.140625 166.535156 104.921875 C 166.535156 108.699219 169.601562 111.765625 173.382812 111.765625 C 177.167969 111.765625 180.230469 108.699219 180.230469 104.921875 C 180.230469 101.140625 177.167969 98.074219 173.382812 98.074219 Z M 173.382812 111.339844 C 172.964844 111.339844 172.546875 111.296875 172.132812 111.214844 C 171.71875 111.132812 171.316406 111.011719 170.929688 110.847656 C 170.539062 110.6875 170.167969 110.492188 169.816406 110.257812 C 169.46875 110.023438 169.144531 109.757812 168.84375 109.457031 C 168.546875 109.160156 168.28125 108.835938 168.046875 108.484375 C 167.8125 108.136719 167.613281 107.765625 167.453125 107.375 C 167.292969 106.988281 167.171875 106.585938 167.085938 106.171875 C 167.003906 105.757812 166.964844 105.339844 166.964844 104.921875 C 166.964844 104.5 167.003906 104.082031 167.085938 103.667969 C 167.171875 103.253906 167.292969 102.851562 167.453125 102.464844 C 167.613281 102.074219 167.8125 101.703125 168.046875 101.355469 C 168.28125 101.003906 168.546875 100.679688 168.84375 100.382812 C 169.144531 100.082031 169.46875 99.816406 169.816406 99.582031 C 170.167969 99.347656 170.539062 99.152344 170.925781 98.992188 C 171.316406 98.828125 171.71875 98.707031 172.132812 98.625 C 172.546875 98.542969 172.960938 98.5 173.382812 98.5 C 173.804688 98.5 174.222656 98.542969 174.636719 98.625 C 175.050781 98.707031 175.453125 98.828125 175.839844 98.992188 C 176.230469 99.152344 176.601562 99.347656 176.949219 99.582031 C 177.300781 99.816406 177.625 100.082031 177.925781 100.382812 C 178.222656 100.679688 178.488281 101.003906 178.722656 101.355469 C 178.957031 101.703125 179.152344 102.074219 179.316406 102.464844 C 179.476562 102.851562 179.597656 103.253906 179.679688 103.667969 C 179.761719 104.082031 179.804688 104.5 179.804688 104.921875 C 179.804688 105.339844 179.761719 105.757812 179.679688 106.171875 C 179.597656 106.585938 179.476562 106.988281 179.316406 107.375 C 179.152344 107.765625 178.957031 108.136719 178.722656 108.484375 C 178.488281 108.835938 178.222656 109.160156 177.921875 109.457031 C 177.625 109.757812 177.300781 110.023438 176.949219 110.257812 C 176.601562 110.492188 176.230469 110.6875 175.839844 110.847656 C 175.453125 111.011719 175.050781 111.132812 174.636719 111.214844 C 174.222656 111.296875 173.804688 111.339844 173.382812 111.339844 Z M 173.382812 111.339844 " fill-opacity="1" fill-rule="nonzero"/></g><path fill="#bbbebf" d="M 123.273438 0.0546875 C 122.945312 0.0546875 122.621094 0.0859375 122.300781 0.148438 C 121.980469 0.214844 121.667969 0.308594 121.367188 0.433594 C 121.066406 0.558594 120.777344 0.710938 120.503906 0.894531 C 120.234375 1.074219 119.980469 1.28125 119.75 1.511719 C 119.519531 1.742188 119.3125 1.996094 119.132812 2.265625 C 118.949219 2.539062 118.796875 2.824219 118.671875 3.128906 C 118.546875 3.429688 118.453125 3.742188 118.386719 4.0625 C 118.324219 4.382812 118.292969 4.707031 118.292969 5.035156 C 118.292969 5.359375 118.324219 5.683594 118.386719 6.003906 C 118.453125 6.324219 118.546875 6.636719 118.671875 6.9375 C 118.796875 7.242188 118.949219 7.527344 119.132812 7.800781 C 119.3125 8.070312 119.519531 8.324219 119.75 8.554688 C 119.980469 8.785156 120.234375 8.992188 120.503906 9.171875 C 120.777344 9.355469 121.0625 9.507812 121.367188 9.632812 C 121.667969 9.757812 121.980469 9.851562 122.300781 9.917969 C 122.621094 9.980469 122.945312 10.011719 123.273438 10.011719 C 123.597656 10.011719 123.921875 9.980469 124.246094 9.917969 C 124.566406 9.851562 124.875 9.757812 125.179688 9.632812 C 125.480469 9.507812 125.769531 9.355469 126.039062 9.171875 C 126.3125 8.992188 126.5625 8.785156 126.792969 8.554688 C 127.027344 8.324219 127.230469 8.070312 127.414062 7.800781 C 127.59375 7.527344 127.75 7.242188 127.875 6.9375 C 128 6.636719 128.09375 6.324219 128.15625 6.003906 C 128.222656 5.683594 128.253906 5.359375 128.253906 5.035156 C 128.253906 4.707031 128.222656 4.382812 128.15625 4.0625 C 128.09375 3.742188 128 3.429688 127.875 3.128906 C 127.75 2.824219 127.59375 2.539062 127.414062 2.265625 C 127.230469 1.996094 127.023438 1.746094 126.792969 1.511719 C 126.5625 1.28125 126.3125 1.074219 126.039062 0.894531 C 125.765625 0.710938 125.480469 0.558594 125.179688 0.433594 C 124.875 0.308594 124.566406 0.214844 124.246094 0.152344 C 123.921875 0.0859375 123.601562 0.0546875 123.273438 0.0546875 Z M 123.273438 9.699219 C 122.964844 9.699219 122.664062 9.671875 122.363281 9.613281 C 122.0625 9.550781 121.769531 9.464844 121.484375 9.347656 C 121.203125 9.230469 120.933594 9.085938 120.679688 8.914062 C 120.421875 8.746094 120.1875 8.550781 119.972656 8.335938 C 119.753906 8.117188 119.5625 7.882812 119.390625 7.625 C 119.21875 7.371094 119.078125 7.101562 118.957031 6.820312 C 118.839844 6.535156 118.753906 6.246094 118.691406 5.945312 C 118.632812 5.644531 118.601562 5.339844 118.601562 5.035156 C 118.601562 4.726562 118.632812 4.421875 118.691406 4.121094 C 118.753906 3.824219 118.839844 3.53125 118.957031 3.246094 C 119.074219 2.964844 119.21875 2.695312 119.390625 2.441406 C 119.558594 2.183594 119.753906 1.949219 119.972656 1.734375 C 120.1875 1.515625 120.421875 1.324219 120.679688 1.152344 C 120.933594 0.980469 121.203125 0.839844 121.484375 0.722656 C 121.769531 0.605469 122.0625 0.515625 122.363281 0.457031 C 122.660156 0.394531 122.964844 0.367188 123.273438 0.367188 C 123.578125 0.367188 123.882812 0.394531 124.183594 0.457031 C 124.484375 0.515625 124.777344 0.605469 125.058594 0.722656 C 125.34375 0.839844 125.613281 0.980469 125.867188 1.152344 C 126.121094 1.324219 126.355469 1.515625 126.574219 1.734375 C 126.789062 1.949219 126.984375 2.183594 127.15625 2.441406 C 127.324219 2.695312 127.46875 2.964844 127.585938 3.246094 C 127.703125 3.53125 127.792969 3.820312 127.851562 4.121094 C 127.910156 4.421875 127.941406 4.726562 127.941406 5.035156 C 127.941406 5.339844 127.910156 5.644531 127.851562 5.945312 C 127.792969 6.246094 127.703125 6.535156 127.585938 6.820312 C 127.46875 7.101562 127.324219 7.371094 127.15625 7.628906 C 126.984375 7.882812 126.792969 8.117188 126.574219 8.335938 C 126.359375 8.550781 126.121094 8.746094 125.867188 8.914062 C 125.613281 9.085938 125.34375 9.230469 125.058594 9.347656 C 124.777344 9.464844 124.484375 9.554688 124.183594 9.613281 C 123.882812 9.671875 123.578125 9.703125 123.273438 9.703125 Z M 123.273438 9.699219 " fill-opacity="1" fill-rule="nonzero"/><path fill="#a1a2ae" d="M 32.304688 124.066406 L 155.300781 124.066406 C 155.722656 124.066406 156.128906 124.148438 156.515625 124.308594 C 156.90625 124.46875 157.25 124.699219 157.546875 124.996094 C 157.84375 125.292969 158.074219 125.636719 158.234375 126.027344 C 158.398438 126.414062 158.476562 126.820312 158.476562 127.242188 L 158.476562 129.828125 C 158.476562 130.25 158.398438 130.652344 158.234375 131.042969 C 158.074219 131.429688 157.84375 131.773438 157.546875 132.070312 C 157.25 132.371094 156.90625 132.597656 156.515625 132.761719 C 156.128906 132.921875 155.722656 133 155.300781 133 L 32.304688 133 C 31.882812 133 31.480469 132.921875 31.089844 132.761719 C 30.703125 132.597656 30.359375 132.371094 30.058594 132.070312 C 29.761719 131.773438 29.535156 131.429688 29.371094 131.042969 C 29.210938 130.652344 29.128906 130.25 29.128906 129.828125 L 29.128906 127.242188 C 29.128906 126.820312 29.210938 126.414062 29.371094 126.027344 C 29.535156 125.636719 29.761719 125.292969 30.058594 124.996094 C 30.359375 124.699219 30.703125 124.46875 31.089844 124.308594 C 31.480469 124.148438 31.882812 124.066406 32.304688 124.066406 Z M 32.304688 124.066406 " fill-opacity="1" fill-rule="nonzero"/><path fill="#de917a" d="M 86.738281 102.242188 C 86.738281 102.242188 87.839844 100.449219 89.625 100.046875 C 89.625 100.046875 90.597656 99.707031 91.285156 99.363281 C 91.5625 99.226562 91.882812 99.34375 91.867188 99.574219 C 91.808594 100.339844 91.1875 101.773438 87.660156 102.761719 Z M 86.738281 102.242188 " fill-opacity="1" fill-rule="nonzero"/><path fill="#de917a" d="M 38.855469 102.226562 C 38.855469 102.226562 37.734375 100.445312 35.941406 100.066406 C 35.941406 100.066406 34.964844 99.738281 34.273438 99.40625 C 33.996094 99.273438 33.671875 99.394531 33.695312 99.625 C 33.761719 100.390625 34.398438 101.816406 37.941406 102.757812 Z M 38.855469 102.226562 " fill-opacity="1" fill-rule="nonzero"/><path fill="#89b0bb" d="M 72.398438 105.511719 L 75.136719 107.785156 C 75.597656 108.164062 76.109375 108.457031 76.671875 108.65625 C 77.234375 108.855469 77.8125 108.953125 78.410156 108.949219 C 79.007812 108.941406 79.585938 108.835938 80.144531 108.625 C 80.703125 108.414062 81.207031 108.113281 81.660156 107.726562 L 88.699219 103.191406 C 88.765625 103.132812 88.804688 103.0625 88.808594 102.972656 C 88.8125 102.886719 88.789062 102.8125 88.730469 102.746094 L 87.214844 101.210938 C 87.109375 101.089844 86.980469 101.066406 86.839844 101.144531 L 79.6875 104.214844 C 79.425781 104.351562 79.148438 104.40625 78.855469 104.371094 C 78.5625 104.339844 78.304688 104.226562 78.082031 104.03125 L 72.433594 99.113281 C 72.394531 99.078125 72.347656 99.054688 72.300781 99.035156 " fill-opacity="1" fill-rule="nonzero"/><path fill="#89b0bb" d="M 53.28125 105.511719 L 50.539062 107.785156 C 50.078125 108.164062 49.570312 108.457031 49.007812 108.65625 C 48.445312 108.855469 47.863281 108.953125 47.269531 108.949219 C 46.671875 108.941406 46.09375 108.835938 45.535156 108.625 C 44.976562 108.414062 44.46875 108.113281 44.019531 107.726562 L 36.976562 103.191406 C 36.910156 103.132812 36.871094 103.0625 36.867188 102.972656 C 36.863281 102.886719 36.886719 102.8125 36.945312 102.746094 L 38.460938 101.210938 C 38.566406 101.089844 38.695312 101.066406 38.835938 101.144531 L 45.988281 104.214844 C 46.25 104.351562 46.527344 104.40625 46.820312 104.371094 C 47.113281 104.339844 47.371094 104.226562 47.59375 104.03125 L 53.242188 99.113281 C 53.28125 99.078125 53.328125 99.054688 53.375 99.035156 " fill-opacity="1" fill-rule="nonzero"/><path fill="#89b0bb" d="M 71.160156 121.691406 L 55.128906 121.691406 C 55.394531 114.796875 54.574219 110.15625 52.324219 103.441406 C 51.652344 101.441406 52.535156 99.234375 54.421875 98.285156 C 59.496094 95.730469 65.054688 95.710938 71.109375 98.28125 C 73.273438 99.199219 74.273438 101.707031 73.355469 103.871094 C 70.800781 109.878906 70.0625 114.367188 71.160156 121.691406 Z M 71.160156 121.691406 " fill-opacity="1" fill-rule="nonzero"/><path fill="#1e222e" d="M 59.246094 119.402344 C 61.792969 119.597656 64.492188 119.472656 67.304688 119.117188 L 62.609375 122.109375 Z M 59.246094 119.402344 " fill-opacity="1" fill-rule="nonzero"/><path fill="#2a3040" d="M 49.089844 115.421875 C 47.488281 115.984375 45.011719 117.265625 44.753906 119.828125 C 44.597656 121.386719 45.613281 122.828125 47.117188 123.261719 L 69.445312 129.066406 L 72.097656 124.984375 L 51.53125 115.539062 C 50.734375 115.171875 49.917969 115.132812 49.089844 115.421875 Z M 49.089844 115.421875 " fill-opacity="1" fill-rule="nonzero"/><path fill="#373e53" d="M 72.476562 116.488281 L 52.863281 125.679688 L 56.109375 128.210938 L 76.058594 124.933594 C 77.164062 124.734375 78.097656 124.222656 78.855469 123.394531 C 80.945312 121.121094 83.949219 116.542969 74.851562 116.042969 C 74.023438 115.996094 73.230469 116.144531 72.476562 116.488281 Z M 72.476562 116.488281 " fill-opacity="1" fill-rule="nonzero"/><path fill="#545b6b" d="M 56.375 127.550781 C 56.375 128.65625 54.6875 129.554688 52.605469 129.554688 C 50.523438 129.554688 47.390625 129.621094 47.390625 128.511719 C 47.390625 127.40625 50.523438 125.546875 52.605469 125.546875 C 54.6875 125.546875 56.375 126.445312 56.375 127.550781 Z M 56.375 127.550781 " fill-opacity="1" fill-rule="nonzero"/><path fill="#545b6b" d="M 68.25 127.765625 C 68.25 128.871094 69.9375 129.769531 72.019531 129.769531 C 74.101562 129.769531 77.234375 129.832031 77.234375 128.726562 C 77.234375 127.617188 74.101562 125.757812 72.019531 125.757812 C 69.941406 125.757812 68.25 126.65625 68.25 127.765625 Z M 68.25 127.765625 " fill-opacity="1" fill-rule="nonzero"/><path fill="#72929c" d="M 54.777344 103.554688 C 54.472656 104.085938 54.082031 104.542969 53.601562 104.925781 C 53.53125 104.984375 53.496094 105.082031 53.550781 105.167969 C 53.597656 105.238281 53.71875 105.277344 53.792969 105.21875 C 54.320312 104.796875 54.75 104.296875 55.085938 103.707031 C 55.195312 103.515625 54.886719 103.359375 54.777344 103.554688 Z M 54.777344 103.554688 " fill-opacity="1" fill-rule="nonzero"/><path fill="#72929c" d="M 70.34375 103.175781 C 70.75 103.960938 71.28125 104.652344 71.9375 105.246094 C 72.007812 105.308594 72.105469 105.332031 72.183594 105.265625 C 72.25 105.210938 72.273438 105.082031 72.203125 105.019531 C 71.566406 104.449219 71.050781 103.785156 70.65625 103.027344 C 70.554688 102.828125 70.242188 102.976562 70.34375 103.175781 Z M 70.34375 103.175781 " fill-opacity="1" fill-rule="nonzero"/><path fill="#21374e" d="M 119.257812 103.550781 C 119.257812 103.550781 114.996094 105.078125 114.925781 100.480469 C 114.925781 100.480469 111.460938 99.539062 114.085938 96.324219 C 114.085938 96.324219 111.019531 93.875 115 92.121094 C 115 92.121094 113.570312 87.84375 117.773438 88.761719 C 117.773438 88.761719 118.441406 84.953125 121.285156 86.3125 C 121.285156 86.3125 122.300781 83.027344 125.441406 84.710938 C 125.441406 84.710938 127.742188 82.089844 128.878906 84.242188 C 128.878906 84.242188 131.847656 82.957031 132.242188 86.246094 C 132.242188 86.246094 135.234375 86.296875 134.542969 88.371094 C 134.542969 88.371094 138.375 89.683594 136.074219 91.980469 C 136.074219 91.980469 140.015625 93.234375 136.34375 96.621094 C 136.34375 96.621094 137.09375 100.441406 131.429688 100.652344 Z M 119.257812 103.550781 " fill-opacity="1" fill-rule="nonzero"/><path fill="#d4917b" d="M 147.167969 105.960938 C 147.167969 105.960938 148.9375 104.148438 151.144531 104.152344 C 151.144531 104.152344 152.378906 104.015625 153.273438 103.796875 C 153.632812 103.710938 153.984375 103.933594 153.902344 104.199219 C 153.628906 105.078125 152.519531 106.597656 148.113281 106.816406 Z M 147.167969 105.960938 " fill-opacity="1" fill-rule="nonzero"/><path fill="#d4917b" d="M 103.527344 105.960938 C 103.527344 105.960938 101.757812 104.148438 99.550781 104.152344 C 99.550781 104.152344 98.320312 104.015625 97.421875 103.796875 C 97.0625 103.710938 96.714844 103.933594 96.796875 104.199219 C 97.066406 105.078125 98.179688 106.597656 102.585938 106.816406 Z M 103.527344 105.960938 " fill-opacity="1" fill-rule="nonzero"/><path fill="#f75254" d="M 123.625 98.75 C 122.769531 98.78125 121.9375 98.945312 121.132812 99.246094 L 117.09375 100.761719 C 116.867188 100.847656 116.691406 100.988281 116.558594 101.1875 C 116.429688 101.390625 116.371094 101.609375 116.382812 101.847656 L 118.078125 122.042969 L 133.523438 122.042969 L 134.269531 101.316406 C 134.273438 101.042969 134.144531 100.859375 133.890625 100.761719 L 129.542969 99.136719 C 128.558594 98.769531 127.542969 98.605469 126.496094 98.644531 Z M 123.625 98.75 " fill-opacity="1" fill-rule="nonzero"/><path fill="#f75254" d="M 134.054688 100.859375 L 140.851562 106.78125 C 141.121094 107.015625 141.429688 107.152344 141.785156 107.191406 C 142.136719 107.230469 142.46875 107.167969 142.785156 107.003906 L 146.871094 104.832031 C 147.042969 104.738281 147.195312 104.765625 147.324219 104.910156 L 149.332031 107.132812 C 149.402344 107.210938 149.433594 107.304688 149.425781 107.40625 C 149.417969 107.511719 149.375 107.597656 149.296875 107.667969 L 145.15625 111.226562 C 144.613281 111.695312 144.003906 112.058594 143.332031 112.308594 C 142.660156 112.5625 141.964844 112.691406 141.246094 112.699219 C 140.527344 112.707031 139.832031 112.589844 139.152344 112.347656 C 138.476562 112.105469 137.863281 111.757812 137.308594 111.296875 L 132.058594 106.941406 Z M 134.054688 100.859375 " fill-opacity="1" fill-rule="nonzero"/><path fill="#f75254" d="M 116.710938 101.003906 L 110.730469 106.28125 C 110.300781 106.664062 109.796875 106.890625 109.226562 106.957031 C 108.652344 107.027344 108.113281 106.925781 107.601562 106.65625 L 104.167969 104.832031 C 103.996094 104.738281 103.84375 104.765625 103.714844 104.910156 L 101.710938 107.132812 C 101.640625 107.210938 101.609375 107.304688 101.617188 107.40625 C 101.621094 107.511719 101.664062 107.597656 101.746094 107.667969 L 105.210938 110.652344 C 105.527344 110.921875 105.867188 111.164062 106.226562 111.378906 C 106.585938 111.589844 106.960938 111.769531 107.351562 111.917969 C 107.742188 112.066406 108.140625 112.175781 108.550781 112.253906 C 108.964844 112.332031 109.378906 112.371094 109.792969 112.375 C 110.210938 112.378906 110.628906 112.34375 111.039062 112.277344 C 111.449219 112.207031 111.855469 112.101562 112.246094 111.960938 C 112.640625 111.824219 113.019531 111.648438 113.382812 111.441406 C 113.746094 111.238281 114.085938 111 114.410156 110.734375 L 118.980469 106.941406 Z M 116.710938 101.003906 " fill-opacity="1" fill-rule="nonzero"/><path fill="#c44143" d="M 117.542969 105.035156 C 117.503906 105.734375 117.339844 106.398438 117.046875 107.035156 C 117.003906 107.132812 117.019531 107.25 117.121094 107.304688 C 117.207031 107.355469 117.347656 107.332031 117.390625 107.234375 C 117.714844 106.535156 117.898438 105.804688 117.941406 105.035156 C 117.953125 104.777344 117.558594 104.777344 117.546875 105.035156 Z M 117.542969 105.035156 " fill-opacity="1" fill-rule="nonzero"/><path fill="#c44143" d="M 133.398438 104.761719 C 133.433594 105.773438 133.644531 106.742188 134.035156 107.675781 C 134.078125 107.777344 134.167969 107.84375 134.28125 107.816406 C 134.371094 107.789062 134.460938 107.667969 134.417969 107.570312 C 134.039062 106.671875 133.832031 105.738281 133.792969 104.761719 C 133.785156 104.507812 133.386719 104.507812 133.398438 104.761719 Z M 133.398438 104.761719 " fill-opacity="1" fill-rule="nonzero"/><path fill="#252430" d="M 121.742188 120.503906 C 124.179688 120.691406 126.761719 120.574219 129.449219 120.234375 L 124.960938 123.097656 Z M 121.742188 120.503906 " fill-opacity="1" fill-rule="nonzero"/><path fill="#343345" d="M 112.027344 116.699219 C 110.496094 117.238281 108.125 118.464844 107.882812 120.914062 C 107.730469 122.40625 108.703125 123.78125 110.140625 124.195312 L 131.496094 129.746094 L 134.035156 125.84375 L 114.363281 116.8125 C 113.601562 116.460938 112.820312 116.421875 112.027344 116.699219 Z M 112.027344 116.699219 " fill-opacity="1" fill-rule="nonzero"/><path fill="#3e3d52" d="M 134.398438 117.71875 L 115.640625 126.511719 L 118.742188 128.929688 L 137.820312 125.796875 C 138.878906 125.605469 139.769531 125.113281 140.496094 124.324219 C 142.496094 122.148438 145.371094 117.769531 136.667969 117.292969 C 135.878906 117.25 135.121094 117.390625 134.398438 117.71875 Z M 134.398438 117.71875 " fill-opacity="1" fill-rule="nonzero"/><path fill="#7b79a3" d="M 119 128.300781 C 119 129.359375 117.382812 130.214844 115.390625 130.214844 C 113.402344 130.214844 110.40625 130.277344 110.40625 129.21875 C 110.40625 128.160156 113.402344 126.382812 115.390625 126.382812 C 117.382812 126.382812 119 127.242188 119 128.300781 Z M 119 128.300781 " fill-opacity="1" fill-rule="nonzero"/><path fill="#7b79a3" d="M 130.351562 128.503906 C 130.351562 129.5625 131.96875 130.421875 133.957031 130.421875 C 135.949219 130.421875 138.945312 130.484375 138.945312 129.425781 C 138.945312 128.367188 135.949219 126.585938 133.957031 126.585938 C 131.96875 126.585938 130.351562 127.445312 130.351562 128.503906 Z M 130.351562 128.503906 " fill-opacity="1" fill-rule="nonzero"/><path fill="#c98a75" d="M 124.308594 96.398438 L 123.75 98.269531 C 123.644531 98.621094 123.671875 98.957031 123.835938 99.285156 C 124.375 100.34375 125.746094 102.417969 126.921875 99.179688 C 127.039062 98.855469 127.03125 98.53125 126.910156 98.210938 L 126.195312 96.398438 Z M 124.308594 96.398438 " fill-opacity="1" fill-rule="nonzero"/><path fill="#d4917b" d="M 125.996094 89.023438 C 126.40625 89.066406 126.789062 89.210938 127.148438 89.460938 C 127.507812 89.707031 127.8125 90.039062 128.0625 90.457031 C 128.3125 90.875 128.492188 91.34375 128.597656 91.867188 C 128.703125 92.386719 128.730469 92.921875 128.675781 93.46875 C 128.621094 94.019531 128.488281 94.539062 128.277344 95.027344 C 128.070312 95.519531 127.800781 95.941406 127.472656 96.300781 C 127.140625 96.660156 126.777344 96.921875 126.375 97.09375 C 125.976562 97.265625 125.570312 97.332031 125.160156 97.289062 C 124.746094 97.25 124.363281 97.105469 124.003906 96.855469 C 123.648438 96.609375 123.339844 96.273438 123.089844 95.859375 C 122.839844 95.441406 122.660156 94.972656 122.554688 94.449219 C 122.449219 93.925781 122.421875 93.390625 122.476562 92.84375 C 122.535156 92.296875 122.664062 91.777344 122.875 91.285156 C 123.082031 90.796875 123.351562 90.371094 123.679688 90.015625 C 124.011719 89.65625 124.375 89.390625 124.777344 89.21875 C 125.175781 89.046875 125.582031 88.984375 125.996094 89.023438 Z M 125.996094 89.023438 " fill-opacity="1" fill-rule="nonzero"/><path fill="#d4917b" d="M 129.027344 93.277344 C 128.949219 93.765625 128.742188 94.136719 128.5625 94.105469 C 128.382812 94.074219 128.292969 93.652344 128.367188 93.167969 C 128.445312 92.679688 128.652344 92.308594 128.832031 92.339844 C 129.015625 92.367188 129.101562 92.789062 129.027344 93.277344 Z M 129.027344 93.277344 " fill-opacity="1" fill-rule="nonzero"/><path fill="#d4917b" d="M 122.140625 92.582031 C 122.117188 93.074219 122.246094 93.480469 122.429688 93.488281 C 122.613281 93.492188 122.78125 93.097656 122.808594 92.605469 C 122.832031 92.113281 122.703125 91.707031 122.519531 91.699219 C 122.335938 91.695312 122.167969 92.089844 122.140625 92.582031 Z M 122.140625 92.582031 " fill-opacity="1" fill-rule="nonzero"/><path fill="#d4856a" d="M 64.792969 97.035156 C 63.792969 98.105469 62.65625 98.007812 61.660156 97 C 61.445312 96.785156 61.375 96.527344 61.449219 96.230469 L 62.121094 93.542969 L 64.445312 93.664062 L 64.992188 96.316406 C 65.050781 96.589844 64.984375 96.828125 64.792969 97.035156 Z M 64.792969 97.035156 " fill-opacity="1" fill-rule="nonzero"/><path fill="#2f3454" d="M 65.167969 84.617188 C 66.027344 84.429688 66.898438 84.023438 67.363281 83.277344 C 67.617188 82.863281 67.859375 82.292969 68.34375 82.308594 C 68.761719 82.324219 68.992188 82.789062 69.132812 83.183594 C 69.597656 84.496094 70.070312 85.921875 69.667969 87.257812 C 69.300781 88.488281 68.253906 89.390625 67.171875 90.082031 C 64.871094 91.546875 60.125 92.582031 58.945312 89.027344 C 57.777344 85.5 63.019531 85.085938 65.167969 84.617188 Z M 65.167969 84.617188 " fill-opacity="1" fill-rule="nonzero"/><path fill="#e59073" d="M 61.164062 90.25 C 61.15625 90.59375 61.171875 90.933594 61.21875 91.277344 C 61.226562 91.34375 61.234375 91.414062 61.246094 91.484375 C 61.257812 91.554688 61.269531 91.628906 61.285156 91.699219 C 61.316406 91.855469 61.351562 92.007812 61.390625 92.160156 C 61.652344 93.140625 62.125 93.984375 62.710938 94.585938 C 62.742188 94.617188 62.769531 94.644531 62.800781 94.675781 C 62.832031 94.707031 62.863281 94.734375 62.894531 94.761719 C 62.925781 94.789062 62.957031 94.816406 62.988281 94.84375 C 63.019531 94.871094 63.050781 94.898438 63.082031 94.921875 C 63.148438 94.972656 63.214844 95.023438 63.28125 95.066406 C 63.3125 95.089844 63.347656 95.113281 63.378906 95.132812 C 63.414062 95.15625 63.4375 95.171875 63.46875 95.1875 C 63.503906 95.210938 63.546875 95.230469 63.585938 95.25 C 63.652344 95.289062 63.722656 95.320312 63.792969 95.351562 C 63.828125 95.367188 63.863281 95.378906 63.898438 95.394531 C 63.925781 95.40625 63.957031 95.417969 63.984375 95.425781 C 63.988281 95.425781 63.992188 95.429688 63.996094 95.429688 C 64.007812 95.433594 64.015625 95.4375 64.023438 95.4375 C 64.054688 95.449219 64.082031 95.457031 64.113281 95.464844 L 64.117188 95.46875 C 64.152344 95.476562 64.1875 95.484375 64.21875 95.496094 C 64.246094 95.5 64.273438 95.507812 64.300781 95.511719 C 64.300781 95.511719 64.300781 95.511719 64.304688 95.511719 L 64.347656 95.519531 C 64.375 95.527344 64.398438 95.527344 64.421875 95.535156 L 64.441406 95.535156 C 64.476562 95.539062 64.511719 95.542969 64.546875 95.546875 C 64.730469 95.566406 64.917969 95.558594 65.105469 95.53125 C 65.378906 95.484375 65.640625 95.394531 65.882812 95.253906 C 66.296875 95.011719 66.652344 94.640625 66.929688 94.175781 C 67.238281 93.65625 67.453125 93.023438 67.542969 92.320312 C 67.621094 91.707031 67.609375 91.09375 67.511719 90.484375 C 67.4375 90.019531 67.316406 89.570312 67.144531 89.132812 C 66.449219 87.355469 65.054688 86.214844 63.652344 86.4375 C 62.214844 86.667969 61.226562 88.269531 61.164062 90.25 Z M 61.164062 90.25 " fill-opacity="1" fill-rule="nonzero"/><path fill="#e59073" d="M 60.230469 89.859375 C 60.472656 90.265625 60.859375 90.503906 61.183594 90.480469 C 61.269531 90.476562 61.347656 90.449219 61.421875 90.40625 C 61.4375 90.398438 61.453125 90.386719 61.46875 90.375 C 61.777344 90.144531 61.800781 89.585938 61.503906 89.101562 C 61.375 88.871094 61.191406 88.695312 60.957031 88.574219 C 60.734375 88.460938 60.5 88.445312 60.3125 88.554688 C 60.167969 88.644531 60.074219 88.796875 60.039062 88.980469 C 59.988281 89.238281 60.050781 89.5625 60.230469 89.859375 Z M 60.230469 89.859375 " fill-opacity="1" fill-rule="nonzero"/><path fill="#999551" d="M 147.363281 71.96875 C 147.617188 72.285156 147.875 72.605469 148.109375 72.941406 C 148.34375 73.265625 148.542969 73.613281 148.707031 73.980469 C 148.839844 74.285156 148.933594 74.605469 148.980469 74.9375 C 149.023438 75.25 149.019531 75.5625 148.964844 75.875 C 148.914062 76.179688 148.804688 76.464844 148.636719 76.726562 C 148.613281 76.753906 148.59375 76.785156 148.570312 76.816406 C 148.546875 76.855469 148.511719 76.867188 148.46875 76.84375 C 148.425781 76.820312 148.417969 76.785156 148.445312 76.742188 C 148.53125 76.621094 148.605469 76.492188 148.667969 76.355469 C 148.671875 76.347656 148.675781 76.339844 148.679688 76.332031 C 148.683594 76.324219 148.6875 76.308594 148.683594 76.320312 C 148.691406 76.300781 148.699219 76.285156 148.707031 76.265625 C 148.71875 76.230469 148.730469 76.191406 148.742188 76.15625 C 148.765625 76.085938 148.785156 76.015625 148.800781 75.945312 C 148.808594 75.90625 148.816406 75.871094 148.820312 75.835938 C 148.824219 75.816406 148.828125 75.796875 148.832031 75.78125 C 148.832031 75.773438 148.832031 75.765625 148.835938 75.757812 C 148.835938 75.746094 148.835938 75.765625 148.835938 75.753906 L 148.835938 75.738281 C 148.847656 75.664062 148.855469 75.589844 148.855469 75.511719 C 148.863281 75.359375 148.859375 75.207031 148.84375 75.054688 C 148.84375 75.046875 148.84375 75.039062 148.839844 75.03125 C 148.839844 75.023438 148.839844 75.019531 148.839844 75.015625 C 148.839844 75.003906 148.839844 75.027344 148.839844 75.015625 C 148.839844 74.996094 148.835938 74.972656 148.832031 74.953125 C 148.828125 74.917969 148.824219 74.878906 148.816406 74.84375 C 148.800781 74.769531 148.785156 74.695312 148.769531 74.621094 C 148.730469 74.464844 148.683594 74.3125 148.621094 74.164062 C 148.472656 73.800781 148.289062 73.457031 148.066406 73.136719 C 147.84375 72.804688 147.601562 72.496094 147.351562 72.1875 C 147.320312 72.148438 147.289062 72.109375 147.257812 72.070312 C 147.222656 72.035156 147.222656 72 147.257812 71.96875 C 147.292969 71.933594 147.328125 71.933594 147.363281 71.96875 Z M 147.363281 71.96875 " fill-opacity="1" fill-rule="nonzero"/><path fill="#999551" d="M 148.519531 68.496094 C 148.441406 68.09375 148.195312 67.605469 147.785156 67.65625 C 147.429688 67.699219 147.273438 68.125 147.195312 68.472656 C 146.839844 68.261719 146.664062 67.832031 146.617188 67.417969 C 146.570312 67.003906 146.628906 66.585938 146.617188 66.167969 C 146.574219 64.851562 145.816406 63.636719 144.832031 62.761719 C 144 62.019531 143.011719 61.480469 142.011719 60.976562 C 141.941406 60.941406 141.878906 60.949219 141.820312 61.007812 C 141.761719 61.0625 141.753906 61.128906 141.789062 61.199219 C 142.203125 62.039062 142.164062 63.085938 142.089844 64.046875 C 141.996094 65.207031 141.917969 66.488281 142.621094 67.414062 C 143.082031 68.027344 143.8125 68.382812 144.308594 68.964844 C 144.761719 69.5 144.988281 70.183594 145.273438 70.828125 C 145.5625 71.46875 145.957031 72.113281 146.59375 72.40625 C 148.757812 73.402344 148.742188 69.664062 148.519531 68.496094 Z M 148.519531 68.496094 " fill-opacity="1" fill-rule="nonzero"/><path fill="#6f6d3b" d="M 149.078125 70.4375 C 148.964844 71.128906 148.851562 71.820312 148.789062 72.519531 C 148.726562 73.203125 148.707031 73.894531 148.78125 74.578125 C 148.839844 75.148438 148.976562 75.699219 149.183594 76.234375 C 149.386719 76.738281 149.65625 77.203125 150 77.621094 C 150.339844 78.035156 150.742188 78.363281 151.214844 78.609375 C 151.273438 78.636719 151.332031 78.664062 151.390625 78.691406 C 151.449219 78.71875 151.527344 78.710938 151.5625 78.644531 C 151.59375 78.589844 151.582031 78.5 151.515625 78.472656 C 151.28125 78.367188 151.0625 78.238281 150.855469 78.085938 L 150.820312 78.058594 L 150.800781 78.046875 C 150.777344 78.023438 150.75 78.003906 150.722656 77.984375 C 150.671875 77.941406 150.625 77.898438 150.574219 77.855469 C 150.480469 77.769531 150.394531 77.679688 150.308594 77.585938 C 150.265625 77.539062 150.222656 77.492188 150.183594 77.441406 C 150.164062 77.417969 150.140625 77.394531 150.121094 77.371094 L 150.097656 77.335938 C 150.082031 77.320312 150.105469 77.351562 150.09375 77.332031 C 150.089844 77.324219 150.082031 77.316406 150.074219 77.308594 C 150 77.207031 149.925781 77.101562 149.855469 76.996094 C 149.714844 76.769531 149.59375 76.539062 149.484375 76.296875 L 149.46875 76.257812 C 149.464844 76.25 149.460938 76.242188 149.460938 76.234375 C 149.453125 76.214844 149.464844 76.25 149.460938 76.230469 C 149.445312 76.199219 149.433594 76.167969 149.421875 76.136719 C 149.394531 76.074219 149.375 76.015625 149.351562 75.953125 C 149.308594 75.832031 149.269531 75.707031 149.234375 75.582031 C 149.15625 75.316406 149.101562 75.050781 149.0625 74.777344 C 148.96875 74.121094 148.972656 73.4375 149.023438 72.769531 C 149.074219 72.089844 149.175781 71.425781 149.28125 70.753906 L 149.324219 70.503906 C 149.332031 70.4375 149.304688 70.363281 149.234375 70.347656 C 149.171875 70.332031 149.089844 70.363281 149.078125 70.433594 Z M 149.078125 70.4375 " fill-opacity="1" fill-rule="nonzero"/><path fill="#6f6d3b" d="M 144.40625 66.238281 C 144.175781 65.570312 144.132812 64.632812 144.785156 64.363281 C 145.355469 64.125 145.945312 64.625 146.359375 65.082031 C 146.714844 64.464844 146.609375 63.671875 146.328125 63.015625 C 146.042969 62.359375 145.605469 61.785156 145.269531 61.15625 C 144.210938 59.152344 144.316406 56.699219 145.039062 54.558594 C 145.648438 52.742188 146.664062 51.101562 147.726562 49.507812 C 147.804688 49.390625 147.90625 49.351562 148.042969 49.390625 C 148.175781 49.425781 148.246094 49.511719 148.253906 49.648438 C 148.347656 51.25 149.292969 52.78125 150.222656 54.148438 C 151.34375 55.800781 152.542969 57.644531 152.285156 59.625 C 152.117188 60.925781 151.328125 62.074219 151.085938 63.363281 C 150.859375 64.550781 151.109375 65.761719 151.222656 66.964844 C 151.339844 68.164062 151.300781 69.464844 150.597656 70.441406 C 148.214844 73.757812 145.066406 68.167969 144.40625 66.238281 Z M 144.40625 66.238281 " fill-opacity="1" fill-rule="nonzero"/><path fill="#807d44" d="M 150.238281 71.53125 C 149.972656 72.046875 149.703125 72.5625 149.472656 73.097656 C 149.242188 73.621094 149.050781 74.160156 148.929688 74.71875 C 148.828125 75.183594 148.792969 75.65625 148.820312 76.128906 C 148.84375 76.582031 148.9375 77.015625 149.101562 77.4375 C 149.261719 77.847656 149.492188 78.214844 149.800781 78.53125 C 149.839844 78.566406 149.878906 78.605469 149.917969 78.640625 C 149.964844 78.6875 150.011719 78.691406 150.066406 78.648438 C 150.101562 78.613281 150.117188 78.539062 150.074219 78.5 C 149.917969 78.355469 149.777344 78.199219 149.652344 78.023438 L 149.628906 77.992188 C 149.628906 77.988281 149.609375 77.964844 149.621094 77.976562 C 149.605469 77.953125 149.589844 77.929688 149.574219 77.90625 C 149.546875 77.863281 149.519531 77.816406 149.492188 77.769531 C 149.441406 77.675781 149.394531 77.582031 149.351562 77.488281 C 149.328125 77.4375 149.308594 77.390625 149.289062 77.339844 C 149.28125 77.316406 149.269531 77.292969 149.261719 77.269531 L 149.25 77.234375 C 149.242188 77.21875 149.253906 77.25 149.25 77.234375 C 149.246094 77.222656 149.242188 77.21875 149.242188 77.207031 C 149.207031 77.109375 149.175781 77.007812 149.152344 76.902344 C 149.097656 76.691406 149.0625 76.476562 149.042969 76.257812 C 149.042969 76.246094 149.039062 76.234375 149.039062 76.222656 C 149.039062 76.210938 149.039062 76.210938 149.035156 76.203125 C 149.035156 76.1875 149.035156 76.21875 149.035156 76.199219 C 149.035156 76.171875 149.03125 76.144531 149.03125 76.113281 C 149.027344 76.0625 149.023438 76.007812 149.023438 75.953125 C 149.019531 75.84375 149.023438 75.738281 149.027344 75.628906 C 149.035156 75.402344 149.0625 75.175781 149.101562 74.949219 C 149.199219 74.410156 149.378906 73.871094 149.59375 73.359375 C 149.8125 72.835938 150.058594 72.335938 150.320312 71.835938 C 150.351562 71.773438 150.386719 71.710938 150.417969 71.648438 C 150.453125 71.589844 150.445312 71.542969 150.390625 71.503906 C 150.34375 71.476562 150.269531 71.480469 150.242188 71.53125 Z M 150.238281 71.53125 " fill-opacity="1" fill-rule="nonzero"/><path fill="#807d44" d="M 147.648438 67.007812 C 147.640625 66.421875 147.851562 65.671875 148.4375 65.628906 C 148.945312 65.589844 149.28125 66.140625 149.488281 66.605469 C 149.929688 66.207031 150.054688 65.558594 150 64.96875 C 149.949219 64.378906 149.75 63.8125 149.652344 63.226562 C 149.339844 61.375 150.058594 59.46875 151.183594 57.964844 C 152.136719 56.695312 153.363281 55.664062 154.617188 54.683594 C 154.707031 54.613281 154.796875 54.609375 154.894531 54.671875 C 154.988281 54.734375 155.023438 54.824219 154.992188 54.933594 C 154.652344 56.21875 155 57.671875 155.375 58.992188 C 155.832031 60.585938 156.296875 62.351562 155.578125 63.84375 C 155.109375 64.828125 154.1875 65.527344 153.660156 66.480469 C 153.175781 67.355469 153.054688 68.375 152.835938 69.351562 C 152.617188 70.328125 152.246094 71.34375 151.4375 71.933594 C 148.699219 73.925781 147.667969 68.703125 147.648438 67.007812 Z M 147.648438 67.007812 " fill-opacity="1" fill-rule="nonzero"/><path fill="#786065" d="M 152.164062 83.859375 L 152.191406 84.726562 C 152.207031 85.183594 151.972656 85.5625 151.679688 85.5625 L 146.472656 85.5625 C 146.191406 85.5625 145.964844 85.214844 145.957031 84.789062 C 145.957031 84.765625 145.957031 84.746094 145.957031 84.722656 L 145.988281 83.859375 C 145.074219 83.171875 144.503906 82.1875 144.503906 81.09375 C 144.503906 79.929688 145.148438 78.890625 146.15625 78.203125 C 145.621094 77.929688 145.300781 77.585938 145.300781 77.207031 C 145.300781 76.8125 145.65625 76.449219 146.242188 76.171875 L 146.292969 74.652344 C 146.300781 74.402344 146.433594 74.203125 146.59375 74.203125 L 151.554688 74.203125 C 151.714844 74.203125 151.847656 74.402344 151.855469 74.652344 L 151.90625 76.171875 C 152.492188 76.449219 152.847656 76.8125 152.847656 77.207031 C 152.847656 77.585938 152.527344 77.929688 151.992188 78.203125 C 152.621094 78.632812 153.109375 79.199219 153.386719 79.84375 C 153.558594 80.242188 153.644531 80.660156 153.644531 81.09375 C 153.648438 82.1875 153.074219 83.175781 152.164062 83.859375 Z M 152.164062 83.859375 " fill-opacity="1" fill-rule="nonzero"/><path fill="#55383c" d="M 152.164062 83.859375 L 152.191406 84.726562 C 152.207031 85.183594 151.972656 85.5625 151.679688 85.5625 L 146.472656 85.5625 C 146.191406 85.5625 145.964844 85.214844 145.957031 84.789062 C 146.75 84.296875 147.535156 83.792969 148.3125 83.285156 C 149.203125 82.703125 150.105469 82.132812 150.972656 81.515625 C 151.675781 81.011719 152.332031 80.253906 153.140625 79.929688 C 153.222656 79.894531 153.304688 79.867188 153.386719 79.84375 C 153.558594 80.242188 153.644531 80.660156 153.644531 81.09375 C 153.648438 82.1875 153.074219 83.175781 152.164062 83.859375 Z M 152.164062 83.859375 " fill-opacity="1" fill-rule="nonzero"/><path fill="#80aabb" d="M 143.546875 85.027344 L 154.175781 85.027344 C 154.296875 85.027344 154.40625 85.070312 154.492188 85.160156 C 154.578125 85.246094 154.625 85.351562 154.625 85.476562 L 154.625 85.796875 C 154.625 85.921875 154.578125 86.027344 154.492188 86.117188 C 154.40625 86.203125 154.296875 86.246094 154.175781 86.246094 L 143.546875 86.246094 C 143.421875 86.246094 143.316406 86.203125 143.226562 86.117188 C 143.140625 86.027344 143.097656 85.921875 143.097656 85.796875 L 143.097656 85.476562 C 143.097656 85.351562 143.140625 85.246094 143.226562 85.160156 C 143.316406 85.070312 143.421875 85.027344 143.546875 85.027344 Z M 143.546875 85.027344 " fill-opacity="1" fill-rule="nonzero"/><path fill="#88aebb" d="M 49.03125 71.488281 C 49.03125 72.5 48.933594 73.503906 48.734375 74.496094 C 48.535156 75.492188 48.246094 76.453125 47.855469 77.390625 C 47.46875 78.324219 46.992188 79.214844 46.429688 80.058594 C 45.867188 80.898438 45.230469 81.679688 44.511719 82.394531 C 43.796875 83.109375 43.015625 83.75 42.175781 84.3125 C 41.332031 84.875 40.445312 85.347656 39.507812 85.738281 C 38.570312 86.125 37.605469 86.417969 36.613281 86.613281 C 35.621094 86.8125 34.617188 86.910156 33.605469 86.910156 C 32.589844 86.910156 31.589844 86.8125 30.59375 86.613281 C 29.601562 86.417969 28.636719 86.125 27.699219 85.738281 C 26.765625 85.347656 25.875 84.875 25.035156 84.3125 C 24.191406 83.75 23.414062 83.109375 22.695312 82.394531 C 21.980469 81.679688 21.339844 80.898438 20.777344 80.058594 C 20.214844 79.214844 19.738281 78.324219 19.351562 77.390625 C 18.964844 76.453125 18.671875 75.492188 18.472656 74.496094 C 18.277344 73.503906 18.175781 72.5 18.175781 71.488281 C 18.175781 70.476562 18.277344 69.472656 18.472656 68.480469 C 18.671875 67.488281 18.964844 66.523438 19.351562 65.585938 C 19.738281 64.652344 20.214844 63.761719 20.777344 62.921875 C 21.339844 62.078125 21.980469 61.300781 22.695312 60.582031 C 23.414062 59.867188 24.191406 59.226562 25.035156 58.664062 C 25.875 58.101562 26.765625 57.628906 27.699219 57.238281 C 28.636719 56.851562 29.601562 56.558594 30.59375 56.363281 C 31.589844 56.164062 32.589844 56.066406 33.605469 56.066406 C 34.617188 56.066406 35.621094 56.164062 36.613281 56.363281 C 37.605469 56.558594 38.570312 56.851562 39.507812 57.238281 C 40.445312 57.628906 41.332031 58.101562 42.175781 58.664062 C 43.015625 59.226562 43.796875 59.867188 44.511719 60.582031 C 45.230469 61.300781 45.867188 62.078125 46.429688 62.921875 C 46.992188 63.761719 47.46875 64.652344 47.855469 65.585938 C 48.246094 66.523438 48.535156 67.488281 48.734375 68.480469 C 48.933594 69.472656 49.03125 70.476562 49.03125 71.488281 Z M 49.03125 71.488281 " fill-opacity="1" fill-rule="nonzero"/><path fill="#88aebb" d="M 43.269531 76.894531 C 43.269531 76.894531 42.304688 81.695312 52.550781 86.496094 C 52.550781 86.496094 43.90625 88.097656 35.902344 83.9375 Z M 43.269531 76.894531 " fill-opacity="1" fill-rule="nonzero"/><path fill="#333b52" d="M 30.59375 67.21875 C 30.59375 67.21875 29.15625 65.632812 27.019531 67.722656 C 27.019531 67.722656 28.917969 66.511719 30.679688 67.605469 C 30.707031 67.625 30.738281 67.625 30.769531 67.613281 C 30.800781 67.597656 30.820312 67.578125 30.828125 67.542969 C 30.953125 66.976562 31.546875 64.871094 33.761719 64.097656 C 33.761719 64.097656 30.753906 63.636719 30.59375 67.21875 Z M 30.59375 67.21875 " fill-opacity="1" fill-rule="nonzero"/><path fill="#333b52" d="M 33.917969 80.734375 C 33.917969 80.734375 33.253906 75.90625 26.550781 77.074219 C 26.550781 77.074219 31.675781 77.25 33.578125 81.574219 C 33.609375 81.644531 33.664062 81.6875 33.742188 81.703125 C 33.816406 81.71875 33.882812 81.699219 33.941406 81.648438 C 34.898438 80.742188 38.738281 77.554688 43.886719 78.949219 C 43.886719 78.953125 38.832031 74.21875 33.917969 80.734375 Z M 33.917969 80.734375 " fill-opacity="1" fill-rule="nonzero"/><path fill="#fcf8f7" d="M 23.128906 73.949219 L 29.816406 73.949219 C 29.824219 73.910156 29.824219 73.871094 29.824219 73.835938 C 29.824219 73.269531 29.109375 72.785156 28.105469 72.609375 C 27.890625 72.351562 27.417969 72.171875 26.867188 72.171875 C 26.652344 71.734375 26.269531 71.441406 25.835938 71.441406 C 25.242188 71.441406 24.746094 71.984375 24.644531 72.699219 C 24.359375 72.816406 24.171875 73.015625 24.171875 73.242188 C 24.171875 73.253906 24.171875 73.265625 24.171875 73.277344 C 23.597656 73.386719 23.183594 73.644531 23.128906 73.949219 Z M 23.128906 73.949219 " fill-opacity="1" fill-rule="nonzero"/><path fill="#c1d4dd" d="M 44.28125 67.683594 L 35.117188 67.683594 C 35.105469 67.628906 35.101562 67.578125 35.101562 67.527344 C 35.101562 66.75 36.085938 66.089844 37.460938 65.847656 C 37.757812 65.492188 38.40625 65.246094 39.160156 65.246094 C 39.449219 64.644531 39.972656 64.246094 40.570312 64.246094 C 41.386719 64.246094 42.0625 64.988281 42.203125 65.964844 C 42.59375 66.128906 42.851562 66.402344 42.851562 66.714844 C 42.851562 66.730469 42.851562 66.746094 42.851562 66.761719 C 43.636719 66.914062 44.207031 67.265625 44.28125 67.683594 Z M 44.28125 67.683594 " fill-opacity="1" fill-rule="nonzero"/></svg>