<svg xmlns="http://www.w3.org/2000/svg" xmlns:xlink="http://www.w3.org/1999/xlink" width="241" zoomAndPan="magnify" viewBox="0 0 180.75 169.5" height="226" preserveAspectRatio="xMidYMid meet" version="1.0"><defs><clipPath id="37daa58f9c"><path d="M 171 112 L 180.308594 112 L 180.308594 121 L 171 121 Z M 171 112 " clip-rule="nonzero"/></clipPath></defs><path fill="#41465b" d="M 157.179688 18.613281 C 156.1875 20.191406 155.117188 21.714844 153.96875 23.179688 C 152.816406 24.644531 151.59375 26.046875 150.296875 27.386719 C 149 28.726562 147.636719 29.996094 146.210938 31.199219 C 144.785156 32.398438 143.300781 33.519531 141.757812 34.5625 C 140.214844 35.609375 138.621094 36.570312 136.976562 37.449219 C 136.773438 37.554688 136.570312 37.664062 136.363281 37.769531 C 136.265625 37.824219 136.136719 37.742188 136.101562 37.648438 C 136.054688 37.535156 136.125 37.433594 136.222656 37.382812 C 137.859375 36.535156 139.449219 35.601562 140.988281 34.585938 C 142.535156 33.5625 144.027344 32.464844 145.460938 31.289062 C 146.886719 30.117188 148.25 28.878906 149.546875 27.566406 C 150.851562 26.25 152.085938 24.867188 153.25 23.421875 C 154.40625 21.984375 155.484375 20.488281 156.488281 18.9375 C 156.609375 18.746094 156.734375 18.550781 156.855469 18.355469 C 156.914062 18.261719 157.066406 18.261719 157.144531 18.324219 C 157.242188 18.402344 157.234375 18.523438 157.175781 18.617188 Z M 157.179688 18.613281 " fill-opacity="1" fill-rule="nonzero"/><path fill="#41465b" d="M 151 23.882812 C 151.273438 24.4375 151.402344 25.027344 151.382812 25.644531 C 151.378906 25.828125 151.363281 26.007812 151.335938 26.191406 C 151.316406 26.332031 151.238281 26.390625 151.097656 26.367188 C 150.953125 26.34375 150.898438 26.265625 150.925781 26.125 C 150.945312 26.007812 150.960938 25.894531 150.96875 25.777344 C 150.972656 25.746094 150.972656 25.714844 150.972656 25.6875 C 150.972656 25.679688 150.972656 25.671875 150.972656 25.664062 C 150.972656 25.699219 150.972656 25.703125 150.972656 25.683594 L 150.972656 25.636719 C 150.972656 25.578125 150.972656 25.523438 150.972656 25.464844 C 150.964844 25.226562 150.9375 24.996094 150.882812 24.765625 L 150.894531 24.816406 C 150.832031 24.542969 150.738281 24.28125 150.617188 24.027344 C 150.597656 23.972656 150.597656 23.921875 150.621094 23.871094 C 150.644531 23.820312 150.683594 23.785156 150.738281 23.761719 C 150.789062 23.742188 150.839844 23.746094 150.890625 23.769531 C 150.941406 23.792969 150.980469 23.832031 151 23.886719 Z M 151 23.882812 " fill-opacity="1" fill-rule="nonzero"/><path fill="#41465b" d="M 155.453125 26.523438 C 155.324219 26.421875 155.191406 26.328125 155.050781 26.242188 L 155.097656 26.269531 C 154.925781 26.164062 154.746094 26.070312 154.558594 25.996094 C 154.464844 25.957031 154.371094 25.921875 154.277344 25.890625 L 154.210938 25.867188 L 154.175781 25.859375 L 154.199219 25.863281 C 154.191406 25.863281 154.183594 25.859375 154.175781 25.859375 C 154.125 25.84375 154.078125 25.832031 154.03125 25.820312 C 153.835938 25.769531 153.636719 25.734375 153.433594 25.714844 C 153.386719 25.710938 153.335938 25.707031 153.285156 25.703125 L 153.214844 25.699219 C 153.199219 25.699219 153.152344 25.699219 153.21875 25.699219 L 153.179688 25.699219 C 153.078125 25.699219 152.976562 25.699219 152.878906 25.703125 C 152.652344 25.714844 152.425781 25.746094 152.207031 25.796875 L 152.257812 25.785156 C 152.066406 25.828125 151.878906 25.886719 151.695312 25.960938 C 151.566406 26.007812 151.480469 25.964844 151.429688 25.839844 C 151.386719 25.710938 151.425781 25.625 151.550781 25.574219 C 152.097656 25.359375 152.664062 25.265625 153.25 25.292969 C 153.824219 25.316406 154.367188 25.445312 154.886719 25.6875 C 155.183594 25.828125 155.457031 26 155.710938 26.203125 C 155.824219 26.289062 155.835938 26.386719 155.746094 26.496094 C 155.65625 26.609375 155.558594 26.617188 155.453125 26.523438 Z M 155.453125 26.523438 " fill-opacity="1" fill-rule="nonzero"/><path fill="#41465b" d="M 147.722656 31.683594 C 147.609375 31.632812 147.5 31.589844 147.386719 31.550781 C 147.328125 31.527344 147.269531 31.507812 147.210938 31.492188 L 147.234375 31.5 L 147.214844 31.492188 L 147.175781 31.484375 C 147.144531 31.476562 147.113281 31.464844 147.082031 31.457031 C 146.847656 31.402344 146.613281 31.363281 146.371094 31.347656 C 146.339844 31.34375 146.304688 31.34375 146.269531 31.34375 C 146.273438 31.34375 146.324219 31.34375 146.289062 31.34375 L 146.210938 31.34375 C 146.140625 31.34375 146.074219 31.34375 146.007812 31.347656 C 145.898438 31.351562 145.789062 31.273438 145.78125 31.160156 C 145.777344 31.054688 145.855469 30.941406 145.96875 30.9375 C 146.492188 30.914062 147 30.988281 147.5 31.15625 C 147.632812 31.199219 147.761719 31.25 147.886719 31.308594 C 148.015625 31.363281 148.050781 31.457031 147.992188 31.582031 C 147.9375 31.707031 147.847656 31.742188 147.722656 31.6875 Z M 147.722656 31.683594 " fill-opacity="1" fill-rule="nonzero"/><path fill="#41465b" d="M 147.421875 26.304688 C 147.617188 26.765625 147.742188 27.246094 147.796875 27.742188 C 147.886719 28.535156 147.796875 29.304688 147.523438 30.054688 C 147.488281 30.15625 147.347656 30.207031 147.253906 30.160156 C 147.132812 30.101562 147.097656 30.011719 147.148438 29.886719 C 147.164062 29.84375 147.179688 29.800781 147.191406 29.761719 C 147.199219 29.738281 147.207031 29.714844 147.214844 29.695312 C 147.214844 29.683594 147.21875 29.671875 147.222656 29.664062 C 147.226562 29.652344 147.230469 29.636719 147.222656 29.667969 C 147.214844 29.699219 147.21875 29.675781 147.222656 29.667969 C 147.246094 29.582031 147.269531 29.496094 147.289062 29.40625 C 147.332031 29.230469 147.363281 29.050781 147.382812 28.867188 C 147.394531 28.78125 147.402344 28.691406 147.410156 28.601562 C 147.410156 28.578125 147.410156 28.554688 147.414062 28.53125 C 147.414062 28.519531 147.414062 28.511719 147.414062 28.5 C 147.414062 28.488281 147.414062 28.445312 147.414062 28.484375 C 147.410156 28.519531 147.414062 28.480469 147.414062 28.472656 C 147.414062 28.464844 147.414062 28.449219 147.414062 28.441406 C 147.414062 28.417969 147.414062 28.394531 147.414062 28.371094 C 147.414062 27.980469 147.375 27.597656 147.289062 27.21875 L 147.300781 27.273438 C 147.234375 26.988281 147.144531 26.714844 147.03125 26.445312 C 146.984375 26.316406 147.023438 26.230469 147.152344 26.179688 C 147.28125 26.136719 147.367188 26.179688 147.417969 26.304688 Z M 147.421875 26.304688 " fill-opacity="1" fill-rule="nonzero"/><path fill="#41465b" d="M 154.0625 26.8125 C 153.730469 27.886719 153.636719 30.515625 161.757812 28.691406 C 161.835938 28.671875 161.902344 28.636719 161.960938 28.585938 C 162.019531 28.53125 162.058594 28.46875 162.085938 28.394531 C 162.109375 28.320312 162.113281 28.246094 162.097656 28.167969 C 162.082031 28.089844 162.046875 28.023438 161.996094 27.964844 C 160.332031 26.089844 154.898438 20.425781 154.28125 25.808594 C 154.238281 26.152344 154.167969 26.484375 154.0625 26.8125 Z M 154.0625 26.8125 " fill-opacity="1" fill-rule="nonzero"/><path fill="#41465b" d="M 147.027344 31.808594 C 146.121094 32.3125 144.390625 34 150.949219 37.941406 C 151.011719 37.980469 151.078125 38 151.152344 38 C 151.222656 38.003906 151.292969 37.984375 151.355469 37.953125 C 151.417969 37.917969 151.46875 37.871094 151.507812 37.808594 C 151.542969 37.746094 151.566406 37.679688 151.566406 37.609375 C 151.652344 35.308594 151.636719 28.09375 147.804688 31.277344 C 147.5625 31.480469 147.300781 31.65625 147.027344 31.808594 Z M 147.027344 31.808594 " fill-opacity="1" fill-rule="nonzero"/><path fill="#41465b" d="M 147.601562 26.179688 C 147.734375 25.570312 147.660156 24.117188 143.261719 25.511719 C 143.171875 25.539062 143.117188 25.601562 143.097656 25.691406 C 143.074219 25.78125 143.097656 25.859375 143.167969 25.925781 C 144.171875 26.878906 147.445312 29.746094 147.527344 26.746094 C 147.535156 26.554688 147.558594 26.367188 147.601562 26.179688 Z M 147.601562 26.179688 " fill-opacity="1" fill-rule="nonzero"/><path fill="#41465b" d="M 151.582031 22.984375 C 152.171875 22.429688 153.167969 20.8125 147.421875 19.0625 C 147.367188 19.042969 147.3125 19.042969 147.257812 19.054688 C 147.203125 19.066406 147.15625 19.09375 147.113281 19.128906 C 147.070312 19.167969 147.042969 19.214844 147.023438 19.269531 C 147.007812 19.324219 147.003906 19.375 147.015625 19.433594 C 147.390625 21.203125 148.777344 26.691406 151.085938 23.535156 C 151.234375 23.335938 151.398438 23.152344 151.582031 22.984375 Z M 151.582031 22.984375 " fill-opacity="1" fill-rule="nonzero"/><path fill="#41465b" d="M 156.96875 20.683594 C 158.054688 21.46875 161 22.578125 162.027344 12.675781 C 162.039062 12.582031 162.023438 12.492188 161.984375 12.40625 C 161.949219 12.320312 161.890625 12.25 161.816406 12.195312 C 161.742188 12.136719 161.65625 12.105469 161.5625 12.09375 C 161.472656 12.082031 161.382812 12.09375 161.296875 12.132812 C 158.535156 13.300781 150.050781 17.296875 155.914062 20.054688 C 156.285156 20.230469 156.636719 20.441406 156.96875 20.683594 Z M 156.96875 20.683594 " fill-opacity="1" fill-rule="nonzero"/><path fill="#41465b" d="M 161.191406 43.992188 C 159.800781 44.140625 158.40625 44.21875 157.003906 44.21875 C 155.605469 44.222656 154.210938 44.148438 152.816406 44.007812 C 151.421875 43.863281 150.042969 43.648438 148.667969 43.363281 C 147.296875 43.078125 145.945312 42.722656 144.613281 42.300781 C 143.277344 41.875 141.972656 41.378906 140.691406 40.816406 C 140.53125 40.746094 140.375 40.675781 140.214844 40.605469 C 140.136719 40.570312 140.125 40.457031 140.164062 40.390625 C 140.210938 40.3125 140.300781 40.304688 140.378906 40.339844 C 141.640625 40.914062 142.929688 41.417969 144.242188 41.855469 C 145.566406 42.292969 146.910156 42.664062 148.269531 42.960938 C 149.621094 43.261719 150.988281 43.488281 152.363281 43.648438 C 153.75 43.804688 155.136719 43.894531 156.53125 43.90625 C 157.917969 43.921875 159.300781 43.867188 160.683594 43.734375 C 160.855469 43.71875 161.027344 43.703125 161.199219 43.683594 C 161.28125 43.675781 161.351562 43.761719 161.351562 43.839844 C 161.351562 43.933594 161.277344 43.984375 161.195312 43.992188 Z M 161.191406 43.992188 " fill-opacity="1" fill-rule="nonzero"/><path fill="#41465b" d="M 155.214844 42.792969 C 155.011719 43.214844 154.722656 43.5625 154.351562 43.839844 C 154.242188 43.921875 154.125 43.996094 154.003906 44.066406 C 153.917969 44.109375 153.847656 44.089844 153.796875 44 C 153.75 43.914062 153.769531 43.84375 153.855469 43.792969 C 153.933594 43.75 154.007812 43.707031 154.078125 43.65625 C 154.097656 43.644531 154.113281 43.632812 154.132812 43.617188 L 154.148438 43.609375 C 154.128906 43.625 154.125 43.625 154.136719 43.617188 L 154.164062 43.597656 C 154.199219 43.570312 154.234375 43.542969 154.265625 43.515625 C 154.402344 43.398438 154.523438 43.273438 154.636719 43.136719 L 154.609375 43.167969 C 154.746094 43.003906 154.855469 42.824219 154.949219 42.632812 C 154.984375 42.574219 155.035156 42.550781 155.105469 42.558594 C 155.171875 42.570312 155.214844 42.609375 155.230469 42.675781 C 155.238281 42.71875 155.234375 42.757812 155.214844 42.792969 Z M 155.214844 42.792969 " fill-opacity="1" fill-rule="nonzero"/><path fill="#41465b" d="M 155.722656 46.648438 C 155.722656 46.527344 155.71875 46.402344 155.703125 46.28125 C 155.703125 46.292969 155.707031 46.308594 155.707031 46.320312 C 155.691406 46.171875 155.660156 46.023438 155.621094 45.875 C 155.597656 45.804688 155.578125 45.734375 155.550781 45.660156 C 155.546875 45.644531 155.539062 45.628906 155.53125 45.609375 C 155.53125 45.601562 155.527344 45.59375 155.523438 45.585938 C 155.515625 45.566406 155.527344 45.601562 155.53125 45.601562 C 155.527344 45.597656 155.523438 45.589844 155.523438 45.585938 C 155.507812 45.550781 155.492188 45.515625 155.476562 45.480469 C 155.414062 45.34375 155.34375 45.210938 155.261719 45.082031 C 155.242188 45.050781 155.222656 45.019531 155.199219 44.988281 C 155.191406 44.972656 155.179688 44.960938 155.167969 44.945312 C 155.160156 44.929688 155.140625 44.90625 155.167969 44.945312 L 155.152344 44.921875 C 155.105469 44.859375 155.058594 44.800781 155.007812 44.746094 C 154.898438 44.617188 154.773438 44.5 154.640625 44.390625 L 154.671875 44.417969 C 154.558594 44.324219 154.4375 44.238281 154.308594 44.164062 C 154.21875 44.113281 154.203125 44.039062 154.257812 43.953125 C 154.3125 43.863281 154.382812 43.847656 154.46875 43.902344 C 154.851562 44.125 155.167969 44.414062 155.425781 44.773438 C 155.679688 45.121094 155.855469 45.507812 155.953125 45.925781 C 156.007812 46.164062 156.035156 46.40625 156.03125 46.648438 C 156.03125 46.753906 155.976562 46.804688 155.875 46.804688 C 155.769531 46.800781 155.71875 46.75 155.722656 46.644531 Z M 155.722656 46.648438 " fill-opacity="1" fill-rule="nonzero"/><path fill="#41465b" d="M 149.085938 44.480469 C 149.0625 44.394531 149.039062 44.304688 149.007812 44.21875 C 148.992188 44.175781 148.980469 44.132812 148.960938 44.09375 C 148.960938 44.09375 148.972656 44.125 148.96875 44.109375 C 148.964844 44.105469 148.964844 44.097656 148.960938 44.09375 C 148.960938 44.089844 148.953125 44.074219 148.949219 44.066406 C 148.941406 44.042969 148.929688 44.023438 148.921875 44 C 148.847656 43.835938 148.757812 43.679688 148.65625 43.527344 C 148.644531 43.507812 148.628906 43.488281 148.613281 43.464844 C 148.613281 43.464844 148.636719 43.496094 148.621094 43.476562 L 148.609375 43.464844 L 148.585938 43.429688 C 148.554688 43.386719 148.519531 43.347656 148.488281 43.308594 C 148.417969 43.234375 148.417969 43.160156 148.492188 43.089844 C 148.566406 43.019531 148.640625 43.019531 148.710938 43.09375 C 148.96875 43.394531 149.160156 43.730469 149.292969 44.101562 C 149.328125 44.199219 149.359375 44.300781 149.382812 44.402344 C 149.40625 44.5 149.367188 44.5625 149.269531 44.585938 C 149.175781 44.609375 149.113281 44.574219 149.085938 44.480469 Z M 149.085938 44.480469 " fill-opacity="1" fill-rule="nonzero"/><path fill="#41465b" d="M 152.121094 41.804688 C 151.9375 42.132812 151.714844 42.429688 151.445312 42.695312 C 151.175781 42.957031 150.878906 43.179688 150.546875 43.355469 C 150.355469 43.457031 150.160156 43.539062 149.957031 43.609375 C 149.855469 43.632812 149.792969 43.597656 149.769531 43.496094 C 149.746094 43.398438 149.78125 43.335938 149.878906 43.308594 C 149.910156 43.296875 149.945312 43.285156 149.976562 43.277344 L 150.023438 43.257812 L 150.046875 43.25 L 150.042969 43.25 C 150.019531 43.257812 150.039062 43.25 150.042969 43.25 C 150.105469 43.222656 150.167969 43.195312 150.226562 43.167969 C 150.351562 43.109375 150.472656 43.042969 150.589844 42.972656 C 150.644531 42.9375 150.703125 42.902344 150.757812 42.863281 C 150.773438 42.855469 150.785156 42.84375 150.800781 42.835938 L 150.820312 42.820312 C 150.828125 42.816406 150.851562 42.796875 150.832031 42.8125 L 150.835938 42.808594 L 150.855469 42.792969 L 150.898438 42.761719 C 151.128906 42.582031 151.335938 42.378906 151.519531 42.152344 L 151.492188 42.183594 C 151.628906 42.015625 151.75 41.835938 151.855469 41.644531 C 151.910156 41.554688 151.980469 41.539062 152.070312 41.59375 C 152.152344 41.648438 152.171875 41.71875 152.121094 41.804688 Z M 152.121094 41.804688 " fill-opacity="1" fill-rule="nonzero"/><path fill="#41465b" d="M 154.90625 45.964844 C 154.117188 46.265625 152.519531 47.433594 157.375 51.382812 C 157.417969 51.417969 157.472656 51.441406 157.53125 51.453125 C 157.589844 51.460938 157.644531 51.457031 157.699219 51.4375 C 157.757812 51.417969 157.804688 51.382812 157.839844 51.339844 C 157.878906 51.292969 157.902344 51.242188 157.914062 51.183594 C 158.25 49.328125 159.066406 43.488281 155.601562 45.625 C 155.378906 45.761719 155.148438 45.871094 154.90625 45.964844 Z M 154.90625 45.964844 " fill-opacity="1" fill-rule="nonzero"/><path fill="#41465b" d="M 148.6875 44.128906 C 147.972656 43.828125 146.171875 43.589844 146.890625 49.296875 C 146.898438 49.351562 146.917969 49.398438 146.949219 49.441406 C 146.980469 49.488281 147.023438 49.519531 147.074219 49.539062 C 147.121094 49.5625 147.175781 49.570312 147.226562 49.5625 C 147.28125 49.558594 147.332031 49.539062 147.375 49.507812 C 148.773438 48.488281 153.023438 45.125 149.363281 44.34375 C 149.132812 44.292969 148.90625 44.222656 148.6875 44.128906 Z M 148.6875 44.128906 " fill-opacity="1" fill-rule="nonzero"/><path fill="#41465b" d="M 152.277344 41.855469 C 152.695312 41.648438 153.523438 40.929688 150.65625 38.980469 C 150.597656 38.941406 150.535156 38.9375 150.472656 38.964844 C 150.410156 38.996094 150.375 39.046875 150.367188 39.117188 C 150.269531 40.15625 150.097656 43.417969 151.910156 42.074219 C 152.023438 41.988281 152.148438 41.914062 152.277344 41.855469 Z M 152.277344 41.855469 " fill-opacity="1" fill-rule="nonzero"/><path fill="#41465b" d="M 156.011719 42.71875 C 156.617188 42.808594 158.03125 42.644531 156.394531 38.4375 C 156.363281 38.355469 156.300781 38.304688 156.210938 38.289062 C 156.121094 38.273438 156.046875 38.300781 155.988281 38.371094 C 155.117188 39.414062 152.523438 42.785156 155.457031 42.683594 C 155.644531 42.675781 155.828125 42.6875 156.011719 42.71875 Z M 156.011719 42.71875 " fill-opacity="1" fill-rule="nonzero"/><path fill="#41465b" d="M 159.875 44.832031 C 159.914062 45.839844 160.628906 48.09375 166.953125 44.097656 C 167.011719 44.058594 167.054688 44.011719 167.089844 43.949219 C 167.121094 43.886719 167.136719 43.820312 167.136719 43.75 C 167.132812 43.679688 167.113281 43.617188 167.078125 43.554688 C 167.042969 43.496094 166.992188 43.449219 166.929688 43.414062 C 164.960938 42.328125 158.65625 39.175781 159.753906 43.917969 C 159.824219 44.21875 159.863281 44.523438 159.875 44.832031 Z M 159.875 44.832031 " fill-opacity="1" fill-rule="nonzero"/><path fill="#606678" d="M 6.941406 78.722656 C 5.878906 72.230469 6.800781 65.558594 8.4375 59.1875 C 10.71875 50.304688 15.421875 40.800781 24.203125 38.15625 C 29.679688 36.507812 35.539062 37.925781 41.253906 38.214844 C 51.132812 38.714844 60.867188 35.78125 70.082031 32.179688 C 79.296875 28.578125 88.28125 24.261719 97.859375 21.78125 C 107.4375 19.296875 117.898438 18.777344 126.980469 22.699219 C 136.066406 26.621094 143.320312 35.734375 142.925781 45.625 C 142.699219 51.175781 140.191406 56.539062 140.601562 62.082031 C 141.867188 79.074219 161.464844 86.085938 158.613281 105.363281 C 155.847656 124.042969 137.628906 134.414062 121.023438 139.347656 C 108.804688 142.980469 97.722656 140.941406 85.941406 136.867188 C 79.039062 134.484375 72.214844 131.90625 65.210938 129.832031 C 57.097656 127.429688 45.371094 127.382812 40.84375 119.21875 C 38.421875 114.855469 38.617188 109.671875 35.214844 105.746094 C 32.425781 102.527344 28.296875 101.054688 24.527344 99.355469 C 15.183594 95.140625 8.683594 89.355469 6.941406 78.722656 Z M 6.941406 78.722656 " fill-opacity="1" fill-rule="nonzero"/><path fill="#505563" d="M 76.789062 0.0078125 C 72.347656 0.0078125 68.746094 3.609375 68.746094 8.054688 C 68.746094 12.5 72.347656 16.101562 76.789062 16.101562 C 81.230469 16.101562 84.832031 12.496094 84.832031 8.054688 C 84.832031 3.613281 81.230469 0.0078125 76.789062 0.0078125 Z M 76.789062 15.597656 C 72.625 15.597656 69.25 12.21875 69.25 8.054688 C 69.25 3.890625 72.625 0.511719 76.789062 0.511719 C 80.953125 0.511719 84.328125 3.890625 84.328125 8.054688 C 84.328125 12.21875 80.953125 15.597656 76.789062 15.597656 Z M 76.789062 15.597656 " fill-opacity="1" fill-rule="nonzero"/><path fill="#505563" d="M 10.460938 101.679688 C 6.355469 101.679688 3.023438 105.011719 3.023438 109.121094 C 3.023438 113.230469 6.355469 116.5625 10.460938 116.5625 C 14.570312 116.5625 17.902344 113.230469 17.902344 109.121094 C 17.902344 105.011719 14.570312 101.679688 10.460938 101.679688 Z M 10.460938 116.097656 C 6.609375 116.097656 3.488281 112.972656 3.488281 109.121094 C 3.488281 105.269531 6.613281 102.148438 10.460938 102.148438 C 14.3125 102.148438 17.4375 105.269531 17.4375 109.121094 C 17.4375 112.972656 14.3125 116.09375 10.460938 116.09375 Z M 10.460938 116.097656 " fill-opacity="1" fill-rule="nonzero"/><g clip-path="url(#37daa58f9c)"><path fill="#505563" d="M 176.070312 112.222656 C 175.792969 112.222656 175.515625 112.25 175.246094 112.300781 C 174.972656 112.355469 174.707031 112.4375 174.449219 112.542969 C 174.191406 112.648438 173.949219 112.78125 173.71875 112.933594 C 173.484375 113.089844 173.273438 113.265625 173.074219 113.460938 C 172.878906 113.660156 172.703125 113.875 172.546875 114.105469 C 172.394531 114.335938 172.261719 114.582031 172.15625 114.835938 C 172.050781 115.09375 171.96875 115.359375 171.914062 115.632812 C 171.859375 115.90625 171.835938 116.179688 171.835938 116.460938 C 171.835938 116.738281 171.859375 117.011719 171.914062 117.285156 C 171.96875 117.558594 172.050781 117.824219 172.15625 118.082031 C 172.261719 118.339844 172.394531 118.582031 172.546875 118.8125 C 172.703125 119.046875 172.878906 119.257812 173.074219 119.457031 C 173.273438 119.652344 173.484375 119.828125 173.71875 119.984375 C 173.949219 120.136719 174.191406 120.269531 174.449219 120.375 C 174.707031 120.480469 174.972656 120.5625 175.246094 120.617188 C 175.515625 120.671875 175.792969 120.699219 176.070312 120.699219 C 176.347656 120.699219 176.625 120.671875 176.898438 120.617188 C 177.171875 120.5625 177.4375 120.480469 177.691406 120.375 C 177.949219 120.269531 178.195312 120.136719 178.425781 119.984375 C 178.65625 119.828125 178.871094 119.652344 179.066406 119.457031 C 179.265625 119.257812 179.441406 119.046875 179.59375 118.8125 C 179.75 118.582031 179.878906 118.339844 179.984375 118.082031 C 180.09375 117.824219 180.171875 117.558594 180.226562 117.285156 C 180.28125 117.011719 180.308594 116.738281 180.308594 116.460938 C 180.308594 116.179688 180.28125 115.90625 180.226562 115.632812 C 180.171875 115.359375 180.09375 115.09375 179.984375 114.835938 C 179.878906 114.582031 179.75 114.335938 179.59375 114.105469 C 179.441406 113.875 179.265625 113.660156 179.066406 113.460938 C 178.871094 113.265625 178.65625 113.089844 178.425781 112.933594 C 178.195312 112.78125 177.949219 112.648438 177.691406 112.542969 C 177.4375 112.4375 177.171875 112.355469 176.898438 112.300781 C 176.625 112.25 176.347656 112.222656 176.070312 112.222656 Z M 176.070312 120.433594 C 175.808594 120.433594 175.550781 120.40625 175.296875 120.355469 C 175.039062 120.304688 174.792969 120.230469 174.550781 120.128906 C 174.308594 120.03125 174.082031 119.90625 173.863281 119.761719 C 173.648438 119.617188 173.445312 119.453125 173.261719 119.269531 C 173.078125 119.085938 172.914062 118.882812 172.769531 118.667969 C 172.625 118.449219 172.5 118.222656 172.402344 117.980469 C 172.300781 117.738281 172.226562 117.492188 172.175781 117.234375 C 172.125 116.980469 172.097656 116.71875 172.097656 116.460938 C 172.097656 116.199219 172.125 115.941406 172.175781 115.683594 C 172.226562 115.429688 172.300781 115.179688 172.402344 114.9375 C 172.5 114.699219 172.625 114.46875 172.769531 114.25 C 172.914062 114.035156 173.078125 113.835938 173.261719 113.648438 C 173.445312 113.464844 173.648438 113.300781 173.863281 113.15625 C 174.082031 113.011719 174.308594 112.886719 174.550781 112.789062 C 174.792969 112.6875 175.039062 112.613281 175.296875 112.5625 C 175.550781 112.511719 175.808594 112.484375 176.070312 112.484375 C 176.332031 112.484375 176.589844 112.511719 176.847656 112.5625 C 177.101562 112.613281 177.351562 112.6875 177.589844 112.789062 C 177.832031 112.886719 178.0625 113.011719 178.277344 113.15625 C 178.496094 113.300781 178.695312 113.464844 178.878906 113.648438 C 179.0625 113.835938 179.230469 114.035156 179.375 114.25 C 179.519531 114.46875 179.640625 114.699219 179.742188 114.9375 C 179.839844 115.179688 179.917969 115.429688 179.96875 115.683594 C 180.019531 115.941406 180.042969 116.199219 180.042969 116.460938 C 180.042969 116.71875 180.019531 116.980469 179.96875 117.234375 C 179.914062 117.488281 179.839844 117.738281 179.742188 117.980469 C 179.640625 118.21875 179.519531 118.449219 179.375 118.667969 C 179.230469 118.882812 179.0625 119.082031 178.878906 119.269531 C 178.695312 119.453125 178.496094 119.617188 178.277344 119.761719 C 178.0625 119.90625 177.832031 120.03125 177.589844 120.128906 C 177.351562 120.230469 177.101562 120.304688 176.847656 120.355469 C 176.589844 120.40625 176.332031 120.433594 176.070312 120.433594 Z M 176.070312 120.433594 " fill-opacity="1" fill-rule="nonzero"/></g><path fill="#e7e6ea" d="M 102.546875 127.550781 C 102.28125 127.074219 102.222656 126.574219 102.375 126.050781 C 103.78125 121.164062 103.609375 115.90625 102.207031 110.367188 C 102.078125 109.863281 102.140625 109.386719 102.398438 108.933594 L 104.574219 105.066406 C 104.761719 104.730469 104.824219 104.375 104.761719 104 C 104.703125 103.621094 104.53125 103.304688 104.25 103.046875 L 104.171875 102.972656 C 103.890625 102.714844 103.558594 102.574219 103.175781 102.546875 C 102.796875 102.519531 102.449219 102.617188 102.132812 102.832031 L 98.574219 105.277344 C 98.085938 105.617188 97.550781 105.707031 96.976562 105.558594 C 88.902344 103.449219 80.675781 103.523438 72.316406 105.570312 C 71.753906 105.707031 71.230469 105.613281 70.75 105.28125 L 67.1875 102.832031 C 66.871094 102.613281 66.523438 102.519531 66.140625 102.546875 C 65.761719 102.574219 65.429688 102.714844 65.144531 102.972656 L 65.070312 103.046875 C 64.789062 103.304688 64.617188 103.621094 64.554688 104 C 64.496094 104.375 64.558594 104.730469 64.746094 105.0625 L 66.472656 108.132812 C 66.765625 108.648438 66.8125 109.1875 66.613281 109.746094 C 64.640625 115.316406 64.640625 120.882812 66.621094 126.453125 C 66.820312 127.011719 66.773438 127.550781 66.480469 128.066406 L 64.746094 131.152344 C 64.558594 131.484375 64.496094 131.839844 64.554688 132.214844 C 64.617188 132.59375 64.789062 132.910156 65.070312 133.167969 L 65.144531 133.238281 C 65.429688 133.496094 65.761719 133.640625 66.140625 133.667969 C 66.523438 133.691406 66.871094 133.597656 67.1875 133.382812 L 70.925781 130.8125 C 71.390625 130.492188 71.902344 130.390625 72.457031 130.515625 C 80.902344 132.398438 89.082031 132.570312 96.929688 130.605469 C 97.5 130.460938 98.027344 130.554688 98.511719 130.886719 L 102.136719 133.382812 C 102.453125 133.597656 102.800781 133.691406 103.179688 133.667969 C 103.5625 133.640625 103.894531 133.496094 104.175781 133.238281 L 104.253906 133.167969 C 104.535156 132.910156 104.707031 132.59375 104.765625 132.214844 C 104.828125 131.839844 104.765625 131.484375 104.578125 131.152344 Z M 102.546875 127.550781 " fill-opacity="1" fill-rule="nonzero"/><path fill="#3f4662" d="M 72.585938 125.566406 C 72.613281 123.730469 74.410156 122.242188 74.320312 120.40625 C 74.214844 118.246094 71.753906 117.179688 70.058594 115.835938 C 67.199219 113.570312 66.15625 109.289062 67.648438 105.960938 C 68.660156 103.703125 70.636719 101.992188 71.683594 99.753906 C 72.683594 97.609375 72.761719 95.152344 73.464844 92.890625 C 74.167969 90.632812 75.898438 88.351562 78.265625 88.304688 C 80.628906 88.253906 82.417969 90.417969 83.527344 92.511719 C 84.640625 94.601562 85.613281 96.992188 87.6875 98.132812 C 90.507812 99.683594 94.625 98.476562 96.746094 100.902344 C 98.738281 103.179688 97.316406 106.660156 97.246094 109.683594 C 97.171875 112.6875 98.550781 115.539062 98.832031 118.527344 C 99.277344 123.289062 96.625 128.199219 92.398438 130.4375 C 88.464844 132.515625 84.496094 131.769531 80.523438 130.347656 C 77.984375 129.4375 72.523438 129.257812 72.585938 125.566406 Z M 72.585938 125.566406 " fill-opacity="1" fill-rule="nonzero"/><path fill="#f5bea7" d="M 76.902344 125.574219 C 76.902344 125.574219 67.4375 126.105469 63.496094 127.339844 C 63.496094 127.339844 59.632812 118.386719 56.699219 115.640625 C 56.386719 115.347656 56.164062 114.996094 56.039062 114.585938 C 55.824219 113.882812 55.089844 112.71875 52.675781 112.035156 C 52.675781 112.035156 48.160156 111.121094 46.683594 109.800781 C 46.378906 109.523438 46.03125 109.445312 45.640625 109.5625 C 45.070312 109.742188 44.773438 110.390625 47.226562 112.5625 C 47.226562 112.5625 49.117188 115.589844 52.460938 115.71875 C 52.628906 115.726562 52.777344 115.78125 52.90625 115.890625 C 53.035156 116 53.117188 116.136719 53.148438 116.304688 C 53.542969 118.296875 54.90625 124.941406 56.539062 129.851562 C 57.75 133.488281 61.132812 135.960938 64.964844 135.988281 C 67.957031 136.007812 71.804688 135.550781 75.539062 133.707031 Z M 76.902344 125.574219 " fill-opacity="1" fill-rule="nonzero"/><path fill="#9fb1b4" d="M 76.714844 125.589844 C 76.714844 125.589844 73.5 137.636719 73.636719 143.207031 C 73.636719 143.207031 72.925781 148.070312 70.390625 150.675781 C 70.390625 150.675781 81.804688 157.523438 99.515625 150.503906 C 99.515625 150.503906 98.617188 131.082031 95.214844 124.390625 C 95.214844 124.390625 85.480469 123.796875 76.714844 125.589844 Z M 76.714844 125.589844 " fill-opacity="1" fill-rule="nonzero"/><path fill="#dce7e8" d="M 80.9375 125.902344 C 81.179688 126.605469 81.695312 127.175781 82.292969 127.601562 C 82.953125 128.074219 83.714844 128.414062 84.484375 128.652344 C 85.335938 128.917969 86.257812 129.03125 87.128906 128.78125 C 87.847656 128.570312 88.480469 128.152344 89.03125 127.652344 C 89.597656 127.132812 90.085938 126.53125 90.554688 125.921875 C 90.613281 125.84375 90.667969 125.765625 90.726562 125.691406 C 90.796875 125.597656 90.652344 125.5 90.585938 125.589844 C 89.71875 126.738281 88.75 127.992188 87.359375 128.519531 C 86.550781 128.824219 85.675781 128.792969 84.847656 128.574219 C 84.0625 128.371094 83.328125 128.054688 82.644531 127.625 C 81.960938 127.191406 81.363281 126.601562 81.09375 125.824219 C 81.058594 125.714844 80.902344 125.792969 80.9375 125.902344 Z M 80.9375 125.902344 " fill-opacity="1" fill-rule="nonzero"/><path fill="#f5bea7" d="M 95.214844 124.390625 C 95.214844 124.390625 104.679688 124.9375 108.617188 126.179688 C 108.617188 126.179688 112.496094 117.234375 115.433594 114.492188 C 115.75 114.199219 115.96875 113.847656 116.097656 113.433594 C 116.316406 112.734375 117.046875 111.574219 119.464844 110.890625 C 119.464844 110.890625 123.980469 109.988281 125.460938 108.667969 C 125.761719 108.390625 126.109375 108.3125 126.503906 108.433594 C 127.070312 108.613281 127.371094 109.257812 124.910156 111.429688 C 124.910156 111.429688 123.015625 114.453125 119.671875 114.578125 C 119.503906 114.582031 119.355469 114.640625 119.226562 114.75 C 119.097656 114.855469 119.015625 114.996094 118.984375 115.160156 C 118.585938 117.152344 117.210938 123.796875 115.570312 128.699219 C 114.355469 132.335938 110.96875 134.804688 107.132812 134.824219 C 104.144531 134.839844 101.34375 134.980469 97.609375 133.128906 Z M 95.214844 124.390625 " fill-opacity="1" fill-rule="nonzero"/><path fill="#e6b29c" d="M 85.03125 120.828125 C 85.03125 120.828125 84.867188 123.226562 81.441406 124.84375 C 81.441406 124.84375 86.472656 130.136719 89.617188 124.3125 C 89.617188 124.3125 88.609375 122.011719 89.507812 120.042969 Z M 85.03125 120.828125 " fill-opacity="1" fill-rule="nonzero"/><path fill="#f5bea7" d="M 81.886719 118.816406 C 81.46875 119.222656 81.5 119.933594 81.804688 120.429688 C 82.113281 120.921875 82.625 121.246094 83.128906 121.539062 C 84.226562 122.175781 85.445312 122.757812 86.707031 122.628906 C 88.394531 122.460938 89.769531 120.96875 90.109375 119.304688 C 90.449219 117.640625 89.894531 115.886719 88.925781 114.492188 C 88.363281 113.6875 87.644531 112.957031 86.742188 112.570312 C 85.765625 112.152344 84.578125 112.1875 83.695312 112.773438 C 82.703125 113.429688 82.21875 114.667969 82.203125 115.859375 C 82.191406 116.65625 82.359375 117.4375 82.589844 118.195312 C 82.65625 118.421875 82.941406 118.875 82.71875 119.050781 C 82.507812 119.21875 82.050781 118.65625 81.886719 118.816406 Z M 81.886719 118.816406 " fill-opacity="1" fill-rule="nonzero"/><path fill="#e7e6ea" d="M 112.628906 132.078125 C 96.261719 126.609375 79.425781 126.324219 62.042969 132.085938 C 61.675781 132.210938 61.339844 132.394531 61.039062 132.636719 C 60.738281 132.882812 60.488281 133.171875 60.292969 133.503906 C 60.097656 133.839844 59.964844 134.199219 59.898438 134.582031 C 59.832031 134.960938 59.835938 135.34375 59.910156 135.726562 L 66.246094 168.992188 L 108.425781 168.992188 L 114.761719 135.71875 C 114.835938 135.335938 114.839844 134.953125 114.773438 134.570312 C 114.707031 134.191406 114.574219 133.832031 114.378906 133.496094 C 114.183594 133.164062 113.933594 132.875 113.632812 132.628906 C 113.332031 132.386719 112.996094 132.203125 112.628906 132.078125 Z M 112.628906 132.078125 " fill-opacity="1" fill-rule="nonzero"/><path fill="#79710c" d="M 69.457031 142.21875 C 69.457031 142.390625 69.425781 142.554688 69.359375 142.710938 C 69.292969 142.871094 69.199219 143.007812 69.082031 143.128906 C 68.960938 143.25 68.820312 143.34375 68.664062 143.40625 C 68.507812 143.472656 68.34375 143.503906 68.171875 143.503906 C 68 143.503906 67.835938 143.472656 67.679688 143.40625 C 67.523438 143.34375 67.382812 143.25 67.261719 143.128906 C 67.144531 143.007812 67.050781 142.871094 66.984375 142.710938 C 66.917969 142.554688 66.886719 142.390625 66.886719 142.21875 C 66.886719 142.050781 66.917969 141.886719 66.984375 141.730469 C 67.050781 141.570312 67.144531 141.433594 67.261719 141.3125 C 67.382812 141.191406 67.523438 141.097656 67.679688 141.035156 C 67.835938 140.96875 68 140.9375 68.171875 140.9375 C 68.34375 140.9375 68.507812 140.96875 68.664062 141.035156 C 68.820312 141.097656 68.960938 141.191406 69.082031 141.3125 C 69.199219 141.433594 69.292969 141.570312 69.359375 141.730469 C 69.425781 141.886719 69.457031 142.050781 69.457031 142.21875 Z M 69.457031 142.21875 " fill-opacity="1" fill-rule="nonzero"/><path fill="#79710c" d="M 106.285156 134.5625 C 106.285156 134.734375 106.253906 134.898438 106.1875 135.054688 C 106.121094 135.214844 106.027344 135.351562 105.910156 135.472656 C 105.789062 135.59375 105.648438 135.6875 105.492188 135.75 C 105.335938 135.816406 105.171875 135.847656 105 135.847656 C 104.828125 135.847656 104.667969 135.816406 104.507812 135.75 C 104.351562 135.6875 104.210938 135.59375 104.09375 135.472656 C 103.972656 135.351562 103.878906 135.214844 103.8125 135.054688 C 103.75 134.898438 103.714844 134.734375 103.714844 134.5625 C 103.714844 134.394531 103.75 134.230469 103.8125 134.070312 C 103.878906 133.914062 103.972656 133.777344 104.09375 133.65625 C 104.210938 133.535156 104.351562 133.441406 104.507812 133.375 C 104.667969 133.3125 104.828125 133.277344 105 133.277344 C 105.171875 133.277344 105.335938 133.3125 105.492188 133.375 C 105.648438 133.441406 105.789062 133.535156 105.910156 133.65625 C 106.027344 133.777344 106.121094 133.914062 106.1875 134.070312 C 106.253906 134.230469 106.285156 134.394531 106.285156 134.5625 Z M 106.285156 134.5625 " fill-opacity="1" fill-rule="nonzero"/><path fill="#79710c" d="M 99.324219 148.003906 C 99.324219 148.171875 99.292969 148.335938 99.226562 148.496094 C 99.164062 148.652344 99.070312 148.792969 98.949219 148.910156 C 98.828125 149.03125 98.691406 149.125 98.53125 149.191406 C 98.375 149.253906 98.210938 149.289062 98.042969 149.289062 C 97.871094 149.289062 97.707031 149.253906 97.550781 149.191406 C 97.390625 149.125 97.253906 149.03125 97.132812 148.910156 C 97.011719 148.792969 96.917969 148.652344 96.855469 148.496094 C 96.789062 148.335938 96.757812 148.171875 96.757812 148.003906 C 96.757812 147.832031 96.789062 147.667969 96.855469 147.511719 C 96.917969 147.355469 97.011719 147.214844 97.132812 147.09375 C 97.253906 146.972656 97.390625 146.882812 97.550781 146.816406 C 97.707031 146.75 97.871094 146.71875 98.042969 146.71875 C 98.210938 146.71875 98.375 146.75 98.53125 146.816406 C 98.691406 146.882812 98.828125 146.972656 98.949219 147.09375 C 99.070312 147.214844 99.164062 147.355469 99.226562 147.511719 C 99.292969 147.667969 99.324219 147.832031 99.324219 148.003906 Z M 99.324219 148.003906 " fill-opacity="1" fill-rule="nonzero"/><path fill="#a86278" d="M 82.949219 155.683594 C 83.019531 155.84375 83.019531 156.007812 82.949219 156.171875 C 82.882812 156.335938 82.765625 156.453125 82.601562 156.519531 C 82.4375 156.589844 82.273438 156.589844 82.109375 156.519531 C 81.949219 156.453125 81.832031 156.335938 81.765625 156.171875 C 81.695312 156.007812 81.695312 155.84375 81.765625 155.683594 C 81.832031 155.519531 81.949219 155.402344 82.109375 155.332031 C 82.273438 155.265625 82.4375 155.265625 82.601562 155.332031 C 82.765625 155.402344 82.882812 155.519531 82.949219 155.683594 Z M 82.949219 155.683594 " fill-opacity="1" fill-rule="nonzero"/><path fill="#a86278" d="M 105.59375 161.625 C 105.660156 161.789062 105.660156 161.953125 105.59375 162.117188 C 105.527344 162.28125 105.410156 162.398438 105.246094 162.464844 C 105.082031 162.53125 104.917969 162.53125 104.753906 162.464844 C 104.589844 162.398438 104.476562 162.28125 104.40625 162.117188 C 104.339844 161.953125 104.339844 161.789062 104.40625 161.625 C 104.476562 161.460938 104.589844 161.34375 104.753906 161.277344 C 104.917969 161.210938 105.082031 161.210938 105.246094 161.277344 C 105.410156 161.34375 105.527344 161.460938 105.59375 161.625 Z M 105.59375 161.625 " fill-opacity="1" fill-rule="nonzero"/><path fill="#a86278" d="M 68.050781 156.097656 C 68.222656 156.140625 68.355469 156.234375 68.449219 156.386719 C 68.542969 156.535156 68.570312 156.699219 68.527344 156.871094 C 68.488281 157.042969 68.390625 157.175781 68.242188 157.269531 C 68.089844 157.363281 67.929688 157.390625 67.753906 157.347656 C 67.582031 157.308594 67.449219 157.210938 67.355469 157.0625 C 67.261719 156.910156 67.238281 156.75 67.277344 156.574219 C 67.320312 156.402344 67.414062 156.269531 67.566406 156.175781 C 67.714844 156.082031 67.878906 156.058594 68.050781 156.097656 Z M 68.050781 156.097656 " fill-opacity="1" fill-rule="nonzero"/><path fill="#a86278" d="M 90.691406 136.824219 C 90.863281 136.863281 90.996094 136.960938 91.089844 137.109375 C 91.183594 137.261719 91.210938 137.421875 91.167969 137.59375 C 91.128906 137.769531 91.035156 137.902344 90.882812 137.996094 C 90.730469 138.089844 90.570312 138.113281 90.398438 138.074219 C 90.222656 138.03125 90.089844 137.9375 90 137.785156 C 89.90625 137.636719 89.878906 137.472656 89.917969 137.300781 C 89.960938 137.128906 90.054688 136.996094 90.207031 136.902344 C 90.359375 136.808594 90.519531 136.78125 90.691406 136.824219 Z M 90.691406 136.824219 " fill-opacity="1" fill-rule="nonzero"/><path fill="#efd067" d="M 83.160156 146.609375 C 83.160156 146.761719 83.132812 146.902344 83.074219 147.042969 C 83.015625 147.179688 82.9375 147.300781 82.832031 147.40625 C 82.726562 147.511719 82.605469 147.59375 82.464844 147.648438 C 82.328125 147.707031 82.183594 147.734375 82.035156 147.734375 C 81.886719 147.734375 81.742188 147.707031 81.605469 147.648438 C 81.46875 147.59375 81.347656 147.511719 81.242188 147.40625 C 81.136719 147.300781 81.054688 147.179688 80.996094 147.042969 C 80.941406 146.902344 80.910156 146.761719 80.910156 146.609375 C 80.910156 146.460938 80.941406 146.320312 80.996094 146.179688 C 81.054688 146.042969 81.136719 145.921875 81.242188 145.816406 C 81.347656 145.710938 81.46875 145.628906 81.605469 145.570312 C 81.742188 145.515625 81.886719 145.488281 82.035156 145.488281 C 82.183594 145.488281 82.328125 145.515625 82.464844 145.570312 C 82.605469 145.628906 82.726562 145.710938 82.832031 145.816406 C 82.9375 145.921875 83.015625 146.042969 83.074219 146.179688 C 83.132812 146.320312 83.160156 146.460938 83.160156 146.609375 Z M 83.160156 146.609375 " fill-opacity="1" fill-rule="nonzero"/><path fill="#efd067" d="M 72.238281 158.660156 C 72.238281 158.808594 72.210938 158.949219 72.15625 159.089844 C 72.097656 159.226562 72.015625 159.347656 71.910156 159.453125 C 71.804688 159.558594 71.683594 159.640625 71.546875 159.695312 C 71.410156 159.753906 71.265625 159.78125 71.117188 159.78125 C 70.96875 159.78125 70.824219 159.753906 70.6875 159.695312 C 70.546875 159.640625 70.425781 159.558594 70.320312 159.453125 C 70.214844 159.347656 70.132812 159.226562 70.078125 159.089844 C 70.019531 158.949219 69.992188 158.808594 69.992188 158.660156 C 69.992188 158.507812 70.019531 158.367188 70.078125 158.226562 C 70.132812 158.089844 70.214844 157.96875 70.320312 157.863281 C 70.425781 157.757812 70.546875 157.675781 70.6875 157.621094 C 70.824219 157.5625 70.96875 157.535156 71.117188 157.535156 C 71.265625 157.535156 71.410156 157.5625 71.546875 157.621094 C 71.683594 157.675781 71.804688 157.757812 71.910156 157.863281 C 72.015625 157.96875 72.097656 158.089844 72.15625 158.226562 C 72.210938 158.367188 72.238281 158.507812 72.238281 158.660156 Z M 72.238281 158.660156 " fill-opacity="1" fill-rule="nonzero"/><path fill="#efd067" d="M 92.472656 162.351562 C 92.472656 162.503906 92.445312 162.644531 92.386719 162.78125 C 92.332031 162.921875 92.25 163.042969 92.144531 163.148438 C 92.039062 163.253906 91.917969 163.335938 91.78125 163.390625 C 91.640625 163.449219 91.5 163.476562 91.351562 163.476562 C 91.199219 163.476562 91.058594 163.449219 90.917969 163.390625 C 90.78125 163.335938 90.660156 163.253906 90.554688 163.148438 C 90.449219 163.042969 90.367188 162.921875 90.3125 162.78125 C 90.253906 162.644531 90.226562 162.503906 90.226562 162.351562 C 90.226562 162.203125 90.253906 162.058594 90.3125 161.921875 C 90.367188 161.785156 90.449219 161.664062 90.554688 161.558594 C 90.660156 161.453125 90.78125 161.371094 90.917969 161.3125 C 91.058594 161.257812 91.199219 161.230469 91.351562 161.230469 C 91.5 161.230469 91.640625 161.257812 91.78125 161.3125 C 91.917969 161.371094 92.039062 161.453125 92.144531 161.558594 C 92.25 161.664062 92.332031 161.785156 92.386719 161.921875 C 92.445312 162.058594 92.472656 162.203125 92.472656 162.351562 Z M 92.472656 162.351562 " fill-opacity="1" fill-rule="nonzero"/><path fill="#ffffff" d="M 76.09375 135.847656 C 76.09375 136.070312 76.015625 136.261719 75.859375 136.417969 C 75.703125 136.574219 75.511719 136.652344 75.292969 136.652344 C 75.070312 136.652344 74.878906 136.574219 74.722656 136.417969 C 74.566406 136.261719 74.488281 136.070312 74.488281 135.847656 C 74.488281 135.628906 74.566406 135.4375 74.722656 135.28125 C 74.878906 135.125 75.070312 135.046875 75.292969 135.046875 C 75.511719 135.046875 75.703125 135.125 75.859375 135.28125 C 76.015625 135.4375 76.09375 135.628906 76.09375 135.847656 Z M 76.09375 135.847656 " fill-opacity="1" fill-rule="nonzero"/><path fill="#ffffff" d="M 74.191406 165.257812 C 74.40625 165.308594 74.570312 165.429688 74.6875 165.617188 C 74.804688 165.804688 74.835938 166.007812 74.785156 166.222656 C 74.734375 166.441406 74.617188 166.605469 74.425781 166.722656 C 74.238281 166.839844 74.035156 166.871094 73.820312 166.820312 C 73.605469 166.769531 73.4375 166.648438 73.320312 166.460938 C 73.207031 166.273438 73.171875 166.070312 73.222656 165.855469 C 73.273438 165.640625 73.394531 165.472656 73.582031 165.355469 C 73.773438 165.238281 73.972656 165.207031 74.191406 165.257812 Z M 74.191406 165.257812 " fill-opacity="1" fill-rule="nonzero"/><path fill="#ffffff" d="M 90.519531 152.734375 C 90.738281 152.769531 90.910156 152.875 91.039062 153.054688 C 91.171875 153.234375 91.21875 153.433594 91.183594 153.65625 C 91.144531 153.875 91.039062 154.046875 90.859375 154.175781 C 90.679688 154.308594 90.480469 154.355469 90.261719 154.320312 C 90.042969 154.28125 89.867188 154.175781 89.738281 153.996094 C 89.609375 153.816406 89.5625 153.617188 89.597656 153.398438 C 89.632812 153.179688 89.738281 153.003906 89.917969 152.875 C 90.101562 152.746094 90.300781 152.699219 90.519531 152.734375 Z M 90.519531 152.734375 " fill-opacity="1" fill-rule="nonzero"/><path fill="#ffffff" d="M 107.089844 142.917969 C 107.089844 143.136719 107.007812 143.328125 106.851562 143.484375 C 106.695312 143.640625 106.507812 143.71875 106.285156 143.71875 C 106.0625 143.71875 105.875 143.640625 105.71875 143.484375 C 105.558594 143.328125 105.480469 143.136719 105.480469 142.917969 C 105.480469 142.695312 105.558594 142.503906 105.71875 142.347656 C 105.875 142.191406 106.0625 142.113281 106.285156 142.113281 C 106.507812 142.113281 106.695312 142.191406 106.851562 142.347656 C 107.007812 142.503906 107.089844 142.695312 107.089844 142.917969 Z M 107.089844 142.917969 " fill-opacity="1" fill-rule="nonzero"/><path fill="#e6e4e8" d="M 92.539062 68.222656 L 90.753906 71.972656 L 91.894531 72.324219 Z M 92.539062 68.222656 " fill-opacity="1" fill-rule="nonzero"/><path fill="#e6e4e8" d="M 93.863281 76.386719 L 103.960938 79.800781 L 106.5625 78.648438 L 103.773438 80.648438 L 92.769531 77.933594 Z M 93.863281 76.386719 " fill-opacity="1" fill-rule="nonzero"/><path fill="#e6e4e8" d="M 99.175781 79.296875 L 99.816406 79.496094 L 99.617188 80.136719 L 98.976562 79.9375 Z M 99.175781 79.296875 " fill-opacity="1" fill-rule="nonzero"/><path fill="#e6e4e8" d="M 100.054688 80.59375 C 100.074219 80.722656 100.070312 80.851562 100.039062 80.976562 C 100.007812 81.105469 99.953125 81.222656 99.878906 81.328125 C 99.800781 81.433594 99.707031 81.519531 99.59375 81.589844 C 99.484375 81.65625 99.363281 81.703125 99.234375 81.722656 C 99.105469 81.742188 98.976562 81.738281 98.847656 81.707031 C 98.722656 81.675781 98.605469 81.621094 98.5 81.546875 C 98.394531 81.46875 98.308594 81.375 98.238281 81.261719 C 98.171875 81.152344 98.125 81.03125 98.105469 80.902344 C 98.085938 80.773438 98.089844 80.644531 98.121094 80.515625 C 98.152344 80.390625 98.203125 80.273438 98.28125 80.167969 C 98.359375 80.0625 98.453125 79.976562 98.5625 79.90625 C 98.675781 79.839844 98.796875 79.792969 98.925781 79.773438 C 99.054688 79.753906 99.183594 79.757812 99.308594 79.789062 C 99.4375 79.820312 99.554688 79.871094 99.660156 79.949219 C 99.765625 80.027344 99.851562 80.121094 99.921875 80.230469 C 99.988281 80.34375 100.03125 80.464844 100.054688 80.59375 Z M 100.054688 80.59375 " fill-opacity="1" fill-rule="nonzero"/><path fill="#2a2c39" d="M 99.09375 80.039062 C 99.289062 80.042969 99.453125 80.121094 99.585938 80.261719 C 99.722656 80.40625 99.785156 80.574219 99.78125 80.769531 C 99.773438 80.964844 99.699219 81.132812 99.558594 81.265625 C 99.414062 81.398438 99.246094 81.464844 99.050781 81.457031 C 98.855469 81.453125 98.6875 81.378906 98.554688 81.234375 C 98.417969 81.09375 98.355469 80.921875 98.359375 80.726562 C 98.367188 80.53125 98.441406 80.367188 98.582031 80.230469 C 98.726562 80.097656 98.894531 80.035156 99.09375 80.039062 Z M 99.09375 80.039062 " fill-opacity="1" fill-rule="nonzero"/><path fill="#e6e4e8" d="M 86.835938 74.210938 L 76.574219 71.328125 L 75.074219 68.90625 L 76.25 72.132812 L 86.867188 76.105469 Z M 86.835938 74.210938 " fill-opacity="1" fill-rule="nonzero"/><path fill="#e6e4e8" d="M 80.597656 73.535156 L 79.953125 73.335938 L 80.15625 72.691406 L 80.800781 72.894531 Z M 80.597656 73.535156 " fill-opacity="1" fill-rule="nonzero"/><path fill="#e6e4e8" d="M 81.054688 74.871094 C 81.054688 75.003906 81.03125 75.128906 80.980469 75.25 C 80.929688 75.371094 80.859375 75.476562 80.765625 75.570312 C 80.671875 75.660156 80.566406 75.734375 80.445312 75.785156 C 80.324219 75.832031 80.199219 75.859375 80.070312 75.859375 C 79.9375 75.859375 79.8125 75.832031 79.691406 75.785156 C 79.570312 75.734375 79.464844 75.660156 79.371094 75.570312 C 79.277344 75.476562 79.207031 75.371094 79.15625 75.25 C 79.105469 75.128906 79.082031 75.003906 79.082031 74.871094 C 79.082031 74.742188 79.105469 74.617188 79.15625 74.496094 C 79.207031 74.375 79.277344 74.265625 79.371094 74.175781 C 79.464844 74.082031 79.570312 74.011719 79.691406 73.960938 C 79.8125 73.910156 79.9375 73.886719 80.070312 73.886719 C 80.199219 73.886719 80.324219 73.910156 80.445312 73.960938 C 80.566406 74.011719 80.671875 74.082031 80.765625 74.175781 C 80.859375 74.265625 80.929688 74.375 80.980469 74.496094 C 81.03125 74.617188 81.054688 74.742188 81.054688 74.871094 Z M 81.054688 74.871094 " fill-opacity="1" fill-rule="nonzero"/><path fill="#2a2c39" d="M 80.695312 74.542969 C 80.789062 74.714844 80.804688 74.894531 80.746094 75.082031 C 80.6875 75.269531 80.574219 75.410156 80.398438 75.5 C 80.226562 75.59375 80.046875 75.609375 79.859375 75.550781 C 79.671875 75.492188 79.53125 75.378906 79.441406 75.203125 C 79.347656 75.03125 79.332031 74.851562 79.390625 74.664062 C 79.449219 74.476562 79.5625 74.335938 79.738281 74.246094 C 79.910156 74.152344 80.089844 74.136719 80.277344 74.195312 C 80.464844 74.253906 80.605469 74.367188 80.695312 74.542969 Z M 80.695312 74.542969 " fill-opacity="1" fill-rule="nonzero"/><path fill="#fdfbff" d="M 88.929688 72.03125 L 86.886719 73.597656 C 85.976562 74.296875 85.753906 75.464844 86.34375 76.503906 C 88.039062 79.507812 90.300781 80.136719 93.089844 78.570312 C 94.066406 78.019531 94.480469 76.976562 94.136719 75.9375 L 93.300781 73.386719 C 92.753906 71.714844 90.324219 70.964844 88.929688 72.03125 Z M 88.929688 72.03125 " fill-opacity="1" fill-rule="nonzero"/><path fill="#e7d3c3" d="M 93.382812 75.433594 L 93.113281 76.300781 C 93.105469 76.324219 93.089844 76.339844 93.0625 76.339844 C 92.714844 76.355469 92.367188 76.351562 92.015625 76.328125 C 91.984375 76.324219 91.953125 76.324219 91.921875 76.320312 C 91.539062 76.289062 91.15625 76.230469 90.78125 76.148438 L 90.691406 76.128906 C 90.320312 76.039062 89.957031 75.925781 89.601562 75.789062 C 89.570312 75.777344 89.542969 75.765625 89.515625 75.753906 C 89.15625 75.609375 88.808594 75.441406 88.472656 75.25 L 88.394531 75.203125 C 88.089844 75.027344 87.800781 74.832031 87.523438 74.625 C 87.5 74.609375 87.496094 74.585938 87.503906 74.5625 L 87.769531 73.699219 C 87.785156 73.644531 87.816406 73.636719 87.859375 73.671875 C 88.125 73.878906 88.402344 74.070312 88.6875 74.246094 L 88.769531 74.292969 C 89.101562 74.492188 89.449219 74.660156 89.808594 74.808594 C 89.835938 74.820312 89.863281 74.832031 89.894531 74.84375 C 90.25 74.980469 90.613281 75.09375 90.984375 75.179688 L 91.074219 75.199219 C 91.453125 75.28125 91.835938 75.332031 92.222656 75.359375 C 92.253906 75.359375 92.285156 75.363281 92.316406 75.363281 C 92.652344 75.382812 92.988281 75.382812 93.324219 75.363281 C 93.378906 75.359375 93.394531 75.386719 93.382812 75.433594 Z M 93.382812 75.433594 " fill-opacity="1" fill-rule="nonzero"/><path fill="#c2b1a4" d="M 88.472656 75.25 L 88.769531 74.292969 L 88.6875 74.246094 L 88.394531 75.203125 Z M 88.472656 75.25 " fill-opacity="1" fill-rule="nonzero"/><path fill="#c2b1a4" d="M 89.601562 75.789062 L 89.894531 74.84375 C 89.863281 74.832031 89.835938 74.820312 89.808594 74.804688 L 89.515625 75.753906 Z M 89.601562 75.789062 " fill-opacity="1" fill-rule="nonzero"/><path fill="#c2b1a4" d="M 90.78125 76.148438 L 91.074219 75.199219 L 90.984375 75.175781 L 90.691406 76.128906 Z M 90.78125 76.148438 " fill-opacity="1" fill-rule="nonzero"/><path fill="#c2b1a4" d="M 92.015625 76.328125 L 92.316406 75.363281 C 92.285156 75.359375 92.253906 75.359375 92.222656 75.355469 L 91.921875 76.320312 Z M 92.015625 76.328125 " fill-opacity="1" fill-rule="nonzero"/><path fill="#e1dfe3" d="M 87.703125 76.472656 L 88.851562 78.566406 C 88.851562 78.566406 88.828125 77.417969 87.703125 76.472656 Z M 87.703125 76.472656 " fill-opacity="1" fill-rule="nonzero"/><path fill="#e1dfe3" d="M 91.871094 77.761719 L 89.742188 78.84375 C 89.742188 78.84375 90.410156 77.910156 91.871094 77.761719 Z M 91.871094 77.761719 " fill-opacity="1" fill-rule="nonzero"/><path fill="#fffdff" d="M 37.683594 97.964844 L 37.777344 97.867188 C 37.984375 97.660156 38.21875 97.496094 38.488281 97.382812 C 38.757812 97.269531 39.039062 97.210938 39.328125 97.210938 C 39.621094 97.207031 39.902344 97.261719 40.171875 97.371094 C 40.441406 97.480469 40.679688 97.636719 40.886719 97.839844 L 45.832031 102.710938 C 46.042969 102.914062 46.203125 103.152344 46.316406 103.421875 C 46.429688 103.691406 46.488281 103.96875 46.488281 104.261719 C 46.492188 104.554688 46.4375 104.832031 46.328125 105.105469 C 46.21875 105.375 46.0625 105.613281 45.859375 105.820312 L 45.761719 105.917969 C 45.558594 106.128906 45.320312 106.289062 45.050781 106.402344 C 44.785156 106.515625 44.503906 106.574219 44.210938 106.574219 C 43.921875 106.578125 43.640625 106.523438 43.371094 106.414062 C 43.097656 106.304688 42.859375 106.148438 42.652344 105.945312 L 37.707031 101.074219 C 37.5 100.871094 37.339844 100.632812 37.226562 100.363281 C 37.109375 100.097656 37.054688 99.816406 37.050781 99.523438 C 37.046875 99.234375 37.101562 98.953125 37.210938 98.679688 C 37.320312 98.410156 37.476562 98.171875 37.683594 97.964844 Z M 37.683594 97.964844 " fill-opacity="1" fill-rule="nonzero"/><path fill="#b56d81" d="M 43.382812 100.308594 L 40.199219 103.539062 L 37.703125 101.082031 C 37.496094 100.875 37.335938 100.640625 37.222656 100.371094 C 37.109375 100.101562 37.050781 99.824219 37.046875 99.53125 C 37.046875 99.238281 37.097656 98.957031 37.207031 98.6875 C 37.316406 98.417969 37.476562 98.179688 37.679688 97.972656 L 37.777344 97.875 C 37.980469 97.664062 38.21875 97.503906 38.484375 97.390625 C 38.753906 97.277344 39.035156 97.21875 39.324219 97.21875 C 39.617188 97.214844 39.898438 97.269531 40.167969 97.378906 C 40.4375 97.488281 40.675781 97.644531 40.886719 97.847656 Z M 43.382812 100.308594 " fill-opacity="1" fill-rule="nonzero"/><path fill="#fffdff" d="M 43.203125 94.742188 L 43.183594 94.644531 C 43.144531 94.441406 43.144531 94.234375 43.183594 94.027344 C 43.226562 93.824219 43.304688 93.632812 43.417969 93.460938 C 43.535156 93.285156 43.679688 93.140625 43.855469 93.023438 C 44.027344 92.90625 44.21875 92.828125 44.421875 92.785156 L 49.3125 91.808594 C 49.519531 91.769531 49.722656 91.769531 49.929688 91.808594 C 50.132812 91.847656 50.324219 91.929688 50.5 92.042969 C 50.671875 92.160156 50.816406 92.304688 50.933594 92.480469 C 51.050781 92.652344 51.128906 92.84375 51.171875 93.050781 L 51.191406 93.144531 C 51.230469 93.351562 51.230469 93.558594 51.191406 93.761719 C 51.148438 93.96875 51.070312 94.15625 50.953125 94.332031 C 50.839844 94.507812 50.695312 94.652344 50.519531 94.769531 C 50.34375 94.886719 50.15625 94.964844 49.949219 95.003906 L 45.0625 95.980469 C 44.855469 96.023438 44.652344 96.023438 44.445312 95.984375 C 44.238281 95.941406 44.050781 95.863281 43.875 95.746094 C 43.703125 95.632812 43.554688 95.484375 43.441406 95.3125 C 43.324219 95.136719 43.246094 94.949219 43.203125 94.742188 Z M 43.203125 94.742188 " fill-opacity="1" fill-rule="nonzero"/><path fill="#f4a933" d="M 47.484375 95.5 L 46.84375 92.300781 L 49.3125 91.808594 C 49.519531 91.769531 49.722656 91.769531 49.929688 91.808594 C 50.132812 91.847656 50.324219 91.929688 50.5 92.042969 C 50.671875 92.160156 50.820312 92.304688 50.933594 92.480469 C 51.050781 92.652344 51.128906 92.84375 51.171875 93.050781 L 51.191406 93.144531 C 51.230469 93.351562 51.230469 93.558594 51.191406 93.761719 C 51.148438 93.96875 51.070312 94.15625 50.957031 94.332031 C 50.839844 94.507812 50.695312 94.652344 50.519531 94.769531 C 50.347656 94.886719 50.15625 94.964844 49.949219 95.003906 Z M 47.484375 95.5 " fill-opacity="1" fill-rule="nonzero"/><path fill="#cc7972" d="M 136.566406 102.605469 L 137.738281 102.171875 C 137.851562 102.128906 137.957031 102.140625 138.0625 102.203125 C 138.164062 102.269531 138.222656 102.363281 138.234375 102.480469 C 138.257812 102.617188 138.207031 102.722656 138.09375 102.796875 C 138.09375 102.796875 138.558594 103.191406 138.054688 103.382812 C 138.054688 103.382812 138.609375 103.851562 138.152344 103.894531 C 138.039062 103.90625 137.925781 103.890625 137.816406 103.84375 L 136.6875 103.382812 Z M 136.566406 102.605469 " fill-opacity="1" fill-rule="nonzero"/><path fill="#ee8d85" d="M 134.640625 105.847656 L 121.808594 105.847656 C 121.734375 105.835938 121.660156 105.820312 121.585938 105.796875 C 121.371094 105.738281 121.171875 105.640625 120.988281 105.511719 L 122.851562 100.648438 L 134.675781 100.648438 C 135.117188 100.648438 135.519531 100.773438 135.882812 101.023438 C 136.246094 101.269531 136.507812 101.597656 136.667969 102.011719 C 136.996094 102.859375 136.960938 103.707031 136.605469 104.550781 C 136.4375 104.945312 136.175781 105.261719 135.820312 105.496094 C 135.460938 105.734375 135.070312 105.847656 134.640625 105.847656 Z M 134.640625 105.847656 " fill-opacity="1" fill-rule="nonzero"/><path fill="#ffb3ad" d="M 124.539062 103.84375 C 124.230469 104.933594 123.390625 105.699219 122.464844 105.851562 C 122.246094 105.886719 122.027344 105.886719 121.808594 105.851562 C 121.734375 105.835938 121.660156 105.820312 121.585938 105.800781 C 121.371094 105.738281 121.171875 105.644531 120.988281 105.515625 C 120.160156 104.9375 119.773438 103.753906 120.109375 102.578125 C 120.515625 101.148438 121.839844 100.273438 123.0625 100.625 C 123.09375 100.632812 123.125 100.640625 123.15625 100.652344 C 124.320312 101.042969 124.9375 102.449219 124.539062 103.84375 Z M 124.539062 103.84375 " fill-opacity="1" fill-rule="nonzero"/><path fill="#fff6f5" d="M 121.472656 101.898438 C 121.441406 102 121.359375 102.066406 121.289062 102.046875 C 121.214844 102.027344 121.179688 101.925781 121.210938 101.824219 C 121.242188 101.722656 121.320312 101.65625 121.394531 101.675781 C 121.464844 101.695312 121.5 101.792969 121.472656 101.898438 Z M 121.472656 101.898438 " fill-opacity="1" fill-rule="nonzero"/><path fill="#fff6f5" d="M 123.054688 102.835938 C 123.027344 102.9375 122.945312 103.003906 122.871094 102.984375 C 122.800781 102.964844 122.765625 102.863281 122.796875 102.761719 C 122.828125 102.65625 122.90625 102.589844 122.980469 102.609375 C 123.050781 102.632812 123.085938 102.730469 123.054688 102.835938 Z M 123.054688 102.835938 " fill-opacity="1" fill-rule="nonzero"/><path fill="#fff6f5" d="M 121.03125 104.710938 C 121 104.816406 120.917969 104.882812 120.847656 104.863281 C 120.773438 104.839844 120.738281 104.742188 120.769531 104.636719 C 120.800781 104.535156 120.882812 104.46875 120.953125 104.488281 C 121.023438 104.511719 121.058594 104.609375 121.03125 104.710938 Z M 121.03125 104.710938 " fill-opacity="1" fill-rule="nonzero"/><path fill="#fff6f5" d="M 122.222656 105.054688 C 122.191406 105.15625 122.109375 105.222656 122.039062 105.203125 C 121.964844 105.183594 121.929688 105.082031 121.960938 104.980469 C 121.992188 104.875 122.074219 104.808594 122.144531 104.828125 C 122.21875 104.851562 122.25 104.949219 122.222656 105.054688 Z M 122.222656 105.054688 " fill-opacity="1" fill-rule="nonzero"/><path fill="#fff6f5" d="M 123.828125 102.25 C 123.796875 102.351562 123.714844 102.417969 123.644531 102.398438 C 123.570312 102.378906 123.535156 102.277344 123.566406 102.175781 C 123.597656 102.070312 123.679688 102.003906 123.75 102.027344 C 123.820312 102.046875 123.855469 102.144531 123.828125 102.25 Z M 123.828125 102.25 " fill-opacity="1" fill-rule="nonzero"/><path fill="#fff6f5" d="M 122.523438 101.3125 C 122.496094 101.414062 122.414062 101.484375 122.339844 101.460938 C 122.269531 101.441406 122.234375 101.339844 122.261719 101.238281 C 122.292969 101.136719 122.375 101.070312 122.445312 101.089844 C 122.519531 101.109375 122.554688 101.210938 122.523438 101.3125 Z M 122.523438 101.3125 " fill-opacity="1" fill-rule="nonzero"/><path fill="#fff6f5" d="M 123.308594 104.636719 C 123.277344 104.742188 123.195312 104.808594 123.125 104.785156 C 123.050781 104.765625 123.015625 104.667969 123.046875 104.5625 C 123.078125 104.460938 123.15625 104.394531 123.230469 104.414062 C 123.300781 104.433594 123.335938 104.535156 123.308594 104.636719 Z M 123.308594 104.636719 " fill-opacity="1" fill-rule="nonzero"/><path fill="#fff6f5" d="M 122.035156 103.589844 C 122.007812 103.691406 121.921875 103.757812 121.851562 103.738281 C 121.78125 103.71875 121.742188 103.617188 121.773438 103.515625 C 121.804688 103.414062 121.886719 103.347656 121.957031 103.367188 C 122.03125 103.386719 122.066406 103.488281 122.035156 103.589844 Z M 122.035156 103.589844 " fill-opacity="1" fill-rule="nonzero"/><path fill="#fff6f5" d="M 120.960938 103.402344 C 120.933594 103.507812 120.851562 103.574219 120.777344 103.554688 C 120.707031 103.53125 120.667969 103.433594 120.699219 103.328125 C 120.730469 103.226562 120.8125 103.160156 120.882812 103.179688 C 120.957031 103.203125 120.988281 103.300781 120.960938 103.402344 Z M 120.960938 103.402344 " fill-opacity="1" fill-rule="nonzero"/><path fill="#fefffd" d="M 54.113281 82.265625 C 54.335938 83.324219 55.246094 84.027344 56.144531 83.839844 C 57.039062 83.648438 57.589844 82.636719 57.363281 81.578125 C 57.140625 80.519531 56.230469 79.816406 55.335938 80.003906 C 54.4375 80.191406 53.890625 81.207031 54.113281 82.265625 Z M 54.542969 82.292969 C 54.359375 81.429688 54.835938 80.59375 55.605469 80.433594 C 56.375 80.269531 57.148438 80.839844 57.332031 81.707031 C 57.515625 82.574219 57.039062 83.40625 56.269531 83.570312 C 55.5 83.730469 54.726562 83.160156 54.542969 82.292969 Z M 54.542969 82.292969 " fill-opacity="1" fill-rule="nonzero"/><path fill="#fefffd" d="M 55.699219 79.410156 L 57.089844 83.773438 C 57.179688 84.050781 57.339844 84.277344 57.578125 84.449219 C 57.8125 84.625 58.078125 84.710938 58.371094 84.710938 L 60.984375 84.722656 C 61.277344 84.726562 61.539062 84.640625 61.777344 84.46875 C 62.015625 84.296875 62.179688 84.074219 62.273438 83.796875 L 63.703125 79.445312 C 63.746094 79.316406 63.726562 79.199219 63.648438 79.09375 C 63.570312 78.984375 63.464844 78.929688 63.332031 78.929688 L 56.074219 78.898438 C 55.941406 78.898438 55.835938 78.949219 55.753906 79.058594 C 55.675781 79.164062 55.65625 79.28125 55.699219 79.410156 Z M 55.699219 79.410156 " fill-opacity="1" fill-rule="nonzero"/><path fill="#b6b8c2" d="M 60.351562 77.363281 C 60.351562 77.363281 64.566406 76.121094 63.726562 73.144531 C 63.503906 72.367188 63.0625 71.75 62.402344 71.285156 C 60.992188 70.277344 57.511719 67.347656 60.039062 64.441406 C 60.039062 64.441406 56.757812 65.164062 55.847656 67.847656 C 55.246094 69.617188 55.953125 71.5625 57.515625 72.585938 C 59.03125 73.582031 61.144531 75.390625 60.351562 77.363281 Z M 60.351562 77.363281 " fill-opacity="0.31" fill-rule="nonzero"/><path fill="#d6c4a4" d="M 78.695312 31 C 79.101562 31.40625 79.460938 31.84375 79.78125 32.320312 C 80.097656 32.796875 80.367188 33.300781 80.585938 33.828125 C 80.804688 34.355469 80.96875 34.902344 81.082031 35.464844 C 81.191406 36.023438 81.25 36.59375 81.25 37.164062 C 81.25 37.738281 81.191406 38.304688 81.082031 38.867188 C 80.96875 39.425781 80.804688 39.972656 80.585938 40.5 C 80.367188 41.03125 80.097656 41.53125 79.78125 42.007812 C 79.460938 42.484375 79.101562 42.925781 78.695312 43.328125 C 78.289062 43.734375 77.851562 44.09375 77.375 44.414062 C 76.898438 44.730469 76.394531 45 75.867188 45.21875 C 75.339844 45.4375 74.792969 45.605469 74.234375 45.714844 C 73.671875 45.828125 73.105469 45.882812 72.53125 45.882812 C 71.960938 45.882812 71.394531 45.828125 70.832031 45.714844 C 70.269531 45.605469 69.726562 45.4375 69.195312 45.21875 C 68.667969 45 68.164062 44.730469 67.691406 44.414062 C 67.214844 44.09375 66.773438 43.734375 66.367188 43.328125 C 65.964844 42.925781 65.601562 42.484375 65.285156 42.007812 C 64.96875 41.53125 64.699219 41.03125 64.480469 40.5 C 64.261719 39.972656 64.09375 39.425781 63.984375 38.867188 C 63.871094 38.304688 63.816406 37.738281 63.816406 37.164062 C 63.816406 36.59375 63.871094 36.023438 63.984375 35.464844 C 64.09375 34.902344 64.261719 34.355469 64.480469 33.828125 C 64.699219 33.300781 64.96875 32.796875 65.285156 32.320312 C 65.601562 31.84375 65.964844 31.40625 66.367188 31 C 66.773438 30.59375 67.214844 30.234375 67.691406 29.914062 C 68.164062 29.597656 68.667969 29.328125 69.195312 29.109375 C 69.726562 28.890625 70.269531 28.726562 70.832031 28.613281 C 71.394531 28.5 71.960938 28.445312 72.53125 28.445312 C 73.105469 28.445312 73.671875 28.5 74.234375 28.613281 C 74.792969 28.726562 75.339844 28.890625 75.867188 29.109375 C 76.394531 29.328125 76.898438 29.597656 77.375 29.914062 C 77.851562 30.234375 78.289062 30.59375 78.695312 31 Z M 78.695312 31 " fill-opacity="1" fill-rule="nonzero"/><path fill="#efddbf" d="M 77.683594 32.011719 C 78.019531 32.351562 78.324219 32.71875 78.589844 33.117188 C 78.855469 33.515625 79.078125 33.933594 79.261719 34.375 C 79.445312 34.820312 79.582031 35.273438 79.675781 35.742188 C 79.769531 36.210938 79.816406 36.6875 79.816406 37.164062 C 79.816406 37.644531 79.769531 38.117188 79.675781 38.585938 C 79.582031 39.054688 79.445312 39.511719 79.261719 39.953125 C 79.078125 40.394531 78.855469 40.8125 78.589844 41.210938 C 78.324219 41.609375 78.019531 41.976562 77.683594 42.316406 C 77.34375 42.652344 76.976562 42.957031 76.578125 43.222656 C 76.179688 43.488281 75.761719 43.710938 75.320312 43.894531 C 74.878906 44.078125 74.421875 44.214844 73.953125 44.308594 C 73.484375 44.402344 73.011719 44.449219 72.53125 44.449219 C 72.054688 44.449219 71.582031 44.402344 71.109375 44.308594 C 70.640625 44.214844 70.1875 44.078125 69.746094 43.894531 C 69.304688 43.710938 68.882812 43.488281 68.484375 43.222656 C 68.089844 42.957031 67.71875 42.652344 67.382812 42.316406 C 67.042969 41.976562 66.742188 41.609375 66.476562 41.210938 C 66.210938 40.8125 65.984375 40.394531 65.804688 39.953125 C 65.621094 39.511719 65.480469 39.054688 65.386719 38.585938 C 65.296875 38.117188 65.25 37.644531 65.25 37.164062 C 65.25 36.6875 65.296875 36.210938 65.386719 35.742188 C 65.480469 35.273438 65.621094 34.820312 65.804688 34.375 C 65.984375 33.933594 66.210938 33.515625 66.476562 33.117188 C 66.742188 32.71875 67.042969 32.351562 67.382812 32.011719 C 67.71875 31.675781 68.089844 31.371094 68.484375 31.105469 C 68.882812 30.839844 69.304688 30.617188 69.746094 30.433594 C 70.1875 30.25 70.640625 30.113281 71.109375 30.019531 C 71.582031 29.925781 72.054688 29.878906 72.53125 29.878906 C 73.011719 29.878906 73.484375 29.925781 73.953125 30.019531 C 74.421875 30.113281 74.878906 30.25 75.320312 30.433594 C 75.761719 30.617188 76.179688 30.839844 76.578125 31.105469 C 76.976562 31.371094 77.34375 31.675781 77.683594 32.011719 Z M 77.683594 32.011719 " fill-opacity="1" fill-rule="nonzero"/><path fill="#525054" d="M 72.402344 30.386719 L 72.660156 30.386719 C 72.734375 30.386719 72.769531 30.425781 72.769531 30.496094 L 72.769531 31.472656 C 72.769531 31.542969 72.734375 31.582031 72.660156 31.582031 L 72.402344 31.582031 C 72.332031 31.582031 72.292969 31.542969 72.292969 31.472656 L 72.292969 30.496094 C 72.292969 30.425781 72.332031 30.386719 72.402344 30.386719 Z M 72.402344 30.386719 " fill-opacity="1" fill-rule="nonzero"/><path fill="#525054" d="M 72.402344 42.746094 L 72.660156 42.746094 C 72.734375 42.746094 72.769531 42.785156 72.769531 42.859375 L 72.769531 43.832031 C 72.769531 43.90625 72.734375 43.941406 72.660156 43.941406 L 72.402344 43.941406 C 72.332031 43.941406 72.292969 43.90625 72.292969 43.832031 L 72.292969 42.859375 C 72.292969 42.785156 72.332031 42.746094 72.402344 42.746094 Z M 72.402344 42.746094 " fill-opacity="1" fill-rule="nonzero"/><path fill="#525054" d="M 78.222656 36.925781 L 79.199219 36.925781 C 79.269531 36.925781 79.308594 36.960938 79.308594 37.035156 L 79.308594 37.292969 C 79.308594 37.367188 79.269531 37.402344 79.199219 37.402344 L 78.222656 37.402344 C 78.152344 37.402344 78.113281 37.367188 78.113281 37.292969 L 78.113281 37.035156 C 78.113281 36.960938 78.152344 36.925781 78.222656 36.925781 Z M 78.222656 36.925781 " fill-opacity="1" fill-rule="nonzero"/><path fill="#525054" d="M 65.867188 36.925781 L 66.839844 36.925781 C 66.914062 36.925781 66.949219 36.960938 66.949219 37.035156 L 66.949219 37.292969 C 66.949219 37.367188 66.914062 37.402344 66.839844 37.402344 L 65.867188 37.402344 C 65.792969 37.402344 65.757812 37.367188 65.757812 37.292969 L 65.757812 37.035156 C 65.757812 36.960938 65.792969 36.925781 65.867188 36.925781 Z M 65.867188 36.925781 " fill-opacity="1" fill-rule="nonzero"/><path fill="#f6f8ee" d="M 72.609375 37.042969 L 72.609375 37.601562 L 67.855469 37.601562 C 67.722656 37.601562 67.609375 37.558594 67.515625 37.46875 C 67.398438 37.359375 67.398438 37.253906 67.527344 37.148438 C 67.621094 37.078125 67.722656 37.042969 67.839844 37.042969 Z M 72.609375 37.042969 " fill-opacity="1" fill-rule="nonzero"/><path fill="#f6f8ee" d="M 72.824219 37.550781 L 72.429688 37.15625 L 76.1875 33.363281 C 76.28125 33.269531 76.390625 33.21875 76.523438 33.214844 C 76.679688 33.207031 76.757812 33.28125 76.738281 33.449219 C 76.726562 33.5625 76.679688 33.664062 76.59375 33.742188 Z M 72.824219 37.550781 " fill-opacity="1" fill-rule="nonzero"/><path fill="#f6f8ee" d="M 72.664062 36.6875 C 72.839844 36.726562 72.972656 36.824219 73.066406 36.976562 C 73.164062 37.128906 73.1875 37.292969 73.148438 37.46875 C 73.105469 37.644531 73.007812 37.78125 72.855469 37.875 C 72.703125 37.96875 72.539062 37.996094 72.363281 37.953125 C 72.191406 37.914062 72.054688 37.816406 71.960938 37.664062 C 71.867188 37.507812 71.839844 37.34375 71.878906 37.171875 C 71.921875 36.996094 72.019531 36.859375 72.171875 36.765625 C 72.324219 36.671875 72.488281 36.644531 72.664062 36.6875 Z M 72.664062 36.6875 " fill-opacity="1" fill-rule="nonzero"/><path fill="#292f4d" d="M 104.628906 40.660156 L 97.429688 36.472656 C 97.042969 36.25 96.527344 36.421875 96.273438 36.855469 L 87.890625 51.277344 C 87.640625 51.710938 87.746094 52.246094 88.132812 52.472656 L 95.332031 56.65625 C 95.71875 56.882812 96.238281 56.710938 96.488281 56.277344 L 104.871094 41.855469 C 105.125 41.417969 105.015625 40.882812 104.628906 40.660156 Z M 104.628906 40.660156 " fill-opacity="1" fill-rule="nonzero"/><path fill="#a7c4cc" d="M 104.074219 41.078125 L 97.34375 37.167969 C 97.117188 37.035156 96.8125 37.136719 96.667969 37.390625 L 88.824219 50.886719 C 88.675781 51.140625 88.738281 51.453125 88.964844 51.585938 L 95.691406 55.5 C 95.917969 55.628906 96.222656 55.53125 96.367188 55.273438 L 104.210938 41.777344 C 104.359375 41.523438 104.296875 41.210938 104.074219 41.078125 Z M 104.074219 41.078125 " fill-opacity="1" fill-rule="nonzero"/><path fill="#778b91" d="M 95.8125 47.691406 C 95.925781 47.78125 95.992188 47.898438 96.007812 48.042969 C 96.023438 48.1875 95.988281 48.316406 95.898438 48.433594 C 95.808594 48.546875 95.691406 48.613281 95.546875 48.628906 C 95.402344 48.644531 95.269531 48.609375 95.15625 48.519531 C 95.042969 48.429688 94.976562 48.308594 94.960938 48.164062 C 94.941406 48.019531 94.980469 47.890625 95.070312 47.777344 C 95.160156 47.664062 95.277344 47.597656 95.421875 47.582031 C 95.566406 47.5625 95.699219 47.601562 95.8125 47.691406 Z M 95.8125 47.691406 " fill-opacity="1" fill-rule="nonzero"/><path fill="#778b91" d="M 96.792969 47.675781 C 96.746094 47.648438 96.710938 47.609375 96.695312 47.554688 C 96.464844 46.886719 96.054688 46.648438 95.371094 46.785156 C 95.222656 46.816406 95.132812 46.761719 95.101562 46.609375 C 95.070312 46.460938 95.132812 46.371094 95.28125 46.34375 C 96.179688 46.164062 96.816406 46.53125 97.117188 47.410156 C 97.152344 47.507812 97.128906 47.589844 97.046875 47.65625 C 96.96875 47.71875 96.882812 47.726562 96.792969 47.675781 Z M 96.792969 47.675781 " fill-opacity="1" fill-rule="nonzero"/><path fill="#778b91" d="M 97.941406 47.492188 C 97.894531 47.464844 97.863281 47.425781 97.84375 47.371094 C 97.355469 45.949219 96.414062 45.402344 94.960938 45.691406 C 94.816406 45.722656 94.726562 45.664062 94.699219 45.515625 C 94.667969 45.371094 94.726562 45.28125 94.871094 45.253906 C 95.710938 45.085938 96.421875 45.167969 96.992188 45.496094 C 97.558594 45.828125 97.988281 46.40625 98.269531 47.222656 C 98.300781 47.320312 98.277344 47.402344 98.199219 47.46875 C 98.117188 47.535156 98.03125 47.542969 97.941406 47.488281 Z M 97.941406 47.492188 " fill-opacity="1" fill-rule="nonzero"/><path fill="#778b91" d="M 99.015625 47.285156 C 98.96875 47.257812 98.9375 47.214844 98.917969 47.164062 C 98.1875 45.042969 96.78125 44.222656 94.609375 44.65625 C 94.460938 44.691406 94.371094 44.632812 94.339844 44.484375 C 94.3125 44.332031 94.371094 44.242188 94.523438 44.21875 C 96.917969 43.734375 98.539062 44.675781 99.34375 47.015625 C 99.375 47.117188 99.351562 47.199219 99.273438 47.265625 C 99.191406 47.328125 99.105469 47.335938 99.015625 47.285156 Z M 99.015625 47.285156 " fill-opacity="1" fill-rule="nonzero"/><path fill="#f07475" d="M 15.460938 58.207031 C 15.796875 58.542969 16.097656 58.910156 16.363281 59.304688 C 16.625 59.699219 16.847656 60.117188 17.03125 60.558594 C 17.214844 60.996094 17.351562 61.449219 17.445312 61.917969 C 17.535156 62.382812 17.582031 62.855469 17.582031 63.332031 C 17.582031 63.808594 17.535156 64.277344 17.445312 64.746094 C 17.351562 65.210938 17.214844 65.664062 17.03125 66.105469 C 16.847656 66.542969 16.625 66.960938 16.363281 67.359375 C 16.097656 67.753906 15.796875 68.121094 15.460938 68.457031 C 15.125 68.792969 14.757812 69.09375 14.363281 69.359375 C 13.96875 69.621094 13.550781 69.84375 13.109375 70.027344 C 12.671875 70.210938 12.21875 70.347656 11.75 70.441406 C 11.285156 70.53125 10.8125 70.578125 10.335938 70.578125 C 9.863281 70.578125 9.390625 70.53125 8.925781 70.441406 C 8.457031 70.347656 8.003906 70.210938 7.566406 70.027344 C 7.125 69.84375 6.707031 69.621094 6.3125 69.359375 C 5.917969 69.09375 5.550781 68.792969 5.214844 68.457031 C 4.878906 68.121094 4.578125 67.753906 4.3125 67.359375 C 4.050781 66.960938 3.824219 66.542969 3.644531 66.105469 C 3.460938 65.664062 3.324219 65.210938 3.230469 64.746094 C 3.140625 64.277344 3.09375 63.808594 3.09375 63.332031 C 3.09375 62.855469 3.140625 62.382812 3.230469 61.917969 C 3.324219 61.449219 3.460938 60.996094 3.644531 60.558594 C 3.824219 60.117188 4.050781 59.699219 4.3125 59.304688 C 4.578125 58.910156 4.878906 58.542969 5.214844 58.207031 C 5.550781 57.871094 5.917969 57.570312 6.3125 57.304688 C 6.707031 57.042969 7.125 56.816406 7.566406 56.636719 C 8.003906 56.453125 8.457031 56.316406 8.925781 56.222656 C 9.390625 56.132812 9.863281 56.085938 10.335938 56.085938 C 10.8125 56.085938 11.285156 56.132812 11.75 56.222656 C 12.21875 56.316406 12.671875 56.453125 13.109375 56.636719 C 13.550781 56.816406 13.96875 57.042969 14.363281 57.304688 C 14.757812 57.570312 15.125 57.871094 15.460938 58.207031 Z M 15.460938 58.207031 " fill-opacity="1" fill-rule="nonzero"/><path fill="#313e5f" d="M 7.730469 62.171875 C 7.730469 62.363281 7.703125 62.550781 7.652344 62.726562 C 7.601562 62.902344 7.527344 63.0625 7.433594 63.195312 C 7.335938 63.332031 7.226562 63.4375 7.101562 63.511719 C 6.980469 63.585938 6.851562 63.621094 6.714844 63.621094 C 6.582031 63.621094 6.453125 63.585938 6.328125 63.511719 C 6.203125 63.4375 6.09375 63.332031 5.996094 63.195312 C 5.902344 63.0625 5.828125 62.902344 5.777344 62.726562 C 5.726562 62.550781 5.699219 62.363281 5.699219 62.171875 C 5.699219 61.980469 5.726562 61.792969 5.777344 61.617188 C 5.828125 61.441406 5.902344 61.28125 5.996094 61.148438 C 6.09375 61.011719 6.203125 60.90625 6.328125 60.832031 C 6.453125 60.757812 6.582031 60.722656 6.714844 60.722656 C 6.851562 60.722656 6.980469 60.757812 7.101562 60.832031 C 7.226562 60.90625 7.335938 61.011719 7.433594 61.148438 C 7.527344 61.28125 7.601562 61.441406 7.652344 61.617188 C 7.703125 61.792969 7.730469 61.980469 7.730469 62.171875 Z M 7.730469 62.171875 " fill-opacity="1" fill-rule="nonzero"/><path fill="#313e5f" d="M 14.976562 62.171875 C 14.976562 62.363281 14.949219 62.550781 14.898438 62.726562 C 14.847656 62.902344 14.773438 63.0625 14.679688 63.195312 C 14.582031 63.332031 14.472656 63.4375 14.347656 63.511719 C 14.222656 63.585938 14.09375 63.621094 13.960938 63.621094 C 13.824219 63.621094 13.695312 63.585938 13.574219 63.511719 C 13.449219 63.4375 13.339844 63.332031 13.242188 63.195312 C 13.148438 63.0625 13.074219 62.902344 13.023438 62.726562 C 12.972656 62.550781 12.945312 62.363281 12.945312 62.171875 C 12.945312 61.980469 12.972656 61.792969 13.023438 61.617188 C 13.074219 61.441406 13.148438 61.28125 13.242188 61.148438 C 13.339844 61.011719 13.449219 60.90625 13.574219 60.832031 C 13.695312 60.757812 13.824219 60.722656 13.960938 60.722656 C 14.09375 60.722656 14.222656 60.757812 14.347656 60.832031 C 14.472656 60.90625 14.582031 61.011719 14.679688 61.148438 C 14.773438 61.28125 14.847656 61.441406 14.898438 61.617188 C 14.949219 61.792969 14.976562 61.980469 14.976562 62.171875 Z M 14.976562 62.171875 " fill-opacity="1" fill-rule="nonzero"/><path fill="#313e5f" d="M 7.035156 66.152344 C 7.136719 65.785156 7.257812 65.359375 7.636719 65.183594 C 7.777344 65.117188 7.925781 65.113281 8.070312 65.171875 C 8.1875 65.222656 8.289062 65.296875 8.378906 65.386719 C 8.582031 65.578125 8.75 65.8125 8.988281 65.964844 C 9.109375 66.046875 9.246094 66.089844 9.394531 66.09375 C 9.574219 66.089844 9.734375 66.03125 9.878906 65.921875 C 10.027344 65.808594 10.15625 65.679688 10.265625 65.53125 C 10.382812 65.382812 10.488281 65.226562 10.621094 65.09375 C 10.742188 64.972656 10.882812 64.859375 11.050781 64.8125 C 11.128906 64.789062 11.210938 64.785156 11.292969 64.796875 C 11.351562 64.808594 11.402344 64.824219 11.453125 64.851562 C 11.679688 64.964844 11.835938 65.1875 11.988281 65.382812 C 12.140625 65.582031 12.304688 65.796875 12.539062 65.890625 C 12.671875 65.945312 12.804688 65.953125 12.9375 65.914062 C 13.109375 65.867188 13.246094 65.753906 13.367188 65.628906 C 13.492188 65.496094 13.597656 65.347656 13.734375 65.226562 C 13.855469 65.117188 14.015625 65.019531 14.1875 65.015625 C 14.265625 65.011719 14.335938 65.035156 14.402344 65.082031 C 14.441406 65.101562 14.46875 65.09375 14.492188 65.058594 C 14.511719 65.019531 14.503906 64.988281 14.46875 64.964844 C 14.140625 64.730469 13.726562 65.015625 13.507812 65.269531 C 13.300781 65.503906 13.074219 65.832031 12.71875 65.800781 C 12.613281 65.785156 12.515625 65.742188 12.433594 65.675781 C 12.335938 65.59375 12.25 65.5 12.171875 65.398438 C 12.003906 65.191406 11.855469 64.964844 11.636719 64.804688 C 11.527344 64.722656 11.40625 64.675781 11.269531 64.660156 C 11.089844 64.644531 10.910156 64.707031 10.761719 64.804688 C 10.605469 64.917969 10.46875 65.046875 10.355469 65.199219 C 10.238281 65.347656 10.132812 65.5 10.003906 65.636719 C 9.882812 65.761719 9.746094 65.882812 9.578125 65.933594 C 9.433594 65.980469 9.296875 65.96875 9.160156 65.90625 C 8.90625 65.789062 8.734375 65.550781 8.542969 65.359375 C 8.339844 65.152344 8.089844 64.964844 7.789062 65.003906 C 7.589844 65.035156 7.425781 65.125 7.292969 65.273438 C 7.152344 65.429688 7.0625 65.621094 7 65.816406 C 6.964844 65.917969 6.9375 66.015625 6.910156 66.117188 C 6.898438 66.15625 6.914062 66.183594 6.957031 66.195312 C 6.996094 66.207031 7.023438 66.191406 7.039062 66.152344 Z M 7.035156 66.152344 " fill-opacity="1" fill-rule="nonzero"/><path fill="#fc7b84" d="M 120.527344 58.066406 L 121.324219 57.800781 C 123.570312 56.898438 125.292969 54.824219 124.441406 52.265625 L 122.78125 47.28125 C 122.769531 47.242188 122.742188 47.21875 122.699219 47.214844 C 122.660156 47.210938 122.625 47.226562 122.605469 47.261719 C 121.925781 48.433594 121.332031 49.816406 120.582031 50.292969 C 119.246094 51.148438 117.457031 51.074219 116.054688 51.96875 C 115.335938 52.421875 114.695312 52.972656 114.136719 53.613281 C 114.113281 53.640625 114.109375 53.671875 114.121094 53.707031 L 114.714844 55.503906 C 115.566406 58.0625 118.1875 58.691406 120.527344 58.066406 Z M 120.527344 58.066406 " fill-opacity="1" fill-rule="nonzero"/><path fill="#adced8" d="M 122.453125 44.875 L 124.96875 52.425781 C 125.894531 55.207031 124.019531 57.464844 121.578125 58.445312 L 125.628906 70.628906 C 125.898438 70.566406 126.144531 70.53125 126.324219 70.550781 L 131.003906 70.964844 C 131.085938 70.96875 131.007812 71.039062 130.863281 71.089844 L 120.851562 74.421875 C 120.707031 74.46875 120.601562 74.460938 120.664062 74.40625 L 124.160156 71.269531 C 124.292969 71.148438 124.511719 71.027344 124.761719 70.917969 L 120.710938 58.734375 C 118.167969 59.410156 115.3125 58.730469 114.386719 55.945312 L 111.875 48.394531 C 111.8125 48.210938 111.828125 48.03125 111.914062 47.859375 C 112 47.683594 112.136719 47.566406 112.320312 47.503906 L 121.5625 44.429688 C 121.75 44.367188 121.925781 44.378906 122.101562 44.464844 C 122.277344 44.554688 122.394531 44.6875 122.453125 44.875 Z M 122.453125 44.875 " fill-opacity="0.21" fill-rule="nonzero"/><path fill="#ffffff" d="M 132.535156 35.804688 C 132 34.78125 130.054688 33.941406 127.480469 33.578125 C 126.984375 32.679688 125.578125 31.996094 123.855469 31.875 C 123.542969 30.386719 121.273438 29.234375 118.519531 29.234375 C 115.550781 29.234375 113.144531 30.574219 113.144531 32.226562 C 113.144531 32.464844 113.195312 32.695312 113.289062 32.914062 C 110.597656 33.078125 108.503906 34.347656 108.503906 35.890625 C 108.503906 36.011719 108.566406 36.074219 108.6875 36.074219 L 132.371094 36.074219 C 132.441406 36.074219 132.492188 36.042969 132.527344 35.984375 C 132.566406 35.925781 132.566406 35.867188 132.535156 35.804688 Z M 132.535156 35.804688 " fill-opacity="1" fill-rule="nonzero"/><path fill="#ffffff" d="M 40.433594 81.804688 C 39.816406 80.621094 37.574219 79.65625 34.605469 79.238281 C 34.03125 78.199219 32.40625 77.417969 30.421875 77.273438 C 30.0625 75.558594 27.445312 74.226562 24.269531 74.226562 C 20.847656 74.226562 18.074219 75.773438 18.074219 77.679688 C 18.074219 77.953125 18.132812 78.21875 18.242188 78.472656 C 15.136719 78.660156 12.722656 80.125 12.722656 81.902344 C 12.726562 82.042969 12.796875 82.113281 12.9375 82.113281 L 40.242188 82.113281 C 40.324219 82.117188 40.382812 82.082031 40.425781 82.011719 C 40.46875 81.945312 40.46875 81.875 40.433594 81.804688 Z M 40.433594 81.804688 " fill-opacity="1" fill-rule="nonzero"/><path fill="#ffffff" d="M 126.6875 92.515625 C 126.273438 91.730469 124.785156 91.085938 122.808594 90.808594 C 122.425781 90.117188 121.347656 89.597656 120.027344 89.5 C 119.785156 88.359375 118.046875 87.472656 115.933594 87.472656 C 113.65625 87.472656 111.8125 88.503906 111.8125 89.769531 C 111.8125 89.953125 111.847656 90.128906 111.921875 90.300781 C 109.859375 90.425781 108.25 91.398438 108.25 92.582031 C 108.25 92.675781 108.296875 92.722656 108.390625 92.722656 L 126.558594 92.722656 C 126.613281 92.722656 126.652344 92.699219 126.679688 92.652344 C 126.707031 92.609375 126.710938 92.5625 126.6875 92.515625 Z M 126.6875 92.515625 " fill-opacity="1" fill-rule="nonzero"/><path fill="#fba242" d="M 46.941406 51.253906 C 41.640625 51.253906 37.339844 46.953125 37.339844 41.648438 C 37.339844 36.34375 41.640625 32.042969 46.941406 32.042969 C 48.082031 32.042969 49.191406 32.238281 50.261719 32.632812 C 49.109375 31.542969 47.800781 30.703125 46.328125 30.117188 C 44.855469 29.53125 43.328125 29.242188 41.742188 29.242188 C 34.890625 29.242188 29.339844 34.796875 29.339844 41.648438 C 29.339844 48.496094 34.894531 54.050781 41.742188 54.050781 C 43.328125 54.054688 44.855469 53.761719 46.328125 53.175781 C 47.800781 52.589844 49.109375 51.75 50.261719 50.660156 C 49.191406 51.054688 48.085938 51.253906 46.941406 51.253906 Z M 46.941406 51.253906 " fill-opacity="1" fill-rule="nonzero"/><path fill="#d6d9dd" d="M 47.859375 58.472656 C 48.011719 58.523438 48.144531 58.601562 48.265625 58.707031 C 48.386719 58.8125 48.484375 58.933594 48.554688 59.078125 C 48.625 59.222656 48.667969 59.371094 48.679688 59.53125 C 48.6875 59.691406 48.667969 59.847656 48.617188 60 C 48.566406 60.152344 48.488281 60.289062 48.382812 60.40625 C 48.277344 60.527344 48.15625 60.625 48.011719 60.695312 C 47.867188 60.765625 47.71875 60.808594 47.558594 60.820312 C 47.398438 60.832031 47.242188 60.808594 47.089844 60.757812 C 46.9375 60.707031 46.804688 60.628906 46.683594 60.527344 C 46.5625 60.421875 46.464844 60.296875 46.394531 60.152344 C 46.324219 60.011719 46.28125 59.859375 46.269531 59.699219 C 46.261719 59.539062 46.28125 59.382812 46.332031 59.230469 C 46.382812 59.082031 46.460938 58.945312 46.566406 58.824219 C 46.667969 58.703125 46.792969 58.605469 46.9375 58.535156 C 47.082031 58.464844 47.230469 58.421875 47.390625 58.410156 C 47.550781 58.402344 47.707031 58.421875 47.859375 58.472656 Z M 47.859375 58.472656 " fill-opacity="1" fill-rule="nonzero"/><path fill="#d6d9dd" d="M 62.761719 53.886719 C 62.832031 54.152344 62.851562 54.421875 62.8125 54.691406 C 62.777344 54.964844 62.6875 55.21875 62.550781 55.457031 C 62.414062 55.695312 62.234375 55.894531 62.015625 56.0625 C 61.796875 56.226562 61.558594 56.347656 61.292969 56.417969 C 61.027344 56.488281 60.757812 56.503906 60.484375 56.46875 C 60.214844 56.429688 59.960938 56.34375 59.722656 56.203125 C 59.484375 56.066406 59.28125 55.890625 59.117188 55.671875 C 58.949219 55.453125 58.832031 55.210938 58.761719 54.945312 C 58.691406 54.679688 58.675781 54.410156 58.710938 54.140625 C 58.75 53.867188 58.835938 53.613281 58.972656 53.375 C 59.113281 53.136719 59.289062 52.9375 59.507812 52.769531 C 59.726562 52.601562 59.96875 52.484375 60.234375 52.414062 C 60.5 52.34375 60.765625 52.328125 61.039062 52.363281 C 61.3125 52.402344 61.566406 52.488281 61.804688 52.625 C 62.039062 52.765625 62.242188 52.941406 62.40625 53.160156 C 62.574219 53.378906 62.691406 53.621094 62.761719 53.886719 Z M 62.761719 53.886719 " fill-opacity="1" fill-rule="nonzero"/><path fill="#d6d9dd" d="M 25.609375 45.878906 C 25.714844 45.988281 25.800781 46.113281 25.859375 46.253906 C 25.917969 46.394531 25.945312 46.542969 25.945312 46.695312 C 25.945312 46.847656 25.917969 46.996094 25.859375 47.136719 C 25.800781 47.277344 25.714844 47.402344 25.609375 47.511719 C 25.5 47.621094 25.375 47.703125 25.234375 47.761719 C 25.09375 47.820312 24.945312 47.851562 24.792969 47.851562 C 24.640625 47.851562 24.492188 47.820312 24.351562 47.761719 C 24.207031 47.703125 24.082031 47.621094 23.976562 47.511719 C 23.867188 47.402344 23.785156 47.277344 23.726562 47.136719 C 23.667969 46.996094 23.636719 46.847656 23.636719 46.695312 C 23.636719 46.542969 23.667969 46.394531 23.726562 46.253906 C 23.785156 46.113281 23.867188 45.988281 23.976562 45.878906 C 24.082031 45.769531 24.207031 45.6875 24.351562 45.628906 C 24.492188 45.570312 24.640625 45.539062 24.792969 45.539062 C 24.945312 45.539062 25.09375 45.570312 25.234375 45.628906 C 25.375 45.6875 25.5 45.769531 25.609375 45.878906 Z M 25.609375 45.878906 " fill-opacity="1" fill-rule="nonzero"/></svg>